<?xml version="1.0" encoding="UTF-8"?><svg xmlns="http://www.w3.org/2000/svg" xmlns:xlink="http://www.w3.org/1999/xlink" stroke-dasharray="none" shape-rendering="auto" font-family="'Dialog'" width="1087" text-rendering="auto" fill-opacity="1" contentScriptType="text/ecmascript" color-interpolation="auto" color-rendering="auto" preserveAspectRatio="xMidYMid meet" font-size="12" viewBox="0 0 1087 568" fill="black" stroke="black" image-rendering="auto" stroke-miterlimit="10" zoomAndPan="magnify" version="1.0" stroke-linecap="square" stroke-linejoin="miter" contentStyleType="text/css" font-style="normal" height="568" stroke-width="1" stroke-dashoffset="0" font-weight="normal" stroke-opacity="1">
<!--Generated by the Batik Graphics2D SVG Generator-->
<defs id="genericDefs"/>
<g>
<defs id="defs1">
<clipPath clipPathUnits="userSpaceOnUse" id="clipPath1">
<path d="M26 22 L68 22 L68 64 L26 64 L26 22 Z"/>
</clipPath>
<clipPath clipPathUnits="userSpaceOnUse" id="clipPath2">
<path d="M441 213 L635 213 L635 231 L441 231 L441 213 Z"/>
</clipPath>
<clipPath clipPathUnits="userSpaceOnUse" id="clipPath3">
<path d="M-1 -1 L1088 -1 L1088 569 L-1 569 L-1 -1 Z"/>
</clipPath>
<clipPath clipPathUnits="userSpaceOnUse" id="clipPath4">
<path d="M118 93 L312 93 L312 111 L118 111 L118 93 Z"/>
</clipPath>
<clipPath clipPathUnits="userSpaceOnUse" id="clipPath5">
<path d="M807 91 L1001 91 L1001 109 L807 109 L807 91 Z"/>
</clipPath>
<clipPath clipPathUnits="userSpaceOnUse" id="clipPath6">
<path d="M441 225 L635 225 L635 243 L441 243 L441 225 Z"/>
</clipPath>
<clipPath clipPathUnits="userSpaceOnUse" id="clipPath7">
<path d="M67 385 L261 385 L261 403 L67 403 L67 385 Z"/>
</clipPath>
<clipPath clipPathUnits="userSpaceOnUse" id="clipPath8">
<path d="M699 388 L893 388 L893 406 L699 406 L699 388 Z"/>
</clipPath>
<clipPath clipPathUnits="userSpaceOnUse" id="clipPath9">
<path d="M260 255 L454 255 L454 273 L260 273 L260 255 Z"/>
</clipPath>
<clipPath clipPathUnits="userSpaceOnUse" id="clipPath10">
<path d="M172 312 L366 312 L366 330 L172 330 L172 312 Z"/>
</clipPath>
<clipPath clipPathUnits="userSpaceOnUse" id="clipPath11">
<path d="M318 357 L512 357 L512 375 L318 375 L318 357 Z"/>
</clipPath>
<clipPath clipPathUnits="userSpaceOnUse" id="clipPath12">
<path d="M532 320 L726 320 L726 338 L532 338 L532 320 Z"/>
</clipPath>
</defs>
<g fill="rgb(255,203,203)" font-family="'Segoe UI'" stroke-linejoin="round" stroke="rgb(255,203,203)" stroke-width="0" stroke-miterlimit="0">
<rect width="184" x="443" height="40" y="82" stroke="none"/>
</g>
<g stroke-linecap="butt" font-family="'Segoe UI'">
<rect fill="none" width="183" x="443" height="39" y="82"/>
<text xml:space="preserve" x="438" y="107" stroke="none">Invalid view - remove from diagram.</text>
<rect x="10" y="209" fill="rgb(255,203,203)" width="188" height="40" stroke="none"/>
<rect x="10" y="209" fill="none" width="187" height="39" stroke-width="0.1"/>
<text xml:space="preserve" x="7" stroke-width="0.1" y="234" stroke="none">Invalid view - remove from diagram.</text>
<rect x="878" y="211" fill="rgb(255,203,203)" width="185" height="40" stroke="none" stroke-width="0.1"/>
<rect x="878" y="211" fill="none" width="184" height="39" stroke-width="0.1"/>
<text xml:space="preserve" x="874" stroke-width="0.1" y="236" stroke="none">Invalid view - remove from diagram.</text>
<rect x="451" y="385" fill="rgb(255,203,203)" width="40" height="40" stroke="none" stroke-width="0.1"/>
<rect x="451" y="385" fill="none" width="39" height="39" stroke-width="0.1"/>
<text xml:space="preserve" x="374" stroke-width="0.1" y="410" stroke="none">Invalid view - remove from diagram.</text>
<rect x="341" y="306" fill="rgb(255,203,203)" width="40" height="40" stroke="none" stroke-width="0.1"/>
<rect x="341" y="306" fill="none" width="39" height="39" stroke-width="0.1"/>
<text xml:space="preserve" x="264" stroke-width="0.1" y="331" stroke="none">Invalid view - remove from diagram.</text>
<rect x="223" y="518" fill="rgb(255,203,203)" width="40" height="40" stroke="none" stroke-width="0.1"/>
<rect x="223" y="518" fill="none" width="39" height="39" stroke-width="0.1"/>
<text xml:space="preserve" x="146" stroke-width="0.1" y="543" stroke="none">Invalid view - remove from diagram.</text>
<rect x="645" y="490" fill="rgb(255,203,203)" width="424" height="40" stroke="none" stroke-width="0.1"/>
<rect x="645" y="490" fill="none" width="423" height="39" stroke-width="0.1"/>
<text xml:space="preserve" x="760" stroke-width="0.1" y="515" stroke="none">Invalid view - remove from diagram.</text>
<line fill="none" x1="198" x2="878" y1="222" y2="222" stroke="red" stroke-width="1.1"/>
<rect x="27" y="23" clip-path="url(#clipPath1)" fill="rgb(255,203,203)" width="40" height="40" stroke="none" stroke-width="1.1"/>
<rect x="27" y="23" clip-path="url(#clipPath1)" fill="none" width="39" height="39" stroke-width="0.1"/>
<text x="-50" y="48" clip-path="url(#clipPath1)" stroke="none" stroke-width="0.1" xml:space="preserve">Invalid view - remove from diagram.</text>
<rect x="27" y="23" clip-path="url(#clipPath1)" fill="rgb(255,203,203)" width="40" height="40" stroke="none" stroke-width="0.1"/>
<rect x="27" y="23" clip-path="url(#clipPath1)" fill="none" width="39" height="39" stroke-width="0.1"/>
<text x="-50" y="48" clip-path="url(#clipPath1)" stroke="none" stroke-width="0.1" xml:space="preserve">Invalid view - remove from diagram.</text>
<rect x="27" y="23" clip-path="url(#clipPath1)" fill="rgb(255,203,203)" width="40" height="40" stroke="none" stroke-width="0.1"/>
<rect x="27" y="23" clip-path="url(#clipPath1)" fill="none" width="39" height="39" stroke-width="0.1"/>
<text x="-50" y="48" clip-path="url(#clipPath1)" stroke="none" stroke-width="0.1" xml:space="preserve">Invalid view - remove from diagram.</text>
<rect x="27" y="23" clip-path="url(#clipPath1)" fill="rgb(255,203,203)" width="40" height="40" stroke="none" stroke-width="0.1"/>
<rect x="27" y="23" clip-path="url(#clipPath1)" fill="none" width="39" height="39" stroke-width="0.1"/>
<text x="-50" y="48" clip-path="url(#clipPath1)" stroke="none" stroke-width="0.1" xml:space="preserve">Invalid view - remove from diagram.</text>
<rect x="27" y="23" clip-path="url(#clipPath1)" fill="rgb(255,203,203)" width="40" height="40" stroke="none" stroke-width="0.1"/>
<rect x="27" y="23" clip-path="url(#clipPath1)" fill="none" width="39" height="39" stroke-width="0.1"/>
<text x="-50" y="48" clip-path="url(#clipPath1)" stroke="none" stroke-width="0.1" xml:space="preserve">Invalid view - remove from diagram.</text>
<rect x="27" y="23" clip-path="url(#clipPath1)" fill="rgb(255,203,203)" width="40" height="40" stroke="none" stroke-width="0.1"/>
<rect x="27" y="23" clip-path="url(#clipPath1)" fill="none" width="39" height="39" stroke-width="0.1"/>
<text x="-50" y="48" clip-path="url(#clipPath1)" stroke="none" stroke-width="0.1" xml:space="preserve">Invalid view - remove from diagram.</text>
<text x="442" y="227" clip-path="url(#clipPath2)" fill="red" stroke="none" stroke-width="0.1" xml:space="preserve">Invalid view - remove from diagram.</text>
<line clip-path="url(#clipPath3)" fill="none" x1="443" x2="130" y1="102" y2="102" stroke="red" stroke-width="1.1"/>
<line clip-path="url(#clipPath3)" fill="none" x1="130" x2="130" y1="102" y2="112" stroke="red" stroke-width="1.1"/>
<line clip-path="url(#clipPath3)" fill="none" x1="130" x2="166" y1="112" y2="112" stroke="red" stroke-width="1.1"/>
<line clip-path="url(#clipPath3)" fill="none" x1="166" x2="166" y1="112" y2="209" stroke="red" stroke-width="1.1"/>
<rect x="27" y="23" clip-path="url(#clipPath1)" fill="rgb(255,203,203)" width="40" height="40" stroke="none" stroke-width="1.1"/>
<rect x="27" y="23" clip-path="url(#clipPath1)" fill="none" width="39" height="39" stroke-width="0.1"/>
<text x="-50" y="48" clip-path="url(#clipPath1)" stroke="none" stroke-width="0.1" xml:space="preserve">Invalid view - remove from diagram.</text>
<rect x="27" y="23" clip-path="url(#clipPath1)" fill="rgb(255,203,203)" width="40" height="40" stroke="none" stroke-width="0.1"/>
<rect x="27" y="23" clip-path="url(#clipPath1)" fill="none" width="39" height="39" stroke-width="0.1"/>
<text x="-50" y="48" clip-path="url(#clipPath1)" stroke="none" stroke-width="0.1" xml:space="preserve">Invalid view - remove from diagram.</text>
<rect x="27" y="23" clip-path="url(#clipPath1)" fill="rgb(255,203,203)" width="40" height="40" stroke="none" stroke-width="0.1"/>
<rect x="27" y="23" clip-path="url(#clipPath1)" fill="none" width="39" height="39" stroke-width="0.1"/>
<text x="-50" y="48" clip-path="url(#clipPath1)" stroke="none" stroke-width="0.1" xml:space="preserve">Invalid view - remove from diagram.</text>
<rect x="27" y="23" clip-path="url(#clipPath1)" fill="rgb(255,203,203)" width="40" height="40" stroke="none" stroke-width="0.1"/>
<rect x="27" y="23" clip-path="url(#clipPath1)" fill="none" width="39" height="39" stroke-width="0.1"/>
<text x="-50" y="48" clip-path="url(#clipPath1)" stroke="none" stroke-width="0.1" xml:space="preserve">Invalid view - remove from diagram.</text>
<rect x="27" y="23" clip-path="url(#clipPath1)" fill="rgb(255,203,203)" width="40" height="40" stroke="none" stroke-width="0.1"/>
<rect x="27" y="23" clip-path="url(#clipPath1)" fill="none" width="39" height="39" stroke-width="0.1"/>
<text x="-50" y="48" clip-path="url(#clipPath1)" stroke="none" stroke-width="0.1" xml:space="preserve">Invalid view - remove from diagram.</text>
<rect x="27" y="23" clip-path="url(#clipPath1)" fill="rgb(255,203,203)" width="40" height="40" stroke="none" stroke-width="0.1"/>
<rect x="27" y="23" clip-path="url(#clipPath1)" fill="none" width="39" height="39" stroke-width="0.1"/>
<text x="-50" y="48" clip-path="url(#clipPath1)" stroke="none" stroke-width="0.1" xml:space="preserve">Invalid view - remove from diagram.</text>
<text x="119" y="107" clip-path="url(#clipPath4)" fill="red" stroke="none" stroke-width="0.1" xml:space="preserve">Invalid view - remove from diagram.</text>
<line clip-path="url(#clipPath3)" fill="none" x1="627" x2="983" y1="100" y2="100" stroke="red" stroke-width="1.1"/>
<line clip-path="url(#clipPath3)" fill="none" x1="983" x2="983" y1="100" y2="97" stroke="red" stroke-width="1.1"/>
<line clip-path="url(#clipPath3)" fill="none" x1="983" x2="1063" y1="97" y2="97" stroke="red" stroke-width="1.1"/>
<line clip-path="url(#clipPath3)" fill="none" x1="1063" x2="1063" y1="97" y2="211" stroke="red" stroke-width="1.1"/>
<rect x="27" y="23" clip-path="url(#clipPath1)" fill="rgb(255,203,203)" width="40" height="40" stroke="none" stroke-width="1.1"/>
<rect x="27" y="23" clip-path="url(#clipPath1)" fill="none" width="39" height="39" stroke-width="0.1"/>
<text x="-50" y="48" clip-path="url(#clipPath1)" stroke="none" stroke-width="0.1" xml:space="preserve">Invalid view - remove from diagram.</text>
<rect x="27" y="23" clip-path="url(#clipPath1)" fill="rgb(255,203,203)" width="40" height="40" stroke="none" stroke-width="0.1"/>
<rect x="27" y="23" clip-path="url(#clipPath1)" fill="none" width="39" height="39" stroke-width="0.1"/>
<text x="-50" y="48" clip-path="url(#clipPath1)" stroke="none" stroke-width="0.1" xml:space="preserve">Invalid view - remove from diagram.</text>
<rect x="27" y="23" clip-path="url(#clipPath1)" fill="rgb(255,203,203)" width="40" height="40" stroke="none" stroke-width="0.1"/>
<rect x="27" y="23" clip-path="url(#clipPath1)" fill="none" width="39" height="39" stroke-width="0.1"/>
<text x="-50" y="48" clip-path="url(#clipPath1)" stroke="none" stroke-width="0.1" xml:space="preserve">Invalid view - remove from diagram.</text>
<rect x="27" y="23" clip-path="url(#clipPath1)" fill="rgb(255,203,203)" width="40" height="40" stroke="none" stroke-width="0.1"/>
<rect x="27" y="23" clip-path="url(#clipPath1)" fill="none" width="39" height="39" stroke-width="0.1"/>
<text x="-50" y="48" clip-path="url(#clipPath1)" stroke="none" stroke-width="0.1" xml:space="preserve">Invalid view - remove from diagram.</text>
<rect x="27" y="23" clip-path="url(#clipPath1)" fill="rgb(255,203,203)" width="40" height="40" stroke="none" stroke-width="0.1"/>
<rect x="27" y="23" clip-path="url(#clipPath1)" fill="none" width="39" height="39" stroke-width="0.1"/>
<text x="-50" y="48" clip-path="url(#clipPath1)" stroke="none" stroke-width="0.1" xml:space="preserve">Invalid view - remove from diagram.</text>
<rect x="27" y="23" clip-path="url(#clipPath1)" fill="rgb(255,203,203)" width="40" height="40" stroke="none" stroke-width="0.1"/>
<rect x="27" y="23" clip-path="url(#clipPath1)" fill="none" width="39" height="39" stroke-width="0.1"/>
<text x="-50" y="48" clip-path="url(#clipPath1)" stroke="none" stroke-width="0.1" xml:space="preserve">Invalid view - remove from diagram.</text>
<text x="808" y="105" clip-path="url(#clipPath5)" fill="red" stroke="none" stroke-width="0.1" xml:space="preserve">Invalid view - remove from diagram.</text>
<line clip-path="url(#clipPath3)" fill="none" x1="878" x2="198" y1="234" y2="234" stroke="red" stroke-width="1.1"/>
<rect x="27" y="23" clip-path="url(#clipPath1)" fill="rgb(255,203,203)" width="40" height="40" stroke="none" stroke-width="1.1"/>
<rect x="27" y="23" clip-path="url(#clipPath1)" fill="none" width="39" height="39" stroke-width="0.1"/>
<text x="-50" y="48" clip-path="url(#clipPath1)" stroke="none" stroke-width="0.1" xml:space="preserve">Invalid view - remove from diagram.</text>
<rect x="27" y="23" clip-path="url(#clipPath1)" fill="rgb(255,203,203)" width="40" height="40" stroke="none" stroke-width="0.1"/>
<rect x="27" y="23" clip-path="url(#clipPath1)" fill="none" width="39" height="39" stroke-width="0.1"/>
<text x="-50" y="48" clip-path="url(#clipPath1)" stroke="none" stroke-width="0.1" xml:space="preserve">Invalid view - remove from diagram.</text>
<text x="442" y="239" clip-path="url(#clipPath6)" fill="red" stroke="none" stroke-width="0.1" xml:space="preserve">Invalid view - remove from diagram.</text>
<line clip-path="url(#clipPath3)" fill="none" x1="198" x2="198" y1="249" y2="404" stroke="red" stroke-width="1.1"/>
<line clip-path="url(#clipPath3)" fill="none" x1="198" x2="120" y1="404" y2="404" stroke="red" stroke-width="1.1"/>
<line clip-path="url(#clipPath3)" fill="none" x1="120" x2="120" y1="404" y2="394" stroke="red" stroke-width="1.1"/>
<line clip-path="url(#clipPath3)" fill="none" x1="120" x2="451" y1="394" y2="394" stroke="red" stroke-width="1.1"/>
<rect x="27" y="23" clip-path="url(#clipPath1)" fill="rgb(255,203,203)" width="40" height="40" stroke="none" stroke-width="1.1"/>
<rect x="27" y="23" clip-path="url(#clipPath1)" fill="none" width="39" height="39" stroke-width="0.1"/>
<text x="-50" y="48" clip-path="url(#clipPath1)" stroke="none" stroke-width="0.1" xml:space="preserve">Invalid view - remove from diagram.</text>
<rect x="27" y="23" clip-path="url(#clipPath1)" fill="rgb(255,203,203)" width="40" height="40" stroke="none" stroke-width="0.1"/>
<rect x="27" y="23" clip-path="url(#clipPath1)" fill="none" width="39" height="39" stroke-width="0.1"/>
<text x="-50" y="48" clip-path="url(#clipPath1)" stroke="none" stroke-width="0.1" xml:space="preserve">Invalid view - remove from diagram.</text>
<rect x="27" y="23" clip-path="url(#clipPath1)" fill="rgb(255,203,203)" width="40" height="40" stroke="none" stroke-width="0.1"/>
<rect x="27" y="23" clip-path="url(#clipPath1)" fill="none" width="39" height="39" stroke-width="0.1"/>
<text x="-50" y="48" clip-path="url(#clipPath1)" stroke="none" stroke-width="0.1" xml:space="preserve">Invalid view - remove from diagram.</text>
<rect x="27" y="23" clip-path="url(#clipPath1)" fill="rgb(255,203,203)" width="40" height="40" stroke="none" stroke-width="0.1"/>
<rect x="27" y="23" clip-path="url(#clipPath1)" fill="none" width="39" height="39" stroke-width="0.1"/>
<text x="-50" y="48" clip-path="url(#clipPath1)" stroke="none" stroke-width="0.1" xml:space="preserve">Invalid view - remove from diagram.</text>
<rect x="27" y="23" clip-path="url(#clipPath1)" fill="rgb(255,203,203)" width="40" height="40" stroke="none" stroke-width="0.1"/>
<rect x="27" y="23" clip-path="url(#clipPath1)" fill="none" width="39" height="39" stroke-width="0.1"/>
<text x="-50" y="48" clip-path="url(#clipPath1)" stroke="none" stroke-width="0.1" xml:space="preserve">Invalid view - remove from diagram.</text>
<rect x="27" y="23" clip-path="url(#clipPath1)" fill="rgb(255,203,203)" width="40" height="40" stroke="none" stroke-width="0.1"/>
<rect x="27" y="23" clip-path="url(#clipPath1)" fill="none" width="39" height="39" stroke-width="0.1"/>
<text x="-50" y="48" clip-path="url(#clipPath1)" stroke="none" stroke-width="0.1" xml:space="preserve">Invalid view - remove from diagram.</text>
<text x="68" y="399" clip-path="url(#clipPath7)" fill="red" stroke="none" stroke-width="0.1" xml:space="preserve">Invalid view - remove from diagram.</text>
<line clip-path="url(#clipPath3)" fill="none" x1="878" x2="878" y1="251" y2="406" stroke="red" stroke-width="1.1"/>
<line clip-path="url(#clipPath3)" fill="none" x1="878" x2="908" y1="406" y2="406" stroke="red" stroke-width="1.1"/>
<line clip-path="url(#clipPath3)" fill="none" x1="908" x2="908" y1="406" y2="397" stroke="red" stroke-width="1.1"/>
<line clip-path="url(#clipPath3)" fill="none" x1="908" x2="491" y1="397" y2="397" stroke="red" stroke-width="1.1"/>
<rect x="27" y="23" clip-path="url(#clipPath1)" fill="rgb(255,203,203)" width="40" height="40" stroke="none" stroke-width="1.1"/>
<rect x="27" y="23" clip-path="url(#clipPath1)" fill="none" width="39" height="39" stroke-width="0.1"/>
<text x="-50" y="48" clip-path="url(#clipPath1)" stroke="none" stroke-width="0.1" xml:space="preserve">Invalid view - remove from diagram.</text>
<rect x="27" y="23" clip-path="url(#clipPath1)" fill="rgb(255,203,203)" width="40" height="40" stroke="none" stroke-width="0.1"/>
<rect x="27" y="23" clip-path="url(#clipPath1)" fill="none" width="39" height="39" stroke-width="0.1"/>
<text x="-50" y="48" clip-path="url(#clipPath1)" stroke="none" stroke-width="0.1" xml:space="preserve">Invalid view - remove from diagram.</text>
<rect x="27" y="23" clip-path="url(#clipPath1)" fill="rgb(255,203,203)" width="40" height="40" stroke="none" stroke-width="0.1"/>
<rect x="27" y="23" clip-path="url(#clipPath1)" fill="none" width="39" height="39" stroke-width="0.1"/>
<text x="-50" y="48" clip-path="url(#clipPath1)" stroke="none" stroke-width="0.1" xml:space="preserve">Invalid view - remove from diagram.</text>
<rect x="27" y="23" clip-path="url(#clipPath1)" fill="rgb(255,203,203)" width="40" height="40" stroke="none" stroke-width="0.1"/>
<rect x="27" y="23" clip-path="url(#clipPath1)" fill="none" width="39" height="39" stroke-width="0.1"/>
<text x="-50" y="48" clip-path="url(#clipPath1)" stroke="none" stroke-width="0.1" xml:space="preserve">Invalid view - remove from diagram.</text>
<rect x="27" y="23" clip-path="url(#clipPath1)" fill="rgb(255,203,203)" width="40" height="40" stroke="none" stroke-width="0.1"/>
<rect x="27" y="23" clip-path="url(#clipPath1)" fill="none" width="39" height="39" stroke-width="0.1"/>
<text x="-50" y="48" clip-path="url(#clipPath1)" stroke="none" stroke-width="0.1" xml:space="preserve">Invalid view - remove from diagram.</text>
<rect x="27" y="23" clip-path="url(#clipPath1)" fill="rgb(255,203,203)" width="40" height="40" stroke="none" stroke-width="0.1"/>
<rect x="27" y="23" clip-path="url(#clipPath1)" fill="none" width="39" height="39" stroke-width="0.1"/>
<text x="-50" y="48" clip-path="url(#clipPath1)" stroke="none" stroke-width="0.1" xml:space="preserve">Invalid view - remove from diagram.</text>
<text x="700" y="402" clip-path="url(#clipPath8)" fill="red" stroke="none" stroke-width="0.1" xml:space="preserve">Invalid view - remove from diagram.</text>
<line clip-path="url(#clipPath3)" fill="none" x1="350" x2="364" y1="306" y2="222" stroke="red" stroke-width="1.1"/>
<rect x="27" y="23" clip-path="url(#clipPath1)" fill="rgb(255,203,203)" width="40" height="40" stroke="none" stroke-width="1.1"/>
<rect x="27" y="23" clip-path="url(#clipPath1)" fill="none" width="39" height="39" stroke-width="0.1"/>
<text x="-50" y="48" clip-path="url(#clipPath1)" stroke="none" stroke-width="0.1" xml:space="preserve">Invalid view - remove from diagram.</text>
<text x="261" y="269" clip-path="url(#clipPath9)" fill="red" stroke="none" stroke-width="0.1" xml:space="preserve">Invalid view - remove from diagram.</text>
<line clip-path="url(#clipPath3)" fill="none" x1="341" x2="198" y1="343" y2="300" stroke="red" stroke-width="1.1"/>
<text x="173" y="326" clip-path="url(#clipPath10)" fill="red" stroke="none" stroke-width="1.1" xml:space="preserve">Invalid view - remove from diagram.</text>
<line clip-path="url(#clipPath3)" fill="none" x1="376" x2="454" y1="346" y2="385" stroke="red" stroke-width="1.1"/>
<text x="319" y="371" clip-path="url(#clipPath11)" fill="red" stroke="none" stroke-width="1.1" xml:space="preserve">Invalid view - remove from diagram.</text>
<line clip-path="url(#clipPath3)" fill="none" x1="381" x2="878" y1="329" y2="329" stroke="red" stroke-width="1.1"/>
<text x="533" y="334" clip-path="url(#clipPath12)" fill="red" stroke="none" stroke-width="1.1" xml:space="preserve">Invalid view - remove from diagram.</text>
</g>
</g>
<rect x="443" y="82" fill-opacity="0" width="184" id="ConstrainedHypergraph" height="40" stroke-opacity="0"/>
<rect x="10" y="209" fill-opacity="0" width="188" id="ConstrainedHyperEdge" height="40" stroke-opacity="0"/>
<rect x="878" y="211" fill-opacity="0" width="185" id="ConstrainedVertex" height="40" stroke-opacity="0"/>
<rect x="451" y="385" fill-opacity="0" width="40" id="VertexOpportunity" height="40" stroke-opacity="0"/>
<rect x="0" y="0" fill-opacity="0" width="0" id="direction" height="0" stroke-opacity="0"/>
<rect x="341" y="306" fill-opacity="0" width="40" id="SummaryOf" height="40" stroke-opacity="0"/>
<rect x="223" y="518" fill-opacity="0" width="40" height="40" stroke-opacity="0"/>
<rect x="645" y="490" fill-opacity="0" width="424" height="40" stroke-opacity="0"/>
</svg>
