<?xml version="1.0" encoding="UTF-8"?><svg xmlns="http://www.w3.org/2000/svg" xmlns:xlink="http://www.w3.org/1999/xlink" stroke-dasharray="none" shape-rendering="auto" font-family="'Dialog'" width="1798" text-rendering="auto" fill-opacity="1" contentScriptType="text/ecmascript" color-interpolation="auto" color-rendering="auto" preserveAspectRatio="xMidYMid meet" font-size="12" viewBox="0 0 1798 795" fill="black" stroke="black" image-rendering="auto" stroke-miterlimit="10" zoomAndPan="magnify" version="1.0" stroke-linecap="square" stroke-linejoin="miter" contentStyleType="text/css" font-style="normal" height="795" stroke-width="1" stroke-dashoffset="0" font-weight="normal" stroke-opacity="1">
<!--Generated by the Batik Graphics2D SVG Generator-->
<defs id="genericDefs"/>
<g>
<defs id="defs1">
<clipPath clipPathUnits="userSpaceOnUse" id="clipPath1">
<path d="M1301 127 L1398 127 L1398 144 L1301 144 L1301 127 Z"/>
</clipPath>
<clipPath clipPathUnits="userSpaceOnUse" id="clipPath2">
<path d="M-1 -1 L1799 -1 L1799 796 L-1 796 L-1 -1 Z"/>
</clipPath>
<clipPath clipPathUnits="userSpaceOnUse" id="clipPath3">
<path d="M1301 197 L1398 197 L1398 214 L1301 214 L1301 197 Z"/>
</clipPath>
<clipPath clipPathUnits="userSpaceOnUse" id="clipPath4">
<path d="M1301 190 L1424 190 L1424 222 L1301 222 L1301 190 Z"/>
</clipPath>
<clipPath clipPathUnits="userSpaceOnUse" id="clipPath5">
<path d="M324 101 L557 101 L557 118 L324 118 L324 101 Z"/>
</clipPath>
<clipPath clipPathUnits="userSpaceOnUse" id="clipPath6">
<path d="M810 160 L1034 160 L1034 177 L810 177 L810 160 Z"/>
</clipPath>
<clipPath clipPathUnits="userSpaceOnUse" id="clipPath7">
<path d="M840 195 L979 195 L979 212 L840 212 L840 195 Z"/>
</clipPath>
<clipPath clipPathUnits="userSpaceOnUse" id="clipPath8">
<path d="M959 285 L1053 285 L1053 302 L959 302 L959 285 Z"/>
</clipPath>
<clipPath clipPathUnits="userSpaceOnUse" id="clipPath9">
<path d="M724 285 L818 285 L818 302 L724 302 L724 285 Z"/>
</clipPath>
<clipPath clipPathUnits="userSpaceOnUse" id="clipPath10">
<path d="M324 325 L418 325 L418 342 L324 342 L324 325 Z"/>
</clipPath>
<clipPath clipPathUnits="userSpaceOnUse" id="clipPath11">
<path d="M1288 244 L1787 244 L1787 696 L1288 696 L1288 244 Z"/>
</clipPath>
<clipPath clipPathUnits="userSpaceOnUse" id="clipPath12">
<path d="M410 300 L452 300 L452 342 L410 342 L410 300 Z"/>
</clipPath>
<clipPath clipPathUnits="userSpaceOnUse" id="clipPath13">
<path d="M617 517 L811 517 L811 535 L617 535 L617 517 Z"/>
</clipPath>
<clipPath clipPathUnits="userSpaceOnUse" id="clipPath14">
<path d="M808 382 L1002 382 L1002 400 L808 400 L808 382 Z"/>
</clipPath>
<clipPath clipPathUnits="userSpaceOnUse" id="clipPath15">
<path d="M879 597 L1073 597 L1073 615 L879 615 L879 597 Z"/>
</clipPath>
<clipPath clipPathUnits="userSpaceOnUse" id="clipPath16">
<path d="M554 264 L748 264 L748 282 L554 282 L554 264 Z"/>
</clipPath>
<clipPath clipPathUnits="userSpaceOnUse" id="clipPath17">
<path d="M816 142 L1010 142 L1010 160 L816 160 L816 142 Z"/>
</clipPath>
<clipPath clipPathUnits="userSpaceOnUse" id="clipPath18">
<path d="M984 262 L1178 262 L1178 280 L984 280 L984 262 Z"/>
</clipPath>
<clipPath clipPathUnits="userSpaceOnUse" id="clipPath19">
<path d="M334 140 L528 140 L528 158 L334 158 L334 140 Z"/>
</clipPath>
<clipPath clipPathUnits="userSpaceOnUse" id="clipPath20">
<path d="M139 573 L333 573 L333 591 L139 591 L139 573 Z"/>
</clipPath>
<clipPath clipPathUnits="userSpaceOnUse" id="clipPath21">
<path d="M764 162 L958 162 L958 180 L764 180 L764 162 Z"/>
</clipPath>
<clipPath clipPathUnits="userSpaceOnUse" id="clipPath22">
<path d="M336 162 L530 162 L530 180 L336 180 L336 162 Z"/>
</clipPath>
<clipPath clipPathUnits="userSpaceOnUse" id="clipPath23">
<path d="M1051 22 L1245 22 L1245 40 L1051 40 L1051 22 Z"/>
</clipPath>
<clipPath clipPathUnits="userSpaceOnUse" id="clipPath24">
<path d="M22 286 L216 286 L216 304 L22 304 L22 286 Z"/>
</clipPath>
</defs>
<g fill="rgb(255,203,203)" font-family="'Segoe UI'" stroke-linejoin="round" stroke="rgb(255,203,203)" stroke-width="0" stroke-miterlimit="0">
<rect width="152" x="601" height="40" y="375" stroke="none"/>
</g>
<g stroke-linecap="butt" font-family="'Segoe UI'">
<rect fill="none" width="151" x="601" height="39" y="375"/>
<text xml:space="preserve" x="580" y="400" stroke="none">Invalid view - remove from diagram.</text>
<rect x="636" y="586" fill="rgb(255,203,203)" width="40" height="40" stroke="none"/>
<rect x="636" y="586" fill="none" width="39" height="39" stroke-width="0.1"/>
<text xml:space="preserve" x="559" stroke-width="0.1" y="611" stroke="none">Invalid view - remove from diagram.</text>
<rect x="1061" y="371" fill="rgb(255,203,203)" width="40" height="40" stroke="none" stroke-width="0.1"/>
<rect x="1061" y="371" fill="none" width="39" height="39" stroke-width="0.1"/>
<text xml:space="preserve" x="984" stroke-width="0.1" y="396" stroke="none">Invalid view - remove from diagram.</text>
<rect x="471" y="191" fill="rgb(255,203,203)" width="121" height="40" stroke="none" stroke-width="0.1"/>
<rect x="471" y="191" fill="none" width="120" height="39" stroke-width="0.1"/>
<text xml:space="preserve" x="435" stroke-width="0.1" y="216" stroke="none">Invalid view - remove from diagram.</text>
<rect x="606" y="131" fill="rgb(255,203,203)" width="160" height="40" stroke="none" stroke-width="0.1"/>
<rect x="606" y="131" fill="none" width="159" height="39" stroke-width="0.1"/>
<text xml:space="preserve" x="589" stroke-width="0.1" y="156" stroke="none">Invalid view - remove from diagram.</text>
<rect x="1061" y="131" fill="rgb(255,203,203)" width="40" height="40" stroke="none" stroke-width="0.1"/>
<rect x="1061" y="131" fill="none" width="39" height="39" stroke-width="0.1"/>
<text xml:space="preserve" x="984" stroke-width="0.1" y="156" stroke="none">Invalid view - remove from diagram.</text>
<rect x="216" y="131" fill="rgb(255,203,203)" width="40" height="40" stroke="none" stroke-width="0.1"/>
<rect x="216" y="131" fill="none" width="39" height="39" stroke-width="0.1"/>
<text xml:space="preserve" x="139" stroke-width="0.1" y="156" stroke="none">Invalid view - remove from diagram.</text>
<rect x="1302" y="112" fill="white" width="127" height="48" stroke="none" stroke-width="0.1"/>
<text x="1302" y="141" clip-path="url(#clipPath1)" stroke="none" stroke-width="0.1" xml:space="preserve">Represents a class</text>
<rect x="1301" y="111" clip-path="url(#clipPath2)" fill="none" width="128" height="49" stroke-width="1.1"/>
<rect x="1302" y="182" clip-path="url(#clipPath2)" fill="white" width="127" height="48" stroke="none" stroke-width="1.1"/>
<text x="1302" y="211" clip-path="url(#clipPath3)" stroke="none" stroke-width="1.1" xml:space="preserve">Represents a class</text>
<rect x="1301" y="181" clip-path="url(#clipPath2)" fill="none" width="128" height="49" stroke-width="1.1"/>
<rect x="1302" y="182" clip-path="url(#clipPath2)" fill="white" width="127" height="48" stroke="none" stroke-width="1.1"/>
<text x="1302" y="204" clip-path="url(#clipPath4)" stroke="none" stroke-width="1.1" xml:space="preserve">Represents an instance</text>
<text x="1302" y="219" clip-path="url(#clipPath4)" stroke="none" stroke-width="1.1" xml:space="preserve">of the associated class</text>
<rect x="1301" y="181" clip-path="url(#clipPath2)" fill="none" width="128" height="49" stroke-width="1.1"/>
<text x="325" y="115" clip-path="url(#clipPath5)" stroke="none" stroke-width="1.1" xml:space="preserve">ProfileClass is an example of AnyEntityClass</text>
<text x="811" y="174" clip-path="url(#clipPath6)" stroke="none" stroke-width="1.1" xml:space="preserve">SpecClass is an example of AnyEntityClass</text>
<text x="841" y="209" clip-path="url(#clipPath7)" stroke="none" stroke-width="1.1" xml:space="preserve">i.e. a spec can have a spec</text>
<text x="960" y="299" clip-path="url(#clipPath8)" fill="red" stroke="none" stroke-width="1.1" xml:space="preserve">(via instantiation)</text>
<text x="725" y="299" clip-path="url(#clipPath9)" fill="red" stroke="none" stroke-width="1.1" xml:space="preserve">(via instantiation)</text>
<text x="325" y="339" clip-path="url(#clipPath10)" fill="red" stroke="none" stroke-width="1.1" xml:space="preserve">(via instantiation)</text>
<text x="325" y="339" clip-path="url(#clipPath10)" fill="red" stroke="none" stroke-width="1.1" xml:space="preserve">(via instantiation)</text>
<text x="1289" y="258" clip-path="url(#clipPath11)" stroke="none" stroke-width="1.1" xml:space="preserve">SpecClass provides capability to express ranges of values and value range interrelationships. A</text>
<text x="1289" y="273" clip-path="url(#clipPath11)" stroke="none" stroke-width="1.1" xml:space="preserve">value range interrelationship may state that if one attribute takes a specific value of its range</text>
<text x="1289" y="288" clip-path="url(#clipPath11)" stroke="none" stroke-width="1.1" xml:space="preserve">another attribute must take a specific value of its range. </text>
<text x="1289" y="318" clip-path="url(#clipPath11)" stroke="none" stroke-width="1.1" xml:space="preserve">This capability is applied such that an attribute specified in a specific AnyEntityClass which the</text>
<text x="1289" y="333" clip-path="url(#clipPath11)" stroke="none" stroke-width="1.1" xml:space="preserve">specific SpecInstance abides by can be constrained so as to be a narrowed definition of the</text>
<text x="1289" y="348" clip-path="url(#clipPath11)" stroke="none" stroke-width="1.1" xml:space="preserve">attribute with respect to that provided in the specific AnyEntityClass. </text>
<text x="1289" y="378" clip-path="url(#clipPath11)" stroke="none" stroke-width="1.1" xml:space="preserve">The SpecInstance abides by the specific AnyEntityClass in that it can only constrain attributes</text>
<text x="1289" y="393" clip-path="url(#clipPath11)" stroke="none" stroke-width="1.1" xml:space="preserve">that are valid in that specific AnyEntiyClass. </text>
<text x="1289" y="423" clip-path="url(#clipPath11)" stroke="none" stroke-width="1.1" xml:space="preserve">Each AnyEntityInstance must reference a SpecInstance. A specific SpecInstance can be</text>
<text x="1289" y="438" clip-path="url(#clipPath11)" stroke="none" stroke-width="1.1" xml:space="preserve">referenced by a specific AnyEntityInstance that conforms to the specific AnyEntityClass that</text>
<text x="1289" y="453" clip-path="url(#clipPath11)" stroke="none" stroke-width="1.1" xml:space="preserve">the SpecInstance abides by. </text>
<text x="1289" y="483" clip-path="url(#clipPath11)" stroke="none" stroke-width="1.1" xml:space="preserve">The effect of the reference is to constrain each attribute of the AnyEntityInstance as defined in</text>
<text x="1289" y="498" clip-path="url(#clipPath11)" stroke="none" stroke-width="1.1" xml:space="preserve">the SpecInstance. Only attributes stated in the SpecInstance are available and relevant to each</text>
<text x="1289" y="513" clip-path="url(#clipPath11)" stroke="none" stroke-width="1.1" xml:space="preserve">AnyEntityInstance that references the SpecInstance.</text>
<text x="1289" y="543" clip-path="url(#clipPath11)" stroke="none" stroke-width="1.1" xml:space="preserve">The SpecInstance always narrows definitions so for example it may change a attribute to</text>
<text x="1289" y="558" clip-path="url(#clipPath11)" stroke="none" stroke-width="1.1" xml:space="preserve">ReadOnly from read/write but it may not do the reverse and it may narrow an integer range</text>
<text x="1289" y="573" clip-path="url(#clipPath11)" stroke="none" stroke-width="1.1" xml:space="preserve">but not change an integer to a string.</text>
<text x="1289" y="603" clip-path="url(#clipPath11)" stroke="none" stroke-width="1.1" xml:space="preserve">If the AnyEntityClass has a freeform NVSPList the SpecInstance may provide specific legal</text>
<text x="1289" y="618" clip-path="url(#clipPath11)" stroke="none" stroke-width="1.1" xml:space="preserve">values for strings of the list effectively adding attributes but only by the narrowing of a</text>
<text x="1289" y="633" clip-path="url(#clipPath11)" stroke="none" stroke-width="1.1" xml:space="preserve">freeform structure.</text>
<text x="1289" y="663" clip-path="url(#clipPath11)" stroke="none" stroke-width="1.1" xml:space="preserve">The ProfileInstance works in a very similar way accept that it must also abide by the</text>
<text x="1289" y="678" clip-path="url(#clipPath11)" stroke="none" stroke-width="1.1" xml:space="preserve">SpecInstance that the specific AnyEntityInstance references and that if it does not state an</text>
<text x="1289" y="693" clip-path="url(#clipPath11)" stroke="none" stroke-width="1.1" xml:space="preserve">attribute then it has no affect on the attribute which continues as defined in the SpecInstance. </text>
<rect x="416" y="745" clip-path="url(#clipPath2)" fill="rgb(255,203,203)" width="40" height="40" stroke="none" stroke-width="1.1"/>
<rect x="416" y="745" clip-path="url(#clipPath2)" fill="none" width="39" height="39" stroke-width="0.1"/>
<text x="339" y="770" clip-path="url(#clipPath2)" stroke="none" stroke-width="0.1" xml:space="preserve">Invalid view - remove from diagram.</text>
<line clip-path="url(#clipPath2)" fill="none" x1="714" x2="714" y1="415" y2="598" stroke="red" stroke-width="1.1"/>
<line clip-path="url(#clipPath2)" fill="none" x1="714" x2="676" y1="598" y2="598" stroke="red" stroke-width="1.1"/>
<rect x="411" y="301" clip-path="url(#clipPath12)" fill="rgb(255,203,203)" width="40" height="40" stroke="none" stroke-width="1.1"/>
<rect x="411" y="301" clip-path="url(#clipPath12)" fill="none" width="39" height="39" stroke-width="0.1"/>
<text x="334" y="326" clip-path="url(#clipPath12)" stroke="none" stroke-width="0.1" xml:space="preserve">Invalid view - remove from diagram.</text>
<rect x="411" y="301" clip-path="url(#clipPath12)" fill="rgb(255,203,203)" width="40" height="40" stroke="none" stroke-width="0.1"/>
<rect x="411" y="301" clip-path="url(#clipPath12)" fill="none" width="39" height="39" stroke-width="0.1"/>
<text x="334" y="326" clip-path="url(#clipPath12)" stroke="none" stroke-width="0.1" xml:space="preserve">Invalid view - remove from diagram.</text>
<rect x="411" y="301" clip-path="url(#clipPath12)" fill="rgb(255,203,203)" width="40" height="40" stroke="none" stroke-width="0.1"/>
<rect x="411" y="301" clip-path="url(#clipPath12)" fill="none" width="39" height="39" stroke-width="0.1"/>
<text x="334" y="326" clip-path="url(#clipPath12)" stroke="none" stroke-width="0.1" xml:space="preserve">Invalid view - remove from diagram.</text>
<rect x="411" y="301" clip-path="url(#clipPath12)" fill="rgb(255,203,203)" width="40" height="40" stroke="none" stroke-width="0.1"/>
<rect x="411" y="301" clip-path="url(#clipPath12)" fill="none" width="39" height="39" stroke-width="0.1"/>
<text x="334" y="326" clip-path="url(#clipPath12)" stroke="none" stroke-width="0.1" xml:space="preserve">Invalid view - remove from diagram.</text>
<rect x="411" y="301" clip-path="url(#clipPath12)" fill="rgb(255,203,203)" width="40" height="40" stroke="none" stroke-width="0.1"/>
<rect x="411" y="301" clip-path="url(#clipPath12)" fill="none" width="39" height="39" stroke-width="0.1"/>
<text x="334" y="326" clip-path="url(#clipPath12)" stroke="none" stroke-width="0.1" xml:space="preserve">Invalid view - remove from diagram.</text>
<text x="618" y="531" clip-path="url(#clipPath13)" fill="red" stroke="none" stroke-width="0.1" xml:space="preserve">Invalid view - remove from diagram.</text>
<line clip-path="url(#clipPath2)" fill="none" x1="753" x2="879" y1="395" y2="395" stroke="red" stroke-width="1.1"/>
<line clip-path="url(#clipPath2)" fill="none" x1="879" x2="879" y1="395" y2="391" stroke="red" stroke-width="1.1"/>
<line clip-path="url(#clipPath2)" fill="none" x1="879" x2="1061" y1="391" y2="391" stroke="red" stroke-width="1.1"/>
<rect x="411" y="301" clip-path="url(#clipPath12)" fill="rgb(255,203,203)" width="40" height="40" stroke="none" stroke-width="1.1"/>
<rect x="411" y="301" clip-path="url(#clipPath12)" fill="none" width="39" height="39" stroke-width="0.1"/>
<text x="334" y="326" clip-path="url(#clipPath12)" stroke="none" stroke-width="0.1" xml:space="preserve">Invalid view - remove from diagram.</text>
<rect x="411" y="301" clip-path="url(#clipPath12)" fill="rgb(255,203,203)" width="40" height="40" stroke="none" stroke-width="0.1"/>
<rect x="411" y="301" clip-path="url(#clipPath12)" fill="none" width="39" height="39" stroke-width="0.1"/>
<text x="334" y="326" clip-path="url(#clipPath12)" stroke="none" stroke-width="0.1" xml:space="preserve">Invalid view - remove from diagram.</text>
<rect x="411" y="301" clip-path="url(#clipPath12)" fill="rgb(255,203,203)" width="40" height="40" stroke="none" stroke-width="0.1"/>
<rect x="411" y="301" clip-path="url(#clipPath12)" fill="none" width="39" height="39" stroke-width="0.1"/>
<text x="334" y="326" clip-path="url(#clipPath12)" stroke="none" stroke-width="0.1" xml:space="preserve">Invalid view - remove from diagram.</text>
<rect x="411" y="301" clip-path="url(#clipPath12)" fill="rgb(255,203,203)" width="40" height="40" stroke="none" stroke-width="0.1"/>
<rect x="411" y="301" clip-path="url(#clipPath12)" fill="none" width="39" height="39" stroke-width="0.1"/>
<text x="334" y="326" clip-path="url(#clipPath12)" stroke="none" stroke-width="0.1" xml:space="preserve">Invalid view - remove from diagram.</text>
<rect x="411" y="301" clip-path="url(#clipPath12)" fill="rgb(255,203,203)" width="40" height="40" stroke="none" stroke-width="0.1"/>
<rect x="411" y="301" clip-path="url(#clipPath12)" fill="none" width="39" height="39" stroke-width="0.1"/>
<text x="334" y="326" clip-path="url(#clipPath12)" stroke="none" stroke-width="0.1" xml:space="preserve">Invalid view - remove from diagram.</text>
<text x="809" y="396" clip-path="url(#clipPath14)" fill="red" stroke="none" stroke-width="0.1" xml:space="preserve">Invalid view - remove from diagram.</text>
<line clip-path="url(#clipPath2)" fill="none" x1="676" x2="1081" y1="606" y2="606" stroke="red" stroke-width="1.1"/>
<line clip-path="url(#clipPath2)" fill="none" x1="1081" x2="1081" y1="606" y2="411" stroke="red" stroke-width="1.1"/>
<rect x="411" y="301" clip-path="url(#clipPath12)" fill="rgb(255,203,203)" width="40" height="40" stroke="none" stroke-width="1.1"/>
<rect x="411" y="301" clip-path="url(#clipPath12)" fill="none" width="39" height="39" stroke-width="0.1"/>
<text x="334" y="326" clip-path="url(#clipPath12)" stroke="none" stroke-width="0.1" xml:space="preserve">Invalid view - remove from diagram.</text>
<rect x="411" y="301" clip-path="url(#clipPath12)" fill="rgb(255,203,203)" width="40" height="40" stroke="none" stroke-width="0.1"/>
<rect x="411" y="301" clip-path="url(#clipPath12)" fill="none" width="39" height="39" stroke-width="0.1"/>
<text x="334" y="326" clip-path="url(#clipPath12)" stroke="none" stroke-width="0.1" xml:space="preserve">Invalid view - remove from diagram.</text>
<rect x="411" y="301" clip-path="url(#clipPath12)" fill="rgb(255,203,203)" width="40" height="40" stroke="none" stroke-width="0.1"/>
<rect x="411" y="301" clip-path="url(#clipPath12)" fill="none" width="39" height="39" stroke-width="0.1"/>
<text x="334" y="326" clip-path="url(#clipPath12)" stroke="none" stroke-width="0.1" xml:space="preserve">Invalid view - remove from diagram.</text>
<rect x="411" y="301" clip-path="url(#clipPath12)" fill="rgb(255,203,203)" width="40" height="40" stroke="none" stroke-width="0.1"/>
<rect x="411" y="301" clip-path="url(#clipPath12)" fill="none" width="39" height="39" stroke-width="0.1"/>
<text x="334" y="326" clip-path="url(#clipPath12)" stroke="none" stroke-width="0.1" xml:space="preserve">Invalid view - remove from diagram.</text>
<rect x="411" y="301" clip-path="url(#clipPath12)" fill="rgb(255,203,203)" width="40" height="40" stroke="none" stroke-width="0.1"/>
<rect x="411" y="301" clip-path="url(#clipPath12)" fill="none" width="39" height="39" stroke-width="0.1"/>
<text x="334" y="326" clip-path="url(#clipPath12)" stroke="none" stroke-width="0.1" xml:space="preserve">Invalid view - remove from diagram.</text>
<text x="880" y="611" clip-path="url(#clipPath15)" fill="red" stroke="none" stroke-width="0.1" xml:space="preserve">Invalid view - remove from diagram.</text>
<line clip-path="url(#clipPath2)" fill="none" x1="661" x2="661" y1="375" y2="273" stroke="red" stroke-width="1.1"/>
<line clip-path="url(#clipPath2)" fill="none" x1="661" x2="642" y1="273" y2="273" stroke="red" stroke-width="1.1"/>
<line clip-path="url(#clipPath2)" fill="none" x1="642" x2="642" y1="273" y2="171" stroke="red" stroke-width="1.1"/>
<rect x="411" y="301" clip-path="url(#clipPath12)" fill="rgb(255,203,203)" width="40" height="40" stroke="none" stroke-width="1.1"/>
<rect x="411" y="301" clip-path="url(#clipPath12)" fill="none" width="39" height="39" stroke-width="0.1"/>
<text x="334" y="326" clip-path="url(#clipPath12)" stroke="none" stroke-width="0.1" xml:space="preserve">Invalid view - remove from diagram.</text>
<rect x="411" y="301" clip-path="url(#clipPath12)" fill="rgb(255,203,203)" width="40" height="40" stroke="none" stroke-width="0.1"/>
<rect x="411" y="301" clip-path="url(#clipPath12)" fill="none" width="39" height="39" stroke-width="0.1"/>
<text x="334" y="326" clip-path="url(#clipPath12)" stroke="none" stroke-width="0.1" xml:space="preserve">Invalid view - remove from diagram.</text>
<rect x="411" y="301" clip-path="url(#clipPath12)" fill="rgb(255,203,203)" width="40" height="40" stroke="none" stroke-width="0.1"/>
<rect x="411" y="301" clip-path="url(#clipPath12)" fill="none" width="39" height="39" stroke-width="0.1"/>
<text x="334" y="326" clip-path="url(#clipPath12)" stroke="none" stroke-width="0.1" xml:space="preserve">Invalid view - remove from diagram.</text>
<rect x="411" y="301" clip-path="url(#clipPath12)" fill="rgb(255,203,203)" width="40" height="40" stroke="none" stroke-width="0.1"/>
<rect x="411" y="301" clip-path="url(#clipPath12)" fill="none" width="39" height="39" stroke-width="0.1"/>
<text x="334" y="326" clip-path="url(#clipPath12)" stroke="none" stroke-width="0.1" xml:space="preserve">Invalid view - remove from diagram.</text>
<rect x="411" y="301" clip-path="url(#clipPath12)" fill="rgb(255,203,203)" width="40" height="40" stroke="none" stroke-width="0.1"/>
<rect x="411" y="301" clip-path="url(#clipPath12)" fill="none" width="39" height="39" stroke-width="0.1"/>
<text x="334" y="326" clip-path="url(#clipPath12)" stroke="none" stroke-width="0.1" xml:space="preserve">Invalid view - remove from diagram.</text>
<text x="555" y="278" clip-path="url(#clipPath16)" fill="red" stroke="none" stroke-width="0.1" xml:space="preserve">Invalid view - remove from diagram.</text>
<line clip-path="url(#clipPath2)" fill="none" x1="1061" x2="766" y1="151" y2="151" stroke="red" stroke-width="1.1"/>
<rect x="411" y="301" clip-path="url(#clipPath12)" fill="rgb(255,203,203)" width="40" height="40" stroke="none" stroke-width="1.1"/>
<rect x="411" y="301" clip-path="url(#clipPath12)" fill="none" width="39" height="39" stroke-width="0.1"/>
<text x="334" y="326" clip-path="url(#clipPath12)" stroke="none" stroke-width="0.1" xml:space="preserve">Invalid view - remove from diagram.</text>
<text x="817" y="156" clip-path="url(#clipPath17)" fill="red" stroke="none" stroke-width="0.1" xml:space="preserve">Invalid view - remove from diagram.</text>
<line clip-path="url(#clipPath2)" fill="none" x1="1081" x2="1081" y1="371" y2="171" stroke="red" stroke-width="1.1"/>
<rect x="411" y="301" clip-path="url(#clipPath12)" fill="rgb(255,203,203)" width="40" height="40" stroke="none" stroke-width="1.1"/>
<rect x="411" y="301" clip-path="url(#clipPath12)" fill="none" width="39" height="39" stroke-width="0.1"/>
<text x="334" y="326" clip-path="url(#clipPath12)" stroke="none" stroke-width="0.1" xml:space="preserve">Invalid view - remove from diagram.</text>
<rect x="411" y="301" clip-path="url(#clipPath12)" fill="rgb(255,203,203)" width="40" height="40" stroke="none" stroke-width="0.1"/>
<rect x="411" y="301" clip-path="url(#clipPath12)" fill="none" width="39" height="39" stroke-width="0.1"/>
<text x="334" y="326" clip-path="url(#clipPath12)" stroke="none" stroke-width="0.1" xml:space="preserve">Invalid view - remove from diagram.</text>
<rect x="411" y="301" clip-path="url(#clipPath12)" fill="rgb(255,203,203)" width="40" height="40" stroke="none" stroke-width="0.1"/>
<rect x="411" y="301" clip-path="url(#clipPath12)" fill="none" width="39" height="39" stroke-width="0.1"/>
<text x="334" y="326" clip-path="url(#clipPath12)" stroke="none" stroke-width="0.1" xml:space="preserve">Invalid view - remove from diagram.</text>
<rect x="411" y="301" clip-path="url(#clipPath12)" fill="rgb(255,203,203)" width="40" height="40" stroke="none" stroke-width="0.1"/>
<rect x="411" y="301" clip-path="url(#clipPath12)" fill="none" width="39" height="39" stroke-width="0.1"/>
<text x="334" y="326" clip-path="url(#clipPath12)" stroke="none" stroke-width="0.1" xml:space="preserve">Invalid view - remove from diagram.</text>
<rect x="411" y="301" clip-path="url(#clipPath12)" fill="rgb(255,203,203)" width="40" height="40" stroke="none" stroke-width="0.1"/>
<rect x="411" y="301" clip-path="url(#clipPath12)" fill="none" width="39" height="39" stroke-width="0.1"/>
<text x="334" y="326" clip-path="url(#clipPath12)" stroke="none" stroke-width="0.1" xml:space="preserve">Invalid view - remove from diagram.</text>
<text x="985" y="276" clip-path="url(#clipPath18)" fill="red" stroke="none" stroke-width="0.1" xml:space="preserve">Invalid view - remove from diagram.</text>
<line clip-path="url(#clipPath2)" fill="none" x1="256" x2="606" y1="149" y2="149" stroke="red" stroke-width="1.1"/>
<rect x="411" y="301" clip-path="url(#clipPath12)" fill="rgb(255,203,203)" width="40" height="40" stroke="none" stroke-width="1.1"/>
<rect x="411" y="301" clip-path="url(#clipPath12)" fill="none" width="39" height="39" stroke-width="0.1"/>
<text x="334" y="326" clip-path="url(#clipPath12)" stroke="none" stroke-width="0.1" xml:space="preserve">Invalid view - remove from diagram.</text>
<text x="335" y="154" clip-path="url(#clipPath19)" fill="red" stroke="none" stroke-width="0.1" xml:space="preserve">Invalid view - remove from diagram.</text>
<line clip-path="url(#clipPath2)" fill="none" x1="636" x2="250" y1="604" y2="604" stroke="red" stroke-width="1.1"/>
<line clip-path="url(#clipPath2)" fill="none" x1="250" x2="250" y1="604" y2="582" stroke="red" stroke-width="1.1"/>
<line clip-path="url(#clipPath2)" fill="none" x1="250" x2="224" y1="582" y2="582" stroke="red" stroke-width="1.1"/>
<line clip-path="url(#clipPath2)" fill="none" x1="224" x2="224" y1="582" y2="171" stroke="red" stroke-width="1.1"/>
<rect x="411" y="301" clip-path="url(#clipPath12)" fill="rgb(255,203,203)" width="40" height="40" stroke="none" stroke-width="1.1"/>
<rect x="411" y="301" clip-path="url(#clipPath12)" fill="none" width="39" height="39" stroke-width="0.1"/>
<text x="334" y="326" clip-path="url(#clipPath12)" stroke="none" stroke-width="0.1" xml:space="preserve">Invalid view - remove from diagram.</text>
<rect x="411" y="301" clip-path="url(#clipPath12)" fill="rgb(255,203,203)" width="40" height="40" stroke="none" stroke-width="0.1"/>
<rect x="411" y="301" clip-path="url(#clipPath12)" fill="none" width="39" height="39" stroke-width="0.1"/>
<text x="334" y="326" clip-path="url(#clipPath12)" stroke="none" stroke-width="0.1" xml:space="preserve">Invalid view - remove from diagram.</text>
<rect x="411" y="301" clip-path="url(#clipPath12)" fill="rgb(255,203,203)" width="40" height="40" stroke="none" stroke-width="0.1"/>
<rect x="411" y="301" clip-path="url(#clipPath12)" fill="none" width="39" height="39" stroke-width="0.1"/>
<text x="334" y="326" clip-path="url(#clipPath12)" stroke="none" stroke-width="0.1" xml:space="preserve">Invalid view - remove from diagram.</text>
<rect x="411" y="301" clip-path="url(#clipPath12)" fill="rgb(255,203,203)" width="40" height="40" stroke="none" stroke-width="0.1"/>
<rect x="411" y="301" clip-path="url(#clipPath12)" fill="none" width="39" height="39" stroke-width="0.1"/>
<text x="334" y="326" clip-path="url(#clipPath12)" stroke="none" stroke-width="0.1" xml:space="preserve">Invalid view - remove from diagram.</text>
<rect x="411" y="301" clip-path="url(#clipPath12)" fill="rgb(255,203,203)" width="40" height="40" stroke="none" stroke-width="0.1"/>
<rect x="411" y="301" clip-path="url(#clipPath12)" fill="none" width="39" height="39" stroke-width="0.1"/>
<text x="334" y="326" clip-path="url(#clipPath12)" stroke="none" stroke-width="0.1" xml:space="preserve">Invalid view - remove from diagram.</text>
<text x="140" y="587" clip-path="url(#clipPath20)" fill="red" stroke="none" stroke-width="0.1" xml:space="preserve">Invalid view - remove from diagram.</text>
<line clip-path="url(#clipPath2)" fill="none" x1="1081" x2="642" y1="171" y2="171" stroke="red" stroke-width="1.1"/>
<rect x="411" y="301" clip-path="url(#clipPath12)" fill="rgb(255,203,203)" width="40" height="40" stroke="none" stroke-width="1.1"/>
<rect x="411" y="301" clip-path="url(#clipPath12)" fill="none" width="39" height="39" stroke-width="0.1"/>
<text x="334" y="326" clip-path="url(#clipPath12)" stroke="none" stroke-width="0.1" xml:space="preserve">Invalid view - remove from diagram.</text>
<text x="765" y="176" clip-path="url(#clipPath21)" fill="red" stroke="none" stroke-width="0.1" xml:space="preserve">Invalid view - remove from diagram.</text>
<line clip-path="url(#clipPath2)" fill="none" x1="224" x2="642" y1="171" y2="171" stroke="red" stroke-width="1.1"/>
<rect x="411" y="301" clip-path="url(#clipPath12)" fill="rgb(255,203,203)" width="40" height="40" stroke="none" stroke-width="1.1"/>
<rect x="411" y="301" clip-path="url(#clipPath12)" fill="none" width="39" height="39" stroke-width="0.1"/>
<text x="334" y="326" clip-path="url(#clipPath12)" stroke="none" stroke-width="0.1" xml:space="preserve">Invalid view - remove from diagram.</text>
<text x="337" y="176" clip-path="url(#clipPath22)" fill="red" stroke="none" stroke-width="0.1" xml:space="preserve">Invalid view - remove from diagram.</text>
<line clip-path="url(#clipPath2)" fill="none" x1="1101" x2="1213" y1="391" y2="391" stroke="red" stroke-width="1.1"/>
<line clip-path="url(#clipPath2)" fill="none" x1="1213" x2="1213" y1="391" y2="396" stroke="red" stroke-width="1.1"/>
<line clip-path="url(#clipPath2)" fill="none" x1="1213" x2="1221" y1="396" y2="396" stroke="red" stroke-width="1.1"/>
<line clip-path="url(#clipPath2)" fill="none" x1="1221" x2="1221" y1="396" y2="31" stroke="red" stroke-width="1.1"/>
<line clip-path="url(#clipPath2)" fill="none" x1="1221" x2="686" y1="31" y2="31" stroke="red" stroke-width="1.1"/>
<line clip-path="url(#clipPath2)" fill="none" x1="686" x2="686" y1="31" y2="131" stroke="red" stroke-width="1.1"/>
<rect x="411" y="301" clip-path="url(#clipPath12)" fill="rgb(255,203,203)" width="40" height="40" stroke="none" stroke-width="1.1"/>
<rect x="411" y="301" clip-path="url(#clipPath12)" fill="none" width="39" height="39" stroke-width="0.1"/>
<text x="334" y="326" clip-path="url(#clipPath12)" stroke="none" stroke-width="0.1" xml:space="preserve">Invalid view - remove from diagram.</text>
<rect x="411" y="301" clip-path="url(#clipPath12)" fill="rgb(255,203,203)" width="40" height="40" stroke="none" stroke-width="0.1"/>
<rect x="411" y="301" clip-path="url(#clipPath12)" fill="none" width="39" height="39" stroke-width="0.1"/>
<text x="334" y="326" clip-path="url(#clipPath12)" stroke="none" stroke-width="0.1" xml:space="preserve">Invalid view - remove from diagram.</text>
<rect x="411" y="301" clip-path="url(#clipPath12)" fill="rgb(255,203,203)" width="40" height="40" stroke="none" stroke-width="0.1"/>
<rect x="411" y="301" clip-path="url(#clipPath12)" fill="none" width="39" height="39" stroke-width="0.1"/>
<text x="334" y="326" clip-path="url(#clipPath12)" stroke="none" stroke-width="0.1" xml:space="preserve">Invalid view - remove from diagram.</text>
<rect x="411" y="301" clip-path="url(#clipPath12)" fill="rgb(255,203,203)" width="40" height="40" stroke="none" stroke-width="0.1"/>
<rect x="411" y="301" clip-path="url(#clipPath12)" fill="none" width="39" height="39" stroke-width="0.1"/>
<text x="334" y="326" clip-path="url(#clipPath12)" stroke="none" stroke-width="0.1" xml:space="preserve">Invalid view - remove from diagram.</text>
<rect x="411" y="301" clip-path="url(#clipPath12)" fill="rgb(255,203,203)" width="40" height="40" stroke="none" stroke-width="0.1"/>
<rect x="411" y="301" clip-path="url(#clipPath12)" fill="none" width="39" height="39" stroke-width="0.1"/>
<text x="334" y="326" clip-path="url(#clipPath12)" stroke="none" stroke-width="0.1" xml:space="preserve">Invalid view - remove from diagram.</text>
<text x="1052" y="36" clip-path="url(#clipPath23)" fill="red" stroke="none" stroke-width="0.1" xml:space="preserve">Invalid view - remove from diagram.</text>
<line clip-path="url(#clipPath2)" fill="none" x1="656" x2="656" y1="626" y2="629" stroke="red" stroke-width="1.1"/>
<line clip-path="url(#clipPath2)" fill="none" x1="656" x2="119" y1="629" y2="629" stroke="red" stroke-width="1.1"/>
<line clip-path="url(#clipPath2)" fill="none" x1="119" x2="119" y1="629" y2="42" stroke="red" stroke-width="1.1"/>
<line clip-path="url(#clipPath2)" fill="none" x1="119" x2="650" y1="42" y2="42" stroke="red" stroke-width="1.1"/>
<line clip-path="url(#clipPath2)" fill="none" x1="650" x2="650" y1="42" y2="131" stroke="red" stroke-width="1.1"/>
<rect x="411" y="301" clip-path="url(#clipPath12)" fill="rgb(255,203,203)" width="40" height="40" stroke="none" stroke-width="1.1"/>
<rect x="411" y="301" clip-path="url(#clipPath12)" fill="none" width="39" height="39" stroke-width="0.1"/>
<text x="334" y="326" clip-path="url(#clipPath12)" stroke="none" stroke-width="0.1" xml:space="preserve">Invalid view - remove from diagram.</text>
<rect x="411" y="301" clip-path="url(#clipPath12)" fill="rgb(255,203,203)" width="40" height="40" stroke="none" stroke-width="0.1"/>
<rect x="411" y="301" clip-path="url(#clipPath12)" fill="none" width="39" height="39" stroke-width="0.1"/>
<text x="334" y="326" clip-path="url(#clipPath12)" stroke="none" stroke-width="0.1" xml:space="preserve">Invalid view - remove from diagram.</text>
<rect x="411" y="301" clip-path="url(#clipPath12)" fill="rgb(255,203,203)" width="40" height="40" stroke="none" stroke-width="0.1"/>
<rect x="411" y="301" clip-path="url(#clipPath12)" fill="none" width="39" height="39" stroke-width="0.1"/>
<text x="334" y="326" clip-path="url(#clipPath12)" stroke="none" stroke-width="0.1" xml:space="preserve">Invalid view - remove from diagram.</text>
<rect x="411" y="301" clip-path="url(#clipPath12)" fill="rgb(255,203,203)" width="40" height="40" stroke="none" stroke-width="0.1"/>
<rect x="411" y="301" clip-path="url(#clipPath12)" fill="none" width="39" height="39" stroke-width="0.1"/>
<text x="334" y="326" clip-path="url(#clipPath12)" stroke="none" stroke-width="0.1" xml:space="preserve">Invalid view - remove from diagram.</text>
<rect x="411" y="301" clip-path="url(#clipPath12)" fill="rgb(255,203,203)" width="40" height="40" stroke="none" stroke-width="0.1"/>
<rect x="411" y="301" clip-path="url(#clipPath12)" fill="none" width="39" height="39" stroke-width="0.1"/>
<text x="334" y="326" clip-path="url(#clipPath12)" stroke="none" stroke-width="0.1" xml:space="preserve">Invalid view - remove from diagram.</text>
<text x="23" y="300" clip-path="url(#clipPath24)" fill="red" stroke="none" stroke-width="0.1" xml:space="preserve">Invalid view - remove from diagram.</text>
</g>
</g>
<rect x="601" y="375" fill-opacity="0" width="152" id="AnyEntityInstance" height="40" stroke-opacity="0"/>
<rect x="636" y="586" fill-opacity="0" width="40" id="ProfileInstance" height="40" stroke-opacity="0"/>
<rect x="1061" y="371" fill-opacity="0" width="40" id="SpecInstance" height="40" stroke-opacity="0"/>
<rect x="471" y="191" fill-opacity="0" width="121" height="40" stroke-opacity="0"/>
<rect x="606" y="131" fill-opacity="0" width="160" id="AnyEntityClass" height="40" stroke-opacity="0"/>
<rect x="1061" y="131" fill-opacity="0" width="40" id="SpecClass" height="40" stroke-opacity="0"/>
<rect x="216" y="131" fill-opacity="0" width="40" id="ProfileClass" height="40" stroke-opacity="0"/>
<rect x="1301" y="111" fill-opacity="0" width="129" height="50" stroke-opacity="0"/>
<rect x="1301" y="181" fill-opacity="0" width="129" height="50" stroke-opacity="0"/>
<rect x="1301" y="181" fill-opacity="0" width="129" height="50" stroke-opacity="0"/>
<rect x="325" y="102" fill-opacity="0" width="231" height="15" stroke-opacity="0"/>
<rect x="811" y="161" fill-opacity="0" width="222" height="15" stroke-opacity="0"/>
<rect x="841" y="196" fill-opacity="0" width="137" height="15" stroke-opacity="0"/>
<rect x="956" y="286" fill-opacity="0" width="100" height="15" stroke-opacity="0"/>
<rect x="721" y="286" fill-opacity="0" width="100" height="15" stroke-opacity="0"/>
<rect x="321" y="326" fill-opacity="0" width="100" height="15" stroke-opacity="0"/>
<rect x="321" y="326" fill-opacity="0" width="100" height="15" stroke-opacity="0"/>
<rect x="1287" y="245" fill-opacity="0" width="501" height="450" stroke-opacity="0"/>
<rect x="416" y="745" fill-opacity="0" width="40" height="40" stroke-opacity="0"/>
</svg>
