<?xml version="1.0" encoding="UTF-8"?><svg xmlns="http://www.w3.org/2000/svg" xmlns:xlink="http://www.w3.org/1999/xlink" stroke-dasharray="none" shape-rendering="auto" font-family="'Dialog'" width="1094" text-rendering="auto" fill-opacity="1" contentScriptType="text/ecmascript" color-interpolation="auto" color-rendering="auto" preserveAspectRatio="xMidYMid meet" font-size="12" viewBox="0 0 1094 560" fill="black" stroke="black" image-rendering="auto" stroke-miterlimit="10" zoomAndPan="magnify" version="1.0" stroke-linecap="square" stroke-linejoin="miter" contentStyleType="text/css" font-style="normal" height="560" stroke-width="1" stroke-dashoffset="0" font-weight="normal" stroke-opacity="1">
<!--Generated by the Batik Graphics2D SVG Generator-->
<defs id="genericDefs"/>
<g>
<defs id="defs1">
<clipPath clipPathUnits="userSpaceOnUse" id="clipPath1">
<path d="M22 22 L64 22 L64 64 L22 64 L22 22 Z"/>
</clipPath>
<clipPath clipPathUnits="userSpaceOnUse" id="clipPath2">
<path d="M112 93 L306 93 L306 111 L112 111 L112 93 Z"/>
</clipPath>
<clipPath clipPathUnits="userSpaceOnUse" id="clipPath3">
<path d="M-1 -1 L1095 -1 L1095 561 L-1 561 L-1 -1 Z"/>
</clipPath>
<clipPath clipPathUnits="userSpaceOnUse" id="clipPath4">
<path d="M62 385 L256 385 L256 403 L62 403 L62 385 Z"/>
</clipPath>
<clipPath clipPathUnits="userSpaceOnUse" id="clipPath5">
<path d="M365 245 L559 245 L559 263 L365 263 L365 245 Z"/>
</clipPath>
<clipPath clipPathUnits="userSpaceOnUse" id="clipPath6">
<path d="M387 520 L581 520 L581 538 L387 538 L387 520 Z"/>
</clipPath>
<clipPath clipPathUnits="userSpaceOnUse" id="clipPath7">
<path d="M235 220 L429 220 L429 238 L235 238 L235 220 Z"/>
</clipPath>
<clipPath clipPathUnits="userSpaceOnUse" id="clipPath8">
<path d="M47 245 L241 245 L241 263 L47 263 L47 245 Z"/>
</clipPath>
<clipPath clipPathUnits="userSpaceOnUse" id="clipPath9">
<path d="M245 485 L439 485 L439 503 L245 503 L245 485 Z"/>
</clipPath>
<clipPath clipPathUnits="userSpaceOnUse" id="clipPath10">
<path d="M554 378 L748 378 L748 396 L554 396 L554 378 Z"/>
</clipPath>
<clipPath clipPathUnits="userSpaceOnUse" id="clipPath11">
<path d="M601 417 L795 417 L795 435 L601 435 L601 417 Z"/>
</clipPath>
<clipPath clipPathUnits="userSpaceOnUse" id="clipPath12">
<path d="M680 366 L874 366 L874 384 L680 384 L680 366 Z"/>
</clipPath>
</defs>
<g fill="rgb(255,203,203)" font-family="'Segoe UI'" stroke-linejoin="round" stroke="rgb(255,203,203)" stroke-width="0" stroke-miterlimit="0">
<rect width="40" x="443" height="40" y="82" stroke="none"/>
</g>
<g stroke-linecap="butt" font-family="'Segoe UI'">
<rect fill="none" width="39" x="443" height="39" y="82"/>
<text xml:space="preserve" x="366" y="107" stroke="none">Invalid view - remove from diagram.</text>
<rect x="50" y="209" fill="rgb(255,203,203)" width="40" height="40" stroke="none"/>
<rect x="50" y="209" fill="none" width="39" height="39" stroke-width="0.1"/>
<text xml:space="preserve" x="-27" stroke-width="0.1" y="234" stroke="none">Invalid view - remove from diagram.</text>
<rect x="447" y="385" fill="rgb(255,203,203)" width="40" height="40" stroke="none" stroke-width="0.1"/>
<rect x="447" y="385" fill="none" width="39" height="39" stroke-width="0.1"/>
<text xml:space="preserve" x="370" stroke-width="0.1" y="410" stroke="none">Invalid view - remove from diagram.</text>
<rect x="66" y="494" fill="rgb(255,203,203)" width="151" height="40" stroke="none" stroke-width="0.1"/>
<rect x="66" y="494" fill="none" width="150" height="39" stroke-width="0.1"/>
<text xml:space="preserve" x="45" stroke-width="0.1" y="519" stroke="none">Invalid view - remove from diagram.</text>
<rect x="791" y="493" fill="rgb(255,203,203)" width="244" height="40" stroke="none" stroke-width="0.1"/>
<rect x="791" y="493" fill="none" width="243" height="39" stroke-width="0.1"/>
<text xml:space="preserve" x="816" stroke-width="0.1" y="518" stroke="none">Invalid view - remove from diagram.</text>
<rect x="545" y="248" fill="rgb(255,203,203)" width="177" height="40" stroke="none" stroke-width="0.1"/>
<rect x="545" y="248" fill="none" width="176" height="39" stroke-width="0.1"/>
<text xml:space="preserve" x="537" stroke-width="0.1" y="273" stroke="none">Invalid view - remove from diagram.</text>
<rect x="775" y="181" fill="rgb(255,203,203)" width="309" height="40" stroke="none" stroke-width="0.1"/>
<rect x="775" y="181" fill="none" width="308" height="39" stroke-width="0.1"/>
<text xml:space="preserve" x="833" stroke-width="0.1" y="206" stroke="none">Invalid view - remove from diagram.</text>
<rect x="770" y="61" fill="rgb(255,203,203)" width="40" height="40" stroke="none" stroke-width="0.1"/>
<rect x="770" y="61" fill="none" width="39" height="39" stroke-width="0.1"/>
<text xml:space="preserve" x="693" stroke-width="0.1" y="86" stroke="none">Invalid view - remove from diagram.</text>
<line fill="none" x1="443" x2="88" y1="102" y2="102" stroke="red" stroke-width="1.1"/>
<line fill="none" x1="88" x2="88" y1="102" y2="112" stroke="red" stroke-width="1.1"/>
<line fill="none" x1="88" x2="83" y1="112" y2="112" stroke="red" stroke-width="1.1"/>
<line fill="none" x1="83" x2="83" y1="112" y2="209" stroke="red" stroke-width="1.1"/>
<rect x="23" y="23" clip-path="url(#clipPath1)" fill="rgb(255,203,203)" width="40" height="40" stroke="none" stroke-width="1.1"/>
<rect x="23" y="23" clip-path="url(#clipPath1)" fill="none" width="39" height="39" stroke-width="0.1"/>
<text x="-54" y="48" clip-path="url(#clipPath1)" stroke="none" stroke-width="0.1" xml:space="preserve">Invalid view - remove from diagram.</text>
<rect x="23" y="23" clip-path="url(#clipPath1)" fill="rgb(255,203,203)" width="40" height="40" stroke="none" stroke-width="0.1"/>
<rect x="23" y="23" clip-path="url(#clipPath1)" fill="none" width="39" height="39" stroke-width="0.1"/>
<text x="-54" y="48" clip-path="url(#clipPath1)" stroke="none" stroke-width="0.1" xml:space="preserve">Invalid view - remove from diagram.</text>
<rect x="23" y="23" clip-path="url(#clipPath1)" fill="rgb(255,203,203)" width="40" height="40" stroke="none" stroke-width="0.1"/>
<rect x="23" y="23" clip-path="url(#clipPath1)" fill="none" width="39" height="39" stroke-width="0.1"/>
<text x="-54" y="48" clip-path="url(#clipPath1)" stroke="none" stroke-width="0.1" xml:space="preserve">Invalid view - remove from diagram.</text>
<rect x="23" y="23" clip-path="url(#clipPath1)" fill="rgb(255,203,203)" width="40" height="40" stroke="none" stroke-width="0.1"/>
<rect x="23" y="23" clip-path="url(#clipPath1)" fill="none" width="39" height="39" stroke-width="0.1"/>
<text x="-54" y="48" clip-path="url(#clipPath1)" stroke="none" stroke-width="0.1" xml:space="preserve">Invalid view - remove from diagram.</text>
<rect x="23" y="23" clip-path="url(#clipPath1)" fill="rgb(255,203,203)" width="40" height="40" stroke="none" stroke-width="0.1"/>
<rect x="23" y="23" clip-path="url(#clipPath1)" fill="none" width="39" height="39" stroke-width="0.1"/>
<text x="-54" y="48" clip-path="url(#clipPath1)" stroke="none" stroke-width="0.1" xml:space="preserve">Invalid view - remove from diagram.</text>
<rect x="23" y="23" clip-path="url(#clipPath1)" fill="rgb(255,203,203)" width="40" height="40" stroke="none" stroke-width="0.1"/>
<rect x="23" y="23" clip-path="url(#clipPath1)" fill="none" width="39" height="39" stroke-width="0.1"/>
<text x="-54" y="48" clip-path="url(#clipPath1)" stroke="none" stroke-width="0.1" xml:space="preserve">Invalid view - remove from diagram.</text>
<text x="113" y="107" clip-path="url(#clipPath2)" fill="red" stroke="none" stroke-width="0.1" xml:space="preserve">Invalid view - remove from diagram.</text>
<line clip-path="url(#clipPath3)" fill="none" x1="90" x2="90" y1="249" y2="404" stroke="red" stroke-width="1.1"/>
<line clip-path="url(#clipPath3)" fill="none" x1="90" x2="64" y1="404" y2="404" stroke="red" stroke-width="1.1"/>
<line clip-path="url(#clipPath3)" fill="none" x1="64" x2="64" y1="404" y2="394" stroke="red" stroke-width="1.1"/>
<line clip-path="url(#clipPath3)" fill="none" x1="64" x2="447" y1="394" y2="394" stroke="red" stroke-width="1.1"/>
<rect x="23" y="23" clip-path="url(#clipPath1)" fill="rgb(255,203,203)" width="40" height="40" stroke="none" stroke-width="1.1"/>
<rect x="23" y="23" clip-path="url(#clipPath1)" fill="none" width="39" height="39" stroke-width="0.1"/>
<text x="-54" y="48" clip-path="url(#clipPath1)" stroke="none" stroke-width="0.1" xml:space="preserve">Invalid view - remove from diagram.</text>
<rect x="23" y="23" clip-path="url(#clipPath1)" fill="rgb(255,203,203)" width="40" height="40" stroke="none" stroke-width="0.1"/>
<rect x="23" y="23" clip-path="url(#clipPath1)" fill="none" width="39" height="39" stroke-width="0.1"/>
<text x="-54" y="48" clip-path="url(#clipPath1)" stroke="none" stroke-width="0.1" xml:space="preserve">Invalid view - remove from diagram.</text>
<rect x="23" y="23" clip-path="url(#clipPath1)" fill="rgb(255,203,203)" width="40" height="40" stroke="none" stroke-width="0.1"/>
<rect x="23" y="23" clip-path="url(#clipPath1)" fill="none" width="39" height="39" stroke-width="0.1"/>
<text x="-54" y="48" clip-path="url(#clipPath1)" stroke="none" stroke-width="0.1" xml:space="preserve">Invalid view - remove from diagram.</text>
<rect x="23" y="23" clip-path="url(#clipPath1)" fill="rgb(255,203,203)" width="40" height="40" stroke="none" stroke-width="0.1"/>
<rect x="23" y="23" clip-path="url(#clipPath1)" fill="none" width="39" height="39" stroke-width="0.1"/>
<text x="-54" y="48" clip-path="url(#clipPath1)" stroke="none" stroke-width="0.1" xml:space="preserve">Invalid view - remove from diagram.</text>
<rect x="23" y="23" clip-path="url(#clipPath1)" fill="rgb(255,203,203)" width="40" height="40" stroke="none" stroke-width="0.1"/>
<rect x="23" y="23" clip-path="url(#clipPath1)" fill="none" width="39" height="39" stroke-width="0.1"/>
<text x="-54" y="48" clip-path="url(#clipPath1)" stroke="none" stroke-width="0.1" xml:space="preserve">Invalid view - remove from diagram.</text>
<rect x="23" y="23" clip-path="url(#clipPath1)" fill="rgb(255,203,203)" width="40" height="40" stroke="none" stroke-width="0.1"/>
<rect x="23" y="23" clip-path="url(#clipPath1)" fill="none" width="39" height="39" stroke-width="0.1"/>
<text x="-54" y="48" clip-path="url(#clipPath1)" stroke="none" stroke-width="0.1" xml:space="preserve">Invalid view - remove from diagram.</text>
<text x="63" y="399" clip-path="url(#clipPath4)" fill="red" stroke="none" stroke-width="0.1" xml:space="preserve">Invalid view - remove from diagram.</text>
<line clip-path="url(#clipPath3)" fill="none" x1="462" x2="462" y1="122" y2="385" stroke="red" stroke-width="1.1"/>
<rect x="23" y="23" clip-path="url(#clipPath1)" fill="rgb(255,203,203)" width="40" height="40" stroke="none" stroke-width="1.1"/>
<rect x="23" y="23" clip-path="url(#clipPath1)" fill="none" width="39" height="39" stroke-width="0.1"/>
<text x="-54" y="48" clip-path="url(#clipPath1)" stroke="none" stroke-width="0.1" xml:space="preserve">Invalid view - remove from diagram.</text>
<rect x="23" y="23" clip-path="url(#clipPath1)" fill="rgb(255,203,203)" width="40" height="40" stroke="none" stroke-width="0.1"/>
<rect x="23" y="23" clip-path="url(#clipPath1)" fill="none" width="39" height="39" stroke-width="0.1"/>
<text x="-54" y="48" clip-path="url(#clipPath1)" stroke="none" stroke-width="0.1" xml:space="preserve">Invalid view - remove from diagram.</text>
<rect x="23" y="23" clip-path="url(#clipPath1)" fill="rgb(255,203,203)" width="40" height="40" stroke="none" stroke-width="0.1"/>
<rect x="23" y="23" clip-path="url(#clipPath1)" fill="none" width="39" height="39" stroke-width="0.1"/>
<text x="-54" y="48" clip-path="url(#clipPath1)" stroke="none" stroke-width="0.1" xml:space="preserve">Invalid view - remove from diagram.</text>
<rect x="23" y="23" clip-path="url(#clipPath1)" fill="rgb(255,203,203)" width="40" height="40" stroke="none" stroke-width="0.1"/>
<rect x="23" y="23" clip-path="url(#clipPath1)" fill="none" width="39" height="39" stroke-width="0.1"/>
<text x="-54" y="48" clip-path="url(#clipPath1)" stroke="none" stroke-width="0.1" xml:space="preserve">Invalid view - remove from diagram.</text>
<rect x="23" y="23" clip-path="url(#clipPath1)" fill="rgb(255,203,203)" width="40" height="40" stroke="none" stroke-width="0.1"/>
<rect x="23" y="23" clip-path="url(#clipPath1)" fill="none" width="39" height="39" stroke-width="0.1"/>
<text x="-54" y="48" clip-path="url(#clipPath1)" stroke="none" stroke-width="0.1" xml:space="preserve">Invalid view - remove from diagram.</text>
<rect x="23" y="23" clip-path="url(#clipPath1)" fill="rgb(255,203,203)" width="40" height="40" stroke="none" stroke-width="0.1"/>
<rect x="23" y="23" clip-path="url(#clipPath1)" fill="none" width="39" height="39" stroke-width="0.1"/>
<text x="-54" y="48" clip-path="url(#clipPath1)" stroke="none" stroke-width="0.1" xml:space="preserve">Invalid view - remove from diagram.</text>
<text x="366" y="259" clip-path="url(#clipPath5)" fill="red" stroke="none" stroke-width="0.1" xml:space="preserve">Invalid view - remove from diagram.</text>
<line clip-path="url(#clipPath3)" fill="none" x1="487" x2="487" y1="425" y2="536" stroke="red" stroke-width="1.1"/>
<line clip-path="url(#clipPath3)" fill="none" x1="487" x2="484" y1="536" y2="536" stroke="red" stroke-width="1.1"/>
<line clip-path="url(#clipPath3)" fill="none" x1="484" x2="484" y1="536" y2="525" stroke="red" stroke-width="1.1"/>
<line clip-path="url(#clipPath3)" fill="none" x1="484" x2="467" y1="525" y2="525" stroke="red" stroke-width="1.1"/>
<line clip-path="url(#clipPath3)" fill="none" x1="467" x2="467" y1="525" y2="425" stroke="red" stroke-width="1.1"/>
<rect x="23" y="23" clip-path="url(#clipPath1)" fill="rgb(255,203,203)" width="40" height="40" stroke="none" stroke-width="1.1"/>
<rect x="23" y="23" clip-path="url(#clipPath1)" fill="none" width="39" height="39" stroke-width="0.1"/>
<text x="-54" y="48" clip-path="url(#clipPath1)" stroke="none" stroke-width="0.1" xml:space="preserve">Invalid view - remove from diagram.</text>
<rect x="23" y="23" clip-path="url(#clipPath1)" fill="rgb(255,203,203)" width="40" height="40" stroke="none" stroke-width="0.1"/>
<rect x="23" y="23" clip-path="url(#clipPath1)" fill="none" width="39" height="39" stroke-width="0.1"/>
<text x="-54" y="48" clip-path="url(#clipPath1)" stroke="none" stroke-width="0.1" xml:space="preserve">Invalid view - remove from diagram.</text>
<rect x="23" y="23" clip-path="url(#clipPath1)" fill="rgb(255,203,203)" width="40" height="40" stroke="none" stroke-width="0.1"/>
<rect x="23" y="23" clip-path="url(#clipPath1)" fill="none" width="39" height="39" stroke-width="0.1"/>
<text x="-54" y="48" clip-path="url(#clipPath1)" stroke="none" stroke-width="0.1" xml:space="preserve">Invalid view - remove from diagram.</text>
<rect x="23" y="23" clip-path="url(#clipPath1)" fill="rgb(255,203,203)" width="40" height="40" stroke="none" stroke-width="0.1"/>
<rect x="23" y="23" clip-path="url(#clipPath1)" fill="none" width="39" height="39" stroke-width="0.1"/>
<text x="-54" y="48" clip-path="url(#clipPath1)" stroke="none" stroke-width="0.1" xml:space="preserve">Invalid view - remove from diagram.</text>
<rect x="23" y="23" clip-path="url(#clipPath1)" fill="rgb(255,203,203)" width="40" height="40" stroke="none" stroke-width="0.1"/>
<rect x="23" y="23" clip-path="url(#clipPath1)" fill="none" width="39" height="39" stroke-width="0.1"/>
<text x="-54" y="48" clip-path="url(#clipPath1)" stroke="none" stroke-width="0.1" xml:space="preserve">Invalid view - remove from diagram.</text>
<text x="388" y="534" clip-path="url(#clipPath6)" fill="red" stroke="none" stroke-width="0.1" xml:space="preserve">Invalid view - remove from diagram.</text>
<line clip-path="url(#clipPath3)" fill="none" x1="443" x2="397" y1="98" y2="98" stroke="red" stroke-width="1.1"/>
<line clip-path="url(#clipPath3)" fill="none" x1="397" x2="397" y1="98" y2="229" stroke="red" stroke-width="1.1"/>
<line clip-path="url(#clipPath3)" fill="none" x1="397" x2="90" y1="229" y2="229" stroke="red" stroke-width="1.1"/>
<rect x="23" y="23" clip-path="url(#clipPath1)" fill="rgb(255,203,203)" width="40" height="40" stroke="none" stroke-width="1.1"/>
<rect x="23" y="23" clip-path="url(#clipPath1)" fill="none" width="39" height="39" stroke-width="0.1"/>
<text x="-54" y="48" clip-path="url(#clipPath1)" stroke="none" stroke-width="0.1" xml:space="preserve">Invalid view - remove from diagram.</text>
<rect x="23" y="23" clip-path="url(#clipPath1)" fill="rgb(255,203,203)" width="40" height="40" stroke="none" stroke-width="0.1"/>
<rect x="23" y="23" clip-path="url(#clipPath1)" fill="none" width="39" height="39" stroke-width="0.1"/>
<text x="-54" y="48" clip-path="url(#clipPath1)" stroke="none" stroke-width="0.1" xml:space="preserve">Invalid view - remove from diagram.</text>
<rect x="23" y="23" clip-path="url(#clipPath1)" fill="rgb(255,203,203)" width="40" height="40" stroke="none" stroke-width="0.1"/>
<rect x="23" y="23" clip-path="url(#clipPath1)" fill="none" width="39" height="39" stroke-width="0.1"/>
<text x="-54" y="48" clip-path="url(#clipPath1)" stroke="none" stroke-width="0.1" xml:space="preserve">Invalid view - remove from diagram.</text>
<rect x="23" y="23" clip-path="url(#clipPath1)" fill="rgb(255,203,203)" width="40" height="40" stroke="none" stroke-width="0.1"/>
<rect x="23" y="23" clip-path="url(#clipPath1)" fill="none" width="39" height="39" stroke-width="0.1"/>
<text x="-54" y="48" clip-path="url(#clipPath1)" stroke="none" stroke-width="0.1" xml:space="preserve">Invalid view - remove from diagram.</text>
<rect x="23" y="23" clip-path="url(#clipPath1)" fill="rgb(255,203,203)" width="40" height="40" stroke="none" stroke-width="0.1"/>
<rect x="23" y="23" clip-path="url(#clipPath1)" fill="none" width="39" height="39" stroke-width="0.1"/>
<text x="-54" y="48" clip-path="url(#clipPath1)" stroke="none" stroke-width="0.1" xml:space="preserve">Invalid view - remove from diagram.</text>
<rect x="23" y="23" clip-path="url(#clipPath1)" fill="rgb(255,203,203)" width="40" height="40" stroke="none" stroke-width="0.1"/>
<rect x="23" y="23" clip-path="url(#clipPath1)" fill="none" width="39" height="39" stroke-width="0.1"/>
<text x="-54" y="48" clip-path="url(#clipPath1)" stroke="none" stroke-width="0.1" xml:space="preserve">Invalid view - remove from diagram.</text>
<text x="236" y="234" clip-path="url(#clipPath7)" fill="red" stroke="none" stroke-width="0.1" xml:space="preserve">Invalid view - remove from diagram.</text>
<line clip-path="url(#clipPath3)" fill="none" x1="66" x2="66" y1="494" y2="352" stroke="red" stroke-width="1.1"/>
<line clip-path="url(#clipPath3)" fill="none" x1="66" x2="71" y1="352" y2="352" stroke="red" stroke-width="1.1"/>
<line clip-path="url(#clipPath3)" fill="none" x1="71" x2="71" y1="352" y2="254" stroke="red" stroke-width="1.1"/>
<line clip-path="url(#clipPath3)" fill="none" x1="71" x2="462" y1="254" y2="254" stroke="red" stroke-width="1.1"/>
<rect x="23" y="23" clip-path="url(#clipPath1)" fill="rgb(255,203,203)" width="40" height="40" stroke="none" stroke-width="1.1"/>
<rect x="23" y="23" clip-path="url(#clipPath1)" fill="none" width="39" height="39" stroke-width="0.1"/>
<text x="-54" y="48" clip-path="url(#clipPath1)" stroke="none" stroke-width="0.1" xml:space="preserve">Invalid view - remove from diagram.</text>
<text x="48" y="259" clip-path="url(#clipPath8)" fill="red" stroke="none" stroke-width="0.1" xml:space="preserve">Invalid view - remove from diagram.</text>
<line clip-path="url(#clipPath3)" fill="none" x1="217" x2="467" y1="507" y2="482" stroke="red" stroke-width="1.1"/>
<text x="246" y="499" clip-path="url(#clipPath9)" fill="red" stroke="none" stroke-width="1.1" xml:space="preserve">Invalid view - remove from diagram.</text>
<line clip-path="url(#clipPath3)" fill="none" x1="487" x2="638" y1="405" y2="405" stroke="red" stroke-width="1.1"/>
<line clip-path="url(#clipPath3)" fill="none" x1="638" x2="638" y1="405" y2="420" stroke="red" stroke-width="1.1"/>
<line clip-path="url(#clipPath3)" fill="none" x1="638" x2="651" y1="420" y2="420" stroke="red" stroke-width="1.1"/>
<line clip-path="url(#clipPath3)" fill="none" x1="651" x2="651" y1="420" y2="372" stroke="red" stroke-width="1.1"/>
<line clip-path="url(#clipPath3)" fill="none" x1="651" x2="467" y1="372" y2="372" stroke="red" stroke-width="1.1"/>
<line clip-path="url(#clipPath3)" fill="none" x1="467" x2="467" y1="372" y2="385" stroke="red" stroke-width="1.1"/>
<rect x="23" y="23" clip-path="url(#clipPath1)" fill="rgb(255,203,203)" width="40" height="40" stroke="none" stroke-width="1.1"/>
<rect x="23" y="23" clip-path="url(#clipPath1)" fill="none" width="39" height="39" stroke-width="0.1"/>
<text x="-54" y="48" clip-path="url(#clipPath1)" stroke="none" stroke-width="0.1" xml:space="preserve">Invalid view - remove from diagram.</text>
<rect x="23" y="23" clip-path="url(#clipPath1)" fill="rgb(255,203,203)" width="40" height="40" stroke="none" stroke-width="0.1"/>
<rect x="23" y="23" clip-path="url(#clipPath1)" fill="none" width="39" height="39" stroke-width="0.1"/>
<text x="-54" y="48" clip-path="url(#clipPath1)" stroke="none" stroke-width="0.1" xml:space="preserve">Invalid view - remove from diagram.</text>
<rect x="23" y="23" clip-path="url(#clipPath1)" fill="rgb(255,203,203)" width="40" height="40" stroke="none" stroke-width="0.1"/>
<rect x="23" y="23" clip-path="url(#clipPath1)" fill="none" width="39" height="39" stroke-width="0.1"/>
<text x="-54" y="48" clip-path="url(#clipPath1)" stroke="none" stroke-width="0.1" xml:space="preserve">Invalid view - remove from diagram.</text>
<rect x="23" y="23" clip-path="url(#clipPath1)" fill="rgb(255,203,203)" width="40" height="40" stroke="none" stroke-width="0.1"/>
<rect x="23" y="23" clip-path="url(#clipPath1)" fill="none" width="39" height="39" stroke-width="0.1"/>
<text x="-54" y="48" clip-path="url(#clipPath1)" stroke="none" stroke-width="0.1" xml:space="preserve">Invalid view - remove from diagram.</text>
<rect x="23" y="23" clip-path="url(#clipPath1)" fill="rgb(255,203,203)" width="40" height="40" stroke="none" stroke-width="0.1"/>
<rect x="23" y="23" clip-path="url(#clipPath1)" fill="none" width="39" height="39" stroke-width="0.1"/>
<text x="-54" y="48" clip-path="url(#clipPath1)" stroke="none" stroke-width="0.1" xml:space="preserve">Invalid view - remove from diagram.</text>
<text x="555" y="392" clip-path="url(#clipPath10)" fill="red" stroke="none" stroke-width="0.1" xml:space="preserve">Invalid view - remove from diagram.</text>
<line clip-path="url(#clipPath3)" fill="none" x1="792" x2="792" y1="493" y2="426" stroke="red" stroke-width="1.1"/>
<line clip-path="url(#clipPath3)" fill="none" x1="792" x2="559" y1="426" y2="426" stroke="red" stroke-width="1.1"/>
<line clip-path="url(#clipPath3)" fill="none" x1="559" x2="559" y1="426" y2="405" stroke="red" stroke-width="1.1"/>
<rect x="23" y="23" clip-path="url(#clipPath1)" fill="rgb(255,203,203)" width="40" height="40" stroke="none" stroke-width="1.1"/>
<rect x="23" y="23" clip-path="url(#clipPath1)" fill="none" width="39" height="39" stroke-width="0.1"/>
<text x="-54" y="48" clip-path="url(#clipPath1)" stroke="none" stroke-width="0.1" xml:space="preserve">Invalid view - remove from diagram.</text>
<text x="602" y="431" clip-path="url(#clipPath11)" fill="red" stroke="none" stroke-width="0.1" xml:space="preserve">Invalid view - remove from diagram.</text>
<line clip-path="url(#clipPath3)" fill="none" x1="835" x2="835" y1="493" y2="334" stroke="red" stroke-width="1.1"/>
<line clip-path="url(#clipPath3)" fill="none" x1="835" x2="864" y1="334" y2="334" stroke="red" stroke-width="1.1"/>
<line clip-path="url(#clipPath3)" fill="none" x1="864" x2="864" y1="334" y2="375" stroke="red" stroke-width="1.1"/>
<line clip-path="url(#clipPath3)" fill="none" x1="864" x2="462" y1="375" y2="375" stroke="red" stroke-width="1.1"/>
<text x="681" y="380" clip-path="url(#clipPath12)" fill="red" stroke="none" stroke-width="1.1" xml:space="preserve">Invalid view - remove from diagram.</text>
</g>
</g>
<rect x="443" y="82" fill-opacity="0" width="40" id="ConstrainedHypergraph" height="40" stroke-opacity="0"/>
<rect x="50" y="209" fill-opacity="0" width="40" id="ConstrainedHyperEdge" height="40" stroke-opacity="0"/>
<rect x="447" y="385" fill-opacity="0" width="40" id="VertexOpportunity" height="40" stroke-opacity="0"/>
<rect x="0" y="0" fill-opacity="0" width="0" id="direction" height="0" stroke-opacity="0"/>
<rect x="66" y="494" fill-opacity="0" width="151" id="Constraint1" height="40" stroke-opacity="0"/>
<rect x="791" y="493" fill-opacity="0" width="244" id="Constraint1" height="40" stroke-opacity="0"/>
<rect x="545" y="248" fill-opacity="0" width="177" height="40" stroke-opacity="0"/>
<rect x="775" y="181" fill-opacity="0" width="309" height="40" stroke-opacity="0"/>
<rect x="770" y="61" fill-opacity="0" width="40" id="Direction" height="40" stroke-opacity="0"/>
<rect x="0" y="0" fill-opacity="0" width="0" id="IN" height="0" stroke-opacity="0"/>
<rect x="0" y="0" fill-opacity="0" width="0" id="OUT" height="0" stroke-opacity="0"/>
<rect x="0" y="0" fill-opacity="0" width="0" id="BIDIRECTIONAL" height="0" stroke-opacity="0"/>
</svg>
