<?xml version="1.0" encoding="UTF-8"?><svg xmlns="http://www.w3.org/2000/svg" xmlns:xlink="http://www.w3.org/1999/xlink" stroke-dasharray="none" shape-rendering="auto" font-family="'Dialog'" width="1412" text-rendering="auto" fill-opacity="1" contentScriptType="text/ecmascript" color-interpolation="auto" color-rendering="auto" preserveAspectRatio="xMidYMid meet" font-size="12" viewBox="0 0 1412 960" fill="black" stroke="black" image-rendering="auto" stroke-miterlimit="10" zoomAndPan="magnify" version="1.0" stroke-linecap="square" stroke-linejoin="miter" contentStyleType="text/css" font-style="normal" height="960" stroke-width="1" stroke-dashoffset="0" font-weight="normal" stroke-opacity="1">
<!--Generated by the Batik Graphics2D SVG Generator-->
<defs id="genericDefs"/>
<g>
<defs id="defs1">
<clipPath clipPathUnits="userSpaceOnUse" id="clipPath1">
<path d="M269 54 L311 54 L311 96 L269 96 L269 54 Z"/>
</clipPath>
<clipPath clipPathUnits="userSpaceOnUse" id="clipPath2">
<path d="M671 166 L865 166 L865 184 L671 184 L671 166 Z"/>
</clipPath>
<clipPath clipPathUnits="userSpaceOnUse" id="clipPath3">
<path d="M-1 -1 L1413 -1 L1413 961 L-1 961 L-1 -1 Z"/>
</clipPath>
<clipPath clipPathUnits="userSpaceOnUse" id="clipPath4">
<path d="M1087 269 L1281 269 L1281 287 L1087 287 L1087 269 Z"/>
</clipPath>
<clipPath clipPathUnits="userSpaceOnUse" id="clipPath5">
<path d="M463 306 L657 306 L657 324 L463 324 L463 306 Z"/>
</clipPath>
<clipPath clipPathUnits="userSpaceOnUse" id="clipPath6">
<path d="M469 51 L663 51 L663 69 L469 69 L469 51 Z"/>
</clipPath>
<clipPath clipPathUnits="userSpaceOnUse" id="clipPath7">
<path d="M225 173 L419 173 L419 191 L225 191 L225 173 Z"/>
</clipPath>
<clipPath clipPathUnits="userSpaceOnUse" id="clipPath8">
<path d="M710 98 L904 98 L904 116 L710 116 L710 98 Z"/>
</clipPath>
<clipPath clipPathUnits="userSpaceOnUse" id="clipPath9">
<path d="M680 108 L874 108 L874 126 L680 126 L680 108 Z"/>
</clipPath>
<clipPath clipPathUnits="userSpaceOnUse" id="clipPath10">
<path d="M838 103 L1032 103 L1032 121 L838 121 L838 103 Z"/>
</clipPath>
<clipPath clipPathUnits="userSpaceOnUse" id="clipPath11">
<path d="M671 219 L865 219 L865 237 L671 237 L671 219 Z"/>
</clipPath>
<clipPath clipPathUnits="userSpaceOnUse" id="clipPath12">
<path d="M722 192 L916 192 L916 210 L722 210 L722 192 Z"/>
</clipPath>
<clipPath clipPathUnits="userSpaceOnUse" id="clipPath13">
<path d="M768 270 L962 270 L962 288 L768 288 L768 270 Z"/>
</clipPath>
<clipPath clipPathUnits="userSpaceOnUse" id="clipPath14">
<path d="M1077 920 L1271 920 L1271 938 L1077 938 L1077 920 Z"/>
</clipPath>
<clipPath clipPathUnits="userSpaceOnUse" id="clipPath15">
<path d="M418 56 L612 56 L612 74 L418 74 L418 56 Z"/>
</clipPath>
<clipPath clipPathUnits="userSpaceOnUse" id="clipPath16">
<path d="M842 286 L1036 286 L1036 304 L842 304 L842 286 Z"/>
</clipPath>
<clipPath clipPathUnits="userSpaceOnUse" id="clipPath17">
<path d="M998 640 L1192 640 L1192 658 L998 658 L998 640 Z"/>
</clipPath>
<clipPath clipPathUnits="userSpaceOnUse" id="clipPath18">
<path d="M937 461 L1131 461 L1131 479 L937 479 L937 461 Z"/>
</clipPath>
<clipPath clipPathUnits="userSpaceOnUse" id="clipPath19">
<path d="M1169 333 L1363 333 L1363 351 L1169 351 L1169 333 Z"/>
</clipPath>
<clipPath clipPathUnits="userSpaceOnUse" id="clipPath20">
<path d="M1143 510 L1337 510 L1337 528 L1143 528 L1143 510 Z"/>
</clipPath>
<clipPath clipPathUnits="userSpaceOnUse" id="clipPath21">
<path d="M942 287 L1136 287 L1136 305 L942 305 L942 287 Z"/>
</clipPath>
<clipPath clipPathUnits="userSpaceOnUse" id="clipPath22">
<path d="M1102 246 L1296 246 L1296 264 L1102 264 L1102 246 Z"/>
</clipPath>
<clipPath clipPathUnits="userSpaceOnUse" id="clipPath23">
<path d="M858 682 L1052 682 L1052 700 L858 700 L858 682 Z"/>
</clipPath>
<clipPath clipPathUnits="userSpaceOnUse" id="clipPath24">
<path d="M794 583 L988 583 L988 601 L794 601 L794 583 Z"/>
</clipPath>
</defs>
<g fill="rgb(255,203,203)" font-family="'Segoe UI'" stroke-linejoin="round" stroke="rgb(255,203,203)" stroke-width="0" stroke-miterlimit="0">
<rect width="153" x="483" height="100" y="141" stroke="none"/>
</g>
<g stroke-linecap="butt" font-family="'Segoe UI'">
<rect fill="none" width="152" x="483" height="99" y="141"/>
<text xml:space="preserve" x="463" y="196" stroke="none">Invalid view - remove from diagram.</text>
<rect x="900" y="140" fill="rgb(255,203,203)" width="209" height="101" stroke="none"/>
<rect x="900" y="140" fill="none" width="208" height="100" stroke-width="0.1"/>
<text xml:space="preserve" x="908" stroke-width="0.1" y="196" stroke="none">Invalid view - remove from diagram.</text>
<rect x="10" y="140" fill="rgb(255,203,203)" width="151" height="40" stroke="none" stroke-width="0.1"/>
<rect x="10" y="140" fill="none" width="150" height="39" stroke-width="0.1"/>
<text xml:space="preserve" x="-11" stroke-width="0.1" y="165" stroke="none">Invalid view - remove from diagram.</text>
<rect x="485" y="390" fill="rgb(255,203,203)" width="151" height="40" stroke="none" stroke-width="0.1"/>
<rect x="485" y="390" fill="none" width="150" height="39" stroke-width="0.1"/>
<text xml:space="preserve" x="464" stroke-width="0.1" y="415" stroke="none">Invalid view - remove from diagram.</text>
<rect x="330" y="374" fill="rgb(255,203,203)" width="134" height="40" stroke="none" stroke-width="0.1"/>
<rect x="330" y="374" fill="none" width="133" height="39" stroke-width="0.1"/>
<text xml:space="preserve" x="300" stroke-width="0.1" y="399" stroke="none">Invalid view - remove from diagram.</text>
<rect x="213" y="10" fill="rgb(255,203,203)" width="257" height="40" stroke="none" stroke-width="0.1"/>
<rect x="213" y="10" fill="none" width="256" height="39" stroke-width="0.1"/>
<text xml:space="preserve" x="245" stroke-width="0.1" y="35" stroke="none">Invalid view - remove from diagram.</text>
<rect x="884" y="350" fill="rgb(255,203,203)" width="40" height="40" stroke="none" stroke-width="0.1"/>
<rect x="884" y="350" fill="none" width="39" height="39" stroke-width="0.1"/>
<text xml:space="preserve" x="807" stroke-width="0.1" y="375" stroke="none">Invalid view - remove from diagram.</text>
<rect x="993" y="547" fill="rgb(255,203,203)" width="40" height="40" stroke="none" stroke-width="0.1"/>
<rect x="993" y="547" fill="none" width="39" height="39" stroke-width="0.1"/>
<text xml:space="preserve" x="916" stroke-width="0.1" y="572" stroke="none">Invalid view - remove from diagram.</text>
<rect x="1038" y="352" fill="rgb(255,203,203)" width="40" height="40" stroke="none" stroke-width="0.1"/>
<rect x="1038" y="352" fill="none" width="39" height="39" stroke-width="0.1"/>
<text xml:space="preserve" x="961" stroke-width="0.1" y="377" stroke="none">Invalid view - remove from diagram.</text>
<rect x="886" y="794" fill="rgb(255,203,203)" width="40" height="40" stroke="none" stroke-width="0.1"/>
<rect x="886" y="794" fill="none" width="39" height="39" stroke-width="0.1"/>
<text xml:space="preserve" x="809" stroke-width="0.1" y="819" stroke="none">Invalid view - remove from diagram.</text>
<line fill="none" x1="636" x2="900" y1="175" y2="175" stroke="red" stroke-width="1.1"/>
<rect x="270" y="55" clip-path="url(#clipPath1)" fill="rgb(255,203,203)" width="40" height="40" stroke="none" stroke-width="1.1"/>
<rect x="270" y="55" clip-path="url(#clipPath1)" fill="none" width="39" height="39" stroke-width="0.1"/>
<text x="193" y="80" clip-path="url(#clipPath1)" stroke="none" stroke-width="0.1" xml:space="preserve">Invalid view - remove from diagram.</text>
<rect x="270" y="55" clip-path="url(#clipPath1)" fill="rgb(255,203,203)" width="40" height="40" stroke="none" stroke-width="0.1"/>
<rect x="270" y="55" clip-path="url(#clipPath1)" fill="none" width="39" height="39" stroke-width="0.1"/>
<text x="193" y="80" clip-path="url(#clipPath1)" stroke="none" stroke-width="0.1" xml:space="preserve">Invalid view - remove from diagram.</text>
<rect x="270" y="55" clip-path="url(#clipPath1)" fill="rgb(255,203,203)" width="40" height="40" stroke="none" stroke-width="0.1"/>
<rect x="270" y="55" clip-path="url(#clipPath1)" fill="none" width="39" height="39" stroke-width="0.1"/>
<text x="193" y="80" clip-path="url(#clipPath1)" stroke="none" stroke-width="0.1" xml:space="preserve">Invalid view - remove from diagram.</text>
<rect x="270" y="55" clip-path="url(#clipPath1)" fill="rgb(255,203,203)" width="40" height="40" stroke="none" stroke-width="0.1"/>
<rect x="270" y="55" clip-path="url(#clipPath1)" fill="none" width="39" height="39" stroke-width="0.1"/>
<text x="193" y="80" clip-path="url(#clipPath1)" stroke="none" stroke-width="0.1" xml:space="preserve">Invalid view - remove from diagram.</text>
<rect x="270" y="55" clip-path="url(#clipPath1)" fill="rgb(255,203,203)" width="40" height="40" stroke="none" stroke-width="0.1"/>
<rect x="270" y="55" clip-path="url(#clipPath1)" fill="none" width="39" height="39" stroke-width="0.1"/>
<text x="193" y="80" clip-path="url(#clipPath1)" stroke="none" stroke-width="0.1" xml:space="preserve">Invalid view - remove from diagram.</text>
<text x="672" y="180" clip-path="url(#clipPath2)" fill="red" stroke="none" stroke-width="0.1" xml:space="preserve">Invalid view - remove from diagram.</text>
<line clip-path="url(#clipPath3)" fill="none" x1="1109" x2="1184" y1="169" y2="169" stroke="red" stroke-width="1.1"/>
<line clip-path="url(#clipPath3)" fill="none" x1="1184" x2="1184" y1="169" y2="296" stroke="red" stroke-width="1.1"/>
<line clip-path="url(#clipPath3)" fill="none" x1="1184" x2="1073" y1="296" y2="296" stroke="red" stroke-width="1.1"/>
<line clip-path="url(#clipPath3)" fill="none" x1="1073" x2="1073" y1="296" y2="241" stroke="red" stroke-width="1.1"/>
<rect x="270" y="55" clip-path="url(#clipPath1)" fill="rgb(255,203,203)" width="40" height="40" stroke="none" stroke-width="1.1"/>
<rect x="270" y="55" clip-path="url(#clipPath1)" fill="none" width="39" height="39" stroke-width="0.1"/>
<text x="193" y="80" clip-path="url(#clipPath1)" stroke="none" stroke-width="0.1" xml:space="preserve">Invalid view - remove from diagram.</text>
<rect x="270" y="55" clip-path="url(#clipPath1)" fill="rgb(255,203,203)" width="40" height="40" stroke="none" stroke-width="0.1"/>
<rect x="270" y="55" clip-path="url(#clipPath1)" fill="none" width="39" height="39" stroke-width="0.1"/>
<text x="193" y="80" clip-path="url(#clipPath1)" stroke="none" stroke-width="0.1" xml:space="preserve">Invalid view - remove from diagram.</text>
<rect x="270" y="55" clip-path="url(#clipPath1)" fill="rgb(255,203,203)" width="40" height="40" stroke="none" stroke-width="0.1"/>
<rect x="270" y="55" clip-path="url(#clipPath1)" fill="none" width="39" height="39" stroke-width="0.1"/>
<text x="193" y="80" clip-path="url(#clipPath1)" stroke="none" stroke-width="0.1" xml:space="preserve">Invalid view - remove from diagram.</text>
<rect x="270" y="55" clip-path="url(#clipPath1)" fill="rgb(255,203,203)" width="40" height="40" stroke="none" stroke-width="0.1"/>
<rect x="270" y="55" clip-path="url(#clipPath1)" fill="none" width="39" height="39" stroke-width="0.1"/>
<text x="193" y="80" clip-path="url(#clipPath1)" stroke="none" stroke-width="0.1" xml:space="preserve">Invalid view - remove from diagram.</text>
<rect x="270" y="55" clip-path="url(#clipPath1)" fill="rgb(255,203,203)" width="40" height="40" stroke="none" stroke-width="0.1"/>
<rect x="270" y="55" clip-path="url(#clipPath1)" fill="none" width="39" height="39" stroke-width="0.1"/>
<text x="193" y="80" clip-path="url(#clipPath1)" stroke="none" stroke-width="0.1" xml:space="preserve">Invalid view - remove from diagram.</text>
<text x="1088" y="283" clip-path="url(#clipPath4)" fill="red" stroke="none" stroke-width="0.1" xml:space="preserve">Invalid view - remove from diagram.</text>
<line clip-path="url(#clipPath3)" fill="none" x1="559" x2="559" y1="241" y2="300" stroke="red" stroke-width="1.1"/>
<line clip-path="url(#clipPath3)" fill="none" x1="559" x2="560" y1="300" y2="300" stroke="red" stroke-width="1.1"/>
<line clip-path="url(#clipPath3)" fill="none" x1="560" x2="560" y1="300" y2="390" stroke="red" stroke-width="1.1"/>
<rect x="270" y="55" clip-path="url(#clipPath1)" fill="rgb(255,203,203)" width="40" height="40" stroke="none" stroke-width="1.1"/>
<rect x="270" y="55" clip-path="url(#clipPath1)" fill="none" width="39" height="39" stroke-width="0.1"/>
<text x="193" y="80" clip-path="url(#clipPath1)" stroke="none" stroke-width="0.1" xml:space="preserve">Invalid view - remove from diagram.</text>
<rect x="270" y="55" clip-path="url(#clipPath1)" fill="rgb(255,203,203)" width="40" height="40" stroke="none" stroke-width="0.1"/>
<rect x="270" y="55" clip-path="url(#clipPath1)" fill="none" width="39" height="39" stroke-width="0.1"/>
<text x="193" y="80" clip-path="url(#clipPath1)" stroke="none" stroke-width="0.1" xml:space="preserve">Invalid view - remove from diagram.</text>
<rect x="270" y="55" clip-path="url(#clipPath1)" fill="rgb(255,203,203)" width="40" height="40" stroke="none" stroke-width="0.1"/>
<rect x="270" y="55" clip-path="url(#clipPath1)" fill="none" width="39" height="39" stroke-width="0.1"/>
<text x="193" y="80" clip-path="url(#clipPath1)" stroke="none" stroke-width="0.1" xml:space="preserve">Invalid view - remove from diagram.</text>
<rect x="270" y="55" clip-path="url(#clipPath1)" fill="rgb(255,203,203)" width="40" height="40" stroke="none" stroke-width="0.1"/>
<rect x="270" y="55" clip-path="url(#clipPath1)" fill="none" width="39" height="39" stroke-width="0.1"/>
<text x="193" y="80" clip-path="url(#clipPath1)" stroke="none" stroke-width="0.1" xml:space="preserve">Invalid view - remove from diagram.</text>
<rect x="270" y="55" clip-path="url(#clipPath1)" fill="rgb(255,203,203)" width="40" height="40" stroke="none" stroke-width="0.1"/>
<rect x="270" y="55" clip-path="url(#clipPath1)" fill="none" width="39" height="39" stroke-width="0.1"/>
<text x="193" y="80" clip-path="url(#clipPath1)" stroke="none" stroke-width="0.1" xml:space="preserve">Invalid view - remove from diagram.</text>
<text x="464" y="320" clip-path="url(#clipPath5)" fill="red" stroke="none" stroke-width="0.1" xml:space="preserve">Invalid view - remove from diagram.</text>
<line clip-path="url(#clipPath3)" fill="none" x1="573" x2="573" y1="141" y2="60" stroke="red" stroke-width="1.1"/>
<line clip-path="url(#clipPath3)" fill="none" x1="573" x2="559" y1="60" y2="60" stroke="red" stroke-width="1.1"/>
<line clip-path="url(#clipPath3)" fill="none" x1="559" x2="559" y1="60" y2="141" stroke="red" stroke-width="1.1"/>
<rect x="270" y="55" clip-path="url(#clipPath1)" fill="rgb(255,203,203)" width="40" height="40" stroke="none" stroke-width="1.1"/>
<rect x="270" y="55" clip-path="url(#clipPath1)" fill="none" width="39" height="39" stroke-width="0.1"/>
<text x="193" y="80" clip-path="url(#clipPath1)" stroke="none" stroke-width="0.1" xml:space="preserve">Invalid view - remove from diagram.</text>
<rect x="270" y="55" clip-path="url(#clipPath1)" fill="rgb(255,203,203)" width="40" height="40" stroke="none" stroke-width="0.1"/>
<rect x="270" y="55" clip-path="url(#clipPath1)" fill="none" width="39" height="39" stroke-width="0.1"/>
<text x="193" y="80" clip-path="url(#clipPath1)" stroke="none" stroke-width="0.1" xml:space="preserve">Invalid view - remove from diagram.</text>
<rect x="270" y="55" clip-path="url(#clipPath1)" fill="rgb(255,203,203)" width="40" height="40" stroke="none" stroke-width="0.1"/>
<rect x="270" y="55" clip-path="url(#clipPath1)" fill="none" width="39" height="39" stroke-width="0.1"/>
<text x="193" y="80" clip-path="url(#clipPath1)" stroke="none" stroke-width="0.1" xml:space="preserve">Invalid view - remove from diagram.</text>
<rect x="270" y="55" clip-path="url(#clipPath1)" fill="rgb(255,203,203)" width="40" height="40" stroke="none" stroke-width="0.1"/>
<rect x="270" y="55" clip-path="url(#clipPath1)" fill="none" width="39" height="39" stroke-width="0.1"/>
<text x="193" y="80" clip-path="url(#clipPath1)" stroke="none" stroke-width="0.1" xml:space="preserve">Invalid view - remove from diagram.</text>
<rect x="270" y="55" clip-path="url(#clipPath1)" fill="rgb(255,203,203)" width="40" height="40" stroke="none" stroke-width="0.1"/>
<rect x="270" y="55" clip-path="url(#clipPath1)" fill="none" width="39" height="39" stroke-width="0.1"/>
<text x="193" y="80" clip-path="url(#clipPath1)" stroke="none" stroke-width="0.1" xml:space="preserve">Invalid view - remove from diagram.</text>
<text x="470" y="65" clip-path="url(#clipPath6)" fill="red" stroke="none" stroke-width="0.1" xml:space="preserve">Invalid view - remove from diagram.</text>
<line clip-path="url(#clipPath3)" fill="none" x1="483" x2="322" y1="198" y2="198" stroke="red" stroke-width="1.1"/>
<line clip-path="url(#clipPath3)" fill="none" x1="322" x2="322" y1="198" y2="167" stroke="red" stroke-width="1.1"/>
<line clip-path="url(#clipPath3)" fill="none" x1="322" x2="161" y1="167" y2="167" stroke="red" stroke-width="1.1"/>
<rect x="270" y="55" clip-path="url(#clipPath1)" fill="rgb(255,203,203)" width="40" height="40" stroke="none" stroke-width="1.1"/>
<rect x="270" y="55" clip-path="url(#clipPath1)" fill="none" width="39" height="39" stroke-width="0.1"/>
<text x="193" y="80" clip-path="url(#clipPath1)" stroke="none" stroke-width="0.1" xml:space="preserve">Invalid view - remove from diagram.</text>
<rect x="270" y="55" clip-path="url(#clipPath1)" fill="rgb(255,203,203)" width="40" height="40" stroke="none" stroke-width="0.1"/>
<rect x="270" y="55" clip-path="url(#clipPath1)" fill="none" width="39" height="39" stroke-width="0.1"/>
<text x="193" y="80" clip-path="url(#clipPath1)" stroke="none" stroke-width="0.1" xml:space="preserve">Invalid view - remove from diagram.</text>
<rect x="270" y="55" clip-path="url(#clipPath1)" fill="rgb(255,203,203)" width="40" height="40" stroke="none" stroke-width="0.1"/>
<rect x="270" y="55" clip-path="url(#clipPath1)" fill="none" width="39" height="39" stroke-width="0.1"/>
<text x="193" y="80" clip-path="url(#clipPath1)" stroke="none" stroke-width="0.1" xml:space="preserve">Invalid view - remove from diagram.</text>
<rect x="270" y="55" clip-path="url(#clipPath1)" fill="rgb(255,203,203)" width="40" height="40" stroke="none" stroke-width="0.1"/>
<rect x="270" y="55" clip-path="url(#clipPath1)" fill="none" width="39" height="39" stroke-width="0.1"/>
<text x="193" y="80" clip-path="url(#clipPath1)" stroke="none" stroke-width="0.1" xml:space="preserve">Invalid view - remove from diagram.</text>
<rect x="270" y="55" clip-path="url(#clipPath1)" fill="rgb(255,203,203)" width="40" height="40" stroke="none" stroke-width="0.1"/>
<rect x="270" y="55" clip-path="url(#clipPath1)" fill="none" width="39" height="39" stroke-width="0.1"/>
<text x="193" y="80" clip-path="url(#clipPath1)" stroke="none" stroke-width="0.1" xml:space="preserve">Invalid view - remove from diagram.</text>
<text x="226" y="187" clip-path="url(#clipPath7)" fill="red" stroke="none" stroke-width="0.1" xml:space="preserve">Invalid view - remove from diagram.</text>
<line clip-path="url(#clipPath3)" fill="none" x1="573" x2="926" y1="107" y2="107" stroke="red" stroke-width="1.1"/>
<line clip-path="url(#clipPath3)" fill="none" x1="926" x2="926" y1="107" y2="77" stroke="red" stroke-width="1.1"/>
<line clip-path="url(#clipPath3)" fill="none" x1="926" x2="947" y1="77" y2="77" stroke="red" stroke-width="1.1"/>
<line clip-path="url(#clipPath3)" fill="none" x1="947" x2="947" y1="77" y2="140" stroke="red" stroke-width="1.1"/>
<rect x="270" y="55" clip-path="url(#clipPath1)" fill="rgb(255,203,203)" width="40" height="40" stroke="none" stroke-width="1.1"/>
<rect x="270" y="55" clip-path="url(#clipPath1)" fill="none" width="39" height="39" stroke-width="0.1"/>
<text x="193" y="80" clip-path="url(#clipPath1)" stroke="none" stroke-width="0.1" xml:space="preserve">Invalid view - remove from diagram.</text>
<rect x="270" y="55" clip-path="url(#clipPath1)" fill="rgb(255,203,203)" width="40" height="40" stroke="none" stroke-width="0.1"/>
<rect x="270" y="55" clip-path="url(#clipPath1)" fill="none" width="39" height="39" stroke-width="0.1"/>
<text x="193" y="80" clip-path="url(#clipPath1)" stroke="none" stroke-width="0.1" xml:space="preserve">Invalid view - remove from diagram.</text>
<text x="711" y="112" clip-path="url(#clipPath8)" fill="red" stroke="none" stroke-width="0.1" xml:space="preserve">Invalid view - remove from diagram.</text>
<line clip-path="url(#clipPath3)" fill="none" x1="573" x2="833" y1="117" y2="117" stroke="red" stroke-width="1.1"/>
<line clip-path="url(#clipPath3)" fill="none" x1="833" x2="833" y1="117" y2="105" stroke="red" stroke-width="1.1"/>
<line clip-path="url(#clipPath3)" fill="none" x1="833" x2="768" y1="105" y2="105" stroke="red" stroke-width="1.1"/>
<line clip-path="url(#clipPath3)" fill="none" x1="768" x2="768" y1="105" y2="175" stroke="red" stroke-width="1.1"/>
<rect x="270" y="55" clip-path="url(#clipPath1)" fill="rgb(255,203,203)" width="40" height="40" stroke="none" stroke-width="1.1"/>
<rect x="270" y="55" clip-path="url(#clipPath1)" fill="none" width="39" height="39" stroke-width="0.1"/>
<text x="193" y="80" clip-path="url(#clipPath1)" stroke="none" stroke-width="0.1" xml:space="preserve">Invalid view - remove from diagram.</text>
<rect x="270" y="55" clip-path="url(#clipPath1)" fill="rgb(255,203,203)" width="40" height="40" stroke="none" stroke-width="0.1"/>
<rect x="270" y="55" clip-path="url(#clipPath1)" fill="none" width="39" height="39" stroke-width="0.1"/>
<text x="193" y="80" clip-path="url(#clipPath1)" stroke="none" stroke-width="0.1" xml:space="preserve">Invalid view - remove from diagram.</text>
<text x="681" y="122" clip-path="url(#clipPath9)" fill="red" stroke="none" stroke-width="0.1" xml:space="preserve">Invalid view - remove from diagram.</text>
<line clip-path="url(#clipPath3)" fill="none" x1="573" x2="1130" y1="112" y2="112" stroke="red" stroke-width="1.1"/>
<line clip-path="url(#clipPath3)" fill="none" x1="1130" x2="1130" y1="112" y2="58" stroke="red" stroke-width="1.1"/>
<line clip-path="url(#clipPath3)" fill="none" x1="1130" x2="1129" y1="58" y2="58" stroke="red" stroke-width="1.1"/>
<line clip-path="url(#clipPath3)" fill="none" x1="1129" x2="1129" y1="58" y2="169" stroke="red" stroke-width="1.1"/>
<rect x="270" y="55" clip-path="url(#clipPath1)" fill="rgb(255,203,203)" width="40" height="40" stroke="none" stroke-width="1.1"/>
<rect x="270" y="55" clip-path="url(#clipPath1)" fill="none" width="39" height="39" stroke-width="0.1"/>
<text x="193" y="80" clip-path="url(#clipPath1)" stroke="none" stroke-width="0.1" xml:space="preserve">Invalid view - remove from diagram.</text>
<rect x="270" y="55" clip-path="url(#clipPath1)" fill="rgb(255,203,203)" width="40" height="40" stroke="none" stroke-width="0.1"/>
<rect x="270" y="55" clip-path="url(#clipPath1)" fill="none" width="39" height="39" stroke-width="0.1"/>
<text x="193" y="80" clip-path="url(#clipPath1)" stroke="none" stroke-width="0.1" xml:space="preserve">Invalid view - remove from diagram.</text>
<text x="839" y="117" clip-path="url(#clipPath10)" fill="red" stroke="none" stroke-width="0.1" xml:space="preserve">Invalid view - remove from diagram.</text>
<line clip-path="url(#clipPath3)" fill="none" x1="900" x2="636" y1="228" y2="228" stroke="red" stroke-width="1.1"/>
<rect x="270" y="55" clip-path="url(#clipPath1)" fill="rgb(255,203,203)" width="40" height="40" stroke="none" stroke-width="1.1"/>
<rect x="270" y="55" clip-path="url(#clipPath1)" fill="none" width="39" height="39" stroke-width="0.1"/>
<text x="193" y="80" clip-path="url(#clipPath1)" stroke="none" stroke-width="0.1" xml:space="preserve">Invalid view - remove from diagram.</text>
<rect x="270" y="55" clip-path="url(#clipPath1)" fill="rgb(255,203,203)" width="40" height="40" stroke="none" stroke-width="0.1"/>
<rect x="270" y="55" clip-path="url(#clipPath1)" fill="none" width="39" height="39" stroke-width="0.1"/>
<text x="193" y="80" clip-path="url(#clipPath1)" stroke="none" stroke-width="0.1" xml:space="preserve">Invalid view - remove from diagram.</text>
<rect x="270" y="55" clip-path="url(#clipPath1)" fill="rgb(255,203,203)" width="40" height="40" stroke="none" stroke-width="0.1"/>
<rect x="270" y="55" clip-path="url(#clipPath1)" fill="none" width="39" height="39" stroke-width="0.1"/>
<text x="193" y="80" clip-path="url(#clipPath1)" stroke="none" stroke-width="0.1" xml:space="preserve">Invalid view - remove from diagram.</text>
<rect x="270" y="55" clip-path="url(#clipPath1)" fill="rgb(255,203,203)" width="40" height="40" stroke="none" stroke-width="0.1"/>
<rect x="270" y="55" clip-path="url(#clipPath1)" fill="none" width="39" height="39" stroke-width="0.1"/>
<text x="193" y="80" clip-path="url(#clipPath1)" stroke="none" stroke-width="0.1" xml:space="preserve">Invalid view - remove from diagram.</text>
<rect x="270" y="55" clip-path="url(#clipPath1)" fill="rgb(255,203,203)" width="40" height="40" stroke="none" stroke-width="0.1"/>
<rect x="270" y="55" clip-path="url(#clipPath1)" fill="none" width="39" height="39" stroke-width="0.1"/>
<text x="193" y="80" clip-path="url(#clipPath1)" stroke="none" stroke-width="0.1" xml:space="preserve">Invalid view - remove from diagram.</text>
<text x="672" y="233" clip-path="url(#clipPath11)" fill="red" stroke="none" stroke-width="0.1" xml:space="preserve">Invalid view - remove from diagram.</text>
<line clip-path="url(#clipPath3)" fill="none" x1="819" x2="819" y1="228" y2="175" stroke="red" stroke-width="1.1"/>
<rect x="270" y="55" clip-path="url(#clipPath1)" fill="rgb(255,203,203)" width="40" height="40" stroke="none" stroke-width="1.1"/>
<rect x="270" y="55" clip-path="url(#clipPath1)" fill="none" width="39" height="39" stroke-width="0.1"/>
<text x="193" y="80" clip-path="url(#clipPath1)" stroke="none" stroke-width="0.1" xml:space="preserve">Invalid view - remove from diagram.</text>
<rect x="270" y="55" clip-path="url(#clipPath1)" fill="rgb(255,203,203)" width="40" height="40" stroke="none" stroke-width="0.1"/>
<rect x="270" y="55" clip-path="url(#clipPath1)" fill="none" width="39" height="39" stroke-width="0.1"/>
<text x="193" y="80" clip-path="url(#clipPath1)" stroke="none" stroke-width="0.1" xml:space="preserve">Invalid view - remove from diagram.</text>
<text x="723" y="206" clip-path="url(#clipPath12)" fill="red" stroke="none" stroke-width="0.1" xml:space="preserve">Invalid view - remove from diagram.</text>
<line clip-path="url(#clipPath3)" fill="none" x1="842" x2="842" y1="228" y2="279" stroke="red" stroke-width="1.1"/>
<line clip-path="url(#clipPath3)" fill="none" x1="842" x2="900" y1="279" y2="279" stroke="red" stroke-width="1.1"/>
<line clip-path="url(#clipPath3)" fill="none" x1="900" x2="900" y1="279" y2="241" stroke="red" stroke-width="1.1"/>
<rect x="270" y="55" clip-path="url(#clipPath1)" fill="rgb(255,203,203)" width="40" height="40" stroke="none" stroke-width="1.1"/>
<rect x="270" y="55" clip-path="url(#clipPath1)" fill="none" width="39" height="39" stroke-width="0.1"/>
<text x="193" y="80" clip-path="url(#clipPath1)" stroke="none" stroke-width="0.1" xml:space="preserve">Invalid view - remove from diagram.</text>
<rect x="270" y="55" clip-path="url(#clipPath1)" fill="rgb(255,203,203)" width="40" height="40" stroke="none" stroke-width="0.1"/>
<rect x="270" y="55" clip-path="url(#clipPath1)" fill="none" width="39" height="39" stroke-width="0.1"/>
<text x="193" y="80" clip-path="url(#clipPath1)" stroke="none" stroke-width="0.1" xml:space="preserve">Invalid view - remove from diagram.</text>
<text x="769" y="284" clip-path="url(#clipPath13)" fill="red" stroke="none" stroke-width="0.1" xml:space="preserve">Invalid view - remove from diagram.</text>
<line clip-path="url(#clipPath3)" fill="none" x1="768" x2="768" y1="228" y2="933" stroke="red" stroke-width="1.1"/>
<line clip-path="url(#clipPath3)" fill="none" x1="768" x2="834" y1="933" y2="933" stroke="red" stroke-width="1.1"/>
<line clip-path="url(#clipPath3)" fill="none" x1="834" x2="834" y1="933" y2="929" stroke="red" stroke-width="1.1"/>
<line clip-path="url(#clipPath3)" fill="none" x1="834" x2="1388" y1="929" y2="929" stroke="red" stroke-width="1.1"/>
<line clip-path="url(#clipPath3)" fill="none" x1="1388" x2="1388" y1="929" y2="233" stroke="red" stroke-width="1.1"/>
<line clip-path="url(#clipPath3)" fill="none" x1="1388" x2="1184" y1="233" y2="233" stroke="red" stroke-width="1.1"/>
<rect x="270" y="55" clip-path="url(#clipPath1)" fill="rgb(255,203,203)" width="40" height="40" stroke="none" stroke-width="1.1"/>
<rect x="270" y="55" clip-path="url(#clipPath1)" fill="none" width="39" height="39" stroke-width="0.1"/>
<text x="193" y="80" clip-path="url(#clipPath1)" stroke="none" stroke-width="0.1" xml:space="preserve">Invalid view - remove from diagram.</text>
<rect x="270" y="55" clip-path="url(#clipPath1)" fill="rgb(255,203,203)" width="40" height="40" stroke="none" stroke-width="0.1"/>
<rect x="270" y="55" clip-path="url(#clipPath1)" fill="none" width="39" height="39" stroke-width="0.1"/>
<text x="193" y="80" clip-path="url(#clipPath1)" stroke="none" stroke-width="0.1" xml:space="preserve">Invalid view - remove from diagram.</text>
<text x="1078" y="934" clip-path="url(#clipPath14)" fill="red" stroke="none" stroke-width="0.1" xml:space="preserve">Invalid view - remove from diagram.</text>
<line clip-path="url(#clipPath3)" fill="none" x1="470" x2="559" y1="34" y2="95" stroke="red" stroke-width="1.1"/>
<text x="419" y="70" clip-path="url(#clipPath15)" fill="red" stroke="none" stroke-width="1.1" xml:space="preserve">Invalid view - remove from diagram.</text>
<line clip-path="url(#clipPath3)" fill="none" x1="966" x2="911" y1="241" y2="350" stroke="red" stroke-width="1.1"/>
<rect x="270" y="55" clip-path="url(#clipPath1)" fill="rgb(255,203,203)" width="40" height="40" stroke="none" stroke-width="1.1"/>
<rect x="270" y="55" clip-path="url(#clipPath1)" fill="none" width="39" height="39" stroke-width="0.1"/>
<text x="193" y="80" clip-path="url(#clipPath1)" stroke="none" stroke-width="0.1" xml:space="preserve">Invalid view - remove from diagram.</text>
<rect x="270" y="55" clip-path="url(#clipPath1)" fill="rgb(255,203,203)" width="40" height="40" stroke="none" stroke-width="0.1"/>
<rect x="270" y="55" clip-path="url(#clipPath1)" fill="none" width="39" height="39" stroke-width="0.1"/>
<text x="193" y="80" clip-path="url(#clipPath1)" stroke="none" stroke-width="0.1" xml:space="preserve">Invalid view - remove from diagram.</text>
<rect x="270" y="55" clip-path="url(#clipPath1)" fill="rgb(255,203,203)" width="40" height="40" stroke="none" stroke-width="0.1"/>
<rect x="270" y="55" clip-path="url(#clipPath1)" fill="none" width="39" height="39" stroke-width="0.1"/>
<text x="193" y="80" clip-path="url(#clipPath1)" stroke="none" stroke-width="0.1" xml:space="preserve">Invalid view - remove from diagram.</text>
<rect x="270" y="55" clip-path="url(#clipPath1)" fill="rgb(255,203,203)" width="40" height="40" stroke="none" stroke-width="0.1"/>
<rect x="270" y="55" clip-path="url(#clipPath1)" fill="none" width="39" height="39" stroke-width="0.1"/>
<text x="193" y="80" clip-path="url(#clipPath1)" stroke="none" stroke-width="0.1" xml:space="preserve">Invalid view - remove from diagram.</text>
<rect x="270" y="55" clip-path="url(#clipPath1)" fill="rgb(255,203,203)" width="40" height="40" stroke="none" stroke-width="0.1"/>
<rect x="270" y="55" clip-path="url(#clipPath1)" fill="none" width="39" height="39" stroke-width="0.1"/>
<text x="193" y="80" clip-path="url(#clipPath1)" stroke="none" stroke-width="0.1" xml:space="preserve">Invalid view - remove from diagram.</text>
<text x="843" y="300" clip-path="url(#clipPath16)" fill="red" stroke="none" stroke-width="0.1" xml:space="preserve">Invalid view - remove from diagram.</text>
<line clip-path="url(#clipPath3)" fill="none" x1="1033" x2="1095" y1="567" y2="567" stroke="red" stroke-width="1.1"/>
<line clip-path="url(#clipPath3)" fill="none" x1="1095" x2="1095" y1="567" y2="649" stroke="red" stroke-width="1.1"/>
<line clip-path="url(#clipPath3)" fill="none" x1="1095" x2="1013" y1="649" y2="649" stroke="red" stroke-width="1.1"/>
<line clip-path="url(#clipPath3)" fill="none" x1="1013" x2="1013" y1="649" y2="587" stroke="red" stroke-width="1.1"/>
<rect x="270" y="55" clip-path="url(#clipPath1)" fill="rgb(255,203,203)" width="40" height="40" stroke="none" stroke-width="1.1"/>
<rect x="270" y="55" clip-path="url(#clipPath1)" fill="none" width="39" height="39" stroke-width="0.1"/>
<text x="193" y="80" clip-path="url(#clipPath1)" stroke="none" stroke-width="0.1" xml:space="preserve">Invalid view - remove from diagram.</text>
<rect x="270" y="55" clip-path="url(#clipPath1)" fill="rgb(255,203,203)" width="40" height="40" stroke="none" stroke-width="0.1"/>
<rect x="270" y="55" clip-path="url(#clipPath1)" fill="none" width="39" height="39" stroke-width="0.1"/>
<text x="193" y="80" clip-path="url(#clipPath1)" stroke="none" stroke-width="0.1" xml:space="preserve">Invalid view - remove from diagram.</text>
<rect x="270" y="55" clip-path="url(#clipPath1)" fill="rgb(255,203,203)" width="40" height="40" stroke="none" stroke-width="0.1"/>
<rect x="270" y="55" clip-path="url(#clipPath1)" fill="none" width="39" height="39" stroke-width="0.1"/>
<text x="193" y="80" clip-path="url(#clipPath1)" stroke="none" stroke-width="0.1" xml:space="preserve">Invalid view - remove from diagram.</text>
<rect x="270" y="55" clip-path="url(#clipPath1)" fill="rgb(255,203,203)" width="40" height="40" stroke="none" stroke-width="0.1"/>
<rect x="270" y="55" clip-path="url(#clipPath1)" fill="none" width="39" height="39" stroke-width="0.1"/>
<text x="193" y="80" clip-path="url(#clipPath1)" stroke="none" stroke-width="0.1" xml:space="preserve">Invalid view - remove from diagram.</text>
<rect x="270" y="55" clip-path="url(#clipPath1)" fill="rgb(255,203,203)" width="40" height="40" stroke="none" stroke-width="0.1"/>
<rect x="270" y="55" clip-path="url(#clipPath1)" fill="none" width="39" height="39" stroke-width="0.1"/>
<text x="193" y="80" clip-path="url(#clipPath1)" stroke="none" stroke-width="0.1" xml:space="preserve">Invalid view - remove from diagram.</text>
<text x="999" y="654" clip-path="url(#clipPath17)" fill="red" stroke="none" stroke-width="0.1" xml:space="preserve">Invalid view - remove from diagram.</text>
<line clip-path="url(#clipPath3)" fill="none" x1="1057" x2="1011" y1="392" y2="547" stroke="red" stroke-width="1.1"/>
<rect x="270" y="55" clip-path="url(#clipPath1)" fill="rgb(255,203,203)" width="40" height="40" stroke="none" stroke-width="1.1"/>
<rect x="270" y="55" clip-path="url(#clipPath1)" fill="none" width="39" height="39" stroke-width="0.1"/>
<text x="193" y="80" clip-path="url(#clipPath1)" stroke="none" stroke-width="0.1" xml:space="preserve">Invalid view - remove from diagram.</text>
<rect x="270" y="55" clip-path="url(#clipPath1)" fill="rgb(255,203,203)" width="40" height="40" stroke="none" stroke-width="0.1"/>
<rect x="270" y="55" clip-path="url(#clipPath1)" fill="none" width="39" height="39" stroke-width="0.1"/>
<text x="193" y="80" clip-path="url(#clipPath1)" stroke="none" stroke-width="0.1" xml:space="preserve">Invalid view - remove from diagram.</text>
<rect x="270" y="55" clip-path="url(#clipPath1)" fill="rgb(255,203,203)" width="40" height="40" stroke="none" stroke-width="0.1"/>
<rect x="270" y="55" clip-path="url(#clipPath1)" fill="none" width="39" height="39" stroke-width="0.1"/>
<text x="193" y="80" clip-path="url(#clipPath1)" stroke="none" stroke-width="0.1" xml:space="preserve">Invalid view - remove from diagram.</text>
<rect x="270" y="55" clip-path="url(#clipPath1)" fill="rgb(255,203,203)" width="40" height="40" stroke="none" stroke-width="0.1"/>
<rect x="270" y="55" clip-path="url(#clipPath1)" fill="none" width="39" height="39" stroke-width="0.1"/>
<text x="193" y="80" clip-path="url(#clipPath1)" stroke="none" stroke-width="0.1" xml:space="preserve">Invalid view - remove from diagram.</text>
<rect x="270" y="55" clip-path="url(#clipPath1)" fill="rgb(255,203,203)" width="40" height="40" stroke="none" stroke-width="0.1"/>
<rect x="270" y="55" clip-path="url(#clipPath1)" fill="none" width="39" height="39" stroke-width="0.1"/>
<text x="193" y="80" clip-path="url(#clipPath1)" stroke="none" stroke-width="0.1" xml:space="preserve">Invalid view - remove from diagram.</text>
<text x="938" y="475" clip-path="url(#clipPath18)" fill="red" stroke="none" stroke-width="0.1" xml:space="preserve">Invalid view - remove from diagram.</text>
<line clip-path="url(#clipPath3)" fill="none" x1="1078" x2="1256" y1="372" y2="372" stroke="red" stroke-width="1.1"/>
<line clip-path="url(#clipPath3)" fill="none" x1="1256" x2="1256" y1="372" y2="332" stroke="red" stroke-width="1.1"/>
<line clip-path="url(#clipPath3)" fill="none" x1="1256" x2="1266" y1="332" y2="332" stroke="red" stroke-width="1.1"/>
<line clip-path="url(#clipPath3)" fill="none" x1="1266" x2="1266" y1="332" y2="392" stroke="red" stroke-width="1.1"/>
<line clip-path="url(#clipPath3)" fill="none" x1="1266" x2="1078" y1="392" y2="392" stroke="red" stroke-width="1.1"/>
<rect x="270" y="55" clip-path="url(#clipPath1)" fill="rgb(255,203,203)" width="40" height="40" stroke="none" stroke-width="1.1"/>
<rect x="270" y="55" clip-path="url(#clipPath1)" fill="none" width="39" height="39" stroke-width="0.1"/>
<text x="193" y="80" clip-path="url(#clipPath1)" stroke="none" stroke-width="0.1" xml:space="preserve">Invalid view - remove from diagram.</text>
<rect x="270" y="55" clip-path="url(#clipPath1)" fill="rgb(255,203,203)" width="40" height="40" stroke="none" stroke-width="0.1"/>
<rect x="270" y="55" clip-path="url(#clipPath1)" fill="none" width="39" height="39" stroke-width="0.1"/>
<text x="193" y="80" clip-path="url(#clipPath1)" stroke="none" stroke-width="0.1" xml:space="preserve">Invalid view - remove from diagram.</text>
<rect x="270" y="55" clip-path="url(#clipPath1)" fill="rgb(255,203,203)" width="40" height="40" stroke="none" stroke-width="0.1"/>
<rect x="270" y="55" clip-path="url(#clipPath1)" fill="none" width="39" height="39" stroke-width="0.1"/>
<text x="193" y="80" clip-path="url(#clipPath1)" stroke="none" stroke-width="0.1" xml:space="preserve">Invalid view - remove from diagram.</text>
<rect x="270" y="55" clip-path="url(#clipPath1)" fill="rgb(255,203,203)" width="40" height="40" stroke="none" stroke-width="0.1"/>
<rect x="270" y="55" clip-path="url(#clipPath1)" fill="none" width="39" height="39" stroke-width="0.1"/>
<text x="193" y="80" clip-path="url(#clipPath1)" stroke="none" stroke-width="0.1" xml:space="preserve">Invalid view - remove from diagram.</text>
<rect x="270" y="55" clip-path="url(#clipPath1)" fill="rgb(255,203,203)" width="40" height="40" stroke="none" stroke-width="0.1"/>
<rect x="270" y="55" clip-path="url(#clipPath1)" fill="none" width="39" height="39" stroke-width="0.1"/>
<text x="193" y="80" clip-path="url(#clipPath1)" stroke="none" stroke-width="0.1" xml:space="preserve">Invalid view - remove from diagram.</text>
<text x="1170" y="347" clip-path="url(#clipPath19)" fill="red" stroke="none" stroke-width="0.1" xml:space="preserve">Invalid view - remove from diagram.</text>
<line clip-path="url(#clipPath3)" fill="none" x1="1266" x2="1266" y1="390" y2="393" stroke="red" stroke-width="1.1"/>
<line clip-path="url(#clipPath3)" fill="none" x1="1266" x2="1274" y1="393" y2="393" stroke="red" stroke-width="1.1"/>
<line clip-path="url(#clipPath3)" fill="none" x1="1274" x2="1274" y1="393" y2="361" stroke="red" stroke-width="1.1"/>
<line clip-path="url(#clipPath3)" fill="none" x1="1274" x2="1240" y1="361" y2="361" stroke="red" stroke-width="1.1"/>
<line clip-path="url(#clipPath3)" fill="none" x1="1240" x2="1240" y1="361" y2="608" stroke="red" stroke-width="1.1"/>
<line clip-path="url(#clipPath3)" fill="none" x1="1240" x2="1095" y1="608" y2="608" stroke="red" stroke-width="1.1"/>
<rect x="270" y="55" clip-path="url(#clipPath1)" fill="rgb(255,203,203)" width="40" height="40" stroke="none" stroke-width="1.1"/>
<rect x="270" y="55" clip-path="url(#clipPath1)" fill="none" width="39" height="39" stroke-width="0.1"/>
<text x="193" y="80" clip-path="url(#clipPath1)" stroke="none" stroke-width="0.1" xml:space="preserve">Invalid view - remove from diagram.</text>
<rect x="270" y="55" clip-path="url(#clipPath1)" fill="rgb(255,203,203)" width="40" height="40" stroke="none" stroke-width="0.1"/>
<rect x="270" y="55" clip-path="url(#clipPath1)" fill="none" width="39" height="39" stroke-width="0.1"/>
<text x="193" y="80" clip-path="url(#clipPath1)" stroke="none" stroke-width="0.1" xml:space="preserve">Invalid view - remove from diagram.</text>
<text x="1144" y="524" clip-path="url(#clipPath20)" fill="red" stroke="none" stroke-width="0.1" xml:space="preserve">Invalid view - remove from diagram.</text>
<line clip-path="url(#clipPath3)" fill="none" x1="1039" x2="1039" y1="241" y2="352" stroke="red" stroke-width="1.1"/>
<rect x="270" y="55" clip-path="url(#clipPath1)" fill="rgb(255,203,203)" width="40" height="40" stroke="none" stroke-width="1.1"/>
<rect x="270" y="55" clip-path="url(#clipPath1)" fill="none" width="39" height="39" stroke-width="0.1"/>
<text x="193" y="80" clip-path="url(#clipPath1)" stroke="none" stroke-width="0.1" xml:space="preserve">Invalid view - remove from diagram.</text>
<rect x="270" y="55" clip-path="url(#clipPath1)" fill="rgb(255,203,203)" width="40" height="40" stroke="none" stroke-width="0.1"/>
<rect x="270" y="55" clip-path="url(#clipPath1)" fill="none" width="39" height="39" stroke-width="0.1"/>
<text x="193" y="80" clip-path="url(#clipPath1)" stroke="none" stroke-width="0.1" xml:space="preserve">Invalid view - remove from diagram.</text>
<text x="943" y="301" clip-path="url(#clipPath21)" fill="red" stroke="none" stroke-width="0.1" xml:space="preserve">Invalid view - remove from diagram.</text>
<line clip-path="url(#clipPath3)" fill="none" x1="1184" x2="1251" y1="281" y2="281" stroke="red" stroke-width="1.1"/>
<line clip-path="url(#clipPath3)" fill="none" x1="1251" x2="1251" y1="281" y2="255" stroke="red" stroke-width="1.1"/>
<line clip-path="url(#clipPath3)" fill="none" x1="1251" x2="1172" y1="255" y2="255" stroke="red" stroke-width="1.1"/>
<line clip-path="url(#clipPath3)" fill="none" x1="1172" x2="1172" y1="255" y2="372" stroke="red" stroke-width="1.1"/>
<rect x="270" y="55" clip-path="url(#clipPath1)" fill="rgb(255,203,203)" width="40" height="40" stroke="none" stroke-width="1.1"/>
<rect x="270" y="55" clip-path="url(#clipPath1)" fill="none" width="39" height="39" stroke-width="0.1"/>
<text x="193" y="80" clip-path="url(#clipPath1)" stroke="none" stroke-width="0.1" xml:space="preserve">Invalid view - remove from diagram.</text>
<rect x="270" y="55" clip-path="url(#clipPath1)" fill="rgb(255,203,203)" width="40" height="40" stroke="none" stroke-width="0.1"/>
<rect x="270" y="55" clip-path="url(#clipPath1)" fill="none" width="39" height="39" stroke-width="0.1"/>
<text x="193" y="80" clip-path="url(#clipPath1)" stroke="none" stroke-width="0.1" xml:space="preserve">Invalid view - remove from diagram.</text>
<text x="1103" y="260" clip-path="url(#clipPath22)" fill="red" stroke="none" stroke-width="0.1" xml:space="preserve">Invalid view - remove from diagram.</text>
<line clip-path="url(#clipPath3)" fill="none" x1="996" x2="914" y1="587" y2="794" stroke="red" stroke-width="1.1"/>
<rect x="270" y="55" clip-path="url(#clipPath1)" fill="rgb(255,203,203)" width="40" height="40" stroke="none" stroke-width="1.1"/>
<rect x="270" y="55" clip-path="url(#clipPath1)" fill="none" width="39" height="39" stroke-width="0.1"/>
<text x="193" y="80" clip-path="url(#clipPath1)" stroke="none" stroke-width="0.1" xml:space="preserve">Invalid view - remove from diagram.</text>
<rect x="270" y="55" clip-path="url(#clipPath1)" fill="rgb(255,203,203)" width="40" height="40" stroke="none" stroke-width="0.1"/>
<rect x="270" y="55" clip-path="url(#clipPath1)" fill="none" width="39" height="39" stroke-width="0.1"/>
<text x="193" y="80" clip-path="url(#clipPath1)" stroke="none" stroke-width="0.1" xml:space="preserve">Invalid view - remove from diagram.</text>
<rect x="270" y="55" clip-path="url(#clipPath1)" fill="rgb(255,203,203)" width="40" height="40" stroke="none" stroke-width="0.1"/>
<rect x="270" y="55" clip-path="url(#clipPath1)" fill="none" width="39" height="39" stroke-width="0.1"/>
<text x="193" y="80" clip-path="url(#clipPath1)" stroke="none" stroke-width="0.1" xml:space="preserve">Invalid view - remove from diagram.</text>
<rect x="270" y="55" clip-path="url(#clipPath1)" fill="rgb(255,203,203)" width="40" height="40" stroke="none" stroke-width="0.1"/>
<rect x="270" y="55" clip-path="url(#clipPath1)" fill="none" width="39" height="39" stroke-width="0.1"/>
<text x="193" y="80" clip-path="url(#clipPath1)" stroke="none" stroke-width="0.1" xml:space="preserve">Invalid view - remove from diagram.</text>
<rect x="270" y="55" clip-path="url(#clipPath1)" fill="rgb(255,203,203)" width="40" height="40" stroke="none" stroke-width="0.1"/>
<rect x="270" y="55" clip-path="url(#clipPath1)" fill="none" width="39" height="39" stroke-width="0.1"/>
<text x="193" y="80" clip-path="url(#clipPath1)" stroke="none" stroke-width="0.1" xml:space="preserve">Invalid view - remove from diagram.</text>
<text x="859" y="696" clip-path="url(#clipPath23)" fill="red" stroke="none" stroke-width="0.1" xml:space="preserve">Invalid view - remove from diagram.</text>
<line clip-path="url(#clipPath3)" fill="none" x1="891" x2="891" y1="390" y2="794" stroke="red" stroke-width="1.1"/>
<rect x="270" y="55" clip-path="url(#clipPath1)" fill="rgb(255,203,203)" width="40" height="40" stroke="none" stroke-width="1.1"/>
<rect x="270" y="55" clip-path="url(#clipPath1)" fill="none" width="39" height="39" stroke-width="0.1"/>
<text x="193" y="80" clip-path="url(#clipPath1)" stroke="none" stroke-width="0.1" xml:space="preserve">Invalid view - remove from diagram.</text>
<rect x="270" y="55" clip-path="url(#clipPath1)" fill="rgb(255,203,203)" width="40" height="40" stroke="none" stroke-width="0.1"/>
<rect x="270" y="55" clip-path="url(#clipPath1)" fill="none" width="39" height="39" stroke-width="0.1"/>
<text x="193" y="80" clip-path="url(#clipPath1)" stroke="none" stroke-width="0.1" xml:space="preserve">Invalid view - remove from diagram.</text>
<text x="795" y="597" clip-path="url(#clipPath24)" fill="red" stroke="none" stroke-width="0.1" xml:space="preserve">Invalid view - remove from diagram.</text>
</g>
</g>
<rect x="483" y="141" fill-opacity="0" width="153" id="Component" height="100" stroke-opacity="0"/>
<rect x="900" y="140" fill-opacity="0" width="209" id="Port" height="101" stroke-opacity="0"/>
<rect x="0" y="0" fill-opacity="0" width="0" id="Role" height="0" stroke-opacity="0"/>
<rect x="10" y="140" fill-opacity="0" width="151" id="System" height="40" stroke-opacity="0"/>
<rect x="485" y="390" fill-opacity="0" width="151" id="AttributePackage" height="40" stroke-opacity="0"/>
<rect x="330" y="374" fill-opacity="0" width="134" height="40" stroke-opacity="0"/>
<rect x="213" y="10" fill-opacity="0" width="257" height="40" stroke-opacity="0"/>
<rect x="884" y="350" fill-opacity="0" width="40" id="PortRoleProperties" height="40" stroke-opacity="0"/>
<rect x="993" y="547" fill-opacity="0" width="40" id="IndivisibleFlowPort" height="40" stroke-opacity="0"/>
<rect x="0" y="0" fill-opacity="0" width="0" id="role" height="0" stroke-opacity="0"/>
<rect x="1038" y="352" fill-opacity="0" width="40" id="MultiFlowPort" height="40" stroke-opacity="0"/>
<rect x="886" y="794" fill-opacity="0" width="40" id="IndivisiblePortRoleProperties" height="40" stroke-opacity="0"/>
</svg>
