<?xml version="1.0" encoding="UTF-8"?><svg xmlns="http://www.w3.org/2000/svg" xmlns:xlink="http://www.w3.org/1999/xlink" stroke-dasharray="none" shape-rendering="auto" font-family="'Dialog'" width="1108" text-rendering="auto" fill-opacity="1" contentScriptType="text/ecmascript" color-interpolation="auto" color-rendering="auto" preserveAspectRatio="xMidYMid meet" font-size="12" viewBox="0 0 1108 764" fill="black" stroke="black" image-rendering="auto" stroke-miterlimit="10" zoomAndPan="magnify" version="1.0" stroke-linecap="square" stroke-linejoin="miter" contentStyleType="text/css" font-style="normal" height="764" stroke-width="1" stroke-dashoffset="0" font-weight="normal" stroke-opacity="1">
<!--Generated by the Batik Graphics2D SVG Generator-->
<defs id="genericDefs"/>
<g>
<defs id="defs1">
<clipPath clipPathUnits="userSpaceOnUse" id="clipPath1">
<path d="M892 253 L1086 253 L1086 271 L892 271 L892 253 Z"/>
</clipPath>
<clipPath clipPathUnits="userSpaceOnUse" id="clipPath2">
<path d="M-1 -1 L1109 -1 L1109 765 L-1 765 L-1 -1 Z"/>
</clipPath>
<clipPath clipPathUnits="userSpaceOnUse" id="clipPath3">
<path d="M531 22 L573 22 L573 64 L531 64 L531 22 Z"/>
</clipPath>
<clipPath clipPathUnits="userSpaceOnUse" id="clipPath4">
<path d="M864 460 L1058 460 L1058 478 L864 478 L864 460 Z"/>
</clipPath>
<clipPath clipPathUnits="userSpaceOnUse" id="clipPath5">
<path d="M162 582 L356 582 L356 600 L162 600 L162 582 Z"/>
</clipPath>
<clipPath clipPathUnits="userSpaceOnUse" id="clipPath6">
<path d="M579 604 L773 604 L773 622 L579 622 L579 604 Z"/>
</clipPath>
<clipPath clipPathUnits="userSpaceOnUse" id="clipPath7">
<path d="M557 591 L751 591 L751 609 L557 609 L557 591 Z"/>
</clipPath>
<clipPath clipPathUnits="userSpaceOnUse" id="clipPath8">
<path d="M113 596 L307 596 L307 614 L113 614 L113 596 Z"/>
</clipPath>
<clipPath clipPathUnits="userSpaceOnUse" id="clipPath9">
<path d="M847 451 L1041 451 L1041 469 L847 469 L847 451 Z"/>
</clipPath>
<clipPath clipPathUnits="userSpaceOnUse" id="clipPath10">
<path d="M113 597 L307 597 L307 615 L113 615 L113 597 Z"/>
</clipPath>
<clipPath clipPathUnits="userSpaceOnUse" id="clipPath11">
<path d="M113 653 L307 653 L307 671 L113 671 L113 653 Z"/>
</clipPath>
</defs>
<g fill="rgb(255,203,203)" font-family="'Segoe UI'" stroke-linejoin="round" stroke="rgb(255,203,203)" stroke-width="0" stroke-miterlimit="0">
<rect width="374" x="721" height="40" y="87" stroke="none"/>
</g>
<g stroke-linecap="butt" font-family="'Segoe UI'">
<rect fill="none" width="373" x="721" height="39" y="87"/>
<text xml:space="preserve" x="811" y="112" stroke="none">Invalid view - remove from diagram.</text>
<rect x="722" y="259" fill="rgb(255,203,203)" width="40" height="40" stroke="none"/>
<rect x="722" y="259" fill="none" width="39" height="39" stroke-width="0.1"/>
<text xml:space="preserve" x="645" stroke-width="0.1" y="284" stroke="none">Invalid view - remove from diagram.</text>
<rect x="129" y="383" fill="rgb(255,203,203)" width="409" height="40" stroke="none" stroke-width="0.1"/>
<rect x="129" y="383" fill="none" width="408" height="39" stroke-width="0.1"/>
<text xml:space="preserve" x="237" stroke-width="0.1" y="408" stroke="none">Invalid view - remove from diagram.</text>
<rect x="205" y="94" fill="rgb(255,203,203)" width="40" height="40" stroke="none" stroke-width="0.1"/>
<rect x="205" y="94" fill="none" width="39" height="39" stroke-width="0.1"/>
<text xml:space="preserve" x="128" stroke-width="0.1" y="119" stroke="none">Invalid view - remove from diagram.</text>
<rect x="603" y="547" fill="rgb(255,203,203)" width="164" height="40" stroke="none" stroke-width="0.1"/>
<rect x="603" y="547" fill="none" width="163" height="39" stroke-width="0.1"/>
<text xml:space="preserve" x="588" stroke-width="0.1" y="572" stroke="none">Invalid view - remove from diagram.</text>
<rect x="370" y="582" fill="rgb(255,203,203)" width="40" height="40" stroke="none" stroke-width="0.1"/>
<rect x="370" y="582" fill="none" width="39" height="39" stroke-width="0.1"/>
<text xml:space="preserve" x="293" stroke-width="0.1" y="607" stroke="none">Invalid view - remove from diagram.</text>
<rect x="683" y="432" fill="rgb(255,203,203)" width="226" height="40" stroke="none" stroke-width="0.1"/>
<rect x="683" y="432" fill="none" width="225" height="39" stroke-width="0.1"/>
<text xml:space="preserve" x="699" stroke-width="0.1" y="457" stroke="none">Invalid view - remove from diagram.</text>
<rect x="941" y="587" fill="rgb(255,203,203)" width="40" height="40" stroke="none" stroke-width="0.1"/>
<rect x="941" y="587" fill="none" width="39" height="39" stroke-width="0.1"/>
<text xml:space="preserve" x="864" stroke-width="0.1" y="612" stroke="none">Invalid view - remove from diagram.</text>
<rect x="942" y="312" fill="rgb(255,203,203)" width="40" height="40" stroke="none" stroke-width="0.1"/>
<rect x="942" y="312" fill="none" width="39" height="39" stroke-width="0.1"/>
<text xml:space="preserve" x="865" stroke-width="0.1" y="337" stroke="none">Invalid view - remove from diagram.</text>
<rect x="10" y="590" fill="rgb(255,203,203)" width="40" height="40" stroke="none" stroke-width="0.1"/>
<rect x="10" y="590" fill="none" width="39" height="39" stroke-width="0.1"/>
<text xml:space="preserve" x="-67" stroke-width="0.1" y="615" stroke="none">Invalid view - remove from diagram.</text>
<rect x="191" y="537" fill="rgb(255,203,203)" width="40" height="40" stroke="none" stroke-width="0.1"/>
<rect x="191" y="537" fill="none" width="39" height="39" stroke-width="0.1"/>
<text xml:space="preserve" x="114" stroke-width="0.1" y="562" stroke="none">Invalid view - remove from diagram.</text>
<rect x="138" y="714" fill="rgb(255,203,203)" width="190" height="40" stroke="none" stroke-width="0.1"/>
<rect x="138" y="714" fill="none" width="189" height="39" stroke-width="0.1"/>
<text xml:space="preserve" x="136" stroke-width="0.1" y="739" stroke="none">Invalid view - remove from diagram.</text>
<line fill="none" x1="1081" x2="1081" y1="127" y2="262" stroke="red" stroke-width="1.1"/>
<line fill="none" x1="1081" x2="762" y1="262" y2="262" stroke="red" stroke-width="1.1"/>
<text x="893" y="267" clip-path="url(#clipPath1)" fill="red" stroke="none" stroke-width="1.1" xml:space="preserve">Invalid view - remove from diagram.</text>
<line clip-path="url(#clipPath2)" fill="none" x1="979" x2="979" y1="352" y2="469" stroke="red" stroke-width="1.1"/>
<line clip-path="url(#clipPath2)" fill="none" x1="979" x2="944" y1="469" y2="469" stroke="red" stroke-width="1.1"/>
<line clip-path="url(#clipPath2)" fill="none" x1="944" x2="944" y1="469" y2="587" stroke="red" stroke-width="1.1"/>
<rect x="532" y="23" clip-path="url(#clipPath3)" fill="rgb(255,203,203)" width="40" height="40" stroke="none" stroke-width="1.1"/>
<rect x="532" y="23" clip-path="url(#clipPath3)" fill="none" width="39" height="39" stroke-width="0.1"/>
<text x="455" y="48" clip-path="url(#clipPath3)" stroke="none" stroke-width="0.1" xml:space="preserve">Invalid view - remove from diagram.</text>
<rect x="532" y="23" clip-path="url(#clipPath3)" fill="rgb(255,203,203)" width="40" height="40" stroke="none" stroke-width="0.1"/>
<rect x="532" y="23" clip-path="url(#clipPath3)" fill="none" width="39" height="39" stroke-width="0.1"/>
<text x="455" y="48" clip-path="url(#clipPath3)" stroke="none" stroke-width="0.1" xml:space="preserve">Invalid view - remove from diagram.</text>
<rect x="532" y="23" clip-path="url(#clipPath3)" fill="rgb(255,203,203)" width="40" height="40" stroke="none" stroke-width="0.1"/>
<rect x="532" y="23" clip-path="url(#clipPath3)" fill="none" width="39" height="39" stroke-width="0.1"/>
<text x="455" y="48" clip-path="url(#clipPath3)" stroke="none" stroke-width="0.1" xml:space="preserve">Invalid view - remove from diagram.</text>
<rect x="532" y="23" clip-path="url(#clipPath3)" fill="rgb(255,203,203)" width="40" height="40" stroke="none" stroke-width="0.1"/>
<rect x="532" y="23" clip-path="url(#clipPath3)" fill="none" width="39" height="39" stroke-width="0.1"/>
<text x="455" y="48" clip-path="url(#clipPath3)" stroke="none" stroke-width="0.1" xml:space="preserve">Invalid view - remove from diagram.</text>
<rect x="532" y="23" clip-path="url(#clipPath3)" fill="rgb(255,203,203)" width="40" height="40" stroke="none" stroke-width="0.1"/>
<rect x="532" y="23" clip-path="url(#clipPath3)" fill="none" width="39" height="39" stroke-width="0.1"/>
<text x="455" y="48" clip-path="url(#clipPath3)" stroke="none" stroke-width="0.1" xml:space="preserve">Invalid view - remove from diagram.</text>
<text x="865" y="474" clip-path="url(#clipPath4)" fill="red" stroke="none" stroke-width="0.1" xml:space="preserve">Invalid view - remove from diagram.</text>
<line clip-path="url(#clipPath2)" fill="none" x1="223" x2="295" y1="577" y2="605" stroke="red" stroke-width="1.1"/>
<text x="163" y="596" clip-path="url(#clipPath5)" fill="red" stroke="none" stroke-width="1.1" xml:space="preserve">Invalid view - remove from diagram.</text>
<line clip-path="url(#clipPath2)" fill="none" x1="410" x2="941" y1="613" y2="613" stroke="red" stroke-width="1.1"/>
<rect x="532" y="23" clip-path="url(#clipPath3)" fill="rgb(255,203,203)" width="40" height="40" stroke="none" stroke-width="1.1"/>
<rect x="532" y="23" clip-path="url(#clipPath3)" fill="none" width="39" height="39" stroke-width="0.1"/>
<text x="455" y="48" clip-path="url(#clipPath3)" stroke="none" stroke-width="0.1" xml:space="preserve">Invalid view - remove from diagram.</text>
<rect x="532" y="23" clip-path="url(#clipPath3)" fill="rgb(255,203,203)" width="40" height="40" stroke="none" stroke-width="0.1"/>
<rect x="532" y="23" clip-path="url(#clipPath3)" fill="none" width="39" height="39" stroke-width="0.1"/>
<text x="455" y="48" clip-path="url(#clipPath3)" stroke="none" stroke-width="0.1" xml:space="preserve">Invalid view - remove from diagram.</text>
<rect x="532" y="23" clip-path="url(#clipPath3)" fill="rgb(255,203,203)" width="40" height="40" stroke="none" stroke-width="0.1"/>
<rect x="532" y="23" clip-path="url(#clipPath3)" fill="none" width="39" height="39" stroke-width="0.1"/>
<text x="455" y="48" clip-path="url(#clipPath3)" stroke="none" stroke-width="0.1" xml:space="preserve">Invalid view - remove from diagram.</text>
<rect x="532" y="23" clip-path="url(#clipPath3)" fill="rgb(255,203,203)" width="40" height="40" stroke="none" stroke-width="0.1"/>
<rect x="532" y="23" clip-path="url(#clipPath3)" fill="none" width="39" height="39" stroke-width="0.1"/>
<text x="455" y="48" clip-path="url(#clipPath3)" stroke="none" stroke-width="0.1" xml:space="preserve">Invalid view - remove from diagram.</text>
<rect x="532" y="23" clip-path="url(#clipPath3)" fill="rgb(255,203,203)" width="40" height="40" stroke="none" stroke-width="0.1"/>
<rect x="532" y="23" clip-path="url(#clipPath3)" fill="none" width="39" height="39" stroke-width="0.1"/>
<text x="455" y="48" clip-path="url(#clipPath3)" stroke="none" stroke-width="0.1" xml:space="preserve">Invalid view - remove from diagram.</text>
<text x="580" y="618" clip-path="url(#clipPath6)" fill="red" stroke="none" stroke-width="0.1" xml:space="preserve">Invalid view - remove from diagram.</text>
<line clip-path="url(#clipPath2)" fill="none" x1="622" x2="686" y1="613" y2="587" stroke="red" stroke-width="1.1"/>
<rect x="532" y="23" clip-path="url(#clipPath3)" fill="rgb(255,203,203)" width="40" height="40" stroke="none" stroke-width="1.1"/>
<rect x="532" y="23" clip-path="url(#clipPath3)" fill="none" width="39" height="39" stroke-width="0.1"/>
<text x="455" y="48" clip-path="url(#clipPath3)" stroke="none" stroke-width="0.1" xml:space="preserve">Invalid view - remove from diagram.</text>
<rect x="532" y="23" clip-path="url(#clipPath3)" fill="rgb(255,203,203)" width="40" height="40" stroke="none" stroke-width="0.1"/>
<rect x="532" y="23" clip-path="url(#clipPath3)" fill="none" width="39" height="39" stroke-width="0.1"/>
<text x="455" y="48" clip-path="url(#clipPath3)" stroke="none" stroke-width="0.1" xml:space="preserve">Invalid view - remove from diagram.</text>
<text x="558" y="605" clip-path="url(#clipPath7)" fill="red" stroke="none" stroke-width="0.1" xml:space="preserve">Invalid view - remove from diagram.</text>
<line clip-path="url(#clipPath2)" fill="none" x1="370" x2="50" y1="605" y2="605" stroke="red" stroke-width="1.1"/>
<rect x="532" y="23" clip-path="url(#clipPath3)" fill="rgb(255,203,203)" width="40" height="40" stroke="none" stroke-width="1.1"/>
<rect x="532" y="23" clip-path="url(#clipPath3)" fill="none" width="39" height="39" stroke-width="0.1"/>
<text x="455" y="48" clip-path="url(#clipPath3)" stroke="none" stroke-width="0.1" xml:space="preserve">Invalid view - remove from diagram.</text>
<rect x="532" y="23" clip-path="url(#clipPath3)" fill="rgb(255,203,203)" width="40" height="40" stroke="none" stroke-width="0.1"/>
<rect x="532" y="23" clip-path="url(#clipPath3)" fill="none" width="39" height="39" stroke-width="0.1"/>
<text x="455" y="48" clip-path="url(#clipPath3)" stroke="none" stroke-width="0.1" xml:space="preserve">Invalid view - remove from diagram.</text>
<text x="114" y="610" clip-path="url(#clipPath8)" fill="red" stroke="none" stroke-width="0.1" xml:space="preserve">Invalid view - remove from diagram.</text>
<line clip-path="url(#clipPath2)" fill="none" x1="979" x2="909" y1="460" y2="460" stroke="red" stroke-width="1.1"/>
<rect x="532" y="23" clip-path="url(#clipPath3)" fill="rgb(255,203,203)" width="40" height="40" stroke="none" stroke-width="1.1"/>
<rect x="532" y="23" clip-path="url(#clipPath3)" fill="none" width="39" height="39" stroke-width="0.1"/>
<text x="455" y="48" clip-path="url(#clipPath3)" stroke="none" stroke-width="0.1" xml:space="preserve">Invalid view - remove from diagram.</text>
<rect x="532" y="23" clip-path="url(#clipPath3)" fill="rgb(255,203,203)" width="40" height="40" stroke="none" stroke-width="0.1"/>
<rect x="532" y="23" clip-path="url(#clipPath3)" fill="none" width="39" height="39" stroke-width="0.1"/>
<text x="455" y="48" clip-path="url(#clipPath3)" stroke="none" stroke-width="0.1" xml:space="preserve">Invalid view - remove from diagram.</text>
<text x="848" y="465" clip-path="url(#clipPath9)" fill="red" stroke="none" stroke-width="0.1" xml:space="preserve">Invalid view - remove from diagram.</text>
<line clip-path="url(#clipPath2)" fill="none" x1="50" x2="210" y1="610" y2="610" stroke="red" stroke-width="1.1"/>
<line clip-path="url(#clipPath2)" fill="none" x1="210" x2="210" y1="610" y2="602" stroke="red" stroke-width="1.1"/>
<line clip-path="url(#clipPath2)" fill="none" x1="210" x2="370" y1="602" y2="602" stroke="red" stroke-width="1.1"/>
<rect x="532" y="23" clip-path="url(#clipPath3)" fill="rgb(255,203,203)" width="40" height="40" stroke="none" stroke-width="1.1"/>
<rect x="532" y="23" clip-path="url(#clipPath3)" fill="none" width="39" height="39" stroke-width="0.1"/>
<text x="455" y="48" clip-path="url(#clipPath3)" stroke="none" stroke-width="0.1" xml:space="preserve">Invalid view - remove from diagram.</text>
<rect x="532" y="23" clip-path="url(#clipPath3)" fill="rgb(255,203,203)" width="40" height="40" stroke="none" stroke-width="0.1"/>
<rect x="532" y="23" clip-path="url(#clipPath3)" fill="none" width="39" height="39" stroke-width="0.1"/>
<text x="455" y="48" clip-path="url(#clipPath3)" stroke="none" stroke-width="0.1" xml:space="preserve">Invalid view - remove from diagram.</text>
<rect x="532" y="23" clip-path="url(#clipPath3)" fill="rgb(255,203,203)" width="40" height="40" stroke="none" stroke-width="0.1"/>
<rect x="532" y="23" clip-path="url(#clipPath3)" fill="none" width="39" height="39" stroke-width="0.1"/>
<text x="455" y="48" clip-path="url(#clipPath3)" stroke="none" stroke-width="0.1" xml:space="preserve">Invalid view - remove from diagram.</text>
<rect x="532" y="23" clip-path="url(#clipPath3)" fill="rgb(255,203,203)" width="40" height="40" stroke="none" stroke-width="0.1"/>
<rect x="532" y="23" clip-path="url(#clipPath3)" fill="none" width="39" height="39" stroke-width="0.1"/>
<text x="455" y="48" clip-path="url(#clipPath3)" stroke="none" stroke-width="0.1" xml:space="preserve">Invalid view - remove from diagram.</text>
<rect x="532" y="23" clip-path="url(#clipPath3)" fill="rgb(255,203,203)" width="40" height="40" stroke="none" stroke-width="0.1"/>
<rect x="532" y="23" clip-path="url(#clipPath3)" fill="none" width="39" height="39" stroke-width="0.1"/>
<text x="455" y="48" clip-path="url(#clipPath3)" stroke="none" stroke-width="0.1" xml:space="preserve">Invalid view - remove from diagram.</text>
<text x="114" y="611" clip-path="url(#clipPath10)" fill="red" stroke="none" stroke-width="0.1" xml:space="preserve">Invalid view - remove from diagram.</text>
<line clip-path="url(#clipPath2)" fill="none" x1="166" x2="253" y1="610" y2="714" stroke="red" stroke-width="1.1"/>
<rect x="532" y="23" clip-path="url(#clipPath3)" fill="rgb(255,203,203)" width="40" height="40" stroke="none" stroke-width="1.1"/>
<rect x="532" y="23" clip-path="url(#clipPath3)" fill="none" width="39" height="39" stroke-width="0.1"/>
<text x="455" y="48" clip-path="url(#clipPath3)" stroke="none" stroke-width="0.1" xml:space="preserve">Invalid view - remove from diagram.</text>
<rect x="532" y="23" clip-path="url(#clipPath3)" fill="rgb(255,203,203)" width="40" height="40" stroke="none" stroke-width="0.1"/>
<rect x="532" y="23" clip-path="url(#clipPath3)" fill="none" width="39" height="39" stroke-width="0.1"/>
<text x="455" y="48" clip-path="url(#clipPath3)" stroke="none" stroke-width="0.1" xml:space="preserve">Invalid view - remove from diagram.</text>
<text x="114" y="667" clip-path="url(#clipPath11)" fill="red" stroke="none" stroke-width="0.1" xml:space="preserve">Invalid view - remove from diagram.</text>
</g>
</g>
<rect x="721" y="87" fill-opacity="0" width="374" id="OperationEnvelope" height="40" stroke-opacity="0"/>
<rect x="0" y="0" fill-opacity="0" width="0" id="actionVerb" height="0" stroke-opacity="0"/>
<rect x="722" y="259" fill-opacity="0" width="40" id="OperationIdentifiers" height="40" stroke-opacity="0"/>
<rect x="129" y="383" fill-opacity="0" width="409" height="40" stroke-opacity="0"/>
<rect x="205" y="94" fill-opacity="0" width="40" id="ActionVerbs" height="40" stroke-opacity="0"/>
<rect x="0" y="0" fill-opacity="0" width="0" id="CREATE_POST_ADD" height="0" stroke-opacity="0"/>
<rect x="0" y="0" fill-opacity="0" width="0" id="SET_UPDATE_PUT_MODIFY_WRITE_ADD" height="0" stroke-opacity="0"/>
<rect x="0" y="0" fill-opacity="0" width="0" id="GET_READ" height="0" stroke-opacity="0"/>
<rect x="0" y="0" fill-opacity="0" width="0" id="DELETE_REMOVE" height="0" stroke-opacity="0"/>
<rect x="603" y="547" fill-opacity="0" width="164" id="_specificClassStructure" height="40" stroke-opacity="0"/>
<rect x="370" y="582" fill-opacity="0" width="40" id="SpecificClassStructure" height="40" stroke-opacity="0"/>
<rect x="683" y="432" fill-opacity="0" width="226" id="_outcomeElement" height="40" stroke-opacity="0"/>
<rect x="941" y="587" fill-opacity="0" width="40" id="OutcomeElementConstraints" height="40" stroke-opacity="0"/>
<rect x="942" y="312" fill-opacity="0" width="40" id="DesiredOutcomeConstraints" height="40" stroke-opacity="0"/>
<rect x="10" y="590" fill-opacity="0" width="40" id="Ltp" height="40" stroke-opacity="0"/>
<rect x="191" y="537" fill-opacity="0" width="40" height="40" stroke-opacity="0"/>
<rect x="138" y="714" fill-opacity="0" width="190" id="_classTypeName" height="40" stroke-opacity="0"/>
</svg>
