<?xml version="1.0" encoding="UTF-8"?><svg xmlns="http://www.w3.org/2000/svg" xmlns:xlink="http://www.w3.org/1999/xlink" stroke-dasharray="none" shape-rendering="auto" font-family="'Dialog'" width="803" text-rendering="auto" fill-opacity="1" contentScriptType="text/ecmascript" color-interpolation="auto" color-rendering="auto" preserveAspectRatio="xMidYMid meet" font-size="12" viewBox="0 0 803 976" fill="black" stroke="black" image-rendering="auto" stroke-miterlimit="10" zoomAndPan="magnify" version="1.0" stroke-linecap="square" stroke-linejoin="miter" contentStyleType="text/css" font-style="normal" height="976" stroke-width="1" stroke-dashoffset="0" font-weight="normal" stroke-opacity="1">
<!--Generated by the Batik Graphics2D SVG Generator-->
<defs id="genericDefs"/>
<g>
<defs id="defs1">
<clipPath clipPathUnits="userSpaceOnUse" id="clipPath1">
<path d="M22 174 L64 174 L64 216 L22 216 L22 174 Z"/>
</clipPath>
<clipPath clipPathUnits="userSpaceOnUse" id="clipPath2">
<path d="M136 34 L330 34 L330 52 L136 52 L136 34 Z"/>
</clipPath>
<clipPath clipPathUnits="userSpaceOnUse" id="clipPath3">
<path d="M-1 -1 L804 -1 L804 977 L-1 977 L-1 -1 Z"/>
</clipPath>
<clipPath clipPathUnits="userSpaceOnUse" id="clipPath4">
<path d="M136 165 L330 165 L330 183 L136 183 L136 165 Z"/>
</clipPath>
<clipPath clipPathUnits="userSpaceOnUse" id="clipPath5">
<path d="M136 283 L330 283 L330 301 L136 301 L136 283 Z"/>
</clipPath>
<clipPath clipPathUnits="userSpaceOnUse" id="clipPath6">
<path d="M136 436 L330 436 L330 454 L136 454 L136 436 Z"/>
</clipPath>
<clipPath clipPathUnits="userSpaceOnUse" id="clipPath7">
<path d="M136 511 L330 511 L330 529 L136 529 L136 511 Z"/>
</clipPath>
<clipPath clipPathUnits="userSpaceOnUse" id="clipPath8">
<path d="M136 634 L330 634 L330 652 L136 652 L136 634 Z"/>
</clipPath>
<clipPath clipPathUnits="userSpaceOnUse" id="clipPath9">
<path d="M568 318 L762 318 L762 336 L568 336 L568 318 Z"/>
</clipPath>
<clipPath clipPathUnits="userSpaceOnUse" id="clipPath10">
<path d="M568 440 L762 440 L762 458 L568 458 L568 440 Z"/>
</clipPath>
<clipPath clipPathUnits="userSpaceOnUse" id="clipPath11">
<path d="M571 553 L765 553 L765 571 L571 571 L571 553 Z"/>
</clipPath>
</defs>
<g fill="rgb(255,203,203)" font-family="'Segoe UI'" stroke-linejoin="round" stroke="rgb(255,203,203)" stroke-width="0" stroke-miterlimit="0">
<rect width="40" x="83" height="40" y="10" stroke="none"/>
</g>
<g stroke-linecap="butt" font-family="'Segoe UI'">
<rect fill="none" width="39" x="83" height="39" y="10"/>
<text xml:space="preserve" x="6" y="35" stroke="none">Invalid view - remove from diagram.</text>
<rect x="83" y="140" fill="rgb(255,203,203)" width="40" height="40" stroke="none"/>
<rect x="83" y="140" fill="none" width="39" height="39" stroke-width="0.1"/>
<text xml:space="preserve" x="6" stroke-width="0.1" y="165" stroke="none">Invalid view - remove from diagram.</text>
<rect x="83" y="255" fill="rgb(255,203,203)" width="40" height="40" stroke="none" stroke-width="0.1"/>
<rect x="83" y="255" fill="none" width="39" height="39" stroke-width="0.1"/>
<text xml:space="preserve" x="6" stroke-width="0.1" y="280" stroke="none">Invalid view - remove from diagram.</text>
<rect x="753" y="535" fill="rgb(255,203,203)" width="40" height="40" stroke="none" stroke-width="0.1"/>
<rect x="753" y="535" fill="none" width="39" height="39" stroke-width="0.1"/>
<text xml:space="preserve" x="676" stroke-width="0.1" y="560" stroke="none">Invalid view - remove from diagram.</text>
<rect x="748" y="415" fill="rgb(255,203,203)" width="40" height="40" stroke="none" stroke-width="0.1"/>
<rect x="748" y="415" fill="none" width="39" height="39" stroke-width="0.1"/>
<text xml:space="preserve" x="671" stroke-width="0.1" y="440" stroke="none">Invalid view - remove from diagram.</text>
<rect x="748" y="300" fill="rgb(255,203,203)" width="40" height="40" stroke="none" stroke-width="0.1"/>
<rect x="748" y="300" fill="none" width="39" height="39" stroke-width="0.1"/>
<text xml:space="preserve" x="671" stroke-width="0.1" y="325" stroke="none">Invalid view - remove from diagram.</text>
<rect x="83" y="605" fill="rgb(255,203,203)" width="40" height="40" stroke="none" stroke-width="0.1"/>
<rect x="83" y="605" fill="none" width="39" height="39" stroke-width="0.1"/>
<text xml:space="preserve" x="6" stroke-width="0.1" y="630" stroke="none">Invalid view - remove from diagram.</text>
<rect x="83" y="490" fill="rgb(255,203,203)" width="40" height="40" stroke="none" stroke-width="0.1"/>
<rect x="83" y="490" fill="none" width="39" height="39" stroke-width="0.1"/>
<text xml:space="preserve" x="6" stroke-width="0.1" y="515" stroke="none">Invalid view - remove from diagram.</text>
<rect x="83" y="375" fill="rgb(255,203,203)" width="40" height="40" stroke="none" stroke-width="0.1"/>
<rect x="83" y="375" fill="none" width="39" height="39" stroke-width="0.1"/>
<text xml:space="preserve" x="6" stroke-width="0.1" y="400" stroke="none">Invalid view - remove from diagram.</text>
</g>
<g stroke-linecap="butt" fill="rgb(255,203,203)" font-family="'Segoe UI'" font-style="italic" stroke="rgb(255,203,203)" stroke-width="0.1">
<rect width="40" x="543" height="348" y="290" stroke="none"/>
<rect x="543" y="290" fill="none" width="39" height="347" stroke="black"/>
<text fill="black" xml:space="preserve" x="467" y="469" stroke="none">Invalid view - remove from diagram.</text>
<rect width="40" x="343" height="946" y="20" stroke="none"/>
<rect x="343" y="20" fill="none" width="39" height="945" stroke="black"/>
<text fill="black" xml:space="preserve" x="267" y="498" stroke="none">Invalid view - remove from diagram.</text>
</g>
<g fill="red" stroke-width="1.1" font-family="'Segoe UI'" stroke-linecap="butt" stroke="red">
<line y2="32" fill="none" x1="123" x2="233" y1="32"/>
<line y2="54" fill="none" x1="233" x2="233" y1="32"/>
<line y2="54" fill="none" x1="233" x2="343" y1="54"/>
<rect x="23" y="175" clip-path="url(#clipPath1)" fill="rgb(255,203,203)" width="40" height="40" stroke="none"/>
<rect x="23" y="175" clip-path="url(#clipPath1)" fill="none" width="39" height="39" stroke="black" stroke-width="0.1"/>
<text x="-54" y="200" clip-path="url(#clipPath1)" fill="black" stroke="none" stroke-width="0.1" xml:space="preserve">Invalid view - remove from diagram.</text>
<text x="137" y="48" clip-path="url(#clipPath2)" stroke="none" stroke-width="0.1" xml:space="preserve">Invalid view - remove from diagram.</text>
<line clip-path="url(#clipPath3)" fill="none" x1="123" x2="233" y1="162" y2="162"/>
<line clip-path="url(#clipPath3)" fill="none" x1="233" x2="233" y1="162" y2="186"/>
<line clip-path="url(#clipPath3)" fill="none" x1="233" x2="343" y1="186" y2="186"/>
<rect x="23" y="175" clip-path="url(#clipPath1)" fill="rgb(255,203,203)" width="40" height="40" stroke="none"/>
<rect x="23" y="175" clip-path="url(#clipPath1)" fill="none" width="39" height="39" stroke="black" stroke-width="0.1"/>
<text x="-54" y="200" clip-path="url(#clipPath1)" fill="black" stroke="none" stroke-width="0.1" xml:space="preserve">Invalid view - remove from diagram.</text>
<text x="137" y="179" clip-path="url(#clipPath4)" stroke="none" stroke-width="0.1" xml:space="preserve">Invalid view - remove from diagram.</text>
<line clip-path="url(#clipPath3)" fill="none" x1="123" x2="233" y1="277" y2="277"/>
<line clip-path="url(#clipPath3)" fill="none" x1="233" x2="233" y1="277" y2="307"/>
<line clip-path="url(#clipPath3)" fill="none" x1="233" x2="343" y1="307" y2="307"/>
<rect x="23" y="175" clip-path="url(#clipPath1)" fill="rgb(255,203,203)" width="40" height="40" stroke="none"/>
<rect x="23" y="175" clip-path="url(#clipPath1)" fill="none" width="39" height="39" stroke="black" stroke-width="0.1"/>
<text x="-54" y="200" clip-path="url(#clipPath1)" fill="black" stroke="none" stroke-width="0.1" xml:space="preserve">Invalid view - remove from diagram.</text>
<text x="137" y="297" clip-path="url(#clipPath5)" stroke="none" stroke-width="0.1" xml:space="preserve">Invalid view - remove from diagram.</text>
<line clip-path="url(#clipPath3)" fill="none" x1="123" x2="233" y1="405" y2="405"/>
<line clip-path="url(#clipPath3)" fill="none" x1="233" x2="233" y1="405" y2="485"/>
<line clip-path="url(#clipPath3)" fill="none" x1="233" x2="343" y1="485" y2="485"/>
<rect x="23" y="175" clip-path="url(#clipPath1)" fill="rgb(255,203,203)" width="40" height="40" stroke="none"/>
<rect x="23" y="175" clip-path="url(#clipPath1)" fill="none" width="39" height="39" stroke="black" stroke-width="0.1"/>
<text x="-54" y="200" clip-path="url(#clipPath1)" fill="black" stroke="none" stroke-width="0.1" xml:space="preserve">Invalid view - remove from diagram.</text>
<text x="137" y="450" clip-path="url(#clipPath6)" stroke="none" stroke-width="0.1" xml:space="preserve">Invalid view - remove from diagram.</text>
<line clip-path="url(#clipPath3)" fill="none" x1="123" x2="233" y1="511" y2="511"/>
<line clip-path="url(#clipPath3)" fill="none" x1="233" x2="233" y1="511" y2="529"/>
<line clip-path="url(#clipPath3)" fill="none" x1="233" x2="343" y1="529" y2="529"/>
<rect x="23" y="175" clip-path="url(#clipPath1)" fill="rgb(255,203,203)" width="40" height="40" stroke="none"/>
<rect x="23" y="175" clip-path="url(#clipPath1)" fill="none" width="39" height="39" stroke="black" stroke-width="0.1"/>
<text x="-54" y="200" clip-path="url(#clipPath1)" fill="black" stroke="none" stroke-width="0.1" xml:space="preserve">Invalid view - remove from diagram.</text>
<text x="137" y="525" clip-path="url(#clipPath7)" stroke="none" stroke-width="0.1" xml:space="preserve">Invalid view - remove from diagram.</text>
<line clip-path="url(#clipPath3)" fill="none" x1="123" x2="233" y1="627" y2="627"/>
<line clip-path="url(#clipPath3)" fill="none" x1="233" x2="233" y1="627" y2="659"/>
<line clip-path="url(#clipPath3)" fill="none" x1="233" x2="343" y1="659" y2="659"/>
<rect x="23" y="175" clip-path="url(#clipPath1)" fill="rgb(255,203,203)" width="40" height="40" stroke="none"/>
<rect x="23" y="175" clip-path="url(#clipPath1)" fill="none" width="39" height="39" stroke="black" stroke-width="0.1"/>
<text x="-54" y="200" clip-path="url(#clipPath1)" fill="black" stroke="none" stroke-width="0.1" xml:space="preserve">Invalid view - remove from diagram.</text>
<text x="137" y="648" clip-path="url(#clipPath8)" stroke="none" stroke-width="0.1" xml:space="preserve">Invalid view - remove from diagram.</text>
<line clip-path="url(#clipPath3)" fill="none" x1="748" x2="665" y1="318" y2="318"/>
<line clip-path="url(#clipPath3)" fill="none" x1="665" x2="665" y1="318" y2="336"/>
<line clip-path="url(#clipPath3)" fill="none" x1="665" x2="583" y1="336" y2="336"/>
<rect x="23" y="175" clip-path="url(#clipPath1)" fill="rgb(255,203,203)" width="40" height="40" stroke="none"/>
<rect x="23" y="175" clip-path="url(#clipPath1)" fill="none" width="39" height="39" stroke="black" stroke-width="0.1"/>
<text x="-54" y="200" clip-path="url(#clipPath1)" fill="black" stroke="none" stroke-width="0.1" xml:space="preserve">Invalid view - remove from diagram.</text>
<text x="569" y="332" clip-path="url(#clipPath9)" stroke="none" stroke-width="0.1" xml:space="preserve">Invalid view - remove from diagram.</text>
<line clip-path="url(#clipPath3)" fill="none" x1="748" x2="665" y1="435" y2="435"/>
<line clip-path="url(#clipPath3)" fill="none" x1="665" x2="665" y1="435" y2="464"/>
<line clip-path="url(#clipPath3)" fill="none" x1="665" x2="583" y1="464" y2="464"/>
<rect x="23" y="175" clip-path="url(#clipPath1)" fill="rgb(255,203,203)" width="40" height="40" stroke="none"/>
<rect x="23" y="175" clip-path="url(#clipPath1)" fill="none" width="39" height="39" stroke="black" stroke-width="0.1"/>
<text x="-54" y="200" clip-path="url(#clipPath1)" fill="black" stroke="none" stroke-width="0.1" xml:space="preserve">Invalid view - remove from diagram.</text>
<text x="569" y="454" clip-path="url(#clipPath10)" stroke="none" stroke-width="0.1" xml:space="preserve">Invalid view - remove from diagram.</text>
<line clip-path="url(#clipPath3)" fill="none" x1="753" x2="668" y1="550" y2="550"/>
<line clip-path="url(#clipPath3)" fill="none" x1="668" x2="668" y1="550" y2="573"/>
<line clip-path="url(#clipPath3)" fill="none" x1="668" x2="583" y1="573" y2="573"/>
<rect x="23" y="175" clip-path="url(#clipPath1)" fill="rgb(255,203,203)" width="40" height="40" stroke="none"/>
<rect x="23" y="175" clip-path="url(#clipPath1)" fill="none" width="39" height="39" stroke="black" stroke-width="0.1"/>
<text x="-54" y="200" clip-path="url(#clipPath1)" fill="black" stroke="none" stroke-width="0.1" xml:space="preserve">Invalid view - remove from diagram.</text>
<text x="572" y="567" clip-path="url(#clipPath11)" stroke="none" stroke-width="0.1" xml:space="preserve">Invalid view - remove from diagram.</text>
</g>
</g>
<rect x="83" y="10" fill-opacity="0" width="40" title="A switched unidirectional forwarding element that can take one or more inputs and switch to one or more outputs.&#13;&#10;The switch can also be open (high impedance)." id="MultiSwitchedUniFlow" height="40" stroke-opacity="0">
<title>A switched unidirectional forwarding element that can take one or more inputs and switch to one or more outputs.&#13;
The switch can also be open (high impedance).</title>
</rect>
<rect x="83" y="140" fill-opacity="0" width="40" title="The grouping of FC ingress ports that have the same behavior and relationship to the switch etc.&#13;&#10;Will carry rules for the grouping." id="IngressPortSet" height="40" stroke-opacity="0">
<title>The grouping of FC ingress ports that have the same behavior and relationship to the switch etc.&#13;
Will carry rules for the grouping.</title>
</rect>
<rect x="83" y="255" fill-opacity="0" width="40" title="The grouping of FC egress ports that have the same behavior and relationship to the switch etc.&#13;&#10;Will carry rules for the grouping." id="EgressPortSet" height="40" stroke-opacity="0">
<title>The grouping of FC egress ports that have the same behavior and relationship to the switch etc.&#13;
Will carry rules for the grouping.</title>
</rect>
<rect x="753" y="535" fill-opacity="0" width="40" title="The spec of a ConfigurationAndSwitchController." id="ConfigurationAndSwitchControllerSpec" height="40" stroke-opacity="0">
<title>The spec of a ConfigurationAndSwitchController.</title>
</rect>
<rect x="748" y="415" fill-opacity="0" width="40" title="The overall spec for the forwarding entity." id="ForwardingSpec" height="40" stroke-opacity="0">
<title>The overall spec for the forwarding entity.</title>
</rect>
<rect x="748" y="300" fill-opacity="0" width="40" title="The specification of the grouping rules for a particular configuration of FCs and CASCs." id="ConfigurationGroupSpec" height="40" stroke-opacity="0">
<title>The specification of the grouping rules for a particular configuration of FCs and CASCs.</title>
</rect>
<rect x="83" y="605" fill-opacity="0" width="40" title="A rule describes the bounds of the behavior of a CASC." id="ControlRule" height="40" stroke-opacity="0">
<title>A rule describes the bounds of the behavior of a CASC.</title>
</rect>
<rect x="83" y="490" fill-opacity="0" width="40" title="The specification a set of equivalent port of the forwarding entity." id="PortSetSpec" height="40" stroke-opacity="0">
<title>The specification a set of equivalent port of the forwarding entity.</title>
</rect>
<rect x="83" y="375" fill-opacity="0" width="40" title="Rules for the association from the port spec to LTPs identifying restrictions of use." id="LtpAssociationRule" height="40" stroke-opacity="0">
<title>Rules for the association from the port spec to LTPs identifying restrictions of use.</title>
</rect>
<rect x="543" y="290" fill-opacity="0" width="40" title="Represents a type of thing (an Entity) that has instances which can exist in their own right (independently of any others).&#13;&#10;&#13;&#10;Entity: Has identity, defined boundary, properties, functionality and lifecycle in a global context.&#13;&#10;&#13;&#10;(This should be considered in the context of a Class: (usage) The representation of a thing that may be an entity or an inseparable Entity Feature)." id="GlobalClass" height="348" stroke-opacity="0">
<title>Represents a type of thing (an Entity) that has instances which can exist in their own right (independently of any others).&#13;
&#13;
Entity: Has identity, defined boundary, properties, functionality and lifecycle in a global context.&#13;
&#13;
(This should be considered in the context of a Class: (usage) The representation of a thing that may be an entity or an inseparable Entity Feature).</title>
</rect>
<rect x="343" y="20" fill-opacity="0" width="40" title="A LocalClass represents a Feature of an Entity. It is inseparable from a GlobalClass but is a distinct feature of that GlobalClass such that the instances of LocalClass are able to have associations to other instances.&#13;&#10;Feature of an Entity: An inseparable, externally distinguishable part of an entity.&#13;&#10;The mandatory LocalId of the LocalClass instance is unique in the context of the GlobalClass from which it is inseparable.&#13;&#10;(This should be considered in the context of a Class: (usage) The representation of a thing that may be an entity or an inseparable feature of an entity.)&#13;&#10;" id="LocalClass" height="946" stroke-opacity="0">
<title>A LocalClass represents a Feature of an Entity. It is inseparable from a GlobalClass but is a distinct feature of that GlobalClass such that the instances of LocalClass are able to have associations to other instances.&#13;
Feature of an Entity: An inseparable, externally distinguishable part of an entity.&#13;
The mandatory LocalId of the LocalClass instance is unique in the context of the GlobalClass from which it is inseparable.&#13;
(This should be considered in the context of a Class: (usage) The representation of a thing that may be an entity or an inseparable feature of an entity.)&#13;
</title>
</rect>
</svg>
