<?xml version="1.0" encoding="UTF-8"?><svg xmlns="http://www.w3.org/2000/svg" xmlns:xlink="http://www.w3.org/1999/xlink" stroke-dasharray="none" shape-rendering="auto" font-family="'Dialog'" width="1597" text-rendering="auto" fill-opacity="1" contentScriptType="text/ecmascript" color-interpolation="auto" color-rendering="auto" preserveAspectRatio="xMidYMid meet" font-size="12" viewBox="0 0 1597 606" fill="black" stroke="black" image-rendering="auto" stroke-miterlimit="10" zoomAndPan="magnify" version="1.0" stroke-linecap="square" stroke-linejoin="miter" contentStyleType="text/css" font-style="normal" height="606" stroke-width="1" stroke-dashoffset="0" font-weight="normal" stroke-opacity="1">
<!--Generated by the Batik Graphics2D SVG Generator-->
<defs id="genericDefs"/>
<g>
<defs id="defs1">
<clipPath clipPathUnits="userSpaceOnUse" id="clipPath1">
<path d="M62 94 L104 94 L104 136 L62 136 L62 94 Z"/>
</clipPath>
<clipPath clipPathUnits="userSpaceOnUse" id="clipPath2">
<path d="M412 550 L606 550 L606 568 L412 568 L412 550 Z"/>
</clipPath>
<clipPath clipPathUnits="userSpaceOnUse" id="clipPath3">
<path d="M-1 -1 L1598 -1 L1598 607 L-1 607 L-1 -1 Z"/>
</clipPath>
<clipPath clipPathUnits="userSpaceOnUse" id="clipPath4">
<path d="M343 292 L537 292 L537 310 L343 310 L343 292 Z"/>
</clipPath>
<clipPath clipPathUnits="userSpaceOnUse" id="clipPath5">
<path d="M176 198 L370 198 L370 216 L176 216 L176 198 Z"/>
</clipPath>
<clipPath clipPathUnits="userSpaceOnUse" id="clipPath6">
<path d="M532 390 L726 390 L726 408 L532 408 L532 390 Z"/>
</clipPath>
<clipPath clipPathUnits="userSpaceOnUse" id="clipPath7">
<path d="M946 390 L1140 390 L1140 408 L946 408 L946 390 Z"/>
</clipPath>
<clipPath clipPathUnits="userSpaceOnUse" id="clipPath8">
<path d="M721 478 L915 478 L915 496 L721 496 L721 478 Z"/>
</clipPath>
<clipPath clipPathUnits="userSpaceOnUse" id="clipPath9">
<path d="M174 388 L368 388 L368 406 L174 406 L174 388 Z"/>
</clipPath>
<clipPath clipPathUnits="userSpaceOnUse" id="clipPath10">
<path d="M27 295 L221 295 L221 313 L27 313 L27 295 Z"/>
</clipPath>
<clipPath clipPathUnits="userSpaceOnUse" id="clipPath11">
<path d="M1122 291 L1316 291 L1316 309 L1122 309 L1122 291 Z"/>
</clipPath>
<clipPath clipPathUnits="userSpaceOnUse" id="clipPath12">
<path d="M726 190 L920 190 L920 208 L726 208 L726 190 Z"/>
</clipPath>
<clipPath clipPathUnits="userSpaceOnUse" id="clipPath13">
<path d="M331 108 L525 108 L525 126 L331 126 L331 108 Z"/>
</clipPath>
<clipPath clipPathUnits="userSpaceOnUse" id="clipPath14">
<path d="M178 25 L372 25 L372 43 L178 43 L178 25 Z"/>
</clipPath>
<clipPath clipPathUnits="userSpaceOnUse" id="clipPath15">
<path d="M22 110 L216 110 L216 128 L22 128 L22 110 Z"/>
</clipPath>
<clipPath clipPathUnits="userSpaceOnUse" id="clipPath16">
<path d="M227 354 L421 354 L421 372 L227 372 L227 354 Z"/>
</clipPath>
<clipPath clipPathUnits="userSpaceOnUse" id="clipPath17">
<path d="M84 256 L278 256 L278 274 L84 274 L84 256 Z"/>
</clipPath>
<clipPath clipPathUnits="userSpaceOnUse" id="clipPath18">
<path d="M458 119 L652 119 L652 137 L458 137 L458 119 Z"/>
</clipPath>
<clipPath clipPathUnits="userSpaceOnUse" id="clipPath19">
<path d="M971 219 L1165 219 L1165 237 L971 237 L971 219 Z"/>
</clipPath>
<clipPath clipPathUnits="userSpaceOnUse" id="clipPath20">
<path d="M656 341 L850 341 L850 359 L656 359 L656 341 Z"/>
</clipPath>
<clipPath clipPathUnits="userSpaceOnUse" id="clipPath21">
<path d="M481 341 L675 341 L675 359 L481 359 L481 341 Z"/>
</clipPath>
<clipPath clipPathUnits="userSpaceOnUse" id="clipPath22">
<path d="M1256 341 L1450 341 L1450 359 L1256 359 L1256 341 Z"/>
</clipPath>
<clipPath clipPathUnits="userSpaceOnUse" id="clipPath23">
<path d="M484 113 L678 113 L678 131 L484 131 L484 113 Z"/>
</clipPath>
</defs>
<g fill="rgb(255,203,203)" font-family="'Segoe UI'" stroke-linejoin="round" font-style="italic" stroke="rgb(255,203,203)" stroke-width="0" stroke-miterlimit="0">
<rect width="40" x="405" height="40" y="183" stroke="none"/>
</g>
<g font-style="italic" font-family="'Segoe UI'" stroke-linecap="butt">
<rect fill="none" width="39" x="405" height="39" y="183"/>
<text xml:space="preserve" x="329" y="208" stroke="none">Invalid view - remove from diagram.</text>
<rect x="394" y="379" fill="rgb(255,203,203)" width="127" height="40" stroke="none"/>
<rect x="394" y="379" fill="none" width="126" height="39" stroke-width="0.1"/>
<text xml:space="preserve" x="362" stroke-width="0.1" y="404" stroke="none">Invalid view - remove from diagram.</text>
<rect x="101" y="10" fill="rgb(255,203,203)" width="40" height="40" stroke="none" stroke-width="0.1"/>
<rect x="101" y="10" fill="none" width="39" height="39" stroke-width="0.1"/>
<text xml:space="preserve" x="25" stroke-width="0.1" y="35" stroke="none">Invalid view - remove from diagram.</text>
<rect x="770" y="556" fill="rgb(255,203,203)" width="40" height="40" stroke="none" stroke-width="0.1"/>
<rect x="770" y="556" fill="none" width="39" height="39" stroke-width="0.1"/>
<text xml:space="preserve" x="694" stroke-width="0.1" y="581" stroke="none">Invalid view - remove from diagram.</text>
<rect x="1208" y="380" fill="rgb(255,203,203)" width="40" height="40" stroke="none" stroke-width="0.1"/>
<rect x="1208" y="380" fill="none" width="39" height="39" stroke-width="0.1"/>
<text xml:space="preserve" x="1132" stroke-width="0.1" y="405" stroke="none">Invalid view - remove from diagram.</text>
<rect x="737" y="379" fill="rgb(255,203,203)" width="140" height="40" stroke="none" stroke-width="0.1"/>
<rect x="737" y="379" fill="none" width="139" height="39" stroke-width="0.1"/>
<text xml:space="preserve" x="711" stroke-width="0.1" y="404" stroke="none">Invalid view - remove from diagram.</text>
<rect x="102" y="189" fill="rgb(255,203,203)" width="40" height="40" stroke="none" stroke-width="0.1"/>
<rect x="102" y="189" fill="none" width="39" height="39" stroke-width="0.1"/>
<text xml:space="preserve" x="26" stroke-width="0.1" y="214" stroke="none">Invalid view - remove from diagram.</text>
<rect x="107" y="379" fill="rgb(255,203,203)" width="40" height="40" stroke="none" stroke-width="0.1"/>
<rect x="107" y="379" fill="none" width="39" height="39" stroke-width="0.1"/>
<text xml:space="preserve" x="31" stroke-width="0.1" y="404" stroke="none">Invalid view - remove from diagram.</text>
<rect x="1201" y="181" fill="rgb(255,203,203)" width="40" height="40" stroke="none" stroke-width="0.1"/>
<rect x="1201" y="181" fill="none" width="39" height="39" stroke-width="0.1"/>
<text xml:space="preserve" x="1125" stroke-width="0.1" y="206" stroke="none">Invalid view - remove from diagram.</text>
<rect x="408" y="11" fill="rgb(255,203,203)" width="40" height="40" stroke="none" stroke-width="0.1"/>
<rect x="408" y="11" fill="none" width="39" height="39" stroke-width="0.1"/>
<text xml:space="preserve" x="332" stroke-width="0.1" y="36" stroke="none">Invalid view - remove from diagram.</text>
</g>
<g fill="rgb(255,203,203)" stroke-width="0.1" font-family="'Segoe UI'" stroke-linecap="butt" stroke="rgb(255,203,203)">
<rect width="40" x="490" height="40" y="515" stroke="none"/>
<rect x="490" y="515" fill="none" width="39" height="39" stroke="black"/>
<text fill="black" xml:space="preserve" x="413" y="540" stroke="none">Invalid view - remove from diagram.</text>
<rect width="40" x="215" height="40" y="305" stroke="none"/>
<rect x="215" y="305" fill="none" width="39" height="39" stroke="black"/>
<text fill="black" xml:space="preserve" x="138" y="330" stroke="none">Invalid view - remove from diagram.</text>
<rect width="116" x="592" height="46" y="23" stroke="none"/>
<rect x="592" y="23" fill="none" width="115" height="45" stroke="black"/>
<text fill="black" xml:space="preserve" x="553" y="51" stroke="none">Invalid view - remove from diagram.</text>
<rect width="152" x="942" height="40" y="258" stroke="none"/>
<rect x="942" y="258" fill="none" width="151" height="39" stroke="black"/>
<text fill="black" xml:space="preserve" x="921" y="283" stroke="none">Invalid view - remove from diagram.</text>
<rect width="347" x="526" height="40" y="281" stroke="none"/>
<rect x="526" y="281" fill="none" width="346" height="39" stroke="black"/>
<text fill="black" xml:space="preserve" x="603" y="306" stroke="none">Invalid view - remove from diagram.</text>
<rect width="198" x="1389" height="46" y="269" stroke="none"/>
<rect x="1389" y="269" fill="none" width="197" height="45" stroke="black"/>
<text fill="black" xml:space="preserve" x="1391" y="297" stroke="none">Invalid view - remove from diagram.</text>
<rect width="370" x="718" height="40" y="27" stroke="none"/>
<rect x="718" y="27" fill="none" width="369" height="39" stroke="black"/>
<text fill="black" xml:space="preserve" x="806" y="52" stroke="none">Invalid view - remove from diagram.</text>
<line fill="none" x1="477" x2="477" y1="419" y2="581" stroke="red" stroke-width="1.1"/>
<line fill="none" x1="477" x2="454" y1="581" y2="581" stroke="red" stroke-width="1.1"/>
<line fill="none" x1="454" x2="454" y1="581" y2="559" stroke="red" stroke-width="1.1"/>
<line fill="none" x1="454" x2="770" y1="559" y2="559" stroke="red" stroke-width="1.1"/>
<rect x="63" y="95" clip-path="url(#clipPath1)" width="40" height="40" stroke="none" stroke-width="1.1"/>
<rect x="63" y="95" clip-path="url(#clipPath1)" fill="none" width="39" height="39" stroke="black"/>
<text x="-14" y="120" clip-path="url(#clipPath1)" fill="black" stroke="none" xml:space="preserve">Invalid view - remove from diagram.</text>
<text x="413" y="564" clip-path="url(#clipPath2)" fill="red" stroke="none" xml:space="preserve">Invalid view - remove from diagram.</text>
<line clip-path="url(#clipPath3)" fill="none" x1="424" x2="424" y1="223" y2="301" stroke="red" stroke-width="1.1"/>
<line clip-path="url(#clipPath3)" fill="none" x1="424" x2="456" y1="301" y2="301" stroke="red" stroke-width="1.1"/>
<line clip-path="url(#clipPath3)" fill="none" x1="456" x2="456" y1="301" y2="379" stroke="red" stroke-width="1.1"/>
<rect x="63" y="95" clip-path="url(#clipPath1)" width="40" height="40" stroke="none" stroke-width="1.1"/>
<rect x="63" y="95" clip-path="url(#clipPath1)" fill="none" width="39" height="39" stroke="black"/>
<text x="-14" y="120" clip-path="url(#clipPath1)" fill="black" stroke="none" xml:space="preserve">Invalid view - remove from diagram.</text>
<rect x="63" y="95" clip-path="url(#clipPath1)" width="40" height="40" stroke="none"/>
<rect x="63" y="95" clip-path="url(#clipPath1)" fill="none" width="39" height="39" stroke="black"/>
<text x="-14" y="120" clip-path="url(#clipPath1)" fill="black" stroke="none" xml:space="preserve">Invalid view - remove from diagram.</text>
<rect x="63" y="95" clip-path="url(#clipPath1)" width="40" height="40" stroke="none"/>
<rect x="63" y="95" clip-path="url(#clipPath1)" fill="none" width="39" height="39" stroke="black"/>
<text x="-14" y="120" clip-path="url(#clipPath1)" fill="black" stroke="none" xml:space="preserve">Invalid view - remove from diagram.</text>
<rect x="63" y="95" clip-path="url(#clipPath1)" width="40" height="40" stroke="none"/>
<rect x="63" y="95" clip-path="url(#clipPath1)" fill="none" width="39" height="39" stroke="black"/>
<text x="-14" y="120" clip-path="url(#clipPath1)" fill="black" stroke="none" xml:space="preserve">Invalid view - remove from diagram.</text>
<rect x="63" y="95" clip-path="url(#clipPath1)" width="40" height="40" stroke="none"/>
<rect x="63" y="95" clip-path="url(#clipPath1)" fill="none" width="39" height="39" stroke="black"/>
<text x="-14" y="120" clip-path="url(#clipPath1)" fill="black" stroke="none" xml:space="preserve">Invalid view - remove from diagram.</text>
<text x="344" y="306" clip-path="url(#clipPath4)" fill="red" stroke="none" xml:space="preserve">Invalid view - remove from diagram.</text>
<line clip-path="url(#clipPath3)" fill="none" x1="405" x2="142" y1="207" y2="207" stroke="red" stroke-width="1.1"/>
<rect x="63" y="95" clip-path="url(#clipPath1)" width="40" height="40" stroke="none" stroke-width="1.1"/>
<rect x="63" y="95" clip-path="url(#clipPath1)" fill="none" width="39" height="39" stroke="black"/>
<text x="-14" y="120" clip-path="url(#clipPath1)" fill="black" stroke="none" xml:space="preserve">Invalid view - remove from diagram.</text>
<rect x="63" y="95" clip-path="url(#clipPath1)" width="40" height="40" stroke="none"/>
<rect x="63" y="95" clip-path="url(#clipPath1)" fill="none" width="39" height="39" stroke="black"/>
<text x="-14" y="120" clip-path="url(#clipPath1)" fill="black" stroke="none" xml:space="preserve">Invalid view - remove from diagram.</text>
<rect x="63" y="95" clip-path="url(#clipPath1)" width="40" height="40" stroke="none"/>
<rect x="63" y="95" clip-path="url(#clipPath1)" fill="none" width="39" height="39" stroke="black"/>
<text x="-14" y="120" clip-path="url(#clipPath1)" fill="black" stroke="none" xml:space="preserve">Invalid view - remove from diagram.</text>
<rect x="63" y="95" clip-path="url(#clipPath1)" width="40" height="40" stroke="none"/>
<rect x="63" y="95" clip-path="url(#clipPath1)" fill="none" width="39" height="39" stroke="black"/>
<text x="-14" y="120" clip-path="url(#clipPath1)" fill="black" stroke="none" xml:space="preserve">Invalid view - remove from diagram.</text>
<rect x="63" y="95" clip-path="url(#clipPath1)" width="40" height="40" stroke="none"/>
<rect x="63" y="95" clip-path="url(#clipPath1)" fill="none" width="39" height="39" stroke="black"/>
<text x="-14" y="120" clip-path="url(#clipPath1)" fill="black" stroke="none" xml:space="preserve">Invalid view - remove from diagram.</text>
<text x="177" y="212" clip-path="url(#clipPath5)" fill="red" stroke="none" xml:space="preserve">Invalid view - remove from diagram.</text>
<line clip-path="url(#clipPath3)" fill="none" x1="521" x2="737" y1="399" y2="399" stroke="red" stroke-width="1.1"/>
<rect x="63" y="95" clip-path="url(#clipPath1)" width="40" height="40" stroke="none" stroke-width="1.1"/>
<rect x="63" y="95" clip-path="url(#clipPath1)" fill="none" width="39" height="39" stroke="black"/>
<text x="-14" y="120" clip-path="url(#clipPath1)" fill="black" stroke="none" xml:space="preserve">Invalid view - remove from diagram.</text>
<rect x="63" y="95" clip-path="url(#clipPath1)" width="40" height="40" stroke="none"/>
<rect x="63" y="95" clip-path="url(#clipPath1)" fill="none" width="39" height="39" stroke="black"/>
<text x="-14" y="120" clip-path="url(#clipPath1)" fill="black" stroke="none" xml:space="preserve">Invalid view - remove from diagram.</text>
<rect x="63" y="95" clip-path="url(#clipPath1)" width="40" height="40" stroke="none"/>
<rect x="63" y="95" clip-path="url(#clipPath1)" fill="none" width="39" height="39" stroke="black"/>
<text x="-14" y="120" clip-path="url(#clipPath1)" fill="black" stroke="none" xml:space="preserve">Invalid view - remove from diagram.</text>
<rect x="63" y="95" clip-path="url(#clipPath1)" width="40" height="40" stroke="none"/>
<rect x="63" y="95" clip-path="url(#clipPath1)" fill="none" width="39" height="39" stroke="black"/>
<text x="-14" y="120" clip-path="url(#clipPath1)" fill="black" stroke="none" xml:space="preserve">Invalid view - remove from diagram.</text>
<rect x="63" y="95" clip-path="url(#clipPath1)" width="40" height="40" stroke="none"/>
<rect x="63" y="95" clip-path="url(#clipPath1)" fill="none" width="39" height="39" stroke="black"/>
<text x="-14" y="120" clip-path="url(#clipPath1)" fill="black" stroke="none" xml:space="preserve">Invalid view - remove from diagram.</text>
<rect x="63" y="95" clip-path="url(#clipPath1)" width="40" height="40" stroke="none"/>
<rect x="63" y="95" clip-path="url(#clipPath1)" fill="none" width="39" height="39" stroke="black"/>
<text x="-14" y="120" clip-path="url(#clipPath1)" fill="black" stroke="none" xml:space="preserve">Invalid view - remove from diagram.</text>
<text x="533" y="404" clip-path="url(#clipPath6)" fill="red" stroke="none" xml:space="preserve">Invalid view - remove from diagram.</text>
<line clip-path="url(#clipPath3)" fill="none" x1="877" x2="1208" y1="399" y2="399" stroke="red" stroke-width="1.1"/>
<rect x="63" y="95" clip-path="url(#clipPath1)" width="40" height="40" stroke="none" stroke-width="1.1"/>
<rect x="63" y="95" clip-path="url(#clipPath1)" fill="none" width="39" height="39" stroke="black"/>
<text x="-14" y="120" clip-path="url(#clipPath1)" fill="black" stroke="none" xml:space="preserve">Invalid view - remove from diagram.</text>
<rect x="63" y="95" clip-path="url(#clipPath1)" width="40" height="40" stroke="none"/>
<rect x="63" y="95" clip-path="url(#clipPath1)" fill="none" width="39" height="39" stroke="black"/>
<text x="-14" y="120" clip-path="url(#clipPath1)" fill="black" stroke="none" xml:space="preserve">Invalid view - remove from diagram.</text>
<rect x="63" y="95" clip-path="url(#clipPath1)" width="40" height="40" stroke="none"/>
<rect x="63" y="95" clip-path="url(#clipPath1)" fill="none" width="39" height="39" stroke="black"/>
<text x="-14" y="120" clip-path="url(#clipPath1)" fill="black" stroke="none" xml:space="preserve">Invalid view - remove from diagram.</text>
<rect x="63" y="95" clip-path="url(#clipPath1)" width="40" height="40" stroke="none"/>
<rect x="63" y="95" clip-path="url(#clipPath1)" fill="none" width="39" height="39" stroke="black"/>
<text x="-14" y="120" clip-path="url(#clipPath1)" fill="black" stroke="none" xml:space="preserve">Invalid view - remove from diagram.</text>
<rect x="63" y="95" clip-path="url(#clipPath1)" width="40" height="40" stroke="none"/>
<rect x="63" y="95" clip-path="url(#clipPath1)" fill="none" width="39" height="39" stroke="black"/>
<text x="-14" y="120" clip-path="url(#clipPath1)" fill="black" stroke="none" xml:space="preserve">Invalid view - remove from diagram.</text>
<text x="947" y="404" clip-path="url(#clipPath7)" fill="red" stroke="none" xml:space="preserve">Invalid view - remove from diagram.</text>
<line clip-path="url(#clipPath3)" fill="none" x1="840" x2="840" y1="419" y2="487" stroke="red" stroke-width="1.1"/>
<line clip-path="url(#clipPath3)" fill="none" x1="840" x2="797" y1="487" y2="487" stroke="red" stroke-width="1.1"/>
<line clip-path="url(#clipPath3)" fill="none" x1="797" x2="797" y1="487" y2="556" stroke="red" stroke-width="1.1"/>
<rect x="63" y="95" clip-path="url(#clipPath1)" width="40" height="40" stroke="none" stroke-width="1.1"/>
<rect x="63" y="95" clip-path="url(#clipPath1)" fill="none" width="39" height="39" stroke="black"/>
<text x="-14" y="120" clip-path="url(#clipPath1)" fill="black" stroke="none" xml:space="preserve">Invalid view - remove from diagram.</text>
<text x="722" y="492" clip-path="url(#clipPath8)" fill="red" stroke="none" xml:space="preserve">Invalid view - remove from diagram.</text>
<line clip-path="url(#clipPath3)" fill="none" x1="394" x2="147" y1="397" y2="397" stroke="red" stroke-width="1.1"/>
<rect x="63" y="95" clip-path="url(#clipPath1)" width="40" height="40" stroke="none" stroke-width="1.1"/>
<rect x="63" y="95" clip-path="url(#clipPath1)" fill="none" width="39" height="39" stroke="black"/>
<text x="-14" y="120" clip-path="url(#clipPath1)" fill="black" stroke="none" xml:space="preserve">Invalid view - remove from diagram.</text>
<text x="175" y="402" clip-path="url(#clipPath9)" fill="red" stroke="none" xml:space="preserve">Invalid view - remove from diagram.</text>
<line clip-path="url(#clipPath3)" fill="none" x1="124" x2="124" y1="229" y2="379" stroke="red" stroke-width="1.1"/>
<rect x="63" y="95" clip-path="url(#clipPath1)" width="40" height="40" stroke="none" stroke-width="1.1"/>
<rect x="63" y="95" clip-path="url(#clipPath1)" fill="none" width="39" height="39" stroke="black"/>
<text x="-14" y="120" clip-path="url(#clipPath1)" fill="black" stroke="none" xml:space="preserve">Invalid view - remove from diagram.</text>
<text x="28" y="309" clip-path="url(#clipPath10)" fill="red" stroke="none" xml:space="preserve">Invalid view - remove from diagram.</text>
<line clip-path="url(#clipPath3)" fill="none" x1="1219" x2="1219" y1="380" y2="221" stroke="red" stroke-width="1.1"/>
<rect x="63" y="95" clip-path="url(#clipPath1)" width="40" height="40" stroke="none" stroke-width="1.1"/>
<rect x="63" y="95" clip-path="url(#clipPath1)" fill="none" width="39" height="39" stroke="black"/>
<text x="-14" y="120" clip-path="url(#clipPath1)" fill="black" stroke="none" xml:space="preserve">Invalid view - remove from diagram.</text>
<rect x="63" y="95" clip-path="url(#clipPath1)" width="40" height="40" stroke="none"/>
<rect x="63" y="95" clip-path="url(#clipPath1)" fill="none" width="39" height="39" stroke="black"/>
<text x="-14" y="120" clip-path="url(#clipPath1)" fill="black" stroke="none" xml:space="preserve">Invalid view - remove from diagram.</text>
<rect x="63" y="95" clip-path="url(#clipPath1)" width="40" height="40" stroke="none"/>
<rect x="63" y="95" clip-path="url(#clipPath1)" fill="none" width="39" height="39" stroke="black"/>
<text x="-14" y="120" clip-path="url(#clipPath1)" fill="black" stroke="none" xml:space="preserve">Invalid view - remove from diagram.</text>
<rect x="63" y="95" clip-path="url(#clipPath1)" width="40" height="40" stroke="none"/>
<rect x="63" y="95" clip-path="url(#clipPath1)" fill="none" width="39" height="39" stroke="black"/>
<text x="-14" y="120" clip-path="url(#clipPath1)" fill="black" stroke="none" xml:space="preserve">Invalid view - remove from diagram.</text>
<rect x="63" y="95" clip-path="url(#clipPath1)" width="40" height="40" stroke="none"/>
<rect x="63" y="95" clip-path="url(#clipPath1)" fill="none" width="39" height="39" stroke="black"/>
<text x="-14" y="120" clip-path="url(#clipPath1)" fill="black" stroke="none" xml:space="preserve">Invalid view - remove from diagram.</text>
<text x="1123" y="305" clip-path="url(#clipPath11)" fill="red" stroke="none" xml:space="preserve">Invalid view - remove from diagram.</text>
<line clip-path="url(#clipPath3)" fill="none" x1="1201" x2="445" y1="199" y2="199" stroke="red" stroke-width="1.1"/>
<rect x="63" y="95" clip-path="url(#clipPath1)" width="40" height="40" stroke="none" stroke-width="1.1"/>
<rect x="63" y="95" clip-path="url(#clipPath1)" fill="none" width="39" height="39" stroke="black"/>
<text x="-14" y="120" clip-path="url(#clipPath1)" fill="black" stroke="none" xml:space="preserve">Invalid view - remove from diagram.</text>
<rect x="63" y="95" clip-path="url(#clipPath1)" width="40" height="40" stroke="none"/>
<rect x="63" y="95" clip-path="url(#clipPath1)" fill="none" width="39" height="39" stroke="black"/>
<text x="-14" y="120" clip-path="url(#clipPath1)" fill="black" stroke="none" xml:space="preserve">Invalid view - remove from diagram.</text>
<rect x="63" y="95" clip-path="url(#clipPath1)" width="40" height="40" stroke="none"/>
<rect x="63" y="95" clip-path="url(#clipPath1)" fill="none" width="39" height="39" stroke="black"/>
<text x="-14" y="120" clip-path="url(#clipPath1)" fill="black" stroke="none" xml:space="preserve">Invalid view - remove from diagram.</text>
<rect x="63" y="95" clip-path="url(#clipPath1)" width="40" height="40" stroke="none"/>
<rect x="63" y="95" clip-path="url(#clipPath1)" fill="none" width="39" height="39" stroke="black"/>
<text x="-14" y="120" clip-path="url(#clipPath1)" fill="black" stroke="none" xml:space="preserve">Invalid view - remove from diagram.</text>
<rect x="63" y="95" clip-path="url(#clipPath1)" width="40" height="40" stroke="none"/>
<rect x="63" y="95" clip-path="url(#clipPath1)" fill="none" width="39" height="39" stroke="black"/>
<text x="-14" y="120" clip-path="url(#clipPath1)" fill="black" stroke="none" xml:space="preserve">Invalid view - remove from diagram.</text>
<text x="727" y="204" clip-path="url(#clipPath12)" fill="red" stroke="none" xml:space="preserve">Invalid view - remove from diagram.</text>
<line clip-path="url(#clipPath3)" fill="none" x1="428" x2="428" y1="183" y2="51" stroke="red" stroke-width="1.1"/>
<rect x="63" y="95" clip-path="url(#clipPath1)" width="40" height="40" stroke="none" stroke-width="1.1"/>
<rect x="63" y="95" clip-path="url(#clipPath1)" fill="none" width="39" height="39" stroke="black"/>
<text x="-14" y="120" clip-path="url(#clipPath1)" fill="black" stroke="none" xml:space="preserve">Invalid view - remove from diagram.</text>
<rect x="63" y="95" clip-path="url(#clipPath1)" width="40" height="40" stroke="none"/>
<rect x="63" y="95" clip-path="url(#clipPath1)" fill="none" width="39" height="39" stroke="black"/>
<text x="-14" y="120" clip-path="url(#clipPath1)" fill="black" stroke="none" xml:space="preserve">Invalid view - remove from diagram.</text>
<rect x="63" y="95" clip-path="url(#clipPath1)" width="40" height="40" stroke="none"/>
<rect x="63" y="95" clip-path="url(#clipPath1)" fill="none" width="39" height="39" stroke="black"/>
<text x="-14" y="120" clip-path="url(#clipPath1)" fill="black" stroke="none" xml:space="preserve">Invalid view - remove from diagram.</text>
<rect x="63" y="95" clip-path="url(#clipPath1)" width="40" height="40" stroke="none"/>
<rect x="63" y="95" clip-path="url(#clipPath1)" fill="none" width="39" height="39" stroke="black"/>
<text x="-14" y="120" clip-path="url(#clipPath1)" fill="black" stroke="none" xml:space="preserve">Invalid view - remove from diagram.</text>
<rect x="63" y="95" clip-path="url(#clipPath1)" width="40" height="40" stroke="none"/>
<rect x="63" y="95" clip-path="url(#clipPath1)" fill="none" width="39" height="39" stroke="black"/>
<text x="-14" y="120" clip-path="url(#clipPath1)" fill="black" stroke="none" xml:space="preserve">Invalid view - remove from diagram.</text>
<text x="332" y="122" clip-path="url(#clipPath13)" fill="red" stroke="none" xml:space="preserve">Invalid view - remove from diagram.</text>
<line clip-path="url(#clipPath3)" fill="none" x1="141" x2="408" y1="34" y2="34" stroke="red" stroke-width="1.1"/>
<rect x="63" y="95" clip-path="url(#clipPath1)" width="40" height="40" stroke="none" stroke-width="1.1"/>
<rect x="63" y="95" clip-path="url(#clipPath1)" fill="none" width="39" height="39" stroke="black"/>
<text x="-14" y="120" clip-path="url(#clipPath1)" fill="black" stroke="none" xml:space="preserve">Invalid view - remove from diagram.</text>
<rect x="63" y="95" clip-path="url(#clipPath1)" width="40" height="40" stroke="none"/>
<rect x="63" y="95" clip-path="url(#clipPath1)" fill="none" width="39" height="39" stroke="black"/>
<text x="-14" y="120" clip-path="url(#clipPath1)" fill="black" stroke="none" xml:space="preserve">Invalid view - remove from diagram.</text>
<rect x="63" y="95" clip-path="url(#clipPath1)" width="40" height="40" stroke="none"/>
<rect x="63" y="95" clip-path="url(#clipPath1)" fill="none" width="39" height="39" stroke="black"/>
<text x="-14" y="120" clip-path="url(#clipPath1)" fill="black" stroke="none" xml:space="preserve">Invalid view - remove from diagram.</text>
<rect x="63" y="95" clip-path="url(#clipPath1)" width="40" height="40" stroke="none"/>
<rect x="63" y="95" clip-path="url(#clipPath1)" fill="none" width="39" height="39" stroke="black"/>
<text x="-14" y="120" clip-path="url(#clipPath1)" fill="black" stroke="none" xml:space="preserve">Invalid view - remove from diagram.</text>
<rect x="63" y="95" clip-path="url(#clipPath1)" width="40" height="40" stroke="none"/>
<rect x="63" y="95" clip-path="url(#clipPath1)" fill="none" width="39" height="39" stroke="black"/>
<text x="-14" y="120" clip-path="url(#clipPath1)" fill="black" stroke="none" xml:space="preserve">Invalid view - remove from diagram.</text>
<text x="179" y="39" clip-path="url(#clipPath14)" fill="red" stroke="none" xml:space="preserve">Invalid view - remove from diagram.</text>
<line clip-path="url(#clipPath3)" fill="none" x1="119" x2="119" y1="189" y2="50" stroke="red" stroke-width="1.1"/>
<rect x="63" y="95" clip-path="url(#clipPath1)" width="40" height="40" stroke="none" stroke-width="1.1"/>
<rect x="63" y="95" clip-path="url(#clipPath1)" fill="none" width="39" height="39" stroke="black"/>
<text x="-14" y="120" clip-path="url(#clipPath1)" fill="black" stroke="none" xml:space="preserve">Invalid view - remove from diagram.</text>
<rect x="63" y="95" clip-path="url(#clipPath1)" width="40" height="40" stroke="none"/>
<rect x="63" y="95" clip-path="url(#clipPath1)" fill="none" width="39" height="39" stroke="black"/>
<text x="-14" y="120" clip-path="url(#clipPath1)" fill="black" stroke="none" xml:space="preserve">Invalid view - remove from diagram.</text>
<rect x="63" y="95" clip-path="url(#clipPath1)" width="40" height="40" stroke="none"/>
<rect x="63" y="95" clip-path="url(#clipPath1)" fill="none" width="39" height="39" stroke="black"/>
<text x="-14" y="120" clip-path="url(#clipPath1)" fill="black" stroke="none" xml:space="preserve">Invalid view - remove from diagram.</text>
<rect x="63" y="95" clip-path="url(#clipPath1)" width="40" height="40" stroke="none"/>
<rect x="63" y="95" clip-path="url(#clipPath1)" fill="none" width="39" height="39" stroke="black"/>
<text x="-14" y="120" clip-path="url(#clipPath1)" fill="black" stroke="none" xml:space="preserve">Invalid view - remove from diagram.</text>
<rect x="63" y="95" clip-path="url(#clipPath1)" width="40" height="40" stroke="none"/>
<rect x="63" y="95" clip-path="url(#clipPath1)" fill="none" width="39" height="39" stroke="black"/>
<text x="-14" y="120" clip-path="url(#clipPath1)" fill="black" stroke="none" xml:space="preserve">Invalid view - remove from diagram.</text>
<text x="23" y="124" clip-path="url(#clipPath15)" fill="red" stroke="none" xml:space="preserve">Invalid view - remove from diagram.</text>
<line clip-path="url(#clipPath3)" fill="none" x1="255" x2="394" y1="341" y2="386" stroke="red" stroke-width="1.1"/>
<text x="228" y="368" clip-path="url(#clipPath16)" fill="red" stroke="none" stroke-width="1.1" xml:space="preserve">Invalid view - remove from diagram.</text>
<line clip-path="url(#clipPath3)" fill="none" x1="221" x2="142" y1="305" y2="226" stroke="red" stroke-width="1.1"/>
<text x="85" y="270" clip-path="url(#clipPath17)" fill="red" stroke="none" stroke-width="1.1" xml:space="preserve">Invalid view - remove from diagram.</text>
<line clip-path="url(#clipPath3)" fill="none" x1="665" x2="445" y1="69" y2="187" stroke="red" stroke-width="1.1"/>
<text x="459" y="133" clip-path="url(#clipPath18)" fill="red" stroke="none" stroke-width="1.1" xml:space="preserve">Invalid view - remove from diagram.</text>
<line clip-path="url(#clipPath3)" fill="none" x1="1038" x2="1097" y1="258" y2="199" stroke="red" stroke-width="1.1"/>
<text x="972" y="233" clip-path="url(#clipPath19)" fill="red" stroke="none" stroke-width="1.1" xml:space="preserve">Invalid view - remove from diagram.</text>
<line clip-path="url(#clipPath3)" fill="none" x1="721" x2="785" y1="321" y2="379" stroke="red" stroke-width="1.1"/>
<text x="657" y="355" clip-path="url(#clipPath20)" fill="red" stroke="none" stroke-width="1.1" xml:space="preserve">Invalid view - remove from diagram.</text>
<line clip-path="url(#clipPath3)" fill="none" x1="650" x2="506" y1="321" y2="379" stroke="red" stroke-width="1.1"/>
<text x="482" y="355" clip-path="url(#clipPath21)" fill="red" stroke="none" stroke-width="1.1" xml:space="preserve">Invalid view - remove from diagram.</text>
<line clip-path="url(#clipPath3)" fill="none" x1="1456" x2="1248" y1="315" y2="386" stroke="red" stroke-width="1.1"/>
<text x="1257" y="355" clip-path="url(#clipPath22)" fill="red" stroke="none" stroke-width="1.1" xml:space="preserve">Invalid view - remove from diagram.</text>
<line clip-path="url(#clipPath3)" fill="none" x1="718" x2="445" y1="54" y2="190" stroke="red" stroke-width="1.1"/>
<text x="485" y="127" clip-path="url(#clipPath23)" fill="red" stroke="none" stroke-width="1.1" xml:space="preserve">Invalid view - remove from diagram.</text>
</g>
</g>
<rect x="405" y="183" fill-opacity="0" width="40" title="An individual physical connection point (male or female) that is not relevantly divisible.&#13;&#10;May be capable of carrying electrical or optical signals. &#13;&#10;A pin normally has only one wire/fiber strand attached. &#13;&#10;It may have more than one wire/fiber attached but is such that the attachment forms a physical merge (all attached things receive exactly the same signal and any inputs to the pin are electrically/optically merged)." id="Pin" height="40" stroke-opacity="0">
<title>An individual physical connection point (male or female) that is not relevantly divisible.&#13;
May be capable of carrying electrical or optical signals. &#13;
A pin normally has only one wire/fiber strand attached. &#13;
It may have more than one wire/fiber attached but is such that the attachment forms a physical merge (all attached things receive exactly the same signal and any inputs to the pin are electrically/optically merged).</title>
</rect>
<rect x="394" y="379" fill-opacity="0" width="127" title="A group of pins that together provide signal group where any one pin removed from the group will prevent the signals of the signal group from flowing successfully." id="PinGroup" height="40" stroke-opacity="0">
<title>A group of pins that together provide signal group where any one pin removed from the group will prevent the signals of the signal group from flowing successfully.</title>
</rect>
<rect x="101" y="10" fill-opacity="0" width="40" title="The structuring of pins in a connector." id="PinLayout" height="40" stroke-opacity="0">
<title>The structuring of pins in a connector.</title>
</rect>
<rect x="770" y="556" fill-opacity="0" width="40" title="A conceptual access for a group of signals (where that group of signals cannot be separated)." id="AccessPort" height="40" stroke-opacity="0">
<title>A conceptual access for a group of signals (where that group of signals cannot be separated).</title>
</rect>
<rect x="1208" y="380" fill-opacity="0" width="40" title="A single coherent signal as processed by a single LTP." id="SignalRefPt" height="40" stroke-opacity="0">
<title>A single coherent signal as processed by a single LTP.</title>
</rect>
<rect x="737" y="379" fill-opacity="0" width="140" title="A physical indivisible group of signals." id="SignalRefPtGroup" height="40" stroke-opacity="0">
<title>A physical indivisible group of signals.</title>
</rect>
<rect x="102" y="189" fill-opacity="0" width="40" title="Represents a connector that may be fully exposed (e.g. to plug in a cable or on the end of a cable) or partially exposed (e.g. backplane to plug in another piece of equipment such as a module).&#13;&#10;A physical port on the Equipment. A place where signals produced by the functionality of the Equipment may be accessed." id="Connector" height="40" stroke-opacity="0">
<title>Represents a connector that may be fully exposed (e.g. to plug in a cable or on the end of a cable) or partially exposed (e.g. backplane to plug in another piece of equipment such as a module).&#13;
A physical port on the Equipment. A place where signals produced by the functionality of the Equipment may be accessed.</title>
</rect>
<rect x="107" y="379" fill-opacity="0" width="40" title="A group of pins from one or more connectors relevant for some purpose." id="GroupOfPins" height="40" stroke-opacity="0">
<title>A group of pins from one or more connectors relevant for some purpose.</title>
</rect>
<rect x="1201" y="181" fill-opacity="0" width="40" title="The elemental (sub-atomic) parts of an &quot;indivisible&quot; signal where processing in the LTP is required to extract the elemental signals." id="ElementalSignals" height="40" stroke-opacity="0">
<title>The elemental (sub-atomic) parts of an "indivisible" signal where processing in the LTP is required to extract the elemental signals.</title>
</rect>
<rect x="408" y="11" fill-opacity="0" width="40" title="Represents the invariant relative position of the holder (with respect to some frame of reference in an equipment) or connector on an equipment or pin in a connector." id="Position" height="40" stroke-opacity="0">
<title>Represents the invariant relative position of the holder (with respect to some frame of reference in an equipment) or connector on an equipment or pin in a connector.</title>
</rect>
<rect x="490" y="515" fill-opacity="0" width="40" height="40" stroke-opacity="0"/>
<rect x="215" y="305" fill-opacity="0" width="40" height="40" stroke-opacity="0"/>
<rect x="592" y="23" fill-opacity="0" width="116" height="46" stroke-opacity="0"/>
<rect x="942" y="258" fill-opacity="0" width="152" height="40" stroke-opacity="0"/>
<rect x="526" y="281" fill-opacity="0" width="347" height="40" stroke-opacity="0"/>
<rect x="1389" y="269" fill-opacity="0" width="198" height="46" stroke-opacity="0"/>
<rect x="718" y="27" fill-opacity="0" width="370" height="40" stroke-opacity="0"/>
</svg>
