<?xml version="1.0" encoding="UTF-8"?><svg xmlns="http://www.w3.org/2000/svg" xmlns:xlink="http://www.w3.org/1999/xlink" stroke-dasharray="none" shape-rendering="auto" font-family="'Dialog'" width="1311" text-rendering="auto" fill-opacity="1" contentScriptType="text/ecmascript" color-interpolation="auto" color-rendering="auto" preserveAspectRatio="xMidYMid meet" font-size="12" viewBox="0 0 1311 911" fill="black" stroke="black" image-rendering="auto" stroke-miterlimit="10" zoomAndPan="magnify" version="1.0" stroke-linecap="square" stroke-linejoin="miter" contentStyleType="text/css" font-style="normal" height="911" stroke-width="1" stroke-dashoffset="0" font-weight="normal" stroke-opacity="1">
<!--Generated by the Batik Graphics2D SVG Generator-->
<defs id="genericDefs"/>
<g>
<defs id="defs1">
<clipPath clipPathUnits="userSpaceOnUse" id="clipPath1">
<path d="M22 22 L64 22 L64 64 L22 64 L22 22 Z"/>
</clipPath>
<clipPath clipPathUnits="userSpaceOnUse" id="clipPath2">
<path d="M455 704 L649 704 L649 722 L455 722 L455 704 Z"/>
</clipPath>
<clipPath clipPathUnits="userSpaceOnUse" id="clipPath3">
<path d="M-1 -1 L1312 -1 L1312 912 L-1 912 L-1 -1 Z"/>
</clipPath>
<clipPath clipPathUnits="userSpaceOnUse" id="clipPath4">
<path d="M710 231 L904 231 L904 249 L710 249 L710 231 Z"/>
</clipPath>
<clipPath clipPathUnits="userSpaceOnUse" id="clipPath5">
<path d="M881 705 L1075 705 L1075 723 L881 723 L881 705 Z"/>
</clipPath>
<clipPath clipPathUnits="userSpaceOnUse" id="clipPath6">
<path d="M374 326 L568 326 L568 344 L374 344 L374 326 Z"/>
</clipPath>
<clipPath clipPathUnits="userSpaceOnUse" id="clipPath7">
<path d="M400 326 L594 326 L594 344 L400 344 L400 326 Z"/>
</clipPath>
<clipPath clipPathUnits="userSpaceOnUse" id="clipPath8">
<path d="M512 326 L706 326 L706 344 L512 344 L512 326 Z"/>
</clipPath>
<clipPath clipPathUnits="userSpaceOnUse" id="clipPath9">
<path d="M818 871 L1012 871 L1012 889 L818 889 L818 871 Z"/>
</clipPath>
<clipPath clipPathUnits="userSpaceOnUse" id="clipPath10">
<path d="M48 181 L242 181 L242 199 L48 199 L48 181 Z"/>
</clipPath>
<clipPath clipPathUnits="userSpaceOnUse" id="clipPath11">
<path d="M1024 74 L1218 74 L1218 92 L1024 92 L1024 74 Z"/>
</clipPath>
<clipPath clipPathUnits="userSpaceOnUse" id="clipPath12">
<path d="M706 370 L900 370 L900 388 L706 388 L706 370 Z"/>
</clipPath>
<clipPath clipPathUnits="userSpaceOnUse" id="clipPath13">
<path d="M656 859 L850 859 L850 877 L656 877 L656 859 Z"/>
</clipPath>
<clipPath clipPathUnits="userSpaceOnUse" id="clipPath14">
<path d="M777 647 L971 647 L971 665 L777 665 L777 647 Z"/>
</clipPath>
<clipPath clipPathUnits="userSpaceOnUse" id="clipPath15">
<path d="M401 691 L595 691 L595 709 L401 709 L401 691 Z"/>
</clipPath>
<clipPath clipPathUnits="userSpaceOnUse" id="clipPath16">
<path d="M1073 780 L1267 780 L1267 798 L1073 798 L1073 780 Z"/>
</clipPath>
</defs>
<g fill="rgb(255,203,203)" font-family="'Segoe UI'" stroke-linejoin="round" stroke="rgb(255,203,203)" stroke-width="0" stroke-miterlimit="0">
<rect width="40" x="442" height="112" y="70" stroke="none"/>
</g>
<g stroke-linecap="butt" font-family="'Segoe UI'">
<rect fill="none" width="39" x="442" height="111" y="70"/>
<text xml:space="preserve" x="365" y="131" stroke="none">Invalid view - remove from diagram.</text>
<rect x="482" y="488" fill="rgb(255,203,203)" width="40" height="40" stroke="none"/>
<rect x="482" y="488" fill="none" width="39" height="39" stroke-width="0.1"/>
<text xml:space="preserve" x="405" stroke-width="0.1" y="513" stroke="none">Invalid view - remove from diagram.</text>
</g>
<g stroke-linecap="butt" fill="rgb(255,203,203)" font-family="'Segoe UI'" font-style="italic" stroke="rgb(255,203,203)" stroke-width="0.1">
<rect width="40" x="781" height="40" y="704" stroke="none"/>
<rect x="781" y="704" fill="none" width="39" height="39" stroke="black"/>
<text fill="black" xml:space="preserve" x="705" y="729" stroke="none">Invalid view - remove from diagram.</text>
<rect width="40" x="1136" height="40" y="704" stroke="none"/>
<rect x="1136" y="704" fill="none" width="39" height="39" stroke="black"/>
<text x="1059" y="729" fill="black" font-style="normal" stroke="none" xml:space="preserve">Invalid view - remove from diagram.</text>
<rect width="136" x="569" height="40" y="840" stroke="none"/>
<rect x="569" y="840" fill="none" width="135" height="39" stroke="black"/>
<text x="540" y="865" fill="black" font-style="normal" stroke="none" xml:space="preserve">Invalid view - remove from diagram.</text>
<rect width="140" x="925" height="40" y="568" stroke="none"/>
<rect x="925" y="568" fill="none" width="139" height="39" stroke="black"/>
<text x="898" y="593" fill="black" font-style="normal" stroke="none" xml:space="preserve">Invalid view - remove from diagram.</text>
<rect width="154" x="261" height="40" y="28" stroke="none"/>
<rect x="261" y="28" fill="none" width="153" height="39" stroke="black"/>
<text x="241" y="53" fill="black" font-style="normal" stroke="none" xml:space="preserve">Invalid view - remove from diagram.</text>
<rect width="107" x="380" height="40" y="696" stroke="none"/>
<rect x="380" y="696" fill="none" width="106" height="39" stroke="black"/>
<text x="337" y="721" fill="black" font-style="normal" stroke="none" xml:space="preserve">Invalid view - remove from diagram.</text>
<rect width="126" x="266" height="46" y="286" stroke="none"/>
<rect x="266" y="286" fill="none" width="125" height="45" stroke="black"/>
<text x="232" y="314" fill="black" font-style="normal" stroke="none" xml:space="preserve">Invalid view - remove from diagram.</text>
<rect width="127" x="266" height="40" y="354" stroke="none"/>
<rect x="266" y="354" fill="none" width="126" height="39" stroke="black"/>
<text x="233" y="379" fill="black" font-style="normal" stroke="none" xml:space="preserve">Invalid view - remove from diagram.</text>
<rect width="257" x="1044" height="40" y="835" stroke="none"/>
<rect x="1044" y="835" fill="none" width="256" height="39" stroke="black"/>
<text x="1076" y="860" fill="black" font-style="normal" stroke="none" xml:space="preserve">Invalid view - remove from diagram.</text>
</g>
<g fill="red" stroke-width="1.1" font-family="'Segoe UI'" stroke-linecap="butt" stroke="red">
<line y2="713" fill="none" x1="781" x2="515" y1="713"/>
<line y2="702" fill="none" x1="515" x2="515" y1="713"/>
<line y2="702" fill="none" x1="515" x2="509" y1="702"/>
<line y2="528" fill="none" x1="509" x2="509" y1="702"/>
<rect x="23" y="23" clip-path="url(#clipPath1)" fill="rgb(255,203,203)" width="40" height="40" stroke="none"/>
<rect x="23" y="23" clip-path="url(#clipPath1)" fill="none" width="39" height="39" stroke="black" stroke-width="0.1"/>
<text x="-54" y="48" clip-path="url(#clipPath1)" fill="black" stroke="none" stroke-width="0.1" xml:space="preserve">Invalid view - remove from diagram.</text>
<rect x="23" y="23" clip-path="url(#clipPath1)" fill="rgb(255,203,203)" width="40" height="40" stroke="none" stroke-width="0.1"/>
<rect x="23" y="23" clip-path="url(#clipPath1)" fill="none" width="39" height="39" stroke="black" stroke-width="0.1"/>
<text x="-54" y="48" clip-path="url(#clipPath1)" fill="black" stroke="none" stroke-width="0.1" xml:space="preserve">Invalid view - remove from diagram.</text>
<rect x="23" y="23" clip-path="url(#clipPath1)" fill="rgb(255,203,203)" width="40" height="40" stroke="none" stroke-width="0.1"/>
<rect x="23" y="23" clip-path="url(#clipPath1)" fill="none" width="39" height="39" stroke="black" stroke-width="0.1"/>
<text x="-54" y="48" clip-path="url(#clipPath1)" fill="black" stroke="none" stroke-width="0.1" xml:space="preserve">Invalid view - remove from diagram.</text>
<rect x="23" y="23" clip-path="url(#clipPath1)" fill="rgb(255,203,203)" width="40" height="40" stroke="none" stroke-width="0.1"/>
<rect x="23" y="23" clip-path="url(#clipPath1)" fill="none" width="39" height="39" stroke="black" stroke-width="0.1"/>
<text x="-54" y="48" clip-path="url(#clipPath1)" fill="black" stroke="none" stroke-width="0.1" xml:space="preserve">Invalid view - remove from diagram.</text>
<rect x="23" y="23" clip-path="url(#clipPath1)" fill="rgb(255,203,203)" width="40" height="40" stroke="none" stroke-width="0.1"/>
<rect x="23" y="23" clip-path="url(#clipPath1)" fill="none" width="39" height="39" stroke="black" stroke-width="0.1"/>
<text x="-54" y="48" clip-path="url(#clipPath1)" fill="black" stroke="none" stroke-width="0.1" xml:space="preserve">Invalid view - remove from diagram.</text>
<text x="456" y="718" clip-path="url(#clipPath2)" stroke="none" stroke-width="0.1" xml:space="preserve">Invalid view - remove from diagram.</text>
<line clip-path="url(#clipPath3)" fill="none" x1="807" x2="807" y1="704" y2="103"/>
<line clip-path="url(#clipPath3)" fill="none" x1="807" x2="720" y1="103" y2="103"/>
<line clip-path="url(#clipPath3)" fill="none" x1="720" x2="720" y1="103" y2="101"/>
<line clip-path="url(#clipPath3)" fill="none" x1="720" x2="482" y1="101" y2="101"/>
<rect x="23" y="23" clip-path="url(#clipPath1)" fill="rgb(255,203,203)" width="40" height="40" stroke="none"/>
<rect x="23" y="23" clip-path="url(#clipPath1)" fill="none" width="39" height="39" stroke="black" stroke-width="0.1"/>
<text x="-54" y="48" clip-path="url(#clipPath1)" fill="black" stroke="none" stroke-width="0.1" xml:space="preserve">Invalid view - remove from diagram.</text>
<rect x="23" y="23" clip-path="url(#clipPath1)" fill="rgb(255,203,203)" width="40" height="40" stroke="none" stroke-width="0.1"/>
<rect x="23" y="23" clip-path="url(#clipPath1)" fill="none" width="39" height="39" stroke="black" stroke-width="0.1"/>
<text x="-54" y="48" clip-path="url(#clipPath1)" fill="black" stroke="none" stroke-width="0.1" xml:space="preserve">Invalid view - remove from diagram.</text>
<rect x="23" y="23" clip-path="url(#clipPath1)" fill="rgb(255,203,203)" width="40" height="40" stroke="none" stroke-width="0.1"/>
<rect x="23" y="23" clip-path="url(#clipPath1)" fill="none" width="39" height="39" stroke="black" stroke-width="0.1"/>
<text x="-54" y="48" clip-path="url(#clipPath1)" fill="black" stroke="none" stroke-width="0.1" xml:space="preserve">Invalid view - remove from diagram.</text>
<rect x="23" y="23" clip-path="url(#clipPath1)" fill="rgb(255,203,203)" width="40" height="40" stroke="none" stroke-width="0.1"/>
<rect x="23" y="23" clip-path="url(#clipPath1)" fill="none" width="39" height="39" stroke="black" stroke-width="0.1"/>
<text x="-54" y="48" clip-path="url(#clipPath1)" fill="black" stroke="none" stroke-width="0.1" xml:space="preserve">Invalid view - remove from diagram.</text>
<rect x="23" y="23" clip-path="url(#clipPath1)" fill="rgb(255,203,203)" width="40" height="40" stroke="none" stroke-width="0.1"/>
<rect x="23" y="23" clip-path="url(#clipPath1)" fill="none" width="39" height="39" stroke="black" stroke-width="0.1"/>
<text x="-54" y="48" clip-path="url(#clipPath1)" fill="black" stroke="none" stroke-width="0.1" xml:space="preserve">Invalid view - remove from diagram.</text>
<text x="711" y="245" clip-path="url(#clipPath4)" stroke="none" stroke-width="0.1" xml:space="preserve">Invalid view - remove from diagram.</text>
<line clip-path="url(#clipPath3)" fill="none" x1="1136" x2="978" y1="719" y2="719"/>
<line clip-path="url(#clipPath3)" fill="none" x1="978" x2="978" y1="719" y2="708"/>
<line clip-path="url(#clipPath3)" fill="none" x1="978" x2="821" y1="708" y2="708"/>
<rect x="23" y="23" clip-path="url(#clipPath1)" fill="rgb(255,203,203)" width="40" height="40" stroke="none"/>
<rect x="23" y="23" clip-path="url(#clipPath1)" fill="none" width="39" height="39" stroke="black" stroke-width="0.1"/>
<text x="-54" y="48" clip-path="url(#clipPath1)" fill="black" stroke="none" stroke-width="0.1" xml:space="preserve">Invalid view - remove from diagram.</text>
<rect x="23" y="23" clip-path="url(#clipPath1)" fill="rgb(255,203,203)" width="40" height="40" stroke="none" stroke-width="0.1"/>
<rect x="23" y="23" clip-path="url(#clipPath1)" fill="none" width="39" height="39" stroke="black" stroke-width="0.1"/>
<text x="-54" y="48" clip-path="url(#clipPath1)" fill="black" stroke="none" stroke-width="0.1" xml:space="preserve">Invalid view - remove from diagram.</text>
<rect x="23" y="23" clip-path="url(#clipPath1)" fill="rgb(255,203,203)" width="40" height="40" stroke="none" stroke-width="0.1"/>
<rect x="23" y="23" clip-path="url(#clipPath1)" fill="none" width="39" height="39" stroke="black" stroke-width="0.1"/>
<text x="-54" y="48" clip-path="url(#clipPath1)" fill="black" stroke="none" stroke-width="0.1" xml:space="preserve">Invalid view - remove from diagram.</text>
<rect x="23" y="23" clip-path="url(#clipPath1)" fill="rgb(255,203,203)" width="40" height="40" stroke="none" stroke-width="0.1"/>
<rect x="23" y="23" clip-path="url(#clipPath1)" fill="none" width="39" height="39" stroke="black" stroke-width="0.1"/>
<text x="-54" y="48" clip-path="url(#clipPath1)" fill="black" stroke="none" stroke-width="0.1" xml:space="preserve">Invalid view - remove from diagram.</text>
<rect x="23" y="23" clip-path="url(#clipPath1)" fill="rgb(255,203,203)" width="40" height="40" stroke="none" stroke-width="0.1"/>
<rect x="23" y="23" clip-path="url(#clipPath1)" fill="none" width="39" height="39" stroke="black" stroke-width="0.1"/>
<text x="-54" y="48" clip-path="url(#clipPath1)" fill="black" stroke="none" stroke-width="0.1" xml:space="preserve">Invalid view - remove from diagram.</text>
<text x="882" y="719" clip-path="url(#clipPath5)" stroke="none" stroke-width="0.1" xml:space="preserve">Invalid view - remove from diagram.</text>
<line clip-path="url(#clipPath3)" fill="none" x1="450" x2="450" y1="182" y2="335"/>
<line clip-path="url(#clipPath3)" fill="none" x1="450" x2="492" y1="335" y2="335"/>
<line clip-path="url(#clipPath3)" fill="none" x1="492" x2="492" y1="335" y2="488"/>
<rect x="23" y="23" clip-path="url(#clipPath1)" fill="rgb(255,203,203)" width="40" height="40" stroke="none"/>
<rect x="23" y="23" clip-path="url(#clipPath1)" fill="none" width="39" height="39" stroke="black" stroke-width="0.1"/>
<text x="-54" y="48" clip-path="url(#clipPath1)" fill="black" stroke="none" stroke-width="0.1" xml:space="preserve">Invalid view - remove from diagram.</text>
<rect x="23" y="23" clip-path="url(#clipPath1)" fill="rgb(255,203,203)" width="40" height="40" stroke="none" stroke-width="0.1"/>
<rect x="23" y="23" clip-path="url(#clipPath1)" fill="none" width="39" height="39" stroke="black" stroke-width="0.1"/>
<text x="-54" y="48" clip-path="url(#clipPath1)" fill="black" stroke="none" stroke-width="0.1" xml:space="preserve">Invalid view - remove from diagram.</text>
<rect x="23" y="23" clip-path="url(#clipPath1)" fill="rgb(255,203,203)" width="40" height="40" stroke="none" stroke-width="0.1"/>
<rect x="23" y="23" clip-path="url(#clipPath1)" fill="none" width="39" height="39" stroke="black" stroke-width="0.1"/>
<text x="-54" y="48" clip-path="url(#clipPath1)" fill="black" stroke="none" stroke-width="0.1" xml:space="preserve">Invalid view - remove from diagram.</text>
<rect x="23" y="23" clip-path="url(#clipPath1)" fill="rgb(255,203,203)" width="40" height="40" stroke="none" stroke-width="0.1"/>
<rect x="23" y="23" clip-path="url(#clipPath1)" fill="none" width="39" height="39" stroke="black" stroke-width="0.1"/>
<text x="-54" y="48" clip-path="url(#clipPath1)" fill="black" stroke="none" stroke-width="0.1" xml:space="preserve">Invalid view - remove from diagram.</text>
<rect x="23" y="23" clip-path="url(#clipPath1)" fill="rgb(255,203,203)" width="40" height="40" stroke="none" stroke-width="0.1"/>
<rect x="23" y="23" clip-path="url(#clipPath1)" fill="none" width="39" height="39" stroke="black" stroke-width="0.1"/>
<text x="-54" y="48" clip-path="url(#clipPath1)" fill="black" stroke="none" stroke-width="0.1" xml:space="preserve">Invalid view - remove from diagram.</text>
<text x="375" y="340" clip-path="url(#clipPath6)" stroke="none" stroke-width="0.1" xml:space="preserve">Invalid view - remove from diagram.</text>
<line clip-path="url(#clipPath3)" fill="none" x1="477" x2="477" y1="182" y2="335"/>
<line clip-path="url(#clipPath3)" fill="none" x1="477" x2="516" y1="335" y2="335"/>
<line clip-path="url(#clipPath3)" fill="none" x1="516" x2="516" y1="335" y2="488"/>
<rect x="23" y="23" clip-path="url(#clipPath1)" fill="rgb(255,203,203)" width="40" height="40" stroke="none"/>
<rect x="23" y="23" clip-path="url(#clipPath1)" fill="none" width="39" height="39" stroke="black" stroke-width="0.1"/>
<text x="-54" y="48" clip-path="url(#clipPath1)" fill="black" stroke="none" stroke-width="0.1" xml:space="preserve">Invalid view - remove from diagram.</text>
<rect x="23" y="23" clip-path="url(#clipPath1)" fill="rgb(255,203,203)" width="40" height="40" stroke="none" stroke-width="0.1"/>
<rect x="23" y="23" clip-path="url(#clipPath1)" fill="none" width="39" height="39" stroke="black" stroke-width="0.1"/>
<text x="-54" y="48" clip-path="url(#clipPath1)" fill="black" stroke="none" stroke-width="0.1" xml:space="preserve">Invalid view - remove from diagram.</text>
<rect x="23" y="23" clip-path="url(#clipPath1)" fill="rgb(255,203,203)" width="40" height="40" stroke="none" stroke-width="0.1"/>
<rect x="23" y="23" clip-path="url(#clipPath1)" fill="none" width="39" height="39" stroke="black" stroke-width="0.1"/>
<text x="-54" y="48" clip-path="url(#clipPath1)" fill="black" stroke="none" stroke-width="0.1" xml:space="preserve">Invalid view - remove from diagram.</text>
<rect x="23" y="23" clip-path="url(#clipPath1)" fill="rgb(255,203,203)" width="40" height="40" stroke="none" stroke-width="0.1"/>
<rect x="23" y="23" clip-path="url(#clipPath1)" fill="none" width="39" height="39" stroke="black" stroke-width="0.1"/>
<text x="-54" y="48" clip-path="url(#clipPath1)" fill="black" stroke="none" stroke-width="0.1" xml:space="preserve">Invalid view - remove from diagram.</text>
<rect x="23" y="23" clip-path="url(#clipPath1)" fill="rgb(255,203,203)" width="40" height="40" stroke="none" stroke-width="0.1"/>
<rect x="23" y="23" clip-path="url(#clipPath1)" fill="none" width="39" height="39" stroke="black" stroke-width="0.1"/>
<text x="-54" y="48" clip-path="url(#clipPath1)" fill="black" stroke="none" stroke-width="0.1" xml:space="preserve">Invalid view - remove from diagram.</text>
<text x="401" y="340" clip-path="url(#clipPath7)" stroke="none" stroke-width="0.1" xml:space="preserve">Invalid view - remove from diagram.</text>
<line clip-path="url(#clipPath3)" fill="none" x1="522" x2="628" y1="508" y2="508"/>
<line clip-path="url(#clipPath3)" fill="none" x1="628" x2="628" y1="508" y2="493"/>
<line clip-path="url(#clipPath3)" fill="none" x1="628" x2="609" y1="493" y2="493"/>
<line clip-path="url(#clipPath3)" fill="none" x1="609" x2="609" y1="493" y2="165"/>
<line clip-path="url(#clipPath3)" fill="none" x1="609" x2="482" y1="165" y2="165"/>
<rect x="23" y="23" clip-path="url(#clipPath1)" fill="rgb(255,203,203)" width="40" height="40" stroke="none"/>
<rect x="23" y="23" clip-path="url(#clipPath1)" fill="none" width="39" height="39" stroke="black" stroke-width="0.1"/>
<text x="-54" y="48" clip-path="url(#clipPath1)" fill="black" stroke="none" stroke-width="0.1" xml:space="preserve">Invalid view - remove from diagram.</text>
<rect x="23" y="23" clip-path="url(#clipPath1)" fill="rgb(255,203,203)" width="40" height="40" stroke="none" stroke-width="0.1"/>
<rect x="23" y="23" clip-path="url(#clipPath1)" fill="none" width="39" height="39" stroke="black" stroke-width="0.1"/>
<text x="-54" y="48" clip-path="url(#clipPath1)" fill="black" stroke="none" stroke-width="0.1" xml:space="preserve">Invalid view - remove from diagram.</text>
<rect x="23" y="23" clip-path="url(#clipPath1)" fill="rgb(255,203,203)" width="40" height="40" stroke="none" stroke-width="0.1"/>
<rect x="23" y="23" clip-path="url(#clipPath1)" fill="none" width="39" height="39" stroke="black" stroke-width="0.1"/>
<text x="-54" y="48" clip-path="url(#clipPath1)" fill="black" stroke="none" stroke-width="0.1" xml:space="preserve">Invalid view - remove from diagram.</text>
<rect x="23" y="23" clip-path="url(#clipPath1)" fill="rgb(255,203,203)" width="40" height="40" stroke="none" stroke-width="0.1"/>
<rect x="23" y="23" clip-path="url(#clipPath1)" fill="none" width="39" height="39" stroke="black" stroke-width="0.1"/>
<text x="-54" y="48" clip-path="url(#clipPath1)" fill="black" stroke="none" stroke-width="0.1" xml:space="preserve">Invalid view - remove from diagram.</text>
<rect x="23" y="23" clip-path="url(#clipPath1)" fill="rgb(255,203,203)" width="40" height="40" stroke="none" stroke-width="0.1"/>
<rect x="23" y="23" clip-path="url(#clipPath1)" fill="none" width="39" height="39" stroke="black" stroke-width="0.1"/>
<text x="-54" y="48" clip-path="url(#clipPath1)" fill="black" stroke="none" stroke-width="0.1" xml:space="preserve">Invalid view - remove from diagram.</text>
<text x="513" y="340" clip-path="url(#clipPath8)" stroke="none" stroke-width="0.1" xml:space="preserve">Invalid view - remove from diagram.</text>
<line clip-path="url(#clipPath3)" fill="none" x1="821" x2="915" y1="724" y2="724"/>
<line clip-path="url(#clipPath3)" fill="none" x1="915" x2="915" y1="724" y2="880"/>
<line clip-path="url(#clipPath3)" fill="none" x1="915" x2="801" y1="880" y2="880"/>
<line clip-path="url(#clipPath3)" fill="none" x1="801" x2="801" y1="880" y2="744"/>
<rect x="23" y="23" clip-path="url(#clipPath1)" fill="rgb(255,203,203)" width="40" height="40" stroke="none"/>
<rect x="23" y="23" clip-path="url(#clipPath1)" fill="none" width="39" height="39" stroke="black" stroke-width="0.1"/>
<text x="-54" y="48" clip-path="url(#clipPath1)" fill="black" stroke="none" stroke-width="0.1" xml:space="preserve">Invalid view - remove from diagram.</text>
<rect x="23" y="23" clip-path="url(#clipPath1)" fill="rgb(255,203,203)" width="40" height="40" stroke="none" stroke-width="0.1"/>
<rect x="23" y="23" clip-path="url(#clipPath1)" fill="none" width="39" height="39" stroke="black" stroke-width="0.1"/>
<text x="-54" y="48" clip-path="url(#clipPath1)" fill="black" stroke="none" stroke-width="0.1" xml:space="preserve">Invalid view - remove from diagram.</text>
<rect x="23" y="23" clip-path="url(#clipPath1)" fill="rgb(255,203,203)" width="40" height="40" stroke="none" stroke-width="0.1"/>
<rect x="23" y="23" clip-path="url(#clipPath1)" fill="none" width="39" height="39" stroke="black" stroke-width="0.1"/>
<text x="-54" y="48" clip-path="url(#clipPath1)" fill="black" stroke="none" stroke-width="0.1" xml:space="preserve">Invalid view - remove from diagram.</text>
<rect x="23" y="23" clip-path="url(#clipPath1)" fill="rgb(255,203,203)" width="40" height="40" stroke="none" stroke-width="0.1"/>
<rect x="23" y="23" clip-path="url(#clipPath1)" fill="none" width="39" height="39" stroke="black" stroke-width="0.1"/>
<text x="-54" y="48" clip-path="url(#clipPath1)" fill="black" stroke="none" stroke-width="0.1" xml:space="preserve">Invalid view - remove from diagram.</text>
<rect x="23" y="23" clip-path="url(#clipPath1)" fill="rgb(255,203,203)" width="40" height="40" stroke="none" stroke-width="0.1"/>
<rect x="23" y="23" clip-path="url(#clipPath1)" fill="none" width="39" height="39" stroke="black" stroke-width="0.1"/>
<text x="-54" y="48" clip-path="url(#clipPath1)" fill="black" stroke="none" stroke-width="0.1" xml:space="preserve">Invalid view - remove from diagram.</text>
<text x="819" y="885" clip-path="url(#clipPath9)" stroke="none" stroke-width="0.1" xml:space="preserve">Invalid view - remove from diagram.</text>
<line clip-path="url(#clipPath3)" fill="none" x1="442" x2="124" y1="126" y2="126"/>
<line clip-path="url(#clipPath3)" fill="none" x1="124" x2="124" y1="126" y2="129"/>
<line clip-path="url(#clipPath3)" fill="none" x1="124" x2="145" y1="129" y2="129"/>
<line clip-path="url(#clipPath3)" fill="none" x1="145" x2="145" y1="129" y2="229"/>
<line clip-path="url(#clipPath3)" fill="none" x1="145" x2="462" y1="229" y2="229"/>
<line clip-path="url(#clipPath3)" fill="none" x1="462" x2="462" y1="229" y2="182"/>
<rect x="23" y="23" clip-path="url(#clipPath1)" fill="rgb(255,203,203)" width="40" height="40" stroke="none"/>
<rect x="23" y="23" clip-path="url(#clipPath1)" fill="none" width="39" height="39" stroke="black" stroke-width="0.1"/>
<text x="-54" y="48" clip-path="url(#clipPath1)" fill="black" stroke="none" stroke-width="0.1" xml:space="preserve">Invalid view - remove from diagram.</text>
<rect x="23" y="23" clip-path="url(#clipPath1)" fill="rgb(255,203,203)" width="40" height="40" stroke="none" stroke-width="0.1"/>
<rect x="23" y="23" clip-path="url(#clipPath1)" fill="none" width="39" height="39" stroke="black" stroke-width="0.1"/>
<text x="-54" y="48" clip-path="url(#clipPath1)" fill="black" stroke="none" stroke-width="0.1" xml:space="preserve">Invalid view - remove from diagram.</text>
<rect x="23" y="23" clip-path="url(#clipPath1)" fill="rgb(255,203,203)" width="40" height="40" stroke="none" stroke-width="0.1"/>
<rect x="23" y="23" clip-path="url(#clipPath1)" fill="none" width="39" height="39" stroke="black" stroke-width="0.1"/>
<text x="-54" y="48" clip-path="url(#clipPath1)" fill="black" stroke="none" stroke-width="0.1" xml:space="preserve">Invalid view - remove from diagram.</text>
<rect x="23" y="23" clip-path="url(#clipPath1)" fill="rgb(255,203,203)" width="40" height="40" stroke="none" stroke-width="0.1"/>
<rect x="23" y="23" clip-path="url(#clipPath1)" fill="none" width="39" height="39" stroke="black" stroke-width="0.1"/>
<text x="-54" y="48" clip-path="url(#clipPath1)" fill="black" stroke="none" stroke-width="0.1" xml:space="preserve">Invalid view - remove from diagram.</text>
<rect x="23" y="23" clip-path="url(#clipPath1)" fill="rgb(255,203,203)" width="40" height="40" stroke="none" stroke-width="0.1"/>
<rect x="23" y="23" clip-path="url(#clipPath1)" fill="none" width="39" height="39" stroke="black" stroke-width="0.1"/>
<text x="-54" y="48" clip-path="url(#clipPath1)" fill="black" stroke="none" stroke-width="0.1" xml:space="preserve">Invalid view - remove from diagram.</text>
<text x="49" y="195" clip-path="url(#clipPath10)" stroke="none" stroke-width="0.1" xml:space="preserve">Invalid view - remove from diagram.</text>
<line clip-path="url(#clipPath3)" fill="none" x1="482" x2="1084" y1="96" y2="96"/>
<line clip-path="url(#clipPath3)" fill="none" x1="1084" x2="1084" y1="96" y2="83"/>
<line clip-path="url(#clipPath3)" fill="none" x1="1084" x2="1152" y1="83" y2="83"/>
<line clip-path="url(#clipPath3)" fill="none" x1="1152" x2="1152" y1="83" y2="704"/>
<rect x="23" y="23" clip-path="url(#clipPath1)" fill="rgb(255,203,203)" width="40" height="40" stroke="none"/>
<rect x="23" y="23" clip-path="url(#clipPath1)" fill="none" width="39" height="39" stroke="black" stroke-width="0.1"/>
<text x="-54" y="48" clip-path="url(#clipPath1)" fill="black" stroke="none" stroke-width="0.1" xml:space="preserve">Invalid view - remove from diagram.</text>
<rect x="23" y="23" clip-path="url(#clipPath1)" fill="rgb(255,203,203)" width="40" height="40" stroke="none" stroke-width="0.1"/>
<rect x="23" y="23" clip-path="url(#clipPath1)" fill="none" width="39" height="39" stroke="black" stroke-width="0.1"/>
<text x="-54" y="48" clip-path="url(#clipPath1)" fill="black" stroke="none" stroke-width="0.1" xml:space="preserve">Invalid view - remove from diagram.</text>
<rect x="23" y="23" clip-path="url(#clipPath1)" fill="rgb(255,203,203)" width="40" height="40" stroke="none" stroke-width="0.1"/>
<rect x="23" y="23" clip-path="url(#clipPath1)" fill="none" width="39" height="39" stroke="black" stroke-width="0.1"/>
<text x="-54" y="48" clip-path="url(#clipPath1)" fill="black" stroke="none" stroke-width="0.1" xml:space="preserve">Invalid view - remove from diagram.</text>
<rect x="23" y="23" clip-path="url(#clipPath1)" fill="rgb(255,203,203)" width="40" height="40" stroke="none" stroke-width="0.1"/>
<rect x="23" y="23" clip-path="url(#clipPath1)" fill="none" width="39" height="39" stroke="black" stroke-width="0.1"/>
<text x="-54" y="48" clip-path="url(#clipPath1)" fill="black" stroke="none" stroke-width="0.1" xml:space="preserve">Invalid view - remove from diagram.</text>
<rect x="23" y="23" clip-path="url(#clipPath1)" fill="rgb(255,203,203)" width="40" height="40" stroke="none" stroke-width="0.1"/>
<rect x="23" y="23" clip-path="url(#clipPath1)" fill="none" width="39" height="39" stroke="black" stroke-width="0.1"/>
<text x="-54" y="48" clip-path="url(#clipPath1)" fill="black" stroke="none" stroke-width="0.1" xml:space="preserve">Invalid view - remove from diagram.</text>
<text x="1025" y="88" clip-path="url(#clipPath11)" stroke="none" stroke-width="0.1" xml:space="preserve">Invalid view - remove from diagram.</text>
<line clip-path="url(#clipPath3)" fill="none" x1="1152" x2="803" y1="449" y2="449"/>
<line clip-path="url(#clipPath3)" fill="none" x1="803" x2="803" y1="449" y2="339"/>
<line clip-path="url(#clipPath3)" fill="none" x1="803" x2="817" y1="339" y2="339"/>
<line clip-path="url(#clipPath3)" fill="none" x1="817" x2="817" y1="339" y2="704"/>
<rect x="23" y="23" clip-path="url(#clipPath1)" fill="rgb(255,203,203)" width="40" height="40" stroke="none"/>
<rect x="23" y="23" clip-path="url(#clipPath1)" fill="none" width="39" height="39" stroke="black" stroke-width="0.1"/>
<text x="-54" y="48" clip-path="url(#clipPath1)" fill="black" stroke="none" stroke-width="0.1" xml:space="preserve">Invalid view - remove from diagram.</text>
<rect x="23" y="23" clip-path="url(#clipPath1)" fill="rgb(255,203,203)" width="40" height="40" stroke="none" stroke-width="0.1"/>
<rect x="23" y="23" clip-path="url(#clipPath1)" fill="none" width="39" height="39" stroke="black" stroke-width="0.1"/>
<text x="-54" y="48" clip-path="url(#clipPath1)" fill="black" stroke="none" stroke-width="0.1" xml:space="preserve">Invalid view - remove from diagram.</text>
<text x="707" y="384" clip-path="url(#clipPath12)" stroke="none" stroke-width="0.1" xml:space="preserve">Invalid view - remove from diagram.</text>
<line clip-path="url(#clipPath3)" fill="none" x1="705" x2="801" y1="865" y2="872"/>
<text xml:space="preserve" x="657" y="873" clip-path="url(#clipPath13)" stroke="none">Invalid view - remove from diagram.</text>
<line clip-path="url(#clipPath3)" fill="none" x1="937" x2="812" y1="608" y2="704"/>
<text xml:space="preserve" x="778" y="661" clip-path="url(#clipPath14)" stroke="none">Invalid view - remove from diagram.</text>
<line clip-path="url(#clipPath3)" fill="none" x1="487" x2="509" y1="706" y2="694"/>
<text xml:space="preserve" x="402" y="705" clip-path="url(#clipPath15)" stroke="none">Invalid view - remove from diagram.</text>
<line clip-path="url(#clipPath3)" fill="none" x1="1191" x2="1150" y1="835" y2="744"/>
<text xml:space="preserve" x="1074" y="794" clip-path="url(#clipPath16)" stroke="none">Invalid view - remove from diagram.</text>
</g>
</g>
<rect x="442" y="70" fill-opacity="0" width="40" title="Represents any relevant physical thing. &#13;&#10;Can be either field replaceable or not field replaceable.&#13;&#10;Note: The model is currently constrained to inside plant." id="Equipment" height="112" stroke-opacity="0">
<title>Represents any relevant physical thing. &#13;
Can be either field replaceable or not field replaceable.&#13;
Note: The model is currently constrained to inside plant.</title>
</rect>
<rect x="0" y="0" fill-opacity="0" width="0" title="Indicates whether or not the equipment can be removed and replaced &quot;in the field&quot; (i.e. in a deployment) by normal operations personnel. &#13;&#10;" id="isFieldReplaceable" height="0" stroke-opacity="0">
<title>Indicates whether or not the equipment can be removed and replaced "in the field" (i.e. in a deployment) by normal operations personnel. &#13;
</title>
</rect>
<rect x="482" y="488" fill-opacity="0" width="40" title="Represents a space in an equipment in which another equipment can be fitted in the field." id="Holder" height="40" stroke-opacity="0">
<title>Represents a space in an equipment in which another equipment can be fitted in the field.</title>
</rect>
<rect x="781" y="704" fill-opacity="0" width="40" title="Represents a connector that may be fully exposed (e.g. to plug in a cable or on the end of a cable) or partially exposed (e.g. backplane to plug in another piece of equipment such as a module).&#13;&#10;A physical port on the Equipment. A place where signals produced by the functionality of the Equipment may be accessed." id="Connector" height="40" stroke-opacity="0">
<title>Represents a connector that may be fully exposed (e.g. to plug in a cable or on the end of a cable) or partially exposed (e.g. backplane to plug in another piece of equipment such as a module).&#13;
A physical port on the Equipment. A place where signals produced by the functionality of the Equipment may be accessed.</title>
</rect>
<rect x="1136" y="704" fill-opacity="0" width="40" title="Basic model representing a cable with connectors fitted where the cable is &quot;short&quot; (e.g.  patch cord, in-station cabling).&#13;&#10;This is intentionally a very basic representation of a cable. &#13;&#10;In a more sophisticated representation cable ends might be represented that then associate to the attached connector. &#13;&#10;At this point it is assumed that the basic model is sufficient." id="Cable" height="40" stroke-opacity="0">
<title>Basic model representing a cable with connectors fitted where the cable is "short" (e.g.  patch cord, in-station cabling).&#13;
This is intentionally a very basic representation of a cable. &#13;
In a more sophisticated representation cable ends might be represented that then associate to the attached connector. &#13;
At this point it is assumed that the basic model is sufficient.</title>
</rect>
<rect x="569" y="840" fill-opacity="0" width="136" height="40" stroke-opacity="0"/>
<rect x="925" y="568" fill-opacity="0" width="140" height="40" stroke-opacity="0"/>
<rect x="261" y="28" fill-opacity="0" width="154" height="40" stroke-opacity="0"/>
<rect x="380" y="696" fill-opacity="0" width="107" height="40" stroke-opacity="0"/>
<rect x="266" y="286" fill-opacity="0" width="126" height="46" stroke-opacity="0"/>
<rect x="266" y="354" fill-opacity="0" width="127" height="40" stroke-opacity="0"/>
<rect x="1044" y="835" fill-opacity="0" width="257" height="40" stroke-opacity="0"/>
</svg>
