<?xml version="1.0" encoding="UTF-8"?><svg xmlns="http://www.w3.org/2000/svg" xmlns:xlink="http://www.w3.org/1999/xlink" stroke-dasharray="none" shape-rendering="auto" font-family="'Dialog'" width="1593" text-rendering="auto" fill-opacity="1" contentScriptType="text/ecmascript" color-interpolation="auto" color-rendering="auto" preserveAspectRatio="xMidYMid meet" font-size="12" viewBox="0 0 1593 1013" fill="black" stroke="black" image-rendering="auto" stroke-miterlimit="10" zoomAndPan="magnify" version="1.0" stroke-linecap="square" stroke-linejoin="miter" contentStyleType="text/css" font-style="normal" height="1013" stroke-width="1" stroke-dashoffset="0" font-weight="normal" stroke-opacity="1">
<!--Generated by the Batik Graphics2D SVG Generator-->
<defs id="genericDefs"/>
<g>
<defs id="defs1">
<clipPath clipPathUnits="userSpaceOnUse" id="clipPath1">
<path d="M287 124 L329 124 L329 166 L287 166 L287 124 Z"/>
</clipPath>
<clipPath clipPathUnits="userSpaceOnUse" id="clipPath2">
<path d="M720 806 L914 806 L914 824 L720 824 L720 806 Z"/>
</clipPath>
<clipPath clipPathUnits="userSpaceOnUse" id="clipPath3">
<path d="M-1 -1 L1594 -1 L1594 1014 L-1 1014 L-1 -1 Z"/>
</clipPath>
<clipPath clipPathUnits="userSpaceOnUse" id="clipPath4">
<path d="M975 412 L1169 412 L1169 430 L975 430 L975 412 Z"/>
</clipPath>
<clipPath clipPathUnits="userSpaceOnUse" id="clipPath5">
<path d="M660 428 L854 428 L854 446 L660 446 L660 428 Z"/>
</clipPath>
<clipPath clipPathUnits="userSpaceOnUse" id="clipPath6">
<path d="M735 428 L929 428 L929 446 L735 446 L735 428 Z"/>
</clipPath>
<clipPath clipPathUnits="userSpaceOnUse" id="clipPath7">
<path d="M857 488 L1051 488 L1051 506 L857 506 L857 488 Z"/>
</clipPath>
<clipPath clipPathUnits="userSpaceOnUse" id="clipPath8">
<path d="M1083 973 L1277 973 L1277 991 L1083 991 L1083 973 Z"/>
</clipPath>
<clipPath clipPathUnits="userSpaceOnUse" id="clipPath9">
<path d="M452 322 L646 322 L646 340 L452 340 L452 322 Z"/>
</clipPath>
<clipPath clipPathUnits="userSpaceOnUse" id="clipPath10">
<path d="M368 184 L562 184 L562 202 L368 202 L368 184 Z"/>
</clipPath>
<clipPath clipPathUnits="userSpaceOnUse" id="clipPath11">
<path d="M203 181 L397 181 L397 199 L203 199 L203 181 Z"/>
</clipPath>
<clipPath clipPathUnits="userSpaceOnUse" id="clipPath12">
<path d="M395 601 L589 601 L589 619 L395 619 L395 601 Z"/>
</clipPath>
<clipPath clipPathUnits="userSpaceOnUse" id="clipPath13">
<path d="M258 590 L452 590 L452 608 L258 608 L258 590 Z"/>
</clipPath>
<clipPath clipPathUnits="userSpaceOnUse" id="clipPath14">
<path d="M289 572 L483 572 L483 590 L289 590 L289 572 Z"/>
</clipPath>
<clipPath clipPathUnits="userSpaceOnUse" id="clipPath15">
<path d="M22 575 L216 575 L216 593 L22 593 L22 575 Z"/>
</clipPath>
<clipPath clipPathUnits="userSpaceOnUse" id="clipPath16">
<path d="M533 630 L727 630 L727 648 L533 648 L533 630 Z"/>
</clipPath>
</defs>
<g fill="rgb(255,203,203)" font-family="'Segoe UI'" stroke-linejoin="round" stroke="rgb(255,203,203)" stroke-width="0" stroke-miterlimit="0">
<rect width="198" x="707" height="112" y="172" stroke="none"/>
</g>
<g stroke-linecap="butt" font-family="'Segoe UI'">
<rect fill="none" width="197" x="707" height="111" y="172"/>
<text xml:space="preserve" x="709" y="233" stroke="none">Invalid view - remove from diagram.</text>
<rect x="747" y="590" fill="rgb(255,203,203)" width="40" height="40" stroke="none"/>
<rect x="747" y="590" fill="none" width="39" height="39" stroke-width="0.1"/>
<text xml:space="preserve" x="670" stroke-width="0.1" y="615" stroke="none">Invalid view - remove from diagram.</text>
</g>
<g stroke-linecap="butt" fill="rgb(255,203,203)" font-family="'Segoe UI'" font-style="italic" stroke="rgb(255,203,203)" stroke-width="0.1">
<rect width="40" x="1046" height="40" y="806" stroke="none"/>
<rect x="1046" y="806" fill="none" width="39" height="39" stroke="black"/>
<text fill="black" xml:space="preserve" x="970" y="831" stroke="none">Invalid view - remove from diagram.</text>
<rect width="298" x="200" height="40" y="10" stroke="none"/>
<rect x="200" y="10" fill="none" width="297" height="39" stroke="black"/>
<text x="252" y="35" fill="black" font-style="normal" stroke="none" xml:space="preserve">Invalid view - remove from diagram.</text>
<rect width="211" x="703" height="40" y="101" stroke="none"/>
<rect x="703" y="101" fill="none" width="210" height="39" stroke="black"/>
<text x="712" y="126" fill="black" font-style="normal" stroke="none" xml:space="preserve">Invalid view - remove from diagram.</text>
<rect width="40" x="505" height="40" y="10" stroke="none"/>
<rect x="505" y="10" fill="none" width="39" height="39" stroke="black"/>
<text x="428" y="35" fill="black" font-style="normal" stroke="none" xml:space="preserve">Invalid view - remove from diagram.</text>
<rect width="166" x="17" height="40" y="11" stroke="none"/>
<rect x="17" y="11" fill="none" width="165" height="39" stroke="black"/>
<text x="3" y="36" fill="black" font-style="normal" stroke="none" xml:space="preserve">Invalid view - remove from diagram.</text>
<rect width="391" x="1128" height="40" y="160" stroke="none"/>
<rect x="1128" y="160" fill="none" width="390" height="39" stroke="black"/>
<text x="1227" y="185" fill="black" font-style="normal" stroke="none" xml:space="preserve">Invalid view - remove from diagram.</text>
<rect width="395" x="1188" height="40" y="349" stroke="none"/>
<rect x="1188" y="349" fill="none" width="394" height="39" stroke="black"/>
<text x="1289" y="374" fill="black" font-style="normal" stroke="none" xml:space="preserve">Invalid view - remove from diagram.</text>
<rect width="131" x="579" height="40" y="355" stroke="none"/>
<rect x="579" y="355" fill="none" width="130" height="39" stroke="black"/>
<text x="548" y="380" fill="black" font-style="normal" stroke="none" xml:space="preserve">Invalid view - remove from diagram.</text>
<rect width="177" x="314" height="40" y="365" stroke="none"/>
<rect x="314" y="365" fill="none" width="176" height="39" stroke="black"/>
<text x="306" y="390" fill="black" font-style="normal" stroke="none" xml:space="preserve">Invalid view - remove from diagram.</text>
<rect width="141" x="86" height="40" y="366" stroke="none"/>
<rect x="86" y="366" fill="none" width="140" height="39" stroke="black"/>
<text x="60" y="391" fill="black" font-style="normal" stroke="none" xml:space="preserve">Invalid view - remove from diagram.</text>
<rect width="40" x="352" height="40" y="757" stroke="none"/>
<rect x="352" y="757" fill="none" width="39" height="39" stroke="black"/>
<text x="275" y="782" fill="black" font-style="normal" stroke="none" xml:space="preserve">Invalid view - remove from diagram.</text>
<rect width="40" x="90" height="40" y="763" stroke="none"/>
<rect x="90" y="763" fill="none" width="39" height="39" stroke="black"/>
<text x="13" y="788" fill="black" font-style="normal" stroke="none" xml:space="preserve">Invalid view - remove from diagram.</text>
<rect width="296" x="499" height="40" y="753" stroke="none"/>
<rect x="499" y="753" fill="none" width="295" height="39" stroke="black"/>
<text x="550" y="778" fill="black" font-style="normal" stroke="none" xml:space="preserve">Invalid view - remove from diagram.</text>
<rect width="204" x="181" height="40" y="233" stroke="none"/>
<rect x="181" y="233" fill="none" width="203" height="39" stroke="black"/>
<text x="186" y="258" fill="black" font-style="normal" stroke="none" xml:space="preserve">Invalid view - remove from diagram.</text>
<rect width="261" x="498" height="40" y="421" stroke="none"/>
<rect x="498" y="421" fill="none" width="260" height="39" stroke="black"/>
<text x="532" y="446" fill="black" font-style="normal" stroke="none" xml:space="preserve">Invalid view - remove from diagram.</text>
<rect width="227" x="643" height="40" y="877" stroke="none"/>
<rect x="643" y="877" fill="none" width="226" height="39" stroke="black"/>
<text x="660" y="902" fill="black" font-style="normal" stroke="none" xml:space="preserve">Invalid view - remove from diagram.</text>
<rect width="233" x="853" height="40" y="634" stroke="none"/>
<rect x="853" y="634" fill="none" width="232" height="39" stroke="black"/>
<text x="873" y="659" fill="black" font-style="normal" stroke="none" xml:space="preserve">Invalid view - remove from diagram.</text>
<rect width="174" x="177" height="42" y="475" stroke="none"/>
<rect x="177" y="475" fill="none" width="173" height="41" stroke="black"/>
<text x="167" y="501" fill="black" font-style="normal" stroke="none" xml:space="preserve">Invalid view - remove from diagram.</text>
<rect width="237" x="129" height="40" y="530" stroke="none"/>
<rect x="129" y="530" fill="none" width="236" height="39" stroke="black"/>
<text x="151" y="555" fill="black" font-style="normal" stroke="none" xml:space="preserve">Invalid view - remove from diagram.</text>
</g>
<g fill="red" stroke-width="1.1" font-family="'Segoe UI'" stroke-linecap="butt" stroke="red">
<line y2="815" fill="none" x1="1046" x2="780" y1="815"/>
<line y2="804" fill="none" x1="780" x2="780" y1="815"/>
<line y2="804" fill="none" x1="780" x2="774" y1="804"/>
<line y2="630" fill="none" x1="774" x2="774" y1="804"/>
<rect x="288" y="125" clip-path="url(#clipPath1)" fill="rgb(255,203,203)" width="40" height="40" stroke="none"/>
<rect x="288" y="125" clip-path="url(#clipPath1)" fill="none" width="39" height="39" stroke="black" stroke-width="0.1"/>
<text x="211" y="150" clip-path="url(#clipPath1)" fill="black" stroke="none" stroke-width="0.1" xml:space="preserve">Invalid view - remove from diagram.</text>
<rect x="288" y="125" clip-path="url(#clipPath1)" fill="rgb(255,203,203)" width="40" height="40" stroke="none" stroke-width="0.1"/>
<rect x="288" y="125" clip-path="url(#clipPath1)" fill="none" width="39" height="39" stroke="black" stroke-width="0.1"/>
<text x="211" y="150" clip-path="url(#clipPath1)" fill="black" stroke="none" stroke-width="0.1" xml:space="preserve">Invalid view - remove from diagram.</text>
<rect x="288" y="125" clip-path="url(#clipPath1)" fill="rgb(255,203,203)" width="40" height="40" stroke="none" stroke-width="0.1"/>
<rect x="288" y="125" clip-path="url(#clipPath1)" fill="none" width="39" height="39" stroke="black" stroke-width="0.1"/>
<text x="211" y="150" clip-path="url(#clipPath1)" fill="black" stroke="none" stroke-width="0.1" xml:space="preserve">Invalid view - remove from diagram.</text>
<rect x="288" y="125" clip-path="url(#clipPath1)" fill="rgb(255,203,203)" width="40" height="40" stroke="none" stroke-width="0.1"/>
<rect x="288" y="125" clip-path="url(#clipPath1)" fill="none" width="39" height="39" stroke="black" stroke-width="0.1"/>
<text x="211" y="150" clip-path="url(#clipPath1)" fill="black" stroke="none" stroke-width="0.1" xml:space="preserve">Invalid view - remove from diagram.</text>
<rect x="288" y="125" clip-path="url(#clipPath1)" fill="rgb(255,203,203)" width="40" height="40" stroke="none" stroke-width="0.1"/>
<rect x="288" y="125" clip-path="url(#clipPath1)" fill="none" width="39" height="39" stroke="black" stroke-width="0.1"/>
<text x="211" y="150" clip-path="url(#clipPath1)" fill="black" stroke="none" stroke-width="0.1" xml:space="preserve">Invalid view - remove from diagram.</text>
<text x="721" y="820" clip-path="url(#clipPath2)" stroke="none" stroke-width="0.1" xml:space="preserve">Invalid view - remove from diagram.</text>
<line clip-path="url(#clipPath3)" fill="none" x1="1072" x2="1072" y1="806" y2="205"/>
<line clip-path="url(#clipPath3)" fill="none" x1="1072" x2="1064" y1="205" y2="205"/>
<line clip-path="url(#clipPath3)" fill="none" x1="1064" x2="1064" y1="205" y2="203"/>
<line clip-path="url(#clipPath3)" fill="none" x1="1064" x2="905" y1="203" y2="203"/>
<rect x="288" y="125" clip-path="url(#clipPath1)" fill="rgb(255,203,203)" width="40" height="40" stroke="none"/>
<rect x="288" y="125" clip-path="url(#clipPath1)" fill="none" width="39" height="39" stroke="black" stroke-width="0.1"/>
<text x="211" y="150" clip-path="url(#clipPath1)" fill="black" stroke="none" stroke-width="0.1" xml:space="preserve">Invalid view - remove from diagram.</text>
<rect x="288" y="125" clip-path="url(#clipPath1)" fill="rgb(255,203,203)" width="40" height="40" stroke="none" stroke-width="0.1"/>
<rect x="288" y="125" clip-path="url(#clipPath1)" fill="none" width="39" height="39" stroke="black" stroke-width="0.1"/>
<text x="211" y="150" clip-path="url(#clipPath1)" fill="black" stroke="none" stroke-width="0.1" xml:space="preserve">Invalid view - remove from diagram.</text>
<rect x="288" y="125" clip-path="url(#clipPath1)" fill="rgb(255,203,203)" width="40" height="40" stroke="none" stroke-width="0.1"/>
<rect x="288" y="125" clip-path="url(#clipPath1)" fill="none" width="39" height="39" stroke="black" stroke-width="0.1"/>
<text x="211" y="150" clip-path="url(#clipPath1)" fill="black" stroke="none" stroke-width="0.1" xml:space="preserve">Invalid view - remove from diagram.</text>
<rect x="288" y="125" clip-path="url(#clipPath1)" fill="rgb(255,203,203)" width="40" height="40" stroke="none" stroke-width="0.1"/>
<rect x="288" y="125" clip-path="url(#clipPath1)" fill="none" width="39" height="39" stroke="black" stroke-width="0.1"/>
<text x="211" y="150" clip-path="url(#clipPath1)" fill="black" stroke="none" stroke-width="0.1" xml:space="preserve">Invalid view - remove from diagram.</text>
<rect x="288" y="125" clip-path="url(#clipPath1)" fill="rgb(255,203,203)" width="40" height="40" stroke="none" stroke-width="0.1"/>
<rect x="288" y="125" clip-path="url(#clipPath1)" fill="none" width="39" height="39" stroke="black" stroke-width="0.1"/>
<text x="211" y="150" clip-path="url(#clipPath1)" fill="black" stroke="none" stroke-width="0.1" xml:space="preserve">Invalid view - remove from diagram.</text>
<text x="976" y="426" clip-path="url(#clipPath4)" stroke="none" stroke-width="0.1" xml:space="preserve">Invalid view - remove from diagram.</text>
<line clip-path="url(#clipPath3)" fill="none" x1="757" x2="757" y1="284" y2="590"/>
<rect x="288" y="125" clip-path="url(#clipPath1)" fill="rgb(255,203,203)" width="40" height="40" stroke="none"/>
<rect x="288" y="125" clip-path="url(#clipPath1)" fill="none" width="39" height="39" stroke="black" stroke-width="0.1"/>
<text x="211" y="150" clip-path="url(#clipPath1)" fill="black" stroke="none" stroke-width="0.1" xml:space="preserve">Invalid view - remove from diagram.</text>
<rect x="288" y="125" clip-path="url(#clipPath1)" fill="rgb(255,203,203)" width="40" height="40" stroke="none" stroke-width="0.1"/>
<rect x="288" y="125" clip-path="url(#clipPath1)" fill="none" width="39" height="39" stroke="black" stroke-width="0.1"/>
<text x="211" y="150" clip-path="url(#clipPath1)" fill="black" stroke="none" stroke-width="0.1" xml:space="preserve">Invalid view - remove from diagram.</text>
<rect x="288" y="125" clip-path="url(#clipPath1)" fill="rgb(255,203,203)" width="40" height="40" stroke="none" stroke-width="0.1"/>
<rect x="288" y="125" clip-path="url(#clipPath1)" fill="none" width="39" height="39" stroke="black" stroke-width="0.1"/>
<text x="211" y="150" clip-path="url(#clipPath1)" fill="black" stroke="none" stroke-width="0.1" xml:space="preserve">Invalid view - remove from diagram.</text>
<rect x="288" y="125" clip-path="url(#clipPath1)" fill="rgb(255,203,203)" width="40" height="40" stroke="none" stroke-width="0.1"/>
<rect x="288" y="125" clip-path="url(#clipPath1)" fill="none" width="39" height="39" stroke="black" stroke-width="0.1"/>
<text x="211" y="150" clip-path="url(#clipPath1)" fill="black" stroke="none" stroke-width="0.1" xml:space="preserve">Invalid view - remove from diagram.</text>
<rect x="288" y="125" clip-path="url(#clipPath1)" fill="rgb(255,203,203)" width="40" height="40" stroke="none" stroke-width="0.1"/>
<rect x="288" y="125" clip-path="url(#clipPath1)" fill="none" width="39" height="39" stroke="black" stroke-width="0.1"/>
<text x="211" y="150" clip-path="url(#clipPath1)" fill="black" stroke="none" stroke-width="0.1" xml:space="preserve">Invalid view - remove from diagram.</text>
<text x="661" y="442" clip-path="url(#clipPath5)" stroke="none" stroke-width="0.1" xml:space="preserve">Invalid view - remove from diagram.</text>
<line clip-path="url(#clipPath3)" fill="none" x1="883" x2="883" y1="284" y2="437"/>
<line clip-path="url(#clipPath3)" fill="none" x1="883" x2="781" y1="437" y2="437"/>
<line clip-path="url(#clipPath3)" fill="none" x1="781" x2="781" y1="437" y2="590"/>
<rect x="288" y="125" clip-path="url(#clipPath1)" fill="rgb(255,203,203)" width="40" height="40" stroke="none"/>
<rect x="288" y="125" clip-path="url(#clipPath1)" fill="none" width="39" height="39" stroke="black" stroke-width="0.1"/>
<text x="211" y="150" clip-path="url(#clipPath1)" fill="black" stroke="none" stroke-width="0.1" xml:space="preserve">Invalid view - remove from diagram.</text>
<rect x="288" y="125" clip-path="url(#clipPath1)" fill="rgb(255,203,203)" width="40" height="40" stroke="none" stroke-width="0.1"/>
<rect x="288" y="125" clip-path="url(#clipPath1)" fill="none" width="39" height="39" stroke="black" stroke-width="0.1"/>
<text x="211" y="150" clip-path="url(#clipPath1)" fill="black" stroke="none" stroke-width="0.1" xml:space="preserve">Invalid view - remove from diagram.</text>
<rect x="288" y="125" clip-path="url(#clipPath1)" fill="rgb(255,203,203)" width="40" height="40" stroke="none" stroke-width="0.1"/>
<rect x="288" y="125" clip-path="url(#clipPath1)" fill="none" width="39" height="39" stroke="black" stroke-width="0.1"/>
<text x="211" y="150" clip-path="url(#clipPath1)" fill="black" stroke="none" stroke-width="0.1" xml:space="preserve">Invalid view - remove from diagram.</text>
<rect x="288" y="125" clip-path="url(#clipPath1)" fill="rgb(255,203,203)" width="40" height="40" stroke="none" stroke-width="0.1"/>
<rect x="288" y="125" clip-path="url(#clipPath1)" fill="none" width="39" height="39" stroke="black" stroke-width="0.1"/>
<text x="211" y="150" clip-path="url(#clipPath1)" fill="black" stroke="none" stroke-width="0.1" xml:space="preserve">Invalid view - remove from diagram.</text>
<rect x="288" y="125" clip-path="url(#clipPath1)" fill="rgb(255,203,203)" width="40" height="40" stroke="none" stroke-width="0.1"/>
<rect x="288" y="125" clip-path="url(#clipPath1)" fill="none" width="39" height="39" stroke="black" stroke-width="0.1"/>
<text x="211" y="150" clip-path="url(#clipPath1)" fill="black" stroke="none" stroke-width="0.1" xml:space="preserve">Invalid view - remove from diagram.</text>
<text x="736" y="442" clip-path="url(#clipPath6)" stroke="none" stroke-width="0.1" xml:space="preserve">Invalid view - remove from diagram.</text>
<line clip-path="url(#clipPath3)" fill="none" x1="787" x2="935" y1="610" y2="610"/>
<line clip-path="url(#clipPath3)" fill="none" x1="935" x2="935" y1="610" y2="597"/>
<line clip-path="url(#clipPath3)" fill="none" x1="935" x2="954" y1="597" y2="597"/>
<line clip-path="url(#clipPath3)" fill="none" x1="954" x2="954" y1="597" y2="267"/>
<line clip-path="url(#clipPath3)" fill="none" x1="954" x2="905" y1="267" y2="267"/>
<rect x="288" y="125" clip-path="url(#clipPath1)" fill="rgb(255,203,203)" width="40" height="40" stroke="none"/>
<rect x="288" y="125" clip-path="url(#clipPath1)" fill="none" width="39" height="39" stroke="black" stroke-width="0.1"/>
<text x="211" y="150" clip-path="url(#clipPath1)" fill="black" stroke="none" stroke-width="0.1" xml:space="preserve">Invalid view - remove from diagram.</text>
<rect x="288" y="125" clip-path="url(#clipPath1)" fill="rgb(255,203,203)" width="40" height="40" stroke="none" stroke-width="0.1"/>
<rect x="288" y="125" clip-path="url(#clipPath1)" fill="none" width="39" height="39" stroke="black" stroke-width="0.1"/>
<text x="211" y="150" clip-path="url(#clipPath1)" fill="black" stroke="none" stroke-width="0.1" xml:space="preserve">Invalid view - remove from diagram.</text>
<rect x="288" y="125" clip-path="url(#clipPath1)" fill="rgb(255,203,203)" width="40" height="40" stroke="none" stroke-width="0.1"/>
<rect x="288" y="125" clip-path="url(#clipPath1)" fill="none" width="39" height="39" stroke="black" stroke-width="0.1"/>
<text x="211" y="150" clip-path="url(#clipPath1)" fill="black" stroke="none" stroke-width="0.1" xml:space="preserve">Invalid view - remove from diagram.</text>
<rect x="288" y="125" clip-path="url(#clipPath1)" fill="rgb(255,203,203)" width="40" height="40" stroke="none" stroke-width="0.1"/>
<rect x="288" y="125" clip-path="url(#clipPath1)" fill="none" width="39" height="39" stroke="black" stroke-width="0.1"/>
<text x="211" y="150" clip-path="url(#clipPath1)" fill="black" stroke="none" stroke-width="0.1" xml:space="preserve">Invalid view - remove from diagram.</text>
<rect x="288" y="125" clip-path="url(#clipPath1)" fill="rgb(255,203,203)" width="40" height="40" stroke="none" stroke-width="0.1"/>
<rect x="288" y="125" clip-path="url(#clipPath1)" fill="none" width="39" height="39" stroke="black" stroke-width="0.1"/>
<text x="211" y="150" clip-path="url(#clipPath1)" fill="black" stroke="none" stroke-width="0.1" xml:space="preserve">Invalid view - remove from diagram.</text>
<rect x="288" y="125" clip-path="url(#clipPath1)" fill="rgb(255,203,203)" width="40" height="40" stroke="none" stroke-width="0.1"/>
<rect x="288" y="125" clip-path="url(#clipPath1)" fill="none" width="39" height="39" stroke="black" stroke-width="0.1"/>
<text x="211" y="150" clip-path="url(#clipPath1)" fill="black" stroke="none" stroke-width="0.1" xml:space="preserve">Invalid view - remove from diagram.</text>
<text x="858" y="502" clip-path="url(#clipPath7)" stroke="none" stroke-width="0.1" xml:space="preserve">Invalid view - remove from diagram.</text>
<line clip-path="url(#clipPath3)" fill="none" x1="1086" x2="1180" y1="826" y2="826"/>
<line clip-path="url(#clipPath3)" fill="none" x1="1180" x2="1180" y1="826" y2="982"/>
<line clip-path="url(#clipPath3)" fill="none" x1="1180" x2="1066" y1="982" y2="982"/>
<line clip-path="url(#clipPath3)" fill="none" x1="1066" x2="1066" y1="982" y2="846"/>
<rect x="288" y="125" clip-path="url(#clipPath1)" fill="rgb(255,203,203)" width="40" height="40" stroke="none"/>
<rect x="288" y="125" clip-path="url(#clipPath1)" fill="none" width="39" height="39" stroke="black" stroke-width="0.1"/>
<text x="211" y="150" clip-path="url(#clipPath1)" fill="black" stroke="none" stroke-width="0.1" xml:space="preserve">Invalid view - remove from diagram.</text>
<rect x="288" y="125" clip-path="url(#clipPath1)" fill="rgb(255,203,203)" width="40" height="40" stroke="none" stroke-width="0.1"/>
<rect x="288" y="125" clip-path="url(#clipPath1)" fill="none" width="39" height="39" stroke="black" stroke-width="0.1"/>
<text x="211" y="150" clip-path="url(#clipPath1)" fill="black" stroke="none" stroke-width="0.1" xml:space="preserve">Invalid view - remove from diagram.</text>
<rect x="288" y="125" clip-path="url(#clipPath1)" fill="rgb(255,203,203)" width="40" height="40" stroke="none" stroke-width="0.1"/>
<rect x="288" y="125" clip-path="url(#clipPath1)" fill="none" width="39" height="39" stroke="black" stroke-width="0.1"/>
<text x="211" y="150" clip-path="url(#clipPath1)" fill="black" stroke="none" stroke-width="0.1" xml:space="preserve">Invalid view - remove from diagram.</text>
<rect x="288" y="125" clip-path="url(#clipPath1)" fill="rgb(255,203,203)" width="40" height="40" stroke="none" stroke-width="0.1"/>
<rect x="288" y="125" clip-path="url(#clipPath1)" fill="none" width="39" height="39" stroke="black" stroke-width="0.1"/>
<text x="211" y="150" clip-path="url(#clipPath1)" fill="black" stroke="none" stroke-width="0.1" xml:space="preserve">Invalid view - remove from diagram.</text>
<rect x="288" y="125" clip-path="url(#clipPath1)" fill="rgb(255,203,203)" width="40" height="40" stroke="none" stroke-width="0.1"/>
<rect x="288" y="125" clip-path="url(#clipPath1)" fill="none" width="39" height="39" stroke="black" stroke-width="0.1"/>
<text x="211" y="150" clip-path="url(#clipPath1)" fill="black" stroke="none" stroke-width="0.1" xml:space="preserve">Invalid view - remove from diagram.</text>
<text x="1084" y="987" clip-path="url(#clipPath8)" stroke="none" stroke-width="0.1" xml:space="preserve">Invalid view - remove from diagram.</text>
<line clip-path="url(#clipPath3)" fill="none" x1="707" x2="527" y1="228" y2="228"/>
<line clip-path="url(#clipPath3)" fill="none" x1="527" x2="527" y1="228" y2="331"/>
<line clip-path="url(#clipPath3)" fill="none" x1="527" x2="806" y1="331" y2="331"/>
<line clip-path="url(#clipPath3)" fill="none" x1="806" x2="806" y1="331" y2="284"/>
<rect x="288" y="125" clip-path="url(#clipPath1)" fill="rgb(255,203,203)" width="40" height="40" stroke="none"/>
<rect x="288" y="125" clip-path="url(#clipPath1)" fill="none" width="39" height="39" stroke="black" stroke-width="0.1"/>
<text x="211" y="150" clip-path="url(#clipPath1)" fill="black" stroke="none" stroke-width="0.1" xml:space="preserve">Invalid view - remove from diagram.</text>
<rect x="288" y="125" clip-path="url(#clipPath1)" fill="rgb(255,203,203)" width="40" height="40" stroke="none" stroke-width="0.1"/>
<rect x="288" y="125" clip-path="url(#clipPath1)" fill="none" width="39" height="39" stroke="black" stroke-width="0.1"/>
<text x="211" y="150" clip-path="url(#clipPath1)" fill="black" stroke="none" stroke-width="0.1" xml:space="preserve">Invalid view - remove from diagram.</text>
<rect x="288" y="125" clip-path="url(#clipPath1)" fill="rgb(255,203,203)" width="40" height="40" stroke="none" stroke-width="0.1"/>
<rect x="288" y="125" clip-path="url(#clipPath1)" fill="none" width="39" height="39" stroke="black" stroke-width="0.1"/>
<text x="211" y="150" clip-path="url(#clipPath1)" fill="black" stroke="none" stroke-width="0.1" xml:space="preserve">Invalid view - remove from diagram.</text>
<rect x="288" y="125" clip-path="url(#clipPath1)" fill="rgb(255,203,203)" width="40" height="40" stroke="none" stroke-width="0.1"/>
<rect x="288" y="125" clip-path="url(#clipPath1)" fill="none" width="39" height="39" stroke="black" stroke-width="0.1"/>
<text x="211" y="150" clip-path="url(#clipPath1)" fill="black" stroke="none" stroke-width="0.1" xml:space="preserve">Invalid view - remove from diagram.</text>
<rect x="288" y="125" clip-path="url(#clipPath1)" fill="rgb(255,203,203)" width="40" height="40" stroke="none" stroke-width="0.1"/>
<rect x="288" y="125" clip-path="url(#clipPath1)" fill="none" width="39" height="39" stroke="black" stroke-width="0.1"/>
<text x="211" y="150" clip-path="url(#clipPath1)" fill="black" stroke="none" stroke-width="0.1" xml:space="preserve">Invalid view - remove from diagram.</text>
<text x="453" y="336" clip-path="url(#clipPath9)" stroke="none" stroke-width="0.1" xml:space="preserve">Invalid view - remove from diagram.</text>
<line clip-path="url(#clipPath3)" fill="none" x1="707" x2="418" y1="193" y2="193"/>
<line clip-path="url(#clipPath3)" fill="none" x1="418" x2="418" y1="193" y2="212"/>
<line clip-path="url(#clipPath3)" fill="none" x1="418" x2="441" y1="212" y2="212"/>
<line clip-path="url(#clipPath3)" fill="none" x1="441" x2="441" y1="212" y2="365"/>
<rect x="288" y="125" clip-path="url(#clipPath1)" fill="rgb(255,203,203)" width="40" height="40" stroke="none"/>
<rect x="288" y="125" clip-path="url(#clipPath1)" fill="none" width="39" height="39" stroke="black" stroke-width="0.1"/>
<text x="211" y="150" clip-path="url(#clipPath1)" fill="black" stroke="none" stroke-width="0.1" xml:space="preserve">Invalid view - remove from diagram.</text>
<rect x="288" y="125" clip-path="url(#clipPath1)" fill="rgb(255,203,203)" width="40" height="40" stroke="none" stroke-width="0.1"/>
<rect x="288" y="125" clip-path="url(#clipPath1)" fill="none" width="39" height="39" stroke="black" stroke-width="0.1"/>
<text x="211" y="150" clip-path="url(#clipPath1)" fill="black" stroke="none" stroke-width="0.1" xml:space="preserve">Invalid view - remove from diagram.</text>
<rect x="288" y="125" clip-path="url(#clipPath1)" fill="rgb(255,203,203)" width="40" height="40" stroke="none" stroke-width="0.1"/>
<rect x="288" y="125" clip-path="url(#clipPath1)" fill="none" width="39" height="39" stroke="black" stroke-width="0.1"/>
<text x="211" y="150" clip-path="url(#clipPath1)" fill="black" stroke="none" stroke-width="0.1" xml:space="preserve">Invalid view - remove from diagram.</text>
<rect x="288" y="125" clip-path="url(#clipPath1)" fill="rgb(255,203,203)" width="40" height="40" stroke="none" stroke-width="0.1"/>
<rect x="288" y="125" clip-path="url(#clipPath1)" fill="none" width="39" height="39" stroke="black" stroke-width="0.1"/>
<text x="211" y="150" clip-path="url(#clipPath1)" fill="black" stroke="none" stroke-width="0.1" xml:space="preserve">Invalid view - remove from diagram.</text>
<rect x="288" y="125" clip-path="url(#clipPath1)" fill="rgb(255,203,203)" width="40" height="40" stroke="none" stroke-width="0.1"/>
<rect x="288" y="125" clip-path="url(#clipPath1)" fill="none" width="39" height="39" stroke="black" stroke-width="0.1"/>
<text x="211" y="150" clip-path="url(#clipPath1)" fill="black" stroke="none" stroke-width="0.1" xml:space="preserve">Invalid view - remove from diagram.</text>
<text x="369" y="198" clip-path="url(#clipPath10)" stroke="none" stroke-width="0.1" xml:space="preserve">Invalid view - remove from diagram.</text>
<line clip-path="url(#clipPath3)" fill="none" x1="707" x2="142" y1="190" y2="190"/>
<line clip-path="url(#clipPath3)" fill="none" x1="142" x2="142" y1="190" y2="177"/>
<line clip-path="url(#clipPath3)" fill="none" x1="142" x2="189" y1="177" y2="177"/>
<line clip-path="url(#clipPath3)" fill="none" x1="189" x2="189" y1="177" y2="366"/>
<rect x="288" y="125" clip-path="url(#clipPath1)" fill="rgb(255,203,203)" width="40" height="40" stroke="none"/>
<rect x="288" y="125" clip-path="url(#clipPath1)" fill="none" width="39" height="39" stroke="black" stroke-width="0.1"/>
<text x="211" y="150" clip-path="url(#clipPath1)" fill="black" stroke="none" stroke-width="0.1" xml:space="preserve">Invalid view - remove from diagram.</text>
<rect x="288" y="125" clip-path="url(#clipPath1)" fill="rgb(255,203,203)" width="40" height="40" stroke="none" stroke-width="0.1"/>
<rect x="288" y="125" clip-path="url(#clipPath1)" fill="none" width="39" height="39" stroke="black" stroke-width="0.1"/>
<text x="211" y="150" clip-path="url(#clipPath1)" fill="black" stroke="none" stroke-width="0.1" xml:space="preserve">Invalid view - remove from diagram.</text>
<rect x="288" y="125" clip-path="url(#clipPath1)" fill="rgb(255,203,203)" width="40" height="40" stroke="none" stroke-width="0.1"/>
<rect x="288" y="125" clip-path="url(#clipPath1)" fill="none" width="39" height="39" stroke="black" stroke-width="0.1"/>
<text x="211" y="150" clip-path="url(#clipPath1)" fill="black" stroke="none" stroke-width="0.1" xml:space="preserve">Invalid view - remove from diagram.</text>
<rect x="288" y="125" clip-path="url(#clipPath1)" fill="rgb(255,203,203)" width="40" height="40" stroke="none" stroke-width="0.1"/>
<rect x="288" y="125" clip-path="url(#clipPath1)" fill="none" width="39" height="39" stroke="black" stroke-width="0.1"/>
<text x="211" y="150" clip-path="url(#clipPath1)" fill="black" stroke="none" stroke-width="0.1" xml:space="preserve">Invalid view - remove from diagram.</text>
<rect x="288" y="125" clip-path="url(#clipPath1)" fill="rgb(255,203,203)" width="40" height="40" stroke="none" stroke-width="0.1"/>
<rect x="288" y="125" clip-path="url(#clipPath1)" fill="none" width="39" height="39" stroke="black" stroke-width="0.1"/>
<text x="211" y="150" clip-path="url(#clipPath1)" fill="black" stroke="none" stroke-width="0.1" xml:space="preserve">Invalid view - remove from diagram.</text>
<text x="204" y="195" clip-path="url(#clipPath11)" stroke="none" stroke-width="0.1" xml:space="preserve">Invalid view - remove from diagram.</text>
<line clip-path="url(#clipPath3)" fill="none" x1="747" x2="385" y1="610" y2="610"/>
<line clip-path="url(#clipPath3)" fill="none" x1="385" x2="385" y1="610" y2="757"/>
<rect x="288" y="125" clip-path="url(#clipPath1)" fill="rgb(255,203,203)" width="40" height="40" stroke="none"/>
<rect x="288" y="125" clip-path="url(#clipPath1)" fill="none" width="39" height="39" stroke="black" stroke-width="0.1"/>
<text x="211" y="150" clip-path="url(#clipPath1)" fill="black" stroke="none" stroke-width="0.1" xml:space="preserve">Invalid view - remove from diagram.</text>
<rect x="288" y="125" clip-path="url(#clipPath1)" fill="rgb(255,203,203)" width="40" height="40" stroke="none" stroke-width="0.1"/>
<rect x="288" y="125" clip-path="url(#clipPath1)" fill="none" width="39" height="39" stroke="black" stroke-width="0.1"/>
<text x="211" y="150" clip-path="url(#clipPath1)" fill="black" stroke="none" stroke-width="0.1" xml:space="preserve">Invalid view - remove from diagram.</text>
<rect x="288" y="125" clip-path="url(#clipPath1)" fill="rgb(255,203,203)" width="40" height="40" stroke="none" stroke-width="0.1"/>
<rect x="288" y="125" clip-path="url(#clipPath1)" fill="none" width="39" height="39" stroke="black" stroke-width="0.1"/>
<text x="211" y="150" clip-path="url(#clipPath1)" fill="black" stroke="none" stroke-width="0.1" xml:space="preserve">Invalid view - remove from diagram.</text>
<rect x="288" y="125" clip-path="url(#clipPath1)" fill="rgb(255,203,203)" width="40" height="40" stroke="none" stroke-width="0.1"/>
<rect x="288" y="125" clip-path="url(#clipPath1)" fill="none" width="39" height="39" stroke="black" stroke-width="0.1"/>
<text x="211" y="150" clip-path="url(#clipPath1)" fill="black" stroke="none" stroke-width="0.1" xml:space="preserve">Invalid view - remove from diagram.</text>
<rect x="288" y="125" clip-path="url(#clipPath1)" fill="rgb(255,203,203)" width="40" height="40" stroke="none" stroke-width="0.1"/>
<rect x="288" y="125" clip-path="url(#clipPath1)" fill="none" width="39" height="39" stroke="black" stroke-width="0.1"/>
<text x="211" y="150" clip-path="url(#clipPath1)" fill="black" stroke="none" stroke-width="0.1" xml:space="preserve">Invalid view - remove from diagram.</text>
<text x="396" y="615" clip-path="url(#clipPath12)" stroke="none" stroke-width="0.1" xml:space="preserve">Invalid view - remove from diagram.</text>
<line clip-path="url(#clipPath3)" fill="none" x1="747" x2="139" y1="599" y2="599"/>
<line clip-path="url(#clipPath3)" fill="none" x1="139" x2="139" y1="599" y2="766"/>
<line clip-path="url(#clipPath3)" fill="none" x1="139" x2="130" y1="766" y2="766"/>
<rect x="288" y="125" clip-path="url(#clipPath1)" fill="rgb(255,203,203)" width="40" height="40" stroke="none"/>
<rect x="288" y="125" clip-path="url(#clipPath1)" fill="none" width="39" height="39" stroke="black" stroke-width="0.1"/>
<text x="211" y="150" clip-path="url(#clipPath1)" fill="black" stroke="none" stroke-width="0.1" xml:space="preserve">Invalid view - remove from diagram.</text>
<rect x="288" y="125" clip-path="url(#clipPath1)" fill="rgb(255,203,203)" width="40" height="40" stroke="none" stroke-width="0.1"/>
<rect x="288" y="125" clip-path="url(#clipPath1)" fill="none" width="39" height="39" stroke="black" stroke-width="0.1"/>
<text x="211" y="150" clip-path="url(#clipPath1)" fill="black" stroke="none" stroke-width="0.1" xml:space="preserve">Invalid view - remove from diagram.</text>
<rect x="288" y="125" clip-path="url(#clipPath1)" fill="rgb(255,203,203)" width="40" height="40" stroke="none" stroke-width="0.1"/>
<rect x="288" y="125" clip-path="url(#clipPath1)" fill="none" width="39" height="39" stroke="black" stroke-width="0.1"/>
<text x="211" y="150" clip-path="url(#clipPath1)" fill="black" stroke="none" stroke-width="0.1" xml:space="preserve">Invalid view - remove from diagram.</text>
<rect x="288" y="125" clip-path="url(#clipPath1)" fill="rgb(255,203,203)" width="40" height="40" stroke="none" stroke-width="0.1"/>
<rect x="288" y="125" clip-path="url(#clipPath1)" fill="none" width="39" height="39" stroke="black" stroke-width="0.1"/>
<text x="211" y="150" clip-path="url(#clipPath1)" fill="black" stroke="none" stroke-width="0.1" xml:space="preserve">Invalid view - remove from diagram.</text>
<rect x="288" y="125" clip-path="url(#clipPath1)" fill="rgb(255,203,203)" width="40" height="40" stroke="none" stroke-width="0.1"/>
<rect x="288" y="125" clip-path="url(#clipPath1)" fill="none" width="39" height="39" stroke="black" stroke-width="0.1"/>
<text x="211" y="150" clip-path="url(#clipPath1)" fill="black" stroke="none" stroke-width="0.1" xml:space="preserve">Invalid view - remove from diagram.</text>
<text x="259" y="604" clip-path="url(#clipPath13)" stroke="none" stroke-width="0.1" xml:space="preserve">Invalid view - remove from diagram.</text>
<line clip-path="url(#clipPath3)" fill="none" x1="402" x2="402" y1="405" y2="581"/>
<line clip-path="url(#clipPath3)" fill="none" x1="402" x2="371" y1="581" y2="581"/>
<line clip-path="url(#clipPath3)" fill="none" x1="371" x2="371" y1="581" y2="757"/>
<rect x="288" y="125" clip-path="url(#clipPath1)" fill="rgb(255,203,203)" width="40" height="40" stroke="none"/>
<rect x="288" y="125" clip-path="url(#clipPath1)" fill="none" width="39" height="39" stroke="black" stroke-width="0.1"/>
<text x="211" y="150" clip-path="url(#clipPath1)" fill="black" stroke="none" stroke-width="0.1" xml:space="preserve">Invalid view - remove from diagram.</text>
<rect x="288" y="125" clip-path="url(#clipPath1)" fill="rgb(255,203,203)" width="40" height="40" stroke="none" stroke-width="0.1"/>
<rect x="288" y="125" clip-path="url(#clipPath1)" fill="none" width="39" height="39" stroke="black" stroke-width="0.1"/>
<text x="211" y="150" clip-path="url(#clipPath1)" fill="black" stroke="none" stroke-width="0.1" xml:space="preserve">Invalid view - remove from diagram.</text>
<rect x="288" y="125" clip-path="url(#clipPath1)" fill="rgb(255,203,203)" width="40" height="40" stroke="none" stroke-width="0.1"/>
<rect x="288" y="125" clip-path="url(#clipPath1)" fill="none" width="39" height="39" stroke="black" stroke-width="0.1"/>
<text x="211" y="150" clip-path="url(#clipPath1)" fill="black" stroke="none" stroke-width="0.1" xml:space="preserve">Invalid view - remove from diagram.</text>
<rect x="288" y="125" clip-path="url(#clipPath1)" fill="rgb(255,203,203)" width="40" height="40" stroke="none" stroke-width="0.1"/>
<rect x="288" y="125" clip-path="url(#clipPath1)" fill="none" width="39" height="39" stroke="black" stroke-width="0.1"/>
<text x="211" y="150" clip-path="url(#clipPath1)" fill="black" stroke="none" stroke-width="0.1" xml:space="preserve">Invalid view - remove from diagram.</text>
<rect x="288" y="125" clip-path="url(#clipPath1)" fill="rgb(255,203,203)" width="40" height="40" stroke="none" stroke-width="0.1"/>
<rect x="288" y="125" clip-path="url(#clipPath1)" fill="none" width="39" height="39" stroke="black" stroke-width="0.1"/>
<text x="211" y="150" clip-path="url(#clipPath1)" fill="black" stroke="none" stroke-width="0.1" xml:space="preserve">Invalid view - remove from diagram.</text>
<text x="290" y="586" clip-path="url(#clipPath14)" stroke="none" stroke-width="0.1" xml:space="preserve">Invalid view - remove from diagram.</text>
<line clip-path="url(#clipPath3)" fill="none" x1="133" x2="133" y1="406" y2="584"/>
<line clip-path="url(#clipPath3)" fill="none" x1="133" x2="106" y1="584" y2="584"/>
<line clip-path="url(#clipPath3)" fill="none" x1="106" x2="106" y1="584" y2="763"/>
<rect x="288" y="125" clip-path="url(#clipPath1)" fill="rgb(255,203,203)" width="40" height="40" stroke="none"/>
<rect x="288" y="125" clip-path="url(#clipPath1)" fill="none" width="39" height="39" stroke="black" stroke-width="0.1"/>
<text x="211" y="150" clip-path="url(#clipPath1)" fill="black" stroke="none" stroke-width="0.1" xml:space="preserve">Invalid view - remove from diagram.</text>
<rect x="288" y="125" clip-path="url(#clipPath1)" fill="rgb(255,203,203)" width="40" height="40" stroke="none" stroke-width="0.1"/>
<rect x="288" y="125" clip-path="url(#clipPath1)" fill="none" width="39" height="39" stroke="black" stroke-width="0.1"/>
<text x="211" y="150" clip-path="url(#clipPath1)" fill="black" stroke="none" stroke-width="0.1" xml:space="preserve">Invalid view - remove from diagram.</text>
<rect x="288" y="125" clip-path="url(#clipPath1)" fill="rgb(255,203,203)" width="40" height="40" stroke="none" stroke-width="0.1"/>
<rect x="288" y="125" clip-path="url(#clipPath1)" fill="none" width="39" height="39" stroke="black" stroke-width="0.1"/>
<text x="211" y="150" clip-path="url(#clipPath1)" fill="black" stroke="none" stroke-width="0.1" xml:space="preserve">Invalid view - remove from diagram.</text>
<rect x="288" y="125" clip-path="url(#clipPath1)" fill="rgb(255,203,203)" width="40" height="40" stroke="none" stroke-width="0.1"/>
<rect x="288" y="125" clip-path="url(#clipPath1)" fill="none" width="39" height="39" stroke="black" stroke-width="0.1"/>
<text x="211" y="150" clip-path="url(#clipPath1)" fill="black" stroke="none" stroke-width="0.1" xml:space="preserve">Invalid view - remove from diagram.</text>
<rect x="288" y="125" clip-path="url(#clipPath1)" fill="rgb(255,203,203)" width="40" height="40" stroke="none" stroke-width="0.1"/>
<rect x="288" y="125" clip-path="url(#clipPath1)" fill="none" width="39" height="39" stroke="black" stroke-width="0.1"/>
<text x="211" y="150" clip-path="url(#clipPath1)" fill="black" stroke="none" stroke-width="0.1" xml:space="preserve">Invalid view - remove from diagram.</text>
<text x="23" y="589" clip-path="url(#clipPath15)" stroke="none" stroke-width="0.1" xml:space="preserve">Invalid view - remove from diagram.</text>
<line clip-path="url(#clipPath3)" fill="none" x1="643" x2="643" y1="753" y2="642"/>
<line clip-path="url(#clipPath3)" fill="none" x1="643" x2="630" y1="642" y2="642"/>
<line clip-path="url(#clipPath3)" fill="none" x1="630" x2="630" y1="642" y2="630"/>
<line clip-path="url(#clipPath3)" fill="none" x1="630" x2="747" y1="630" y2="630"/>
<rect x="288" y="125" clip-path="url(#clipPath1)" fill="rgb(255,203,203)" width="40" height="40" stroke="none"/>
<rect x="288" y="125" clip-path="url(#clipPath1)" fill="none" width="39" height="39" stroke="black" stroke-width="0.1"/>
<text x="211" y="150" clip-path="url(#clipPath1)" fill="black" stroke="none" stroke-width="0.1" xml:space="preserve">Invalid view - remove from diagram.</text>
<rect x="288" y="125" clip-path="url(#clipPath1)" fill="rgb(255,203,203)" width="40" height="40" stroke="none" stroke-width="0.1"/>
<rect x="288" y="125" clip-path="url(#clipPath1)" fill="none" width="39" height="39" stroke="black" stroke-width="0.1"/>
<text x="211" y="150" clip-path="url(#clipPath1)" fill="black" stroke="none" stroke-width="0.1" xml:space="preserve">Invalid view - remove from diagram.</text>
<rect x="288" y="125" clip-path="url(#clipPath1)" fill="rgb(255,203,203)" width="40" height="40" stroke="none" stroke-width="0.1"/>
<rect x="288" y="125" clip-path="url(#clipPath1)" fill="none" width="39" height="39" stroke="black" stroke-width="0.1"/>
<text x="211" y="150" clip-path="url(#clipPath1)" fill="black" stroke="none" stroke-width="0.1" xml:space="preserve">Invalid view - remove from diagram.</text>
<rect x="288" y="125" clip-path="url(#clipPath1)" fill="rgb(255,203,203)" width="40" height="40" stroke="none" stroke-width="0.1"/>
<rect x="288" y="125" clip-path="url(#clipPath1)" fill="none" width="39" height="39" stroke="black" stroke-width="0.1"/>
<text x="211" y="150" clip-path="url(#clipPath1)" fill="black" stroke="none" stroke-width="0.1" xml:space="preserve">Invalid view - remove from diagram.</text>
<rect x="288" y="125" clip-path="url(#clipPath1)" fill="rgb(255,203,203)" width="40" height="40" stroke="none" stroke-width="0.1"/>
<rect x="288" y="125" clip-path="url(#clipPath1)" fill="none" width="39" height="39" stroke="black" stroke-width="0.1"/>
<text x="211" y="150" clip-path="url(#clipPath1)" fill="black" stroke="none" stroke-width="0.1" xml:space="preserve">Invalid view - remove from diagram.</text>
<text x="534" y="644" clip-path="url(#clipPath16)" stroke="none" stroke-width="0.1" xml:space="preserve">Invalid view - remove from diagram.</text>
</g>
</g>
<rect x="707" y="172" fill-opacity="0" width="198" title="Represents any relevant physical thing. &#13;&#10;Can be either field replaceable or not field replaceable.&#13;&#10;Note: The model is currently constrained to inside plant." id="Equipment" height="112" stroke-opacity="0">
<title>Represents any relevant physical thing. &#13;
Can be either field replaceable or not field replaceable.&#13;
Note: The model is currently constrained to inside plant.</title>
</rect>
<rect x="747" y="590" fill-opacity="0" width="40" title="Represents a space in an equipment in which another equipment can be fitted in the field." id="Holder" height="40" stroke-opacity="0">
<title>Represents a space in an equipment in which another equipment can be fitted in the field.</title>
</rect>
<rect x="1046" y="806" fill-opacity="0" width="40" title="Represents a connector that may be fully exposed (e.g. to plug in a cable or on the end of a cable) or partially exposed (e.g. backplane to plug in another piece of equipment such as a module).&#13;&#10;A physical port on the Equipment. A place where signals produced by the functionality of the Equipment may be accessed." id="Connector" height="40" stroke-opacity="0">
<title>Represents a connector that may be fully exposed (e.g. to plug in a cable or on the end of a cable) or partially exposed (e.g. backplane to plug in another piece of equipment such as a module).&#13;
A physical port on the Equipment. A place where signals produced by the functionality of the Equipment may be accessed.</title>
</rect>
<rect x="200" y="10" fill-opacity="0" width="298" height="40" stroke-opacity="0"/>
<rect x="703" y="101" fill-opacity="0" width="211" height="40" stroke-opacity="0"/>
<rect x="505" y="10" fill-opacity="0" width="40" height="40" stroke-opacity="0"/>
<rect x="17" y="11" fill-opacity="0" width="166" height="40" stroke-opacity="0"/>
<rect x="1128" y="160" fill-opacity="0" width="391" height="40" stroke-opacity="0"/>
<rect x="1188" y="349" fill-opacity="0" width="395" height="40" stroke-opacity="0"/>
<rect x="579" y="355" fill-opacity="0" width="131" height="40" stroke-opacity="0"/>
<rect x="314" y="365" fill-opacity="0" width="177" title="A definition of the restrictions on the equipment that is expected to be present in the physical network at a particular &quot;place&quot;.&#13;&#10;The expected equipment will state the type and may constrain any other invariant properties. &#13;&#10;It may also provide desired ranges for dynamic properties." id="ExpectedEquipment" height="40" stroke-opacity="0">
<title>A definition of the restrictions on the equipment that is expected to be present in the physical network at a particular "place".&#13;
The expected equipment will state the type and may constrain any other invariant properties. &#13;
It may also provide desired ranges for dynamic properties.</title>
</rect>
<rect x="86" y="366" fill-opacity="0" width="141" title="The equipment that is actually present in the physical network.&#13;&#10;It will expose all dynamic properties and some critical static properties." id="ActualEquipment" height="40" stroke-opacity="0">
<title>The equipment that is actually present in the physical network.&#13;
It will expose all dynamic properties and some critical static properties.</title>
</rect>
<rect x="352" y="757" fill-opacity="0" width="40" title="A definition of a holder expected in the ActualEquipment (i.e. an ActualHolder) as part of the constraints provided by the ExpectedEquipment." id="ExpectedHolder" height="40" stroke-opacity="0">
<title>A definition of a holder expected in the ActualEquipment (i.e. an ActualHolder) as part of the constraints provided by the ExpectedEquipment.</title>
</rect>
<rect x="90" y="763" fill-opacity="0" width="40" title="A holder in the ActualEquipment." id="ActualHolder" height="40" stroke-opacity="0">
<title>A holder in the ActualEquipment.</title>
</rect>
<rect x="499" y="753" fill-opacity="0" width="296" title="Represents the dynamic state of the holder instance. " id="HolderMonitor" height="40" stroke-opacity="0">
<title>Represents the dynamic state of the holder instance. </title>
</rect>
<rect x="0" y="0" fill-opacity="0" width="0" id="isActualMismatchWithExpected" height="0" stroke-opacity="0"/>
<rect x="181" y="233" fill-opacity="0" width="204" height="40" stroke-opacity="0"/>
<rect x="498" y="421" fill-opacity="0" width="261" height="40" stroke-opacity="0"/>
<rect x="643" y="877" fill-opacity="0" width="227" height="40" stroke-opacity="0"/>
<rect x="853" y="634" fill-opacity="0" width="233" height="40" stroke-opacity="0"/>
<rect x="177" y="475" fill-opacity="0" width="174" height="42" stroke-opacity="0"/>
<rect x="129" y="530" fill-opacity="0" width="237" height="40" stroke-opacity="0"/>
</svg>
