<?xml version="1.0" encoding="UTF-8"?><svg xmlns="http://www.w3.org/2000/svg" xmlns:xlink="http://www.w3.org/1999/xlink" stroke-dasharray="none" shape-rendering="auto" font-family="'Dialog'" width="1499" text-rendering="auto" fill-opacity="1" contentScriptType="text/ecmascript" color-interpolation="auto" color-rendering="auto" preserveAspectRatio="xMidYMid meet" font-size="12" viewBox="0 0 1499 1050" fill="black" stroke="black" image-rendering="auto" stroke-miterlimit="10" zoomAndPan="magnify" version="1.0" stroke-linecap="square" stroke-linejoin="miter" contentStyleType="text/css" font-style="normal" height="1050" stroke-width="1" stroke-dashoffset="0" font-weight="normal" stroke-opacity="1">
<!--Generated by the Batik Graphics2D SVG Generator-->
<defs id="genericDefs"/>
<g>
<defs id="defs1">
<clipPath clipPathUnits="userSpaceOnUse" id="clipPath1">
<path d="M171 22 L213 22 L213 64 L171 64 L171 22 Z"/>
</clipPath>
<clipPath clipPathUnits="userSpaceOnUse" id="clipPath2">
<path d="M341 498 L535 498 L535 516 L341 516 L341 498 Z"/>
</clipPath>
<clipPath clipPathUnits="userSpaceOnUse" id="clipPath3">
<path d="M-1 -1 L1500 -1 L1500 1051 L-1 1051 L-1 -1 Z"/>
</clipPath>
<clipPath clipPathUnits="userSpaceOnUse" id="clipPath4">
<path d="M22 503 L216 503 L216 521 L22 521 L22 503 Z"/>
</clipPath>
<clipPath clipPathUnits="userSpaceOnUse" id="clipPath5">
<path d="M129 499 L323 499 L323 517 L129 517 L129 499 Z"/>
</clipPath>
<clipPath clipPathUnits="userSpaceOnUse" id="clipPath6">
<path d="M452 100 L646 100 L646 118 L452 118 L452 100 Z"/>
</clipPath>
<clipPath clipPathUnits="userSpaceOnUse" id="clipPath7">
<path d="M452 168 L646 168 L646 186 L452 186 L452 168 Z"/>
</clipPath>
<clipPath clipPathUnits="userSpaceOnUse" id="clipPath8">
<path d="M465 389 L659 389 L659 407 L465 407 L465 389 Z"/>
</clipPath>
<clipPath clipPathUnits="userSpaceOnUse" id="clipPath9">
<path d="M729 501 L923 501 L923 519 L729 519 L729 501 Z"/>
</clipPath>
<clipPath clipPathUnits="userSpaceOnUse" id="clipPath10">
<path d="M894 502 L1088 502 L1088 520 L894 520 L894 502 Z"/>
</clipPath>
<clipPath clipPathUnits="userSpaceOnUse" id="clipPath11">
<path d="M1169 753 L1363 753 L1363 771 L1169 771 L1169 753 Z"/>
</clipPath>
<clipPath clipPathUnits="userSpaceOnUse" id="clipPath12">
<path d="M1113 889 L1307 889 L1307 907 L1113 907 L1113 889 Z"/>
</clipPath>
<clipPath clipPathUnits="userSpaceOnUse" id="clipPath13">
<path d="M682 887 L876 887 L876 905 L682 905 L682 887 Z"/>
</clipPath>
<clipPath clipPathUnits="userSpaceOnUse" id="clipPath14">
<path d="M1283 814 L1477 814 L1477 832 L1283 832 L1283 814 Z"/>
</clipPath>
<clipPath clipPathUnits="userSpaceOnUse" id="clipPath15">
<path d="M758 858 L952 858 L952 876 L758 876 L758 858 Z"/>
</clipPath>
<clipPath clipPathUnits="userSpaceOnUse" id="clipPath16">
<path d="M692 951 L886 951 L886 969 L692 969 L692 951 Z"/>
</clipPath>
<clipPath clipPathUnits="userSpaceOnUse" id="clipPath17">
<path d="M272 882 L466 882 L466 900 L272 900 L272 882 Z"/>
</clipPath>
<clipPath clipPathUnits="userSpaceOnUse" id="clipPath18">
<path d="M272 889 L466 889 L466 907 L272 907 L272 889 Z"/>
</clipPath>
<clipPath clipPathUnits="userSpaceOnUse" id="clipPath19">
<path d="M288 941 L482 941 L482 959 L288 959 L288 941 Z"/>
</clipPath>
<clipPath clipPathUnits="userSpaceOnUse" id="clipPath20">
<path d="M321 868 L515 868 L515 886 L321 886 L321 868 Z"/>
</clipPath>
<clipPath clipPathUnits="userSpaceOnUse" id="clipPath21">
<path d="M230 248 L424 248 L424 266 L230 266 L230 248 Z"/>
</clipPath>
</defs>
<g fill="rgb(255,203,203)" font-family="'Segoe UI'" stroke-linejoin="round" stroke="rgb(255,203,203)" stroke-width="0" stroke-miterlimit="0">
<rect width="40" x="369" height="40" y="86" stroke="none"/>
</g>
<g stroke-linecap="butt" font-family="'Segoe UI'">
<rect fill="none" width="39" x="369" height="39" y="86"/>
<text xml:space="preserve" x="292" y="111" stroke="none">Invalid view - remove from diagram.</text>
<rect x="689" y="86" fill="rgb(255,203,203)" width="40" height="40" stroke="none"/>
<rect x="689" y="86" fill="none" width="39" height="39" stroke-width="0.1"/>
<text xml:space="preserve" x="612" stroke-width="0.1" y="111" stroke="none">Invalid view - remove from diagram.</text>
<rect x="689" y="210" fill="rgb(255,203,203)" width="40" height="40" stroke="none" stroke-width="0.1"/>
<rect x="689" y="210" fill="none" width="39" height="39" stroke-width="0.1"/>
<text xml:space="preserve" x="612" stroke-width="0.1" y="235" stroke="none">Invalid view - remove from diagram.</text>
<rect x="251" y="387" fill="rgb(255,203,203)" width="40" height="40" stroke="none" stroke-width="0.1"/>
<rect x="251" y="387" fill="none" width="39" height="39" stroke-width="0.1"/>
<text xml:space="preserve" x="174" stroke-width="0.1" y="412" stroke="none">Invalid view - remove from diagram.</text>
<rect x="832" y="384" fill="rgb(255,203,203)" width="40" height="40" stroke="none" stroke-width="0.1"/>
<rect x="832" y="384" fill="none" width="39" height="39" stroke-width="0.1"/>
<text xml:space="preserve" x="755" stroke-width="0.1" y="409" stroke="none">Invalid view - remove from diagram.</text>
<rect x="1101" y="598" fill="rgb(255,203,203)" width="40" height="40" stroke="none" stroke-width="0.1"/>
<rect x="1101" y="598" fill="none" width="39" height="39" stroke-width="0.1"/>
<text xml:space="preserve" x="1024" stroke-width="0.1" y="623" stroke="none">Invalid view - remove from diagram.</text>
<rect x="795" y="596" fill="rgb(255,203,203)" width="40" height="40" stroke="none" stroke-width="0.1"/>
<rect x="795" y="596" fill="none" width="39" height="39" stroke-width="0.1"/>
<text xml:space="preserve" x="718" stroke-width="0.1" y="621" stroke="none">Invalid view - remove from diagram.</text>
<rect x="871" y="203" fill="rgb(255,203,203)" width="251" height="40" stroke="none" stroke-width="0.1"/>
<rect x="871" y="203" fill="none" width="250" height="39" stroke-width="0.1"/>
<text xml:space="preserve" x="900" stroke-width="0.1" y="228" stroke="none">Invalid view - remove from diagram.</text>
<rect x="1391" y="886" fill="rgb(255,203,203)" width="40" height="40" stroke="none" stroke-width="0.1"/>
<rect x="1391" y="886" fill="none" width="39" height="39" stroke-width="0.1"/>
<text xml:space="preserve" x="1314" stroke-width="0.1" y="911" stroke="none">Invalid view - remove from diagram.</text>
<rect x="298" y="679" fill="rgb(255,203,203)" width="409" height="40" stroke="none" stroke-width="0.1"/>
<rect x="298" y="679" fill="none" width="408" height="39" stroke-width="0.1"/>
<text xml:space="preserve" x="406" stroke-width="0.1" y="704" stroke="none">Invalid view - remove from diagram.</text>
<rect x="1264" y="361" fill="rgb(255,203,203)" width="40" height="40" stroke="none" stroke-width="0.1"/>
<rect x="1264" y="361" fill="none" width="39" height="39" stroke-width="0.1"/>
<text xml:space="preserve" x="1187" stroke-width="0.1" y="386" stroke="none">Invalid view - remove from diagram.</text>
<rect x="989" y="885" fill="rgb(255,203,203)" width="40" height="40" stroke="none" stroke-width="0.1"/>
<rect x="989" y="885" fill="none" width="39" height="39" stroke-width="0.1"/>
<text xml:space="preserve" x="912" stroke-width="0.1" y="910" stroke="none">Invalid view - remove from diagram.</text>
<rect x="529" y="868" fill="rgb(255,203,203)" width="40" height="40" stroke="none" stroke-width="0.1"/>
<rect x="529" y="868" fill="none" width="39" height="39" stroke-width="0.1"/>
<text xml:space="preserve" x="452" stroke-width="0.1" y="893" stroke="none">Invalid view - remove from diagram.</text>
<rect x="1139" y="801" fill="rgb(255,203,203)" width="226" height="40" stroke="none" stroke-width="0.1"/>
<rect x="1139" y="801" fill="none" width="225" height="39" stroke-width="0.1"/>
<text xml:space="preserve" x="1155" stroke-width="0.1" y="826" stroke="none">Invalid view - remove from diagram.</text>
<rect x="684" y="831" fill="rgb(255,203,203)" width="164" height="40" stroke="none" stroke-width="0.1"/>
<rect x="684" y="831" fill="none" width="163" height="39" stroke-width="0.1"/>
<text xml:space="preserve" x="669" stroke-width="0.1" y="856" stroke="none">Invalid view - remove from diagram.</text>
<rect x="549" y="992" fill="rgb(255,203,203)" width="40" height="40" stroke="none" stroke-width="0.1"/>
<rect x="549" y="992" fill="none" width="39" height="39" stroke-width="0.1"/>
<text xml:space="preserve" x="472" stroke-width="0.1" y="1017" stroke="none">Invalid view - remove from diagram.</text>
<rect x="866" y="744" fill="rgb(255,203,203)" width="40" height="40" stroke="none" stroke-width="0.1"/>
<rect x="866" y="744" fill="none" width="39" height="39" stroke-width="0.1"/>
<text xml:space="preserve" x="789" stroke-width="0.1" y="769" stroke="none">Invalid view - remove from diagram.</text>
<rect x="153" y="146" fill="rgb(255,203,203)" width="40" height="40" stroke="none" stroke-width="0.1"/>
<rect x="153" y="146" fill="none" width="39" height="39" stroke-width="0.1"/>
<text xml:space="preserve" x="76" stroke-width="0.1" y="171" stroke="none">Invalid view - remove from diagram.</text>
<rect x="153" y="268" fill="rgb(255,203,203)" width="40" height="40" stroke="none" stroke-width="0.1"/>
<rect x="153" y="268" fill="none" width="39" height="39" stroke-width="0.1"/>
<text xml:space="preserve" x="76" stroke-width="0.1" y="293" stroke="none">Invalid view - remove from diagram.</text>
<rect x="169" y="876" fill="rgb(255,203,203)" width="40" height="40" stroke="none" stroke-width="0.1"/>
<rect x="169" y="876" fill="none" width="39" height="39" stroke-width="0.1"/>
<text xml:space="preserve" x="92" stroke-width="0.1" y="901" stroke="none">Invalid view - remove from diagram.</text>
<rect x="297" y="1000" fill="rgb(255,203,203)" width="190" height="40" stroke="none" stroke-width="0.1"/>
<rect x="297" y="1000" fill="none" width="189" height="39" stroke-width="0.1"/>
<text xml:space="preserve" x="295" stroke-width="0.1" y="1025" stroke="none">Invalid view - remove from diagram.</text>
<rect x="350" y="823" fill="rgb(255,203,203)" width="40" height="40" stroke="none" stroke-width="0.1"/>
<rect x="350" y="823" fill="none" width="39" height="39" stroke-width="0.1"/>
<text xml:space="preserve" x="273" stroke-width="0.1" y="848" stroke="none">Invalid view - remove from diagram.</text>
<line fill="none" x1="291" x2="401" y1="407" y2="407" stroke="red" stroke-width="1.1"/>
<line fill="none" x1="401" x2="401" y1="407" y2="395" stroke="red" stroke-width="1.1"/>
<line fill="none" x1="401" x2="438" y1="395" y2="395" stroke="red" stroke-width="1.1"/>
<line fill="none" x1="438" x2="438" y1="395" y2="519" stroke="red" stroke-width="1.1"/>
<line fill="none" x1="438" x2="271" y1="519" y2="519" stroke="red" stroke-width="1.1"/>
<line fill="none" x1="271" x2="271" y1="519" y2="427" stroke="red" stroke-width="1.1"/>
<rect x="172" y="23" clip-path="url(#clipPath1)" fill="rgb(255,203,203)" width="40" height="40" stroke="none" stroke-width="1.1"/>
<rect x="172" y="23" clip-path="url(#clipPath1)" fill="none" width="39" height="39" stroke-width="0.1"/>
<text x="95" y="48" clip-path="url(#clipPath1)" stroke="none" stroke-width="0.1" xml:space="preserve">Invalid view - remove from diagram.</text>
<rect x="172" y="23" clip-path="url(#clipPath1)" fill="rgb(255,203,203)" width="40" height="40" stroke="none" stroke-width="0.1"/>
<rect x="172" y="23" clip-path="url(#clipPath1)" fill="none" width="39" height="39" stroke-width="0.1"/>
<text x="95" y="48" clip-path="url(#clipPath1)" stroke="none" stroke-width="0.1" xml:space="preserve">Invalid view - remove from diagram.</text>
<rect x="172" y="23" clip-path="url(#clipPath1)" fill="rgb(255,203,203)" width="40" height="40" stroke="none" stroke-width="0.1"/>
<rect x="172" y="23" clip-path="url(#clipPath1)" fill="none" width="39" height="39" stroke-width="0.1"/>
<text x="95" y="48" clip-path="url(#clipPath1)" stroke="none" stroke-width="0.1" xml:space="preserve">Invalid view - remove from diagram.</text>
<rect x="172" y="23" clip-path="url(#clipPath1)" fill="rgb(255,203,203)" width="40" height="40" stroke="none" stroke-width="0.1"/>
<rect x="172" y="23" clip-path="url(#clipPath1)" fill="none" width="39" height="39" stroke-width="0.1"/>
<text x="95" y="48" clip-path="url(#clipPath1)" stroke="none" stroke-width="0.1" xml:space="preserve">Invalid view - remove from diagram.</text>
<text x="342" y="512" clip-path="url(#clipPath2)" fill="red" stroke="none" stroke-width="0.1" xml:space="preserve">Invalid view - remove from diagram.</text>
<line clip-path="url(#clipPath3)" fill="none" x1="251" x2="119" y1="407" y2="407" stroke="red" stroke-width="1.1"/>
<line clip-path="url(#clipPath3)" fill="none" x1="119" x2="119" y1="407" y2="512" stroke="red" stroke-width="1.1"/>
<line clip-path="url(#clipPath3)" fill="none" x1="119" x2="271" y1="512" y2="512" stroke="red" stroke-width="1.1"/>
<line clip-path="url(#clipPath3)" fill="none" x1="271" x2="271" y1="512" y2="427" stroke="red" stroke-width="1.1"/>
<rect x="172" y="23" clip-path="url(#clipPath1)" fill="rgb(255,203,203)" width="40" height="40" stroke="none" stroke-width="1.1"/>
<rect x="172" y="23" clip-path="url(#clipPath1)" fill="none" width="39" height="39" stroke-width="0.1"/>
<text x="95" y="48" clip-path="url(#clipPath1)" stroke="none" stroke-width="0.1" xml:space="preserve">Invalid view - remove from diagram.</text>
<rect x="172" y="23" clip-path="url(#clipPath1)" fill="rgb(255,203,203)" width="40" height="40" stroke="none" stroke-width="0.1"/>
<rect x="172" y="23" clip-path="url(#clipPath1)" fill="none" width="39" height="39" stroke-width="0.1"/>
<text x="95" y="48" clip-path="url(#clipPath1)" stroke="none" stroke-width="0.1" xml:space="preserve">Invalid view - remove from diagram.</text>
<rect x="172" y="23" clip-path="url(#clipPath1)" fill="rgb(255,203,203)" width="40" height="40" stroke="none" stroke-width="0.1"/>
<rect x="172" y="23" clip-path="url(#clipPath1)" fill="none" width="39" height="39" stroke-width="0.1"/>
<text x="95" y="48" clip-path="url(#clipPath1)" stroke="none" stroke-width="0.1" xml:space="preserve">Invalid view - remove from diagram.</text>
<rect x="172" y="23" clip-path="url(#clipPath1)" fill="rgb(255,203,203)" width="40" height="40" stroke="none" stroke-width="0.1"/>
<rect x="172" y="23" clip-path="url(#clipPath1)" fill="none" width="39" height="39" stroke-width="0.1"/>
<text x="95" y="48" clip-path="url(#clipPath1)" stroke="none" stroke-width="0.1" xml:space="preserve">Invalid view - remove from diagram.</text>
<text x="23" y="517" clip-path="url(#clipPath4)" fill="red" stroke="none" stroke-width="0.1" xml:space="preserve">Invalid view - remove from diagram.</text>
<line clip-path="url(#clipPath3)" fill="none" x1="253" x2="253" y1="427" y2="496" stroke="red" stroke-width="1.1"/>
<line clip-path="url(#clipPath3)" fill="none" x1="253" x2="325" y1="496" y2="496" stroke="red" stroke-width="1.1"/>
<line clip-path="url(#clipPath3)" fill="none" x1="325" x2="325" y1="496" y2="508" stroke="red" stroke-width="1.1"/>
<line clip-path="url(#clipPath3)" fill="none" x1="325" x2="162" y1="508" y2="508" stroke="red" stroke-width="1.1"/>
<line clip-path="url(#clipPath3)" fill="none" x1="162" x2="162" y1="508" y2="410" stroke="red" stroke-width="1.1"/>
<line clip-path="url(#clipPath3)" fill="none" x1="162" x2="251" y1="410" y2="410" stroke="red" stroke-width="1.1"/>
<rect x="172" y="23" clip-path="url(#clipPath1)" fill="rgb(255,203,203)" width="40" height="40" stroke="none" stroke-width="1.1"/>
<rect x="172" y="23" clip-path="url(#clipPath1)" fill="none" width="39" height="39" stroke-width="0.1"/>
<text x="95" y="48" clip-path="url(#clipPath1)" stroke="none" stroke-width="0.1" xml:space="preserve">Invalid view - remove from diagram.</text>
<text x="130" y="513" clip-path="url(#clipPath5)" fill="red" stroke="none" stroke-width="0.1" xml:space="preserve">Invalid view - remove from diagram.</text>
<line clip-path="url(#clipPath3)" fill="none" x1="409" x2="689" y1="109" y2="109" stroke="red" stroke-width="1.1"/>
<text x="453" y="114" clip-path="url(#clipPath6)" fill="red" stroke="none" stroke-width="1.1" xml:space="preserve">Invalid view - remove from diagram.</text>
<line clip-path="url(#clipPath3)" fill="none" x1="409" x2="549" y1="124" y2="124" stroke="red" stroke-width="1.1"/>
<line clip-path="url(#clipPath3)" fill="none" x1="549" x2="549" y1="124" y2="229" stroke="red" stroke-width="1.1"/>
<line clip-path="url(#clipPath3)" fill="none" x1="549" x2="689" y1="229" y2="229" stroke="red" stroke-width="1.1"/>
<text x="453" y="182" clip-path="url(#clipPath7)" fill="red" stroke="none" stroke-width="1.1" xml:space="preserve">Invalid view - remove from diagram.</text>
<line clip-path="url(#clipPath3)" fill="none" x1="291" x2="832" y1="398" y2="398" stroke="red" stroke-width="1.1"/>
<rect x="172" y="23" clip-path="url(#clipPath1)" fill="rgb(255,203,203)" width="40" height="40" stroke="none" stroke-width="1.1"/>
<rect x="172" y="23" clip-path="url(#clipPath1)" fill="none" width="39" height="39" stroke-width="0.1"/>
<text x="95" y="48" clip-path="url(#clipPath1)" stroke="none" stroke-width="0.1" xml:space="preserve">Invalid view - remove from diagram.</text>
<rect x="172" y="23" clip-path="url(#clipPath1)" fill="rgb(255,203,203)" width="40" height="40" stroke="none" stroke-width="0.1"/>
<rect x="172" y="23" clip-path="url(#clipPath1)" fill="none" width="39" height="39" stroke-width="0.1"/>
<text x="95" y="48" clip-path="url(#clipPath1)" stroke="none" stroke-width="0.1" xml:space="preserve">Invalid view - remove from diagram.</text>
<rect x="172" y="23" clip-path="url(#clipPath1)" fill="rgb(255,203,203)" width="40" height="40" stroke="none" stroke-width="0.1"/>
<rect x="172" y="23" clip-path="url(#clipPath1)" fill="none" width="39" height="39" stroke-width="0.1"/>
<text x="95" y="48" clip-path="url(#clipPath1)" stroke="none" stroke-width="0.1" xml:space="preserve">Invalid view - remove from diagram.</text>
<text x="466" y="403" clip-path="url(#clipPath8)" fill="red" stroke="none" stroke-width="0.1" xml:space="preserve">Invalid view - remove from diagram.</text>
<line clip-path="url(#clipPath3)" fill="none" x1="841" x2="841" y1="424" y2="510" stroke="red" stroke-width="1.1"/>
<line clip-path="url(#clipPath3)" fill="none" x1="841" x2="811" y1="510" y2="510" stroke="red" stroke-width="1.1"/>
<line clip-path="url(#clipPath3)" fill="none" x1="811" x2="811" y1="510" y2="596" stroke="red" stroke-width="1.1"/>
<rect x="172" y="23" clip-path="url(#clipPath1)" fill="rgb(255,203,203)" width="40" height="40" stroke="none" stroke-width="1.1"/>
<rect x="172" y="23" clip-path="url(#clipPath1)" fill="none" width="39" height="39" stroke-width="0.1"/>
<text x="95" y="48" clip-path="url(#clipPath1)" stroke="none" stroke-width="0.1" xml:space="preserve">Invalid view - remove from diagram.</text>
<rect x="172" y="23" clip-path="url(#clipPath1)" fill="rgb(255,203,203)" width="40" height="40" stroke="none" stroke-width="0.1"/>
<rect x="172" y="23" clip-path="url(#clipPath1)" fill="none" width="39" height="39" stroke-width="0.1"/>
<text x="95" y="48" clip-path="url(#clipPath1)" stroke="none" stroke-width="0.1" xml:space="preserve">Invalid view - remove from diagram.</text>
<rect x="172" y="23" clip-path="url(#clipPath1)" fill="rgb(255,203,203)" width="40" height="40" stroke="none" stroke-width="0.1"/>
<rect x="172" y="23" clip-path="url(#clipPath1)" fill="none" width="39" height="39" stroke-width="0.1"/>
<text x="95" y="48" clip-path="url(#clipPath1)" stroke="none" stroke-width="0.1" xml:space="preserve">Invalid view - remove from diagram.</text>
<rect x="172" y="23" clip-path="url(#clipPath1)" fill="rgb(255,203,203)" width="40" height="40" stroke="none" stroke-width="0.1"/>
<rect x="172" y="23" clip-path="url(#clipPath1)" fill="none" width="39" height="39" stroke-width="0.1"/>
<text x="95" y="48" clip-path="url(#clipPath1)" stroke="none" stroke-width="0.1" xml:space="preserve">Invalid view - remove from diagram.</text>
<text x="730" y="515" clip-path="url(#clipPath9)" fill="red" stroke="none" stroke-width="0.1" xml:space="preserve">Invalid view - remove from diagram.</text>
<line clip-path="url(#clipPath3)" fill="none" x1="864" x2="864" y1="424" y2="511" stroke="red" stroke-width="1.1"/>
<line clip-path="url(#clipPath3)" fill="none" x1="864" x2="1118" y1="511" y2="511" stroke="red" stroke-width="1.1"/>
<line clip-path="url(#clipPath3)" fill="none" x1="1118" x2="1118" y1="511" y2="598" stroke="red" stroke-width="1.1"/>
<rect x="172" y="23" clip-path="url(#clipPath1)" fill="rgb(255,203,203)" width="40" height="40" stroke="none" stroke-width="1.1"/>
<rect x="172" y="23" clip-path="url(#clipPath1)" fill="none" width="39" height="39" stroke-width="0.1"/>
<text x="95" y="48" clip-path="url(#clipPath1)" stroke="none" stroke-width="0.1" xml:space="preserve">Invalid view - remove from diagram.</text>
<rect x="172" y="23" clip-path="url(#clipPath1)" fill="rgb(255,203,203)" width="40" height="40" stroke="none" stroke-width="0.1"/>
<rect x="172" y="23" clip-path="url(#clipPath1)" fill="none" width="39" height="39" stroke-width="0.1"/>
<text x="95" y="48" clip-path="url(#clipPath1)" stroke="none" stroke-width="0.1" xml:space="preserve">Invalid view - remove from diagram.</text>
<rect x="172" y="23" clip-path="url(#clipPath1)" fill="rgb(255,203,203)" width="40" height="40" stroke="none" stroke-width="0.1"/>
<rect x="172" y="23" clip-path="url(#clipPath1)" fill="none" width="39" height="39" stroke-width="0.1"/>
<text x="95" y="48" clip-path="url(#clipPath1)" stroke="none" stroke-width="0.1" xml:space="preserve">Invalid view - remove from diagram.</text>
<text x="895" y="516" clip-path="url(#clipPath10)" fill="red" stroke="none" stroke-width="0.1" xml:space="preserve">Invalid view - remove from diagram.</text>
<line clip-path="url(#clipPath3)" fill="none" x1="1138" x2="1138" y1="638" y2="762" stroke="red" stroke-width="1.1"/>
<line clip-path="url(#clipPath3)" fill="none" x1="1138" x2="1394" y1="762" y2="762" stroke="red" stroke-width="1.1"/>
<line clip-path="url(#clipPath3)" fill="none" x1="1394" x2="1394" y1="762" y2="886" stroke="red" stroke-width="1.1"/>
<rect x="172" y="23" clip-path="url(#clipPath1)" fill="rgb(255,203,203)" width="40" height="40" stroke="none" stroke-width="1.1"/>
<rect x="172" y="23" clip-path="url(#clipPath1)" fill="none" width="39" height="39" stroke-width="0.1"/>
<text x="95" y="48" clip-path="url(#clipPath1)" stroke="none" stroke-width="0.1" xml:space="preserve">Invalid view - remove from diagram.</text>
<rect x="172" y="23" clip-path="url(#clipPath1)" fill="rgb(255,203,203)" width="40" height="40" stroke="none" stroke-width="0.1"/>
<rect x="172" y="23" clip-path="url(#clipPath1)" fill="none" width="39" height="39" stroke-width="0.1"/>
<text x="95" y="48" clip-path="url(#clipPath1)" stroke="none" stroke-width="0.1" xml:space="preserve">Invalid view - remove from diagram.</text>
<rect x="172" y="23" clip-path="url(#clipPath1)" fill="rgb(255,203,203)" width="40" height="40" stroke="none" stroke-width="0.1"/>
<rect x="172" y="23" clip-path="url(#clipPath1)" fill="none" width="39" height="39" stroke-width="0.1"/>
<text x="95" y="48" clip-path="url(#clipPath1)" stroke="none" stroke-width="0.1" xml:space="preserve">Invalid view - remove from diagram.</text>
<rect x="172" y="23" clip-path="url(#clipPath1)" fill="rgb(255,203,203)" width="40" height="40" stroke="none" stroke-width="0.1"/>
<rect x="172" y="23" clip-path="url(#clipPath1)" fill="none" width="39" height="39" stroke-width="0.1"/>
<text x="95" y="48" clip-path="url(#clipPath1)" stroke="none" stroke-width="0.1" xml:space="preserve">Invalid view - remove from diagram.</text>
<rect x="172" y="23" clip-path="url(#clipPath1)" fill="rgb(255,203,203)" width="40" height="40" stroke="none" stroke-width="0.1"/>
<rect x="172" y="23" clip-path="url(#clipPath1)" fill="none" width="39" height="39" stroke-width="0.1"/>
<text x="95" y="48" clip-path="url(#clipPath1)" stroke="none" stroke-width="0.1" xml:space="preserve">Invalid view - remove from diagram.</text>
<text x="1170" y="767" clip-path="url(#clipPath11)" fill="red" stroke="none" stroke-width="0.1" xml:space="preserve">Invalid view - remove from diagram.</text>
<line clip-path="url(#clipPath3)" fill="none" x1="1391" x2="1029" y1="898" y2="898" stroke="red" stroke-width="1.1"/>
<rect x="172" y="23" clip-path="url(#clipPath1)" fill="rgb(255,203,203)" width="40" height="40" stroke="none" stroke-width="1.1"/>
<rect x="172" y="23" clip-path="url(#clipPath1)" fill="none" width="39" height="39" stroke-width="0.1"/>
<text x="95" y="48" clip-path="url(#clipPath1)" stroke="none" stroke-width="0.1" xml:space="preserve">Invalid view - remove from diagram.</text>
<text x="1114" y="903" clip-path="url(#clipPath12)" fill="red" stroke="none" stroke-width="0.1" xml:space="preserve">Invalid view - remove from diagram.</text>
<line clip-path="url(#clipPath3)" fill="none" x1="989" x2="569" y1="903" y2="888" stroke="red" stroke-width="1.1"/>
<rect x="172" y="23" clip-path="url(#clipPath1)" fill="rgb(255,203,203)" width="40" height="40" stroke="none" stroke-width="1.1"/>
<rect x="172" y="23" clip-path="url(#clipPath1)" fill="none" width="39" height="39" stroke-width="0.1"/>
<text x="95" y="48" clip-path="url(#clipPath1)" stroke="none" stroke-width="0.1" xml:space="preserve">Invalid view - remove from diagram.</text>
<rect x="172" y="23" clip-path="url(#clipPath1)" fill="rgb(255,203,203)" width="40" height="40" stroke="none" stroke-width="0.1"/>
<rect x="172" y="23" clip-path="url(#clipPath1)" fill="none" width="39" height="39" stroke-width="0.1"/>
<text x="95" y="48" clip-path="url(#clipPath1)" stroke="none" stroke-width="0.1" xml:space="preserve">Invalid view - remove from diagram.</text>
<rect x="172" y="23" clip-path="url(#clipPath1)" fill="rgb(255,203,203)" width="40" height="40" stroke="none" stroke-width="0.1"/>
<rect x="172" y="23" clip-path="url(#clipPath1)" fill="none" width="39" height="39" stroke-width="0.1"/>
<text x="95" y="48" clip-path="url(#clipPath1)" stroke="none" stroke-width="0.1" xml:space="preserve">Invalid view - remove from diagram.</text>
<rect x="172" y="23" clip-path="url(#clipPath1)" fill="rgb(255,203,203)" width="40" height="40" stroke="none" stroke-width="0.1"/>
<rect x="172" y="23" clip-path="url(#clipPath1)" fill="none" width="39" height="39" stroke-width="0.1"/>
<text x="95" y="48" clip-path="url(#clipPath1)" stroke="none" stroke-width="0.1" xml:space="preserve">Invalid view - remove from diagram.</text>
<rect x="172" y="23" clip-path="url(#clipPath1)" fill="rgb(255,203,203)" width="40" height="40" stroke="none" stroke-width="0.1"/>
<rect x="172" y="23" clip-path="url(#clipPath1)" fill="none" width="39" height="39" stroke-width="0.1"/>
<text x="95" y="48" clip-path="url(#clipPath1)" stroke="none" stroke-width="0.1" xml:space="preserve">Invalid view - remove from diagram.</text>
<text x="683" y="901" clip-path="url(#clipPath13)" fill="red" stroke="none" stroke-width="0.1" xml:space="preserve">Invalid view - remove from diagram.</text>
<line clip-path="url(#clipPath3)" fill="none" x1="1394" x2="1365" y1="834" y2="812" stroke="red" stroke-width="1.1"/>
<rect x="172" y="23" clip-path="url(#clipPath1)" fill="rgb(255,203,203)" width="40" height="40" stroke="none" stroke-width="1.1"/>
<rect x="172" y="23" clip-path="url(#clipPath1)" fill="none" width="39" height="39" stroke-width="0.1"/>
<text x="95" y="48" clip-path="url(#clipPath1)" stroke="none" stroke-width="0.1" xml:space="preserve">Invalid view - remove from diagram.</text>
<rect x="172" y="23" clip-path="url(#clipPath1)" fill="rgb(255,203,203)" width="40" height="40" stroke="none" stroke-width="0.1"/>
<rect x="172" y="23" clip-path="url(#clipPath1)" fill="none" width="39" height="39" stroke-width="0.1"/>
<text x="95" y="48" clip-path="url(#clipPath1)" stroke="none" stroke-width="0.1" xml:space="preserve">Invalid view - remove from diagram.</text>
<text x="1284" y="828" clip-path="url(#clipPath14)" fill="red" stroke="none" stroke-width="0.1" xml:space="preserve">Invalid view - remove from diagram.</text>
<line clip-path="url(#clipPath3)" fill="none" x1="861" x2="848" y1="898" y2="835" stroke="red" stroke-width="1.1"/>
<rect x="172" y="23" clip-path="url(#clipPath1)" fill="rgb(255,203,203)" width="40" height="40" stroke="none" stroke-width="1.1"/>
<rect x="172" y="23" clip-path="url(#clipPath1)" fill="none" width="39" height="39" stroke-width="0.1"/>
<text x="95" y="48" clip-path="url(#clipPath1)" stroke="none" stroke-width="0.1" xml:space="preserve">Invalid view - remove from diagram.</text>
<rect x="172" y="23" clip-path="url(#clipPath1)" fill="rgb(255,203,203)" width="40" height="40" stroke="none" stroke-width="0.1"/>
<rect x="172" y="23" clip-path="url(#clipPath1)" fill="none" width="39" height="39" stroke-width="0.1"/>
<text x="95" y="48" clip-path="url(#clipPath1)" stroke="none" stroke-width="0.1" xml:space="preserve">Invalid view - remove from diagram.</text>
<text x="759" y="872" clip-path="url(#clipPath15)" fill="red" stroke="none" stroke-width="0.1" xml:space="preserve">Invalid view - remove from diagram.</text>
<line clip-path="url(#clipPath3)" fill="none" x1="989" x2="589" y1="922" y2="998" stroke="red" stroke-width="1.1"/>
<rect x="172" y="23" clip-path="url(#clipPath1)" fill="rgb(255,203,203)" width="40" height="40" stroke="none" stroke-width="1.1"/>
<rect x="172" y="23" clip-path="url(#clipPath1)" fill="none" width="39" height="39" stroke-width="0.1"/>
<text x="95" y="48" clip-path="url(#clipPath1)" stroke="none" stroke-width="0.1" xml:space="preserve">Invalid view - remove from diagram.</text>
<rect x="172" y="23" clip-path="url(#clipPath1)" fill="rgb(255,203,203)" width="40" height="40" stroke="none" stroke-width="0.1"/>
<rect x="172" y="23" clip-path="url(#clipPath1)" fill="none" width="39" height="39" stroke-width="0.1"/>
<text x="95" y="48" clip-path="url(#clipPath1)" stroke="none" stroke-width="0.1" xml:space="preserve">Invalid view - remove from diagram.</text>
<rect x="172" y="23" clip-path="url(#clipPath1)" fill="rgb(255,203,203)" width="40" height="40" stroke="none" stroke-width="0.1"/>
<rect x="172" y="23" clip-path="url(#clipPath1)" fill="none" width="39" height="39" stroke-width="0.1"/>
<text x="95" y="48" clip-path="url(#clipPath1)" stroke="none" stroke-width="0.1" xml:space="preserve">Invalid view - remove from diagram.</text>
<rect x="172" y="23" clip-path="url(#clipPath1)" fill="rgb(255,203,203)" width="40" height="40" stroke="none" stroke-width="0.1"/>
<rect x="172" y="23" clip-path="url(#clipPath1)" fill="none" width="39" height="39" stroke-width="0.1"/>
<text x="95" y="48" clip-path="url(#clipPath1)" stroke="none" stroke-width="0.1" xml:space="preserve">Invalid view - remove from diagram.</text>
<rect x="172" y="23" clip-path="url(#clipPath1)" fill="rgb(255,203,203)" width="40" height="40" stroke="none" stroke-width="0.1"/>
<rect x="172" y="23" clip-path="url(#clipPath1)" fill="none" width="39" height="39" stroke-width="0.1"/>
<text x="95" y="48" clip-path="url(#clipPath1)" stroke="none" stroke-width="0.1" xml:space="preserve">Invalid view - remove from diagram.</text>
<text x="693" y="965" clip-path="url(#clipPath16)" fill="red" stroke="none" stroke-width="0.1" xml:space="preserve">Invalid view - remove from diagram.</text>
<line clip-path="url(#clipPath3)" fill="none" x1="529" x2="209" y1="891" y2="891" stroke="red" stroke-width="1.1"/>
<rect x="172" y="23" clip-path="url(#clipPath1)" fill="rgb(255,203,203)" width="40" height="40" stroke="none" stroke-width="1.1"/>
<rect x="172" y="23" clip-path="url(#clipPath1)" fill="none" width="39" height="39" stroke-width="0.1"/>
<text x="95" y="48" clip-path="url(#clipPath1)" stroke="none" stroke-width="0.1" xml:space="preserve">Invalid view - remove from diagram.</text>
<rect x="172" y="23" clip-path="url(#clipPath1)" fill="rgb(255,203,203)" width="40" height="40" stroke="none" stroke-width="0.1"/>
<rect x="172" y="23" clip-path="url(#clipPath1)" fill="none" width="39" height="39" stroke-width="0.1"/>
<text x="95" y="48" clip-path="url(#clipPath1)" stroke="none" stroke-width="0.1" xml:space="preserve">Invalid view - remove from diagram.</text>
<text x="273" y="896" clip-path="url(#clipPath17)" fill="red" stroke="none" stroke-width="0.1" xml:space="preserve">Invalid view - remove from diagram.</text>
<line clip-path="url(#clipPath3)" fill="none" x1="209" x2="529" y1="898" y2="898" stroke="red" stroke-width="1.1"/>
<rect x="172" y="23" clip-path="url(#clipPath1)" fill="rgb(255,203,203)" width="40" height="40" stroke="none" stroke-width="1.1"/>
<rect x="172" y="23" clip-path="url(#clipPath1)" fill="none" width="39" height="39" stroke-width="0.1"/>
<text x="95" y="48" clip-path="url(#clipPath1)" stroke="none" stroke-width="0.1" xml:space="preserve">Invalid view - remove from diagram.</text>
<rect x="172" y="23" clip-path="url(#clipPath1)" fill="rgb(255,203,203)" width="40" height="40" stroke="none" stroke-width="0.1"/>
<rect x="172" y="23" clip-path="url(#clipPath1)" fill="none" width="39" height="39" stroke-width="0.1"/>
<text x="95" y="48" clip-path="url(#clipPath1)" stroke="none" stroke-width="0.1" xml:space="preserve">Invalid view - remove from diagram.</text>
<rect x="172" y="23" clip-path="url(#clipPath1)" fill="rgb(255,203,203)" width="40" height="40" stroke="none" stroke-width="0.1"/>
<rect x="172" y="23" clip-path="url(#clipPath1)" fill="none" width="39" height="39" stroke-width="0.1"/>
<text x="95" y="48" clip-path="url(#clipPath1)" stroke="none" stroke-width="0.1" xml:space="preserve">Invalid view - remove from diagram.</text>
<rect x="172" y="23" clip-path="url(#clipPath1)" fill="rgb(255,203,203)" width="40" height="40" stroke="none" stroke-width="0.1"/>
<rect x="172" y="23" clip-path="url(#clipPath1)" fill="none" width="39" height="39" stroke-width="0.1"/>
<text x="95" y="48" clip-path="url(#clipPath1)" stroke="none" stroke-width="0.1" xml:space="preserve">Invalid view - remove from diagram.</text>
<rect x="172" y="23" clip-path="url(#clipPath1)" fill="rgb(255,203,203)" width="40" height="40" stroke="none" stroke-width="0.1"/>
<rect x="172" y="23" clip-path="url(#clipPath1)" fill="none" width="39" height="39" stroke-width="0.1"/>
<text x="95" y="48" clip-path="url(#clipPath1)" stroke="none" stroke-width="0.1" xml:space="preserve">Invalid view - remove from diagram.</text>
<text x="273" y="903" clip-path="url(#clipPath18)" fill="red" stroke="none" stroke-width="0.1" xml:space="preserve">Invalid view - remove from diagram.</text>
<line clip-path="url(#clipPath3)" fill="none" x1="369" x2="401" y1="898" y2="1000" stroke="red" stroke-width="1.1"/>
<rect x="172" y="23" clip-path="url(#clipPath1)" fill="rgb(255,203,203)" width="40" height="40" stroke="none" stroke-width="1.1"/>
<rect x="172" y="23" clip-path="url(#clipPath1)" fill="none" width="39" height="39" stroke-width="0.1"/>
<text x="95" y="48" clip-path="url(#clipPath1)" stroke="none" stroke-width="0.1" xml:space="preserve">Invalid view - remove from diagram.</text>
<rect x="172" y="23" clip-path="url(#clipPath1)" fill="rgb(255,203,203)" width="40" height="40" stroke="none" stroke-width="0.1"/>
<rect x="172" y="23" clip-path="url(#clipPath1)" fill="none" width="39" height="39" stroke-width="0.1"/>
<text x="95" y="48" clip-path="url(#clipPath1)" stroke="none" stroke-width="0.1" xml:space="preserve">Invalid view - remove from diagram.</text>
<text x="289" y="955" clip-path="url(#clipPath19)" fill="red" stroke="none" stroke-width="0.1" xml:space="preserve">Invalid view - remove from diagram.</text>
<line clip-path="url(#clipPath3)" fill="none" x1="382" x2="454" y1="863" y2="891" stroke="red" stroke-width="1.1"/>
<text x="322" y="882" clip-path="url(#clipPath20)" fill="red" stroke="none" stroke-width="1.1" xml:space="preserve">Invalid view - remove from diagram.</text>
<line clip-path="url(#clipPath3)" fill="none" x1="266" x2="388" y1="387" y2="126" stroke="red" stroke-width="1.1"/>
<rect x="172" y="23" clip-path="url(#clipPath1)" fill="rgb(255,203,203)" width="40" height="40" stroke="none" stroke-width="1.1"/>
<rect x="172" y="23" clip-path="url(#clipPath1)" fill="none" width="39" height="39" stroke-width="0.1"/>
<text x="95" y="48" clip-path="url(#clipPath1)" stroke="none" stroke-width="0.1" xml:space="preserve">Invalid view - remove from diagram.</text>
<rect x="172" y="23" clip-path="url(#clipPath1)" fill="rgb(255,203,203)" width="40" height="40" stroke="none" stroke-width="0.1"/>
<rect x="172" y="23" clip-path="url(#clipPath1)" fill="none" width="39" height="39" stroke-width="0.1"/>
<text x="95" y="48" clip-path="url(#clipPath1)" stroke="none" stroke-width="0.1" xml:space="preserve">Invalid view - remove from diagram.</text>
<rect x="172" y="23" clip-path="url(#clipPath1)" fill="rgb(255,203,203)" width="40" height="40" stroke="none" stroke-width="0.1"/>
<rect x="172" y="23" clip-path="url(#clipPath1)" fill="none" width="39" height="39" stroke-width="0.1"/>
<text x="95" y="48" clip-path="url(#clipPath1)" stroke="none" stroke-width="0.1" xml:space="preserve">Invalid view - remove from diagram.</text>
<rect x="172" y="23" clip-path="url(#clipPath1)" fill="rgb(255,203,203)" width="40" height="40" stroke="none" stroke-width="0.1"/>
<rect x="172" y="23" clip-path="url(#clipPath1)" fill="none" width="39" height="39" stroke-width="0.1"/>
<text x="95" y="48" clip-path="url(#clipPath1)" stroke="none" stroke-width="0.1" xml:space="preserve">Invalid view - remove from diagram.</text>
<rect x="172" y="23" clip-path="url(#clipPath1)" fill="rgb(255,203,203)" width="40" height="40" stroke="none" stroke-width="0.1"/>
<rect x="172" y="23" clip-path="url(#clipPath1)" fill="none" width="39" height="39" stroke-width="0.1"/>
<text x="95" y="48" clip-path="url(#clipPath1)" stroke="none" stroke-width="0.1" xml:space="preserve">Invalid view - remove from diagram.</text>
<text x="231" y="262" clip-path="url(#clipPath21)" fill="red" stroke="none" stroke-width="0.1" xml:space="preserve">Invalid view - remove from diagram.</text>
</g>
</g>
<rect x="369" y="86" fill-opacity="0" width="40" id="OperationEnvelope" height="40" stroke-opacity="0"/>
<rect x="689" y="86" fill-opacity="0" width="40" id="GeneralDirectives" height="40" stroke-opacity="0"/>
<rect x="689" y="210" fill-opacity="0" width="40" id="OperationIdentifiers" height="40" stroke-opacity="0"/>
<rect x="251" y="387" fill-opacity="0" width="40" id="OperationSet" height="40" stroke-opacity="0"/>
<rect x="0" y="0" fill-opacity="0" width="0" id="abortAfterDurationWithActionRule" height="0" stroke-opacity="0"/>
<rect x="0" y="0" fill-opacity="0" width="0" id="effortAndAction" height="0" stroke-opacity="0"/>
<rect x="0" y="0" fill-opacity="0" width="0" id="pauseResumeRule" height="0" stroke-opacity="0"/>
<rect x="0" y="0" fill-opacity="0" width="0" id="isShortLived" height="0" stroke-opacity="0"/>
<rect x="832" y="384" fill-opacity="0" width="40" id="OperationDetails" height="40" stroke-opacity="0"/>
<rect x="0" y="0" fill-opacity="0" width="0" id="actionVerb" height="0" stroke-opacity="0"/>
<rect x="1101" y="598" fill-opacity="0" width="40" id="DesiredOutcomeConstraints" height="40" stroke-opacity="0"/>
<rect x="0" y="0" fill-opacity="0" width="0" id="activityDirective" height="0" stroke-opacity="0"/>
<rect x="0" y="0" fill-opacity="0" width="0" id="hasDeleteConfirmation" height="0" stroke-opacity="0"/>
<rect x="0" y="0" fill-opacity="0" width="0" id="numberOfInstancesOfEachOutcomeElement" height="0" stroke-opacity="0"/>
<rect x="795" y="596" fill-opacity="0" width="40" id="NecessaryInitialConditionConstraints" height="40" stroke-opacity="0"/>
<rect x="0" y="0" fill-opacity="0" width="0" id="IsNot" height="0" stroke-opacity="0"/>
<rect x="871" y="203" fill-opacity="0" width="251" height="40" stroke-opacity="0"/>
<rect x="1391" y="886" fill-opacity="0" width="40" id="OutcomeElementConstraints" height="40" stroke-opacity="0"/>
<rect x="298" y="679" fill-opacity="0" width="409" height="40" stroke-opacity="0"/>
<rect x="1264" y="361" fill-opacity="0" width="40" id="ActionVerbs" height="40" stroke-opacity="0"/>
<rect x="0" y="0" fill-opacity="0" width="0" id="CREATE_POST_ADD" height="0" stroke-opacity="0"/>
<rect x="0" y="0" fill-opacity="0" width="0" id="SET_UPDATE_PUT_MODIFY_WRITE_ADD" height="0" stroke-opacity="0"/>
<rect x="0" y="0" fill-opacity="0" width="0" id="GET_READ" height="0" stroke-opacity="0"/>
<rect x="0" y="0" fill-opacity="0" width="0" id="DELETE_REMOVE" height="0" stroke-opacity="0"/>
<rect x="989" y="885" fill-opacity="0" width="40" id="ElementConstraints" height="40" stroke-opacity="0"/>
<rect x="529" y="868" fill-opacity="0" width="40" id="SpecificClassStructure" height="40" stroke-opacity="0"/>
<rect x="1139" y="801" fill-opacity="0" width="226" id="_outcomeElement" height="40" stroke-opacity="0"/>
<rect x="684" y="831" fill-opacity="0" width="164" id="_specificClassStructure" height="40" stroke-opacity="0"/>
<rect x="549" y="992" fill-opacity="0" width="40" id="SpecificPattern" height="40" stroke-opacity="0"/>
<rect x="866" y="744" fill-opacity="0" width="40" id="ActivityDirective" height="40" stroke-opacity="0"/>
<rect x="0" y="0" fill-opacity="0" width="0" id="STRUCTURE_IS_NOT" height="0" stroke-opacity="0"/>
<rect x="0" y="0" fill-opacity="0" width="0" id="NEW_STRUCTURE_AND_VALUES" height="0" stroke-opacity="0"/>
<rect x="0" y="0" fill-opacity="0" width="0" id="INCREMENTAL_STRUCTURE_AND_VALUES" height="0" stroke-opacity="0"/>
<rect x="0" y="0" fill-opacity="0" width="0" id="ONLY_VALUES_IN_EXISTING_STRUCTURE" height="0" stroke-opacity="0"/>
<rect x="0" y="0" fill-opacity="0" width="0" id="DEFINED_BY_VERB" height="0" stroke-opacity="0"/>
<rect x="153" y="146" fill-opacity="0" width="40" id="ActionEffort" height="40" stroke-opacity="0"/>
<rect x="0" y="0" fill-opacity="0" width="0" id="BEST_EFFORT" height="0" stroke-opacity="0"/>
<rect x="0" y="0" fill-opacity="0" width="0" id="EXACT_MATCH" height="0" stroke-opacity="0"/>
<rect x="153" y="268" fill-opacity="0" width="40" id="PauseResumeRule" height="40" stroke-opacity="0"/>
<rect x="0" y="0" fill-opacity="0" width="0" id="NO_PAUSE_POSSIBLE" height="0" stroke-opacity="0"/>
<rect x="169" y="876" fill-opacity="0" width="40" id="Ltp" height="40" stroke-opacity="0"/>
<rect x="297" y="1000" fill-opacity="0" width="190" id="_classTypeName" height="40" stroke-opacity="0"/>
<rect x="350" y="823" fill-opacity="0" width="40" height="40" stroke-opacity="0"/>
</svg>
