<?xml version="1.0" encoding="UTF-8"?><svg xmlns="http://www.w3.org/2000/svg" xmlns:xlink="http://www.w3.org/1999/xlink" stroke-dasharray="none" shape-rendering="auto" font-family="'Dialog'" width="737" text-rendering="auto" fill-opacity="1" contentScriptType="text/ecmascript" color-interpolation="auto" color-rendering="auto" preserveAspectRatio="xMidYMid meet" font-size="12" viewBox="0 0 737 636" fill="black" stroke="black" image-rendering="auto" stroke-miterlimit="10" zoomAndPan="magnify" version="1.0" stroke-linecap="square" stroke-linejoin="miter" contentStyleType="text/css" font-style="normal" height="636" stroke-width="1" stroke-dashoffset="0" font-weight="normal" stroke-opacity="1">
<!--Generated by the Batik Graphics2D SVG Generator-->
<defs id="genericDefs"/>
<g>
<defs id="defs1">
<linearGradient x1="323" x2="323" y1="114" gradientUnits="userSpaceOnUse" y2="172" xlink:type="simple" xlink:actuate="onLoad" id="linearGradient1" xlink:show="other" spreadMethod="pad">
<stop stop-opacity="1" stop-color="white" offset="0%"/>
<stop stop-opacity="1" stop-color="rgb(170,206,242)" offset="100%"/>
</linearGradient>
<linearGradient x1="323" x2="323" y1="290" gradientUnits="userSpaceOnUse" y2="348" xlink:type="simple" xlink:actuate="onLoad" id="linearGradient2" xlink:show="other" spreadMethod="pad">
<stop stop-opacity="1" stop-color="white" offset="0%"/>
<stop stop-opacity="1" stop-color="rgb(170,206,242)" offset="100%"/>
</linearGradient>
<linearGradient x1="323" x2="323" y1="554" gradientUnits="userSpaceOnUse" y2="612" xlink:type="simple" xlink:actuate="onLoad" id="linearGradient3" xlink:show="other" spreadMethod="pad">
<stop stop-opacity="1" stop-color="white" offset="0%"/>
<stop stop-opacity="1" stop-color="rgb(170,206,242)" offset="100%"/>
</linearGradient>
<linearGradient x1="323" x2="323" y1="466" gradientUnits="userSpaceOnUse" y2="524" xlink:type="simple" xlink:actuate="onLoad" id="linearGradient4" xlink:show="other" spreadMethod="pad">
<stop stop-opacity="1" stop-color="white" offset="0%"/>
<stop stop-opacity="1" stop-color="rgb(170,206,242)" offset="100%"/>
</linearGradient>
<linearGradient x1="323" x2="323" y1="202" gradientUnits="userSpaceOnUse" y2="260" xlink:type="simple" xlink:actuate="onLoad" id="linearGradient5" xlink:show="other" spreadMethod="pad">
<stop stop-opacity="1" stop-color="white" offset="0%"/>
<stop stop-opacity="1" stop-color="rgb(170,206,242)" offset="100%"/>
</linearGradient>
<linearGradient x1="11" x2="11" y1="162" gradientUnits="userSpaceOnUse" y2="264" xlink:type="simple" xlink:actuate="onLoad" id="linearGradient6" xlink:show="other" spreadMethod="pad">
<stop stop-opacity="1" stop-color="rgb(255,255,204)" offset="0%"/>
<stop stop-opacity="1" stop-color="white" offset="100%"/>
</linearGradient>
<linearGradient x1="11" x2="11" y1="474" gradientUnits="userSpaceOnUse" y2="546" xlink:type="simple" xlink:actuate="onLoad" id="linearGradient7" xlink:show="other" spreadMethod="pad">
<stop stop-opacity="1" stop-color="rgb(255,255,204)" offset="0%"/>
<stop stop-opacity="1" stop-color="white" offset="100%"/>
</linearGradient>
<linearGradient x1="11" x2="11" y1="554" gradientUnits="userSpaceOnUse" y2="626" xlink:type="simple" xlink:actuate="onLoad" id="linearGradient8" xlink:show="other" spreadMethod="pad">
<stop stop-opacity="1" stop-color="rgb(255,255,204)" offset="0%"/>
<stop stop-opacity="1" stop-color="white" offset="100%"/>
</linearGradient>
<linearGradient x1="11" x2="11" y1="274" gradientUnits="userSpaceOnUse" y2="391" xlink:type="simple" xlink:actuate="onLoad" id="linearGradient9" xlink:show="other" spreadMethod="pad">
<stop stop-opacity="1" stop-color="rgb(255,255,204)" offset="0%"/>
<stop stop-opacity="1" stop-color="white" offset="100%"/>
</linearGradient>
<linearGradient x1="10" x2="10" y1="79" gradientUnits="userSpaceOnUse" y2="151" xlink:type="simple" xlink:actuate="onLoad" id="linearGradient10" xlink:show="other" spreadMethod="pad">
<stop stop-opacity="1" stop-color="rgb(255,255,204)" offset="0%"/>
<stop stop-opacity="1" stop-color="white" offset="100%"/>
</linearGradient>
<linearGradient x1="323" x2="323" y1="26" gradientUnits="userSpaceOnUse" y2="84" xlink:type="simple" xlink:actuate="onLoad" id="linearGradient11" xlink:show="other" spreadMethod="pad">
<stop stop-opacity="1" stop-color="white" offset="0%"/>
<stop stop-opacity="1" stop-color="rgb(170,206,242)" offset="100%"/>
</linearGradient>
<linearGradient x1="11" x2="11" y1="10" gradientUnits="userSpaceOnUse" y2="67" xlink:type="simple" xlink:actuate="onLoad" id="linearGradient12" xlink:show="other" spreadMethod="pad">
<stop stop-opacity="1" stop-color="rgb(255,255,204)" offset="0%"/>
<stop stop-opacity="1" stop-color="white" offset="100%"/>
</linearGradient>
<linearGradient x1="323" x2="323" y1="378" gradientUnits="userSpaceOnUse" y2="436" xlink:type="simple" xlink:actuate="onLoad" id="linearGradient13" xlink:show="other" spreadMethod="pad">
<stop stop-opacity="1" stop-color="white" offset="0%"/>
<stop stop-opacity="1" stop-color="rgb(170,206,242)" offset="100%"/>
</linearGradient>
<linearGradient x1="11" x2="11" y1="402" gradientUnits="userSpaceOnUse" y2="462" xlink:type="simple" xlink:actuate="onLoad" id="linearGradient14" xlink:show="other" spreadMethod="pad">
<stop stop-opacity="1" stop-color="rgb(255,255,204)" offset="0%"/>
<stop stop-opacity="1" stop-color="white" offset="100%"/>
</linearGradient>
<linearGradient x1="627" x2="627" y1="290" gradientUnits="userSpaceOnUse" y2="340" xlink:type="simple" xlink:actuate="onLoad" id="linearGradient15" xlink:show="other" spreadMethod="pad">
<stop stop-opacity="1" stop-color="white" offset="0%"/>
<stop stop-opacity="1" stop-color="rgb(195,215,221)" offset="100%"/>
</linearGradient>
<clipPath clipPathUnits="userSpaceOnUse" id="clipPath1">
<path d="M323 114 L323 171 L467 171 L467 114 Z"/>
</clipPath>
<clipPath clipPathUnits="userSpaceOnUse" id="clipPath2">
<path d="M362 116 L431 116 L431 131 L362 131 L362 116 Z"/>
</clipPath>
<clipPath clipPathUnits="userSpaceOnUse" id="clipPath3">
<path d="M362 130 L430 130 L430 145 L362 145 L362 130 Z"/>
</clipPath>
<clipPath clipPathUnits="userSpaceOnUse" id="clipPath4">
<path d="M323 144 L469 144 L469 173 L323 173 L323 144 Z"/>
</clipPath>
<clipPath clipPathUnits="userSpaceOnUse" id="clipPath5">
<path d="M322 113 L469 113 L469 173 L322 173 L322 113 Z"/>
</clipPath>
<clipPath clipPathUnits="userSpaceOnUse" id="clipPath6">
<path d="M323 290 L323 347 L467 347 L467 290 Z"/>
</clipPath>
<clipPath clipPathUnits="userSpaceOnUse" id="clipPath7">
<path d="M362 292 L431 292 L431 307 L362 307 L362 292 Z"/>
</clipPath>
<clipPath clipPathUnits="userSpaceOnUse" id="clipPath8">
<path d="M356 306 L437 306 L437 321 L356 321 L356 306 Z"/>
</clipPath>
<clipPath clipPathUnits="userSpaceOnUse" id="clipPath9">
<path d="M323 320 L469 320 L469 349 L323 349 L323 320 Z"/>
</clipPath>
<clipPath clipPathUnits="userSpaceOnUse" id="clipPath10">
<path d="M322 289 L469 289 L469 349 L322 349 L322 289 Z"/>
</clipPath>
<clipPath clipPathUnits="userSpaceOnUse" id="clipPath11">
<path d="M323 554 L323 611 L467 611 L467 554 Z"/>
</clipPath>
<clipPath clipPathUnits="userSpaceOnUse" id="clipPath12">
<path d="M362 556 L431 556 L431 571 L362 571 L362 556 Z"/>
</clipPath>
<clipPath clipPathUnits="userSpaceOnUse" id="clipPath13">
<path d="M367 570 L426 570 L426 585 L367 585 L367 570 Z"/>
</clipPath>
<clipPath clipPathUnits="userSpaceOnUse" id="clipPath14">
<path d="M323 584 L469 584 L469 613 L323 613 L323 584 Z"/>
</clipPath>
<clipPath clipPathUnits="userSpaceOnUse" id="clipPath15">
<path d="M322 553 L469 553 L469 613 L322 613 L322 553 Z"/>
</clipPath>
<clipPath clipPathUnits="userSpaceOnUse" id="clipPath16">
<path d="M323 466 L323 523 L467 523 L467 466 Z"/>
</clipPath>
<clipPath clipPathUnits="userSpaceOnUse" id="clipPath17">
<path d="M362 468 L431 468 L431 483 L362 483 L362 468 Z"/>
</clipPath>
<clipPath clipPathUnits="userSpaceOnUse" id="clipPath18">
<path d="M372 482 L421 482 L421 497 L372 497 L372 482 Z"/>
</clipPath>
<clipPath clipPathUnits="userSpaceOnUse" id="clipPath19">
<path d="M323 496 L469 496 L469 525 L323 525 L323 496 Z"/>
</clipPath>
<clipPath clipPathUnits="userSpaceOnUse" id="clipPath20">
<path d="M322 465 L469 465 L469 525 L322 525 L322 465 Z"/>
</clipPath>
<clipPath clipPathUnits="userSpaceOnUse" id="clipPath21">
<path d="M323 202 L323 259 L467 259 L467 202 Z"/>
</clipPath>
<clipPath clipPathUnits="userSpaceOnUse" id="clipPath22">
<path d="M362 204 L431 204 L431 219 L362 219 L362 204 Z"/>
</clipPath>
<clipPath clipPathUnits="userSpaceOnUse" id="clipPath23">
<path d="M379 218 L413 218 L413 233 L379 233 L379 218 Z"/>
</clipPath>
<clipPath clipPathUnits="userSpaceOnUse" id="clipPath24">
<path d="M323 232 L469 232 L469 261 L323 261 L323 232 Z"/>
</clipPath>
<clipPath clipPathUnits="userSpaceOnUse" id="clipPath25">
<path d="M322 201 L469 201 L469 261 L322 261 L322 201 Z"/>
</clipPath>
<clipPath clipPathUnits="userSpaceOnUse" id="clipPath26">
<path d="M11 162 L11 263 L296 263 L296 174 L284 162 Z"/>
</clipPath>
<clipPath clipPathUnits="userSpaceOnUse" id="clipPath27">
<path d="M16 167 L265 167 L265 259 L16 259 L16 167 Z"/>
</clipPath>
<clipPath clipPathUnits="userSpaceOnUse" id="clipPath28">
<path d="M10 161 L298 161 L298 265 L10 265 L10 161 Z"/>
</clipPath>
<clipPath clipPathUnits="userSpaceOnUse" id="clipPath29">
<path d="M11 474 L11 545 L296 545 L296 486 L284 474 Z"/>
</clipPath>
<clipPath clipPathUnits="userSpaceOnUse" id="clipPath30">
<path d="M16 479 L265 479 L265 541 L16 541 L16 479 Z"/>
</clipPath>
<clipPath clipPathUnits="userSpaceOnUse" id="clipPath31">
<path d="M10 473 L298 473 L298 547 L10 547 L10 473 Z"/>
</clipPath>
<clipPath clipPathUnits="userSpaceOnUse" id="clipPath32">
<path d="M11 554 L11 625 L296 625 L296 566 L284 554 Z"/>
</clipPath>
<clipPath clipPathUnits="userSpaceOnUse" id="clipPath33">
<path d="M16 559 L275 559 L275 621 L16 621 L16 559 Z"/>
</clipPath>
<clipPath clipPathUnits="userSpaceOnUse" id="clipPath34">
<path d="M10 553 L298 553 L298 627 L10 627 L10 553 Z"/>
</clipPath>
<clipPath clipPathUnits="userSpaceOnUse" id="clipPath35">
<path d="M11 274 L11 390 L296 390 L296 286 L284 274 Z"/>
</clipPath>
<clipPath clipPathUnits="userSpaceOnUse" id="clipPath36">
<path d="M16 279 L283 279 L283 386 L16 386 L16 279 Z"/>
</clipPath>
<clipPath clipPathUnits="userSpaceOnUse" id="clipPath37">
<path d="M10 273 L298 273 L298 392 L10 392 L10 273 Z"/>
</clipPath>
<clipPath clipPathUnits="userSpaceOnUse" id="clipPath38">
<path d="M10 79 L10 150 L295 150 L295 91 L283 79 Z"/>
</clipPath>
<clipPath clipPathUnits="userSpaceOnUse" id="clipPath39">
<path d="M15 84 L282 84 L282 146 L15 146 L15 84 Z"/>
</clipPath>
<clipPath clipPathUnits="userSpaceOnUse" id="clipPath40">
<path d="M9 78 L297 78 L297 152 L9 152 L9 78 Z"/>
</clipPath>
<clipPath clipPathUnits="userSpaceOnUse" id="clipPath41">
<path d="M323 26 L323 83 L467 83 L467 26 Z"/>
</clipPath>
<clipPath clipPathUnits="userSpaceOnUse" id="clipPath42">
<path d="M361 28 L432 28 L432 45 L361 45 L361 28 Z"/>
</clipPath>
<clipPath clipPathUnits="userSpaceOnUse" id="clipPath43">
<path d="M365 44 L428 44 L428 61 L365 61 L365 44 Z"/>
</clipPath>
<clipPath clipPathUnits="userSpaceOnUse" id="clipPath44">
<path d="M323 60 L469 60 L469 85 L323 85 L323 60 Z"/>
</clipPath>
<clipPath clipPathUnits="userSpaceOnUse" id="clipPath45">
<path d="M322 25 L469 25 L469 85 L322 85 L322 25 Z"/>
</clipPath>
<clipPath clipPathUnits="userSpaceOnUse" id="clipPath46">
<path d="M11 10 L11 66 L296 66 L296 22 L284 10 Z"/>
</clipPath>
<clipPath clipPathUnits="userSpaceOnUse" id="clipPath47">
<path d="M16 15 L280 15 L280 62 L16 62 L16 15 Z"/>
</clipPath>
<clipPath clipPathUnits="userSpaceOnUse" id="clipPath48">
<path d="M10 9 L298 9 L298 68 L10 68 L10 9 Z"/>
</clipPath>
<clipPath clipPathUnits="userSpaceOnUse" id="clipPath49">
<path d="M323 378 L323 435 L467 435 L467 378 Z"/>
</clipPath>
<clipPath clipPathUnits="userSpaceOnUse" id="clipPath50">
<path d="M361 380 L432 380 L432 397 L361 397 L361 380 Z"/>
</clipPath>
<clipPath clipPathUnits="userSpaceOnUse" id="clipPath51">
<path d="M376 396 L417 396 L417 413 L376 413 L376 396 Z"/>
</clipPath>
<clipPath clipPathUnits="userSpaceOnUse" id="clipPath52">
<path d="M323 412 L469 412 L469 437 L323 437 L323 412 Z"/>
</clipPath>
<clipPath clipPathUnits="userSpaceOnUse" id="clipPath53">
<path d="M322 377 L469 377 L469 437 L322 437 L322 377 Z"/>
</clipPath>
<clipPath clipPathUnits="userSpaceOnUse" id="clipPath54">
<path d="M11 402 L11 461 L291 461 L291 414 L279 402 Z"/>
</clipPath>
<clipPath clipPathUnits="userSpaceOnUse" id="clipPath55">
<path d="M16 407 L269 407 L269 454 L16 454 L16 407 Z"/>
</clipPath>
<clipPath clipPathUnits="userSpaceOnUse" id="clipPath56">
<path d="M10 401 L293 401 L293 463 L10 463 L10 401 Z"/>
</clipPath>
<clipPath clipPathUnits="userSpaceOnUse" id="clipPath57">
<path d="M627 290 L627 339 L726 339 L726 290 Z"/>
</clipPath>
<clipPath clipPathUnits="userSpaceOnUse" id="clipPath58">
<path d="M643 299 L712 299 L712 316 L643 316 L643 299 Z"/>
</clipPath>
<clipPath clipPathUnits="userSpaceOnUse" id="clipPath59">
<path d="M654 315 L701 315 L701 332 L654 332 L654 315 Z"/>
</clipPath>
<clipPath clipPathUnits="userSpaceOnUse" id="clipPath60">
<path d="M626 289 L728 289 L728 341 L626 341 L626 289 Z"/>
</clipPath>
<clipPath clipPathUnits="userSpaceOnUse" id="clipPath61">
<path d="M-1 -1 L738 -1 L738 637 L-1 637 L-1 -1 Z"/>
</clipPath>
<clipPath clipPathUnits="userSpaceOnUse" id="clipPath62">
<path d="M644 274 L657 274 L657 292 L644 292 L644 274 Z"/>
</clipPath>
<clipPath clipPathUnits="userSpaceOnUse" id="clipPath63">
<path d="M630 274 L643 274 L643 292 L630 292 L630 274 Z"/>
</clipPath>
<clipPath clipPathUnits="userSpaceOnUse" id="clipPath64">
<path d="M621 274 L634 274 L634 292 L621 292 L621 274 Z"/>
</clipPath>
<clipPath clipPathUnits="userSpaceOnUse" id="clipPath65">
<path d="M611 309 L629 309 L629 322 L611 322 L611 309 Z"/>
</clipPath>
<clipPath clipPathUnits="userSpaceOnUse" id="clipPath66">
<path d="M621 339 L634 339 L634 357 L621 357 L621 339 Z"/>
</clipPath>
<clipPath clipPathUnits="userSpaceOnUse" id="clipPath67">
<path d="M631 339 L644 339 L644 357 L631 357 L631 339 Z"/>
</clipPath>
<clipPath clipPathUnits="userSpaceOnUse" id="clipPath68">
<path d="M644 339 L657 339 L657 357 L644 357 L644 339 Z"/>
</clipPath>
</defs>
<g fill="url(#linearGradient1)" font-family="'Segoe UI'" stroke-linejoin="round" stroke="url(#linearGradient1)" stroke-width="0" stroke-miterlimit="0">
<rect x="323" y="114" clip-path="url(#clipPath1)" width="145" height="58" stroke="none"/>
<text x="363" font-size="11" y="129" clip-path="url(#clipPath2)" fill="black" stroke="none" xml:space="preserve">«Stereotype»</text>
<text x="363" font-size="11" y="143" clip-path="url(#clipPath3)" fill="black" stroke="none" xml:space="preserve">Experimental</text>
</g>
<g fill="rgb(109,163,217)" stroke-width="1.1" font-family="'Segoe UI'" stroke-linecap="butt" stroke="rgb(109,163,217)">
<line clip-path="url(#clipPath4)" fill="none" x1="323" x2="468" y1="145" y2="145"/>
<rect x="323" y="114" clip-path="url(#clipPath5)" fill="none" width="144" rx="0" ry="0" height="57"/>
<rect x="323" y="290" clip-path="url(#clipPath6)" fill="url(#linearGradient2)" width="145" height="58" stroke="none"/>
<text x="363" font-size="11" y="305" clip-path="url(#clipPath7)" fill="black" stroke="none" xml:space="preserve">«Stereotype»</text>
<text x="357" font-size="11" y="319" clip-path="url(#clipPath8)" fill="black" stroke="none" xml:space="preserve">LikelyToChange</text>
<line clip-path="url(#clipPath9)" fill="none" x1="323" x2="468" y1="321" y2="321"/>
<rect x="323" y="290" clip-path="url(#clipPath10)" fill="none" width="144" rx="0" ry="0" height="57"/>
<rect x="323" y="554" clip-path="url(#clipPath11)" fill="url(#linearGradient3)" width="145" height="58" stroke="none"/>
<text x="363" font-size="11" y="569" clip-path="url(#clipPath12)" fill="black" stroke="none" xml:space="preserve">«Stereotype»</text>
<text x="368" font-size="11" y="583" clip-path="url(#clipPath13)" fill="black" stroke="none" xml:space="preserve">Preliminary</text>
<line clip-path="url(#clipPath14)" fill="none" x1="323" x2="468" y1="585" y2="585"/>
<rect x="323" y="554" clip-path="url(#clipPath15)" fill="none" width="144" rx="0" ry="0" height="57"/>
<rect x="323" y="466" clip-path="url(#clipPath16)" fill="url(#linearGradient4)" width="145" height="58" stroke="none"/>
<text x="363" font-size="11" y="481" clip-path="url(#clipPath17)" fill="black" stroke="none" xml:space="preserve">«Stereotype»</text>
<text x="373" font-size="11" y="495" clip-path="url(#clipPath18)" fill="black" stroke="none" xml:space="preserve">Obsolete</text>
<line clip-path="url(#clipPath19)" fill="none" x1="323" x2="468" y1="497" y2="497"/>
<rect x="323" y="466" clip-path="url(#clipPath20)" fill="none" width="144" rx="0" ry="0" height="57"/>
<rect x="323" y="202" clip-path="url(#clipPath21)" fill="url(#linearGradient5)" width="145" height="58" stroke="none"/>
<text x="363" font-size="11" y="217" clip-path="url(#clipPath22)" fill="black" stroke="none" xml:space="preserve">«Stereotype»</text>
<text x="380" font-size="11" y="231" clip-path="url(#clipPath23)" fill="black" stroke="none" xml:space="preserve">Faulty</text>
<line clip-path="url(#clipPath24)" fill="none" x1="323" x2="468" y1="233" y2="233"/>
<rect x="323" y="202" clip-path="url(#clipPath25)" fill="none" width="144" rx="0" ry="0" height="57"/>
<rect x="11" y="162" clip-path="url(#clipPath26)" fill="url(#linearGradient6)" width="286" height="102" stroke="none"/>
<text x="17" y="181" clip-path="url(#clipPath27)" fill="black" stroke="none" xml:space="preserve">This stereotype indicates that the entity should</text>
<text x="17" y="196" clip-path="url(#clipPath27)" fill="black" stroke="none" xml:space="preserve">not be used in new implementation and that</text>
<text x="17" y="211" clip-path="url(#clipPath27)" fill="black" stroke="none" xml:space="preserve">attempts should be made to remove it from</text>
<text x="17" y="226" clip-path="url(#clipPath27)" fill="black" stroke="none" xml:space="preserve">existing implementation as there is a problem</text>
<text x="17" y="241" clip-path="url(#clipPath27)" fill="black" stroke="none" xml:space="preserve">with the entity. An update to the model with</text>
<text x="17" y="256" clip-path="url(#clipPath27)" fill="black" stroke="none" xml:space="preserve">corrections will be released.</text>
<line clip-path="url(#clipPath28)" fill="none" x1="11" x2="284" y1="162" y2="162" stroke="black"/>
<line clip-path="url(#clipPath28)" fill="none" x1="284" x2="296" y1="162" y2="174" stroke="black"/>
<line clip-path="url(#clipPath28)" fill="none" x1="296" x2="296" y1="174" y2="263" stroke="black"/>
<line clip-path="url(#clipPath28)" fill="none" x1="296" x2="11" y1="263" y2="263" stroke="black"/>
<line clip-path="url(#clipPath28)" fill="none" x1="11" x2="11" y1="263" y2="162" stroke="black"/>
<line clip-path="url(#clipPath28)" fill="none" x1="11" x2="11" y1="162" y2="162" stroke="black"/>
<line clip-path="url(#clipPath28)" fill="none" x1="284" x2="284" y1="162" y2="174" stroke="black"/>
<line clip-path="url(#clipPath28)" fill="none" x1="284" x2="297" y1="174" y2="174" stroke="black"/>
<rect x="11" y="474" clip-path="url(#clipPath29)" fill="url(#linearGradient7)" width="286" height="72" stroke="none"/>
<text x="17" y="493" clip-path="url(#clipPath30)" fill="black" stroke="none" xml:space="preserve">This stereotype indicates that the entity should</text>
<text x="17" y="508" clip-path="url(#clipPath30)" fill="black" stroke="none" xml:space="preserve">not be used in new implementation and that</text>
<text x="17" y="523" clip-path="url(#clipPath30)" fill="black" stroke="none" xml:space="preserve">attempts should be made to remove it from</text>
<text x="17" y="538" clip-path="url(#clipPath30)" fill="black" stroke="none" xml:space="preserve">existing implementation.</text>
<line clip-path="url(#clipPath31)" fill="none" x1="11" x2="284" y1="474" y2="474" stroke="black"/>
<line clip-path="url(#clipPath31)" fill="none" x1="284" x2="296" y1="474" y2="486" stroke="black"/>
<line clip-path="url(#clipPath31)" fill="none" x1="296" x2="296" y1="486" y2="545" stroke="black"/>
<line clip-path="url(#clipPath31)" fill="none" x1="296" x2="11" y1="545" y2="545" stroke="black"/>
<line clip-path="url(#clipPath31)" fill="none" x1="11" x2="11" y1="545" y2="474" stroke="black"/>
<line clip-path="url(#clipPath31)" fill="none" x1="11" x2="11" y1="474" y2="474" stroke="black"/>
<line clip-path="url(#clipPath31)" fill="none" x1="284" x2="284" y1="474" y2="486" stroke="black"/>
<line clip-path="url(#clipPath31)" fill="none" x1="284" x2="297" y1="486" y2="486" stroke="black"/>
<rect x="11" y="554" clip-path="url(#clipPath32)" fill="url(#linearGradient8)" width="286" height="72" stroke="none"/>
<text x="17" y="573" clip-path="url(#clipPath33)" fill="black" stroke="none" xml:space="preserve">This stereotype indicates that the entity is at a</text>
<text x="17" y="588" clip-path="url(#clipPath33)" fill="black" stroke="none" xml:space="preserve">relatively early stage of development and is likely</text>
<text x="17" y="603" clip-path="url(#clipPath33)" fill="black" stroke="none" xml:space="preserve">to change but is mature enough to be used in</text>
<text x="17" y="618" clip-path="url(#clipPath33)" fill="black" stroke="none" xml:space="preserve">implementation. </text>
<line clip-path="url(#clipPath34)" fill="none" x1="11" x2="284" y1="554" y2="554" stroke="black"/>
<line clip-path="url(#clipPath34)" fill="none" x1="284" x2="296" y1="554" y2="566" stroke="black"/>
<line clip-path="url(#clipPath34)" fill="none" x1="296" x2="296" y1="566" y2="625" stroke="black"/>
<line clip-path="url(#clipPath34)" fill="none" x1="296" x2="11" y1="625" y2="625" stroke="black"/>
<line clip-path="url(#clipPath34)" fill="none" x1="11" x2="11" y1="625" y2="554" stroke="black"/>
<line clip-path="url(#clipPath34)" fill="none" x1="11" x2="11" y1="554" y2="554" stroke="black"/>
<line clip-path="url(#clipPath34)" fill="none" x1="284" x2="284" y1="554" y2="566" stroke="black"/>
<line clip-path="url(#clipPath34)" fill="none" x1="284" x2="297" y1="566" y2="566" stroke="black"/>
<rect x="11" y="274" clip-path="url(#clipPath35)" fill="url(#linearGradient9)" width="286" height="117" stroke="none"/>
<text x="17" y="293" clip-path="url(#clipPath36)" fill="black" stroke="none" xml:space="preserve">This stereotype indicates that although the entity</text>
<text x="17" y="308" clip-path="url(#clipPath36)" fill="black" stroke="none" xml:space="preserve">may be mature work in the area has indicated that</text>
<text x="17" y="323" clip-path="url(#clipPath36)" fill="black" stroke="none" xml:space="preserve">change will be necessary (e.g. there are new</text>
<text x="17" y="338" clip-path="url(#clipPath36)" fill="black" stroke="none" xml:space="preserve">insights in the area or there is now perceived</text>
<text x="17" y="353" clip-path="url(#clipPath36)" fill="black" stroke="none" xml:space="preserve">benefit to be had from further rationalization).</text>
<text x="17" y="368" clip-path="url(#clipPath36)" fill="black" stroke="none" xml:space="preserve">The entity can still be used in implementation but</text>
<text x="17" y="383" clip-path="url(#clipPath36)" fill="black" stroke="none" xml:space="preserve">with caution.</text>
<line clip-path="url(#clipPath37)" fill="none" x1="11" x2="284" y1="274" y2="274" stroke="black"/>
<line clip-path="url(#clipPath37)" fill="none" x1="284" x2="296" y1="274" y2="286" stroke="black"/>
<line clip-path="url(#clipPath37)" fill="none" x1="296" x2="296" y1="286" y2="390" stroke="black"/>
<line clip-path="url(#clipPath37)" fill="none" x1="296" x2="11" y1="390" y2="390" stroke="black"/>
<line clip-path="url(#clipPath37)" fill="none" x1="11" x2="11" y1="390" y2="274" stroke="black"/>
<line clip-path="url(#clipPath37)" fill="none" x1="11" x2="11" y1="274" y2="274" stroke="black"/>
<line clip-path="url(#clipPath37)" fill="none" x1="284" x2="284" y1="274" y2="286" stroke="black"/>
<line clip-path="url(#clipPath37)" fill="none" x1="284" x2="297" y1="286" y2="286" stroke="black"/>
<rect x="10" y="79" clip-path="url(#clipPath38)" fill="url(#linearGradient10)" width="286" height="72" stroke="none"/>
<text x="16" y="98" clip-path="url(#clipPath39)" fill="black" stroke="none" xml:space="preserve">This stereotype indicates that the entity is at a very</text>
<text x="16" y="113" clip-path="url(#clipPath39)" fill="black" stroke="none" xml:space="preserve">early stage of development and will almost</text>
<text x="16" y="128" clip-path="url(#clipPath39)" fill="black" stroke="none" xml:space="preserve">certainly change. The entity is NOT mature</text>
<text x="16" y="143" clip-path="url(#clipPath39)" fill="black" stroke="none" xml:space="preserve">enough to be used in implementation.</text>
<line clip-path="url(#clipPath40)" fill="none" x1="10" x2="283" y1="79" y2="79" stroke="black"/>
<line clip-path="url(#clipPath40)" fill="none" x1="283" x2="295" y1="79" y2="91" stroke="black"/>
<line clip-path="url(#clipPath40)" fill="none" x1="295" x2="295" y1="91" y2="150" stroke="black"/>
<line clip-path="url(#clipPath40)" fill="none" x1="295" x2="10" y1="150" y2="150" stroke="black"/>
<line clip-path="url(#clipPath40)" fill="none" x1="10" x2="10" y1="150" y2="79" stroke="black"/>
<line clip-path="url(#clipPath40)" fill="none" x1="10" x2="10" y1="79" y2="79" stroke="black"/>
<line clip-path="url(#clipPath40)" fill="none" x1="283" x2="283" y1="79" y2="91" stroke="black"/>
<line clip-path="url(#clipPath40)" fill="none" x1="283" x2="296" y1="91" y2="91" stroke="black"/>
<rect x="323" y="26" clip-path="url(#clipPath41)" fill="url(#linearGradient11)" width="145" height="58" stroke="none"/>
<text x="362" y="42" clip-path="url(#clipPath42)" fill="black" stroke="none" xml:space="preserve">«Stereotype»</text>
<text x="366" y="58" clip-path="url(#clipPath43)" fill="black" stroke="none" xml:space="preserve">Deprecated</text>
<line clip-path="url(#clipPath44)" fill="none" x1="323" x2="468" y1="61" y2="61"/>
<rect x="323" y="26" clip-path="url(#clipPath45)" fill="none" width="144" rx="0" ry="0" height="57"/>
<rect x="11" y="10" clip-path="url(#clipPath46)" fill="url(#linearGradient12)" width="286" height="57" stroke="none"/>
<text x="17" y="29" clip-path="url(#clipPath47)" fill="black" stroke="none" xml:space="preserve">This stereotype indicates that the entity may</text>
<text x="17" y="44" clip-path="url(#clipPath47)" fill="black" stroke="none" xml:space="preserve">become obsolete in the near future. It may still be</text>
<text x="17" y="59" clip-path="url(#clipPath47)" fill="black" stroke="none" xml:space="preserve">used in new implementation.</text>
<line clip-path="url(#clipPath48)" fill="none" x1="11" x2="284" y1="10" y2="10" stroke="black"/>
<line clip-path="url(#clipPath48)" fill="none" x1="284" x2="296" y1="10" y2="22" stroke="black"/>
<line clip-path="url(#clipPath48)" fill="none" x1="296" x2="296" y1="22" y2="66" stroke="black"/>
<line clip-path="url(#clipPath48)" fill="none" x1="296" x2="11" y1="66" y2="66" stroke="black"/>
<line clip-path="url(#clipPath48)" fill="none" x1="11" x2="11" y1="66" y2="10" stroke="black"/>
<line clip-path="url(#clipPath48)" fill="none" x1="11" x2="11" y1="10" y2="10" stroke="black"/>
<line clip-path="url(#clipPath48)" fill="none" x1="284" x2="284" y1="10" y2="22" stroke="black"/>
<line clip-path="url(#clipPath48)" fill="none" x1="284" x2="297" y1="22" y2="22" stroke="black"/>
<rect x="323" y="378" clip-path="url(#clipPath49)" fill="url(#linearGradient13)" width="145" height="58" stroke="none"/>
<text x="362" y="394" clip-path="url(#clipPath50)" fill="black" stroke="none" xml:space="preserve">«Stereotype»</text>
<text x="377" y="410" clip-path="url(#clipPath51)" fill="black" stroke="none" xml:space="preserve">Mature</text>
<line clip-path="url(#clipPath52)" fill="none" x1="323" x2="468" y1="413" y2="413"/>
<rect x="323" y="378" clip-path="url(#clipPath53)" fill="none" width="144" rx="0" ry="0" height="57"/>
<rect x="11" y="402" clip-path="url(#clipPath54)" fill="url(#linearGradient14)" width="281" height="60" stroke="none"/>
<text x="17" y="421" clip-path="url(#clipPath55)" fill="black" stroke="none" xml:space="preserve">This stereotype indicates that the entity is fully</text>
<text x="17" y="436" clip-path="url(#clipPath55)" fill="black" stroke="none" xml:space="preserve">developed and can be used in implementations</text>
<text x="17" y="451" clip-path="url(#clipPath55)" fill="black" stroke="none" xml:space="preserve">without any constraints.</text>
<line clip-path="url(#clipPath56)" fill="none" x1="11" x2="279" y1="402" y2="402" stroke="black"/>
<line clip-path="url(#clipPath56)" fill="none" x1="279" x2="291" y1="402" y2="414" stroke="black"/>
<line clip-path="url(#clipPath56)" fill="none" x1="291" x2="291" y1="414" y2="461" stroke="black"/>
<line clip-path="url(#clipPath56)" fill="none" x1="291" x2="11" y1="461" y2="461" stroke="black"/>
<line clip-path="url(#clipPath56)" fill="none" x1="11" x2="11" y1="461" y2="402" stroke="black"/>
<line clip-path="url(#clipPath56)" fill="none" x1="11" x2="11" y1="402" y2="402" stroke="black"/>
<line clip-path="url(#clipPath56)" fill="none" x1="279" x2="279" y1="402" y2="414" stroke="black"/>
<line clip-path="url(#clipPath56)" fill="none" x1="279" x2="292" y1="414" y2="414" stroke="black"/>
<rect x="627" y="290" clip-path="url(#clipPath57)" fill="url(#linearGradient15)" width="100" height="50" stroke="none"/>
<text x="644" y="313" clip-path="url(#clipPath58)" fill="black" font-style="italic" stroke="none" xml:space="preserve">«Metaclass»</text>
<text x="655" y="329" clip-path="url(#clipPath59)" fill="black" font-style="italic" stroke="none" xml:space="preserve">Element</text>
<rect x="627" y="290" clip-path="url(#clipPath60)" fill="none" width="99" rx="0" ry="0" height="49" stroke="black"/>
</g>
<g text-rendering="optimizeLegibility" stroke-width="1.1" stroke-dasharray="6.6,3.3" font-family="'Segoe UI'" stroke-linecap="butt">
<line clip-path="url(#clipPath61)" fill="none" x1="297" x2="323" y1="210" y2="234"/>
<line clip-path="url(#clipPath61)" fill="none" x1="297" x2="323" y1="502" y2="502"/>
<line clip-path="url(#clipPath61)" fill="none" x1="297" x2="323" y1="583" y2="583"/>
<line clip-path="url(#clipPath61)" fill="none" x1="297" x2="323" y1="323" y2="323"/>
<line clip-path="url(#clipPath61)" fill="none" x1="296" x2="323" y1="125" y2="157"/>
<line clip-path="url(#clipPath61)" fill="none" x1="297" x2="323" y1="39" y2="60"/>
<line clip-path="url(#clipPath61)" fill="none" x1="292" x2="323" y1="424" y2="410"/>
<line clip-path="url(#clipPath61)" fill="none" x1="468" x2="699" y1="84" y2="84" stroke-dasharray="none"/>
<line clip-path="url(#clipPath61)" fill="none" x1="699" x2="699" y1="84" y2="50" stroke-dasharray="none"/>
<line clip-path="url(#clipPath61)" fill="none" x1="699" x2="650" y1="50" y2="50" stroke-dasharray="none"/>
<line clip-path="url(#clipPath61)" fill="none" x1="650" x2="650" y1="50" y2="290" stroke-dasharray="none"/>
<polygon stroke-dasharray="none" clip-path="url(#clipPath62)" points=" 650 290 645 275 655 275" stroke="none"/>
<polygon fill="none" stroke-dasharray="none" clip-path="url(#clipPath62)" points=" 650 290 645 275 655 275"/>
<line clip-path="url(#clipPath61)" fill="none" x1="468" x2="675" y1="172" y2="172" stroke-dasharray="none"/>
<line clip-path="url(#clipPath61)" fill="none" x1="675" x2="675" y1="172" y2="138" stroke-dasharray="none"/>
<line clip-path="url(#clipPath61)" fill="none" x1="675" x2="636" y1="138" y2="138" stroke-dasharray="none"/>
<line clip-path="url(#clipPath61)" fill="none" x1="636" x2="636" y1="138" y2="290" stroke-dasharray="none"/>
<polygon stroke-dasharray="none" clip-path="url(#clipPath63)" points=" 636 290 631 275 641 275" stroke="none"/>
<polygon fill="none" stroke-dasharray="none" clip-path="url(#clipPath63)" points=" 636 290 631 275 641 275"/>
<line clip-path="url(#clipPath61)" fill="none" x1="468" x2="651" y1="252" y2="252" stroke-dasharray="none"/>
<line clip-path="url(#clipPath61)" fill="none" x1="651" x2="651" y1="252" y2="226" stroke-dasharray="none"/>
<line clip-path="url(#clipPath61)" fill="none" x1="651" x2="627" y1="226" y2="226" stroke-dasharray="none"/>
<line clip-path="url(#clipPath61)" fill="none" x1="627" x2="627" y1="226" y2="290" stroke-dasharray="none"/>
<polygon stroke-dasharray="none" clip-path="url(#clipPath64)" points=" 627 290 622 275 632 275" stroke="none"/>
<polygon fill="none" stroke-dasharray="none" clip-path="url(#clipPath64)" points=" 627 290 622 275 632 275"/>
<line clip-path="url(#clipPath61)" fill="none" x1="468" x2="627" y1="315" y2="315" stroke-dasharray="none"/>
<polygon stroke-dasharray="none" clip-path="url(#clipPath65)" points=" 627 315 612 320 612 310" stroke="none"/>
<polygon fill="none" stroke-dasharray="none" clip-path="url(#clipPath65)" points=" 627 315 612 320 612 310"/>
<line clip-path="url(#clipPath61)" fill="none" x1="468" x2="651" y1="383" y2="383" stroke-dasharray="none"/>
<line clip-path="url(#clipPath61)" fill="none" x1="651" x2="651" y1="383" y2="402" stroke-dasharray="none"/>
<line clip-path="url(#clipPath61)" fill="none" x1="651" x2="627" y1="402" y2="402" stroke-dasharray="none"/>
<line clip-path="url(#clipPath61)" fill="none" x1="627" x2="627" y1="402" y2="340" stroke-dasharray="none"/>
<polygon stroke-dasharray="none" clip-path="url(#clipPath66)" points=" 627 340 632 355 622 355" stroke="none"/>
<polygon fill="none" stroke-dasharray="none" clip-path="url(#clipPath66)" points=" 627 340 632 355 622 355"/>
<line clip-path="url(#clipPath61)" fill="none" x1="468" x2="675" y1="466" y2="466" stroke-dasharray="none"/>
<line clip-path="url(#clipPath61)" fill="none" x1="675" x2="675" y1="466" y2="490" stroke-dasharray="none"/>
<line clip-path="url(#clipPath61)" fill="none" x1="675" x2="637" y1="490" y2="490" stroke-dasharray="none"/>
<line clip-path="url(#clipPath61)" fill="none" x1="637" x2="637" y1="490" y2="340" stroke-dasharray="none"/>
<polygon stroke-dasharray="none" clip-path="url(#clipPath67)" points=" 637 340 642 355 632 355" stroke="none"/>
<polygon fill="none" stroke-dasharray="none" clip-path="url(#clipPath67)" points=" 637 340 642 355 632 355"/>
<line clip-path="url(#clipPath61)" fill="none" x1="468" x2="699" y1="554" y2="554" stroke-dasharray="none"/>
<line clip-path="url(#clipPath61)" fill="none" x1="699" x2="699" y1="554" y2="578" stroke-dasharray="none"/>
<line clip-path="url(#clipPath61)" fill="none" x1="699" x2="650" y1="578" y2="578" stroke-dasharray="none"/>
<line clip-path="url(#clipPath61)" fill="none" x1="650" x2="650" y1="578" y2="340" stroke-dasharray="none"/>
<polygon stroke-dasharray="none" clip-path="url(#clipPath68)" points=" 650 340 655 355 645 355" stroke="none"/>
<polygon fill="none" stroke-dasharray="none" clip-path="url(#clipPath68)" points=" 650 340 655 355 645 355"/>
</g>
</g>
<rect x="323" y="114" fill-opacity="0" width="145" title="This stereotype indicates that the entity is at a very early stage of development and will almost certainly change. The entity is NOT mature enough to be used in implementation." id="Experimental" height="58" stroke-opacity="0">
<title>This stereotype indicates that the entity is at a very early stage of development and will almost certainly change. The entity is NOT mature enough to be used in implementation.</title>
</rect>
<rect x="323" y="290" fill-opacity="0" width="145" title="This stereotype indicates that although the entity may be mature work in the area has indicated that change will be necessary (e.g. there are new insights in the area or there is now perceived benefit to be had from further rationalization). The entity can still be used in implementation but with caution." id="LikelyToChange" height="58" stroke-opacity="0">
<title>This stereotype indicates that although the entity may be mature work in the area has indicated that change will be necessary (e.g. there are new insights in the area or there is now perceived benefit to be had from further rationalization). The entity can still be used in implementation but with caution.</title>
</rect>
<rect x="323" y="554" fill-opacity="0" width="145" title="This stereotype indicates that the entity is at a relatively early stage of development and is likely to change but is mature enough to be used in implementation. " id="Preliminary" height="58" stroke-opacity="0">
<title>This stereotype indicates that the entity is at a relatively early stage of development and is likely to change but is mature enough to be used in implementation. </title>
</rect>
<rect x="323" y="466" fill-opacity="0" width="145" title="This stereotype indicates that the entity should not be used in new implementation and that attempts should be made to remove it from existing implementation." id="Obsolete" height="58" stroke-opacity="0">
<title>This stereotype indicates that the entity should not be used in new implementation and that attempts should be made to remove it from existing implementation.</title>
</rect>
<rect x="323" y="202" fill-opacity="0" width="145" title="This stereotype indicates that the entity should not be used in new implementation and that attempts should be made to remove it from existing implementation as there is a problem with the entity. An update to the model with corrections will be released." id="Faulty" height="58" stroke-opacity="0">
<title>This stereotype indicates that the entity should not be used in new implementation and that attempts should be made to remove it from existing implementation as there is a problem with the entity. An update to the model with corrections will be released.</title>
</rect>
<rect x="11" y="162" fill-opacity="0" width="286" height="102" stroke-opacity="0"/>
<rect x="11" y="474" fill-opacity="0" width="286" height="72" stroke-opacity="0"/>
<rect x="11" y="554" fill-opacity="0" width="286" height="72" stroke-opacity="0"/>
<rect x="11" y="274" fill-opacity="0" width="286" height="117" stroke-opacity="0"/>
<rect x="10" y="79" fill-opacity="0" width="286" height="72" stroke-opacity="0"/>
<rect x="323" y="26" fill-opacity="0" width="145" title="This stereotype indicates that the entity may become obsolete in the near future. It may still be used in new implementation." id="Deprecated" height="58" stroke-opacity="0">
<title>This stereotype indicates that the entity may become obsolete in the near future. It may still be used in new implementation.</title>
</rect>
<rect x="11" y="10" fill-opacity="0" width="286" height="57" stroke-opacity="0"/>
<rect x="323" y="378" fill-opacity="0" width="145" title="This stereotype indicates that the entity is fully developed and can be used in implementations without any constraints." id="Mature" height="58" stroke-opacity="0">
<title>This stereotype indicates that the entity is fully developed and can be used in implementations without any constraints.</title>
</rect>
<rect x="11" y="402" fill-opacity="0" width="281" height="60" stroke-opacity="0"/>
<rect x="627" y="290" fill-opacity="0" width="100" title="An Element is a constituent of a model. As such, it has the capability of owning other Elements." id="Element" height="50" stroke-opacity="0">
<title>An Element is a constituent of a model. As such, it has the capability of owning other Elements.</title>
</rect>
</svg>
