<?xml version="1.0" encoding="UTF-8"?><svg xmlns="http://www.w3.org/2000/svg" xmlns:xlink="http://www.w3.org/1999/xlink" stroke-dasharray="none" shape-rendering="auto" font-family="'Dialog'" width="1912" text-rendering="auto" fill-opacity="1" contentScriptType="text/ecmascript" color-interpolation="auto" color-rendering="auto" preserveAspectRatio="xMidYMid meet" font-size="12" viewBox="0 0 1912 555" fill="black" stroke="black" image-rendering="auto" stroke-miterlimit="10" zoomAndPan="magnify" version="1.0" stroke-linecap="square" stroke-linejoin="miter" contentStyleType="text/css" font-style="normal" height="555" stroke-width="1" stroke-dashoffset="0" font-weight="normal" stroke-opacity="1">
<!--Generated by the Batik Graphics2D SVG Generator-->
<defs id="genericDefs"/>
<g>
<defs id="defs1">
<clipPath clipPathUnits="userSpaceOnUse" id="clipPath1">
<path d="M22 63 L64 63 L64 105 L22 105 L22 63 Z"/>
</clipPath>
<clipPath clipPathUnits="userSpaceOnUse" id="clipPath2">
<path d="M292 234 L486 234 L486 252 L292 252 L292 234 Z"/>
</clipPath>
<clipPath clipPathUnits="userSpaceOnUse" id="clipPath3">
<path d="M-1 -1 L1913 -1 L1913 556 L-1 556 L-1 -1 Z"/>
</clipPath>
<clipPath clipPathUnits="userSpaceOnUse" id="clipPath4">
<path d="M294 388 L488 388 L488 406 L294 406 L294 388 Z"/>
</clipPath>
<clipPath clipPathUnits="userSpaceOnUse" id="clipPath5">
<path d="M1358 59 L1552 59 L1552 77 L1358 77 L1358 59 Z"/>
</clipPath>
<clipPath clipPathUnits="userSpaceOnUse" id="clipPath6">
<path d="M920 325 L1114 325 L1114 343 L920 343 L920 325 Z"/>
</clipPath>
<clipPath clipPathUnits="userSpaceOnUse" id="clipPath7">
<path d="M819 113 L1013 113 L1013 131 L819 131 L819 113 Z"/>
</clipPath>
<clipPath clipPathUnits="userSpaceOnUse" id="clipPath8">
<path d="M681 409 L875 409 L875 427 L681 427 L681 409 Z"/>
</clipPath>
<clipPath clipPathUnits="userSpaceOnUse" id="clipPath9">
<path d="M586 194 L780 194 L780 212 L586 212 L586 194 Z"/>
</clipPath>
<clipPath clipPathUnits="userSpaceOnUse" id="clipPath10">
<path d="M429 454 L623 454 L623 472 L429 472 L429 454 Z"/>
</clipPath>
<clipPath clipPathUnits="userSpaceOnUse" id="clipPath11">
<path d="M376 381 L570 381 L570 399 L376 399 L376 381 Z"/>
</clipPath>
<clipPath clipPathUnits="userSpaceOnUse" id="clipPath12">
<path d="M450 162 L644 162 L644 180 L450 180 L450 162 Z"/>
</clipPath>
<clipPath clipPathUnits="userSpaceOnUse" id="clipPath13">
<path d="M922 313 L1116 313 L1116 331 L922 331 L922 313 Z"/>
</clipPath>
<clipPath clipPathUnits="userSpaceOnUse" id="clipPath14">
<path d="M391 214 L585 214 L585 232 L391 232 L391 214 Z"/>
</clipPath>
<clipPath clipPathUnits="userSpaceOnUse" id="clipPath15">
<path d="M1255 435 L1449 435 L1449 453 L1255 453 L1255 435 Z"/>
</clipPath>
<clipPath clipPathUnits="userSpaceOnUse" id="clipPath16">
<path d="M1484 218 L1678 218 L1678 236 L1484 236 L1484 218 Z"/>
</clipPath>
<clipPath clipPathUnits="userSpaceOnUse" id="clipPath17">
<path d="M1101 408 L1295 408 L1295 426 L1101 426 L1101 408 Z"/>
</clipPath>
<clipPath clipPathUnits="userSpaceOnUse" id="clipPath18">
<path d="M849 194 L1043 194 L1043 212 L849 212 L849 194 Z"/>
</clipPath>
<clipPath clipPathUnits="userSpaceOnUse" id="clipPath19">
<path d="M1079 22 L1273 22 L1273 40 L1079 40 L1079 22 Z"/>
</clipPath>
<clipPath clipPathUnits="userSpaceOnUse" id="clipPath20">
<path d="M1048 336 L1242 336 L1242 354 L1048 354 L1048 336 Z"/>
</clipPath>
<clipPath clipPathUnits="userSpaceOnUse" id="clipPath21">
<path d="M1074 233 L1268 233 L1268 251 L1074 251 L1074 233 Z"/>
</clipPath>
<clipPath clipPathUnits="userSpaceOnUse" id="clipPath22">
<path d="M1276 474 L1470 474 L1470 492 L1276 492 L1276 474 Z"/>
</clipPath>
<clipPath clipPathUnits="userSpaceOnUse" id="clipPath23">
<path d="M1362 72 L1556 72 L1556 90 L1362 90 L1362 72 Z"/>
</clipPath>
</defs>
<g fill="rgb(255,203,203)" font-family="'Segoe UI'" stroke-linejoin="round" stroke="rgb(255,203,203)" stroke-width="0" stroke-miterlimit="0">
<rect width="248" x="265" height="49" y="158" stroke="none"/>
</g>
<g stroke-linecap="butt" font-family="'Segoe UI'">
<rect fill="none" width="247" x="265" height="48" y="158"/>
<text xml:space="preserve" x="292" y="188" stroke="none">Invalid view - remove from diagram.</text>
<rect x="267" y="279" fill="rgb(255,203,203)" width="250" height="66" stroke="none"/>
<rect x="267" y="279" fill="none" width="249" height="65" stroke-width="0.1"/>
<text xml:space="preserve" x="295" stroke-width="0.1" y="317" stroke="none">Invalid view - remove from diagram.</text>
<rect x="263" y="449" fill="rgb(255,203,203)" width="240" height="96" stroke="none" stroke-width="0.1"/>
<rect x="263" y="449" fill="none" width="239" height="95" stroke-width="0.1"/>
<text xml:space="preserve" x="286" stroke-width="0.1" y="502" stroke="none">Invalid view - remove from diagram.</text>
<rect x="1522" y="325" fill="rgb(255,203,203)" width="40" height="40" stroke="none" stroke-width="0.1"/>
<rect x="1522" y="325" fill="none" width="39" height="39" stroke-width="0.1"/>
<text xml:space="preserve" x="1445" stroke-width="0.1" y="350" stroke="none">Invalid view - remove from diagram.</text>
<rect x="1092" y="61" fill="rgb(255,203,203)" width="40" height="40" stroke="none" stroke-width="0.1"/>
<rect x="1092" y="61" fill="none" width="39" height="39" stroke-width="0.1"/>
<text xml:space="preserve" x="1015" stroke-width="0.1" y="86" stroke="none">Invalid view - remove from diagram.</text>
</g>
<g stroke-linecap="butt" fill="rgb(255,203,203)" font-family="'Segoe UI'" font-style="italic" stroke="rgb(255,203,203)" stroke-width="0.1">
<rect width="223" x="570" height="53" y="344" stroke="none"/>
<rect x="570" y="344" fill="none" width="222" height="52" stroke="black"/>
<text fill="black" xml:space="preserve" x="586" y="376" stroke="none">Invalid view - remove from diagram.</text>
<rect width="316" x="549" height="53" y="440" stroke="none"/>
<rect x="549" y="440" fill="none" width="315" height="52" stroke="black"/>
<text fill="black" xml:space="preserve" x="611" y="472" stroke="none">Invalid view - remove from diagram.</text>
<rect width="160" x="581" height="53" y="131" stroke="none"/>
<rect x="581" y="131" fill="none" width="159" height="52" stroke="black"/>
<text fill="black" xml:space="preserve" x="565" y="163" stroke="none">Invalid view - remove from diagram.</text>
<rect width="271" x="579" height="53" y="223" stroke="none"/>
<rect x="579" y="223" fill="none" width="270" height="52" stroke="black"/>
<text fill="black" xml:space="preserve" x="619" y="255" stroke="none">Invalid view - remove from diagram.</text>
</g>
<g fill="red" stroke-width="1.1" font-family="'Segoe UI'" stroke-linecap="butt" stroke="red">
<line y2="207" fill="none" x1="389" x2="389" y1="279"/>
<rect x="23" y="64" clip-path="url(#clipPath1)" fill="rgb(255,203,203)" width="40" height="40" stroke="none"/>
<rect x="23" y="64" clip-path="url(#clipPath1)" fill="none" width="39" height="39" stroke="black" stroke-width="0.1"/>
<text x="-54" y="89" clip-path="url(#clipPath1)" fill="black" stroke="none" stroke-width="0.1" xml:space="preserve">Invalid view - remove from diagram.</text>
<rect x="23" y="64" clip-path="url(#clipPath1)" fill="rgb(255,203,203)" width="40" height="40" stroke="none" stroke-width="0.1"/>
<rect x="23" y="64" clip-path="url(#clipPath1)" fill="none" width="39" height="39" stroke="black" stroke-width="0.1"/>
<text x="-54" y="89" clip-path="url(#clipPath1)" fill="black" stroke="none" stroke-width="0.1" xml:space="preserve">Invalid view - remove from diagram.</text>
<rect x="23" y="64" clip-path="url(#clipPath1)" fill="rgb(255,203,203)" width="40" height="40" stroke="none" stroke-width="0.1"/>
<rect x="23" y="64" clip-path="url(#clipPath1)" fill="none" width="39" height="39" stroke="black" stroke-width="0.1"/>
<text x="-54" y="89" clip-path="url(#clipPath1)" fill="black" stroke="none" stroke-width="0.1" xml:space="preserve">Invalid view - remove from diagram.</text>
<rect x="23" y="64" clip-path="url(#clipPath1)" fill="rgb(255,203,203)" width="40" height="40" stroke="none" stroke-width="0.1"/>
<rect x="23" y="64" clip-path="url(#clipPath1)" fill="none" width="39" height="39" stroke="black" stroke-width="0.1"/>
<text x="-54" y="89" clip-path="url(#clipPath1)" fill="black" stroke="none" stroke-width="0.1" xml:space="preserve">Invalid view - remove from diagram.</text>
<text x="293" y="248" clip-path="url(#clipPath2)" stroke="none" stroke-width="0.1" xml:space="preserve">Invalid view - remove from diagram.</text>
<line clip-path="url(#clipPath3)" fill="none" x1="391" x2="391" y1="449" y2="345"/>
<rect x="23" y="64" clip-path="url(#clipPath1)" fill="rgb(255,203,203)" width="40" height="40" stroke="none"/>
<rect x="23" y="64" clip-path="url(#clipPath1)" fill="none" width="39" height="39" stroke="black" stroke-width="0.1"/>
<text x="-54" y="89" clip-path="url(#clipPath1)" fill="black" stroke="none" stroke-width="0.1" xml:space="preserve">Invalid view - remove from diagram.</text>
<rect x="23" y="64" clip-path="url(#clipPath1)" fill="rgb(255,203,203)" width="40" height="40" stroke="none" stroke-width="0.1"/>
<rect x="23" y="64" clip-path="url(#clipPath1)" fill="none" width="39" height="39" stroke="black" stroke-width="0.1"/>
<text x="-54" y="89" clip-path="url(#clipPath1)" fill="black" stroke="none" stroke-width="0.1" xml:space="preserve">Invalid view - remove from diagram.</text>
<rect x="23" y="64" clip-path="url(#clipPath1)" fill="rgb(255,203,203)" width="40" height="40" stroke="none" stroke-width="0.1"/>
<rect x="23" y="64" clip-path="url(#clipPath1)" fill="none" width="39" height="39" stroke="black" stroke-width="0.1"/>
<text x="-54" y="89" clip-path="url(#clipPath1)" fill="black" stroke="none" stroke-width="0.1" xml:space="preserve">Invalid view - remove from diagram.</text>
<rect x="23" y="64" clip-path="url(#clipPath1)" fill="rgb(255,203,203)" width="40" height="40" stroke="none" stroke-width="0.1"/>
<rect x="23" y="64" clip-path="url(#clipPath1)" fill="none" width="39" height="39" stroke="black" stroke-width="0.1"/>
<text x="-54" y="89" clip-path="url(#clipPath1)" fill="black" stroke="none" stroke-width="0.1" xml:space="preserve">Invalid view - remove from diagram.</text>
<text x="295" y="402" clip-path="url(#clipPath4)" stroke="none" stroke-width="0.1" xml:space="preserve">Invalid view - remove from diagram.</text>
<line clip-path="url(#clipPath3)" fill="none" x1="1522" x2="1492" y1="325" y2="325"/>
<line clip-path="url(#clipPath3)" fill="none" x1="1492" x2="1492" y1="325" y2="68"/>
<line clip-path="url(#clipPath3)" fill="none" x1="1492" x2="1132" y1="68" y2="68"/>
<rect x="23" y="64" clip-path="url(#clipPath1)" fill="rgb(255,203,203)" width="40" height="40" stroke="none"/>
<rect x="23" y="64" clip-path="url(#clipPath1)" fill="none" width="39" height="39" stroke="black" stroke-width="0.1"/>
<text x="-54" y="89" clip-path="url(#clipPath1)" fill="black" stroke="none" stroke-width="0.1" xml:space="preserve">Invalid view - remove from diagram.</text>
<rect x="23" y="64" clip-path="url(#clipPath1)" fill="rgb(255,203,203)" width="40" height="40" stroke="none" stroke-width="0.1"/>
<rect x="23" y="64" clip-path="url(#clipPath1)" fill="none" width="39" height="39" stroke="black" stroke-width="0.1"/>
<text x="-54" y="89" clip-path="url(#clipPath1)" fill="black" stroke="none" stroke-width="0.1" xml:space="preserve">Invalid view - remove from diagram.</text>
<rect x="23" y="64" clip-path="url(#clipPath1)" fill="rgb(255,203,203)" width="40" height="40" stroke="none" stroke-width="0.1"/>
<rect x="23" y="64" clip-path="url(#clipPath1)" fill="none" width="39" height="39" stroke="black" stroke-width="0.1"/>
<text x="-54" y="89" clip-path="url(#clipPath1)" fill="black" stroke="none" stroke-width="0.1" xml:space="preserve">Invalid view - remove from diagram.</text>
<rect x="23" y="64" clip-path="url(#clipPath1)" fill="rgb(255,203,203)" width="40" height="40" stroke="none" stroke-width="0.1"/>
<rect x="23" y="64" clip-path="url(#clipPath1)" fill="none" width="39" height="39" stroke="black" stroke-width="0.1"/>
<text x="-54" y="89" clip-path="url(#clipPath1)" fill="black" stroke="none" stroke-width="0.1" xml:space="preserve">Invalid view - remove from diagram.</text>
<rect x="23" y="64" clip-path="url(#clipPath1)" fill="rgb(255,203,203)" width="40" height="40" stroke="none" stroke-width="0.1"/>
<rect x="23" y="64" clip-path="url(#clipPath1)" fill="none" width="39" height="39" stroke="black" stroke-width="0.1"/>
<text x="-54" y="89" clip-path="url(#clipPath1)" fill="black" stroke="none" stroke-width="0.1" xml:space="preserve">Invalid view - remove from diagram.</text>
<text x="1359" y="73" clip-path="url(#clipPath5)" stroke="none" stroke-width="0.1" xml:space="preserve">Invalid view - remove from diagram.</text>
<line clip-path="url(#clipPath3)" fill="none" x1="702" x2="702" y1="344" y2="334"/>
<line clip-path="url(#clipPath3)" fill="none" x1="702" x2="1108" y1="334" y2="334"/>
<line clip-path="url(#clipPath3)" fill="none" x1="1108" x2="1108" y1="334" y2="101"/>
<rect x="23" y="64" clip-path="url(#clipPath1)" fill="rgb(255,203,203)" width="40" height="40" stroke="none"/>
<rect x="23" y="64" clip-path="url(#clipPath1)" fill="none" width="39" height="39" stroke="black" stroke-width="0.1"/>
<text x="-54" y="89" clip-path="url(#clipPath1)" fill="black" stroke="none" stroke-width="0.1" xml:space="preserve">Invalid view - remove from diagram.</text>
<rect x="23" y="64" clip-path="url(#clipPath1)" fill="rgb(255,203,203)" width="40" height="40" stroke="none" stroke-width="0.1"/>
<rect x="23" y="64" clip-path="url(#clipPath1)" fill="none" width="39" height="39" stroke="black" stroke-width="0.1"/>
<text x="-54" y="89" clip-path="url(#clipPath1)" fill="black" stroke="none" stroke-width="0.1" xml:space="preserve">Invalid view - remove from diagram.</text>
<text x="921" y="339" clip-path="url(#clipPath6)" stroke="none" stroke-width="0.1" xml:space="preserve">Invalid view - remove from diagram.</text>
<line clip-path="url(#clipPath3)" fill="none" x1="741" x2="916" y1="149" y2="149"/>
<line clip-path="url(#clipPath3)" fill="none" x1="916" x2="916" y1="149" y2="94"/>
<line clip-path="url(#clipPath3)" fill="none" x1="916" x2="1092" y1="94" y2="94"/>
<rect x="23" y="64" clip-path="url(#clipPath1)" fill="rgb(255,203,203)" width="40" height="40" stroke="none"/>
<rect x="23" y="64" clip-path="url(#clipPath1)" fill="none" width="39" height="39" stroke="black" stroke-width="0.1"/>
<text x="-54" y="89" clip-path="url(#clipPath1)" fill="black" stroke="none" stroke-width="0.1" xml:space="preserve">Invalid view - remove from diagram.</text>
<rect x="23" y="64" clip-path="url(#clipPath1)" fill="rgb(255,203,203)" width="40" height="40" stroke="none" stroke-width="0.1"/>
<rect x="23" y="64" clip-path="url(#clipPath1)" fill="none" width="39" height="39" stroke="black" stroke-width="0.1"/>
<text x="-54" y="89" clip-path="url(#clipPath1)" fill="black" stroke="none" stroke-width="0.1" xml:space="preserve">Invalid view - remove from diagram.</text>
<text x="820" y="127" clip-path="url(#clipPath7)" stroke="none" stroke-width="0.1" xml:space="preserve">Invalid view - remove from diagram.</text>
<line clip-path="url(#clipPath3)" fill="none" x1="821" x2="821" y1="440" y2="418"/>
<line clip-path="url(#clipPath3)" fill="none" x1="821" x2="735" y1="418" y2="418"/>
<line clip-path="url(#clipPath3)" fill="none" x1="735" x2="735" y1="418" y2="397"/>
<rect x="23" y="64" clip-path="url(#clipPath1)" fill="rgb(255,203,203)" width="40" height="40" stroke="none"/>
<rect x="23" y="64" clip-path="url(#clipPath1)" fill="none" width="39" height="39" stroke="black" stroke-width="0.1"/>
<text x="-54" y="89" clip-path="url(#clipPath1)" fill="black" stroke="none" stroke-width="0.1" xml:space="preserve">Invalid view - remove from diagram.</text>
<rect x="23" y="64" clip-path="url(#clipPath1)" fill="rgb(255,203,203)" width="40" height="40" stroke="none" stroke-width="0.1"/>
<rect x="23" y="64" clip-path="url(#clipPath1)" fill="none" width="39" height="39" stroke="black" stroke-width="0.1"/>
<text x="-54" y="89" clip-path="url(#clipPath1)" fill="black" stroke="none" stroke-width="0.1" xml:space="preserve">Invalid view - remove from diagram.</text>
<text x="682" y="423" clip-path="url(#clipPath8)" stroke="none" stroke-width="0.1" xml:space="preserve">Invalid view - remove from diagram.</text>
<line clip-path="url(#clipPath3)" fill="none" x1="683" x2="683" y1="223" y2="184"/>
<rect x="23" y="64" clip-path="url(#clipPath1)" fill="rgb(255,203,203)" width="40" height="40" stroke="none"/>
<rect x="23" y="64" clip-path="url(#clipPath1)" fill="none" width="39" height="39" stroke="black" stroke-width="0.1"/>
<text x="-54" y="89" clip-path="url(#clipPath1)" fill="black" stroke="none" stroke-width="0.1" xml:space="preserve">Invalid view - remove from diagram.</text>
<rect x="23" y="64" clip-path="url(#clipPath1)" fill="rgb(255,203,203)" width="40" height="40" stroke="none" stroke-width="0.1"/>
<rect x="23" y="64" clip-path="url(#clipPath1)" fill="none" width="39" height="39" stroke="black" stroke-width="0.1"/>
<text x="-54" y="89" clip-path="url(#clipPath1)" fill="black" stroke="none" stroke-width="0.1" xml:space="preserve">Invalid view - remove from diagram.</text>
<text x="587" y="208" clip-path="url(#clipPath9)" stroke="none" stroke-width="0.1" xml:space="preserve">Invalid view - remove from diagram.</text>
<line clip-path="url(#clipPath3)" fill="none" x1="503" x2="549" y1="463" y2="463"/>
<rect x="23" y="64" clip-path="url(#clipPath1)" fill="rgb(255,203,203)" width="40" height="40" stroke="none"/>
<rect x="23" y="64" clip-path="url(#clipPath1)" fill="none" width="39" height="39" stroke="black" stroke-width="0.1"/>
<text x="-54" y="89" clip-path="url(#clipPath1)" fill="black" stroke="none" stroke-width="0.1" xml:space="preserve">Invalid view - remove from diagram.</text>
<rect x="23" y="64" clip-path="url(#clipPath1)" fill="rgb(255,203,203)" width="40" height="40" stroke="none" stroke-width="0.1"/>
<rect x="23" y="64" clip-path="url(#clipPath1)" fill="none" width="39" height="39" stroke="black" stroke-width="0.1"/>
<text x="-54" y="89" clip-path="url(#clipPath1)" fill="black" stroke="none" stroke-width="0.1" xml:space="preserve">Invalid view - remove from diagram.</text>
<text x="430" y="468" clip-path="url(#clipPath10)" stroke="none" stroke-width="0.1" xml:space="preserve">Invalid view - remove from diagram.</text>
<line clip-path="url(#clipPath3)" fill="none" x1="489" x2="489" y1="449" y2="388"/>
<line clip-path="url(#clipPath3)" fill="none" x1="489" x2="464" y1="388" y2="388"/>
<line clip-path="url(#clipPath3)" fill="none" x1="464" x2="464" y1="388" y2="390"/>
<line clip-path="url(#clipPath3)" fill="none" x1="464" x2="570" y1="390" y2="390"/>
<rect x="23" y="64" clip-path="url(#clipPath1)" fill="rgb(255,203,203)" width="40" height="40" stroke="none"/>
<rect x="23" y="64" clip-path="url(#clipPath1)" fill="none" width="39" height="39" stroke="black" stroke-width="0.1"/>
<text x="-54" y="89" clip-path="url(#clipPath1)" fill="black" stroke="none" stroke-width="0.1" xml:space="preserve">Invalid view - remove from diagram.</text>
<rect x="23" y="64" clip-path="url(#clipPath1)" fill="rgb(255,203,203)" width="40" height="40" stroke="none" stroke-width="0.1"/>
<rect x="23" y="64" clip-path="url(#clipPath1)" fill="none" width="39" height="39" stroke="black" stroke-width="0.1"/>
<text x="-54" y="89" clip-path="url(#clipPath1)" fill="black" stroke="none" stroke-width="0.1" xml:space="preserve">Invalid view - remove from diagram.</text>
<text x="377" y="395" clip-path="url(#clipPath11)" stroke="none" stroke-width="0.1" xml:space="preserve">Invalid view - remove from diagram.</text>
<line clip-path="url(#clipPath3)" fill="none" x1="513" x2="581" y1="171" y2="171"/>
<rect x="23" y="64" clip-path="url(#clipPath1)" fill="rgb(255,203,203)" width="40" height="40" stroke="none"/>
<rect x="23" y="64" clip-path="url(#clipPath1)" fill="none" width="39" height="39" stroke="black" stroke-width="0.1"/>
<text x="-54" y="89" clip-path="url(#clipPath1)" fill="black" stroke="none" stroke-width="0.1" xml:space="preserve">Invalid view - remove from diagram.</text>
<rect x="23" y="64" clip-path="url(#clipPath1)" fill="rgb(255,203,203)" width="40" height="40" stroke="none" stroke-width="0.1"/>
<rect x="23" y="64" clip-path="url(#clipPath1)" fill="none" width="39" height="39" stroke="black" stroke-width="0.1"/>
<text x="-54" y="89" clip-path="url(#clipPath1)" fill="black" stroke="none" stroke-width="0.1" xml:space="preserve">Invalid view - remove from diagram.</text>
<text x="451" y="176" clip-path="url(#clipPath12)" stroke="none" stroke-width="0.1" xml:space="preserve">Invalid view - remove from diagram.</text>
<line clip-path="url(#clipPath3)" fill="none" x1="517" x2="1019" y1="313" y2="313"/>
<line clip-path="url(#clipPath3)" fill="none" x1="1019" x2="1019" y1="313" y2="329"/>
<line clip-path="url(#clipPath3)" fill="none" x1="1019" x2="1522" y1="329" y2="329"/>
<rect x="23" y="64" clip-path="url(#clipPath1)" fill="rgb(255,203,203)" width="40" height="40" stroke="none"/>
<rect x="23" y="64" clip-path="url(#clipPath1)" fill="none" width="39" height="39" stroke="black" stroke-width="0.1"/>
<text x="-54" y="89" clip-path="url(#clipPath1)" fill="black" stroke="none" stroke-width="0.1" xml:space="preserve">Invalid view - remove from diagram.</text>
<rect x="23" y="64" clip-path="url(#clipPath1)" fill="rgb(255,203,203)" width="40" height="40" stroke="none" stroke-width="0.1"/>
<rect x="23" y="64" clip-path="url(#clipPath1)" fill="none" width="39" height="39" stroke="black" stroke-width="0.1"/>
<text x="-54" y="89" clip-path="url(#clipPath1)" fill="black" stroke="none" stroke-width="0.1" xml:space="preserve">Invalid view - remove from diagram.</text>
<text x="923" y="327" clip-path="url(#clipPath13)" stroke="none" stroke-width="0.1" xml:space="preserve">Invalid view - remove from diagram.</text>
<line clip-path="url(#clipPath3)" fill="none" x1="513" x2="513" y1="207" y2="247"/>
<line clip-path="url(#clipPath3)" fill="none" x1="513" x2="487" y1="247" y2="247"/>
<line clip-path="url(#clipPath3)" fill="none" x1="487" x2="487" y1="247" y2="223"/>
<line clip-path="url(#clipPath3)" fill="none" x1="487" x2="579" y1="223" y2="223"/>
<rect x="23" y="64" clip-path="url(#clipPath1)" fill="rgb(255,203,203)" width="40" height="40" stroke="none"/>
<rect x="23" y="64" clip-path="url(#clipPath1)" fill="none" width="39" height="39" stroke="black" stroke-width="0.1"/>
<text x="-54" y="89" clip-path="url(#clipPath1)" fill="black" stroke="none" stroke-width="0.1" xml:space="preserve">Invalid view - remove from diagram.</text>
<rect x="23" y="64" clip-path="url(#clipPath1)" fill="rgb(255,203,203)" width="40" height="40" stroke="none" stroke-width="0.1"/>
<rect x="23" y="64" clip-path="url(#clipPath1)" fill="none" width="39" height="39" stroke="black" stroke-width="0.1"/>
<text x="-54" y="89" clip-path="url(#clipPath1)" fill="black" stroke="none" stroke-width="0.1" xml:space="preserve">Invalid view - remove from diagram.</text>
<text x="392" y="228" clip-path="url(#clipPath14)" stroke="none" stroke-width="0.1" xml:space="preserve">Invalid view - remove from diagram.</text>
<line clip-path="url(#clipPath3)" fill="none" x1="865" x2="1352" y1="440" y2="440"/>
<line clip-path="url(#clipPath3)" fill="none" x1="1352" x2="1352" y1="440" y2="465"/>
<line clip-path="url(#clipPath3)" fill="none" x1="1352" x2="1438" y1="465" y2="465"/>
<line clip-path="url(#clipPath3)" fill="none" x1="1438" x2="1438" y1="465" y2="81"/>
<rect x="23" y="64" clip-path="url(#clipPath1)" fill="rgb(255,203,203)" width="40" height="40" stroke="none"/>
<rect x="23" y="64" clip-path="url(#clipPath1)" fill="none" width="39" height="39" stroke="black" stroke-width="0.1"/>
<text x="-54" y="89" clip-path="url(#clipPath1)" fill="black" stroke="none" stroke-width="0.1" xml:space="preserve">Invalid view - remove from diagram.</text>
<rect x="23" y="64" clip-path="url(#clipPath1)" fill="rgb(255,203,203)" width="40" height="40" stroke="none" stroke-width="0.1"/>
<rect x="23" y="64" clip-path="url(#clipPath1)" fill="none" width="39" height="39" stroke="black" stroke-width="0.1"/>
<text x="-54" y="89" clip-path="url(#clipPath1)" fill="black" stroke="none" stroke-width="0.1" xml:space="preserve">Invalid view - remove from diagram.</text>
<text x="1256" y="449" clip-path="url(#clipPath15)" stroke="none" stroke-width="0.1" xml:space="preserve">Invalid view - remove from diagram.</text>
<line clip-path="url(#clipPath3)" fill="none" x1="850" x2="1888" y1="227" y2="227"/>
<line clip-path="url(#clipPath3)" fill="none" x1="1888" x2="1888" y1="227" y2="305"/>
<line clip-path="url(#clipPath3)" fill="none" x1="1888" x2="1542" y1="305" y2="305"/>
<rect x="23" y="64" clip-path="url(#clipPath1)" fill="rgb(255,203,203)" width="40" height="40" stroke="none"/>
<rect x="23" y="64" clip-path="url(#clipPath1)" fill="none" width="39" height="39" stroke="black" stroke-width="0.1"/>
<text x="-54" y="89" clip-path="url(#clipPath1)" fill="black" stroke="none" stroke-width="0.1" xml:space="preserve">Invalid view - remove from diagram.</text>
<rect x="23" y="64" clip-path="url(#clipPath1)" fill="rgb(255,203,203)" width="40" height="40" stroke="none" stroke-width="0.1"/>
<rect x="23" y="64" clip-path="url(#clipPath1)" fill="none" width="39" height="39" stroke="black" stroke-width="0.1"/>
<text x="-54" y="89" clip-path="url(#clipPath1)" fill="black" stroke="none" stroke-width="0.1" xml:space="preserve">Invalid view - remove from diagram.</text>
<text x="1485" y="232" clip-path="url(#clipPath16)" stroke="none" stroke-width="0.1" xml:space="preserve">Invalid view - remove from diagram.</text>
<line clip-path="url(#clipPath3)" fill="none" x1="865" x2="1211" y1="457" y2="457"/>
<line clip-path="url(#clipPath3)" fill="none" x1="1211" x2="1211" y1="457" y2="417"/>
<line clip-path="url(#clipPath3)" fill="none" x1="1211" x2="1115" y1="417" y2="417"/>
<line clip-path="url(#clipPath3)" fill="none" x1="1115" x2="1115" y1="417" y2="101"/>
<rect x="23" y="64" clip-path="url(#clipPath1)" fill="rgb(255,203,203)" width="40" height="40" stroke="none"/>
<rect x="23" y="64" clip-path="url(#clipPath1)" fill="none" width="39" height="39" stroke="black" stroke-width="0.1"/>
<text x="-54" y="89" clip-path="url(#clipPath1)" fill="black" stroke="none" stroke-width="0.1" xml:space="preserve">Invalid view - remove from diagram.</text>
<rect x="23" y="64" clip-path="url(#clipPath1)" fill="rgb(255,203,203)" width="40" height="40" stroke="none" stroke-width="0.1"/>
<rect x="23" y="64" clip-path="url(#clipPath1)" fill="none" width="39" height="39" stroke="black" stroke-width="0.1"/>
<text x="-54" y="89" clip-path="url(#clipPath1)" fill="black" stroke="none" stroke-width="0.1" xml:space="preserve">Invalid view - remove from diagram.</text>
<text x="1102" y="422" clip-path="url(#clipPath17)" stroke="none" stroke-width="0.1" xml:space="preserve">Invalid view - remove from diagram.</text>
<line clip-path="url(#clipPath3)" fill="none" x1="717" x2="717" y1="223" y2="203"/>
<line clip-path="url(#clipPath3)" fill="none" x1="717" x2="1092" y1="203" y2="203"/>
<line clip-path="url(#clipPath3)" fill="none" x1="1092" x2="1092" y1="203" y2="101"/>
<rect x="23" y="64" clip-path="url(#clipPath1)" fill="rgb(255,203,203)" width="40" height="40" stroke="none"/>
<rect x="23" y="64" clip-path="url(#clipPath1)" fill="none" width="39" height="39" stroke="black" stroke-width="0.1"/>
<text x="-54" y="89" clip-path="url(#clipPath1)" fill="black" stroke="none" stroke-width="0.1" xml:space="preserve">Invalid view - remove from diagram.</text>
<rect x="23" y="64" clip-path="url(#clipPath1)" fill="rgb(255,203,203)" width="40" height="40" stroke="none" stroke-width="0.1"/>
<rect x="23" y="64" clip-path="url(#clipPath1)" fill="none" width="39" height="39" stroke="black" stroke-width="0.1"/>
<text x="-54" y="89" clip-path="url(#clipPath1)" fill="black" stroke="none" stroke-width="0.1" xml:space="preserve">Invalid view - remove from diagram.</text>
<text x="850" y="208" clip-path="url(#clipPath18)" stroke="none" stroke-width="0.1" xml:space="preserve">Invalid view - remove from diagram.</text>
<line clip-path="url(#clipPath3)" fill="none" x1="661" x2="661" y1="131" y2="41"/>
<line clip-path="url(#clipPath3)" fill="none" x1="661" x2="638" y1="41" y2="41"/>
<line clip-path="url(#clipPath3)" fill="none" x1="638" x2="638" y1="41" y2="31"/>
<line clip-path="url(#clipPath3)" fill="none" x1="638" x2="1542" y1="31" y2="31"/>
<line clip-path="url(#clipPath3)" fill="none" x1="1542" x2="1542" y1="31" y2="325"/>
<rect x="23" y="64" clip-path="url(#clipPath1)" fill="rgb(255,203,203)" width="40" height="40" stroke="none"/>
<rect x="23" y="64" clip-path="url(#clipPath1)" fill="none" width="39" height="39" stroke="black" stroke-width="0.1"/>
<text x="-54" y="89" clip-path="url(#clipPath1)" fill="black" stroke="none" stroke-width="0.1" xml:space="preserve">Invalid view - remove from diagram.</text>
<rect x="23" y="64" clip-path="url(#clipPath1)" fill="rgb(255,203,203)" width="40" height="40" stroke="none" stroke-width="0.1"/>
<rect x="23" y="64" clip-path="url(#clipPath1)" fill="none" width="39" height="39" stroke="black" stroke-width="0.1"/>
<text x="-54" y="89" clip-path="url(#clipPath1)" fill="black" stroke="none" stroke-width="0.1" xml:space="preserve">Invalid view - remove from diagram.</text>
<text x="1080" y="36" clip-path="url(#clipPath19)" stroke="none" stroke-width="0.1" xml:space="preserve">Invalid view - remove from diagram.</text>
<line clip-path="url(#clipPath3)" fill="none" x1="793" x2="1067" y1="370" y2="370"/>
<line clip-path="url(#clipPath3)" fill="none" x1="1067" x2="1067" y1="370" y2="345"/>
<line clip-path="url(#clipPath3)" fill="none" x1="1067" x2="1522" y1="345" y2="345"/>
<rect x="23" y="64" clip-path="url(#clipPath1)" fill="rgb(255,203,203)" width="40" height="40" stroke="none"/>
<rect x="23" y="64" clip-path="url(#clipPath1)" fill="none" width="39" height="39" stroke="black" stroke-width="0.1"/>
<text x="-54" y="89" clip-path="url(#clipPath1)" fill="black" stroke="none" stroke-width="0.1" xml:space="preserve">Invalid view - remove from diagram.</text>
<rect x="23" y="64" clip-path="url(#clipPath1)" fill="rgb(255,203,203)" width="40" height="40" stroke="none" stroke-width="0.1"/>
<rect x="23" y="64" clip-path="url(#clipPath1)" fill="none" width="39" height="39" stroke="black" stroke-width="0.1"/>
<text x="-54" y="89" clip-path="url(#clipPath1)" fill="black" stroke="none" stroke-width="0.1" xml:space="preserve">Invalid view - remove from diagram.</text>
<text x="1049" y="350" clip-path="url(#clipPath20)" stroke="none" stroke-width="0.1" xml:space="preserve">Invalid view - remove from diagram.</text>
<line clip-path="url(#clipPath3)" fill="none" x1="850" x2="1492" y1="242" y2="242"/>
<rect x="23" y="64" clip-path="url(#clipPath1)" fill="rgb(255,203,203)" width="40" height="40" stroke="none"/>
<rect x="23" y="64" clip-path="url(#clipPath1)" fill="none" width="39" height="39" stroke="black" stroke-width="0.1"/>
<text x="-54" y="89" clip-path="url(#clipPath1)" fill="black" stroke="none" stroke-width="0.1" xml:space="preserve">Invalid view - remove from diagram.</text>
<rect x="23" y="64" clip-path="url(#clipPath1)" fill="rgb(255,203,203)" width="40" height="40" stroke="none" stroke-width="0.1"/>
<rect x="23" y="64" clip-path="url(#clipPath1)" fill="none" width="39" height="39" stroke="black" stroke-width="0.1"/>
<text x="-54" y="89" clip-path="url(#clipPath1)" fill="black" stroke="none" stroke-width="0.1" xml:space="preserve">Invalid view - remove from diagram.</text>
<text x="1075" y="247" clip-path="url(#clipPath21)" stroke="none" stroke-width="0.1" xml:space="preserve">Invalid view - remove from diagram.</text>
<line clip-path="url(#clipPath3)" fill="none" x1="865" x2="1390" y1="483" y2="483"/>
<line clip-path="url(#clipPath3)" fill="none" x1="1390" x2="1390" y1="483" y2="482"/>
<line clip-path="url(#clipPath3)" fill="none" x1="1390" x2="1361" y1="482" y2="482"/>
<line clip-path="url(#clipPath3)" fill="none" x1="1361" x2="1361" y1="482" y2="271"/>
<line clip-path="url(#clipPath3)" fill="none" x1="1361" x2="1543" y1="271" y2="271"/>
<line clip-path="url(#clipPath3)" fill="none" x1="1543" x2="1543" y1="271" y2="254"/>
<line clip-path="url(#clipPath3)" fill="none" x1="1543" x2="1492" y1="254" y2="254"/>
<rect x="23" y="64" clip-path="url(#clipPath1)" fill="rgb(255,203,203)" width="40" height="40" stroke="none"/>
<rect x="23" y="64" clip-path="url(#clipPath1)" fill="none" width="39" height="39" stroke="black" stroke-width="0.1"/>
<text x="-54" y="89" clip-path="url(#clipPath1)" fill="black" stroke="none" stroke-width="0.1" xml:space="preserve">Invalid view - remove from diagram.</text>
<rect x="23" y="64" clip-path="url(#clipPath1)" fill="rgb(255,203,203)" width="40" height="40" stroke="none" stroke-width="0.1"/>
<rect x="23" y="64" clip-path="url(#clipPath1)" fill="none" width="39" height="39" stroke="black" stroke-width="0.1"/>
<text x="-54" y="89" clip-path="url(#clipPath1)" fill="black" stroke="none" stroke-width="0.1" xml:space="preserve">Invalid view - remove from diagram.</text>
<text x="1277" y="488" clip-path="url(#clipPath22)" stroke="none" stroke-width="0.1" xml:space="preserve">Invalid view - remove from diagram.</text>
<line clip-path="url(#clipPath3)" fill="none" x1="1132" x2="1542" y1="81" y2="81"/>
<line clip-path="url(#clipPath3)" fill="none" x1="1542" x2="1542" y1="81" y2="325"/>
<rect x="23" y="64" clip-path="url(#clipPath1)" fill="rgb(255,203,203)" width="40" height="40" stroke="none"/>
<rect x="23" y="64" clip-path="url(#clipPath1)" fill="none" width="39" height="39" stroke="black" stroke-width="0.1"/>
<text x="-54" y="89" clip-path="url(#clipPath1)" fill="black" stroke="none" stroke-width="0.1" xml:space="preserve">Invalid view - remove from diagram.</text>
<rect x="23" y="64" clip-path="url(#clipPath1)" fill="rgb(255,203,203)" width="40" height="40" stroke="none" stroke-width="0.1"/>
<rect x="23" y="64" clip-path="url(#clipPath1)" fill="none" width="39" height="39" stroke="black" stroke-width="0.1"/>
<text x="-54" y="89" clip-path="url(#clipPath1)" fill="black" stroke="none" stroke-width="0.1" xml:space="preserve">Invalid view - remove from diagram.</text>
<rect x="23" y="64" clip-path="url(#clipPath1)" fill="rgb(255,203,203)" width="40" height="40" stroke="none" stroke-width="0.1"/>
<rect x="23" y="64" clip-path="url(#clipPath1)" fill="none" width="39" height="39" stroke="black" stroke-width="0.1"/>
<text x="-54" y="89" clip-path="url(#clipPath1)" fill="black" stroke="none" stroke-width="0.1" xml:space="preserve">Invalid view - remove from diagram.</text>
<rect x="23" y="64" clip-path="url(#clipPath1)" fill="rgb(255,203,203)" width="40" height="40" stroke="none" stroke-width="0.1"/>
<rect x="23" y="64" clip-path="url(#clipPath1)" fill="none" width="39" height="39" stroke="black" stroke-width="0.1"/>
<text x="-54" y="89" clip-path="url(#clipPath1)" fill="black" stroke="none" stroke-width="0.1" xml:space="preserve">Invalid view - remove from diagram.</text>
<rect x="23" y="64" clip-path="url(#clipPath1)" fill="rgb(255,203,203)" width="40" height="40" stroke="none" stroke-width="0.1"/>
<rect x="23" y="64" clip-path="url(#clipPath1)" fill="none" width="39" height="39" stroke="black" stroke-width="0.1"/>
<text x="-54" y="89" clip-path="url(#clipPath1)" fill="black" stroke="none" stroke-width="0.1" xml:space="preserve">Invalid view - remove from diagram.</text>
<text x="1363" y="86" clip-path="url(#clipPath23)" stroke="none" stroke-width="0.1" xml:space="preserve">Invalid view - remove from diagram.</text>
</g>
</g>
<rect x="265" y="158" fill-opacity="0" width="248" title="Represents the SDN controller." id="SdnController" height="49" stroke-opacity="0">
<title>Represents the SDN controller.</title>
</rect>
<rect x="267" y="279" fill-opacity="0" width="250" title="The Network Control Domain (NCD) class represents the scope of control that a particular SDN controller has with respect to a particular network, (i.e., encompassing a designated set of interconnected network elements).&#13;&#10;In the interfaces between SDN controllers where virtualization is necessary, e.g., in client/server SDN controller relationship, the NCD object defines the scope of control of the client SDN controller on the virtual network that has been provided by the server SDN controller (i.e., the scope of control relates to the partitioned provider resources allocated to that particular client). &#13;&#10;The NCD provides the scope of naming space for identifying objects representing the virtual resources within the virtual network." id="NetworkControlDomain" height="66" stroke-opacity="0">
<title>The Network Control Domain (NCD) class represents the scope of control that a particular SDN controller has with respect to a particular network, (i.e., encompassing a designated set of interconnected network elements).&#13;
In the interfaces between SDN controllers where virtualization is necessary, e.g., in client/server SDN controller relationship, the NCD object defines the scope of control of the client SDN controller on the virtual network that has been provided by the server SDN controller (i.e., the scope of control relates to the partitioned provider resources allocated to that particular client). &#13;
The NCD provides the scope of naming space for identifying objects representing the virtual resources within the virtual network.</title>
</rect>
<rect x="263" y="449" fill-opacity="0" width="240" title="The Network Element (NE) class represents a network element (traditional NE) in the data plane.&#13;&#10;A data plane network element is essentially a consolidation of capabilities that can be viewed and controlled through a &quot;single&quot; management-control port.&#13;&#10;In the direct interface from an SDN controller to a network element in the data plane, the NetworkElement object defines the scope of control for the resources within the network element&#13;&#10;For example internal transfer of user information between the external terminations (ports of the NE), encapsulation, multiplexing/demultiplexing, and OAM functions, etc. &#13;&#10;The NetworkElement provides the scope of the naming space for identifying objects representing the resources within the data plane network element.&#13;&#10;&#13;&#10;NE is really a product bundling or some view of management scope, management access, session. &#13;&#10;The NE is not directly part of topology but brings meaning to the FD context and the LTP context (and hence the links). " id="NetworkElement" height="96" stroke-opacity="0">
<title>The Network Element (NE) class represents a network element (traditional NE) in the data plane.&#13;
A data plane network element is essentially a consolidation of capabilities that can be viewed and controlled through a "single" management-control port.&#13;
In the direct interface from an SDN controller to a network element in the data plane, the NetworkElement object defines the scope of control for the resources within the network element&#13;
For example internal transfer of user information between the external terminations (ports of the NE), encapsulation, multiplexing/demultiplexing, and OAM functions, etc. &#13;
The NetworkElement provides the scope of the naming space for identifying objects representing the resources within the data plane network element.&#13;
&#13;
NE is really a product bundling or some view of management scope, management access, session. &#13;
The NE is not directly part of topology but brings meaning to the FD context and the LTP context (and hence the links). </title>
</rect>
<rect x="1522" y="325" fill-opacity="0" width="40" title="A view of the things controlled by a control system.&#13;&#10;A ControlSystemView is structured presentation of the underlying controlled things (the &quot;actual&quot; entities) for some purpose.&#13;&#10;The ControlSystemView is constructed by pruning and refactoring the models of the underlying controlled things.&#13;&#10;Is an aggregation of &quot;views of things&quot; where a &quot;view of things&quot; is represented in abstraction by an Object Class in the model.&#13;&#10;The ControlComponent is itself controlled and presents itself in terms of ControlComponents (subordinate) in a view.&#13;&#10;At one extreme a ControlSystemView may expose all underlying details of everything controlled with no adjustment from the presentation provided by the controlled things.&#13;&#10;A ControlSystemView may expose a subset of the controlled things that focuses on a particular aspect (e.g. only the ControlComponents)." id="ControlSystemView" height="40" stroke-opacity="0">
<title>A view of the things controlled by a control system.&#13;
A ControlSystemView is structured presentation of the underlying controlled things (the "actual" entities) for some purpose.&#13;
The ControlSystemView is constructed by pruning and refactoring the models of the underlying controlled things.&#13;
Is an aggregation of "views of things" where a "view of things" is represented in abstraction by an Object Class in the model.&#13;
The ControlComponent is itself controlled and presents itself in terms of ControlComponents (subordinate) in a view.&#13;
At one extreme a ControlSystemView may expose all underlying details of everything controlled with no adjustment from the presentation provided by the controlled things.&#13;
A ControlSystemView may expose a subset of the controlled things that focuses on a particular aspect (e.g. only the ControlComponents).</title>
</rect>
<rect x="1092" y="61" fill-opacity="0" width="40" title="Represents control capability/functionality. The functionality is emergent from the running software.&#13;&#10;ControlComponents communicate with other ControlComponents through ControlPorts about things expressed in the corresponding ControlSystemViews.&#13;&#10;Examples of higher level aggregate ControlComponents are:&#13;&#10;- the controller in the Network/Managed Element e.g. an SNMP agent).&#13;&#10;- an SDN Controller.&#13;&#10;- an EMS.&#13;&#10;- an NMS.&#13;&#10;Examples of lower level ControlComponents are:&#13;&#10;- Path Computation.&#13;&#10;- Problem Analytics.&#13;&#10;This specific model follows a subset of the Component-System Pattern as that is all that is necessary for this aspect of expression. &#13;&#10;" id="ControlComponent" height="40" stroke-opacity="0">
<title>Represents control capability/functionality. The functionality is emergent from the running software.&#13;
ControlComponents communicate with other ControlComponents through ControlPorts about things expressed in the corresponding ControlSystemViews.&#13;
Examples of higher level aggregate ControlComponents are:&#13;
- the controller in the Network/Managed Element e.g. an SNMP agent).&#13;
- an SDN Controller.&#13;
- an EMS.&#13;
- an NMS.&#13;
Examples of lower level ControlComponents are:&#13;
- Path Computation.&#13;
- Problem Analytics.&#13;
This specific model follows a subset of the Component-System Pattern as that is all that is necessary for this aspect of expression. &#13;
</title>
</rect>
<rect x="570" y="344" fill-opacity="0" width="223" title="Traditional model of the NE equivalent to an aspect of the NetworkElement class from v1.2.&#13;&#10;This class should not be implemented." id="Function:NetworkElementControl" height="53" stroke-opacity="0">
<title>Traditional model of the NE equivalent to an aspect of the NetworkElement class from v1.2.&#13;
This class should not be implemented.</title>
</rect>
<rect x="549" y="440" fill-opacity="0" width="316" title="Traditional model of the view of the NE controller as seen from a SDN Controller equivalent to an aspect of the NetworkElement class from v1.2.&#13;&#10;This class should not be implemented." id="View:NetworkElementViewedFromSdnController" height="53" stroke-opacity="0">
<title>Traditional model of the view of the NE controller as seen from a SDN Controller equivalent to an aspect of the NetworkElement class from v1.2.&#13;
This class should not be implemented.</title>
</rect>
<rect x="581" y="131" fill-opacity="0" width="160" title="Traditional model of the SDN controller equivalent to the SdnController class from v1.2.&#13;&#10;This class should not be implemented." id="Function:SdnController" height="53" stroke-opacity="0">
<title>Traditional model of the SDN controller equivalent to the SdnController class from v1.2.&#13;
This class should not be implemented.</title>
</rect>
<rect x="579" y="223" fill-opacity="0" width="271" title="Traditional model of the view of the SDN controller as seen from a manager .&#13;&#10;No equivalent in v1.2.&#13;&#10;This class should not be implemented." id="View:SdnControllerViewedFromManager" height="53" stroke-opacity="0">
<title>Traditional model of the view of the SDN controller as seen from a manager .&#13;
No equivalent in v1.2.&#13;
This class should not be implemented.</title>
</rect>
</svg>
