<?xml version="1.0" encoding="UTF-8"?><svg xmlns="http://www.w3.org/2000/svg" xmlns:xlink="http://www.w3.org/1999/xlink" stroke-dasharray="none" shape-rendering="auto" font-family="'Dialog'" width="1461" text-rendering="auto" fill-opacity="1" contentScriptType="text/ecmascript" color-interpolation="auto" color-rendering="auto" preserveAspectRatio="xMidYMid meet" font-size="12" viewBox="0 0 1461 612" fill="black" stroke="black" image-rendering="auto" stroke-miterlimit="10" zoomAndPan="magnify" version="1.0" stroke-linecap="square" stroke-linejoin="miter" contentStyleType="text/css" font-style="normal" height="612" stroke-width="1" stroke-dashoffset="0" font-weight="normal" stroke-opacity="1">
<!--Generated by the Batik Graphics2D SVG Generator-->
<defs id="genericDefs"/>
<g>
<defs id="defs1">
<clipPath clipPathUnits="userSpaceOnUse" id="clipPath1">
<path d="M129 94 L171 94 L171 136 L129 136 L129 94 Z"/>
</clipPath>
<clipPath clipPathUnits="userSpaceOnUse" id="clipPath2">
<path d="M479 550 L673 550 L673 568 L479 568 L479 550 Z"/>
</clipPath>
<clipPath clipPathUnits="userSpaceOnUse" id="clipPath3">
<path d="M-1 -1 L1462 -1 L1462 613 L-1 613 L-1 -1 Z"/>
</clipPath>
<clipPath clipPathUnits="userSpaceOnUse" id="clipPath4">
<path d="M445 292 L639 292 L639 310 L445 310 L445 292 Z"/>
</clipPath>
<clipPath clipPathUnits="userSpaceOnUse" id="clipPath5">
<path d="M210 198 L404 198 L404 216 L210 216 L210 198 Z"/>
</clipPath>
<clipPath clipPathUnits="userSpaceOnUse" id="clipPath6">
<path d="M599 390 L793 390 L793 408 L599 408 L599 390 Z"/>
</clipPath>
<clipPath clipPathUnits="userSpaceOnUse" id="clipPath7">
<path d="M1220 480 L1414 480 L1414 498 L1220 498 L1220 480 Z"/>
</clipPath>
<clipPath clipPathUnits="userSpaceOnUse" id="clipPath8">
<path d="M1013 390 L1207 390 L1207 408 L1013 408 L1013 390 Z"/>
</clipPath>
<clipPath clipPathUnits="userSpaceOnUse" id="clipPath9">
<path d="M986 572 L1180 572 L1180 590 L986 590 L986 572 Z"/>
</clipPath>
<clipPath clipPathUnits="userSpaceOnUse" id="clipPath10">
<path d="M788 478 L982 478 L982 496 L788 496 L788 478 Z"/>
</clipPath>
<clipPath clipPathUnits="userSpaceOnUse" id="clipPath11">
<path d="M207 388 L401 388 L401 406 L207 406 L207 388 Z"/>
</clipPath>
<clipPath clipPathUnits="userSpaceOnUse" id="clipPath12">
<path d="M27 295 L221 295 L221 313 L27 313 L27 295 Z"/>
</clipPath>
<clipPath clipPathUnits="userSpaceOnUse" id="clipPath13">
<path d="M1189 291 L1383 291 L1383 309 L1189 309 L1189 291 Z"/>
</clipPath>
<clipPath clipPathUnits="userSpaceOnUse" id="clipPath14">
<path d="M864 190 L1058 190 L1058 208 L864 208 L864 190 Z"/>
</clipPath>
<clipPath clipPathUnits="userSpaceOnUse" id="clipPath15">
<path d="M435 108 L629 108 L629 126 L435 126 L435 108 Z"/>
</clipPath>
<clipPath clipPathUnits="userSpaceOnUse" id="clipPath16">
<path d="M211 25 L405 25 L405 43 L211 43 L211 25 Z"/>
</clipPath>
<clipPath clipPathUnits="userSpaceOnUse" id="clipPath17">
<path d="M22 110 L216 110 L216 128 L22 128 L22 110 Z"/>
</clipPath>
<clipPath clipPathUnits="userSpaceOnUse" id="clipPath18">
<path d="M304 353 L498 353 L498 371 L304 371 L304 353 Z"/>
</clipPath>
<clipPath clipPathUnits="userSpaceOnUse" id="clipPath19">
<path d="M127 257 L321 257 L321 275 L127 275 L127 257 Z"/>
</clipPath>
<clipPath clipPathUnits="userSpaceOnUse" id="clipPath20">
<path d="M596 119 L790 119 L790 137 L596 137 L596 119 Z"/>
</clipPath>
<clipPath clipPathUnits="userSpaceOnUse" id="clipPath21">
<path d="M1075 224 L1269 224 L1269 242 L1075 242 L1075 224 Z"/>
</clipPath>
<clipPath clipPathUnits="userSpaceOnUse" id="clipPath22">
<path d="M717 348 L911 348 L911 366 L717 366 L717 348 Z"/>
</clipPath>
<clipPath clipPathUnits="userSpaceOnUse" id="clipPath23">
<path d="M548 352 L742 352 L742 370 L548 370 L548 352 Z"/>
</clipPath>
<clipPath clipPathUnits="userSpaceOnUse" id="clipPath24">
<path d="M1089 546 L1283 546 L1283 564 L1089 564 L1089 546 Z"/>
</clipPath>
<clipPath clipPathUnits="userSpaceOnUse" id="clipPath25">
<path d="M1116 445 L1310 445 L1310 463 L1116 463 L1116 445 Z"/>
</clipPath>
<clipPath clipPathUnits="userSpaceOnUse" id="clipPath26">
<path d="M622 113 L816 113 L816 131 L622 131 L622 113 Z"/>
</clipPath>
</defs>
<g fill="rgb(255,203,203)" font-family="'Segoe UI'" stroke-linejoin="round" font-style="italic" stroke="rgb(255,203,203)" stroke-width="0" stroke-miterlimit="0">
<rect width="182" x="472" height="40" y="183" stroke="none"/>
</g>
<g font-style="italic" font-family="'Segoe UI'" stroke-linecap="butt">
<rect fill="none" width="181" x="472" height="39" y="183"/>
<text xml:space="preserve" x="467" y="208" stroke="none">Invalid view - remove from diagram.</text>
<rect x="461" y="379" fill="rgb(255,203,203)" width="127" height="40" stroke="none"/>
<rect x="461" y="379" fill="none" width="126" height="39" stroke-width="0.1"/>
<text xml:space="preserve" x="429" stroke-width="0.1" y="404" stroke="none">Invalid view - remove from diagram.</text>
<rect x="101" y="10" fill="rgb(255,203,203)" width="40" height="40" stroke="none" stroke-width="0.1"/>
<rect x="101" y="10" fill="none" width="39" height="39" stroke-width="0.1"/>
<text xml:space="preserve" x="25" stroke-width="0.1" y="35" stroke="none">Invalid view - remove from diagram.</text>
<rect x="837" y="556" fill="rgb(255,203,203)" width="40" height="40" stroke="none" stroke-width="0.1"/>
<rect x="837" y="556" fill="none" width="39" height="39" stroke-width="0.1"/>
<text xml:space="preserve" x="761" stroke-width="0.1" y="581" stroke="none">Invalid view - remove from diagram.</text>
<rect x="1275" y="380" fill="rgb(255,203,203)" width="40" height="40" stroke="none" stroke-width="0.1"/>
<rect x="1275" y="380" fill="none" width="39" height="39" stroke-width="0.1"/>
<text xml:space="preserve" x="1199" stroke-width="0.1" y="405" stroke="none">Invalid view - remove from diagram.</text>
<rect x="804" y="379" fill="rgb(255,203,203)" width="140" height="40" stroke="none" stroke-width="0.1"/>
<rect x="804" y="379" fill="none" width="139" height="39" stroke-width="0.1"/>
<text xml:space="preserve" x="778" stroke-width="0.1" y="404" stroke="none">Invalid view - remove from diagram.</text>
<rect x="102" y="189" fill="rgb(255,203,203)" width="40" height="40" stroke="none" stroke-width="0.1"/>
<rect x="102" y="189" fill="none" width="39" height="39" stroke-width="0.1"/>
<text xml:space="preserve" x="26" stroke-width="0.1" y="214" stroke="none">Invalid view - remove from diagram.</text>
<rect x="107" y="379" fill="rgb(255,203,203)" width="40" height="40" stroke="none" stroke-width="0.1"/>
<rect x="107" y="379" fill="none" width="39" height="39" stroke-width="0.1"/>
<text xml:space="preserve" x="31" stroke-width="0.1" y="404" stroke="none">Invalid view - remove from diagram.</text>
<rect x="1268" y="181" fill="rgb(255,203,203)" width="40" height="40" stroke="none" stroke-width="0.1"/>
<rect x="1268" y="181" fill="none" width="39" height="39" stroke-width="0.1"/>
<text xml:space="preserve" x="1192" stroke-width="0.1" y="206" stroke="none">Invalid view - remove from diagram.</text>
<rect x="475" y="11" fill="rgb(255,203,203)" width="40" height="40" stroke="none" stroke-width="0.1"/>
<rect x="475" y="11" fill="none" width="39" height="39" stroke-width="0.1"/>
<text xml:space="preserve" x="399" stroke-width="0.1" y="36" stroke="none">Invalid view - remove from diagram.</text>
</g>
<g fill="rgb(255,203,203)" stroke-width="0.1" font-family="'Segoe UI'" stroke-linecap="butt" stroke="rgb(255,203,203)">
<rect width="40" x="557" height="40" y="515" stroke="none"/>
<rect x="557" y="515" fill="none" width="39" height="39" stroke="black"/>
<text fill="black" xml:space="preserve" x="480" y="540" stroke="none">Invalid view - remove from diagram.</text>
<rect width="40" x="301" height="40" y="302" stroke="none"/>
<rect x="301" y="302" fill="none" width="39" height="39" stroke="black"/>
<text fill="black" xml:space="preserve" x="224" y="327" stroke="none">Invalid view - remove from diagram.</text>
<rect width="116" x="659" height="46" y="23" stroke="none"/>
<rect x="659" y="23" fill="none" width="115" height="45" stroke="black"/>
<text fill="black" xml:space="preserve" x="620" y="51" stroke="none">Invalid view - remove from diagram.</text>
<rect width="152" x="1009" height="40" y="258" stroke="none"/>
<rect x="1009" y="258" fill="none" width="151" height="39" stroke="black"/>
<text fill="black" xml:space="preserve" x="988" y="283" stroke="none">Invalid view - remove from diagram.</text>
<rect width="347" x="601" height="40" y="294" stroke="none"/>
<rect x="601" y="294" fill="none" width="346" height="39" stroke="black"/>
<text fill="black" xml:space="preserve" x="678" y="319" stroke="none">Invalid view - remove from diagram.</text>
<rect width="198" x="983" height="46" y="498" stroke="none"/>
<rect x="983" y="498" fill="none" width="197" height="45" stroke="black"/>
<text fill="black" xml:space="preserve" x="985" y="526" stroke="none">Invalid view - remove from diagram.</text>
<rect width="370" x="785" height="40" y="27" stroke="none"/>
<rect x="785" y="27" fill="none" width="369" height="39" stroke="black"/>
<text fill="black" xml:space="preserve" x="873" y="52" stroke="none">Invalid view - remove from diagram.</text>
<rect width="163" x="1288" height="40" y="559" stroke="none"/>
<rect x="1288" y="559" fill="none" width="162" height="39" stroke="black"/>
<text fill="black" xml:space="preserve" x="1273" y="584" stroke="none">Invalid view - remove from diagram.</text>
<line fill="none" x1="544" x2="544" y1="419" y2="581" stroke="red" stroke-width="1.1"/>
<line fill="none" x1="544" x2="521" y1="581" y2="581" stroke="red" stroke-width="1.1"/>
<line fill="none" x1="521" x2="521" y1="581" y2="559" stroke="red" stroke-width="1.1"/>
<line fill="none" x1="521" x2="837" y1="559" y2="559" stroke="red" stroke-width="1.1"/>
<rect x="130" y="95" clip-path="url(#clipPath1)" width="40" height="40" stroke="none" stroke-width="1.1"/>
<rect x="130" y="95" clip-path="url(#clipPath1)" fill="none" width="39" height="39" stroke="black"/>
<text x="53" y="120" clip-path="url(#clipPath1)" fill="black" stroke="none" xml:space="preserve">Invalid view - remove from diagram.</text>
<text x="480" y="564" clip-path="url(#clipPath2)" fill="red" stroke="none" xml:space="preserve">Invalid view - remove from diagram.</text>
<line clip-path="url(#clipPath3)" fill="none" x1="562" x2="562" y1="223" y2="301" stroke="red" stroke-width="1.1"/>
<line clip-path="url(#clipPath3)" fill="none" x1="562" x2="523" y1="301" y2="301" stroke="red" stroke-width="1.1"/>
<line clip-path="url(#clipPath3)" fill="none" x1="523" x2="523" y1="301" y2="379" stroke="red" stroke-width="1.1"/>
<rect x="130" y="95" clip-path="url(#clipPath1)" width="40" height="40" stroke="none" stroke-width="1.1"/>
<rect x="130" y="95" clip-path="url(#clipPath1)" fill="none" width="39" height="39" stroke="black"/>
<text x="53" y="120" clip-path="url(#clipPath1)" fill="black" stroke="none" xml:space="preserve">Invalid view - remove from diagram.</text>
<rect x="130" y="95" clip-path="url(#clipPath1)" width="40" height="40" stroke="none"/>
<rect x="130" y="95" clip-path="url(#clipPath1)" fill="none" width="39" height="39" stroke="black"/>
<text x="53" y="120" clip-path="url(#clipPath1)" fill="black" stroke="none" xml:space="preserve">Invalid view - remove from diagram.</text>
<rect x="130" y="95" clip-path="url(#clipPath1)" width="40" height="40" stroke="none"/>
<rect x="130" y="95" clip-path="url(#clipPath1)" fill="none" width="39" height="39" stroke="black"/>
<text x="53" y="120" clip-path="url(#clipPath1)" fill="black" stroke="none" xml:space="preserve">Invalid view - remove from diagram.</text>
<rect x="130" y="95" clip-path="url(#clipPath1)" width="40" height="40" stroke="none"/>
<rect x="130" y="95" clip-path="url(#clipPath1)" fill="none" width="39" height="39" stroke="black"/>
<text x="53" y="120" clip-path="url(#clipPath1)" fill="black" stroke="none" xml:space="preserve">Invalid view - remove from diagram.</text>
<rect x="130" y="95" clip-path="url(#clipPath1)" width="40" height="40" stroke="none"/>
<rect x="130" y="95" clip-path="url(#clipPath1)" fill="none" width="39" height="39" stroke="black"/>
<text x="53" y="120" clip-path="url(#clipPath1)" fill="black" stroke="none" xml:space="preserve">Invalid view - remove from diagram.</text>
<text x="446" y="306" clip-path="url(#clipPath4)" fill="red" stroke="none" xml:space="preserve">Invalid view - remove from diagram.</text>
<line clip-path="url(#clipPath3)" fill="none" x1="472" x2="142" y1="207" y2="207" stroke="red" stroke-width="1.1"/>
<rect x="130" y="95" clip-path="url(#clipPath1)" width="40" height="40" stroke="none" stroke-width="1.1"/>
<rect x="130" y="95" clip-path="url(#clipPath1)" fill="none" width="39" height="39" stroke="black"/>
<text x="53" y="120" clip-path="url(#clipPath1)" fill="black" stroke="none" xml:space="preserve">Invalid view - remove from diagram.</text>
<rect x="130" y="95" clip-path="url(#clipPath1)" width="40" height="40" stroke="none"/>
<rect x="130" y="95" clip-path="url(#clipPath1)" fill="none" width="39" height="39" stroke="black"/>
<text x="53" y="120" clip-path="url(#clipPath1)" fill="black" stroke="none" xml:space="preserve">Invalid view - remove from diagram.</text>
<rect x="130" y="95" clip-path="url(#clipPath1)" width="40" height="40" stroke="none"/>
<rect x="130" y="95" clip-path="url(#clipPath1)" fill="none" width="39" height="39" stroke="black"/>
<text x="53" y="120" clip-path="url(#clipPath1)" fill="black" stroke="none" xml:space="preserve">Invalid view - remove from diagram.</text>
<rect x="130" y="95" clip-path="url(#clipPath1)" width="40" height="40" stroke="none"/>
<rect x="130" y="95" clip-path="url(#clipPath1)" fill="none" width="39" height="39" stroke="black"/>
<text x="53" y="120" clip-path="url(#clipPath1)" fill="black" stroke="none" xml:space="preserve">Invalid view - remove from diagram.</text>
<rect x="130" y="95" clip-path="url(#clipPath1)" width="40" height="40" stroke="none"/>
<rect x="130" y="95" clip-path="url(#clipPath1)" fill="none" width="39" height="39" stroke="black"/>
<text x="53" y="120" clip-path="url(#clipPath1)" fill="black" stroke="none" xml:space="preserve">Invalid view - remove from diagram.</text>
<text x="211" y="212" clip-path="url(#clipPath5)" fill="red" stroke="none" xml:space="preserve">Invalid view - remove from diagram.</text>
<line clip-path="url(#clipPath3)" fill="none" x1="588" x2="804" y1="399" y2="399" stroke="red" stroke-width="1.1"/>
<rect x="130" y="95" clip-path="url(#clipPath1)" width="40" height="40" stroke="none" stroke-width="1.1"/>
<rect x="130" y="95" clip-path="url(#clipPath1)" fill="none" width="39" height="39" stroke="black"/>
<text x="53" y="120" clip-path="url(#clipPath1)" fill="black" stroke="none" xml:space="preserve">Invalid view - remove from diagram.</text>
<rect x="130" y="95" clip-path="url(#clipPath1)" width="40" height="40" stroke="none"/>
<rect x="130" y="95" clip-path="url(#clipPath1)" fill="none" width="39" height="39" stroke="black"/>
<text x="53" y="120" clip-path="url(#clipPath1)" fill="black" stroke="none" xml:space="preserve">Invalid view - remove from diagram.</text>
<rect x="130" y="95" clip-path="url(#clipPath1)" width="40" height="40" stroke="none"/>
<rect x="130" y="95" clip-path="url(#clipPath1)" fill="none" width="39" height="39" stroke="black"/>
<text x="53" y="120" clip-path="url(#clipPath1)" fill="black" stroke="none" xml:space="preserve">Invalid view - remove from diagram.</text>
<rect x="130" y="95" clip-path="url(#clipPath1)" width="40" height="40" stroke="none"/>
<rect x="130" y="95" clip-path="url(#clipPath1)" fill="none" width="39" height="39" stroke="black"/>
<text x="53" y="120" clip-path="url(#clipPath1)" fill="black" stroke="none" xml:space="preserve">Invalid view - remove from diagram.</text>
<rect x="130" y="95" clip-path="url(#clipPath1)" width="40" height="40" stroke="none"/>
<rect x="130" y="95" clip-path="url(#clipPath1)" fill="none" width="39" height="39" stroke="black"/>
<text x="53" y="120" clip-path="url(#clipPath1)" fill="black" stroke="none" xml:space="preserve">Invalid view - remove from diagram.</text>
<text x="600" y="404" clip-path="url(#clipPath6)" fill="red" stroke="none" xml:space="preserve">Invalid view - remove from diagram.</text>
<line clip-path="url(#clipPath3)" fill="none" x1="1301" x2="1301" y1="420" y2="489" stroke="red" stroke-width="1.1"/>
<line clip-path="url(#clipPath3)" fill="none" x1="1301" x2="1331" y1="489" y2="489" stroke="red" stroke-width="1.1"/>
<line clip-path="url(#clipPath3)" fill="none" x1="1331" x2="1331" y1="489" y2="559" stroke="red" stroke-width="1.1"/>
<rect x="130" y="95" clip-path="url(#clipPath1)" width="40" height="40" stroke="none" stroke-width="1.1"/>
<rect x="130" y="95" clip-path="url(#clipPath1)" fill="none" width="39" height="39" stroke="black"/>
<text x="53" y="120" clip-path="url(#clipPath1)" fill="black" stroke="none" xml:space="preserve">Invalid view - remove from diagram.</text>
<rect x="130" y="95" clip-path="url(#clipPath1)" width="40" height="40" stroke="none"/>
<rect x="130" y="95" clip-path="url(#clipPath1)" fill="none" width="39" height="39" stroke="black"/>
<text x="53" y="120" clip-path="url(#clipPath1)" fill="black" stroke="none" xml:space="preserve">Invalid view - remove from diagram.</text>
<rect x="130" y="95" clip-path="url(#clipPath1)" width="40" height="40" stroke="none"/>
<rect x="130" y="95" clip-path="url(#clipPath1)" fill="none" width="39" height="39" stroke="black"/>
<text x="53" y="120" clip-path="url(#clipPath1)" fill="black" stroke="none" xml:space="preserve">Invalid view - remove from diagram.</text>
<rect x="130" y="95" clip-path="url(#clipPath1)" width="40" height="40" stroke="none"/>
<rect x="130" y="95" clip-path="url(#clipPath1)" fill="none" width="39" height="39" stroke="black"/>
<text x="53" y="120" clip-path="url(#clipPath1)" fill="black" stroke="none" xml:space="preserve">Invalid view - remove from diagram.</text>
<rect x="130" y="95" clip-path="url(#clipPath1)" width="40" height="40" stroke="none"/>
<rect x="130" y="95" clip-path="url(#clipPath1)" fill="none" width="39" height="39" stroke="black"/>
<text x="53" y="120" clip-path="url(#clipPath1)" fill="black" stroke="none" xml:space="preserve">Invalid view - remove from diagram.</text>
<text x="1221" y="494" clip-path="url(#clipPath7)" fill="red" stroke="none" xml:space="preserve">Invalid view - remove from diagram.</text>
<line clip-path="url(#clipPath3)" fill="none" x1="944" x2="1275" y1="399" y2="399" stroke="red" stroke-width="1.1"/>
<rect x="130" y="95" clip-path="url(#clipPath1)" width="40" height="40" stroke="none" stroke-width="1.1"/>
<rect x="130" y="95" clip-path="url(#clipPath1)" fill="none" width="39" height="39" stroke="black"/>
<text x="53" y="120" clip-path="url(#clipPath1)" fill="black" stroke="none" xml:space="preserve">Invalid view - remove from diagram.</text>
<rect x="130" y="95" clip-path="url(#clipPath1)" width="40" height="40" stroke="none"/>
<rect x="130" y="95" clip-path="url(#clipPath1)" fill="none" width="39" height="39" stroke="black"/>
<text x="53" y="120" clip-path="url(#clipPath1)" fill="black" stroke="none" xml:space="preserve">Invalid view - remove from diagram.</text>
<rect x="130" y="95" clip-path="url(#clipPath1)" width="40" height="40" stroke="none"/>
<rect x="130" y="95" clip-path="url(#clipPath1)" fill="none" width="39" height="39" stroke="black"/>
<text x="53" y="120" clip-path="url(#clipPath1)" fill="black" stroke="none" xml:space="preserve">Invalid view - remove from diagram.</text>
<rect x="130" y="95" clip-path="url(#clipPath1)" width="40" height="40" stroke="none"/>
<rect x="130" y="95" clip-path="url(#clipPath1)" fill="none" width="39" height="39" stroke="black"/>
<text x="53" y="120" clip-path="url(#clipPath1)" fill="black" stroke="none" xml:space="preserve">Invalid view - remove from diagram.</text>
<rect x="130" y="95" clip-path="url(#clipPath1)" width="40" height="40" stroke="none"/>
<rect x="130" y="95" clip-path="url(#clipPath1)" fill="none" width="39" height="39" stroke="black"/>
<text x="53" y="120" clip-path="url(#clipPath1)" fill="black" stroke="none" xml:space="preserve">Invalid view - remove from diagram.</text>
<text x="1014" y="404" clip-path="url(#clipPath8)" fill="red" stroke="none" xml:space="preserve">Invalid view - remove from diagram.</text>
<line clip-path="url(#clipPath3)" fill="none" x1="877" x2="1288" y1="581" y2="581" stroke="red" stroke-width="1.1"/>
<rect x="130" y="95" clip-path="url(#clipPath1)" width="40" height="40" stroke="none" stroke-width="1.1"/>
<rect x="130" y="95" clip-path="url(#clipPath1)" fill="none" width="39" height="39" stroke="black"/>
<text x="53" y="120" clip-path="url(#clipPath1)" fill="black" stroke="none" xml:space="preserve">Invalid view - remove from diagram.</text>
<rect x="130" y="95" clip-path="url(#clipPath1)" width="40" height="40" stroke="none"/>
<rect x="130" y="95" clip-path="url(#clipPath1)" fill="none" width="39" height="39" stroke="black"/>
<text x="53" y="120" clip-path="url(#clipPath1)" fill="black" stroke="none" xml:space="preserve">Invalid view - remove from diagram.</text>
<rect x="130" y="95" clip-path="url(#clipPath1)" width="40" height="40" stroke="none"/>
<rect x="130" y="95" clip-path="url(#clipPath1)" fill="none" width="39" height="39" stroke="black"/>
<text x="53" y="120" clip-path="url(#clipPath1)" fill="black" stroke="none" xml:space="preserve">Invalid view - remove from diagram.</text>
<rect x="130" y="95" clip-path="url(#clipPath1)" width="40" height="40" stroke="none"/>
<rect x="130" y="95" clip-path="url(#clipPath1)" fill="none" width="39" height="39" stroke="black"/>
<text x="53" y="120" clip-path="url(#clipPath1)" fill="black" stroke="none" xml:space="preserve">Invalid view - remove from diagram.</text>
<rect x="130" y="95" clip-path="url(#clipPath1)" width="40" height="40" stroke="none"/>
<rect x="130" y="95" clip-path="url(#clipPath1)" fill="none" width="39" height="39" stroke="black"/>
<text x="53" y="120" clip-path="url(#clipPath1)" fill="black" stroke="none" xml:space="preserve">Invalid view - remove from diagram.</text>
<rect x="130" y="95" clip-path="url(#clipPath1)" width="40" height="40" stroke="none"/>
<rect x="130" y="95" clip-path="url(#clipPath1)" fill="none" width="39" height="39" stroke="black"/>
<text x="53" y="120" clip-path="url(#clipPath1)" fill="black" stroke="none" xml:space="preserve">Invalid view - remove from diagram.</text>
<text x="987" y="586" clip-path="url(#clipPath9)" fill="red" stroke="none" xml:space="preserve">Invalid view - remove from diagram.</text>
<line clip-path="url(#clipPath3)" fill="none" x1="907" x2="907" y1="419" y2="487" stroke="red" stroke-width="1.1"/>
<line clip-path="url(#clipPath3)" fill="none" x1="907" x2="864" y1="487" y2="487" stroke="red" stroke-width="1.1"/>
<line clip-path="url(#clipPath3)" fill="none" x1="864" x2="864" y1="487" y2="556" stroke="red" stroke-width="1.1"/>
<rect x="130" y="95" clip-path="url(#clipPath1)" width="40" height="40" stroke="none" stroke-width="1.1"/>
<rect x="130" y="95" clip-path="url(#clipPath1)" fill="none" width="39" height="39" stroke="black"/>
<text x="53" y="120" clip-path="url(#clipPath1)" fill="black" stroke="none" xml:space="preserve">Invalid view - remove from diagram.</text>
<text x="789" y="492" clip-path="url(#clipPath10)" fill="red" stroke="none" xml:space="preserve">Invalid view - remove from diagram.</text>
<line clip-path="url(#clipPath3)" fill="none" x1="461" x2="147" y1="397" y2="397" stroke="red" stroke-width="1.1"/>
<rect x="130" y="95" clip-path="url(#clipPath1)" width="40" height="40" stroke="none" stroke-width="1.1"/>
<rect x="130" y="95" clip-path="url(#clipPath1)" fill="none" width="39" height="39" stroke="black"/>
<text x="53" y="120" clip-path="url(#clipPath1)" fill="black" stroke="none" xml:space="preserve">Invalid view - remove from diagram.</text>
<text x="208" y="402" clip-path="url(#clipPath11)" fill="red" stroke="none" xml:space="preserve">Invalid view - remove from diagram.</text>
<line clip-path="url(#clipPath3)" fill="none" x1="124" x2="124" y1="229" y2="379" stroke="red" stroke-width="1.1"/>
<rect x="130" y="95" clip-path="url(#clipPath1)" width="40" height="40" stroke="none" stroke-width="1.1"/>
<rect x="130" y="95" clip-path="url(#clipPath1)" fill="none" width="39" height="39" stroke="black"/>
<text x="53" y="120" clip-path="url(#clipPath1)" fill="black" stroke="none" xml:space="preserve">Invalid view - remove from diagram.</text>
<text x="28" y="309" clip-path="url(#clipPath12)" fill="red" stroke="none" xml:space="preserve">Invalid view - remove from diagram.</text>
<line clip-path="url(#clipPath3)" fill="none" x1="1286" x2="1286" y1="380" y2="221" stroke="red" stroke-width="1.1"/>
<rect x="130" y="95" clip-path="url(#clipPath1)" width="40" height="40" stroke="none" stroke-width="1.1"/>
<rect x="130" y="95" clip-path="url(#clipPath1)" fill="none" width="39" height="39" stroke="black"/>
<text x="53" y="120" clip-path="url(#clipPath1)" fill="black" stroke="none" xml:space="preserve">Invalid view - remove from diagram.</text>
<rect x="130" y="95" clip-path="url(#clipPath1)" width="40" height="40" stroke="none"/>
<rect x="130" y="95" clip-path="url(#clipPath1)" fill="none" width="39" height="39" stroke="black"/>
<text x="53" y="120" clip-path="url(#clipPath1)" fill="black" stroke="none" xml:space="preserve">Invalid view - remove from diagram.</text>
<rect x="130" y="95" clip-path="url(#clipPath1)" width="40" height="40" stroke="none"/>
<rect x="130" y="95" clip-path="url(#clipPath1)" fill="none" width="39" height="39" stroke="black"/>
<text x="53" y="120" clip-path="url(#clipPath1)" fill="black" stroke="none" xml:space="preserve">Invalid view - remove from diagram.</text>
<rect x="130" y="95" clip-path="url(#clipPath1)" width="40" height="40" stroke="none"/>
<rect x="130" y="95" clip-path="url(#clipPath1)" fill="none" width="39" height="39" stroke="black"/>
<text x="53" y="120" clip-path="url(#clipPath1)" fill="black" stroke="none" xml:space="preserve">Invalid view - remove from diagram.</text>
<rect x="130" y="95" clip-path="url(#clipPath1)" width="40" height="40" stroke="none"/>
<rect x="130" y="95" clip-path="url(#clipPath1)" fill="none" width="39" height="39" stroke="black"/>
<text x="53" y="120" clip-path="url(#clipPath1)" fill="black" stroke="none" xml:space="preserve">Invalid view - remove from diagram.</text>
<text x="1190" y="305" clip-path="url(#clipPath13)" fill="red" stroke="none" xml:space="preserve">Invalid view - remove from diagram.</text>
<line clip-path="url(#clipPath3)" fill="none" x1="1268" x2="654" y1="199" y2="199" stroke="red" stroke-width="1.1"/>
<rect x="130" y="95" clip-path="url(#clipPath1)" width="40" height="40" stroke="none" stroke-width="1.1"/>
<rect x="130" y="95" clip-path="url(#clipPath1)" fill="none" width="39" height="39" stroke="black"/>
<text x="53" y="120" clip-path="url(#clipPath1)" fill="black" stroke="none" xml:space="preserve">Invalid view - remove from diagram.</text>
<rect x="130" y="95" clip-path="url(#clipPath1)" width="40" height="40" stroke="none"/>
<rect x="130" y="95" clip-path="url(#clipPath1)" fill="none" width="39" height="39" stroke="black"/>
<text x="53" y="120" clip-path="url(#clipPath1)" fill="black" stroke="none" xml:space="preserve">Invalid view - remove from diagram.</text>
<rect x="130" y="95" clip-path="url(#clipPath1)" width="40" height="40" stroke="none"/>
<rect x="130" y="95" clip-path="url(#clipPath1)" fill="none" width="39" height="39" stroke="black"/>
<text x="53" y="120" clip-path="url(#clipPath1)" fill="black" stroke="none" xml:space="preserve">Invalid view - remove from diagram.</text>
<rect x="130" y="95" clip-path="url(#clipPath1)" width="40" height="40" stroke="none"/>
<rect x="130" y="95" clip-path="url(#clipPath1)" fill="none" width="39" height="39" stroke="black"/>
<text x="53" y="120" clip-path="url(#clipPath1)" fill="black" stroke="none" xml:space="preserve">Invalid view - remove from diagram.</text>
<rect x="130" y="95" clip-path="url(#clipPath1)" width="40" height="40" stroke="none"/>
<rect x="130" y="95" clip-path="url(#clipPath1)" fill="none" width="39" height="39" stroke="black"/>
<text x="53" y="120" clip-path="url(#clipPath1)" fill="black" stroke="none" xml:space="preserve">Invalid view - remove from diagram.</text>
<text x="865" y="204" clip-path="url(#clipPath14)" fill="red" stroke="none" xml:space="preserve">Invalid view - remove from diagram.</text>
<line clip-path="url(#clipPath3)" fill="none" x1="570" x2="495" y1="183" y2="51" stroke="red" stroke-width="1.1"/>
<rect x="130" y="95" clip-path="url(#clipPath1)" width="40" height="40" stroke="none" stroke-width="1.1"/>
<rect x="130" y="95" clip-path="url(#clipPath1)" fill="none" width="39" height="39" stroke="black"/>
<text x="53" y="120" clip-path="url(#clipPath1)" fill="black" stroke="none" xml:space="preserve">Invalid view - remove from diagram.</text>
<rect x="130" y="95" clip-path="url(#clipPath1)" width="40" height="40" stroke="none"/>
<rect x="130" y="95" clip-path="url(#clipPath1)" fill="none" width="39" height="39" stroke="black"/>
<text x="53" y="120" clip-path="url(#clipPath1)" fill="black" stroke="none" xml:space="preserve">Invalid view - remove from diagram.</text>
<rect x="130" y="95" clip-path="url(#clipPath1)" width="40" height="40" stroke="none"/>
<rect x="130" y="95" clip-path="url(#clipPath1)" fill="none" width="39" height="39" stroke="black"/>
<text x="53" y="120" clip-path="url(#clipPath1)" fill="black" stroke="none" xml:space="preserve">Invalid view - remove from diagram.</text>
<rect x="130" y="95" clip-path="url(#clipPath1)" width="40" height="40" stroke="none"/>
<rect x="130" y="95" clip-path="url(#clipPath1)" fill="none" width="39" height="39" stroke="black"/>
<text x="53" y="120" clip-path="url(#clipPath1)" fill="black" stroke="none" xml:space="preserve">Invalid view - remove from diagram.</text>
<rect x="130" y="95" clip-path="url(#clipPath1)" width="40" height="40" stroke="none"/>
<rect x="130" y="95" clip-path="url(#clipPath1)" fill="none" width="39" height="39" stroke="black"/>
<text x="53" y="120" clip-path="url(#clipPath1)" fill="black" stroke="none" xml:space="preserve">Invalid view - remove from diagram.</text>
<text x="436" y="122" clip-path="url(#clipPath15)" fill="red" stroke="none" xml:space="preserve">Invalid view - remove from diagram.</text>
<line clip-path="url(#clipPath3)" fill="none" x1="141" x2="475" y1="34" y2="34" stroke="red" stroke-width="1.1"/>
<rect x="130" y="95" clip-path="url(#clipPath1)" width="40" height="40" stroke="none" stroke-width="1.1"/>
<rect x="130" y="95" clip-path="url(#clipPath1)" fill="none" width="39" height="39" stroke="black"/>
<text x="53" y="120" clip-path="url(#clipPath1)" fill="black" stroke="none" xml:space="preserve">Invalid view - remove from diagram.</text>
<rect x="130" y="95" clip-path="url(#clipPath1)" width="40" height="40" stroke="none"/>
<rect x="130" y="95" clip-path="url(#clipPath1)" fill="none" width="39" height="39" stroke="black"/>
<text x="53" y="120" clip-path="url(#clipPath1)" fill="black" stroke="none" xml:space="preserve">Invalid view - remove from diagram.</text>
<rect x="130" y="95" clip-path="url(#clipPath1)" width="40" height="40" stroke="none"/>
<rect x="130" y="95" clip-path="url(#clipPath1)" fill="none" width="39" height="39" stroke="black"/>
<text x="53" y="120" clip-path="url(#clipPath1)" fill="black" stroke="none" xml:space="preserve">Invalid view - remove from diagram.</text>
<rect x="130" y="95" clip-path="url(#clipPath1)" width="40" height="40" stroke="none"/>
<rect x="130" y="95" clip-path="url(#clipPath1)" fill="none" width="39" height="39" stroke="black"/>
<text x="53" y="120" clip-path="url(#clipPath1)" fill="black" stroke="none" xml:space="preserve">Invalid view - remove from diagram.</text>
<rect x="130" y="95" clip-path="url(#clipPath1)" width="40" height="40" stroke="none"/>
<rect x="130" y="95" clip-path="url(#clipPath1)" fill="none" width="39" height="39" stroke="black"/>
<text x="53" y="120" clip-path="url(#clipPath1)" fill="black" stroke="none" xml:space="preserve">Invalid view - remove from diagram.</text>
<text x="212" y="39" clip-path="url(#clipPath16)" fill="red" stroke="none" xml:space="preserve">Invalid view - remove from diagram.</text>
<line clip-path="url(#clipPath3)" fill="none" x1="119" x2="119" y1="189" y2="50" stroke="red" stroke-width="1.1"/>
<rect x="130" y="95" clip-path="url(#clipPath1)" width="40" height="40" stroke="none" stroke-width="1.1"/>
<rect x="130" y="95" clip-path="url(#clipPath1)" fill="none" width="39" height="39" stroke="black"/>
<text x="53" y="120" clip-path="url(#clipPath1)" fill="black" stroke="none" xml:space="preserve">Invalid view - remove from diagram.</text>
<rect x="130" y="95" clip-path="url(#clipPath1)" width="40" height="40" stroke="none"/>
<rect x="130" y="95" clip-path="url(#clipPath1)" fill="none" width="39" height="39" stroke="black"/>
<text x="53" y="120" clip-path="url(#clipPath1)" fill="black" stroke="none" xml:space="preserve">Invalid view - remove from diagram.</text>
<rect x="130" y="95" clip-path="url(#clipPath1)" width="40" height="40" stroke="none"/>
<rect x="130" y="95" clip-path="url(#clipPath1)" fill="none" width="39" height="39" stroke="black"/>
<text x="53" y="120" clip-path="url(#clipPath1)" fill="black" stroke="none" xml:space="preserve">Invalid view - remove from diagram.</text>
<rect x="130" y="95" clip-path="url(#clipPath1)" width="40" height="40" stroke="none"/>
<rect x="130" y="95" clip-path="url(#clipPath1)" fill="none" width="39" height="39" stroke="black"/>
<text x="53" y="120" clip-path="url(#clipPath1)" fill="black" stroke="none" xml:space="preserve">Invalid view - remove from diagram.</text>
<rect x="130" y="95" clip-path="url(#clipPath1)" width="40" height="40" stroke="none"/>
<rect x="130" y="95" clip-path="url(#clipPath1)" fill="none" width="39" height="39" stroke="black"/>
<text x="53" y="120" clip-path="url(#clipPath1)" fill="black" stroke="none" xml:space="preserve">Invalid view - remove from diagram.</text>
<text x="23" y="124" clip-path="url(#clipPath17)" fill="red" stroke="none" xml:space="preserve">Invalid view - remove from diagram.</text>
<line clip-path="url(#clipPath3)" fill="none" x1="341" x2="461" y1="338" y2="386" stroke="red" stroke-width="1.1"/>
<text x="305" y="367" clip-path="url(#clipPath18)" fill="red" stroke="none" stroke-width="1.1" xml:space="preserve">Invalid view - remove from diagram.</text>
<line clip-path="url(#clipPath3)" fill="none" x1="307" x2="140" y1="302" y2="229" stroke="red" stroke-width="1.1"/>
<text x="128" y="271" clip-path="url(#clipPath19)" fill="red" stroke="none" stroke-width="1.1" xml:space="preserve">Invalid view - remove from diagram.</text>
<line clip-path="url(#clipPath3)" fill="none" x1="732" x2="654" y1="69" y2="187" stroke="red" stroke-width="1.1"/>
<text x="597" y="133" clip-path="url(#clipPath20)" fill="red" stroke="none" stroke-width="1.1" xml:space="preserve">Invalid view - remove from diagram.</text>
<line clip-path="url(#clipPath3)" fill="none" x1="1161" x2="1183" y1="267" y2="199" stroke="red" stroke-width="1.1"/>
<text x="1076" y="238" clip-path="url(#clipPath21)" fill="red" stroke="none" stroke-width="1.1" xml:space="preserve">Invalid view - remove from diagram.</text>
<line clip-path="url(#clipPath3)" fill="none" x1="802" x2="826" y1="334" y2="379" stroke="red" stroke-width="1.1"/>
<text x="718" y="362" clip-path="url(#clipPath22)" fill="red" stroke="none" stroke-width="1.1" xml:space="preserve">Invalid view - remove from diagram.</text>
<line clip-path="url(#clipPath3)" fill="none" x1="703" x2="588" y1="334" y2="388" stroke="red" stroke-width="1.1"/>
<text x="549" y="366" clip-path="url(#clipPath23)" fill="red" stroke="none" stroke-width="1.1" xml:space="preserve">Invalid view - remove from diagram.</text>
<line clip-path="url(#clipPath3)" fill="none" x1="1084" x2="1288" y1="544" y2="566" stroke="red" stroke-width="1.1"/>
<text x="1090" y="560" clip-path="url(#clipPath24)" fill="red" stroke="none" stroke-width="1.1" xml:space="preserve">Invalid view - remove from diagram.</text>
<line clip-path="url(#clipPath3)" fill="none" x1="1151" x2="1275" y1="498" y2="411" stroke="red" stroke-width="1.1"/>
<text x="1117" y="459" clip-path="url(#clipPath25)" fill="red" stroke="none" stroke-width="1.1" xml:space="preserve">Invalid view - remove from diagram.</text>
<line clip-path="url(#clipPath3)" fill="none" x1="785" x2="654" y1="54" y2="190" stroke="red" stroke-width="1.1"/>
<text x="623" y="127" clip-path="url(#clipPath26)" fill="red" stroke="none" stroke-width="1.1" xml:space="preserve">Invalid view - remove from diagram.</text>
</g>
</g>
<rect x="472" y="183" fill-opacity="0" width="182" title="An individual physical connection point (male or female) that is not relevantly divisible.&#13;&#10;May be capable of carrying electrical or optical signals. &#13;&#10;A pin normally has only one wire/fiber strand attached. &#13;&#10;It may have more than one wire/fiber attached but is such that the attachment forms a physical merge (all attached things receive exactly the same signal and any inputs to the pin are electrically/optically merged)." id="Pin" height="40" stroke-opacity="0">
<title>An individual physical connection point (male or female) that is not relevantly divisible.&#13;
May be capable of carrying electrical or optical signals. &#13;
A pin normally has only one wire/fiber strand attached. &#13;
It may have more than one wire/fiber attached but is such that the attachment forms a physical merge (all attached things receive exactly the same signal and any inputs to the pin are electrically/optically merged).</title>
</rect>
<rect x="461" y="379" fill-opacity="0" width="127" title="A group of pins that together provide signal group where any one pin removed from the group will prevent the signals of the signal group from flowing successfully." id="PinGroup" height="40" stroke-opacity="0">
<title>A group of pins that together provide signal group where any one pin removed from the group will prevent the signals of the signal group from flowing successfully.</title>
</rect>
<rect x="101" y="10" fill-opacity="0" width="40" title="The structuring of pins in a connector." id="PinLayout" height="40" stroke-opacity="0">
<title>The structuring of pins in a connector.</title>
</rect>
<rect x="837" y="556" fill-opacity="0" width="40" title="A conceptual access for a group of signals (where that group of signals cannot be separated)." id="AccessPort" height="40" stroke-opacity="0">
<title>A conceptual access for a group of signals (where that group of signals cannot be separated).</title>
</rect>
<rect x="1275" y="380" fill-opacity="0" width="40" title="A single coherent signal as processed by a single LTP." id="SignalRefPt" height="40" stroke-opacity="0">
<title>A single coherent signal as processed by a single LTP.</title>
</rect>
<rect x="804" y="379" fill-opacity="0" width="140" title="A physical indivisible group of signals." id="SignalRefPtGroup" height="40" stroke-opacity="0">
<title>A physical indivisible group of signals.</title>
</rect>
<rect x="102" y="189" fill-opacity="0" width="40" title="Represents a connector that may be fully exposed (e.g. to plug in a cable or on the end of a cable) or partially exposed (e.g. backplane to plug in another piece of equipment such as a module).&#13;&#10;A physical port on the Equipment. A place where signals produced by the functionality of the Equipment may be accessed." id="Connector" height="40" stroke-opacity="0">
<title>Represents a connector that may be fully exposed (e.g. to plug in a cable or on the end of a cable) or partially exposed (e.g. backplane to plug in another piece of equipment such as a module).&#13;
A physical port on the Equipment. A place where signals produced by the functionality of the Equipment may be accessed.</title>
</rect>
<rect x="107" y="379" fill-opacity="0" width="40" title="A group of pins from one or more connectors relevant for some purpose." id="GroupOfPins" height="40" stroke-opacity="0">
<title>A group of pins from one or more connectors relevant for some purpose.</title>
</rect>
<rect x="1268" y="181" fill-opacity="0" width="40" title="The elemental (sub-atomic) parts of an &quot;indivisible&quot; signal where processing in the LTP is required to extract the elemental signals." id="ElementalSignals" height="40" stroke-opacity="0">
<title>The elemental (sub-atomic) parts of an "indivisible" signal where processing in the LTP is required to extract the elemental signals.</title>
</rect>
<rect x="475" y="11" fill-opacity="0" width="40" title="Represents the invariant relative position of the holder (with respect to some frame of reference in an equipment) or connector on an equipment or pin in a connector." id="Position" height="40" stroke-opacity="0">
<title>Represents the invariant relative position of the holder (with respect to some frame of reference in an equipment) or connector on an equipment or pin in a connector.</title>
</rect>
<rect x="557" y="515" fill-opacity="0" width="40" height="40" stroke-opacity="0"/>
<rect x="301" y="302" fill-opacity="0" width="40" height="40" stroke-opacity="0"/>
<rect x="659" y="23" fill-opacity="0" width="116" height="46" stroke-opacity="0"/>
<rect x="1009" y="258" fill-opacity="0" width="152" height="40" stroke-opacity="0"/>
<rect x="601" y="294" fill-opacity="0" width="347" height="40" stroke-opacity="0"/>
<rect x="983" y="498" fill-opacity="0" width="198" height="46" stroke-opacity="0"/>
<rect x="785" y="27" fill-opacity="0" width="370" height="40" stroke-opacity="0"/>
<rect x="1288" y="559" fill-opacity="0" width="163" title="The LogicalTerminationPoint (LTP) class encapsulates the termination and adaptation functions of one or more transport layers represented by instances of LayerProtocol.&#13;&#10;The encapsulated transport layers have a simple fixed 1:1 client-server relationship defined by association end ordering.&#13;&#10;The structure of LTP supports all transport protocols including circuit and packet forms." id="LogicalTerminationPoint" height="40" stroke-opacity="0">
<title>The LogicalTerminationPoint (LTP) class encapsulates the termination and adaptation functions of one or more transport layers represented by instances of LayerProtocol.&#13;
The encapsulated transport layers have a simple fixed 1:1 client-server relationship defined by association end ordering.&#13;
The structure of LTP supports all transport protocols including circuit and packet forms.</title>
</rect>
</svg>
