<?xml version="1.0" encoding="UTF-8"?><svg xmlns="http://www.w3.org/2000/svg" xmlns:xlink="http://www.w3.org/1999/xlink" stroke-dasharray="none" shape-rendering="auto" font-family="'Dialog'" width="1613" text-rendering="auto" fill-opacity="1" contentScriptType="text/ecmascript" color-interpolation="auto" color-rendering="auto" preserveAspectRatio="xMidYMid meet" font-size="12" viewBox="0 0 1613 818" fill="black" stroke="black" image-rendering="auto" stroke-miterlimit="10" zoomAndPan="magnify" version="1.0" stroke-linecap="square" stroke-linejoin="miter" contentStyleType="text/css" font-style="normal" height="818" stroke-width="1" stroke-dashoffset="0" font-weight="normal" stroke-opacity="1">
<!--Generated by the Batik Graphics2D SVG Generator-->
<defs id="genericDefs"/>
<g>
<defs id="defs1">
<clipPath clipPathUnits="userSpaceOnUse" id="clipPath1">
<path d="M347 211 L389 211 L389 253 L347 253 L347 211 Z"/>
</clipPath>
<clipPath clipPathUnits="userSpaceOnUse" id="clipPath2">
<path d="M210 422 L404 422 L404 440 L210 440 L210 422 Z"/>
</clipPath>
<clipPath clipPathUnits="userSpaceOnUse" id="clipPath3">
<path d="M-1 -1 L1614 -1 L1614 819 L-1 819 L-1 -1 Z"/>
</clipPath>
<clipPath clipPathUnits="userSpaceOnUse" id="clipPath4">
<path d="M1091 233 L1285 233 L1285 251 L1091 251 L1091 233 Z"/>
</clipPath>
<clipPath clipPathUnits="userSpaceOnUse" id="clipPath5">
<path d="M489 538 L683 538 L683 556 L489 556 L489 538 Z"/>
</clipPath>
<clipPath clipPathUnits="userSpaceOnUse" id="clipPath6">
<path d="M1169 643 L1363 643 L1363 661 L1169 661 L1169 643 Z"/>
</clipPath>
<clipPath clipPathUnits="userSpaceOnUse" id="clipPath7">
<path d="M709 645 L903 645 L903 663 L709 663 L709 645 Z"/>
</clipPath>
<clipPath clipPathUnits="userSpaceOnUse" id="clipPath8">
<path d="M832 434 L1026 434 L1026 452 L832 452 L832 434 Z"/>
</clipPath>
<clipPath clipPathUnits="userSpaceOnUse" id="clipPath9">
<path d="M835 421 L1029 421 L1029 439 L835 439 L835 421 Z"/>
</clipPath>
<clipPath clipPathUnits="userSpaceOnUse" id="clipPath10">
<path d="M1274 281 L1468 281 L1468 299 L1274 299 L1274 281 Z"/>
</clipPath>
<clipPath clipPathUnits="userSpaceOnUse" id="clipPath11">
<path d="M543 247 L737 247 L737 265 L543 265 L543 247 Z"/>
</clipPath>
<clipPath clipPathUnits="userSpaceOnUse" id="clipPath12">
<path d="M1064 258 L1258 258 L1258 276 L1064 276 L1064 258 Z"/>
</clipPath>
<clipPath clipPathUnits="userSpaceOnUse" id="clipPath13">
<path d="M1254 330 L1448 330 L1448 348 L1254 348 L1254 330 Z"/>
</clipPath>
<clipPath clipPathUnits="userSpaceOnUse" id="clipPath14">
<path d="M438 216 L632 216 L632 234 L438 234 L438 216 Z"/>
</clipPath>
<clipPath clipPathUnits="userSpaceOnUse" id="clipPath15">
<path d="M852 711 L1046 711 L1046 729 L852 729 L852 711 Z"/>
</clipPath>
<clipPath clipPathUnits="userSpaceOnUse" id="clipPath16">
<path d="M788 134 L982 134 L982 152 L788 152 L788 134 Z"/>
</clipPath>
<clipPath clipPathUnits="userSpaceOnUse" id="clipPath17">
<path d="M1041 22 L1235 22 L1235 40 L1041 40 L1041 22 Z"/>
</clipPath>
<clipPath clipPathUnits="userSpaceOnUse" id="clipPath18">
<path d="M431 184 L625 184 L625 202 L431 202 L431 184 Z"/>
</clipPath>
<clipPath clipPathUnits="userSpaceOnUse" id="clipPath19">
<path d="M259 381 L453 381 L453 399 L259 399 L259 381 Z"/>
</clipPath>
<clipPath clipPathUnits="userSpaceOnUse" id="clipPath20">
<path d="M872 419 L1066 419 L1066 437 L872 437 L872 419 Z"/>
</clipPath>
<clipPath clipPathUnits="userSpaceOnUse" id="clipPath21">
<path d="M919 328 L1113 328 L1113 346 L919 346 L919 328 Z"/>
</clipPath>
<clipPath clipPathUnits="userSpaceOnUse" id="clipPath22">
<path d="M1091 338 L1285 338 L1285 356 L1091 356 L1091 338 Z"/>
</clipPath>
<clipPath clipPathUnits="userSpaceOnUse" id="clipPath23">
<path d="M210 442 L404 442 L404 460 L210 460 L210 442 Z"/>
</clipPath>
</defs>
<g fill="rgb(255,203,203)" font-family="'Segoe UI'" stroke-linejoin="round" stroke="rgb(255,203,203)" stroke-width="0" stroke-miterlimit="0">
<rect width="40" x="864" height="40" y="236" stroke="none"/>
</g>
<g stroke-linecap="butt" font-family="'Segoe UI'">
<rect fill="none" width="39" x="864" height="39" y="236"/>
<text xml:space="preserve" x="787" y="261" stroke="none">Invalid view - remove from diagram.</text>
<rect x="1259" y="425" fill="rgb(255,203,203)" width="40" height="40" stroke="none"/>
<rect x="1259" y="425" fill="none" width="39" height="39" stroke-width="0.1"/>
<text xml:space="preserve" x="1182" stroke-width="0.1" y="450" stroke="none">Invalid view - remove from diagram.</text>
<rect x="564" y="422" fill="rgb(255,203,203)" width="40" height="40" stroke="none" stroke-width="0.1"/>
<rect x="564" y="422" fill="none" width="39" height="39" stroke-width="0.1"/>
<text xml:space="preserve" x="487" stroke-width="0.1" y="447" stroke="none">Invalid view - remove from diagram.</text>
<rect x="863" y="10" fill="rgb(255,203,203)" width="40" height="40" stroke="none" stroke-width="0.1"/>
<rect x="863" y="10" fill="none" width="39" height="39" stroke-width="0.1"/>
<text xml:space="preserve" x="786" stroke-width="0.1" y="35" stroke="none">Invalid view - remove from diagram.</text>
<rect x="1008" y="632" fill="rgb(255,203,203)" width="40" height="40" stroke="none" stroke-width="0.1"/>
<rect x="1008" y="632" fill="none" width="39" height="39" stroke-width="0.1"/>
<text xml:space="preserve" x="931" stroke-width="0.1" y="657" stroke="none">Invalid view - remove from diagram.</text>
<rect x="565" y="632" fill="rgb(255,203,203)" width="40" height="40" stroke="none" stroke-width="0.1"/>
<rect x="565" y="632" fill="none" width="39" height="39" stroke-width="0.1"/>
<text xml:space="preserve" x="488" stroke-width="0.1" y="657" stroke="none">Invalid view - remove from diagram.</text>
<rect x="10" y="423" fill="rgb(255,203,203)" width="40" height="40" stroke="none" stroke-width="0.1"/>
<rect x="10" y="423" fill="none" width="39" height="39" stroke-width="0.1"/>
<text xml:space="preserve" x="-67" stroke-width="0.1" y="448" stroke="none">Invalid view - remove from diagram.</text>
<rect x="261" y="586" fill="rgb(255,203,203)" width="167" height="40" stroke="none" stroke-width="0.1"/>
<rect x="261" y="586" fill="none" width="166" height="39" stroke-width="0.1"/>
<text xml:space="preserve" x="248" stroke-width="0.1" y="611" stroke="none">Invalid view - remove from diagram.</text>
<rect x="262" y="654" fill="rgb(255,203,203)" width="166" height="40" stroke="none" stroke-width="0.1"/>
<rect x="262" y="654" fill="none" width="165" height="39" stroke-width="0.1"/>
<text xml:space="preserve" x="248" stroke-width="0.1" y="679" stroke="none">Invalid view - remove from diagram.</text>
<rect x="1452" y="283" fill="rgb(255,203,203)" width="151" height="40" stroke="none" stroke-width="0.1"/>
<rect x="1452" y="283" fill="none" width="150" height="39" stroke-width="0.1"/>
<text xml:space="preserve" x="1431" stroke-width="0.1" y="308" stroke="none">Invalid view - remove from diagram.</text>
<rect x="165" y="192" fill="rgb(255,203,203)" width="40" height="40" stroke="none" stroke-width="0.1"/>
<rect x="165" y="192" fill="none" width="39" height="39" stroke-width="0.1"/>
<text xml:space="preserve" x="88" stroke-width="0.1" y="217" stroke="none">Invalid view - remove from diagram.</text>
<rect x="862" y="768" fill="rgb(255,203,203)" width="40" height="40" stroke="none" stroke-width="0.1"/>
<rect x="862" y="768" fill="none" width="39" height="39" stroke-width="0.1"/>
<text xml:space="preserve" x="785" stroke-width="0.1" y="793" stroke="none">Invalid view - remove from diagram.</text>
<rect x="514" y="22" fill="rgb(255,203,203)" width="236" height="40" stroke="none" stroke-width="0.1"/>
<rect x="514" y="22" fill="none" width="235" height="39" stroke-width="0.1"/>
<text xml:space="preserve" x="535" stroke-width="0.1" y="47" stroke="none">Invalid view - remove from diagram.</text>
<rect x="1372" y="11" fill="rgb(255,203,203)" width="40" height="40" stroke="none" stroke-width="0.1"/>
<rect x="1372" y="11" fill="none" width="39" height="39" stroke-width="0.1"/>
<text xml:space="preserve" x="1295" stroke-width="0.1" y="36" stroke="none">Invalid view - remove from diagram.</text>
<rect x="477" y="122" fill="rgb(255,203,203)" width="200" height="40" stroke="none" stroke-width="0.1"/>
<rect x="477" y="122" fill="none" width="199" height="39" stroke-width="0.1"/>
<text xml:space="preserve" x="480" stroke-width="0.1" y="147" stroke="none">Invalid view - remove from diagram.</text>
<rect x="350" y="309" fill="rgb(255,203,203)" width="157" height="40" stroke="none" stroke-width="0.1"/>
<rect x="350" y="309" fill="none" width="156" height="39" stroke-width="0.1"/>
<text xml:space="preserve" x="332" stroke-width="0.1" y="334" stroke="none">Invalid view - remove from diagram.</text>
<rect x="1128" y="347" fill="rgb(255,203,203)" width="40" height="40" stroke="none" stroke-width="0.1"/>
<rect x="1128" y="347" fill="none" width="39" height="39" stroke-width="0.1"/>
<text xml:space="preserve" x="1051" stroke-width="0.1" y="372" stroke="none">Invalid view - remove from diagram.</text>
<rect x="672" y="337" fill="rgb(255,203,203)" width="127" height="40" stroke="none" stroke-width="0.1"/>
<rect x="672" y="337" fill="none" width="126" height="39" stroke-width="0.1"/>
<text xml:space="preserve" x="639" stroke-width="0.1" y="362" stroke="none">Invalid view - remove from diagram.</text>
<line fill="none" x1="564" x2="50" y1="431" y2="431" stroke="red" stroke-width="1.1"/>
<rect x="348" y="212" clip-path="url(#clipPath1)" fill="rgb(255,203,203)" width="40" height="40" stroke="none" stroke-width="1.1"/>
<rect x="348" y="212" clip-path="url(#clipPath1)" fill="none" width="39" height="39" stroke-width="0.1"/>
<text x="271" y="237" clip-path="url(#clipPath1)" stroke="none" stroke-width="0.1" xml:space="preserve">Invalid view - remove from diagram.</text>
<rect x="348" y="212" clip-path="url(#clipPath1)" fill="rgb(255,203,203)" width="40" height="40" stroke="none" stroke-width="0.1"/>
<rect x="348" y="212" clip-path="url(#clipPath1)" fill="none" width="39" height="39" stroke-width="0.1"/>
<text x="271" y="237" clip-path="url(#clipPath1)" stroke="none" stroke-width="0.1" xml:space="preserve">Invalid view - remove from diagram.</text>
<rect x="348" y="212" clip-path="url(#clipPath1)" fill="rgb(255,203,203)" width="40" height="40" stroke="none" stroke-width="0.1"/>
<rect x="348" y="212" clip-path="url(#clipPath1)" fill="none" width="39" height="39" stroke-width="0.1"/>
<text x="271" y="237" clip-path="url(#clipPath1)" stroke="none" stroke-width="0.1" xml:space="preserve">Invalid view - remove from diagram.</text>
<rect x="348" y="212" clip-path="url(#clipPath1)" fill="rgb(255,203,203)" width="40" height="40" stroke="none" stroke-width="0.1"/>
<rect x="348" y="212" clip-path="url(#clipPath1)" fill="none" width="39" height="39" stroke-width="0.1"/>
<text x="271" y="237" clip-path="url(#clipPath1)" stroke="none" stroke-width="0.1" xml:space="preserve">Invalid view - remove from diagram.</text>
<rect x="348" y="212" clip-path="url(#clipPath1)" fill="rgb(255,203,203)" width="40" height="40" stroke="none" stroke-width="0.1"/>
<rect x="348" y="212" clip-path="url(#clipPath1)" fill="none" width="39" height="39" stroke-width="0.1"/>
<text x="271" y="237" clip-path="url(#clipPath1)" stroke="none" stroke-width="0.1" xml:space="preserve">Invalid view - remove from diagram.</text>
<text x="211" y="436" clip-path="url(#clipPath2)" fill="red" stroke="none" stroke-width="0.1" xml:space="preserve">Invalid view - remove from diagram.</text>
<line clip-path="url(#clipPath3)" fill="none" x1="1290" x2="1290" y1="425" y2="246" stroke="red" stroke-width="1.1"/>
<line clip-path="url(#clipPath3)" fill="none" x1="1290" x2="1270" y1="246" y2="246" stroke="red" stroke-width="1.1"/>
<line clip-path="url(#clipPath3)" fill="none" x1="1270" x2="1270" y1="246" y2="242" stroke="red" stroke-width="1.1"/>
<line clip-path="url(#clipPath3)" fill="none" x1="1270" x2="904" y1="242" y2="242" stroke="red" stroke-width="1.1"/>
<rect x="348" y="212" clip-path="url(#clipPath1)" fill="rgb(255,203,203)" width="40" height="40" stroke="none" stroke-width="1.1"/>
<rect x="348" y="212" clip-path="url(#clipPath1)" fill="none" width="39" height="39" stroke-width="0.1"/>
<text x="271" y="237" clip-path="url(#clipPath1)" stroke="none" stroke-width="0.1" xml:space="preserve">Invalid view - remove from diagram.</text>
<rect x="348" y="212" clip-path="url(#clipPath1)" fill="rgb(255,203,203)" width="40" height="40" stroke="none" stroke-width="0.1"/>
<rect x="348" y="212" clip-path="url(#clipPath1)" fill="none" width="39" height="39" stroke-width="0.1"/>
<text x="271" y="237" clip-path="url(#clipPath1)" stroke="none" stroke-width="0.1" xml:space="preserve">Invalid view - remove from diagram.</text>
<rect x="348" y="212" clip-path="url(#clipPath1)" fill="rgb(255,203,203)" width="40" height="40" stroke="none" stroke-width="0.1"/>
<rect x="348" y="212" clip-path="url(#clipPath1)" fill="none" width="39" height="39" stroke-width="0.1"/>
<text x="271" y="237" clip-path="url(#clipPath1)" stroke="none" stroke-width="0.1" xml:space="preserve">Invalid view - remove from diagram.</text>
<rect x="348" y="212" clip-path="url(#clipPath1)" fill="rgb(255,203,203)" width="40" height="40" stroke="none" stroke-width="0.1"/>
<rect x="348" y="212" clip-path="url(#clipPath1)" fill="none" width="39" height="39" stroke-width="0.1"/>
<text x="271" y="237" clip-path="url(#clipPath1)" stroke="none" stroke-width="0.1" xml:space="preserve">Invalid view - remove from diagram.</text>
<rect x="348" y="212" clip-path="url(#clipPath1)" fill="rgb(255,203,203)" width="40" height="40" stroke="none" stroke-width="0.1"/>
<rect x="348" y="212" clip-path="url(#clipPath1)" fill="none" width="39" height="39" stroke-width="0.1"/>
<text x="271" y="237" clip-path="url(#clipPath1)" stroke="none" stroke-width="0.1" xml:space="preserve">Invalid view - remove from diagram.</text>
<text x="1092" y="247" clip-path="url(#clipPath4)" fill="red" stroke="none" stroke-width="0.1" xml:space="preserve">Invalid view - remove from diagram.</text>
<line clip-path="url(#clipPath3)" fill="none" x1="586" x2="586" y1="462" y2="632" stroke="red" stroke-width="1.1"/>
<rect x="348" y="212" clip-path="url(#clipPath1)" fill="rgb(255,203,203)" width="40" height="40" stroke="none" stroke-width="1.1"/>
<rect x="348" y="212" clip-path="url(#clipPath1)" fill="none" width="39" height="39" stroke-width="0.1"/>
<text x="271" y="237" clip-path="url(#clipPath1)" stroke="none" stroke-width="0.1" xml:space="preserve">Invalid view - remove from diagram.</text>
<rect x="348" y="212" clip-path="url(#clipPath1)" fill="rgb(255,203,203)" width="40" height="40" stroke="none" stroke-width="0.1"/>
<rect x="348" y="212" clip-path="url(#clipPath1)" fill="none" width="39" height="39" stroke-width="0.1"/>
<text x="271" y="237" clip-path="url(#clipPath1)" stroke="none" stroke-width="0.1" xml:space="preserve">Invalid view - remove from diagram.</text>
<rect x="348" y="212" clip-path="url(#clipPath1)" fill="rgb(255,203,203)" width="40" height="40" stroke="none" stroke-width="0.1"/>
<rect x="348" y="212" clip-path="url(#clipPath1)" fill="none" width="39" height="39" stroke-width="0.1"/>
<text x="271" y="237" clip-path="url(#clipPath1)" stroke="none" stroke-width="0.1" xml:space="preserve">Invalid view - remove from diagram.</text>
<rect x="348" y="212" clip-path="url(#clipPath1)" fill="rgb(255,203,203)" width="40" height="40" stroke="none" stroke-width="0.1"/>
<rect x="348" y="212" clip-path="url(#clipPath1)" fill="none" width="39" height="39" stroke-width="0.1"/>
<text x="271" y="237" clip-path="url(#clipPath1)" stroke="none" stroke-width="0.1" xml:space="preserve">Invalid view - remove from diagram.</text>
<rect x="348" y="212" clip-path="url(#clipPath1)" fill="rgb(255,203,203)" width="40" height="40" stroke="none" stroke-width="0.1"/>
<rect x="348" y="212" clip-path="url(#clipPath1)" fill="none" width="39" height="39" stroke-width="0.1"/>
<text x="271" y="237" clip-path="url(#clipPath1)" stroke="none" stroke-width="0.1" xml:space="preserve">Invalid view - remove from diagram.</text>
<text x="490" y="552" clip-path="url(#clipPath5)" fill="red" stroke="none" stroke-width="0.1" xml:space="preserve">Invalid view - remove from diagram.</text>
<line clip-path="url(#clipPath3)" fill="none" x1="1048" x2="1278" y1="652" y2="652" stroke="red" stroke-width="1.1"/>
<line clip-path="url(#clipPath3)" fill="none" x1="1278" x2="1278" y1="652" y2="642" stroke="red" stroke-width="1.1"/>
<line clip-path="url(#clipPath3)" fill="none" x1="1278" x2="1259" y1="642" y2="642" stroke="red" stroke-width="1.1"/>
<line clip-path="url(#clipPath3)" fill="none" x1="1259" x2="1259" y1="642" y2="465" stroke="red" stroke-width="1.1"/>
<rect x="348" y="212" clip-path="url(#clipPath1)" fill="rgb(255,203,203)" width="40" height="40" stroke="none" stroke-width="1.1"/>
<rect x="348" y="212" clip-path="url(#clipPath1)" fill="none" width="39" height="39" stroke-width="0.1"/>
<text x="271" y="237" clip-path="url(#clipPath1)" stroke="none" stroke-width="0.1" xml:space="preserve">Invalid view - remove from diagram.</text>
<rect x="348" y="212" clip-path="url(#clipPath1)" fill="rgb(255,203,203)" width="40" height="40" stroke="none" stroke-width="0.1"/>
<rect x="348" y="212" clip-path="url(#clipPath1)" fill="none" width="39" height="39" stroke-width="0.1"/>
<text x="271" y="237" clip-path="url(#clipPath1)" stroke="none" stroke-width="0.1" xml:space="preserve">Invalid view - remove from diagram.</text>
<rect x="348" y="212" clip-path="url(#clipPath1)" fill="rgb(255,203,203)" width="40" height="40" stroke="none" stroke-width="0.1"/>
<rect x="348" y="212" clip-path="url(#clipPath1)" fill="none" width="39" height="39" stroke-width="0.1"/>
<text x="271" y="237" clip-path="url(#clipPath1)" stroke="none" stroke-width="0.1" xml:space="preserve">Invalid view - remove from diagram.</text>
<rect x="348" y="212" clip-path="url(#clipPath1)" fill="rgb(255,203,203)" width="40" height="40" stroke="none" stroke-width="0.1"/>
<rect x="348" y="212" clip-path="url(#clipPath1)" fill="none" width="39" height="39" stroke-width="0.1"/>
<text x="271" y="237" clip-path="url(#clipPath1)" stroke="none" stroke-width="0.1" xml:space="preserve">Invalid view - remove from diagram.</text>
<rect x="348" y="212" clip-path="url(#clipPath1)" fill="rgb(255,203,203)" width="40" height="40" stroke="none" stroke-width="0.1"/>
<rect x="348" y="212" clip-path="url(#clipPath1)" fill="none" width="39" height="39" stroke-width="0.1"/>
<text x="271" y="237" clip-path="url(#clipPath1)" stroke="none" stroke-width="0.1" xml:space="preserve">Invalid view - remove from diagram.</text>
<text x="1170" y="657" clip-path="url(#clipPath6)" fill="red" stroke="none" stroke-width="0.1" xml:space="preserve">Invalid view - remove from diagram.</text>
<line clip-path="url(#clipPath3)" fill="none" x1="605" x2="806" y1="671" y2="671" stroke="red" stroke-width="1.1"/>
<line clip-path="url(#clipPath3)" fill="none" x1="806" x2="806" y1="671" y2="638" stroke="red" stroke-width="1.1"/>
<line clip-path="url(#clipPath3)" fill="none" x1="806" x2="1008" y1="638" y2="638" stroke="red" stroke-width="1.1"/>
<rect x="348" y="212" clip-path="url(#clipPath1)" fill="rgb(255,203,203)" width="40" height="40" stroke="none" stroke-width="1.1"/>
<rect x="348" y="212" clip-path="url(#clipPath1)" fill="none" width="39" height="39" stroke-width="0.1"/>
<text x="271" y="237" clip-path="url(#clipPath1)" stroke="none" stroke-width="0.1" xml:space="preserve">Invalid view - remove from diagram.</text>
<rect x="348" y="212" clip-path="url(#clipPath1)" fill="rgb(255,203,203)" width="40" height="40" stroke="none" stroke-width="0.1"/>
<rect x="348" y="212" clip-path="url(#clipPath1)" fill="none" width="39" height="39" stroke-width="0.1"/>
<text x="271" y="237" clip-path="url(#clipPath1)" stroke="none" stroke-width="0.1" xml:space="preserve">Invalid view - remove from diagram.</text>
<rect x="348" y="212" clip-path="url(#clipPath1)" fill="rgb(255,203,203)" width="40" height="40" stroke="none" stroke-width="0.1"/>
<rect x="348" y="212" clip-path="url(#clipPath1)" fill="none" width="39" height="39" stroke-width="0.1"/>
<text x="271" y="237" clip-path="url(#clipPath1)" stroke="none" stroke-width="0.1" xml:space="preserve">Invalid view - remove from diagram.</text>
<rect x="348" y="212" clip-path="url(#clipPath1)" fill="rgb(255,203,203)" width="40" height="40" stroke="none" stroke-width="0.1"/>
<rect x="348" y="212" clip-path="url(#clipPath1)" fill="none" width="39" height="39" stroke-width="0.1"/>
<text x="271" y="237" clip-path="url(#clipPath1)" stroke="none" stroke-width="0.1" xml:space="preserve">Invalid view - remove from diagram.</text>
<rect x="348" y="212" clip-path="url(#clipPath1)" fill="rgb(255,203,203)" width="40" height="40" stroke="none" stroke-width="0.1"/>
<rect x="348" y="212" clip-path="url(#clipPath1)" fill="none" width="39" height="39" stroke-width="0.1"/>
<text x="271" y="237" clip-path="url(#clipPath1)" stroke="none" stroke-width="0.1" xml:space="preserve">Invalid view - remove from diagram.</text>
<text x="710" y="659" clip-path="url(#clipPath7)" fill="red" stroke="none" stroke-width="0.1" xml:space="preserve">Invalid view - remove from diagram.</text>
<line clip-path="url(#clipPath3)" fill="none" x1="1013" x2="1013" y1="632" y2="482" stroke="red" stroke-width="1.1"/>
<line clip-path="url(#clipPath3)" fill="none" x1="1013" x2="1039" y1="482" y2="482" stroke="red" stroke-width="1.1"/>
<line clip-path="url(#clipPath3)" fill="none" x1="1039" x2="1039" y1="482" y2="443" stroke="red" stroke-width="1.1"/>
<line clip-path="url(#clipPath3)" fill="none" x1="1039" x2="604" y1="443" y2="443" stroke="red" stroke-width="1.1"/>
<rect x="348" y="212" clip-path="url(#clipPath1)" fill="rgb(255,203,203)" width="40" height="40" stroke="none" stroke-width="1.1"/>
<rect x="348" y="212" clip-path="url(#clipPath1)" fill="none" width="39" height="39" stroke-width="0.1"/>
<text x="271" y="237" clip-path="url(#clipPath1)" stroke="none" stroke-width="0.1" xml:space="preserve">Invalid view - remove from diagram.</text>
<text x="833" y="448" clip-path="url(#clipPath8)" fill="red" stroke="none" stroke-width="0.1" xml:space="preserve">Invalid view - remove from diagram.</text>
<line clip-path="url(#clipPath3)" fill="none" x1="604" x2="1259" y1="430" y2="430" stroke="red" stroke-width="1.1"/>
<rect x="348" y="212" clip-path="url(#clipPath1)" fill="rgb(255,203,203)" width="40" height="40" stroke="none" stroke-width="1.1"/>
<rect x="348" y="212" clip-path="url(#clipPath1)" fill="none" width="39" height="39" stroke-width="0.1"/>
<text x="271" y="237" clip-path="url(#clipPath1)" stroke="none" stroke-width="0.1" xml:space="preserve">Invalid view - remove from diagram.</text>
<rect x="348" y="212" clip-path="url(#clipPath1)" fill="rgb(255,203,203)" width="40" height="40" stroke="none" stroke-width="0.1"/>
<rect x="348" y="212" clip-path="url(#clipPath1)" fill="none" width="39" height="39" stroke-width="0.1"/>
<text x="271" y="237" clip-path="url(#clipPath1)" stroke="none" stroke-width="0.1" xml:space="preserve">Invalid view - remove from diagram.</text>
<rect x="348" y="212" clip-path="url(#clipPath1)" fill="rgb(255,203,203)" width="40" height="40" stroke="none" stroke-width="0.1"/>
<rect x="348" y="212" clip-path="url(#clipPath1)" fill="none" width="39" height="39" stroke-width="0.1"/>
<text x="271" y="237" clip-path="url(#clipPath1)" stroke="none" stroke-width="0.1" xml:space="preserve">Invalid view - remove from diagram.</text>
<rect x="348" y="212" clip-path="url(#clipPath1)" fill="rgb(255,203,203)" width="40" height="40" stroke="none" stroke-width="0.1"/>
<rect x="348" y="212" clip-path="url(#clipPath1)" fill="none" width="39" height="39" stroke-width="0.1"/>
<text x="271" y="237" clip-path="url(#clipPath1)" stroke="none" stroke-width="0.1" xml:space="preserve">Invalid view - remove from diagram.</text>
<rect x="348" y="212" clip-path="url(#clipPath1)" fill="rgb(255,203,203)" width="40" height="40" stroke="none" stroke-width="0.1"/>
<rect x="348" y="212" clip-path="url(#clipPath1)" fill="none" width="39" height="39" stroke-width="0.1"/>
<text x="271" y="237" clip-path="url(#clipPath1)" stroke="none" stroke-width="0.1" xml:space="preserve">Invalid view - remove from diagram.</text>
<text x="836" y="435" clip-path="url(#clipPath9)" fill="red" stroke="none" stroke-width="0.1" xml:space="preserve">Invalid view - remove from diagram.</text>
<line clip-path="url(#clipPath3)" fill="none" x1="1452" x2="1290" y1="290" y2="290" stroke="red" stroke-width="1.1"/>
<text x="1275" y="295" clip-path="url(#clipPath10)" fill="red" stroke="none" stroke-width="1.1" xml:space="preserve">Invalid view - remove from diagram.</text>
<line clip-path="url(#clipPath3)" fill="none" x1="864" x2="588" y1="256" y2="256" stroke="red" stroke-width="1.1"/>
<line clip-path="url(#clipPath3)" fill="none" x1="588" x2="588" y1="256" y2="294" stroke="red" stroke-width="1.1"/>
<line clip-path="url(#clipPath3)" fill="none" x1="588" x2="594" y1="294" y2="294" stroke="red" stroke-width="1.1"/>
<line clip-path="url(#clipPath3)" fill="none" x1="594" x2="594" y1="294" y2="422" stroke="red" stroke-width="1.1"/>
<rect x="348" y="212" clip-path="url(#clipPath1)" fill="rgb(255,203,203)" width="40" height="40" stroke="none" stroke-width="1.1"/>
<rect x="348" y="212" clip-path="url(#clipPath1)" fill="none" width="39" height="39" stroke-width="0.1"/>
<text x="271" y="237" clip-path="url(#clipPath1)" stroke="none" stroke-width="0.1" xml:space="preserve">Invalid view - remove from diagram.</text>
<rect x="348" y="212" clip-path="url(#clipPath1)" fill="rgb(255,203,203)" width="40" height="40" stroke="none" stroke-width="0.1"/>
<rect x="348" y="212" clip-path="url(#clipPath1)" fill="none" width="39" height="39" stroke-width="0.1"/>
<text x="271" y="237" clip-path="url(#clipPath1)" stroke="none" stroke-width="0.1" xml:space="preserve">Invalid view - remove from diagram.</text>
<rect x="348" y="212" clip-path="url(#clipPath1)" fill="rgb(255,203,203)" width="40" height="40" stroke="none" stroke-width="0.1"/>
<rect x="348" y="212" clip-path="url(#clipPath1)" fill="none" width="39" height="39" stroke-width="0.1"/>
<text x="271" y="237" clip-path="url(#clipPath1)" stroke="none" stroke-width="0.1" xml:space="preserve">Invalid view - remove from diagram.</text>
<rect x="348" y="212" clip-path="url(#clipPath1)" fill="rgb(255,203,203)" width="40" height="40" stroke="none" stroke-width="0.1"/>
<rect x="348" y="212" clip-path="url(#clipPath1)" fill="none" width="39" height="39" stroke-width="0.1"/>
<text x="271" y="237" clip-path="url(#clipPath1)" stroke="none" stroke-width="0.1" xml:space="preserve">Invalid view - remove from diagram.</text>
<rect x="348" y="212" clip-path="url(#clipPath1)" fill="rgb(255,203,203)" width="40" height="40" stroke="none" stroke-width="0.1"/>
<rect x="348" y="212" clip-path="url(#clipPath1)" fill="none" width="39" height="39" stroke-width="0.1"/>
<text x="271" y="237" clip-path="url(#clipPath1)" stroke="none" stroke-width="0.1" xml:space="preserve">Invalid view - remove from diagram.</text>
<text x="544" y="261" clip-path="url(#clipPath11)" fill="red" stroke="none" stroke-width="0.1" xml:space="preserve">Invalid view - remove from diagram.</text>
<line clip-path="url(#clipPath3)" fill="none" x1="1259" x2="1248" y1="427" y2="427" stroke="red" stroke-width="1.1"/>
<line clip-path="url(#clipPath3)" fill="none" x1="1248" x2="1248" y1="427" y2="267" stroke="red" stroke-width="1.1"/>
<line clip-path="url(#clipPath3)" fill="none" x1="1248" x2="904" y1="267" y2="267" stroke="red" stroke-width="1.1"/>
<rect x="348" y="212" clip-path="url(#clipPath1)" fill="rgb(255,203,203)" width="40" height="40" stroke="none" stroke-width="1.1"/>
<rect x="348" y="212" clip-path="url(#clipPath1)" fill="none" width="39" height="39" stroke-width="0.1"/>
<text x="271" y="237" clip-path="url(#clipPath1)" stroke="none" stroke-width="0.1" xml:space="preserve">Invalid view - remove from diagram.</text>
<rect x="348" y="212" clip-path="url(#clipPath1)" fill="rgb(255,203,203)" width="40" height="40" stroke="none" stroke-width="0.1"/>
<rect x="348" y="212" clip-path="url(#clipPath1)" fill="none" width="39" height="39" stroke-width="0.1"/>
<text x="271" y="237" clip-path="url(#clipPath1)" stroke="none" stroke-width="0.1" xml:space="preserve">Invalid view - remove from diagram.</text>
<rect x="348" y="212" clip-path="url(#clipPath1)" fill="rgb(255,203,203)" width="40" height="40" stroke="none" stroke-width="0.1"/>
<rect x="348" y="212" clip-path="url(#clipPath1)" fill="none" width="39" height="39" stroke-width="0.1"/>
<text x="271" y="237" clip-path="url(#clipPath1)" stroke="none" stroke-width="0.1" xml:space="preserve">Invalid view - remove from diagram.</text>
<rect x="348" y="212" clip-path="url(#clipPath1)" fill="rgb(255,203,203)" width="40" height="40" stroke="none" stroke-width="0.1"/>
<rect x="348" y="212" clip-path="url(#clipPath1)" fill="none" width="39" height="39" stroke-width="0.1"/>
<text x="271" y="237" clip-path="url(#clipPath1)" stroke="none" stroke-width="0.1" xml:space="preserve">Invalid view - remove from diagram.</text>
<rect x="348" y="212" clip-path="url(#clipPath1)" fill="rgb(255,203,203)" width="40" height="40" stroke="none" stroke-width="0.1"/>
<rect x="348" y="212" clip-path="url(#clipPath1)" fill="none" width="39" height="39" stroke-width="0.1"/>
<text x="271" y="237" clip-path="url(#clipPath1)" stroke="none" stroke-width="0.1" xml:space="preserve">Invalid view - remove from diagram.</text>
<text x="1065" y="272" clip-path="url(#clipPath12)" fill="red" stroke="none" stroke-width="0.1" xml:space="preserve">Invalid view - remove from diagram.</text>
<line clip-path="url(#clipPath3)" fill="none" x1="1452" x2="1248" y1="320" y2="358" stroke="red" stroke-width="1.1"/>
<text x="1255" y="344" clip-path="url(#clipPath13)" fill="red" stroke="none" stroke-width="1.1" xml:space="preserve">Invalid view - remove from diagram.</text>
<line clip-path="url(#clipPath3)" fill="none" x1="205" x2="864" y1="212" y2="238" stroke="red" stroke-width="1.1"/>
<rect x="348" y="212" clip-path="url(#clipPath1)" fill="rgb(255,203,203)" width="40" height="40" stroke="none" stroke-width="1.1"/>
<rect x="348" y="212" clip-path="url(#clipPath1)" fill="none" width="39" height="39" stroke-width="0.1"/>
<text x="271" y="237" clip-path="url(#clipPath1)" stroke="none" stroke-width="0.1" xml:space="preserve">Invalid view - remove from diagram.</text>
<rect x="348" y="212" clip-path="url(#clipPath1)" fill="rgb(255,203,203)" width="40" height="40" stroke="none" stroke-width="0.1"/>
<rect x="348" y="212" clip-path="url(#clipPath1)" fill="none" width="39" height="39" stroke-width="0.1"/>
<text x="271" y="237" clip-path="url(#clipPath1)" stroke="none" stroke-width="0.1" xml:space="preserve">Invalid view - remove from diagram.</text>
<rect x="348" y="212" clip-path="url(#clipPath1)" fill="rgb(255,203,203)" width="40" height="40" stroke="none" stroke-width="0.1"/>
<rect x="348" y="212" clip-path="url(#clipPath1)" fill="none" width="39" height="39" stroke-width="0.1"/>
<text x="271" y="237" clip-path="url(#clipPath1)" stroke="none" stroke-width="0.1" xml:space="preserve">Invalid view - remove from diagram.</text>
<rect x="348" y="212" clip-path="url(#clipPath1)" fill="rgb(255,203,203)" width="40" height="40" stroke="none" stroke-width="0.1"/>
<rect x="348" y="212" clip-path="url(#clipPath1)" fill="none" width="39" height="39" stroke-width="0.1"/>
<text x="271" y="237" clip-path="url(#clipPath1)" stroke="none" stroke-width="0.1" xml:space="preserve">Invalid view - remove from diagram.</text>
<rect x="348" y="212" clip-path="url(#clipPath1)" fill="rgb(255,203,203)" width="40" height="40" stroke="none" stroke-width="0.1"/>
<rect x="348" y="212" clip-path="url(#clipPath1)" fill="none" width="39" height="39" stroke-width="0.1"/>
<text x="271" y="237" clip-path="url(#clipPath1)" stroke="none" stroke-width="0.1" xml:space="preserve">Invalid view - remove from diagram.</text>
<text x="439" y="230" clip-path="url(#clipPath14)" fill="red" stroke="none" stroke-width="0.1" xml:space="preserve">Invalid view - remove from diagram.</text>
<line clip-path="url(#clipPath3)" fill="none" x1="884" x2="1015" y1="768" y2="672" stroke="red" stroke-width="1.1"/>
<text x="853" y="725" clip-path="url(#clipPath15)" fill="red" stroke="none" stroke-width="1.1" xml:space="preserve">Invalid view - remove from diagram.</text>
<line clip-path="url(#clipPath3)" fill="none" x1="876" x2="876" y1="50" y2="143" stroke="red" stroke-width="1.1"/>
<line clip-path="url(#clipPath3)" fill="none" x1="876" x2="894" y1="143" y2="143" stroke="red" stroke-width="1.1"/>
<line clip-path="url(#clipPath3)" fill="none" x1="894" x2="894" y1="143" y2="236" stroke="red" stroke-width="1.1"/>
<rect x="348" y="212" clip-path="url(#clipPath1)" fill="rgb(255,203,203)" width="40" height="40" stroke="none" stroke-width="1.1"/>
<rect x="348" y="212" clip-path="url(#clipPath1)" fill="none" width="39" height="39" stroke-width="0.1"/>
<text x="271" y="237" clip-path="url(#clipPath1)" stroke="none" stroke-width="0.1" xml:space="preserve">Invalid view - remove from diagram.</text>
<rect x="348" y="212" clip-path="url(#clipPath1)" fill="rgb(255,203,203)" width="40" height="40" stroke="none" stroke-width="0.1"/>
<rect x="348" y="212" clip-path="url(#clipPath1)" fill="none" width="39" height="39" stroke-width="0.1"/>
<text x="271" y="237" clip-path="url(#clipPath1)" stroke="none" stroke-width="0.1" xml:space="preserve">Invalid view - remove from diagram.</text>
<rect x="348" y="212" clip-path="url(#clipPath1)" fill="rgb(255,203,203)" width="40" height="40" stroke="none" stroke-width="0.1"/>
<rect x="348" y="212" clip-path="url(#clipPath1)" fill="none" width="39" height="39" stroke-width="0.1"/>
<text x="271" y="237" clip-path="url(#clipPath1)" stroke="none" stroke-width="0.1" xml:space="preserve">Invalid view - remove from diagram.</text>
<rect x="348" y="212" clip-path="url(#clipPath1)" fill="rgb(255,203,203)" width="40" height="40" stroke="none" stroke-width="0.1"/>
<rect x="348" y="212" clip-path="url(#clipPath1)" fill="none" width="39" height="39" stroke-width="0.1"/>
<text x="271" y="237" clip-path="url(#clipPath1)" stroke="none" stroke-width="0.1" xml:space="preserve">Invalid view - remove from diagram.</text>
<rect x="348" y="212" clip-path="url(#clipPath1)" fill="rgb(255,203,203)" width="40" height="40" stroke="none" stroke-width="0.1"/>
<rect x="348" y="212" clip-path="url(#clipPath1)" fill="none" width="39" height="39" stroke-width="0.1"/>
<text x="271" y="237" clip-path="url(#clipPath1)" stroke="none" stroke-width="0.1" xml:space="preserve">Invalid view - remove from diagram.</text>
<text x="789" y="148" clip-path="url(#clipPath16)" fill="red" stroke="none" stroke-width="0.1" xml:space="preserve">Invalid view - remove from diagram.</text>
<line clip-path="url(#clipPath3)" fill="none" x1="903" x2="1372" y1="31" y2="31" stroke="red" stroke-width="1.1"/>
<rect x="348" y="212" clip-path="url(#clipPath1)" fill="rgb(255,203,203)" width="40" height="40" stroke="none" stroke-width="1.1"/>
<rect x="348" y="212" clip-path="url(#clipPath1)" fill="none" width="39" height="39" stroke-width="0.1"/>
<text x="271" y="237" clip-path="url(#clipPath1)" stroke="none" stroke-width="0.1" xml:space="preserve">Invalid view - remove from diagram.</text>
<rect x="348" y="212" clip-path="url(#clipPath1)" fill="rgb(255,203,203)" width="40" height="40" stroke="none" stroke-width="0.1"/>
<rect x="348" y="212" clip-path="url(#clipPath1)" fill="none" width="39" height="39" stroke-width="0.1"/>
<text x="271" y="237" clip-path="url(#clipPath1)" stroke="none" stroke-width="0.1" xml:space="preserve">Invalid view - remove from diagram.</text>
<rect x="348" y="212" clip-path="url(#clipPath1)" fill="rgb(255,203,203)" width="40" height="40" stroke="none" stroke-width="0.1"/>
<rect x="348" y="212" clip-path="url(#clipPath1)" fill="none" width="39" height="39" stroke-width="0.1"/>
<text x="271" y="237" clip-path="url(#clipPath1)" stroke="none" stroke-width="0.1" xml:space="preserve">Invalid view - remove from diagram.</text>
<rect x="348" y="212" clip-path="url(#clipPath1)" fill="rgb(255,203,203)" width="40" height="40" stroke="none" stroke-width="0.1"/>
<rect x="348" y="212" clip-path="url(#clipPath1)" fill="none" width="39" height="39" stroke-width="0.1"/>
<text x="271" y="237" clip-path="url(#clipPath1)" stroke="none" stroke-width="0.1" xml:space="preserve">Invalid view - remove from diagram.</text>
<text x="1042" y="36" clip-path="url(#clipPath17)" fill="red" stroke="none" stroke-width="0.1" xml:space="preserve">Invalid view - remove from diagram.</text>
<line clip-path="url(#clipPath3)" fill="none" x1="566" x2="536" y1="162" y2="187" stroke="red" stroke-width="1.1"/>
<line clip-path="url(#clipPath3)" fill="none" x1="536" x2="491" y1="187" y2="223" stroke="red" stroke-width="1.1"/>
<text x="432" y="198" clip-path="url(#clipPath18)" fill="red" stroke="none" stroke-width="1.1" xml:space="preserve">Invalid view - remove from diagram.</text>
<line clip-path="url(#clipPath3)" fill="none" x1="404" x2="308" y1="349" y2="431" stroke="red" stroke-width="1.1"/>
<text x="260" y="395" clip-path="url(#clipPath19)" fill="red" stroke="none" stroke-width="1.1" xml:space="preserve">Invalid view - remove from diagram.</text>
<line clip-path="url(#clipPath3)" fill="none" x1="903" x2="903" y1="276" y2="400" stroke="red" stroke-width="1.1"/>
<line clip-path="url(#clipPath3)" fill="none" x1="903" x2="867" y1="400" y2="400" stroke="red" stroke-width="1.1"/>
<line clip-path="url(#clipPath3)" fill="none" x1="867" x2="867" y1="400" y2="428" stroke="red" stroke-width="1.1"/>
<line clip-path="url(#clipPath3)" fill="none" x1="867" x2="1259" y1="428" y2="428" stroke="red" stroke-width="1.1"/>
<rect x="348" y="212" clip-path="url(#clipPath1)" fill="rgb(255,203,203)" width="40" height="40" stroke="none" stroke-width="1.1"/>
<rect x="348" y="212" clip-path="url(#clipPath1)" fill="none" width="39" height="39" stroke-width="0.1"/>
<text x="271" y="237" clip-path="url(#clipPath1)" stroke="none" stroke-width="0.1" xml:space="preserve">Invalid view - remove from diagram.</text>
<rect x="348" y="212" clip-path="url(#clipPath1)" fill="rgb(255,203,203)" width="40" height="40" stroke="none" stroke-width="0.1"/>
<rect x="348" y="212" clip-path="url(#clipPath1)" fill="none" width="39" height="39" stroke-width="0.1"/>
<text x="271" y="237" clip-path="url(#clipPath1)" stroke="none" stroke-width="0.1" xml:space="preserve">Invalid view - remove from diagram.</text>
<rect x="348" y="212" clip-path="url(#clipPath1)" fill="rgb(255,203,203)" width="40" height="40" stroke="none" stroke-width="0.1"/>
<rect x="348" y="212" clip-path="url(#clipPath1)" fill="none" width="39" height="39" stroke-width="0.1"/>
<text x="271" y="237" clip-path="url(#clipPath1)" stroke="none" stroke-width="0.1" xml:space="preserve">Invalid view - remove from diagram.</text>
<rect x="348" y="212" clip-path="url(#clipPath1)" fill="rgb(255,203,203)" width="40" height="40" stroke="none" stroke-width="0.1"/>
<rect x="348" y="212" clip-path="url(#clipPath1)" fill="none" width="39" height="39" stroke-width="0.1"/>
<text x="271" y="237" clip-path="url(#clipPath1)" stroke="none" stroke-width="0.1" xml:space="preserve">Invalid view - remove from diagram.</text>
<rect x="348" y="212" clip-path="url(#clipPath1)" fill="rgb(255,203,203)" width="40" height="40" stroke="none" stroke-width="0.1"/>
<rect x="348" y="212" clip-path="url(#clipPath1)" fill="none" width="39" height="39" stroke-width="0.1"/>
<text x="271" y="237" clip-path="url(#clipPath1)" stroke="none" stroke-width="0.1" xml:space="preserve">Invalid view - remove from diagram.</text>
<text x="873" y="433" clip-path="url(#clipPath20)" fill="red" stroke="none" stroke-width="0.1" xml:space="preserve">Invalid view - remove from diagram.</text>
<line clip-path="url(#clipPath3)" fill="none" x1="1128" x2="903" y1="373" y2="301" stroke="red" stroke-width="1.1"/>
<text x="920" y="342" clip-path="url(#clipPath21)" fill="red" stroke="none" stroke-width="1.1" xml:space="preserve">Invalid view - remove from diagram.</text>
<line clip-path="url(#clipPath3)" fill="none" x1="1128" x2="1248" y1="347" y2="347" stroke="red" stroke-width="1.1"/>
<text x="1092" y="352" clip-path="url(#clipPath22)" fill="red" stroke="none" stroke-width="1.1" xml:space="preserve">Invalid view - remove from diagram.</text>
<line clip-path="url(#clipPath3)" fill="none" x1="564" x2="50" y1="451" y2="451" stroke="red" stroke-width="1.1"/>
<rect x="348" y="212" clip-path="url(#clipPath1)" fill="rgb(255,203,203)" width="40" height="40" stroke="none" stroke-width="1.1"/>
<rect x="348" y="212" clip-path="url(#clipPath1)" fill="none" width="39" height="39" stroke-width="0.1"/>
<text x="271" y="237" clip-path="url(#clipPath1)" stroke="none" stroke-width="0.1" xml:space="preserve">Invalid view - remove from diagram.</text>
<rect x="348" y="212" clip-path="url(#clipPath1)" fill="rgb(255,203,203)" width="40" height="40" stroke="none" stroke-width="0.1"/>
<rect x="348" y="212" clip-path="url(#clipPath1)" fill="none" width="39" height="39" stroke-width="0.1"/>
<text x="271" y="237" clip-path="url(#clipPath1)" stroke="none" stroke-width="0.1" xml:space="preserve">Invalid view - remove from diagram.</text>
<rect x="348" y="212" clip-path="url(#clipPath1)" fill="rgb(255,203,203)" width="40" height="40" stroke="none" stroke-width="0.1"/>
<rect x="348" y="212" clip-path="url(#clipPath1)" fill="none" width="39" height="39" stroke-width="0.1"/>
<text x="271" y="237" clip-path="url(#clipPath1)" stroke="none" stroke-width="0.1" xml:space="preserve">Invalid view - remove from diagram.</text>
<rect x="348" y="212" clip-path="url(#clipPath1)" fill="rgb(255,203,203)" width="40" height="40" stroke="none" stroke-width="0.1"/>
<rect x="348" y="212" clip-path="url(#clipPath1)" fill="none" width="39" height="39" stroke-width="0.1"/>
<text x="271" y="237" clip-path="url(#clipPath1)" stroke="none" stroke-width="0.1" xml:space="preserve">Invalid view - remove from diagram.</text>
<rect x="348" y="212" clip-path="url(#clipPath1)" fill="rgb(255,203,203)" width="40" height="40" stroke="none" stroke-width="0.1"/>
<rect x="348" y="212" clip-path="url(#clipPath1)" fill="none" width="39" height="39" stroke-width="0.1"/>
<text x="271" y="237" clip-path="url(#clipPath1)" stroke="none" stroke-width="0.1" xml:space="preserve">Invalid view - remove from diagram.</text>
<text x="211" y="456" clip-path="url(#clipPath23)" fill="red" stroke="none" stroke-width="0.1" xml:space="preserve">Invalid view - remove from diagram.</text>
</g>
</g>
<rect x="864" y="236" fill-opacity="0" width="40" title="Represents some assembly of atomic functions that can be considered as useful from some perspective. Can be viewed as one or more functional blocks (essential leading to a recursive cycle of Block --&gt; Atomic --&gt; Aggregate --&gt; Block). &#13;&#10;Each of the functional entities in the model is a view of a single AggregateFunction." id="AggregateFunction" height="40" stroke-opacity="0">
<title>Represents some assembly of atomic functions that can be considered as useful from some perspective. Can be viewed as one or more functional blocks (essential leading to a recursive cycle of Block --&gt; Atomic --&gt; Aggregate --&gt; Block). &#13;
Each of the functional entities in the model is a view of a single AggregateFunction.</title>
</rect>
<rect x="1259" y="425" fill-opacity="0" width="40" title="Represents the micro-function that is the largest function of the functional block that will not need to be subdivided when forming the relevant abstract views (i.e., it can just be assembled)." id="AtomicFunction" height="40" stroke-opacity="0">
<title>Represents the micro-function that is the largest function of the functional block that will not need to be subdivided when forming the relevant abstract views (i.e., it can just be assembled).</title>
</rect>
<rect x="564" y="422" fill-opacity="0" width="40" title="Represents the chunks of base functionality provided by the equipment.&#13;&#10;The chunks of base functionality are likely to relate to the hardware layout and be quite distinct from the functions of the familiar abstract representation.&#13;&#10;The functions are necessarily abstract and, to a degree, virtualized." id="FunctionBlock" height="40" stroke-opacity="0">
<title>Represents the chunks of base functionality provided by the equipment.&#13;
The chunks of base functionality are likely to relate to the hardware layout and be quite distinct from the functions of the familiar abstract representation.&#13;
The functions are necessarily abstract and, to a degree, virtualized.</title>
</rect>
<rect x="863" y="10" fill-opacity="0" width="40" title="Represents the dynamic state of the holder instance. " id="HolderMonitor" height="40" stroke-opacity="0">
<title>Represents the dynamic state of the holder instance. </title>
</rect>
<rect x="1008" y="632" fill-opacity="0" width="40" title="Represents the functions emergent from a function protection process.&#13;&#10;The emergent functions are necessarily significantly virtualized." id="ResilientFunctionBlock" height="40" stroke-opacity="0">
<title>Represents the functions emergent from a function protection process.&#13;
The emergent functions are necessarily significantly virtualized.</title>
</rect>
<rect x="565" y="632" fill-opacity="0" width="40" title="Represents the ability to select capability from two or more identical FunctionalBlocks so as to give rise to an equivalent emergent resilient function." id="ResilienceSelector" height="40" stroke-opacity="0">
<title>Represents the ability to select capability from two or more identical FunctionalBlocks so as to give rise to an equivalent emergent resilient function.</title>
</rect>
<rect x="10" y="423" fill-opacity="0" width="40" title="Represents any relevant physical thing. &#13;&#10;Can be either field replaceable or not field replaceable.&#13;&#10;Note: The model is currently constrained to inside plant." id="Equipment" height="40" stroke-opacity="0">
<title>Represents any relevant physical thing. &#13;
Can be either field replaceable or not field replaceable.&#13;
Note: The model is currently constrained to inside plant.</title>
</rect>
<rect x="261" y="586" fill-opacity="0" width="167" height="40" stroke-opacity="0"/>
<rect x="262" y="654" fill-opacity="0" width="166" height="40" stroke-opacity="0"/>
<rect x="1452" y="283" fill-opacity="0" width="151" height="40" stroke-opacity="0"/>
<rect x="165" y="192" fill-opacity="0" width="40" title="The LogicalTerminationPoint (LTP) class encapsulates the termination and adaptation functions of one or more transport layers represented by instances of LayerProtocol.&#13;&#10;The encapsulated transport layers have a simple fixed 1:1 client-server relationship defined by association end ordering.&#13;&#10;The structure of LTP supports all transport protocols including circuit and packet forms." id="LogicalTerminationPoint" height="40" stroke-opacity="0">
<title>The LogicalTerminationPoint (LTP) class encapsulates the termination and adaptation functions of one or more transport layers represented by instances of LayerProtocol.&#13;
The encapsulated transport layers have a simple fixed 1:1 client-server relationship defined by association end ordering.&#13;
The structure of LTP supports all transport protocols including circuit and packet forms.</title>
</rect>
<rect x="862" y="768" fill-opacity="0" width="40" height="40" stroke-opacity="0"/>
<rect x="514" y="22" fill-opacity="0" width="236" height="40" stroke-opacity="0"/>
<rect x="1372" y="11" fill-opacity="0" width="40" title="Represents a space in an equipment in which another equipment can be fitted in the field." id="Holder" height="40" stroke-opacity="0">
<title>Represents a space in an equipment in which another equipment can be fitted in the field.</title>
</rect>
<rect x="477" y="122" fill-opacity="0" width="200" height="40" stroke-opacity="0"/>
<rect x="350" y="309" fill-opacity="0" width="157" height="40" stroke-opacity="0"/>
<rect x="1128" y="347" fill-opacity="0" width="40" height="40" stroke-opacity="0"/>
<rect x="672" y="337" fill-opacity="0" width="127" height="40" stroke-opacity="0"/>
</svg>
