<?xml version="1.0" encoding="UTF-8"?><svg xmlns="http://www.w3.org/2000/svg" xmlns:xlink="http://www.w3.org/1999/xlink" stroke-dasharray="none" shape-rendering="auto" font-family="'Dialog'" width="1987" text-rendering="auto" fill-opacity="1" contentScriptType="text/ecmascript" color-interpolation="auto" color-rendering="auto" preserveAspectRatio="xMidYMid meet" font-size="12" viewBox="0 0 1987 811" fill="black" stroke="black" image-rendering="auto" stroke-miterlimit="10" zoomAndPan="magnify" version="1.0" stroke-linecap="square" stroke-linejoin="miter" contentStyleType="text/css" font-style="normal" height="811" stroke-width="1" stroke-dashoffset="0" font-weight="normal" stroke-opacity="1">
<!--Generated by the Batik Graphics2D SVG Generator-->
<defs id="genericDefs"/>
<g>
<defs id="defs1">
<clipPath clipPathUnits="userSpaceOnUse" id="clipPath1">
<path d="M1027 22 L1069 22 L1069 64 L1027 64 L1027 22 Z"/>
</clipPath>
<clipPath clipPathUnits="userSpaceOnUse" id="clipPath2">
<path d="M1729 257 L1923 257 L1923 275 L1729 275 L1729 257 Z"/>
</clipPath>
<clipPath clipPathUnits="userSpaceOnUse" id="clipPath3">
<path d="M-1 -1 L1988 -1 L1988 812 L-1 812 L-1 -1 Z"/>
</clipPath>
<clipPath clipPathUnits="userSpaceOnUse" id="clipPath4">
<path d="M973 251 L1167 251 L1167 269 L973 269 L973 251 Z"/>
</clipPath>
<clipPath clipPathUnits="userSpaceOnUse" id="clipPath5">
<path d="M1449 405 L1643 405 L1643 423 L1449 423 L1449 405 Z"/>
</clipPath>
<clipPath clipPathUnits="userSpaceOnUse" id="clipPath6">
<path d="M477 346 L671 346 L671 364 L477 364 L477 346 Z"/>
</clipPath>
<clipPath clipPathUnits="userSpaceOnUse" id="clipPath7">
<path d="M29 518 L223 518 L223 536 L29 536 L29 518 Z"/>
</clipPath>
<clipPath clipPathUnits="userSpaceOnUse" id="clipPath8">
<path d="M22 332 L216 332 L216 350 L22 350 L22 332 Z"/>
</clipPath>
<clipPath clipPathUnits="userSpaceOnUse" id="clipPath9">
<path d="M31 690 L225 690 L225 708 L31 708 L31 690 Z"/>
</clipPath>
<clipPath clipPathUnits="userSpaceOnUse" id="clipPath10">
<path d="M651 276 L845 276 L845 294 L651 294 L651 276 Z"/>
</clipPath>
<clipPath clipPathUnits="userSpaceOnUse" id="clipPath11">
<path d="M1135 330 L1329 330 L1329 348 L1135 348 L1135 330 Z"/>
</clipPath>
<clipPath clipPathUnits="userSpaceOnUse" id="clipPath12">
<path d="M837 363 L1031 363 L1031 381 L837 381 L837 363 Z"/>
</clipPath>
<clipPath clipPathUnits="userSpaceOnUse" id="clipPath13">
<path d="M208 740 L402 740 L402 758 L208 758 L208 740 Z"/>
</clipPath>
<clipPath clipPathUnits="userSpaceOnUse" id="clipPath14">
<path d="M581 530 L775 530 L775 548 L581 548 L581 530 Z"/>
</clipPath>
<clipPath clipPathUnits="userSpaceOnUse" id="clipPath15">
<path d="M242 242 L436 242 L436 260 L242 260 L242 242 Z"/>
</clipPath>
<clipPath clipPathUnits="userSpaceOnUse" id="clipPath16">
<path d="M261 430 L455 430 L455 448 L261 448 L261 430 Z"/>
</clipPath>
</defs>
<g fill="rgb(255,203,203)" font-family="'Segoe UI'" stroke-linejoin="round" font-style="italic" stroke="rgb(255,203,203)" stroke-width="0" stroke-miterlimit="0">
<rect width="40" x="1263" height="40" y="405" stroke="none"/>
</g>
<g font-style="italic" font-family="'Segoe UI'" stroke-linecap="butt">
<rect fill="none" width="39" x="1263" height="39" y="405"/>
<text xml:space="preserve" x="1187" y="430" stroke="none">Invalid view - remove from diagram.</text>
<rect x="1937" y="246" fill="rgb(255,203,203)" width="40" height="40" stroke="none"/>
<rect x="1937" y="246" fill="none" width="39" height="39" stroke-width="0.1"/>
<text x="1860" y="271" font-style="normal" stroke="none" stroke-width="0.1" xml:space="preserve">Invalid view - remove from diagram.</text>
</g>
<g fill="rgb(255,203,203)" stroke-width="0.1" font-family="'Segoe UI'" stroke-linecap="butt" stroke="rgb(255,203,203)">
<rect width="164" x="1552" height="40" y="252" stroke="none"/>
<rect x="1552" y="252" fill="none" width="163" height="39" stroke="black"/>
<text fill="black" xml:space="preserve" x="1537" y="277" stroke="none">Invalid view - remove from diagram.</text>
<rect width="40" x="549" height="40" y="250" stroke="none"/>
<rect x="549" y="250" fill="none" width="39" height="39" stroke="black"/>
<text fill="black" xml:space="preserve" x="472" y="275" stroke="none">Invalid view - remove from diagram.</text>
<rect width="40" x="564" height="40" y="421" stroke="none"/>
<rect x="564" y="421" fill="none" width="39" height="39" stroke="black"/>
<text fill="black" xml:space="preserve" x="487" y="446" stroke="none">Invalid view - remove from diagram.</text>
<rect width="40" x="90" height="40" y="224" stroke="none"/>
<rect x="90" y="224" fill="none" width="39" height="39" stroke="black"/>
<text fill="black" xml:space="preserve" x="13" y="249" stroke="none">Invalid view - remove from diagram.</text>
<rect width="40" x="111" height="40" y="417" stroke="none"/>
<rect x="111" y="417" fill="none" width="39" height="39" stroke="black"/>
<text fill="black" xml:space="preserve" x="34" y="442" stroke="none">Invalid view - remove from diagram.</text>
<rect width="40" x="104" height="40" y="598" stroke="none"/>
<rect x="104" y="598" fill="none" width="39" height="39" stroke="black"/>
<text fill="black" xml:space="preserve" x="27" y="623" stroke="none">Invalid view - remove from diagram.</text>
<rect width="40" x="123" height="40" y="761" stroke="none"/>
<rect x="123" y="761" fill="none" width="39" height="39" stroke="black"/>
<text fill="black" xml:space="preserve" x="46" y="786" stroke="none">Invalid view - remove from diagram.</text>
<rect width="40" x="766" height="40" y="337" stroke="none"/>
<rect x="766" y="337" fill="none" width="39" height="39" stroke="black"/>
<text x="690" y="362" fill="black" font-style="italic" stroke="none" xml:space="preserve">Invalid view - remove from diagram.</text>
<rect width="40" x="1059" height="40" y="328" stroke="none"/>
<rect x="1059" y="328" fill="none" width="39" height="39" stroke="black"/>
<text x="983" y="353" fill="black" font-style="italic" stroke="none" xml:space="preserve">Invalid view - remove from diagram.</text>
<rect width="159" x="449" height="40" y="701" stroke="none"/>
<rect x="449" y="701" fill="none" width="158" height="39" stroke="black"/>
<text fill="black" xml:space="preserve" x="432" y="726" stroke="none">Invalid view - remove from diagram.</text>
<line fill="none" x1="1937" x2="1716" y1="266" y2="266" stroke="red" stroke-width="1.1"/>
<rect x="1028" y="23" clip-path="url(#clipPath1)" width="40" height="40" stroke="none" stroke-width="1.1"/>
<rect x="1028" y="23" clip-path="url(#clipPath1)" fill="none" width="39" height="39" stroke="black"/>
<text x="951" y="48" clip-path="url(#clipPath1)" fill="black" stroke="none" xml:space="preserve">Invalid view - remove from diagram.</text>
<rect x="1028" y="23" clip-path="url(#clipPath1)" width="40" height="40" stroke="none"/>
<rect x="1028" y="23" clip-path="url(#clipPath1)" fill="none" width="39" height="39" stroke="black"/>
<text x="951" y="48" clip-path="url(#clipPath1)" fill="black" stroke="none" xml:space="preserve">Invalid view - remove from diagram.</text>
<rect x="1028" y="23" clip-path="url(#clipPath1)" width="40" height="40" stroke="none"/>
<rect x="1028" y="23" clip-path="url(#clipPath1)" fill="none" width="39" height="39" stroke="black"/>
<text x="951" y="48" clip-path="url(#clipPath1)" fill="black" stroke="none" xml:space="preserve">Invalid view - remove from diagram.</text>
<rect x="1028" y="23" clip-path="url(#clipPath1)" width="40" height="40" stroke="none"/>
<rect x="1028" y="23" clip-path="url(#clipPath1)" fill="none" width="39" height="39" stroke="black"/>
<text x="951" y="48" clip-path="url(#clipPath1)" fill="black" stroke="none" xml:space="preserve">Invalid view - remove from diagram.</text>
<rect x="1028" y="23" clip-path="url(#clipPath1)" width="40" height="40" stroke="none"/>
<rect x="1028" y="23" clip-path="url(#clipPath1)" fill="none" width="39" height="39" stroke="black"/>
<text x="951" y="48" clip-path="url(#clipPath1)" fill="black" stroke="none" xml:space="preserve">Invalid view - remove from diagram.</text>
<text x="1730" y="271" clip-path="url(#clipPath2)" fill="red" stroke="none" xml:space="preserve">Invalid view - remove from diagram.</text>
<line clip-path="url(#clipPath3)" fill="none" x1="1552" x2="589" y1="260" y2="260" stroke="red" stroke-width="1.1"/>
<rect x="1028" y="23" clip-path="url(#clipPath1)" width="40" height="40" stroke="none" stroke-width="1.1"/>
<rect x="1028" y="23" clip-path="url(#clipPath1)" fill="none" width="39" height="39" stroke="black"/>
<text x="951" y="48" clip-path="url(#clipPath1)" fill="black" stroke="none" xml:space="preserve">Invalid view - remove from diagram.</text>
<rect x="1028" y="23" clip-path="url(#clipPath1)" width="40" height="40" stroke="none"/>
<rect x="1028" y="23" clip-path="url(#clipPath1)" fill="none" width="39" height="39" stroke="black"/>
<text x="951" y="48" clip-path="url(#clipPath1)" fill="black" stroke="none" xml:space="preserve">Invalid view - remove from diagram.</text>
<rect x="1028" y="23" clip-path="url(#clipPath1)" width="40" height="40" stroke="none"/>
<rect x="1028" y="23" clip-path="url(#clipPath1)" fill="none" width="39" height="39" stroke="black"/>
<text x="951" y="48" clip-path="url(#clipPath1)" fill="black" stroke="none" xml:space="preserve">Invalid view - remove from diagram.</text>
<rect x="1028" y="23" clip-path="url(#clipPath1)" width="40" height="40" stroke="none"/>
<rect x="1028" y="23" clip-path="url(#clipPath1)" fill="none" width="39" height="39" stroke="black"/>
<text x="951" y="48" clip-path="url(#clipPath1)" fill="black" stroke="none" xml:space="preserve">Invalid view - remove from diagram.</text>
<rect x="1028" y="23" clip-path="url(#clipPath1)" width="40" height="40" stroke="none"/>
<rect x="1028" y="23" clip-path="url(#clipPath1)" fill="none" width="39" height="39" stroke="black"/>
<text x="951" y="48" clip-path="url(#clipPath1)" fill="black" stroke="none" xml:space="preserve">Invalid view - remove from diagram.</text>
<text x="974" y="265" clip-path="url(#clipPath4)" fill="red" stroke="none" xml:space="preserve">Invalid view - remove from diagram.</text>
<line clip-path="url(#clipPath3)" fill="none" x1="1642" x2="1642" y1="292" y2="427" stroke="red" stroke-width="1.1"/>
<line clip-path="url(#clipPath3)" fill="none" x1="1642" x2="1554" y1="427" y2="427" stroke="red" stroke-width="1.1"/>
<line clip-path="url(#clipPath3)" fill="none" x1="1554" x2="1554" y1="427" y2="414" stroke="red" stroke-width="1.1"/>
<line clip-path="url(#clipPath3)" fill="none" x1="1554" x2="1303" y1="414" y2="414" stroke="red" stroke-width="1.1"/>
<rect x="1028" y="23" clip-path="url(#clipPath1)" width="40" height="40" stroke="none" stroke-width="1.1"/>
<rect x="1028" y="23" clip-path="url(#clipPath1)" fill="none" width="39" height="39" stroke="black"/>
<text x="951" y="48" clip-path="url(#clipPath1)" fill="black" stroke="none" xml:space="preserve">Invalid view - remove from diagram.</text>
<rect x="1028" y="23" clip-path="url(#clipPath1)" width="40" height="40" stroke="none"/>
<rect x="1028" y="23" clip-path="url(#clipPath1)" fill="none" width="39" height="39" stroke="black"/>
<text x="951" y="48" clip-path="url(#clipPath1)" fill="black" stroke="none" xml:space="preserve">Invalid view - remove from diagram.</text>
<rect x="1028" y="23" clip-path="url(#clipPath1)" width="40" height="40" stroke="none"/>
<rect x="1028" y="23" clip-path="url(#clipPath1)" fill="none" width="39" height="39" stroke="black"/>
<text x="951" y="48" clip-path="url(#clipPath1)" fill="black" stroke="none" xml:space="preserve">Invalid view - remove from diagram.</text>
<rect x="1028" y="23" clip-path="url(#clipPath1)" width="40" height="40" stroke="none"/>
<rect x="1028" y="23" clip-path="url(#clipPath1)" fill="none" width="39" height="39" stroke="black"/>
<text x="951" y="48" clip-path="url(#clipPath1)" fill="black" stroke="none" xml:space="preserve">Invalid view - remove from diagram.</text>
<rect x="1028" y="23" clip-path="url(#clipPath1)" width="40" height="40" stroke="none"/>
<rect x="1028" y="23" clip-path="url(#clipPath1)" fill="none" width="39" height="39" stroke="black"/>
<text x="951" y="48" clip-path="url(#clipPath1)" fill="black" stroke="none" xml:space="preserve">Invalid view - remove from diagram.</text>
<text x="1450" y="419" clip-path="url(#clipPath5)" fill="red" stroke="none" xml:space="preserve">Invalid view - remove from diagram.</text>
<line clip-path="url(#clipPath3)" fill="none" x1="565" x2="565" y1="290" y2="355" stroke="red" stroke-width="1.1"/>
<line clip-path="url(#clipPath3)" fill="none" x1="565" x2="582" y1="355" y2="355" stroke="red" stroke-width="1.1"/>
<line clip-path="url(#clipPath3)" fill="none" x1="582" x2="582" y1="355" y2="421" stroke="red" stroke-width="1.1"/>
<rect x="1028" y="23" clip-path="url(#clipPath1)" width="40" height="40" stroke="none" stroke-width="1.1"/>
<rect x="1028" y="23" clip-path="url(#clipPath1)" fill="none" width="39" height="39" stroke="black"/>
<text x="951" y="48" clip-path="url(#clipPath1)" fill="black" stroke="none" xml:space="preserve">Invalid view - remove from diagram.</text>
<rect x="1028" y="23" clip-path="url(#clipPath1)" width="40" height="40" stroke="none"/>
<rect x="1028" y="23" clip-path="url(#clipPath1)" fill="none" width="39" height="39" stroke="black"/>
<text x="951" y="48" clip-path="url(#clipPath1)" fill="black" stroke="none" xml:space="preserve">Invalid view - remove from diagram.</text>
<rect x="1028" y="23" clip-path="url(#clipPath1)" width="40" height="40" stroke="none"/>
<rect x="1028" y="23" clip-path="url(#clipPath1)" fill="none" width="39" height="39" stroke="black"/>
<text x="951" y="48" clip-path="url(#clipPath1)" fill="black" stroke="none" xml:space="preserve">Invalid view - remove from diagram.</text>
<rect x="1028" y="23" clip-path="url(#clipPath1)" width="40" height="40" stroke="none"/>
<rect x="1028" y="23" clip-path="url(#clipPath1)" fill="none" width="39" height="39" stroke="black"/>
<text x="951" y="48" clip-path="url(#clipPath1)" fill="black" stroke="none" xml:space="preserve">Invalid view - remove from diagram.</text>
<rect x="1028" y="23" clip-path="url(#clipPath1)" width="40" height="40" stroke="none"/>
<rect x="1028" y="23" clip-path="url(#clipPath1)" fill="none" width="39" height="39" stroke="black"/>
<text x="951" y="48" clip-path="url(#clipPath1)" fill="black" stroke="none" xml:space="preserve">Invalid view - remove from diagram.</text>
<text x="478" y="360" clip-path="url(#clipPath6)" fill="red" stroke="none" xml:space="preserve">Invalid view - remove from diagram.</text>
<line clip-path="url(#clipPath3)" fill="none" x1="135" x2="135" y1="457" y2="527" stroke="red" stroke-width="1.1"/>
<line clip-path="url(#clipPath3)" fill="none" x1="135" x2="118" y1="527" y2="527" stroke="red" stroke-width="1.1"/>
<line clip-path="url(#clipPath3)" fill="none" x1="118" x2="118" y1="527" y2="598" stroke="red" stroke-width="1.1"/>
<rect x="1028" y="23" clip-path="url(#clipPath1)" width="40" height="40" stroke="none" stroke-width="1.1"/>
<rect x="1028" y="23" clip-path="url(#clipPath1)" fill="none" width="39" height="39" stroke="black"/>
<text x="951" y="48" clip-path="url(#clipPath1)" fill="black" stroke="none" xml:space="preserve">Invalid view - remove from diagram.</text>
<rect x="1028" y="23" clip-path="url(#clipPath1)" width="40" height="40" stroke="none"/>
<rect x="1028" y="23" clip-path="url(#clipPath1)" fill="none" width="39" height="39" stroke="black"/>
<text x="951" y="48" clip-path="url(#clipPath1)" fill="black" stroke="none" xml:space="preserve">Invalid view - remove from diagram.</text>
<rect x="1028" y="23" clip-path="url(#clipPath1)" width="40" height="40" stroke="none"/>
<rect x="1028" y="23" clip-path="url(#clipPath1)" fill="none" width="39" height="39" stroke="black"/>
<text x="951" y="48" clip-path="url(#clipPath1)" fill="black" stroke="none" xml:space="preserve">Invalid view - remove from diagram.</text>
<rect x="1028" y="23" clip-path="url(#clipPath1)" width="40" height="40" stroke="none"/>
<rect x="1028" y="23" clip-path="url(#clipPath1)" fill="none" width="39" height="39" stroke="black"/>
<text x="951" y="48" clip-path="url(#clipPath1)" fill="black" stroke="none" xml:space="preserve">Invalid view - remove from diagram.</text>
<rect x="1028" y="23" clip-path="url(#clipPath1)" width="40" height="40" stroke="none"/>
<rect x="1028" y="23" clip-path="url(#clipPath1)" fill="none" width="39" height="39" stroke="black"/>
<text x="951" y="48" clip-path="url(#clipPath1)" fill="black" stroke="none" xml:space="preserve">Invalid view - remove from diagram.</text>
<text x="30" y="532" clip-path="url(#clipPath7)" fill="red" stroke="none" xml:space="preserve">Invalid view - remove from diagram.</text>
<line clip-path="url(#clipPath3)" fill="none" x1="119" x2="119" y1="264" y2="417" stroke="red" stroke-width="1.1"/>
<rect x="1028" y="23" clip-path="url(#clipPath1)" width="40" height="40" stroke="none" stroke-width="1.1"/>
<rect x="1028" y="23" clip-path="url(#clipPath1)" fill="none" width="39" height="39" stroke="black"/>
<text x="951" y="48" clip-path="url(#clipPath1)" fill="black" stroke="none" xml:space="preserve">Invalid view - remove from diagram.</text>
<rect x="1028" y="23" clip-path="url(#clipPath1)" width="40" height="40" stroke="none"/>
<rect x="1028" y="23" clip-path="url(#clipPath1)" fill="none" width="39" height="39" stroke="black"/>
<text x="951" y="48" clip-path="url(#clipPath1)" fill="black" stroke="none" xml:space="preserve">Invalid view - remove from diagram.</text>
<rect x="1028" y="23" clip-path="url(#clipPath1)" width="40" height="40" stroke="none"/>
<rect x="1028" y="23" clip-path="url(#clipPath1)" fill="none" width="39" height="39" stroke="black"/>
<text x="951" y="48" clip-path="url(#clipPath1)" fill="black" stroke="none" xml:space="preserve">Invalid view - remove from diagram.</text>
<rect x="1028" y="23" clip-path="url(#clipPath1)" width="40" height="40" stroke="none"/>
<rect x="1028" y="23" clip-path="url(#clipPath1)" fill="none" width="39" height="39" stroke="black"/>
<text x="951" y="48" clip-path="url(#clipPath1)" fill="black" stroke="none" xml:space="preserve">Invalid view - remove from diagram.</text>
<rect x="1028" y="23" clip-path="url(#clipPath1)" width="40" height="40" stroke="none"/>
<rect x="1028" y="23" clip-path="url(#clipPath1)" fill="none" width="39" height="39" stroke="black"/>
<text x="951" y="48" clip-path="url(#clipPath1)" fill="black" stroke="none" xml:space="preserve">Invalid view - remove from diagram.</text>
<text x="23" y="346" clip-path="url(#clipPath8)" fill="red" stroke="none" xml:space="preserve">Invalid view - remove from diagram.</text>
<line clip-path="url(#clipPath3)" fill="none" x1="120" x2="120" y1="638" y2="699" stroke="red" stroke-width="1.1"/>
<line clip-path="url(#clipPath3)" fill="none" x1="120" x2="135" y1="699" y2="699" stroke="red" stroke-width="1.1"/>
<line clip-path="url(#clipPath3)" fill="none" x1="135" x2="135" y1="699" y2="761" stroke="red" stroke-width="1.1"/>
<rect x="1028" y="23" clip-path="url(#clipPath1)" width="40" height="40" stroke="none" stroke-width="1.1"/>
<rect x="1028" y="23" clip-path="url(#clipPath1)" fill="none" width="39" height="39" stroke="black"/>
<text x="951" y="48" clip-path="url(#clipPath1)" fill="black" stroke="none" xml:space="preserve">Invalid view - remove from diagram.</text>
<rect x="1028" y="23" clip-path="url(#clipPath1)" width="40" height="40" stroke="none"/>
<rect x="1028" y="23" clip-path="url(#clipPath1)" fill="none" width="39" height="39" stroke="black"/>
<text x="951" y="48" clip-path="url(#clipPath1)" fill="black" stroke="none" xml:space="preserve">Invalid view - remove from diagram.</text>
<rect x="1028" y="23" clip-path="url(#clipPath1)" width="40" height="40" stroke="none"/>
<rect x="1028" y="23" clip-path="url(#clipPath1)" fill="none" width="39" height="39" stroke="black"/>
<text x="951" y="48" clip-path="url(#clipPath1)" fill="black" stroke="none" xml:space="preserve">Invalid view - remove from diagram.</text>
<rect x="1028" y="23" clip-path="url(#clipPath1)" width="40" height="40" stroke="none"/>
<rect x="1028" y="23" clip-path="url(#clipPath1)" fill="none" width="39" height="39" stroke="black"/>
<text x="951" y="48" clip-path="url(#clipPath1)" fill="black" stroke="none" xml:space="preserve">Invalid view - remove from diagram.</text>
<rect x="1028" y="23" clip-path="url(#clipPath1)" width="40" height="40" stroke="none"/>
<rect x="1028" y="23" clip-path="url(#clipPath1)" fill="none" width="39" height="39" stroke="black"/>
<text x="951" y="48" clip-path="url(#clipPath1)" fill="black" stroke="none" xml:space="preserve">Invalid view - remove from diagram.</text>
<text x="32" y="704" clip-path="url(#clipPath9)" fill="red" stroke="none" xml:space="preserve">Invalid view - remove from diagram.</text>
<line clip-path="url(#clipPath3)" fill="none" x1="766" x2="766" y1="337" y2="272" stroke="red" stroke-width="1.1"/>
<line clip-path="url(#clipPath3)" fill="none" x1="766" x2="798" y1="272" y2="272" stroke="red" stroke-width="1.1"/>
<line clip-path="url(#clipPath3)" fill="none" x1="798" x2="798" y1="272" y2="285" stroke="red" stroke-width="1.1"/>
<line clip-path="url(#clipPath3)" fill="none" x1="798" x2="589" y1="285" y2="285" stroke="red" stroke-width="1.1"/>
<rect x="1028" y="23" clip-path="url(#clipPath1)" width="40" height="40" stroke="none" stroke-width="1.1"/>
<rect x="1028" y="23" clip-path="url(#clipPath1)" fill="none" width="39" height="39" stroke="black"/>
<text x="951" y="48" clip-path="url(#clipPath1)" fill="black" stroke="none" xml:space="preserve">Invalid view - remove from diagram.</text>
<rect x="1028" y="23" clip-path="url(#clipPath1)" width="40" height="40" stroke="none"/>
<rect x="1028" y="23" clip-path="url(#clipPath1)" fill="none" width="39" height="39" stroke="black"/>
<text x="951" y="48" clip-path="url(#clipPath1)" fill="black" stroke="none" xml:space="preserve">Invalid view - remove from diagram.</text>
<rect x="1028" y="23" clip-path="url(#clipPath1)" width="40" height="40" stroke="none"/>
<rect x="1028" y="23" clip-path="url(#clipPath1)" fill="none" width="39" height="39" stroke="black"/>
<text x="951" y="48" clip-path="url(#clipPath1)" fill="black" stroke="none" xml:space="preserve">Invalid view - remove from diagram.</text>
<rect x="1028" y="23" clip-path="url(#clipPath1)" width="40" height="40" stroke="none"/>
<rect x="1028" y="23" clip-path="url(#clipPath1)" fill="none" width="39" height="39" stroke="black"/>
<text x="951" y="48" clip-path="url(#clipPath1)" fill="black" stroke="none" xml:space="preserve">Invalid view - remove from diagram.</text>
<rect x="1028" y="23" clip-path="url(#clipPath1)" width="40" height="40" stroke="none"/>
<rect x="1028" y="23" clip-path="url(#clipPath1)" fill="none" width="39" height="39" stroke="black"/>
<text x="951" y="48" clip-path="url(#clipPath1)" fill="black" stroke="none" xml:space="preserve">Invalid view - remove from diagram.</text>
<text x="652" y="290" clip-path="url(#clipPath10)" fill="red" stroke="none" xml:space="preserve">Invalid view - remove from diagram.</text>
<line clip-path="url(#clipPath3)" fill="none" x1="1283" x2="1283" y1="405" y2="332" stroke="red" stroke-width="1.1"/>
<line clip-path="url(#clipPath3)" fill="none" x1="1283" x2="1280" y1="332" y2="332" stroke="red" stroke-width="1.1"/>
<line clip-path="url(#clipPath3)" fill="none" x1="1280" x2="1280" y1="332" y2="339" stroke="red" stroke-width="1.1"/>
<line clip-path="url(#clipPath3)" fill="none" x1="1280" x2="1099" y1="339" y2="339" stroke="red" stroke-width="1.1"/>
<rect x="1028" y="23" clip-path="url(#clipPath1)" width="40" height="40" stroke="none" stroke-width="1.1"/>
<rect x="1028" y="23" clip-path="url(#clipPath1)" fill="none" width="39" height="39" stroke="black"/>
<text x="951" y="48" clip-path="url(#clipPath1)" fill="black" stroke="none" xml:space="preserve">Invalid view - remove from diagram.</text>
<rect x="1028" y="23" clip-path="url(#clipPath1)" width="40" height="40" stroke="none"/>
<rect x="1028" y="23" clip-path="url(#clipPath1)" fill="none" width="39" height="39" stroke="black"/>
<text x="951" y="48" clip-path="url(#clipPath1)" fill="black" stroke="none" xml:space="preserve">Invalid view - remove from diagram.</text>
<rect x="1028" y="23" clip-path="url(#clipPath1)" width="40" height="40" stroke="none"/>
<rect x="1028" y="23" clip-path="url(#clipPath1)" fill="none" width="39" height="39" stroke="black"/>
<text x="951" y="48" clip-path="url(#clipPath1)" fill="black" stroke="none" xml:space="preserve">Invalid view - remove from diagram.</text>
<rect x="1028" y="23" clip-path="url(#clipPath1)" width="40" height="40" stroke="none"/>
<rect x="1028" y="23" clip-path="url(#clipPath1)" fill="none" width="39" height="39" stroke="black"/>
<text x="951" y="48" clip-path="url(#clipPath1)" fill="black" stroke="none" xml:space="preserve">Invalid view - remove from diagram.</text>
<rect x="1028" y="23" clip-path="url(#clipPath1)" width="40" height="40" stroke="none"/>
<rect x="1028" y="23" clip-path="url(#clipPath1)" fill="none" width="39" height="39" stroke="black"/>
<text x="951" y="48" clip-path="url(#clipPath1)" fill="black" stroke="none" xml:space="preserve">Invalid view - remove from diagram.</text>
<text x="1136" y="344" clip-path="url(#clipPath11)" fill="red" stroke="none" xml:space="preserve">Invalid view - remove from diagram.</text>
<line clip-path="url(#clipPath3)" fill="none" x1="1059" x2="1059" y1="368" y2="372" stroke="red" stroke-width="1.1"/>
<line clip-path="url(#clipPath3)" fill="none" x1="1059" x2="806" y1="372" y2="372" stroke="red" stroke-width="1.1"/>
<rect x="1028" y="23" clip-path="url(#clipPath1)" width="40" height="40" stroke="none" stroke-width="1.1"/>
<rect x="1028" y="23" clip-path="url(#clipPath1)" fill="none" width="39" height="39" stroke="black"/>
<text x="951" y="48" clip-path="url(#clipPath1)" fill="black" stroke="none" xml:space="preserve">Invalid view - remove from diagram.</text>
<text x="838" y="377" clip-path="url(#clipPath12)" fill="red" stroke="none" xml:space="preserve">Invalid view - remove from diagram.</text>
<line clip-path="url(#clipPath3)" fill="none" x1="449" x2="163" y1="723" y2="774" stroke="red" stroke-width="1.1"/>
<text x="209" y="754" clip-path="url(#clipPath13)" fill="red" stroke="none" stroke-width="1.1" xml:space="preserve">Invalid view - remove from diagram.</text>
<line clip-path="url(#clipPath3)" fill="none" x1="585" x2="771" y1="701" y2="377" stroke="red" stroke-width="1.1"/>
<text x="582" y="544" clip-path="url(#clipPath14)" fill="red" stroke="none" stroke-width="1.1" xml:space="preserve">Invalid view - remove from diagram.</text>
<line clip-path="url(#clipPath3)" fill="none" x1="130" x2="339" y1="242" y2="242" stroke="red" stroke-width="1.1"/>
<line clip-path="url(#clipPath3)" fill="none" x1="339" x2="339" y1="242" y2="258" stroke="red" stroke-width="1.1"/>
<line clip-path="url(#clipPath3)" fill="none" x1="339" x2="549" y1="258" y2="258" stroke="red" stroke-width="1.1"/>
<rect x="1028" y="23" clip-path="url(#clipPath1)" width="40" height="40" stroke="none" stroke-width="1.1"/>
<rect x="1028" y="23" clip-path="url(#clipPath1)" fill="none" width="39" height="39" stroke="black"/>
<text x="951" y="48" clip-path="url(#clipPath1)" fill="black" stroke="none" xml:space="preserve">Invalid view - remove from diagram.</text>
<rect x="1028" y="23" clip-path="url(#clipPath1)" width="40" height="40" stroke="none"/>
<rect x="1028" y="23" clip-path="url(#clipPath1)" fill="none" width="39" height="39" stroke="black"/>
<text x="951" y="48" clip-path="url(#clipPath1)" fill="black" stroke="none" xml:space="preserve">Invalid view - remove from diagram.</text>
<text x="243" y="256" clip-path="url(#clipPath15)" fill="red" stroke="none" xml:space="preserve">Invalid view - remove from diagram.</text>
<line clip-path="url(#clipPath3)" fill="none" x1="151" x2="564" y1="439" y2="439" stroke="red" stroke-width="1.1"/>
<rect x="1028" y="23" clip-path="url(#clipPath1)" width="40" height="40" stroke="none" stroke-width="1.1"/>
<rect x="1028" y="23" clip-path="url(#clipPath1)" fill="none" width="39" height="39" stroke="black"/>
<text x="951" y="48" clip-path="url(#clipPath1)" fill="black" stroke="none" xml:space="preserve">Invalid view - remove from diagram.</text>
<rect x="1028" y="23" clip-path="url(#clipPath1)" width="40" height="40" stroke="none"/>
<rect x="1028" y="23" clip-path="url(#clipPath1)" fill="none" width="39" height="39" stroke="black"/>
<text x="951" y="48" clip-path="url(#clipPath1)" fill="black" stroke="none" xml:space="preserve">Invalid view - remove from diagram.</text>
<text x="262" y="444" clip-path="url(#clipPath16)" fill="red" stroke="none" xml:space="preserve">Invalid view - remove from diagram.</text>
</g>
</g>
<rect x="1263" y="405" fill-opacity="0" width="40" title="An individual physical connection point (male or female) that is not relevantly divisible.&#13;&#10;May be capable of carrying electrical or optical signals. &#13;&#10;A pin normally has only one wire/fiber strand attached. &#13;&#10;It may have more than one wire/fiber attached but is such that the attachment forms a physical merge (all attached things receive exactly the same signal and any inputs to the pin are electrically/optically merged)." id="Pin" height="40" stroke-opacity="0">
<title>An individual physical connection point (male or female) that is not relevantly divisible.&#13;
May be capable of carrying electrical or optical signals. &#13;
A pin normally has only one wire/fiber strand attached. &#13;
It may have more than one wire/fiber attached but is such that the attachment forms a physical merge (all attached things receive exactly the same signal and any inputs to the pin are electrically/optically merged).</title>
</rect>
<rect x="1937" y="246" fill-opacity="0" width="40" title="The ForwardingConstruct (FC) class models enabled constrained potential for forwarding between two or more FcPorts at a particular specific layerProtocol .&#13;&#10;Like the LTP, the FC supports any transport protocol including all analogue, circuit and packet forms.&#13;&#10;For digital layer networks it is used to effect forwarding of transport characteristic (layer protocol) information.&#13;&#10;An FC can be in only one ForwardingDomain (FD).&#13;&#10;The FC is a forwarding entity.&#13;&#10;At a low level of the recursion, a FC represents a cross-connection within an NE. It may also represent a fragment of a cross-connection under certain circumstances.&#13;&#10;The FC object can be used to represent many different structures including point-to-point (P2P), point-to-multipoint (P2MP), rooted-multipoint (RMP) and multipoint-to-multipoint (MP2MP) bridge and selector structures for linear, ring or mesh protection schemes.&#13;&#10;When applied to media, the FC represents the ability for a flow/wave (potentially containing information), to be propagated between FcPorts. &#13;&#10;The existence of a FC instance is independent of the presence (or absence) of a flow/wave (and any information encoded within it).  &#13;&#10;A flow/wave cannot propagate in the absence of a FC instance." id="ForwardingConstruct" height="40" stroke-opacity="0">
<title>The ForwardingConstruct (FC) class models enabled constrained potential for forwarding between two or more FcPorts at a particular specific layerProtocol .&#13;
Like the LTP, the FC supports any transport protocol including all analogue, circuit and packet forms.&#13;
For digital layer networks it is used to effect forwarding of transport characteristic (layer protocol) information.&#13;
An FC can be in only one ForwardingDomain (FD).&#13;
The FC is a forwarding entity.&#13;
At a low level of the recursion, a FC represents a cross-connection within an NE. It may also represent a fragment of a cross-connection under certain circumstances.&#13;
The FC object can be used to represent many different structures including point-to-point (P2P), point-to-multipoint (P2MP), rooted-multipoint (RMP) and multipoint-to-multipoint (MP2MP) bridge and selector structures for linear, ring or mesh protection schemes.&#13;
When applied to media, the FC represents the ability for a flow/wave (potentially containing information), to be propagated between FcPorts. &#13;
The existence of a FC instance is independent of the presence (or absence) of a flow/wave (and any information encoded within it).  &#13;
A flow/wave cannot propagate in the absence of a FC instance.</title>
</rect>
<rect x="1552" y="252" fill-opacity="0" width="164" title="The association of the FC to LTPs is always made via FcPorts.&#13;&#10;In the case of media the association between FCs is made via their FcPorts and the association of an FC to the physical Pin is made via the FcPort.&#13;&#10;The FcPort class models the access to the FC function. &#13;&#10;The traffic forwarding between the associated FcPorts of the FC depends upon the type of FC and may be associated with FcSwitch object instances.  &#13;&#10;In cases where there is resilience, the FcPort may convey the resilience role of the access to the FC. &#13;&#10;It can represent a protected (resilient/reliable) point or a protecting (unreliable working or protection) point.&#13;&#10;The FcPort replaces the Protection Unit of a traditional protection model. &#13;&#10;The ForwardingConstruct can be considered as a component and the FcPort as a Port on that component." id="FcPort" height="40" stroke-opacity="0">
<title>The association of the FC to LTPs is always made via FcPorts.&#13;
In the case of media the association between FCs is made via their FcPorts and the association of an FC to the physical Pin is made via the FcPort.&#13;
The FcPort class models the access to the FC function. &#13;
The traffic forwarding between the associated FcPorts of the FC depends upon the type of FC and may be associated with FcSwitch object instances.  &#13;
In cases where there is resilience, the FcPort may convey the resilience role of the access to the FC. &#13;
It can represent a protected (resilient/reliable) point or a protecting (unreliable working or protection) point.&#13;
The FcPort replaces the Protection Unit of a traditional protection model. &#13;
The ForwardingConstruct can be considered as a component and the FcPort as a Port on that component.</title>
</rect>
<rect x="549" y="250" fill-opacity="0" width="40" title="The LogicalTerminationPoint (LTP) class encapsulates the termination and adaptation functions of one or more transport layers represented by instances of LayerProtocol.&#13;&#10;The encapsulated transport layers have a simple fixed 1:1 client-server relationship defined by association end ordering.&#13;&#10;The structure of LTP supports all transport protocols including circuit and packet forms." id="LogicalTerminationPoint" height="40" stroke-opacity="0">
<title>The LogicalTerminationPoint (LTP) class encapsulates the termination and adaptation functions of one or more transport layers represented by instances of LayerProtocol.&#13;
The encapsulated transport layers have a simple fixed 1:1 client-server relationship defined by association end ordering.&#13;
The structure of LTP supports all transport protocols including circuit and packet forms.</title>
</rect>
<rect x="564" y="421" fill-opacity="0" width="40" title="The projection of an LTP into each transport layer is represented by a LayerProtocol (LP) instance. A LayerProtocol instance can be used for controlling termination and monitoring functionality. &#13;&#10;It can also be used for controlling the adaptation (i.e. encapsulation and/or multiplexing of client signal), tandem connection monitoring, traffic conditioning and/or shaping functionality at an intermediate point along a connection. &#13;&#10;Where the client – server relationship is fixed 1:1 and immutable, the layers can be encapsulated in a single LTP instance. Where there is a n:1 relationship between client and server, the layers must be split over two separate instances of LTP. " id="LayerProtocol" height="40" stroke-opacity="0">
<title>The projection of an LTP into each transport layer is represented by a LayerProtocol (LP) instance. A LayerProtocol instance can be used for controlling termination and monitoring functionality. &#13;
It can also be used for controlling the adaptation (i.e. encapsulation and/or multiplexing of client signal), tandem connection monitoring, traffic conditioning and/or shaping functionality at an intermediate point along a connection. &#13;
Where the client – server relationship is fixed 1:1 and immutable, the layers can be encapsulated in a single LTP instance. Where there is a n:1 relationship between client and server, the layers must be split over two separate instances of LTP. </title>
</rect>
<rect x="90" y="224" fill-opacity="0" width="40" title="The specification of a specific type of LTP." id="LtpSpec" height="40" stroke-opacity="0">
<title>The specification of a specific type of LTP.</title>
</rect>
<rect x="111" y="417" fill-opacity="0" width="40" title="The specification of the capabilities of a specific type of LP." id="LpSpec" height="40" stroke-opacity="0">
<title>The specification of the capabilities of a specific type of LP.</title>
</rect>
<rect x="104" y="598" fill-opacity="0" width="40" title="The specification of the layer protocol termination (including framing, modulation etc.).&#13;&#10;For example, the specification of the function that takes a MAC frame and extracts the content (removing the MAC address in the process)." id="TerminationSpec" height="40" stroke-opacity="0">
<title>The specification of the layer protocol termination (including framing, modulation etc.).&#13;
For example, the specification of the function that takes a MAC frame and extracts the content (removing the MAC address in the process).</title>
</rect>
<rect x="123" y="761" fill-opacity="0" width="40" title="The specification of the flexibility of the association between the ConnectionPoint and the Termination of the LP." id="ConnectionSpec" height="40" stroke-opacity="0">
<title>The specification of the flexibility of the association between the ConnectionPoint and the Termination of the LP.</title>
</rect>
<rect x="766" y="337" fill-opacity="0" width="40" title="A conceptual access for a group of signals (where that group of signals cannot be separated)." id="AccessPort" height="40" stroke-opacity="0">
<title>A conceptual access for a group of signals (where that group of signals cannot be separated).</title>
</rect>
<rect x="1059" y="328" fill-opacity="0" width="40" title="A group of pins that together provide signal group where any one pin removed from the group will prevent the signals of the signal group from flowing successfully." id="PinGroup" height="40" stroke-opacity="0">
<title>A group of pins that together provide signal group where any one pin removed from the group will prevent the signals of the signal group from flowing successfully.</title>
</rect>
<rect x="449" y="701" fill-opacity="0" width="159" height="40" stroke-opacity="0"/>
</svg>
