<?xml version="1.0" encoding="UTF-8"?><svg xmlns="http://www.w3.org/2000/svg" xmlns:xlink="http://www.w3.org/1999/xlink" stroke-dasharray="none" shape-rendering="auto" font-family="'Dialog'" width="1569" text-rendering="auto" fill-opacity="1" contentScriptType="text/ecmascript" color-interpolation="auto" color-rendering="auto" preserveAspectRatio="xMidYMid meet" font-size="12" viewBox="0 0 1569 1064" fill="black" stroke="black" image-rendering="auto" stroke-miterlimit="10" zoomAndPan="magnify" version="1.0" stroke-linecap="square" stroke-linejoin="miter" contentStyleType="text/css" font-style="normal" height="1064" stroke-width="1" stroke-dashoffset="0" font-weight="normal" stroke-opacity="1">
<!--Generated by the Batik Graphics2D SVG Generator-->
<defs id="genericDefs"/>
<g>
<defs id="defs1">
<clipPath clipPathUnits="userSpaceOnUse" id="clipPath1">
<path d="M219 22 L261 22 L261 64 L219 64 L219 22 Z"/>
</clipPath>
<clipPath clipPathUnits="userSpaceOnUse" id="clipPath2">
<path d="M401 480 L595 480 L595 498 L401 498 L401 480 Z"/>
</clipPath>
<clipPath clipPathUnits="userSpaceOnUse" id="clipPath3">
<path d="M-1 -1 L1570 -1 L1570 1065 L-1 1065 L-1 -1 Z"/>
</clipPath>
<clipPath clipPathUnits="userSpaceOnUse" id="clipPath4">
<path d="M22 501 L216 501 L216 519 L22 519 L22 501 Z"/>
</clipPath>
<clipPath clipPathUnits="userSpaceOnUse" id="clipPath5">
<path d="M124 505 L318 505 L318 523 L124 523 L124 505 Z"/>
</clipPath>
<clipPath clipPathUnits="userSpaceOnUse" id="clipPath6">
<path d="M500 100 L694 100 L694 118 L500 118 L500 100 Z"/>
</clipPath>
<clipPath clipPathUnits="userSpaceOnUse" id="clipPath7">
<path d="M500 168 L694 168 L694 186 L500 186 L500 168 Z"/>
</clipPath>
<clipPath clipPathUnits="userSpaceOnUse" id="clipPath8">
<path d="M513 389 L707 389 L707 407 L513 407 L513 389 Z"/>
</clipPath>
<clipPath clipPathUnits="userSpaceOnUse" id="clipPath9">
<path d="M777 501 L971 501 L971 519 L777 519 L777 501 Z"/>
</clipPath>
<clipPath clipPathUnits="userSpaceOnUse" id="clipPath10">
<path d="M942 502 L1136 502 L1136 520 L942 520 L942 502 Z"/>
</clipPath>
<clipPath clipPathUnits="userSpaceOnUse" id="clipPath11">
<path d="M1217 753 L1411 753 L1411 771 L1217 771 L1217 753 Z"/>
</clipPath>
<clipPath clipPathUnits="userSpaceOnUse" id="clipPath12">
<path d="M1161 889 L1355 889 L1355 907 L1161 907 L1161 889 Z"/>
</clipPath>
<clipPath clipPathUnits="userSpaceOnUse" id="clipPath13">
<path d="M730 886 L924 886 L924 904 L730 904 L730 886 Z"/>
</clipPath>
<clipPath clipPathUnits="userSpaceOnUse" id="clipPath14">
<path d="M1331 814 L1525 814 L1525 832 L1331 832 L1331 814 Z"/>
</clipPath>
<clipPath clipPathUnits="userSpaceOnUse" id="clipPath15">
<path d="M791 860 L985 860 L985 878 L791 878 L791 860 Z"/>
</clipPath>
<clipPath clipPathUnits="userSpaceOnUse" id="clipPath16">
<path d="M802 989 L996 989 L996 1007 L802 1007 L802 989 Z"/>
</clipPath>
<clipPath clipPathUnits="userSpaceOnUse" id="clipPath17">
<path d="M299 882 L493 882 L493 900 L299 900 L299 882 Z"/>
</clipPath>
<clipPath clipPathUnits="userSpaceOnUse" id="clipPath18">
<path d="M299 889 L493 889 L493 907 L299 907 L299 889 Z"/>
</clipPath>
<clipPath clipPathUnits="userSpaceOnUse" id="clipPath19">
<path d="M405 947 L599 947 L599 965 L405 965 L405 947 Z"/>
</clipPath>
<clipPath clipPathUnits="userSpaceOnUse" id="clipPath20">
<path d="M344 879 L538 879 L538 897 L344 897 L344 879 Z"/>
</clipPath>
<clipPath clipPathUnits="userSpaceOnUse" id="clipPath21">
<path d="M282 248 L476 248 L476 266 L282 266 L282 248 Z"/>
</clipPath>
<clipPath clipPathUnits="userSpaceOnUse" id="clipPath22">
<path d="M1332 957 L1526 957 L1526 975 L1332 975 L1332 957 Z"/>
</clipPath>
<clipPath clipPathUnits="userSpaceOnUse" id="clipPath23">
<path d="M623 975 L817 975 L817 993 L623 993 L623 975 Z"/>
</clipPath>
</defs>
<g fill="rgb(255,203,203)" font-family="'Segoe UI'" stroke-linejoin="round" stroke="rgb(255,203,203)" stroke-width="0" stroke-miterlimit="0">
<rect width="40" x="417" height="40" y="86" stroke="none"/>
</g>
<g stroke-linecap="butt" font-family="'Segoe UI'">
<rect fill="none" width="39" x="417" height="39" y="86"/>
<text xml:space="preserve" x="340" y="111" stroke="none">Invalid view - remove from diagram.</text>
<rect x="737" y="86" fill="rgb(255,203,203)" width="40" height="40" stroke="none"/>
<rect x="737" y="86" fill="none" width="39" height="39" stroke-width="0.1"/>
<text xml:space="preserve" x="660" stroke-width="0.1" y="111" stroke="none">Invalid view - remove from diagram.</text>
<rect x="737" y="210" fill="rgb(255,203,203)" width="40" height="40" stroke="none" stroke-width="0.1"/>
<rect x="737" y="210" fill="none" width="39" height="39" stroke-width="0.1"/>
<text xml:space="preserve" x="660" stroke-width="0.1" y="235" stroke="none">Invalid view - remove from diagram.</text>
<rect x="299" y="387" fill="rgb(255,203,203)" width="40" height="40" stroke="none" stroke-width="0.1"/>
<rect x="299" y="387" fill="none" width="39" height="39" stroke-width="0.1"/>
<text xml:space="preserve" x="222" stroke-width="0.1" y="412" stroke="none">Invalid view - remove from diagram.</text>
<rect x="880" y="384" fill="rgb(255,203,203)" width="40" height="40" stroke="none" stroke-width="0.1"/>
<rect x="880" y="384" fill="none" width="39" height="39" stroke-width="0.1"/>
<text xml:space="preserve" x="803" stroke-width="0.1" y="409" stroke="none">Invalid view - remove from diagram.</text>
<rect x="1149" y="598" fill="rgb(255,203,203)" width="40" height="40" stroke="none" stroke-width="0.1"/>
<rect x="1149" y="598" fill="none" width="39" height="39" stroke-width="0.1"/>
<text xml:space="preserve" x="1072" stroke-width="0.1" y="623" stroke="none">Invalid view - remove from diagram.</text>
<rect x="843" y="596" fill="rgb(255,203,203)" width="40" height="40" stroke="none" stroke-width="0.1"/>
<rect x="843" y="596" fill="none" width="39" height="39" stroke-width="0.1"/>
<text xml:space="preserve" x="766" stroke-width="0.1" y="621" stroke="none">Invalid view - remove from diagram.</text>
<rect x="917" y="210" fill="rgb(255,203,203)" width="251" height="48" stroke="none" stroke-width="0.1"/>
<rect x="917" y="210" fill="none" width="250" height="47" stroke-width="0.1"/>
<text xml:space="preserve" x="946" stroke-width="0.1" y="239" stroke="none">Invalid view - remove from diagram.</text>
<rect x="1439" y="886" fill="rgb(255,203,203)" width="40" height="40" stroke="none" stroke-width="0.1"/>
<rect x="1439" y="886" fill="none" width="39" height="39" stroke-width="0.1"/>
<text xml:space="preserve" x="1362" stroke-width="0.1" y="911" stroke="none">Invalid view - remove from diagram.</text>
<rect x="310" y="675" fill="rgb(255,203,203)" width="409" height="40" stroke="none" stroke-width="0.1"/>
<rect x="310" y="675" fill="none" width="408" height="39" stroke-width="0.1"/>
<text xml:space="preserve" x="418" stroke-width="0.1" y="700" stroke="none">Invalid view - remove from diagram.</text>
<rect x="1262" y="364" fill="rgb(255,203,203)" width="40" height="40" stroke="none" stroke-width="0.1"/>
<rect x="1262" y="364" fill="none" width="39" height="39" stroke-width="0.1"/>
<text xml:space="preserve" x="1185" stroke-width="0.1" y="389" stroke="none">Invalid view - remove from diagram.</text>
<rect x="1037" y="885" fill="rgb(255,203,203)" width="40" height="40" stroke="none" stroke-width="0.1"/>
<rect x="1037" y="885" fill="none" width="39" height="39" stroke-width="0.1"/>
<text xml:space="preserve" x="960" stroke-width="0.1" y="910" stroke="none">Invalid view - remove from diagram.</text>
<rect x="577" y="868" fill="rgb(255,203,203)" width="40" height="40" stroke="none" stroke-width="0.1"/>
<rect x="577" y="868" fill="none" width="39" height="39" stroke-width="0.1"/>
<text xml:space="preserve" x="500" stroke-width="0.1" y="893" stroke="none">Invalid view - remove from diagram.</text>
<rect x="1187" y="801" fill="rgb(255,203,203)" width="226" height="40" stroke="none" stroke-width="0.1"/>
<rect x="1187" y="801" fill="none" width="225" height="39" stroke-width="0.1"/>
<text xml:space="preserve" x="1203" stroke-width="0.1" y="826" stroke="none">Invalid view - remove from diagram.</text>
<rect x="563" y="795" fill="rgb(255,203,203)" width="309" height="40" stroke="none" stroke-width="0.1"/>
<rect x="563" y="795" fill="none" width="308" height="39" stroke-width="0.1"/>
<text xml:space="preserve" x="621" stroke-width="0.1" y="820" stroke="none">Invalid view - remove from diagram.</text>
<rect x="597" y="992" fill="rgb(255,203,203)" width="40" height="40" stroke="none" stroke-width="0.1"/>
<rect x="597" y="992" fill="none" width="39" height="39" stroke-width="0.1"/>
<text xml:space="preserve" x="520" stroke-width="0.1" y="1017" stroke="none">Invalid view - remove from diagram.</text>
<rect x="914" y="744" fill="rgb(255,203,203)" width="40" height="40" stroke="none" stroke-width="0.1"/>
<rect x="914" y="744" fill="none" width="39" height="39" stroke-width="0.1"/>
<text xml:space="preserve" x="837" stroke-width="0.1" y="769" stroke="none">Invalid view - remove from diagram.</text>
<rect x="201" y="146" fill="rgb(255,203,203)" width="40" height="40" stroke="none" stroke-width="0.1"/>
<rect x="201" y="146" fill="none" width="39" height="39" stroke-width="0.1"/>
<text xml:space="preserve" x="124" stroke-width="0.1" y="171" stroke="none">Invalid view - remove from diagram.</text>
<rect x="201" y="268" fill="rgb(255,203,203)" width="40" height="40" stroke="none" stroke-width="0.1"/>
<rect x="201" y="268" fill="none" width="39" height="39" stroke-width="0.1"/>
<text xml:space="preserve" x="124" stroke-width="0.1" y="293" stroke="none">Invalid view - remove from diagram.</text>
<rect x="175" y="876" fill="rgb(255,203,203)" width="40" height="40" stroke="none" stroke-width="0.1"/>
<rect x="175" y="876" fill="none" width="39" height="39" stroke-width="0.1"/>
<text xml:space="preserve" x="98" stroke-width="0.1" y="901" stroke="none">Invalid view - remove from diagram.</text>
<rect x="398" y="1014" fill="rgb(255,203,203)" width="190" height="40" stroke="none" stroke-width="0.1"/>
<rect x="398" y="1014" fill="none" width="189" height="39" stroke-width="0.1"/>
<text xml:space="preserve" x="396" stroke-width="0.1" y="1039" stroke="none">Invalid view - remove from diagram.</text>
<rect x="423" y="885" fill="rgb(255,203,203)" width="97" height="40" stroke="none" stroke-width="0.1"/>
<rect x="423" y="885" fill="none" width="96" height="39" stroke-width="0.1"/>
<text xml:space="preserve" x="375" stroke-width="0.1" y="910" stroke="none">Invalid view - remove from diagram.</text>
<rect x="919" y="944" fill="rgb(255,203,203)" width="106" height="46" stroke="none" stroke-width="0.1"/>
<rect x="919" y="944" fill="none" width="105" height="45" stroke-width="0.1"/>
<text xml:space="preserve" x="875" stroke-width="0.1" y="972" stroke="none">Invalid view - remove from diagram.</text>
<rect x="1214" y="1006" fill="rgb(255,203,203)" width="345" height="40" stroke="none" stroke-width="0.1"/>
<rect x="1214" y="1006" fill="none" width="344" height="39" stroke-width="0.1"/>
<text xml:space="preserve" x="1290" stroke-width="0.1" y="1031" stroke="none">Invalid view - remove from diagram.</text>
<rect x="801" y="949" fill="rgb(255,203,203)" width="103" height="42" stroke="none" stroke-width="0.1"/>
<rect x="801" y="949" fill="none" width="102" height="41" stroke-width="0.1"/>
<text xml:space="preserve" x="756" stroke-width="0.1" y="975" stroke="none">Invalid view - remove from diagram.</text>
<line fill="none" x1="339" x2="461" y1="407" y2="407" stroke="red" stroke-width="1.1"/>
<line fill="none" x1="461" x2="461" y1="407" y2="389" stroke="red" stroke-width="1.1"/>
<line fill="none" x1="461" x2="498" y1="389" y2="389" stroke="red" stroke-width="1.1"/>
<line fill="none" x1="498" x2="498" y1="389" y2="507" stroke="red" stroke-width="1.1"/>
<line fill="none" x1="498" x2="319" y1="507" y2="507" stroke="red" stroke-width="1.1"/>
<line fill="none" x1="319" x2="319" y1="507" y2="427" stroke="red" stroke-width="1.1"/>
<rect x="220" y="23" clip-path="url(#clipPath1)" fill="rgb(255,203,203)" width="40" height="40" stroke="none" stroke-width="1.1"/>
<rect x="220" y="23" clip-path="url(#clipPath1)" fill="none" width="39" height="39" stroke-width="0.1"/>
<text x="143" y="48" clip-path="url(#clipPath1)" stroke="none" stroke-width="0.1" xml:space="preserve">Invalid view - remove from diagram.</text>
<rect x="220" y="23" clip-path="url(#clipPath1)" fill="rgb(255,203,203)" width="40" height="40" stroke="none" stroke-width="0.1"/>
<rect x="220" y="23" clip-path="url(#clipPath1)" fill="none" width="39" height="39" stroke-width="0.1"/>
<text x="143" y="48" clip-path="url(#clipPath1)" stroke="none" stroke-width="0.1" xml:space="preserve">Invalid view - remove from diagram.</text>
<rect x="220" y="23" clip-path="url(#clipPath1)" fill="rgb(255,203,203)" width="40" height="40" stroke="none" stroke-width="0.1"/>
<rect x="220" y="23" clip-path="url(#clipPath1)" fill="none" width="39" height="39" stroke-width="0.1"/>
<text x="143" y="48" clip-path="url(#clipPath1)" stroke="none" stroke-width="0.1" xml:space="preserve">Invalid view - remove from diagram.</text>
<rect x="220" y="23" clip-path="url(#clipPath1)" fill="rgb(255,203,203)" width="40" height="40" stroke="none" stroke-width="0.1"/>
<rect x="220" y="23" clip-path="url(#clipPath1)" fill="none" width="39" height="39" stroke-width="0.1"/>
<text x="143" y="48" clip-path="url(#clipPath1)" stroke="none" stroke-width="0.1" xml:space="preserve">Invalid view - remove from diagram.</text>
<text x="402" y="494" clip-path="url(#clipPath2)" fill="red" stroke="none" stroke-width="0.1" xml:space="preserve">Invalid view - remove from diagram.</text>
<line clip-path="url(#clipPath3)" fill="none" x1="299" x2="119" y1="407" y2="407" stroke="red" stroke-width="1.1"/>
<line clip-path="url(#clipPath3)" fill="none" x1="119" x2="119" y1="407" y2="510" stroke="red" stroke-width="1.1"/>
<line clip-path="url(#clipPath3)" fill="none" x1="119" x2="319" y1="510" y2="510" stroke="red" stroke-width="1.1"/>
<line clip-path="url(#clipPath3)" fill="none" x1="319" x2="319" y1="510" y2="427" stroke="red" stroke-width="1.1"/>
<rect x="220" y="23" clip-path="url(#clipPath1)" fill="rgb(255,203,203)" width="40" height="40" stroke="none" stroke-width="1.1"/>
<rect x="220" y="23" clip-path="url(#clipPath1)" fill="none" width="39" height="39" stroke-width="0.1"/>
<text x="143" y="48" clip-path="url(#clipPath1)" stroke="none" stroke-width="0.1" xml:space="preserve">Invalid view - remove from diagram.</text>
<rect x="220" y="23" clip-path="url(#clipPath1)" fill="rgb(255,203,203)" width="40" height="40" stroke="none" stroke-width="0.1"/>
<rect x="220" y="23" clip-path="url(#clipPath1)" fill="none" width="39" height="39" stroke-width="0.1"/>
<text x="143" y="48" clip-path="url(#clipPath1)" stroke="none" stroke-width="0.1" xml:space="preserve">Invalid view - remove from diagram.</text>
<rect x="220" y="23" clip-path="url(#clipPath1)" fill="rgb(255,203,203)" width="40" height="40" stroke="none" stroke-width="0.1"/>
<rect x="220" y="23" clip-path="url(#clipPath1)" fill="none" width="39" height="39" stroke-width="0.1"/>
<text x="143" y="48" clip-path="url(#clipPath1)" stroke="none" stroke-width="0.1" xml:space="preserve">Invalid view - remove from diagram.</text>
<rect x="220" y="23" clip-path="url(#clipPath1)" fill="rgb(255,203,203)" width="40" height="40" stroke="none" stroke-width="0.1"/>
<rect x="220" y="23" clip-path="url(#clipPath1)" fill="none" width="39" height="39" stroke-width="0.1"/>
<text x="143" y="48" clip-path="url(#clipPath1)" stroke="none" stroke-width="0.1" xml:space="preserve">Invalid view - remove from diagram.</text>
<text x="23" y="515" clip-path="url(#clipPath4)" fill="red" stroke="none" stroke-width="0.1" xml:space="preserve">Invalid view - remove from diagram.</text>
<line clip-path="url(#clipPath3)" fill="none" x1="301" x2="301" y1="427" y2="503" stroke="red" stroke-width="1.1"/>
<line clip-path="url(#clipPath3)" fill="none" x1="301" x2="320" y1="503" y2="503" stroke="red" stroke-width="1.1"/>
<line clip-path="url(#clipPath3)" fill="none" x1="320" x2="320" y1="503" y2="514" stroke="red" stroke-width="1.1"/>
<line clip-path="url(#clipPath3)" fill="none" x1="320" x2="210" y1="514" y2="514" stroke="red" stroke-width="1.1"/>
<line clip-path="url(#clipPath3)" fill="none" x1="210" x2="210" y1="514" y2="410" stroke="red" stroke-width="1.1"/>
<line clip-path="url(#clipPath3)" fill="none" x1="210" x2="299" y1="410" y2="410" stroke="red" stroke-width="1.1"/>
<rect x="220" y="23" clip-path="url(#clipPath1)" fill="rgb(255,203,203)" width="40" height="40" stroke="none" stroke-width="1.1"/>
<rect x="220" y="23" clip-path="url(#clipPath1)" fill="none" width="39" height="39" stroke-width="0.1"/>
<text x="143" y="48" clip-path="url(#clipPath1)" stroke="none" stroke-width="0.1" xml:space="preserve">Invalid view - remove from diagram.</text>
<text x="125" y="519" clip-path="url(#clipPath5)" fill="red" stroke="none" stroke-width="0.1" xml:space="preserve">Invalid view - remove from diagram.</text>
<line clip-path="url(#clipPath3)" fill="none" x1="457" x2="737" y1="109" y2="109" stroke="red" stroke-width="1.1"/>
<text x="501" y="114" clip-path="url(#clipPath6)" fill="red" stroke="none" stroke-width="1.1" xml:space="preserve">Invalid view - remove from diagram.</text>
<line clip-path="url(#clipPath3)" fill="none" x1="457" x2="597" y1="124" y2="124" stroke="red" stroke-width="1.1"/>
<line clip-path="url(#clipPath3)" fill="none" x1="597" x2="597" y1="124" y2="229" stroke="red" stroke-width="1.1"/>
<line clip-path="url(#clipPath3)" fill="none" x1="597" x2="737" y1="229" y2="229" stroke="red" stroke-width="1.1"/>
<text x="501" y="182" clip-path="url(#clipPath7)" fill="red" stroke="none" stroke-width="1.1" xml:space="preserve">Invalid view - remove from diagram.</text>
<line clip-path="url(#clipPath3)" fill="none" x1="339" x2="880" y1="398" y2="398" stroke="red" stroke-width="1.1"/>
<rect x="220" y="23" clip-path="url(#clipPath1)" fill="rgb(255,203,203)" width="40" height="40" stroke="none" stroke-width="1.1"/>
<rect x="220" y="23" clip-path="url(#clipPath1)" fill="none" width="39" height="39" stroke-width="0.1"/>
<text x="143" y="48" clip-path="url(#clipPath1)" stroke="none" stroke-width="0.1" xml:space="preserve">Invalid view - remove from diagram.</text>
<rect x="220" y="23" clip-path="url(#clipPath1)" fill="rgb(255,203,203)" width="40" height="40" stroke="none" stroke-width="0.1"/>
<rect x="220" y="23" clip-path="url(#clipPath1)" fill="none" width="39" height="39" stroke-width="0.1"/>
<text x="143" y="48" clip-path="url(#clipPath1)" stroke="none" stroke-width="0.1" xml:space="preserve">Invalid view - remove from diagram.</text>
<rect x="220" y="23" clip-path="url(#clipPath1)" fill="rgb(255,203,203)" width="40" height="40" stroke="none" stroke-width="0.1"/>
<rect x="220" y="23" clip-path="url(#clipPath1)" fill="none" width="39" height="39" stroke-width="0.1"/>
<text x="143" y="48" clip-path="url(#clipPath1)" stroke="none" stroke-width="0.1" xml:space="preserve">Invalid view - remove from diagram.</text>
<text x="514" y="403" clip-path="url(#clipPath8)" fill="red" stroke="none" stroke-width="0.1" xml:space="preserve">Invalid view - remove from diagram.</text>
<line clip-path="url(#clipPath3)" fill="none" x1="889" x2="889" y1="424" y2="510" stroke="red" stroke-width="1.1"/>
<line clip-path="url(#clipPath3)" fill="none" x1="889" x2="859" y1="510" y2="510" stroke="red" stroke-width="1.1"/>
<line clip-path="url(#clipPath3)" fill="none" x1="859" x2="859" y1="510" y2="596" stroke="red" stroke-width="1.1"/>
<rect x="220" y="23" clip-path="url(#clipPath1)" fill="rgb(255,203,203)" width="40" height="40" stroke="none" stroke-width="1.1"/>
<rect x="220" y="23" clip-path="url(#clipPath1)" fill="none" width="39" height="39" stroke-width="0.1"/>
<text x="143" y="48" clip-path="url(#clipPath1)" stroke="none" stroke-width="0.1" xml:space="preserve">Invalid view - remove from diagram.</text>
<rect x="220" y="23" clip-path="url(#clipPath1)" fill="rgb(255,203,203)" width="40" height="40" stroke="none" stroke-width="0.1"/>
<rect x="220" y="23" clip-path="url(#clipPath1)" fill="none" width="39" height="39" stroke-width="0.1"/>
<text x="143" y="48" clip-path="url(#clipPath1)" stroke="none" stroke-width="0.1" xml:space="preserve">Invalid view - remove from diagram.</text>
<rect x="220" y="23" clip-path="url(#clipPath1)" fill="rgb(255,203,203)" width="40" height="40" stroke="none" stroke-width="0.1"/>
<rect x="220" y="23" clip-path="url(#clipPath1)" fill="none" width="39" height="39" stroke-width="0.1"/>
<text x="143" y="48" clip-path="url(#clipPath1)" stroke="none" stroke-width="0.1" xml:space="preserve">Invalid view - remove from diagram.</text>
<rect x="220" y="23" clip-path="url(#clipPath1)" fill="rgb(255,203,203)" width="40" height="40" stroke="none" stroke-width="0.1"/>
<rect x="220" y="23" clip-path="url(#clipPath1)" fill="none" width="39" height="39" stroke-width="0.1"/>
<text x="143" y="48" clip-path="url(#clipPath1)" stroke="none" stroke-width="0.1" xml:space="preserve">Invalid view - remove from diagram.</text>
<text x="778" y="515" clip-path="url(#clipPath9)" fill="red" stroke="none" stroke-width="0.1" xml:space="preserve">Invalid view - remove from diagram.</text>
<line clip-path="url(#clipPath3)" fill="none" x1="912" x2="912" y1="424" y2="511" stroke="red" stroke-width="1.1"/>
<line clip-path="url(#clipPath3)" fill="none" x1="912" x2="1166" y1="511" y2="511" stroke="red" stroke-width="1.1"/>
<line clip-path="url(#clipPath3)" fill="none" x1="1166" x2="1166" y1="511" y2="598" stroke="red" stroke-width="1.1"/>
<rect x="220" y="23" clip-path="url(#clipPath1)" fill="rgb(255,203,203)" width="40" height="40" stroke="none" stroke-width="1.1"/>
<rect x="220" y="23" clip-path="url(#clipPath1)" fill="none" width="39" height="39" stroke-width="0.1"/>
<text x="143" y="48" clip-path="url(#clipPath1)" stroke="none" stroke-width="0.1" xml:space="preserve">Invalid view - remove from diagram.</text>
<rect x="220" y="23" clip-path="url(#clipPath1)" fill="rgb(255,203,203)" width="40" height="40" stroke="none" stroke-width="0.1"/>
<rect x="220" y="23" clip-path="url(#clipPath1)" fill="none" width="39" height="39" stroke-width="0.1"/>
<text x="143" y="48" clip-path="url(#clipPath1)" stroke="none" stroke-width="0.1" xml:space="preserve">Invalid view - remove from diagram.</text>
<rect x="220" y="23" clip-path="url(#clipPath1)" fill="rgb(255,203,203)" width="40" height="40" stroke="none" stroke-width="0.1"/>
<rect x="220" y="23" clip-path="url(#clipPath1)" fill="none" width="39" height="39" stroke-width="0.1"/>
<text x="143" y="48" clip-path="url(#clipPath1)" stroke="none" stroke-width="0.1" xml:space="preserve">Invalid view - remove from diagram.</text>
<text x="943" y="516" clip-path="url(#clipPath10)" fill="red" stroke="none" stroke-width="0.1" xml:space="preserve">Invalid view - remove from diagram.</text>
<line clip-path="url(#clipPath3)" fill="none" x1="1186" x2="1186" y1="638" y2="762" stroke="red" stroke-width="1.1"/>
<line clip-path="url(#clipPath3)" fill="none" x1="1186" x2="1442" y1="762" y2="762" stroke="red" stroke-width="1.1"/>
<line clip-path="url(#clipPath3)" fill="none" x1="1442" x2="1442" y1="762" y2="886" stroke="red" stroke-width="1.1"/>
<rect x="220" y="23" clip-path="url(#clipPath1)" fill="rgb(255,203,203)" width="40" height="40" stroke="none" stroke-width="1.1"/>
<rect x="220" y="23" clip-path="url(#clipPath1)" fill="none" width="39" height="39" stroke-width="0.1"/>
<text x="143" y="48" clip-path="url(#clipPath1)" stroke="none" stroke-width="0.1" xml:space="preserve">Invalid view - remove from diagram.</text>
<rect x="220" y="23" clip-path="url(#clipPath1)" fill="rgb(255,203,203)" width="40" height="40" stroke="none" stroke-width="0.1"/>
<rect x="220" y="23" clip-path="url(#clipPath1)" fill="none" width="39" height="39" stroke-width="0.1"/>
<text x="143" y="48" clip-path="url(#clipPath1)" stroke="none" stroke-width="0.1" xml:space="preserve">Invalid view - remove from diagram.</text>
<rect x="220" y="23" clip-path="url(#clipPath1)" fill="rgb(255,203,203)" width="40" height="40" stroke="none" stroke-width="0.1"/>
<rect x="220" y="23" clip-path="url(#clipPath1)" fill="none" width="39" height="39" stroke-width="0.1"/>
<text x="143" y="48" clip-path="url(#clipPath1)" stroke="none" stroke-width="0.1" xml:space="preserve">Invalid view - remove from diagram.</text>
<rect x="220" y="23" clip-path="url(#clipPath1)" fill="rgb(255,203,203)" width="40" height="40" stroke="none" stroke-width="0.1"/>
<rect x="220" y="23" clip-path="url(#clipPath1)" fill="none" width="39" height="39" stroke-width="0.1"/>
<text x="143" y="48" clip-path="url(#clipPath1)" stroke="none" stroke-width="0.1" xml:space="preserve">Invalid view - remove from diagram.</text>
<rect x="220" y="23" clip-path="url(#clipPath1)" fill="rgb(255,203,203)" width="40" height="40" stroke="none" stroke-width="0.1"/>
<rect x="220" y="23" clip-path="url(#clipPath1)" fill="none" width="39" height="39" stroke-width="0.1"/>
<text x="143" y="48" clip-path="url(#clipPath1)" stroke="none" stroke-width="0.1" xml:space="preserve">Invalid view - remove from diagram.</text>
<text x="1218" y="767" clip-path="url(#clipPath11)" fill="red" stroke="none" stroke-width="0.1" xml:space="preserve">Invalid view - remove from diagram.</text>
<line clip-path="url(#clipPath3)" fill="none" x1="1439" x2="1077" y1="898" y2="898" stroke="red" stroke-width="1.1"/>
<rect x="220" y="23" clip-path="url(#clipPath1)" fill="rgb(255,203,203)" width="40" height="40" stroke="none" stroke-width="1.1"/>
<rect x="220" y="23" clip-path="url(#clipPath1)" fill="none" width="39" height="39" stroke-width="0.1"/>
<text x="143" y="48" clip-path="url(#clipPath1)" stroke="none" stroke-width="0.1" xml:space="preserve">Invalid view - remove from diagram.</text>
<text x="1162" y="903" clip-path="url(#clipPath12)" fill="red" stroke="none" stroke-width="0.1" xml:space="preserve">Invalid view - remove from diagram.</text>
<line clip-path="url(#clipPath3)" fill="none" x1="1037" x2="827" y1="903" y2="903" stroke="red" stroke-width="1.1"/>
<line clip-path="url(#clipPath3)" fill="none" x1="827" x2="827" y1="903" y2="888" stroke="red" stroke-width="1.1"/>
<line clip-path="url(#clipPath3)" fill="none" x1="827" x2="617" y1="888" y2="888" stroke="red" stroke-width="1.1"/>
<rect x="220" y="23" clip-path="url(#clipPath1)" fill="rgb(255,203,203)" width="40" height="40" stroke="none" stroke-width="1.1"/>
<rect x="220" y="23" clip-path="url(#clipPath1)" fill="none" width="39" height="39" stroke-width="0.1"/>
<text x="143" y="48" clip-path="url(#clipPath1)" stroke="none" stroke-width="0.1" xml:space="preserve">Invalid view - remove from diagram.</text>
<rect x="220" y="23" clip-path="url(#clipPath1)" fill="rgb(255,203,203)" width="40" height="40" stroke="none" stroke-width="0.1"/>
<rect x="220" y="23" clip-path="url(#clipPath1)" fill="none" width="39" height="39" stroke-width="0.1"/>
<text x="143" y="48" clip-path="url(#clipPath1)" stroke="none" stroke-width="0.1" xml:space="preserve">Invalid view - remove from diagram.</text>
<rect x="220" y="23" clip-path="url(#clipPath1)" fill="rgb(255,203,203)" width="40" height="40" stroke="none" stroke-width="0.1"/>
<rect x="220" y="23" clip-path="url(#clipPath1)" fill="none" width="39" height="39" stroke-width="0.1"/>
<text x="143" y="48" clip-path="url(#clipPath1)" stroke="none" stroke-width="0.1" xml:space="preserve">Invalid view - remove from diagram.</text>
<rect x="220" y="23" clip-path="url(#clipPath1)" fill="rgb(255,203,203)" width="40" height="40" stroke="none" stroke-width="0.1"/>
<rect x="220" y="23" clip-path="url(#clipPath1)" fill="none" width="39" height="39" stroke-width="0.1"/>
<text x="143" y="48" clip-path="url(#clipPath1)" stroke="none" stroke-width="0.1" xml:space="preserve">Invalid view - remove from diagram.</text>
<rect x="220" y="23" clip-path="url(#clipPath1)" fill="rgb(255,203,203)" width="40" height="40" stroke="none" stroke-width="0.1"/>
<rect x="220" y="23" clip-path="url(#clipPath1)" fill="none" width="39" height="39" stroke-width="0.1"/>
<text x="143" y="48" clip-path="url(#clipPath1)" stroke="none" stroke-width="0.1" xml:space="preserve">Invalid view - remove from diagram.</text>
<text x="731" y="900" clip-path="url(#clipPath13)" fill="red" stroke="none" stroke-width="0.1" xml:space="preserve">Invalid view - remove from diagram.</text>
<line clip-path="url(#clipPath3)" fill="none" x1="1442" x2="1413" y1="834" y2="812" stroke="red" stroke-width="1.1"/>
<rect x="220" y="23" clip-path="url(#clipPath1)" fill="rgb(255,203,203)" width="40" height="40" stroke="none" stroke-width="1.1"/>
<rect x="220" y="23" clip-path="url(#clipPath1)" fill="none" width="39" height="39" stroke-width="0.1"/>
<text x="143" y="48" clip-path="url(#clipPath1)" stroke="none" stroke-width="0.1" xml:space="preserve">Invalid view - remove from diagram.</text>
<rect x="220" y="23" clip-path="url(#clipPath1)" fill="rgb(255,203,203)" width="40" height="40" stroke="none" stroke-width="0.1"/>
<rect x="220" y="23" clip-path="url(#clipPath1)" fill="none" width="39" height="39" stroke-width="0.1"/>
<text x="143" y="48" clip-path="url(#clipPath1)" stroke="none" stroke-width="0.1" xml:space="preserve">Invalid view - remove from diagram.</text>
<text x="1332" y="828" clip-path="url(#clipPath14)" fill="red" stroke="none" stroke-width="0.1" xml:space="preserve">Invalid view - remove from diagram.</text>
<line clip-path="url(#clipPath3)" fill="none" x1="914" x2="861" y1="903" y2="835" stroke="red" stroke-width="1.1"/>
<rect x="220" y="23" clip-path="url(#clipPath1)" fill="rgb(255,203,203)" width="40" height="40" stroke="none" stroke-width="1.1"/>
<rect x="220" y="23" clip-path="url(#clipPath1)" fill="none" width="39" height="39" stroke-width="0.1"/>
<text x="143" y="48" clip-path="url(#clipPath1)" stroke="none" stroke-width="0.1" xml:space="preserve">Invalid view - remove from diagram.</text>
<rect x="220" y="23" clip-path="url(#clipPath1)" fill="rgb(255,203,203)" width="40" height="40" stroke="none" stroke-width="0.1"/>
<rect x="220" y="23" clip-path="url(#clipPath1)" fill="none" width="39" height="39" stroke-width="0.1"/>
<text x="143" y="48" clip-path="url(#clipPath1)" stroke="none" stroke-width="0.1" xml:space="preserve">Invalid view - remove from diagram.</text>
<text x="792" y="874" clip-path="url(#clipPath15)" fill="red" stroke="none" stroke-width="0.1" xml:space="preserve">Invalid view - remove from diagram.</text>
<line clip-path="url(#clipPath3)" fill="none" x1="1037" x2="1037" y1="925" y2="1005" stroke="red" stroke-width="1.1"/>
<line clip-path="url(#clipPath3)" fill="none" x1="1037" x2="1056" y1="1005" y2="1005" stroke="red" stroke-width="1.1"/>
<line clip-path="url(#clipPath3)" fill="none" x1="1056" x2="1056" y1="1005" y2="998" stroke="red" stroke-width="1.1"/>
<line clip-path="url(#clipPath3)" fill="none" x1="1056" x2="637" y1="998" y2="998" stroke="red" stroke-width="1.1"/>
<rect x="220" y="23" clip-path="url(#clipPath1)" fill="rgb(255,203,203)" width="40" height="40" stroke="none" stroke-width="1.1"/>
<rect x="220" y="23" clip-path="url(#clipPath1)" fill="none" width="39" height="39" stroke-width="0.1"/>
<text x="143" y="48" clip-path="url(#clipPath1)" stroke="none" stroke-width="0.1" xml:space="preserve">Invalid view - remove from diagram.</text>
<rect x="220" y="23" clip-path="url(#clipPath1)" fill="rgb(255,203,203)" width="40" height="40" stroke="none" stroke-width="0.1"/>
<rect x="220" y="23" clip-path="url(#clipPath1)" fill="none" width="39" height="39" stroke-width="0.1"/>
<text x="143" y="48" clip-path="url(#clipPath1)" stroke="none" stroke-width="0.1" xml:space="preserve">Invalid view - remove from diagram.</text>
<rect x="220" y="23" clip-path="url(#clipPath1)" fill="rgb(255,203,203)" width="40" height="40" stroke="none" stroke-width="0.1"/>
<rect x="220" y="23" clip-path="url(#clipPath1)" fill="none" width="39" height="39" stroke-width="0.1"/>
<text x="143" y="48" clip-path="url(#clipPath1)" stroke="none" stroke-width="0.1" xml:space="preserve">Invalid view - remove from diagram.</text>
<rect x="220" y="23" clip-path="url(#clipPath1)" fill="rgb(255,203,203)" width="40" height="40" stroke="none" stroke-width="0.1"/>
<rect x="220" y="23" clip-path="url(#clipPath1)" fill="none" width="39" height="39" stroke-width="0.1"/>
<text x="143" y="48" clip-path="url(#clipPath1)" stroke="none" stroke-width="0.1" xml:space="preserve">Invalid view - remove from diagram.</text>
<rect x="220" y="23" clip-path="url(#clipPath1)" fill="rgb(255,203,203)" width="40" height="40" stroke="none" stroke-width="0.1"/>
<rect x="220" y="23" clip-path="url(#clipPath1)" fill="none" width="39" height="39" stroke-width="0.1"/>
<text x="143" y="48" clip-path="url(#clipPath1)" stroke="none" stroke-width="0.1" xml:space="preserve">Invalid view - remove from diagram.</text>
<text x="803" y="1003" clip-path="url(#clipPath16)" fill="red" stroke="none" stroke-width="0.1" xml:space="preserve">Invalid view - remove from diagram.</text>
<line clip-path="url(#clipPath3)" fill="none" x1="577" x2="215" y1="891" y2="891" stroke="red" stroke-width="1.1"/>
<rect x="220" y="23" clip-path="url(#clipPath1)" fill="rgb(255,203,203)" width="40" height="40" stroke="none" stroke-width="1.1"/>
<rect x="220" y="23" clip-path="url(#clipPath1)" fill="none" width="39" height="39" stroke-width="0.1"/>
<text x="143" y="48" clip-path="url(#clipPath1)" stroke="none" stroke-width="0.1" xml:space="preserve">Invalid view - remove from diagram.</text>
<rect x="220" y="23" clip-path="url(#clipPath1)" fill="rgb(255,203,203)" width="40" height="40" stroke="none" stroke-width="0.1"/>
<rect x="220" y="23" clip-path="url(#clipPath1)" fill="none" width="39" height="39" stroke-width="0.1"/>
<text x="143" y="48" clip-path="url(#clipPath1)" stroke="none" stroke-width="0.1" xml:space="preserve">Invalid view - remove from diagram.</text>
<text x="300" y="896" clip-path="url(#clipPath17)" fill="red" stroke="none" stroke-width="0.1" xml:space="preserve">Invalid view - remove from diagram.</text>
<line clip-path="url(#clipPath3)" fill="none" x1="215" x2="577" y1="898" y2="898" stroke="red" stroke-width="1.1"/>
<rect x="220" y="23" clip-path="url(#clipPath1)" fill="rgb(255,203,203)" width="40" height="40" stroke="none" stroke-width="1.1"/>
<rect x="220" y="23" clip-path="url(#clipPath1)" fill="none" width="39" height="39" stroke-width="0.1"/>
<text x="143" y="48" clip-path="url(#clipPath1)" stroke="none" stroke-width="0.1" xml:space="preserve">Invalid view - remove from diagram.</text>
<rect x="220" y="23" clip-path="url(#clipPath1)" fill="rgb(255,203,203)" width="40" height="40" stroke="none" stroke-width="0.1"/>
<rect x="220" y="23" clip-path="url(#clipPath1)" fill="none" width="39" height="39" stroke-width="0.1"/>
<text x="143" y="48" clip-path="url(#clipPath1)" stroke="none" stroke-width="0.1" xml:space="preserve">Invalid view - remove from diagram.</text>
<rect x="220" y="23" clip-path="url(#clipPath1)" fill="rgb(255,203,203)" width="40" height="40" stroke="none" stroke-width="0.1"/>
<rect x="220" y="23" clip-path="url(#clipPath1)" fill="none" width="39" height="39" stroke-width="0.1"/>
<text x="143" y="48" clip-path="url(#clipPath1)" stroke="none" stroke-width="0.1" xml:space="preserve">Invalid view - remove from diagram.</text>
<rect x="220" y="23" clip-path="url(#clipPath1)" fill="rgb(255,203,203)" width="40" height="40" stroke="none" stroke-width="0.1"/>
<rect x="220" y="23" clip-path="url(#clipPath1)" fill="none" width="39" height="39" stroke-width="0.1"/>
<text x="143" y="48" clip-path="url(#clipPath1)" stroke="none" stroke-width="0.1" xml:space="preserve">Invalid view - remove from diagram.</text>
<rect x="220" y="23" clip-path="url(#clipPath1)" fill="rgb(255,203,203)" width="40" height="40" stroke="none" stroke-width="0.1"/>
<rect x="220" y="23" clip-path="url(#clipPath1)" fill="none" width="39" height="39" stroke-width="0.1"/>
<text x="143" y="48" clip-path="url(#clipPath1)" stroke="none" stroke-width="0.1" xml:space="preserve">Invalid view - remove from diagram.</text>
<text x="300" y="903" clip-path="url(#clipPath18)" fill="red" stroke="none" stroke-width="0.1" xml:space="preserve">Invalid view - remove from diagram.</text>
<line clip-path="url(#clipPath3)" fill="none" x1="502" x2="502" y1="898" y2="1014" stroke="red" stroke-width="1.1"/>
<rect x="220" y="23" clip-path="url(#clipPath1)" fill="rgb(255,203,203)" width="40" height="40" stroke="none" stroke-width="1.1"/>
<rect x="220" y="23" clip-path="url(#clipPath1)" fill="none" width="39" height="39" stroke-width="0.1"/>
<text x="143" y="48" clip-path="url(#clipPath1)" stroke="none" stroke-width="0.1" xml:space="preserve">Invalid view - remove from diagram.</text>
<rect x="220" y="23" clip-path="url(#clipPath1)" fill="rgb(255,203,203)" width="40" height="40" stroke="none" stroke-width="0.1"/>
<rect x="220" y="23" clip-path="url(#clipPath1)" fill="none" width="39" height="39" stroke-width="0.1"/>
<text x="143" y="48" clip-path="url(#clipPath1)" stroke="none" stroke-width="0.1" xml:space="preserve">Invalid view - remove from diagram.</text>
<text x="406" y="961" clip-path="url(#clipPath19)" fill="red" stroke="none" stroke-width="0.1" xml:space="preserve">Invalid view - remove from diagram.</text>
<line clip-path="url(#clipPath3)" fill="none" x1="480" x2="402" y1="885" y2="891" stroke="red" stroke-width="1.1"/>
<text x="345" y="893" clip-path="url(#clipPath20)" fill="red" stroke="none" stroke-width="1.1" xml:space="preserve">Invalid view - remove from diagram.</text>
<line clip-path="url(#clipPath3)" fill="none" x1="323" x2="436" y1="387" y2="126" stroke="red" stroke-width="1.1"/>
<rect x="220" y="23" clip-path="url(#clipPath1)" fill="rgb(255,203,203)" width="40" height="40" stroke="none" stroke-width="1.1"/>
<rect x="220" y="23" clip-path="url(#clipPath1)" fill="none" width="39" height="39" stroke-width="0.1"/>
<text x="143" y="48" clip-path="url(#clipPath1)" stroke="none" stroke-width="0.1" xml:space="preserve">Invalid view - remove from diagram.</text>
<rect x="220" y="23" clip-path="url(#clipPath1)" fill="rgb(255,203,203)" width="40" height="40" stroke="none" stroke-width="0.1"/>
<rect x="220" y="23" clip-path="url(#clipPath1)" fill="none" width="39" height="39" stroke-width="0.1"/>
<text x="143" y="48" clip-path="url(#clipPath1)" stroke="none" stroke-width="0.1" xml:space="preserve">Invalid view - remove from diagram.</text>
<rect x="220" y="23" clip-path="url(#clipPath1)" fill="rgb(255,203,203)" width="40" height="40" stroke="none" stroke-width="0.1"/>
<rect x="220" y="23" clip-path="url(#clipPath1)" fill="none" width="39" height="39" stroke-width="0.1"/>
<text x="143" y="48" clip-path="url(#clipPath1)" stroke="none" stroke-width="0.1" xml:space="preserve">Invalid view - remove from diagram.</text>
<rect x="220" y="23" clip-path="url(#clipPath1)" fill="rgb(255,203,203)" width="40" height="40" stroke="none" stroke-width="0.1"/>
<rect x="220" y="23" clip-path="url(#clipPath1)" fill="none" width="39" height="39" stroke-width="0.1"/>
<text x="143" y="48" clip-path="url(#clipPath1)" stroke="none" stroke-width="0.1" xml:space="preserve">Invalid view - remove from diagram.</text>
<rect x="220" y="23" clip-path="url(#clipPath1)" fill="rgb(255,203,203)" width="40" height="40" stroke="none" stroke-width="0.1"/>
<rect x="220" y="23" clip-path="url(#clipPath1)" fill="none" width="39" height="39" stroke-width="0.1"/>
<text x="143" y="48" clip-path="url(#clipPath1)" stroke="none" stroke-width="0.1" xml:space="preserve">Invalid view - remove from diagram.</text>
<text x="283" y="262" clip-path="url(#clipPath21)" fill="red" stroke="none" stroke-width="0.1" xml:space="preserve">Invalid view - remove from diagram.</text>
<line clip-path="url(#clipPath3)" fill="none" x1="1420" x2="1439" y1="1006" y2="926" stroke="red" stroke-width="1.1"/>
<text x="1333" y="971" clip-path="url(#clipPath22)" fill="red" stroke="none" stroke-width="1.1" xml:space="preserve">Invalid view - remove from diagram.</text>
<line clip-path="url(#clipPath3)" fill="none" x1="801" x2="637" y1="975" y2="994" stroke="red" stroke-width="1.1"/>
<text x="624" y="989" clip-path="url(#clipPath23)" fill="red" stroke="none" stroke-width="1.1" xml:space="preserve">Invalid view - remove from diagram.</text>
</g>
</g>
<rect x="417" y="86" fill-opacity="0" width="40" id="OperationEnvelope" height="40" stroke-opacity="0"/>
<rect x="737" y="86" fill-opacity="0" width="40" id="GeneralDirectives" height="40" stroke-opacity="0"/>
<rect x="737" y="210" fill-opacity="0" width="40" id="OperationIdentifiers" height="40" stroke-opacity="0"/>
<rect x="299" y="387" fill-opacity="0" width="40" id="OperationSet" height="40" stroke-opacity="0"/>
<rect x="0" y="0" fill-opacity="0" width="0" id="abortAfterDurationWithActionRule" height="0" stroke-opacity="0"/>
<rect x="0" y="0" fill-opacity="0" width="0" id="effortAndAction" height="0" stroke-opacity="0"/>
<rect x="0" y="0" fill-opacity="0" width="0" id="pauseResumeRule" height="0" stroke-opacity="0"/>
<rect x="0" y="0" fill-opacity="0" width="0" id="isShortLived" height="0" stroke-opacity="0"/>
<rect x="880" y="384" fill-opacity="0" width="40" id="OperationDetails" height="40" stroke-opacity="0"/>
<rect x="0" y="0" fill-opacity="0" width="0" id="actionVerb" height="0" stroke-opacity="0"/>
<rect x="1149" y="598" fill-opacity="0" width="40" id="DesiredOutcomeConstraints" height="40" stroke-opacity="0"/>
<rect x="0" y="0" fill-opacity="0" width="0" id="activityDirective" height="0" stroke-opacity="0"/>
<rect x="0" y="0" fill-opacity="0" width="0" id="hasDeleteConfirmation" height="0" stroke-opacity="0"/>
<rect x="0" y="0" fill-opacity="0" width="0" id="numberOfInstancesOfEachOutcomeElement" height="0" stroke-opacity="0"/>
<rect x="843" y="596" fill-opacity="0" width="40" id="NecessaryInitialConditionConstraints" height="40" stroke-opacity="0"/>
<rect x="0" y="0" fill-opacity="0" width="0" id="IsNot" height="0" stroke-opacity="0"/>
<rect x="917" y="210" fill-opacity="0" width="251" height="48" stroke-opacity="0"/>
<rect x="1439" y="886" fill-opacity="0" width="40" id="OutcomeElementConstraints" height="40" stroke-opacity="0"/>
<rect x="310" y="675" fill-opacity="0" width="409" height="40" stroke-opacity="0"/>
<rect x="1262" y="364" fill-opacity="0" width="40" id="ActionVerbs" height="40" stroke-opacity="0"/>
<rect x="0" y="0" fill-opacity="0" width="0" id="CREATE_POST_ADD" height="0" stroke-opacity="0"/>
<rect x="0" y="0" fill-opacity="0" width="0" id="SET_UPDATE_PUT_MODIFY_WRITE_ADD" height="0" stroke-opacity="0"/>
<rect x="0" y="0" fill-opacity="0" width="0" id="GET_READ" height="0" stroke-opacity="0"/>
<rect x="0" y="0" fill-opacity="0" width="0" id="DELETE_REMOVE" height="0" stroke-opacity="0"/>
<rect x="1037" y="885" fill-opacity="0" width="40" id="ElementConstraints" height="40" stroke-opacity="0"/>
<rect x="577" y="868" fill-opacity="0" width="40" id="SpecificClassStructure" height="40" stroke-opacity="0"/>
<rect x="1187" y="801" fill-opacity="0" width="226" id="_outcomeElement" height="40" stroke-opacity="0"/>
<rect x="563" y="795" fill-opacity="0" width="309" id="_specificClassStructure" height="40" stroke-opacity="0"/>
<rect x="597" y="992" fill-opacity="0" width="40" id="SpecificPattern" height="40" stroke-opacity="0"/>
<rect x="914" y="744" fill-opacity="0" width="40" id="ActivityDirective" height="40" stroke-opacity="0"/>
<rect x="0" y="0" fill-opacity="0" width="0" id="STRUCTURE_IS_NOT" height="0" stroke-opacity="0"/>
<rect x="0" y="0" fill-opacity="0" width="0" id="NEW_STRUCTURE_AND_VALUES" height="0" stroke-opacity="0"/>
<rect x="0" y="0" fill-opacity="0" width="0" id="INCREMENTAL_STRUCTURE_AND_VALUES" height="0" stroke-opacity="0"/>
<rect x="0" y="0" fill-opacity="0" width="0" id="ONLY_VALUES_IN_EXISTING_STRUCTURE" height="0" stroke-opacity="0"/>
<rect x="0" y="0" fill-opacity="0" width="0" id="DEFINED_BY_VERB" height="0" stroke-opacity="0"/>
<rect x="201" y="146" fill-opacity="0" width="40" id="ActionEffort" height="40" stroke-opacity="0"/>
<rect x="0" y="0" fill-opacity="0" width="0" id="BEST_EFFORT" height="0" stroke-opacity="0"/>
<rect x="0" y="0" fill-opacity="0" width="0" id="EXACT_MATCH" height="0" stroke-opacity="0"/>
<rect x="201" y="268" fill-opacity="0" width="40" id="PauseResumeRule" height="40" stroke-opacity="0"/>
<rect x="0" y="0" fill-opacity="0" width="0" id="NO_PAUSE_POSSIBLE" height="0" stroke-opacity="0"/>
<rect x="175" y="876" fill-opacity="0" width="40" id="Ltp" height="40" stroke-opacity="0"/>
<rect x="398" y="1014" fill-opacity="0" width="190" id="_classTypeName" height="40" stroke-opacity="0"/>
<rect x="423" y="885" fill-opacity="0" width="97" height="40" stroke-opacity="0"/>
<rect x="919" y="944" fill-opacity="0" width="106" height="46" stroke-opacity="0"/>
<rect x="1214" y="1006" fill-opacity="0" width="345" height="40" stroke-opacity="0"/>
<rect x="801" y="949" fill-opacity="0" width="103" height="42" stroke-opacity="0"/>
</svg>
