<?xml version="1.0" encoding="UTF-8"?><svg xmlns="http://www.w3.org/2000/svg" xmlns:xlink="http://www.w3.org/1999/xlink" stroke-dasharray="none" shape-rendering="auto" font-family="'Dialog'" width="1370" text-rendering="auto" fill-opacity="1" contentScriptType="text/ecmascript" color-interpolation="auto" color-rendering="auto" preserveAspectRatio="xMidYMid meet" font-size="12" viewBox="0 0 1370 842" fill="black" stroke="black" image-rendering="auto" stroke-miterlimit="10" zoomAndPan="magnify" version="1.0" stroke-linecap="square" stroke-linejoin="miter" contentStyleType="text/css" font-style="normal" height="842" stroke-width="1" stroke-dashoffset="0" font-weight="normal" stroke-opacity="1">
<!--Generated by the Batik Graphics2D SVG Generator-->
<defs id="genericDefs"/>
<g>
<defs id="defs1">
<clipPath clipPathUnits="userSpaceOnUse" id="clipPath1">
<path d="M407 587 L601 587 L601 605 L407 605 L407 587 Z"/>
</clipPath>
<clipPath clipPathUnits="userSpaceOnUse" id="clipPath2">
<path d="M-1 -1 L1371 -1 L1371 843 L-1 843 L-1 -1 Z"/>
</clipPath>
<clipPath clipPathUnits="userSpaceOnUse" id="clipPath3">
<path d="M733 597 L927 597 L927 615 L733 615 L733 597 Z"/>
</clipPath>
<clipPath clipPathUnits="userSpaceOnUse" id="clipPath4">
<path d="M587 437 L781 437 L781 455 L587 455 L587 437 Z"/>
</clipPath>
<clipPath clipPathUnits="userSpaceOnUse" id="clipPath5">
<path d="M774 542 L968 542 L968 560 L774 560 L774 542 Z"/>
</clipPath>
<clipPath clipPathUnits="userSpaceOnUse" id="clipPath6">
<path d="M915 320 L1109 320 L1109 338 L915 338 L915 320 Z"/>
</clipPath>
<clipPath clipPathUnits="userSpaceOnUse" id="clipPath7">
<path d="M491 313 L685 313 L685 331 L491 331 L491 313 Z"/>
</clipPath>
<clipPath clipPathUnits="userSpaceOnUse" id="clipPath8">
<path d="M288 539 L482 539 L482 557 L288 557 L288 539 Z"/>
</clipPath>
<clipPath clipPathUnits="userSpaceOnUse" id="clipPath9">
<path d="M632 455 L826 455 L826 473 L632 473 L632 455 Z"/>
</clipPath>
<clipPath clipPathUnits="userSpaceOnUse" id="clipPath10">
<path d="M552 702 L746 702 L746 720 L552 720 L552 702 Z"/>
</clipPath>
<clipPath clipPathUnits="userSpaceOnUse" id="clipPath11">
<path d="M609 700 L803 700 L803 718 L609 718 L609 700 Z"/>
</clipPath>
<clipPath clipPathUnits="userSpaceOnUse" id="clipPath12">
<path d="M1031 442 L1225 442 L1225 460 L1031 460 L1031 442 Z"/>
</clipPath>
<clipPath clipPathUnits="userSpaceOnUse" id="clipPath13">
<path d="M457 245 L651 245 L651 263 L457 263 L457 245 Z"/>
</clipPath>
</defs>
<g font-size="21" fill="rgb(255,203,203)" font-family="'Segoe UI'" stroke-linejoin="round" stroke="rgb(255,203,203)" stroke-width="0" stroke-miterlimit="0">
<rect width="226" x="571" height="40" y="536" stroke="none"/>
</g>
<g font-size="21" font-family="'Segoe UI'" stroke-linecap="butt">
<rect fill="none" width="225" x="571" height="39" y="536"/>
<text xml:space="preserve" x="516" y="563" stroke="none">Invalid view - remove from diagram.</text>
<rect x="379" y="741" fill="rgb(255,203,203)" width="188" height="40" stroke="none"/>
<rect x="379" y="741" fill="none" width="187" height="39" stroke-width="0.1"/>
<text xml:space="preserve" x="305" stroke-width="0.1" y="768" stroke="none">Invalid view - remove from diagram.</text>
<rect x="778" y="746" fill="rgb(255,203,203)" width="195" height="40" stroke="none" stroke-width="0.1"/>
<rect x="778" y="746" fill="none" width="194" height="39" stroke-width="0.1"/>
<text xml:space="preserve" x="708" stroke-width="0.1" y="773" stroke="none">Invalid view - remove from diagram.</text>
<rect x="945" y="537" fill="rgb(255,203,203)" width="415" height="40" stroke="none" stroke-width="0.1"/>
<rect x="945" y="537" fill="none" width="414" height="39" stroke-width="0.1"/>
<text xml:space="preserve" x="985" stroke-width="0.1" y="564" stroke="none">Invalid view - remove from diagram.</text>
<rect x="640" y="316" fill="rgb(255,203,203)" width="40" height="40" stroke="none" stroke-width="0.1"/>
<rect x="640" y="316" fill="none" width="39" height="39" stroke-width="0.1"/>
<text xml:space="preserve" x="492" stroke-width="0.1" y="343" stroke="none">Invalid view - remove from diagram.</text>
<rect x="300" y="316" fill="rgb(255,203,203)" width="236" height="40" stroke="none" stroke-width="0.1"/>
<rect x="300" y="316" fill="none" width="235" height="39" stroke-width="0.1"/>
<text xml:space="preserve" x="250" stroke-width="0.1" y="343" stroke="none">Invalid view - remove from diagram.</text>
<rect x="310" y="226" fill="rgb(255,203,203)" width="40" height="56" stroke="none" stroke-width="0.1"/>
<rect x="310" y="226" fill="none" width="39" height="55" stroke-width="0.1"/>
<text xml:space="preserve" x="162" stroke-width="0.1" y="261" stroke="none">Invalid view - remove from diagram.</text>
<rect x="1049" y="326" fill="rgb(255,203,203)" width="40" height="40" stroke="none" stroke-width="0.1"/>
<rect x="1049" y="326" fill="none" width="39" height="39" stroke-width="0.1"/>
<text xml:space="preserve" x="901" stroke-width="0.1" y="353" stroke="none">Invalid view - remove from diagram.</text>
</g>
<g fill="red" stroke-width="1.1" font-family="'Segoe UI'" stroke-linecap="butt" stroke="red">
<line y2="564" fill="none" x1="571" x2="470" y1="564"/>
<line y2="596" fill="none" x1="470" x2="470" y1="564"/>
<line y2="596" fill="none" x1="470" x2="526" y1="596"/>
<line y2="741" fill="none" x1="526" x2="526" y1="596"/>
<text xml:space="preserve" x="408" y="601" clip-path="url(#clipPath1)" stroke="none">Invalid view - remove from diagram.</text>
<line clip-path="url(#clipPath2)" fill="none" x1="797" x2="863" y1="564" y2="564"/>
<line clip-path="url(#clipPath2)" fill="none" x1="863" x2="863" y1="564" y2="594"/>
<line clip-path="url(#clipPath2)" fill="none" x1="863" x2="830" y1="594" y2="594"/>
<line clip-path="url(#clipPath2)" fill="none" x1="830" x2="830" y1="594" y2="746"/>
<text xml:space="preserve" x="734" y="611" clip-path="url(#clipPath3)" stroke="none">Invalid view - remove from diagram.</text>
<line clip-path="url(#clipPath2)" fill="none" x1="664" x2="664" y1="356" y2="446"/>
<line clip-path="url(#clipPath2)" fill="none" x1="664" x2="703" y1="446" y2="446"/>
<line clip-path="url(#clipPath2)" fill="none" x1="703" x2="703" y1="446" y2="536"/>
<text xml:space="preserve" x="588" y="451" clip-path="url(#clipPath4)" stroke="none">Invalid view - remove from diagram.</text>
<line clip-path="url(#clipPath2)" fill="none" x1="797" x2="945" y1="551" y2="551"/>
<text xml:space="preserve" x="775" y="556" clip-path="url(#clipPath5)" stroke="none">Invalid view - remove from diagram.</text>
<line clip-path="url(#clipPath2)" fill="none" x1="680" x2="947" y1="345" y2="345"/>
<line clip-path="url(#clipPath2)" fill="none" x1="947" x2="947" y1="345" y2="329"/>
<line clip-path="url(#clipPath2)" fill="none" x1="947" x2="1152" y1="329" y2="329"/>
<line clip-path="url(#clipPath2)" fill="none" x1="1152" x2="1152" y1="329" y2="537"/>
<text xml:space="preserve" x="916" y="334" clip-path="url(#clipPath6)" stroke="none">Invalid view - remove from diagram.</text>
<line clip-path="url(#clipPath2)" fill="none" x1="640" x2="536" y1="322" y2="322"/>
<text xml:space="preserve" x="492" y="327" clip-path="url(#clipPath7)" stroke="none">Invalid view - remove from diagram.</text>
<line clip-path="url(#clipPath2)" fill="none" x1="349" x2="349" y1="356" y2="548"/>
<line clip-path="url(#clipPath2)" fill="none" x1="349" x2="420" y1="548" y2="548"/>
<line clip-path="url(#clipPath2)" fill="none" x1="420" x2="420" y1="548" y2="741"/>
<text xml:space="preserve" x="289" y="553" clip-path="url(#clipPath8)" stroke="none">Invalid view - remove from diagram.</text>
<line clip-path="url(#clipPath2)" fill="none" x1="418" x2="418" y1="356" y2="454"/>
<line clip-path="url(#clipPath2)" fill="none" x1="418" x2="482" y1="454" y2="454"/>
<line clip-path="url(#clipPath2)" fill="none" x1="482" x2="482" y1="454" y2="464"/>
<line clip-path="url(#clipPath2)" fill="none" x1="482" x2="865" y1="464" y2="464"/>
<line clip-path="url(#clipPath2)" fill="none" x1="865" x2="865" y1="464" y2="746"/>
<text xml:space="preserve" x="633" y="469" clip-path="url(#clipPath9)" stroke="none">Invalid view - remove from diagram.</text>
<line clip-path="url(#clipPath2)" fill="none" x1="649" x2="649" y1="576" y2="759"/>
<line clip-path="url(#clipPath2)" fill="none" x1="649" x2="643" y1="759" y2="759"/>
<line clip-path="url(#clipPath2)" fill="none" x1="643" x2="643" y1="759" y2="763"/>
<line clip-path="url(#clipPath2)" fill="none" x1="643" x2="567" y1="763" y2="763"/>
<text xml:space="preserve" x="553" y="716" clip-path="url(#clipPath10)" stroke="none">Invalid view - remove from diagram.</text>
<line clip-path="url(#clipPath2)" fill="none" x1="706" x2="706" y1="576" y2="757"/>
<line clip-path="url(#clipPath2)" fill="none" x1="706" x2="714" y1="757" y2="757"/>
<line clip-path="url(#clipPath2)" fill="none" x1="714" x2="714" y1="757" y2="770"/>
<line clip-path="url(#clipPath2)" fill="none" x1="714" x2="778" y1="770" y2="770"/>
<text xml:space="preserve" x="610" y="714" clip-path="url(#clipPath11)" stroke="none">Invalid view - remove from diagram.</text>
<line clip-path="url(#clipPath2)" fill="none" x1="1191" x2="1191" y1="537" y2="451"/>
<line clip-path="url(#clipPath2)" fill="none" x1="1191" x2="1064" y1="451" y2="451"/>
<line clip-path="url(#clipPath2)" fill="none" x1="1064" x2="1064" y1="451" y2="366"/>
<text xml:space="preserve" x="1032" y="456" clip-path="url(#clipPath12)" stroke="none">Invalid view - remove from diagram.</text>
<line clip-path="url(#clipPath2)" fill="none" x1="660" x2="660" y1="316" y2="236"/>
<line clip-path="url(#clipPath2)" fill="none" x1="660" x2="648" y1="236" y2="236"/>
<line clip-path="url(#clipPath2)" fill="none" x1="648" x2="648" y1="236" y2="254"/>
<line clip-path="url(#clipPath2)" fill="none" x1="648" x2="350" y1="254" y2="254"/>
<text xml:space="preserve" x="458" y="259" clip-path="url(#clipPath13)" stroke="none">Invalid view - remove from diagram.</text>
</g>
</g>
<rect x="571" y="536" fill-opacity="0" width="226" title="A switched unidirectional forwarding element that can take one or more inputs and switch to one or more outputs.&#13;&#10;The switch can also be open (high impedance)." id="MultiSwitchedUniFlow" height="40" stroke-opacity="0">
<title>A switched unidirectional forwarding element that can take one or more inputs and switch to one or more outputs.&#13;
The switch can also be open (high impedance).</title>
</rect>
<rect x="379" y="741" fill-opacity="0" width="188" title="The grouping of FC ingress ports that have the same behavior and relationship to the switch etc.&#13;&#10;Will carry rules for the grouping." id="IngressPortSet" height="40" stroke-opacity="0">
<title>The grouping of FC ingress ports that have the same behavior and relationship to the switch etc.&#13;
Will carry rules for the grouping.</title>
</rect>
<rect x="778" y="746" fill-opacity="0" width="195" title="The grouping of FC egress ports that have the same behavior and relationship to the switch etc.&#13;&#10;Will carry rules for the grouping." id="EgressPortSet" height="40" stroke-opacity="0">
<title>The grouping of FC egress ports that have the same behavior and relationship to the switch etc.&#13;
Will carry rules for the grouping.</title>
</rect>
<rect x="945" y="537" fill-opacity="0" width="415" title="The spec of a ConfigurationAndSwitchController." id="ConfigurationAndSwitchControllerSpec" height="40" stroke-opacity="0">
<title>The spec of a ConfigurationAndSwitchController.</title>
</rect>
<rect x="640" y="316" fill-opacity="0" width="40" title="The overall spec for the forwarding entity." id="ForwardingSpec" height="40" stroke-opacity="0">
<title>The overall spec for the forwarding entity.</title>
</rect>
<rect x="300" y="316" fill-opacity="0" width="236" title="The specification a set of equivalent port of the forwarding entity." id="PortSetSpec" height="40" stroke-opacity="0">
<title>The specification a set of equivalent port of the forwarding entity.</title>
</rect>
<rect x="310" y="226" fill-opacity="0" width="40" title="The ForwardingConstruct (FC) class models enabled constrained potential for forwarding between two or more FcPorts at a particular specific layerProtocol .&#13;&#10;Like the LTP, the FC supports any transport protocol including all analogue, circuit and packet forms.&#13;&#10;For digital layer networks it is used to effect forwarding of transport characteristic (layer protocol) information.&#13;&#10;An FC can be in only one ForwardingDomain (FD).&#13;&#10;The FC is a forwarding entity.&#13;&#10;At a low level of the recursion, a FC represents a cross-connection within an NE. It may also represent a fragment of a cross-connection under certain circumstances.&#13;&#10;The FC object can be used to represent many different structures including point-to-point (P2P), point-to-multipoint (P2MP), rooted-multipoint (RMP) and multipoint-to-multipoint (MP2MP) bridge and selector structures for linear, ring or mesh protection schemes.&#13;&#10;When applied to media, the FC represents the ability for a flow/wave (potentially containing information), to be propagated between FcPorts. &#13;&#10;The existence of a FC instance is independent of the presence (or absence) of a flow/wave (and any information encoded within it).  &#13;&#10;A flow/wave cannot propagate in the absence of a FC instance." id="ForwardingConstruct" height="56" stroke-opacity="0">
<title>The ForwardingConstruct (FC) class models enabled constrained potential for forwarding between two or more FcPorts at a particular specific layerProtocol .&#13;
Like the LTP, the FC supports any transport protocol including all analogue, circuit and packet forms.&#13;
For digital layer networks it is used to effect forwarding of transport characteristic (layer protocol) information.&#13;
An FC can be in only one ForwardingDomain (FD).&#13;
The FC is a forwarding entity.&#13;
At a low level of the recursion, a FC represents a cross-connection within an NE. It may also represent a fragment of a cross-connection under certain circumstances.&#13;
The FC object can be used to represent many different structures including point-to-point (P2P), point-to-multipoint (P2MP), rooted-multipoint (RMP) and multipoint-to-multipoint (MP2MP) bridge and selector structures for linear, ring or mesh protection schemes.&#13;
When applied to media, the FC represents the ability for a flow/wave (potentially containing information), to be propagated between FcPorts. &#13;
The existence of a FC instance is independent of the presence (or absence) of a flow/wave (and any information encoded within it).  &#13;
A flow/wave cannot propagate in the absence of a FC instance.</title>
</rect>
<rect x="1049" y="326" fill-opacity="0" width="40" title="Represents the capability to control and coordinate switches, to add/delete/modify FCs and to add/delete/modify LTPs/LPs so as to realize a protection scheme." id="ConfigurationAndSwitchControl" height="40" stroke-opacity="0">
<title>Represents the capability to control and coordinate switches, to add/delete/modify FCs and to add/delete/modify LTPs/LPs so as to realize a protection scheme.</title>
</rect>
</svg>
