<?xml version="1.0" encoding="UTF-8"?><svg xmlns="http://www.w3.org/2000/svg" xmlns:xlink="http://www.w3.org/1999/xlink" stroke-dasharray="none" shape-rendering="auto" font-family="'Dialog'" width="985" text-rendering="auto" fill-opacity="1" contentScriptType="text/ecmascript" color-interpolation="auto" color-rendering="auto" preserveAspectRatio="xMidYMid meet" font-size="12" viewBox="0 0 985 1029" fill="black" stroke="black" image-rendering="auto" stroke-miterlimit="10" zoomAndPan="magnify" version="1.0" stroke-linecap="square" stroke-linejoin="miter" contentStyleType="text/css" font-style="normal" height="1029" stroke-width="1" stroke-dashoffset="0" font-weight="normal" stroke-opacity="1">
<!--Generated by the Batik Graphics2D SVG Generator-->
<defs id="genericDefs"/>
<g>
<defs id="defs1">
<clipPath clipPathUnits="userSpaceOnUse" id="clipPath1">
<path d="M428 498 L470 498 L470 540 L428 540 L428 498 Z"/>
</clipPath>
<clipPath clipPathUnits="userSpaceOnUse" id="clipPath2">
<path d="M414 524 L608 524 L608 542 L414 542 L414 524 Z"/>
</clipPath>
<clipPath clipPathUnits="userSpaceOnUse" id="clipPath3">
<path d="M-1 -1 L986 -1 L986 1030 L-1 1030 L-1 -1 Z"/>
</clipPath>
<clipPath clipPathUnits="userSpaceOnUse" id="clipPath4">
<path d="M584 508 L778 508 L778 526 L584 526 L584 508 Z"/>
</clipPath>
<clipPath clipPathUnits="userSpaceOnUse" id="clipPath5">
<path d="M492 227 L686 227 L686 245 L492 245 L492 227 Z"/>
</clipPath>
<clipPath clipPathUnits="userSpaceOnUse" id="clipPath6">
<path d="M391 103 L585 103 L585 121 L391 121 L391 103 Z"/>
</clipPath>
<clipPath clipPathUnits="userSpaceOnUse" id="clipPath7">
<path d="M213 329 L407 329 L407 347 L213 347 L213 329 Z"/>
</clipPath>
<clipPath clipPathUnits="userSpaceOnUse" id="clipPath8">
<path d="M614 203 L808 203 L808 221 L614 221 L614 203 Z"/>
</clipPath>
<clipPath clipPathUnits="userSpaceOnUse" id="clipPath9">
<path d="M467 506 L661 506 L661 524 L467 524 L467 506 Z"/>
</clipPath>
<clipPath clipPathUnits="userSpaceOnUse" id="clipPath10">
<path d="M430 692 L624 692 L624 710 L430 710 L430 692 Z"/>
</clipPath>
<clipPath clipPathUnits="userSpaceOnUse" id="clipPath11">
<path d="M525 523 L719 523 L719 541 L525 541 L525 523 Z"/>
</clipPath>
<clipPath clipPathUnits="userSpaceOnUse" id="clipPath12">
<path d="M543 593 L737 593 L737 611 L543 611 L543 593 Z"/>
</clipPath>
<clipPath clipPathUnits="userSpaceOnUse" id="clipPath13">
<path d="M77 223 L271 223 L271 241 L77 241 L77 223 Z"/>
</clipPath>
<clipPath clipPathUnits="userSpaceOnUse" id="clipPath14">
<path d="M317 331 L511 331 L511 349 L317 349 L317 331 Z"/>
</clipPath>
<clipPath clipPathUnits="userSpaceOnUse" id="clipPath15">
<path d="M253 431 L447 431 L447 449 L253 449 L253 431 Z"/>
</clipPath>
<clipPath clipPathUnits="userSpaceOnUse" id="clipPath16">
<path d="M576 69 L770 69 L770 87 L576 87 L576 69 Z"/>
</clipPath>
<clipPath clipPathUnits="userSpaceOnUse" id="clipPath17">
<path d="M386 38 L580 38 L580 56 L386 56 L386 38 Z"/>
</clipPath>
<clipPath clipPathUnits="userSpaceOnUse" id="clipPath18">
<path d="M768 647 L962 647 L962 665 L768 665 L768 647 Z"/>
</clipPath>
<clipPath clipPathUnits="userSpaceOnUse" id="clipPath19">
<path d="M618 222 L812 222 L812 240 L618 240 L618 222 Z"/>
</clipPath>
<clipPath clipPathUnits="userSpaceOnUse" id="clipPath20">
<path d="M669 330 L863 330 L863 348 L669 348 L669 330 Z"/>
</clipPath>
<clipPath clipPathUnits="userSpaceOnUse" id="clipPath21">
<path d="M767 544 L961 544 L961 562 L767 562 L767 544 Z"/>
</clipPath>
</defs>
<g fill="rgb(255,203,203)" font-family="'Segoe UI'" stroke-linejoin="round" stroke="rgb(255,203,203)" stroke-width="0" stroke-miterlimit="0">
<rect width="170" x="511" height="40" y="326" stroke="none"/>
</g>
<g stroke-linecap="butt" font-family="'Segoe UI'">
<rect fill="none" width="169" x="511" height="39" y="326"/>
<text xml:space="preserve" x="499" y="351" stroke="none">Invalid view - remove from diagram.</text>
<rect x="283" y="531" fill="rgb(255,203,203)" width="183" height="40" stroke="none"/>
<rect x="283" y="531" fill="none" width="182" height="39" stroke-width="0.1"/>
<text xml:space="preserve" x="278" stroke-width="0.1" y="556" stroke="none">Invalid view - remove from diagram.</text>
<rect x="710" y="536" fill="rgb(255,203,203)" width="184" height="40" stroke="none" stroke-width="0.1"/>
<rect x="710" y="536" fill="none" width="183" height="39" stroke-width="0.1"/>
<text xml:space="preserve" x="705" stroke-width="0.1" y="561" stroke="none">Invalid view - remove from diagram.</text>
<rect x="540" y="106" fill="rgb(255,203,203)" width="40" height="40" stroke="none" stroke-width="0.1"/>
<rect x="540" y="106" fill="none" width="39" height="39" stroke-width="0.1"/>
<text xml:space="preserve" x="463" stroke-width="0.1" y="131" stroke="none">Invalid view - remove from diagram.</text>
<rect x="200" y="106" fill="rgb(255,203,203)" width="236" height="40" stroke="none" stroke-width="0.1"/>
<rect x="200" y="106" fill="none" width="235" height="39" stroke-width="0.1"/>
<text xml:space="preserve" x="221" stroke-width="0.1" y="131" stroke="none">Invalid view - remove from diagram.</text>
<rect x="71" y="502" fill="rgb(255,203,203)" width="189" height="40" stroke="none" stroke-width="0.1"/>
<rect x="71" y="502" fill="none" width="188" height="39" stroke-width="0.1"/>
<text xml:space="preserve" x="69" stroke-width="0.1" y="527" stroke="none">Invalid view - remove from diagram.</text>
<rect x="300" y="641" fill="rgb(255,203,203)" width="136" height="40" stroke="none" stroke-width="0.1"/>
<rect x="300" y="641" fill="none" width="135" height="39" stroke-width="0.1"/>
<text xml:space="preserve" x="271" stroke-width="0.1" y="666" stroke="none">Invalid view - remove from diagram.</text>
<rect x="659" y="428" fill="rgb(255,203,203)" width="101" height="40" stroke="none" stroke-width="0.1"/>
<rect x="659" y="428" fill="none" width="100" height="39" stroke-width="0.1"/>
<text xml:space="preserve" x="613" stroke-width="0.1" y="453" stroke="none">Invalid view - remove from diagram.</text>
<rect x="780" y="446" fill="rgb(255,203,203)" width="40" height="41" stroke="none" stroke-width="0.1"/>
<rect x="780" y="446" fill="none" width="39" height="40" stroke-width="0.1"/>
<text xml:space="preserve" x="703" stroke-width="0.1" y="472" stroke="none">Invalid view - remove from diagram.</text>
<rect x="574" y="766" fill="rgb(255,203,203)" width="330" height="40" stroke="none" stroke-width="0.1"/>
<rect x="574" y="766" fill="none" width="329" height="39" stroke-width="0.1"/>
<text xml:space="preserve" x="642" stroke-width="0.1" y="791" stroke="none">Invalid view - remove from diagram.</text>
<rect x="848" y="50" fill="rgb(255,203,203)" width="40" height="56" stroke="none" stroke-width="0.1"/>
<rect x="848" y="50" fill="none" width="39" height="55" stroke-width="0.1"/>
<text xml:space="preserve" x="771" stroke-width="0.1" y="83" stroke="none">Invalid view - remove from diagram.</text>
<rect x="585" y="646" fill="rgb(255,203,203)" width="276" height="40" stroke="none" stroke-width="0.1"/>
<rect x="585" y="646" fill="none" width="275" height="39" stroke-width="0.1"/>
<text xml:space="preserve" x="626" stroke-width="0.1" y="671" stroke="none">Invalid view - remove from diagram.</text>
<rect x="91" y="318" fill="rgb(255,203,203)" width="40" height="40" stroke="none" stroke-width="0.1"/>
<rect x="91" y="318" fill="none" width="39" height="39" stroke-width="0.1"/>
<text xml:space="preserve" x="14" stroke-width="0.1" y="343" stroke="none">Invalid view - remove from diagram.</text>
<rect x="192" y="17" fill="rgb(255,203,203)" width="114" height="61" stroke="none" stroke-width="0.1"/>
<rect x="192" y="17" fill="none" width="113" height="60" stroke-width="0.1"/>
<text xml:space="preserve" x="152" stroke-width="0.1" y="53" stroke="none">Invalid view - remove from diagram.</text>
<rect x="851" y="312" fill="rgb(255,203,203)" width="40" height="40" stroke="none" stroke-width="0.1"/>
<rect x="851" y="312" fill="none" width="39" height="39" stroke-width="0.1"/>
<text xml:space="preserve" x="774" stroke-width="0.1" y="337" stroke="none">Invalid view - remove from diagram.</text>
<line fill="none" x1="511" x2="511" y1="366" y2="554" stroke="red" stroke-width="1.1"/>
<line fill="none" x1="511" x2="551" y1="554" y2="554" stroke="red" stroke-width="1.1"/>
<line fill="none" x1="551" x2="551" y1="554" y2="534" stroke="red" stroke-width="1.1"/>
<line fill="none" x1="551" x2="466" y1="534" y2="534" stroke="red" stroke-width="1.1"/>
<rect x="429" y="499" clip-path="url(#clipPath1)" fill="rgb(255,203,203)" width="40" height="40" stroke="none" stroke-width="1.1"/>
<rect x="429" y="499" clip-path="url(#clipPath1)" fill="none" width="39" height="39" stroke-width="0.1"/>
<text x="352" y="524" clip-path="url(#clipPath1)" stroke="none" stroke-width="0.1" xml:space="preserve">Invalid view - remove from diagram.</text>
<text x="415" y="538" clip-path="url(#clipPath2)" fill="red" stroke="none" stroke-width="0.1" xml:space="preserve">Invalid view - remove from diagram.</text>
<line clip-path="url(#clipPath3)" fill="none" x1="681" x2="681" y1="366" y2="558" stroke="red" stroke-width="1.1"/>
<line clip-path="url(#clipPath3)" fill="none" x1="681" x2="648" y1="558" y2="558" stroke="red" stroke-width="1.1"/>
<line clip-path="url(#clipPath3)" fill="none" x1="648" x2="648" y1="558" y2="543" stroke="red" stroke-width="1.1"/>
<line clip-path="url(#clipPath3)" fill="none" x1="648" x2="710" y1="543" y2="543" stroke="red" stroke-width="1.1"/>
<rect x="429" y="499" clip-path="url(#clipPath1)" fill="rgb(255,203,203)" width="40" height="40" stroke="none" stroke-width="1.1"/>
<rect x="429" y="499" clip-path="url(#clipPath1)" fill="none" width="39" height="39" stroke-width="0.1"/>
<text x="352" y="524" clip-path="url(#clipPath1)" stroke="none" stroke-width="0.1" xml:space="preserve">Invalid view - remove from diagram.</text>
<text x="585" y="522" clip-path="url(#clipPath4)" fill="red" stroke="none" stroke-width="0.1" xml:space="preserve">Invalid view - remove from diagram.</text>
<line clip-path="url(#clipPath3)" fill="none" x1="565" x2="565" y1="146" y2="236" stroke="red" stroke-width="1.1"/>
<line clip-path="url(#clipPath3)" fill="none" x1="565" x2="613" y1="236" y2="236" stroke="red" stroke-width="1.1"/>
<line clip-path="url(#clipPath3)" fill="none" x1="613" x2="613" y1="236" y2="326" stroke="red" stroke-width="1.1"/>
<rect x="429" y="499" clip-path="url(#clipPath1)" fill="rgb(255,203,203)" width="40" height="40" stroke="none" stroke-width="1.1"/>
<rect x="429" y="499" clip-path="url(#clipPath1)" fill="none" width="39" height="39" stroke-width="0.1"/>
<text x="352" y="524" clip-path="url(#clipPath1)" stroke="none" stroke-width="0.1" xml:space="preserve">Invalid view - remove from diagram.</text>
<text x="493" y="241" clip-path="url(#clipPath5)" fill="red" stroke="none" stroke-width="0.1" xml:space="preserve">Invalid view - remove from diagram.</text>
<line clip-path="url(#clipPath3)" fill="none" x1="540" x2="436" y1="112" y2="112" stroke="red" stroke-width="1.1"/>
<rect x="429" y="499" clip-path="url(#clipPath1)" fill="rgb(255,203,203)" width="40" height="40" stroke="none" stroke-width="1.1"/>
<rect x="429" y="499" clip-path="url(#clipPath1)" fill="none" width="39" height="39" stroke-width="0.1"/>
<text x="352" y="524" clip-path="url(#clipPath1)" stroke="none" stroke-width="0.1" xml:space="preserve">Invalid view - remove from diagram.</text>
<text x="392" y="117" clip-path="url(#clipPath6)" fill="red" stroke="none" stroke-width="0.1" xml:space="preserve">Invalid view - remove from diagram.</text>
<line clip-path="url(#clipPath3)" fill="none" x1="251" x2="251" y1="146" y2="338" stroke="red" stroke-width="1.1"/>
<line clip-path="url(#clipPath3)" fill="none" x1="251" x2="368" y1="338" y2="338" stroke="red" stroke-width="1.1"/>
<line clip-path="url(#clipPath3)" fill="none" x1="368" x2="368" y1="338" y2="531" stroke="red" stroke-width="1.1"/>
<rect x="429" y="499" clip-path="url(#clipPath1)" fill="rgb(255,203,203)" width="40" height="40" stroke="none" stroke-width="1.1"/>
<rect x="429" y="499" clip-path="url(#clipPath1)" fill="none" width="39" height="39" stroke-width="0.1"/>
<text x="352" y="524" clip-path="url(#clipPath1)" stroke="none" stroke-width="0.1" xml:space="preserve">Invalid view - remove from diagram.</text>
<text x="214" y="343" clip-path="url(#clipPath7)" fill="red" stroke="none" stroke-width="0.1" xml:space="preserve">Invalid view - remove from diagram.</text>
<line clip-path="url(#clipPath3)" fill="none" x1="436" x2="517" y1="126" y2="126" stroke="red" stroke-width="1.1"/>
<line clip-path="url(#clipPath3)" fill="none" x1="517" x2="517" y1="126" y2="212" stroke="red" stroke-width="1.1"/>
<line clip-path="url(#clipPath3)" fill="none" x1="517" x2="747" y1="212" y2="212" stroke="red" stroke-width="1.1"/>
<line clip-path="url(#clipPath3)" fill="none" x1="747" x2="747" y1="212" y2="536" stroke="red" stroke-width="1.1"/>
<rect x="429" y="499" clip-path="url(#clipPath1)" fill="rgb(255,203,203)" width="40" height="40" stroke="none" stroke-width="1.1"/>
<rect x="429" y="499" clip-path="url(#clipPath1)" fill="none" width="39" height="39" stroke-width="0.1"/>
<text x="352" y="524" clip-path="url(#clipPath1)" stroke="none" stroke-width="0.1" xml:space="preserve">Invalid view - remove from diagram.</text>
<text x="615" y="217" clip-path="url(#clipPath8)" fill="red" stroke="none" stroke-width="0.1" xml:space="preserve">Invalid view - remove from diagram.</text>
<line clip-path="url(#clipPath3)" fill="none" x1="564" x2="564" y1="366" y2="565" stroke="red" stroke-width="1.1"/>
<line clip-path="url(#clipPath3)" fill="none" x1="564" x2="466" y1="565" y2="565" stroke="red" stroke-width="1.1"/>
<text x="468" y="520" clip-path="url(#clipPath9)" fill="red" stroke="none" stroke-width="1.1" xml:space="preserve">Invalid view - remove from diagram.</text>
<line clip-path="url(#clipPath3)" fill="none" x1="527" x2="527" y1="565" y2="763" stroke="red" stroke-width="1.1"/>
<line clip-path="url(#clipPath3)" fill="none" x1="527" x2="598" y1="763" y2="763" stroke="red" stroke-width="1.1"/>
<line clip-path="url(#clipPath3)" fill="none" x1="598" x2="598" y1="763" y2="766" stroke="red" stroke-width="1.1"/>
<text x="431" y="706" clip-path="url(#clipPath10)" fill="red" stroke="none" stroke-width="1.1" xml:space="preserve">Invalid view - remove from diagram.</text>
<line clip-path="url(#clipPath3)" fill="none" x1="622" x2="622" y1="366" y2="571" stroke="red" stroke-width="1.1"/>
<line clip-path="url(#clipPath3)" fill="none" x1="622" x2="609" y1="571" y2="571" stroke="red" stroke-width="1.1"/>
<line clip-path="url(#clipPath3)" fill="none" x1="609" x2="609" y1="571" y2="559" stroke="red" stroke-width="1.1"/>
<line clip-path="url(#clipPath3)" fill="none" x1="609" x2="710" y1="559" y2="559" stroke="red" stroke-width="1.1"/>
<text x="526" y="537" clip-path="url(#clipPath11)" fill="red" stroke="none" stroke-width="1.1" xml:space="preserve">Invalid view - remove from diagram.</text>
<line clip-path="url(#clipPath3)" fill="none" x1="682" x2="682" y1="559" y2="602" stroke="red" stroke-width="1.1"/>
<line clip-path="url(#clipPath3)" fill="none" x1="682" x2="599" y1="602" y2="602" stroke="red" stroke-width="1.1"/>
<line clip-path="url(#clipPath3)" fill="none" x1="599" x2="599" y1="602" y2="646" stroke="red" stroke-width="1.1"/>
<text x="544" y="607" clip-path="url(#clipPath12)" fill="red" stroke="none" stroke-width="1.1" xml:space="preserve">Invalid view - remove from diagram.</text>
<line clip-path="url(#clipPath3)" fill="none" x1="226" x2="226" y1="146" y2="232" stroke="red" stroke-width="1.1"/>
<line clip-path="url(#clipPath3)" fill="none" x1="226" x2="122" y1="232" y2="232" stroke="red" stroke-width="1.1"/>
<line clip-path="url(#clipPath3)" fill="none" x1="122" x2="122" y1="232" y2="318" stroke="red" stroke-width="1.1"/>
<rect x="429" y="499" clip-path="url(#clipPath1)" fill="rgb(255,203,203)" width="40" height="40" stroke="none" stroke-width="1.1"/>
<rect x="429" y="499" clip-path="url(#clipPath1)" fill="none" width="39" height="39" stroke-width="0.1"/>
<text x="352" y="524" clip-path="url(#clipPath1)" stroke="none" stroke-width="0.1" xml:space="preserve">Invalid view - remove from diagram.</text>
<text x="78" y="237" clip-path="url(#clipPath13)" fill="red" stroke="none" stroke-width="0.1" xml:space="preserve">Invalid view - remove from diagram.</text>
<line clip-path="url(#clipPath3)" fill="none" x1="580" x2="614" y1="136" y2="136" stroke="red" stroke-width="1.1"/>
<line clip-path="url(#clipPath3)" fill="none" x1="614" x2="614" y1="136" y2="266" stroke="red" stroke-width="1.1"/>
<line clip-path="url(#clipPath3)" fill="none" x1="614" x2="414" y1="266" y2="266" stroke="red" stroke-width="1.1"/>
<line clip-path="url(#clipPath3)" fill="none" x1="414" x2="414" y1="266" y2="426" stroke="red" stroke-width="1.1"/>
<line clip-path="url(#clipPath3)" fill="none" x1="414" x2="131" y1="426" y2="426" stroke="red" stroke-width="1.1"/>
<line clip-path="url(#clipPath3)" fill="none" x1="131" x2="131" y1="426" y2="358" stroke="red" stroke-width="1.1"/>
<rect x="429" y="499" clip-path="url(#clipPath1)" fill="rgb(255,203,203)" width="40" height="40" stroke="none" stroke-width="1.1"/>
<rect x="429" y="499" clip-path="url(#clipPath1)" fill="none" width="39" height="39" stroke-width="0.1"/>
<text x="352" y="524" clip-path="url(#clipPath1)" stroke="none" stroke-width="0.1" xml:space="preserve">Invalid view - remove from diagram.</text>
<text x="318" y="345" clip-path="url(#clipPath14)" fill="red" stroke="none" stroke-width="0.1" xml:space="preserve">Invalid view - remove from diagram.</text>
<line clip-path="url(#clipPath3)" fill="none" x1="111" x2="111" y1="358" y2="440" stroke="red" stroke-width="1.1"/>
<line clip-path="url(#clipPath3)" fill="none" x1="111" x2="596" y1="440" y2="440" stroke="red" stroke-width="1.1"/>
<line clip-path="url(#clipPath3)" fill="none" x1="596" x2="596" y1="440" y2="366" stroke="red" stroke-width="1.1"/>
<rect x="429" y="499" clip-path="url(#clipPath1)" fill="rgb(255,203,203)" width="40" height="40" stroke="none" stroke-width="1.1"/>
<rect x="429" y="499" clip-path="url(#clipPath1)" fill="none" width="39" height="39" stroke-width="0.1"/>
<text x="352" y="524" clip-path="url(#clipPath1)" stroke="none" stroke-width="0.1" xml:space="preserve">Invalid view - remove from diagram.</text>
<rect x="429" y="499" clip-path="url(#clipPath1)" fill="rgb(255,203,203)" width="40" height="40" stroke="none" stroke-width="0.1"/>
<rect x="429" y="499" clip-path="url(#clipPath1)" fill="none" width="39" height="39" stroke-width="0.1"/>
<text x="352" y="524" clip-path="url(#clipPath1)" stroke="none" stroke-width="0.1" xml:space="preserve">Invalid view - remove from diagram.</text>
<text x="254" y="445" clip-path="url(#clipPath15)" fill="red" stroke="none" stroke-width="0.1" xml:space="preserve">Invalid view - remove from diagram.</text>
<line clip-path="url(#clipPath3)" fill="none" x1="578" x2="578" y1="106" y2="52" stroke="red" stroke-width="1.1"/>
<line clip-path="url(#clipPath3)" fill="none" x1="578" x2="627" y1="52" y2="52" stroke="red" stroke-width="1.1"/>
<line clip-path="url(#clipPath3)" fill="none" x1="627" x2="627" y1="52" y2="78" stroke="red" stroke-width="1.1"/>
<line clip-path="url(#clipPath3)" fill="none" x1="627" x2="848" y1="78" y2="78" stroke="red" stroke-width="1.1"/>
<rect x="429" y="499" clip-path="url(#clipPath1)" fill="rgb(255,203,203)" width="40" height="40" stroke="none" stroke-width="1.1"/>
<rect x="429" y="499" clip-path="url(#clipPath1)" fill="none" width="39" height="39" stroke-width="0.1"/>
<text x="352" y="524" clip-path="url(#clipPath1)" stroke="none" stroke-width="0.1" xml:space="preserve">Invalid view - remove from diagram.</text>
<rect x="429" y="499" clip-path="url(#clipPath1)" fill="rgb(255,203,203)" width="40" height="40" stroke="none" stroke-width="0.1"/>
<rect x="429" y="499" clip-path="url(#clipPath1)" fill="none" width="39" height="39" stroke-width="0.1"/>
<text x="352" y="524" clip-path="url(#clipPath1)" stroke="none" stroke-width="0.1" xml:space="preserve">Invalid view - remove from diagram.</text>
<text x="577" y="83" clip-path="url(#clipPath16)" fill="red" stroke="none" stroke-width="0.1" xml:space="preserve">Invalid view - remove from diagram.</text>
<line clip-path="url(#clipPath3)" fill="none" x1="553" x2="553" y1="106" y2="23" stroke="red" stroke-width="1.1"/>
<line clip-path="url(#clipPath3)" fill="none" x1="553" x2="526" y1="23" y2="23" stroke="red" stroke-width="1.1"/>
<line clip-path="url(#clipPath3)" fill="none" x1="526" x2="526" y1="23" y2="47" stroke="red" stroke-width="1.1"/>
<line clip-path="url(#clipPath3)" fill="none" x1="526" x2="306" y1="47" y2="47" stroke="red" stroke-width="1.1"/>
<rect x="429" y="499" clip-path="url(#clipPath1)" fill="rgb(255,203,203)" width="40" height="40" stroke="none" stroke-width="1.1"/>
<rect x="429" y="499" clip-path="url(#clipPath1)" fill="none" width="39" height="39" stroke-width="0.1"/>
<text x="352" y="524" clip-path="url(#clipPath1)" stroke="none" stroke-width="0.1" xml:space="preserve">Invalid view - remove from diagram.</text>
<rect x="429" y="499" clip-path="url(#clipPath1)" fill="rgb(255,203,203)" width="40" height="40" stroke="none" stroke-width="0.1"/>
<rect x="429" y="499" clip-path="url(#clipPath1)" fill="none" width="39" height="39" stroke-width="0.1"/>
<text x="352" y="524" clip-path="url(#clipPath1)" stroke="none" stroke-width="0.1" xml:space="preserve">Invalid view - remove from diagram.</text>
<text x="387" y="52" clip-path="url(#clipPath17)" fill="red" stroke="none" stroke-width="0.1" xml:space="preserve">Invalid view - remove from diagram.</text>
<line clip-path="url(#clipPath3)" fill="none" x1="865" x2="865" y1="352" y2="786" stroke="red" stroke-width="1.1"/>
<line clip-path="url(#clipPath3)" fill="none" x1="865" x2="961" y1="786" y2="786" stroke="red" stroke-width="1.1"/>
<line clip-path="url(#clipPath3)" fill="none" x1="961" x2="961" y1="786" y2="766" stroke="red" stroke-width="1.1"/>
<line clip-path="url(#clipPath3)" fill="none" x1="961" x2="904" y1="766" y2="766" stroke="red" stroke-width="1.1"/>
<rect x="429" y="499" clip-path="url(#clipPath1)" fill="rgb(255,203,203)" width="40" height="40" stroke="none" stroke-width="1.1"/>
<rect x="429" y="499" clip-path="url(#clipPath1)" fill="none" width="39" height="39" stroke-width="0.1"/>
<text x="352" y="524" clip-path="url(#clipPath1)" stroke="none" stroke-width="0.1" xml:space="preserve">Invalid view - remove from diagram.</text>
<rect x="429" y="499" clip-path="url(#clipPath1)" fill="rgb(255,203,203)" width="40" height="40" stroke="none" stroke-width="0.1"/>
<rect x="429" y="499" clip-path="url(#clipPath1)" fill="none" width="39" height="39" stroke-width="0.1"/>
<text x="352" y="524" clip-path="url(#clipPath1)" stroke="none" stroke-width="0.1" xml:space="preserve">Invalid view - remove from diagram.</text>
<text x="769" y="661" clip-path="url(#clipPath18)" fill="red" stroke="none" stroke-width="0.1" xml:space="preserve">Invalid view - remove from diagram.</text>
<line clip-path="url(#clipPath3)" fill="none" x1="580" x2="715" y1="138" y2="138" stroke="red" stroke-width="1.1"/>
<line clip-path="url(#clipPath3)" fill="none" x1="715" x2="715" y1="138" y2="323" stroke="red" stroke-width="1.1"/>
<line clip-path="url(#clipPath3)" fill="none" x1="715" x2="851" y1="323" y2="323" stroke="red" stroke-width="1.1"/>
<rect x="429" y="499" clip-path="url(#clipPath1)" fill="rgb(255,203,203)" width="40" height="40" stroke="none" stroke-width="1.1"/>
<rect x="429" y="499" clip-path="url(#clipPath1)" fill="none" width="39" height="39" stroke-width="0.1"/>
<text x="352" y="524" clip-path="url(#clipPath1)" stroke="none" stroke-width="0.1" xml:space="preserve">Invalid view - remove from diagram.</text>
<rect x="429" y="499" clip-path="url(#clipPath1)" fill="rgb(255,203,203)" width="40" height="40" stroke="none" stroke-width="0.1"/>
<rect x="429" y="499" clip-path="url(#clipPath1)" fill="none" width="39" height="39" stroke-width="0.1"/>
<text x="352" y="524" clip-path="url(#clipPath1)" stroke="none" stroke-width="0.1" xml:space="preserve">Invalid view - remove from diagram.</text>
<text x="619" y="236" clip-path="url(#clipPath19)" fill="red" stroke="none" stroke-width="0.1" xml:space="preserve">Invalid view - remove from diagram.</text>
<line clip-path="url(#clipPath3)" fill="none" x1="681" x2="766" y1="330" y2="330" stroke="red" stroke-width="1.1"/>
<line clip-path="url(#clipPath3)" fill="none" x1="766" x2="766" y1="330" y2="348" stroke="red" stroke-width="1.1"/>
<line clip-path="url(#clipPath3)" fill="none" x1="766" x2="851" y1="348" y2="348" stroke="red" stroke-width="1.1"/>
<rect x="429" y="499" clip-path="url(#clipPath1)" fill="rgb(255,203,203)" width="40" height="40" stroke="none" stroke-width="1.1"/>
<rect x="429" y="499" clip-path="url(#clipPath1)" fill="none" width="39" height="39" stroke-width="0.1"/>
<text x="352" y="524" clip-path="url(#clipPath1)" stroke="none" stroke-width="0.1" xml:space="preserve">Invalid view - remove from diagram.</text>
<rect x="429" y="499" clip-path="url(#clipPath1)" fill="rgb(255,203,203)" width="40" height="40" stroke="none" stroke-width="0.1"/>
<rect x="429" y="499" clip-path="url(#clipPath1)" fill="none" width="39" height="39" stroke-width="0.1"/>
<text x="352" y="524" clip-path="url(#clipPath1)" stroke="none" stroke-width="0.1" xml:space="preserve">Invalid view - remove from diagram.</text>
<text x="670" y="344" clip-path="url(#clipPath20)" fill="red" stroke="none" stroke-width="0.1" xml:space="preserve">Invalid view - remove from diagram.</text>
<line clip-path="url(#clipPath3)" fill="none" x1="864" x2="864" y1="352" y2="666" stroke="red" stroke-width="1.1"/>
<line clip-path="url(#clipPath3)" fill="none" x1="864" x2="896" y1="666" y2="666" stroke="red" stroke-width="1.1"/>
<line clip-path="url(#clipPath3)" fill="none" x1="896" x2="896" y1="666" y2="646" stroke="red" stroke-width="1.1"/>
<line clip-path="url(#clipPath3)" fill="none" x1="896" x2="861" y1="646" y2="646" stroke="red" stroke-width="1.1"/>
<rect x="429" y="499" clip-path="url(#clipPath1)" fill="rgb(255,203,203)" width="40" height="40" stroke="none" stroke-width="1.1"/>
<rect x="429" y="499" clip-path="url(#clipPath1)" fill="none" width="39" height="39" stroke-width="0.1"/>
<text x="352" y="524" clip-path="url(#clipPath1)" stroke="none" stroke-width="0.1" xml:space="preserve">Invalid view - remove from diagram.</text>
<rect x="429" y="499" clip-path="url(#clipPath1)" fill="rgb(255,203,203)" width="40" height="40" stroke="none" stroke-width="0.1"/>
<rect x="429" y="499" clip-path="url(#clipPath1)" fill="none" width="39" height="39" stroke-width="0.1"/>
<text x="352" y="524" clip-path="url(#clipPath1)" stroke="none" stroke-width="0.1" xml:space="preserve">Invalid view - remove from diagram.</text>
<text x="768" y="558" clip-path="url(#clipPath21)" fill="red" stroke="none" stroke-width="0.1" xml:space="preserve">Invalid view - remove from diagram.</text>
</g>
</g>
<rect x="511" y="326" fill-opacity="0" width="170" title="A switched unidirectional forwarding element that can take one or more inputs and switch to one or more outputs.&#13;&#10;The switch can also be open (high impedance)." id="MultiSwitchedUniFlow" height="40" stroke-opacity="0">
<title>A switched unidirectional forwarding element that can take one or more inputs and switch to one or more outputs.&#13;
The switch can also be open (high impedance).</title>
</rect>
<rect x="283" y="531" fill-opacity="0" width="183" title="The grouping of FC ingress ports that have the same behavior and relationship to the switch etc.&#13;&#10;Will carry rules for the grouping." id="IngressPortSet" height="40" stroke-opacity="0">
<title>The grouping of FC ingress ports that have the same behavior and relationship to the switch etc.&#13;
Will carry rules for the grouping.</title>
</rect>
<rect x="710" y="536" fill-opacity="0" width="184" title="The grouping of FC egress ports that have the same behavior and relationship to the switch etc.&#13;&#10;Will carry rules for the grouping." id="EgressPortSet" height="40" stroke-opacity="0">
<title>The grouping of FC egress ports that have the same behavior and relationship to the switch etc.&#13;
Will carry rules for the grouping.</title>
</rect>
<rect x="540" y="106" fill-opacity="0" width="40" title="The overall spec for the forwarding entity." id="ForwardingSpec" height="40" stroke-opacity="0">
<title>The overall spec for the forwarding entity.</title>
</rect>
<rect x="200" y="106" fill-opacity="0" width="236" title="The specification a set of equivalent port of the forwarding entity." id="PortSetSpec" height="40" stroke-opacity="0">
<title>The specification a set of equivalent port of the forwarding entity.</title>
</rect>
<rect x="71" y="502" fill-opacity="0" width="189" height="40" stroke-opacity="0"/>
<rect x="300" y="641" fill-opacity="0" width="136" height="40" stroke-opacity="0"/>
<rect x="659" y="428" fill-opacity="0" width="101" height="40" stroke-opacity="0"/>
<rect x="780" y="446" fill-opacity="0" width="40" height="41" stroke-opacity="0"/>
<rect x="574" y="766" fill-opacity="0" width="330" title="Rues for the control of the state of the ingress switch." id="IngressSwitchSelection" height="40" stroke-opacity="0">
<title>Rues for the control of the state of the ingress switch.</title>
</rect>
<rect x="848" y="50" fill-opacity="0" width="40" title="The ForwardingConstruct (FC) class models enabled constrained potential for forwarding between two or more FcPorts at a particular specific layerProtocol .&#13;&#10;Like the LTP, the FC supports any transport protocol including all analogue, circuit and packet forms.&#13;&#10;For digital layer networks it is used to effect forwarding of transport characteristic (layer protocol) information.&#13;&#10;An FC can be in only one ForwardingDomain (FD).&#13;&#10;The FC is a forwarding entity.&#13;&#10;At a low level of the recursion, a FC represents a cross-connection within an NE. It may also represent a fragment of a cross-connection under certain circumstances.&#13;&#10;The FC object can be used to represent many different structures including point-to-point (P2P), point-to-multipoint (P2MP), rooted-multipoint (RMP) and multipoint-to-multipoint (MP2MP) bridge and selector structures for linear, ring or mesh protection schemes.&#13;&#10;When applied to media, the FC represents the ability for a flow/wave (potentially containing information), to be propagated between FcPorts. &#13;&#10;The existence of a FC instance is independent of the presence (or absence) of a flow/wave (and any information encoded within it).  &#13;&#10;A flow/wave cannot propagate in the absence of a FC instance." id="ForwardingConstruct" height="56" stroke-opacity="0">
<title>The ForwardingConstruct (FC) class models enabled constrained potential for forwarding between two or more FcPorts at a particular specific layerProtocol .&#13;
Like the LTP, the FC supports any transport protocol including all analogue, circuit and packet forms.&#13;
For digital layer networks it is used to effect forwarding of transport characteristic (layer protocol) information.&#13;
An FC can be in only one ForwardingDomain (FD).&#13;
The FC is a forwarding entity.&#13;
At a low level of the recursion, a FC represents a cross-connection within an NE. It may also represent a fragment of a cross-connection under certain circumstances.&#13;
The FC object can be used to represent many different structures including point-to-point (P2P), point-to-multipoint (P2MP), rooted-multipoint (RMP) and multipoint-to-multipoint (MP2MP) bridge and selector structures for linear, ring or mesh protection schemes.&#13;
When applied to media, the FC represents the ability for a flow/wave (potentially containing information), to be propagated between FcPorts. &#13;
The existence of a FC instance is independent of the presence (or absence) of a flow/wave (and any information encoded within it).  &#13;
A flow/wave cannot propagate in the absence of a FC instance.</title>
</rect>
<rect x="585" y="646" fill-opacity="0" width="276" title="Rules for the control of the state of the egress switch." id="EgressSwitchSelection" height="40" stroke-opacity="0">
<title>Rules for the control of the state of the egress switch.</title>
</rect>
<rect x="91" y="318" fill-opacity="0" width="40" title="Offers the opportunity to define a list layer-protocol related parameters. &#13;&#10;Used to specify the extension a class. " id="LayerProtocolParameterSpec" height="40" stroke-opacity="0">
<title>Offers the opportunity to define a list layer-protocol related parameters. &#13;
Used to specify the extension a class. </title>
</rect>
<rect x="192" y="17" fill-opacity="0" width="114" title="The Link class models effective adjacency between two or more ForwardingDomains (FD). &#13;&#10;For digital layer networks, in its basic form (i.e., point-to-point Link) it associates a set of LTP clients on one FD with an equivalent set of LTP clients on another FD. &#13;&#10;Like the FC, the Link has ports (LinkPort) which take roles relevant to the constraints on flows offered by the Link (e.g., Root role or leaf role for a Link that has a constrained Tree configuration)." id="Link" height="61" stroke-opacity="0">
<title>The Link class models effective adjacency between two or more ForwardingDomains (FD). &#13;
For digital layer networks, in its basic form (i.e., point-to-point Link) it associates a set of LTP clients on one FD with an equivalent set of LTP clients on another FD. &#13;
Like the FC, the Link has ports (LinkPort) which take roles relevant to the constraints on flows offered by the Link (e.g., Root role or leaf role for a Link that has a constrained Tree configuration).</title>
</rect>
<rect x="851" y="312" fill-opacity="0" width="40" title="The spec of a ConfigurationAndSwitchController." id="ConfigurationAndSwitchControllerSpec" height="40" stroke-opacity="0">
<title>The spec of a ConfigurationAndSwitchController.</title>
</rect>
</svg>
