<?xml version="1.0" encoding="UTF-8"?><svg xmlns="http://www.w3.org/2000/svg" xmlns:xlink="http://www.w3.org/1999/xlink" stroke-dasharray="none" shape-rendering="auto" font-family="'Dialog'" width="1374" text-rendering="auto" fill-opacity="1" contentScriptType="text/ecmascript" color-interpolation="auto" color-rendering="auto" preserveAspectRatio="xMidYMid meet" font-size="12" viewBox="0 0 1374 847" fill="black" stroke="black" image-rendering="auto" stroke-miterlimit="10" zoomAndPan="magnify" version="1.0" stroke-linecap="square" stroke-linejoin="miter" contentStyleType="text/css" font-style="normal" height="847" stroke-width="1" stroke-dashoffset="0" font-weight="normal" stroke-opacity="1">
<!--Generated by the Batik Graphics2D SVG Generator-->
<defs id="genericDefs"/>
<g>
<defs id="defs1">
<clipPath clipPathUnits="userSpaceOnUse" id="clipPath1">
<path d="M22 22 L64 22 L64 64 L22 64 L22 22 Z"/>
</clipPath>
<clipPath clipPathUnits="userSpaceOnUse" id="clipPath2">
<path d="M346 348 L540 348 L540 366 L346 366 L346 348 Z"/>
</clipPath>
<clipPath clipPathUnits="userSpaceOnUse" id="clipPath3">
<path d="M-1 -1 L1375 -1 L1375 848 L-1 848 L-1 -1 Z"/>
</clipPath>
<clipPath clipPathUnits="userSpaceOnUse" id="clipPath4">
<path d="M64 490 L258 490 L258 508 L64 508 L64 490 Z"/>
</clipPath>
<clipPath clipPathUnits="userSpaceOnUse" id="clipPath5">
<path d="M1150 486 L1344 486 L1344 504 L1150 504 L1150 486 Z"/>
</clipPath>
<clipPath clipPathUnits="userSpaceOnUse" id="clipPath6">
<path d="M885 352 L1079 352 L1079 370 L885 370 L885 352 Z"/>
</clipPath>
<clipPath clipPathUnits="userSpaceOnUse" id="clipPath7">
<path d="M554 89 L748 89 L748 107 L554 107 L554 89 Z"/>
</clipPath>
<clipPath clipPathUnits="userSpaceOnUse" id="clipPath8">
<path d="M605 628 L799 628 L799 646 L605 646 L605 628 Z"/>
</clipPath>
<clipPath clipPathUnits="userSpaceOnUse" id="clipPath9">
<path d="M912 210 L1106 210 L1106 228 L912 228 L912 210 Z"/>
</clipPath>
<clipPath clipPathUnits="userSpaceOnUse" id="clipPath10">
<path d="M1110 318 L1304 318 L1304 336 L1110 336 L1110 318 Z"/>
</clipPath>
<clipPath clipPathUnits="userSpaceOnUse" id="clipPath11">
<path d="M1004 786 L1198 786 L1198 804 L1004 804 L1004 786 Z"/>
</clipPath>
<clipPath clipPathUnits="userSpaceOnUse" id="clipPath12">
<path d="M1158 715 L1352 715 L1352 733 L1158 733 L1158 715 Z"/>
</clipPath>
<clipPath clipPathUnits="userSpaceOnUse" id="clipPath13">
<path d="M771 210 L965 210 L965 228 L771 228 L771 210 Z"/>
</clipPath>
<clipPath clipPathUnits="userSpaceOnUse" id="clipPath14">
<path d="M908 321 L1102 321 L1102 339 L908 339 L908 321 Z"/>
</clipPath>
<clipPath clipPathUnits="userSpaceOnUse" id="clipPath15">
<path d="M626 149 L820 149 L820 167 L626 167 L626 149 Z"/>
</clipPath>
<clipPath clipPathUnits="userSpaceOnUse" id="clipPath16">
<path d="M327 113 L521 113 L521 131 L327 131 L327 113 Z"/>
</clipPath>
<clipPath clipPathUnits="userSpaceOnUse" id="clipPath17">
<path d="M910 738 L1104 738 L1104 756 L910 756 L910 738 Z"/>
</clipPath>
<clipPath clipPathUnits="userSpaceOnUse" id="clipPath18">
<path d="M989 616 L1183 616 L1183 634 L989 634 L989 616 Z"/>
</clipPath>
<clipPath clipPathUnits="userSpaceOnUse" id="clipPath19">
<path d="M885 235 L1079 235 L1079 253 L885 253 L885 235 Z"/>
</clipPath>
<clipPath clipPathUnits="userSpaceOnUse" id="clipPath20">
<path d="M1025 424 L1219 424 L1219 442 L1025 442 L1025 424 Z"/>
</clipPath>
<clipPath clipPathUnits="userSpaceOnUse" id="clipPath21">
<path d="M253 372 L447 372 L447 390 L253 390 L253 372 Z"/>
</clipPath>
<clipPath clipPathUnits="userSpaceOnUse" id="clipPath22">
<path d="M374 446 L568 446 L568 464 L374 464 L374 446 Z"/>
</clipPath>
<clipPath clipPathUnits="userSpaceOnUse" id="clipPath23">
<path d="M414 347 L608 347 L608 365 L414 365 L414 347 Z"/>
</clipPath>
<clipPath clipPathUnits="userSpaceOnUse" id="clipPath24">
<path d="M427 208 L621 208 L621 226 L427 226 L427 208 Z"/>
</clipPath>
<clipPath clipPathUnits="userSpaceOnUse" id="clipPath25">
<path d="M581 486 L775 486 L775 504 L581 504 L581 486 Z"/>
</clipPath>
<clipPath clipPathUnits="userSpaceOnUse" id="clipPath26">
<path d="M432 516 L626 516 L626 534 L432 534 L432 516 Z"/>
</clipPath>
<clipPath clipPathUnits="userSpaceOnUse" id="clipPath27">
<path d="M542 572 L736 572 L736 590 L542 590 L542 572 Z"/>
</clipPath>
<clipPath clipPathUnits="userSpaceOnUse" id="clipPath28">
<path d="M743 423 L937 423 L937 441 L743 441 L743 423 Z"/>
</clipPath>
<clipPath clipPathUnits="userSpaceOnUse" id="clipPath29">
<path d="M264 622 L458 622 L458 640 L264 640 L264 622 Z"/>
</clipPath>
<clipPath clipPathUnits="userSpaceOnUse" id="clipPath30">
<path d="M331 736 L525 736 L525 754 L331 754 L331 736 Z"/>
</clipPath>
<clipPath clipPathUnits="userSpaceOnUse" id="clipPath31">
<path d="M367 637 L561 637 L561 655 L367 655 L367 637 Z"/>
</clipPath>
<clipPath clipPathUnits="userSpaceOnUse" id="clipPath32">
<path d="M447 750 L641 750 L641 768 L447 768 L447 750 Z"/>
</clipPath>
<clipPath clipPathUnits="userSpaceOnUse" id="clipPath33">
<path d="M789 759 L983 759 L983 777 L789 777 L789 759 Z"/>
</clipPath>
<clipPath clipPathUnits="userSpaceOnUse" id="clipPath34">
<path d="M700 685 L894 685 L894 703 L700 703 L700 685 Z"/>
</clipPath>
</defs>
<g fill="rgb(255,203,203)" font-family="'Segoe UI'" stroke-linejoin="round" stroke="rgb(255,203,203)" stroke-width="0" stroke-miterlimit="0">
<rect width="40" x="421" height="40" y="483" stroke="none"/>
</g>
<g stroke-linecap="butt" font-family="'Segoe UI'">
<rect fill="none" width="39" x="421" height="39" y="483"/>
<text xml:space="preserve" x="344" y="508" stroke="none">Invalid view - remove from diagram.</text>
<rect x="1067" y="517" fill="rgb(255,203,203)" width="40" height="40" stroke="none"/>
<rect x="1067" y="517" fill="none" width="39" height="39" stroke-width="0.1"/>
<text xml:space="preserve" x="990" stroke-width="0.1" y="542" stroke="none">Invalid view - remove from diagram.</text>
<rect x="140" y="339" fill="rgb(255,203,203)" width="40" height="40" stroke="none" stroke-width="0.1"/>
<rect x="140" y="339" fill="none" width="39" height="39" stroke-width="0.1"/>
<text xml:space="preserve" x="63" stroke-width="0.1" y="364" stroke="none">Invalid view - remove from diagram.</text>
<rect x="1219" y="341" fill="rgb(255,203,203)" width="40" height="40" stroke="none" stroke-width="0.1"/>
<rect x="1219" y="341" fill="none" width="39" height="39" stroke-width="0.1"/>
<text xml:space="preserve" x="1142" stroke-width="0.1" y="366" stroke="none">Invalid view - remove from diagram.</text>
<rect x="706" y="341" fill="rgb(255,203,203)" width="40" height="40" stroke="none" stroke-width="0.1"/>
<rect x="706" y="341" fill="none" width="39" height="39" stroke-width="0.1"/>
<text xml:space="preserve" x="629" stroke-width="0.1" y="366" stroke="none">Invalid view - remove from diagram.</text>
<rect x="140" y="619" fill="rgb(255,203,203)" width="40" height="40" stroke="none" stroke-width="0.1"/>
<rect x="140" y="619" fill="none" width="39" height="39" stroke-width="0.1"/>
<text xml:space="preserve" x="63" stroke-width="0.1" y="644" stroke="none">Invalid view - remove from diagram.</text>
<rect x="1225" y="610" fill="rgb(255,203,203)" width="40" height="40" stroke="none" stroke-width="0.1"/>
<rect x="1225" y="610" fill="none" width="39" height="39" stroke-width="0.1"/>
<text xml:space="preserve" x="1148" stroke-width="0.1" y="635" stroke="none">Invalid view - remove from diagram.</text>
<rect x="796" y="140" fill="rgb(255,203,203)" width="40" height="40" stroke="none" stroke-width="0.1"/>
<rect x="796" y="140" fill="none" width="39" height="39" stroke-width="0.1"/>
<text xml:space="preserve" x="719" stroke-width="0.1" y="165" stroke="none">Invalid view - remove from diagram.</text>
<rect x="907" y="761" fill="rgb(255,203,203)" width="40" height="40" stroke="none" stroke-width="0.1"/>
<rect x="907" y="761" fill="none" width="39" height="39" stroke-width="0.1"/>
<text xml:space="preserve" x="830" stroke-width="0.1" y="786" stroke="none">Invalid view - remove from diagram.</text>
<rect x="1165" y="274" fill="rgb(255,203,203)" width="40" height="40" stroke="none" stroke-width="0.1"/>
<rect x="1165" y="274" fill="none" width="39" height="39" stroke-width="0.1"/>
<text xml:space="preserve" x="1088" stroke-width="0.1" y="299" stroke="none">Invalid view - remove from diagram.</text>
<rect x="1256" y="797" fill="rgb(255,203,203)" width="40" height="40" stroke="none" stroke-width="0.1"/>
<rect x="1256" y="797" fill="none" width="39" height="39" stroke-width="0.1"/>
<text xml:space="preserve" x="1179" stroke-width="0.1" y="822" stroke="none">Invalid view - remove from diagram.</text>
<rect x="466" y="147" fill="rgb(255,203,203)" width="183" height="40" stroke="none" stroke-width="0.1"/>
<rect x="466" y="147" fill="none" width="182" height="39" stroke-width="0.1"/>
<text xml:space="preserve" x="461" stroke-width="0.1" y="172" stroke="none">Invalid view - remove from diagram.</text>
<rect x="848" y="258" fill="rgb(255,203,203)" width="184" height="40" stroke="none" stroke-width="0.1"/>
<rect x="848" y="258" fill="none" width="183" height="39" stroke-width="0.1"/>
<text xml:space="preserve" x="843" stroke-width="0.1" y="283" stroke="none">Invalid view - remove from diagram.</text>
<rect x="1065" y="693" fill="rgb(255,203,203)" width="40" height="40" stroke="none" stroke-width="0.1"/>
<rect x="1065" y="693" fill="none" width="39" height="39" stroke-width="0.1"/>
<text xml:space="preserve" x="988" stroke-width="0.1" y="718" stroke="none">Invalid view - remove from diagram.</text>
<rect x="1119" y="308" fill="rgb(255,203,203)" width="40" height="40" stroke="none" stroke-width="0.1"/>
<rect x="1119" y="308" fill="none" width="39" height="39" stroke-width="0.1"/>
<text xml:space="preserve" x="1042" stroke-width="0.1" y="333" stroke="none">Invalid view - remove from diagram.</text>
<rect x="439" y="247" fill="rgb(255,203,203)" width="40" height="40" stroke="none" stroke-width="0.1"/>
<rect x="439" y="247" fill="none" width="39" height="39" stroke-width="0.1"/>
<text xml:space="preserve" x="362" stroke-width="0.1" y="272" stroke="none">Invalid view - remove from diagram.</text>
<rect x="554" y="426" fill="rgb(255,203,203)" width="40" height="40" stroke="none" stroke-width="0.1"/>
<rect x="554" y="426" fill="none" width="39" height="39" stroke-width="0.1"/>
<text xml:space="preserve" x="477" stroke-width="0.1" y="451" stroke="none">Invalid view - remove from diagram.</text>
<rect x="692" y="565" fill="rgb(255,203,203)" width="40" height="40" stroke="none" stroke-width="0.1"/>
<rect x="692" y="565" fill="none" width="39" height="39" stroke-width="0.1"/>
<text xml:space="preserve" x="615" stroke-width="0.1" y="590" stroke="none">Invalid view - remove from diagram.</text>
<rect x="546" y="555" fill="rgb(255,203,203)" width="40" height="40" stroke="none" stroke-width="0.1"/>
<rect x="546" y="555" fill="none" width="39" height="39" stroke-width="0.1"/>
<text xml:space="preserve" x="469" stroke-width="0.1" y="580" stroke="none">Invalid view - remove from diagram.</text>
<rect x="362" y="745" fill="rgb(255,203,203)" width="40" height="40" stroke="none" stroke-width="0.1"/>
<rect x="362" y="745" fill="none" width="39" height="39" stroke-width="0.1"/>
<text xml:space="preserve" x="285" stroke-width="0.1" y="770" stroke="none">Invalid view - remove from diagram.</text>
<rect x="454" y="707" fill="rgb(255,203,203)" width="40" height="40" stroke="none" stroke-width="0.1"/>
<rect x="454" y="707" fill="none" width="39" height="39" stroke-width="0.1"/>
<text xml:space="preserve" x="377" stroke-width="0.1" y="732" stroke="none">Invalid view - remove from diagram.</text>
<rect x="686" y="751" fill="rgb(255,203,203)" width="178" height="40" stroke="none" stroke-width="0.1"/>
<rect x="686" y="751" fill="none" width="177" height="39" stroke-width="0.1"/>
<text xml:space="preserve" x="678" stroke-width="0.1" y="776" stroke="none">Invalid view - remove from diagram.</text>
<line fill="none" x1="180" x2="706" y1="357" y2="357" stroke="red" stroke-width="1.1"/>
<rect x="23" y="23" clip-path="url(#clipPath1)" fill="rgb(255,203,203)" width="40" height="40" stroke="none" stroke-width="1.1"/>
<rect x="23" y="23" clip-path="url(#clipPath1)" fill="none" width="39" height="39" stroke-width="0.1"/>
<text x="-54" y="48" clip-path="url(#clipPath1)" stroke="none" stroke-width="0.1" xml:space="preserve">Invalid view - remove from diagram.</text>
<rect x="23" y="23" clip-path="url(#clipPath1)" fill="rgb(255,203,203)" width="40" height="40" stroke="none" stroke-width="0.1"/>
<rect x="23" y="23" clip-path="url(#clipPath1)" fill="none" width="39" height="39" stroke-width="0.1"/>
<text x="-54" y="48" clip-path="url(#clipPath1)" stroke="none" stroke-width="0.1" xml:space="preserve">Invalid view - remove from diagram.</text>
<rect x="23" y="23" clip-path="url(#clipPath1)" fill="rgb(255,203,203)" width="40" height="40" stroke="none" stroke-width="0.1"/>
<rect x="23" y="23" clip-path="url(#clipPath1)" fill="none" width="39" height="39" stroke-width="0.1"/>
<text x="-54" y="48" clip-path="url(#clipPath1)" stroke="none" stroke-width="0.1" xml:space="preserve">Invalid view - remove from diagram.</text>
<rect x="23" y="23" clip-path="url(#clipPath1)" fill="rgb(255,203,203)" width="40" height="40" stroke="none" stroke-width="0.1"/>
<rect x="23" y="23" clip-path="url(#clipPath1)" fill="none" width="39" height="39" stroke-width="0.1"/>
<text x="-54" y="48" clip-path="url(#clipPath1)" stroke="none" stroke-width="0.1" xml:space="preserve">Invalid view - remove from diagram.</text>
<rect x="23" y="23" clip-path="url(#clipPath1)" fill="rgb(255,203,203)" width="40" height="40" stroke="none" stroke-width="0.1"/>
<rect x="23" y="23" clip-path="url(#clipPath1)" fill="none" width="39" height="39" stroke-width="0.1"/>
<text x="-54" y="48" clip-path="url(#clipPath1)" stroke="none" stroke-width="0.1" xml:space="preserve">Invalid view - remove from diagram.</text>
<text x="347" y="362" clip-path="url(#clipPath2)" fill="red" stroke="none" stroke-width="0.1" xml:space="preserve">Invalid view - remove from diagram.</text>
<line clip-path="url(#clipPath3)" fill="none" x1="161" x2="161" y1="379" y2="619" stroke="red" stroke-width="1.1"/>
<rect x="23" y="23" clip-path="url(#clipPath1)" fill="rgb(255,203,203)" width="40" height="40" stroke="none" stroke-width="1.1"/>
<rect x="23" y="23" clip-path="url(#clipPath1)" fill="none" width="39" height="39" stroke-width="0.1"/>
<text x="-54" y="48" clip-path="url(#clipPath1)" stroke="none" stroke-width="0.1" xml:space="preserve">Invalid view - remove from diagram.</text>
<rect x="23" y="23" clip-path="url(#clipPath1)" fill="rgb(255,203,203)" width="40" height="40" stroke="none" stroke-width="0.1"/>
<rect x="23" y="23" clip-path="url(#clipPath1)" fill="none" width="39" height="39" stroke-width="0.1"/>
<text x="-54" y="48" clip-path="url(#clipPath1)" stroke="none" stroke-width="0.1" xml:space="preserve">Invalid view - remove from diagram.</text>
<rect x="23" y="23" clip-path="url(#clipPath1)" fill="rgb(255,203,203)" width="40" height="40" stroke="none" stroke-width="0.1"/>
<rect x="23" y="23" clip-path="url(#clipPath1)" fill="none" width="39" height="39" stroke-width="0.1"/>
<text x="-54" y="48" clip-path="url(#clipPath1)" stroke="none" stroke-width="0.1" xml:space="preserve">Invalid view - remove from diagram.</text>
<rect x="23" y="23" clip-path="url(#clipPath1)" fill="rgb(255,203,203)" width="40" height="40" stroke="none" stroke-width="0.1"/>
<rect x="23" y="23" clip-path="url(#clipPath1)" fill="none" width="39" height="39" stroke-width="0.1"/>
<text x="-54" y="48" clip-path="url(#clipPath1)" stroke="none" stroke-width="0.1" xml:space="preserve">Invalid view - remove from diagram.</text>
<rect x="23" y="23" clip-path="url(#clipPath1)" fill="rgb(255,203,203)" width="40" height="40" stroke="none" stroke-width="0.1"/>
<rect x="23" y="23" clip-path="url(#clipPath1)" fill="none" width="39" height="39" stroke-width="0.1"/>
<text x="-54" y="48" clip-path="url(#clipPath1)" stroke="none" stroke-width="0.1" xml:space="preserve">Invalid view - remove from diagram.</text>
<text x="65" y="504" clip-path="url(#clipPath4)" fill="red" stroke="none" stroke-width="0.1" xml:space="preserve">Invalid view - remove from diagram.</text>
<line clip-path="url(#clipPath3)" fill="none" x1="1247" x2="1247" y1="381" y2="610" stroke="red" stroke-width="1.1"/>
<rect x="23" y="23" clip-path="url(#clipPath1)" fill="rgb(255,203,203)" width="40" height="40" stroke="none" stroke-width="1.1"/>
<rect x="23" y="23" clip-path="url(#clipPath1)" fill="none" width="39" height="39" stroke-width="0.1"/>
<text x="-54" y="48" clip-path="url(#clipPath1)" stroke="none" stroke-width="0.1" xml:space="preserve">Invalid view - remove from diagram.</text>
<rect x="23" y="23" clip-path="url(#clipPath1)" fill="rgb(255,203,203)" width="40" height="40" stroke="none" stroke-width="0.1"/>
<rect x="23" y="23" clip-path="url(#clipPath1)" fill="none" width="39" height="39" stroke-width="0.1"/>
<text x="-54" y="48" clip-path="url(#clipPath1)" stroke="none" stroke-width="0.1" xml:space="preserve">Invalid view - remove from diagram.</text>
<rect x="23" y="23" clip-path="url(#clipPath1)" fill="rgb(255,203,203)" width="40" height="40" stroke="none" stroke-width="0.1"/>
<rect x="23" y="23" clip-path="url(#clipPath1)" fill="none" width="39" height="39" stroke-width="0.1"/>
<text x="-54" y="48" clip-path="url(#clipPath1)" stroke="none" stroke-width="0.1" xml:space="preserve">Invalid view - remove from diagram.</text>
<rect x="23" y="23" clip-path="url(#clipPath1)" fill="rgb(255,203,203)" width="40" height="40" stroke="none" stroke-width="0.1"/>
<rect x="23" y="23" clip-path="url(#clipPath1)" fill="none" width="39" height="39" stroke-width="0.1"/>
<text x="-54" y="48" clip-path="url(#clipPath1)" stroke="none" stroke-width="0.1" xml:space="preserve">Invalid view - remove from diagram.</text>
<rect x="23" y="23" clip-path="url(#clipPath1)" fill="rgb(255,203,203)" width="40" height="40" stroke="none" stroke-width="0.1"/>
<rect x="23" y="23" clip-path="url(#clipPath1)" fill="none" width="39" height="39" stroke-width="0.1"/>
<text x="-54" y="48" clip-path="url(#clipPath1)" stroke="none" stroke-width="0.1" xml:space="preserve">Invalid view - remove from diagram.</text>
<text x="1151" y="500" clip-path="url(#clipPath5)" fill="red" stroke="none" stroke-width="0.1" xml:space="preserve">Invalid view - remove from diagram.</text>
<line clip-path="url(#clipPath3)" fill="none" x1="1219" x2="746" y1="361" y2="361" stroke="red" stroke-width="1.1"/>
<rect x="23" y="23" clip-path="url(#clipPath1)" fill="rgb(255,203,203)" width="40" height="40" stroke="none" stroke-width="1.1"/>
<rect x="23" y="23" clip-path="url(#clipPath1)" fill="none" width="39" height="39" stroke-width="0.1"/>
<text x="-54" y="48" clip-path="url(#clipPath1)" stroke="none" stroke-width="0.1" xml:space="preserve">Invalid view - remove from diagram.</text>
<rect x="23" y="23" clip-path="url(#clipPath1)" fill="rgb(255,203,203)" width="40" height="40" stroke="none" stroke-width="0.1"/>
<rect x="23" y="23" clip-path="url(#clipPath1)" fill="none" width="39" height="39" stroke-width="0.1"/>
<text x="-54" y="48" clip-path="url(#clipPath1)" stroke="none" stroke-width="0.1" xml:space="preserve">Invalid view - remove from diagram.</text>
<text x="886" y="366" clip-path="url(#clipPath6)" fill="red" stroke="none" stroke-width="0.1" xml:space="preserve">Invalid view - remove from diagram.</text>
<line clip-path="url(#clipPath3)" fill="none" x1="1223" x2="1223" y1="341" y2="98" stroke="red" stroke-width="1.1"/>
<line clip-path="url(#clipPath3)" fill="none" x1="1223" x2="109" y1="98" y2="98" stroke="red" stroke-width="1.1"/>
<line clip-path="url(#clipPath3)" fill="none" x1="109" x2="109" y1="98" y2="339" stroke="red" stroke-width="1.1"/>
<line clip-path="url(#clipPath3)" fill="none" x1="109" x2="140" y1="339" y2="339" stroke="red" stroke-width="1.1"/>
<rect x="23" y="23" clip-path="url(#clipPath1)" fill="rgb(255,203,203)" width="40" height="40" stroke="none" stroke-width="1.1"/>
<rect x="23" y="23" clip-path="url(#clipPath1)" fill="none" width="39" height="39" stroke-width="0.1"/>
<text x="-54" y="48" clip-path="url(#clipPath1)" stroke="none" stroke-width="0.1" xml:space="preserve">Invalid view - remove from diagram.</text>
<rect x="23" y="23" clip-path="url(#clipPath1)" fill="rgb(255,203,203)" width="40" height="40" stroke="none" stroke-width="0.1"/>
<rect x="23" y="23" clip-path="url(#clipPath1)" fill="none" width="39" height="39" stroke-width="0.1"/>
<text x="-54" y="48" clip-path="url(#clipPath1)" stroke="none" stroke-width="0.1" xml:space="preserve">Invalid view - remove from diagram.</text>
<text x="555" y="103" clip-path="url(#clipPath7)" fill="red" stroke="none" stroke-width="0.1" xml:space="preserve">Invalid view - remove from diagram.</text>
<line clip-path="url(#clipPath3)" fill="none" x1="1225" x2="180" y1="637" y2="637" stroke="red" stroke-width="1.1"/>
<rect x="23" y="23" clip-path="url(#clipPath1)" fill="rgb(255,203,203)" width="40" height="40" stroke="none" stroke-width="1.1"/>
<rect x="23" y="23" clip-path="url(#clipPath1)" fill="none" width="39" height="39" stroke-width="0.1"/>
<text x="-54" y="48" clip-path="url(#clipPath1)" stroke="none" stroke-width="0.1" xml:space="preserve">Invalid view - remove from diagram.</text>
<rect x="23" y="23" clip-path="url(#clipPath1)" fill="rgb(255,203,203)" width="40" height="40" stroke="none" stroke-width="0.1"/>
<rect x="23" y="23" clip-path="url(#clipPath1)" fill="none" width="39" height="39" stroke-width="0.1"/>
<text x="-54" y="48" clip-path="url(#clipPath1)" stroke="none" stroke-width="0.1" xml:space="preserve">Invalid view - remove from diagram.</text>
<text x="606" y="642" clip-path="url(#clipPath8)" fill="red" stroke="none" stroke-width="0.1" xml:space="preserve">Invalid view - remove from diagram.</text>
<line clip-path="url(#clipPath3)" fill="none" x1="1181" x2="836" y1="274" y2="164" stroke="red" stroke-width="1.1"/>
<text x="913" y="224" clip-path="url(#clipPath9)" fill="red" stroke="none" stroke-width="1.1" xml:space="preserve">Invalid view - remove from diagram.</text>
<line clip-path="url(#clipPath3)" fill="none" x1="1187" x2="1227" y1="314" y2="341" stroke="red" stroke-width="1.1"/>
<text x="1111" y="332" clip-path="url(#clipPath10)" fill="red" stroke="none" stroke-width="1.1" xml:space="preserve">Invalid view - remove from diagram.</text>
<line clip-path="url(#clipPath3)" fill="none" x1="1256" x2="947" y1="807" y2="784" stroke="red" stroke-width="1.1"/>
<text x="1005" y="800" clip-path="url(#clipPath11)" fill="red" stroke="none" stroke-width="1.1" xml:space="preserve">Invalid view - remove from diagram.</text>
<line clip-path="url(#clipPath3)" fill="none" x1="1271" x2="1239" y1="797" y2="650" stroke="red" stroke-width="1.1"/>
<text x="1159" y="729" clip-path="url(#clipPath12)" fill="red" stroke="none" stroke-width="1.1" xml:space="preserve">Invalid view - remove from diagram.</text>
<line clip-path="url(#clipPath3)" fill="none" x1="926" x2="811" y1="258" y2="180" stroke="red" stroke-width="1.1"/>
<text x="772" y="224" clip-path="url(#clipPath13)" fill="red" stroke="none" stroke-width="1.1" xml:space="preserve">Invalid view - remove from diagram.</text>
<line clip-path="url(#clipPath3)" fill="none" x1="1028" x2="983" y1="298" y2="361" stroke="red" stroke-width="1.1"/>
<text x="909" y="335" clip-path="url(#clipPath14)" fill="red" stroke="none" stroke-width="1.1" xml:space="preserve">Invalid view - remove from diagram.</text>
<line clip-path="url(#clipPath3)" fill="none" x1="649" x2="796" y1="158" y2="158" stroke="red" stroke-width="1.1"/>
<text x="627" y="163" clip-path="url(#clipPath15)" fill="red" stroke="none" stroke-width="1.1" xml:space="preserve">Invalid view - remove from diagram.</text>
<line clip-path="url(#clipPath3)" fill="none" x1="643" x2="207" y1="147" y2="98" stroke="red" stroke-width="1.1"/>
<text x="328" y="127" clip-path="url(#clipPath16)" fill="red" stroke="none" stroke-width="1.1" xml:space="preserve">Invalid view - remove from diagram.</text>
<line clip-path="url(#clipPath3)" fill="none" x1="1082" x2="934" y1="733" y2="761" stroke="red" stroke-width="1.1"/>
<text x="911" y="752" clip-path="url(#clipPath17)" fill="red" stroke="none" stroke-width="1.1" xml:space="preserve">Invalid view - remove from diagram.</text>
<line clip-path="url(#clipPath3)" fill="none" x1="1086" x2="1086" y1="693" y2="586" stroke="red" stroke-width="1.1"/>
<line clip-path="url(#clipPath3)" fill="none" x1="1086" x2="1086" y1="586" y2="557" stroke="red" stroke-width="1.1"/>
<text x="990" y="630" clip-path="url(#clipPath18)" fill="red" stroke="none" stroke-width="1.1" xml:space="preserve">Invalid view - remove from diagram.</text>
<line clip-path="url(#clipPath3)" fill="none" x1="1137" x2="827" y1="308" y2="180" stroke="red" stroke-width="1.1"/>
<text x="886" y="249" clip-path="url(#clipPath19)" fill="red" stroke="none" stroke-width="1.1" xml:space="preserve">Invalid view - remove from diagram.</text>
<line clip-path="url(#clipPath3)" fill="none" x1="1144" x2="1100" y1="348" y2="517" stroke="red" stroke-width="1.1"/>
<text x="1026" y="438" clip-path="url(#clipPath20)" fill="red" stroke="none" stroke-width="1.1" xml:space="preserve">Invalid view - remove from diagram.</text>
<line clip-path="url(#clipPath3)" fill="none" x1="177" x2="177" y1="379" y2="381" stroke="red" stroke-width="1.1"/>
<line clip-path="url(#clipPath3)" fill="none" x1="177" x2="387" y1="381" y2="381" stroke="red" stroke-width="1.1"/>
<line clip-path="url(#clipPath3)" fill="none" x1="387" x2="387" y1="381" y2="485" stroke="red" stroke-width="1.1"/>
<line clip-path="url(#clipPath3)" fill="none" x1="387" x2="421" y1="485" y2="485" stroke="red" stroke-width="1.1"/>
<rect x="23" y="23" clip-path="url(#clipPath1)" fill="rgb(255,203,203)" width="40" height="40" stroke="none" stroke-width="1.1"/>
<rect x="23" y="23" clip-path="url(#clipPath1)" fill="none" width="39" height="39" stroke-width="0.1"/>
<text x="-54" y="48" clip-path="url(#clipPath1)" stroke="none" stroke-width="0.1" xml:space="preserve">Invalid view - remove from diagram.</text>
<rect x="23" y="23" clip-path="url(#clipPath1)" fill="rgb(255,203,203)" width="40" height="40" stroke="none" stroke-width="0.1"/>
<rect x="23" y="23" clip-path="url(#clipPath1)" fill="none" width="39" height="39" stroke-width="0.1"/>
<text x="-54" y="48" clip-path="url(#clipPath1)" stroke="none" stroke-width="0.1" xml:space="preserve">Invalid view - remove from diagram.</text>
<rect x="23" y="23" clip-path="url(#clipPath1)" fill="rgb(255,203,203)" width="40" height="40" stroke="none" stroke-width="0.1"/>
<rect x="23" y="23" clip-path="url(#clipPath1)" fill="none" width="39" height="39" stroke-width="0.1"/>
<text x="-54" y="48" clip-path="url(#clipPath1)" stroke="none" stroke-width="0.1" xml:space="preserve">Invalid view - remove from diagram.</text>
<rect x="23" y="23" clip-path="url(#clipPath1)" fill="rgb(255,203,203)" width="40" height="40" stroke="none" stroke-width="0.1"/>
<rect x="23" y="23" clip-path="url(#clipPath1)" fill="none" width="39" height="39" stroke-width="0.1"/>
<text x="-54" y="48" clip-path="url(#clipPath1)" stroke="none" stroke-width="0.1" xml:space="preserve">Invalid view - remove from diagram.</text>
<rect x="23" y="23" clip-path="url(#clipPath1)" fill="rgb(255,203,203)" width="40" height="40" stroke="none" stroke-width="0.1"/>
<rect x="23" y="23" clip-path="url(#clipPath1)" fill="none" width="39" height="39" stroke-width="0.1"/>
<text x="-54" y="48" clip-path="url(#clipPath1)" stroke="none" stroke-width="0.1" xml:space="preserve">Invalid view - remove from diagram.</text>
<text x="254" y="386" clip-path="url(#clipPath21)" fill="red" stroke="none" stroke-width="0.1" xml:space="preserve">Invalid view - remove from diagram.</text>
<line clip-path="url(#clipPath3)" fill="none" x1="554" x2="387" y1="447" y2="463" stroke="red" stroke-width="1.1"/>
<text x="375" y="460" clip-path="url(#clipPath22)" fill="red" stroke="none" stroke-width="1.1" xml:space="preserve">Invalid view - remove from diagram.</text>
<line clip-path="url(#clipPath3)" fill="none" x1="559" x2="463" y1="426" y2="287" stroke="red" stroke-width="1.1"/>
<text x="415" y="361" clip-path="url(#clipPath23)" fill="red" stroke="none" stroke-width="1.1" xml:space="preserve">Invalid view - remove from diagram.</text>
<line clip-path="url(#clipPath3)" fill="none" x1="584" x2="465" y1="187" y2="247" stroke="red" stroke-width="1.1"/>
<text x="428" y="222" clip-path="url(#clipPath24)" fill="red" stroke="none" stroke-width="1.1" xml:space="preserve">Invalid view - remove from diagram.</text>
<line clip-path="url(#clipPath3)" fill="none" x1="746" x2="760" y1="374" y2="374" stroke="red" stroke-width="1.1"/>
<line clip-path="url(#clipPath3)" fill="none" x1="760" x2="760" y1="374" y2="495" stroke="red" stroke-width="1.1"/>
<line clip-path="url(#clipPath3)" fill="none" x1="760" x2="461" y1="495" y2="495" stroke="red" stroke-width="1.1"/>
<rect x="23" y="23" clip-path="url(#clipPath1)" fill="rgb(255,203,203)" width="40" height="40" stroke="none" stroke-width="1.1"/>
<rect x="23" y="23" clip-path="url(#clipPath1)" fill="none" width="39" height="39" stroke-width="0.1"/>
<text x="-54" y="48" clip-path="url(#clipPath1)" stroke="none" stroke-width="0.1" xml:space="preserve">Invalid view - remove from diagram.</text>
<rect x="23" y="23" clip-path="url(#clipPath1)" fill="rgb(255,203,203)" width="40" height="40" stroke="none" stroke-width="0.1"/>
<rect x="23" y="23" clip-path="url(#clipPath1)" fill="none" width="39" height="39" stroke-width="0.1"/>
<text x="-54" y="48" clip-path="url(#clipPath1)" stroke="none" stroke-width="0.1" xml:space="preserve">Invalid view - remove from diagram.</text>
<rect x="23" y="23" clip-path="url(#clipPath1)" fill="rgb(255,203,203)" width="40" height="40" stroke="none" stroke-width="0.1"/>
<rect x="23" y="23" clip-path="url(#clipPath1)" fill="none" width="39" height="39" stroke-width="0.1"/>
<text x="-54" y="48" clip-path="url(#clipPath1)" stroke="none" stroke-width="0.1" xml:space="preserve">Invalid view - remove from diagram.</text>
<rect x="23" y="23" clip-path="url(#clipPath1)" fill="rgb(255,203,203)" width="40" height="40" stroke="none" stroke-width="0.1"/>
<rect x="23" y="23" clip-path="url(#clipPath1)" fill="none" width="39" height="39" stroke-width="0.1"/>
<text x="-54" y="48" clip-path="url(#clipPath1)" stroke="none" stroke-width="0.1" xml:space="preserve">Invalid view - remove from diagram.</text>
<rect x="23" y="23" clip-path="url(#clipPath1)" fill="rgb(255,203,203)" width="40" height="40" stroke="none" stroke-width="0.1"/>
<rect x="23" y="23" clip-path="url(#clipPath1)" fill="none" width="39" height="39" stroke-width="0.1"/>
<text x="-54" y="48" clip-path="url(#clipPath1)" stroke="none" stroke-width="0.1" xml:space="preserve">Invalid view - remove from diagram.</text>
<text x="582" y="500" clip-path="url(#clipPath25)" fill="red" stroke="none" stroke-width="0.1" xml:space="preserve">Invalid view - remove from diagram.</text>
<line clip-path="url(#clipPath3)" fill="none" x1="552" x2="505" y1="555" y2="495" stroke="red" stroke-width="1.1"/>
<text x="433" y="530" clip-path="url(#clipPath26)" fill="red" stroke="none" stroke-width="1.1" xml:space="preserve">Invalid view - remove from diagram.</text>
<line clip-path="url(#clipPath3)" fill="none" x1="586" x2="692" y1="590" y2="572" stroke="red" stroke-width="1.1"/>
<text x="543" y="586" clip-path="url(#clipPath27)" fill="red" stroke="none" stroke-width="1.1" xml:space="preserve">Invalid view - remove from diagram.</text>
<line clip-path="url(#clipPath3)" fill="none" x1="954" x2="726" y1="298" y2="565" stroke="red" stroke-width="1.1"/>
<text x="744" y="437" clip-path="url(#clipPath28)" fill="red" stroke="none" stroke-width="1.1" xml:space="preserve">Invalid view - remove from diagram.</text>
<line clip-path="url(#clipPath3)" fill="none" x1="180" x2="365" y1="631" y2="631" stroke="red" stroke-width="1.1"/>
<line clip-path="url(#clipPath3)" fill="none" x1="365" x2="365" y1="631" y2="614" stroke="red" stroke-width="1.1"/>
<line clip-path="url(#clipPath3)" fill="none" x1="365" x2="434" y1="614" y2="614" stroke="red" stroke-width="1.1"/>
<line clip-path="url(#clipPath3)" fill="none" x1="434" x2="434" y1="614" y2="523" stroke="red" stroke-width="1.1"/>
<rect x="23" y="23" clip-path="url(#clipPath1)" fill="rgb(255,203,203)" width="40" height="40" stroke="none" stroke-width="1.1"/>
<rect x="23" y="23" clip-path="url(#clipPath1)" fill="none" width="39" height="39" stroke-width="0.1"/>
<text x="-54" y="48" clip-path="url(#clipPath1)" stroke="none" stroke-width="0.1" xml:space="preserve">Invalid view - remove from diagram.</text>
<rect x="23" y="23" clip-path="url(#clipPath1)" fill="rgb(255,203,203)" width="40" height="40" stroke="none" stroke-width="0.1"/>
<rect x="23" y="23" clip-path="url(#clipPath1)" fill="none" width="39" height="39" stroke-width="0.1"/>
<text x="-54" y="48" clip-path="url(#clipPath1)" stroke="none" stroke-width="0.1" xml:space="preserve">Invalid view - remove from diagram.</text>
<rect x="23" y="23" clip-path="url(#clipPath1)" fill="rgb(255,203,203)" width="40" height="40" stroke="none" stroke-width="0.1"/>
<rect x="23" y="23" clip-path="url(#clipPath1)" fill="none" width="39" height="39" stroke-width="0.1"/>
<text x="-54" y="48" clip-path="url(#clipPath1)" stroke="none" stroke-width="0.1" xml:space="preserve">Invalid view - remove from diagram.</text>
<rect x="23" y="23" clip-path="url(#clipPath1)" fill="rgb(255,203,203)" width="40" height="40" stroke="none" stroke-width="0.1"/>
<rect x="23" y="23" clip-path="url(#clipPath1)" fill="none" width="39" height="39" stroke-width="0.1"/>
<text x="-54" y="48" clip-path="url(#clipPath1)" stroke="none" stroke-width="0.1" xml:space="preserve">Invalid view - remove from diagram.</text>
<rect x="23" y="23" clip-path="url(#clipPath1)" fill="rgb(255,203,203)" width="40" height="40" stroke="none" stroke-width="0.1"/>
<rect x="23" y="23" clip-path="url(#clipPath1)" fill="none" width="39" height="39" stroke-width="0.1"/>
<text x="-54" y="48" clip-path="url(#clipPath1)" stroke="none" stroke-width="0.1" xml:space="preserve">Invalid view - remove from diagram.</text>
<text x="265" y="636" clip-path="url(#clipPath29)" fill="red" stroke="none" stroke-width="0.1" xml:space="preserve">Invalid view - remove from diagram.</text>
<line clip-path="url(#clipPath3)" fill="none" x1="454" x2="402" y1="745" y2="745" stroke="red" stroke-width="1.1"/>
<text x="332" y="750" clip-path="url(#clipPath30)" fill="red" stroke="none" stroke-width="1.1" xml:space="preserve">Invalid view - remove from diagram.</text>
<line clip-path="url(#clipPath3)" fill="none" x1="482" x2="451" y1="707" y2="601" stroke="red" stroke-width="1.1"/>
<line clip-path="url(#clipPath3)" fill="none" x1="451" x2="434" y1="601" y2="596" stroke="red" stroke-width="1.1"/>
<text x="368" y="651" clip-path="url(#clipPath31)" fill="red" stroke="none" stroke-width="1.1" xml:space="preserve">Invalid view - remove from diagram.</text>
<line clip-path="url(#clipPath3)" fill="none" x1="686" x2="402" y1="759" y2="759" stroke="red" stroke-width="1.1"/>
<text x="448" y="764" clip-path="url(#clipPath32)" fill="red" stroke="none" stroke-width="1.1" xml:space="preserve">Invalid view - remove from diagram.</text>
<line clip-path="url(#clipPath3)" fill="none" x1="864" x2="907" y1="768" y2="768" stroke="red" stroke-width="1.1"/>
<text x="790" y="773" clip-path="url(#clipPath33)" fill="red" stroke="none" stroke-width="1.1" xml:space="preserve">Invalid view - remove from diagram.</text>
<line clip-path="url(#clipPath3)" fill="none" x1="839" x2="755" y1="751" y2="637" stroke="red" stroke-width="1.1"/>
<text x="701" y="699" clip-path="url(#clipPath34)" fill="red" stroke="none" stroke-width="1.1" xml:space="preserve">Invalid view - remove from diagram.</text>
</g>
</g>
<rect x="421" y="483" fill-opacity="0" width="40" title="This datatype represents the &quot;&lt;&lt;Metaclass&gt;&gt; Class&quot; from the UML metamodel. &#13;&#10;An instance of the referencing Class (e.g. LTP) will reference a Class (not an instance).&#13;&#10;This referenced Class will provide definition to extend the referencing instance. &#13;&#10;So, for example, an LTP instance will have the attributes defined in the LTP class and also the attributes defined in the referenced Class (an LtpSpec).&#13;&#10;The referenced Class may:&#13;&#10;(1) provide invariant properties (that are the same for many instances) that then are not conveyed with the referencing instance.&#13;&#10;(2) provide definitions for attributes that are present in the instance that are not defined in the Class of the instance (these attribute may have been pruned and refactored from one or more external definition sources). &#13;&#10;(3) apply constraints to attributes in the instance that were defined in the class of the referencing instance.&#13;&#10;(4) replace attributes that were present in the class of the referencing instance by a new definition (same name).&#13;&#10;" id="Metaclass:Class" height="40" stroke-opacity="0">
<title>This datatype represents the "&lt;&lt;Metaclass&gt;&gt; Class" from the UML metamodel. &#13;
An instance of the referencing Class (e.g. LTP) will reference a Class (not an instance).&#13;
This referenced Class will provide definition to extend the referencing instance. &#13;
So, for example, an LTP instance will have the attributes defined in the LTP class and also the attributes defined in the referenced Class (an LtpSpec).&#13;
The referenced Class may:&#13;
(1) provide invariant properties (that are the same for many instances) that then are not conveyed with the referencing instance.&#13;
(2) provide definitions for attributes that are present in the instance that are not defined in the Class of the instance (these attribute may have been pruned and refactored from one or more external definition sources). &#13;
(3) apply constraints to attributes in the instance that were defined in the class of the referencing instance.&#13;
(4) replace attributes that were present in the class of the referencing instance by a new definition (same name).&#13;
</title>
</rect>
<rect x="1067" y="517" fill-opacity="0" width="40" id="Metaclass:Class:Name" height="40" stroke-opacity="0"/>
<rect x="140" y="339" fill-opacity="0" width="40" id="Entity" height="40" stroke-opacity="0"/>
<rect x="1219" y="341" fill-opacity="0" width="40" id="EntitySpec" height="40" stroke-opacity="0"/>
<rect x="706" y="341" fill-opacity="0" width="40" id="ExtensionContainer" height="40" stroke-opacity="0"/>
<rect x="140" y="619" fill-opacity="0" width="40" id="ComposedPart" height="40" stroke-opacity="0"/>
<rect x="1225" y="610" fill-opacity="0" width="40" id="PartSpec" height="40" stroke-opacity="0"/>
<rect x="796" y="140" fill-opacity="0" width="40" id="specTargetClass" height="40" stroke-opacity="0"/>
<rect x="907" y="761" fill-opacity="0" width="40" id="specTargetClass" height="40" stroke-opacity="0"/>
<rect x="1165" y="274" fill-opacity="0" width="40" height="40" stroke-opacity="0"/>
<rect x="1256" y="797" fill-opacity="0" width="40" height="40" stroke-opacity="0"/>
<rect x="466" y="147" fill-opacity="0" width="183" height="40" stroke-opacity="0"/>
<rect x="848" y="258" fill-opacity="0" width="184" height="40" stroke-opacity="0"/>
<rect x="1065" y="693" fill-opacity="0" width="40" height="40" stroke-opacity="0"/>
<rect x="1119" y="308" fill-opacity="0" width="40" height="40" stroke-opacity="0"/>
<rect x="439" y="247" fill-opacity="0" width="40" id="_entitySpecReference:ClassRef" height="40" stroke-opacity="0"/>
<rect x="554" y="426" fill-opacity="0" width="40" height="40" stroke-opacity="0"/>
<rect x="692" y="565" fill-opacity="0" width="40" id="_entitySpecReference:ClassRef" height="40" stroke-opacity="0"/>
<rect x="546" y="555" fill-opacity="0" width="40" height="40" stroke-opacity="0"/>
<rect x="362" y="745" fill-opacity="0" width="40" id="_partSpecReference:ClassRef" height="40" stroke-opacity="0"/>
<rect x="454" y="707" fill-opacity="0" width="40" height="40" stroke-opacity="0"/>
<rect x="686" y="751" fill-opacity="0" width="178" height="40" stroke-opacity="0"/>
</svg>
