<?xml version="1.0" encoding="UTF-8"?><svg xmlns="http://www.w3.org/2000/svg" xmlns:xlink="http://www.w3.org/1999/xlink" stroke-dasharray="none" shape-rendering="auto" font-family="'Dialog'" width="1167" text-rendering="auto" fill-opacity="1" contentScriptType="text/ecmascript" color-interpolation="auto" color-rendering="auto" preserveAspectRatio="xMidYMid meet" font-size="12" viewBox="0 0 1167 665" fill="black" stroke="black" image-rendering="auto" stroke-miterlimit="10" zoomAndPan="magnify" version="1.0" stroke-linecap="square" stroke-linejoin="miter" contentStyleType="text/css" font-style="normal" height="665" stroke-width="1" stroke-dashoffset="0" font-weight="normal" stroke-opacity="1">
<!--Generated by the Batik Graphics2D SVG Generator-->
<defs id="genericDefs"/>
<g>
<defs id="defs1">
<clipPath clipPathUnits="userSpaceOnUse" id="clipPath1">
<path d="M84 22 L126 22 L126 64 L84 64 L84 22 Z"/>
</clipPath>
<clipPath clipPathUnits="userSpaceOnUse" id="clipPath2">
<path d="M794 625 L988 625 L988 643 L794 643 L794 625 Z"/>
</clipPath>
<clipPath clipPathUnits="userSpaceOnUse" id="clipPath3">
<path d="M-1 -1 L1168 -1 L1168 666 L-1 666 L-1 -1 Z"/>
</clipPath>
<clipPath clipPathUnits="userSpaceOnUse" id="clipPath4">
<path d="M752 119 L946 119 L946 137 L752 137 L752 119 Z"/>
</clipPath>
<clipPath clipPathUnits="userSpaceOnUse" id="clipPath5">
<path d="M22 603 L216 603 L216 621 L22 621 L22 603 Z"/>
</clipPath>
<clipPath clipPathUnits="userSpaceOnUse" id="clipPath6">
<path d="M30 127 L224 127 L224 145 L30 145 L30 127 Z"/>
</clipPath>
<clipPath clipPathUnits="userSpaceOnUse" id="clipPath7">
<path d="M106 222 L300 222 L300 240 L106 240 L106 222 Z"/>
</clipPath>
<clipPath clipPathUnits="userSpaceOnUse" id="clipPath8">
<path d="M182 286 L376 286 L376 304 L182 304 L182 286 Z"/>
</clipPath>
<clipPath clipPathUnits="userSpaceOnUse" id="clipPath9">
<path d="M65 450 L259 450 L259 468 L65 468 L65 450 Z"/>
</clipPath>
<clipPath clipPathUnits="userSpaceOnUse" id="clipPath10">
<path d="M187 511 L381 511 L381 529 L187 529 L187 511 Z"/>
</clipPath>
<clipPath clipPathUnits="userSpaceOnUse" id="clipPath11">
<path d="M510 179 L704 179 L704 197 L510 197 L510 179 Z"/>
</clipPath>
<clipPath clipPathUnits="userSpaceOnUse" id="clipPath12">
<path d="M418 262 L612 262 L612 280 L418 280 L418 262 Z"/>
</clipPath>
<clipPath clipPathUnits="userSpaceOnUse" id="clipPath13">
<path d="M654 331 L848 331 L848 349 L654 349 L654 331 Z"/>
</clipPath>
<clipPath clipPathUnits="userSpaceOnUse" id="clipPath14">
<path d="M578 575 L772 575 L772 593 L578 593 L578 575 Z"/>
</clipPath>
<clipPath clipPathUnits="userSpaceOnUse" id="clipPath15">
<path d="M402 526 L596 526 L596 544 L402 544 L402 526 Z"/>
</clipPath>
<clipPath clipPathUnits="userSpaceOnUse" id="clipPath16">
<path d="M649 454 L843 454 L843 472 L649 472 L649 454 Z"/>
</clipPath>
<clipPath clipPathUnits="userSpaceOnUse" id="clipPath17">
<path d="M751 375 L945 375 L945 393 L751 393 L751 375 Z"/>
</clipPath>
<clipPath clipPathUnits="userSpaceOnUse" id="clipPath18">
<path d="M951 350 L1145 350 L1145 368 L951 368 L951 350 Z"/>
</clipPath>
<clipPath clipPathUnits="userSpaceOnUse" id="clipPath19">
<path d="M719 447 L913 447 L913 465 L719 465 L719 447 Z"/>
</clipPath>
<clipPath clipPathUnits="userSpaceOnUse" id="clipPath20">
<path d="M810 520 L1004 520 L1004 538 L810 538 L810 520 Z"/>
</clipPath>
</defs>
<g fill="rgb(255,203,203)" font-family="'Segoe UI'" stroke-linejoin="round" stroke="rgb(255,203,203)" stroke-width="0" stroke-miterlimit="0">
<rect width="40" x="317" height="40" y="88" stroke="none"/>
</g>
<g stroke-linecap="butt" font-family="'Segoe UI'">
<rect fill="none" width="39" x="317" height="39" y="88"/>
<text xml:space="preserve" x="240" y="113" stroke="none">Invalid view - remove from diagram.</text>
<rect x="341" y="614" fill="rgb(255,203,203)" width="40" height="40" stroke="none"/>
<rect x="341" y="614" fill="none" width="39" height="39" stroke-width="0.1"/>
<text xml:space="preserve" x="264" stroke-width="0.1" y="639" stroke="none">Invalid view - remove from diagram.</text>
<rect x="1074" y="334" fill="rgb(255,203,203)" width="40" height="40" stroke="none" stroke-width="0.1"/>
<rect x="1074" y="334" fill="none" width="39" height="39" stroke-width="0.1"/>
<text xml:space="preserve" x="997" stroke-width="0.1" y="359" stroke="none">Invalid view - remove from diagram.</text>
<rect x="90" y="349" fill="rgb(255,203,203)" width="40" height="40" stroke="none" stroke-width="0.1"/>
<rect x="90" y="349" fill="none" width="39" height="39" stroke-width="0.1"/>
<text xml:space="preserve" x="13" stroke-width="0.1" y="374" stroke="none">Invalid view - remove from diagram.</text>
<rect x="916" y="538" fill="rgb(255,203,203)" width="40" height="40" stroke="none" stroke-width="0.1"/>
<rect x="916" y="538" fill="none" width="39" height="39" stroke-width="0.1"/>
<text xml:space="preserve" x="839" stroke-width="0.1" y="563" stroke="none">Invalid view - remove from diagram.</text>
<rect x="730" y="392" fill="rgb(255,203,203)" width="40" height="40" stroke="none" stroke-width="0.1"/>
<rect x="730" y="392" fill="none" width="39" height="39" stroke-width="0.1"/>
<text xml:space="preserve" x="653" stroke-width="0.1" y="417" stroke="none">Invalid view - remove from diagram.</text>
<rect x="339" y="249" fill="rgb(255,203,203)" width="40" height="40" stroke="none" stroke-width="0.1"/>
<rect x="339" y="249" fill="none" width="39" height="39" stroke-width="0.1"/>
<text xml:space="preserve" x="262" stroke-width="0.1" y="274" stroke="none">Invalid view - remove from diagram.</text>
<rect x="299" y="530" fill="rgb(255,203,203)" width="40" height="40" stroke="none" stroke-width="0.1"/>
<rect x="299" y="530" fill="none" width="39" height="39" stroke-width="0.1"/>
<text xml:space="preserve" x="222" stroke-width="0.1" y="555" stroke="none">Invalid view - remove from diagram.</text>
<rect x="178" y="287" fill="rgb(255,203,203)" width="40" height="40" stroke="none" stroke-width="0.1"/>
<rect x="178" y="287" fill="none" width="39" height="39" stroke-width="0.1"/>
<text xml:space="preserve" x="101" stroke-width="0.1" y="312" stroke="none">Invalid view - remove from diagram.</text>
<rect x="219" y="486" fill="rgb(255,203,203)" width="40" height="40" stroke="none" stroke-width="0.1"/>
<rect x="219" y="486" fill="none" width="39" height="39" stroke-width="0.1"/>
<text xml:space="preserve" x="142" stroke-width="0.1" y="511" stroke="none">Invalid view - remove from diagram.</text>
<rect x="651" y="248" fill="rgb(255,203,203)" width="155" height="40" stroke="none" stroke-width="0.1"/>
<rect x="651" y="248" fill="none" width="154" height="39" stroke-width="0.1"/>
<text xml:space="preserve" x="632" stroke-width="0.1" y="273" stroke="none">Invalid view - remove from diagram.</text>
<rect x="660" y="495" fill="rgb(255,203,203)" width="147" height="40" stroke="none" stroke-width="0.1"/>
<rect x="660" y="495" fill="none" width="146" height="39" stroke-width="0.1"/>
<text xml:space="preserve" x="637" stroke-width="0.1" y="520" stroke="none">Invalid view - remove from diagram.</text>
<rect x="901" y="337" fill="rgb(255,203,203)" width="120" height="40" stroke="none" stroke-width="0.1"/>
<rect x="901" y="337" fill="none" width="119" height="39" stroke-width="0.1"/>
<text xml:space="preserve" x="864" stroke-width="0.1" y="362" stroke="none">Invalid view - remove from diagram.</text>
<rect x="862" y="480" fill="rgb(255,203,203)" width="40" height="40" stroke="none" stroke-width="0.1"/>
<rect x="862" y="480" fill="none" width="39" height="39" stroke-width="0.1"/>
<text xml:space="preserve" x="785" stroke-width="0.1" y="505" stroke="none">Invalid view - remove from diagram.</text>
<line fill="none" x1="1114" x2="1126" y1="370" y2="370" stroke="red" stroke-width="1.1"/>
<line fill="none" x1="1126" x2="1126" y1="370" y2="634" stroke="red" stroke-width="1.1"/>
<line fill="none" x1="1126" x2="381" y1="634" y2="634" stroke="red" stroke-width="1.1"/>
<rect x="85" y="23" clip-path="url(#clipPath1)" fill="rgb(255,203,203)" width="40" height="40" stroke="none" stroke-width="1.1"/>
<rect x="85" y="23" clip-path="url(#clipPath1)" fill="none" width="39" height="39" stroke-width="0.1"/>
<text x="8" y="48" clip-path="url(#clipPath1)" stroke="none" stroke-width="0.1" xml:space="preserve">Invalid view - remove from diagram.</text>
<rect x="85" y="23" clip-path="url(#clipPath1)" fill="rgb(255,203,203)" width="40" height="40" stroke="none" stroke-width="0.1"/>
<rect x="85" y="23" clip-path="url(#clipPath1)" fill="none" width="39" height="39" stroke-width="0.1"/>
<text x="8" y="48" clip-path="url(#clipPath1)" stroke="none" stroke-width="0.1" xml:space="preserve">Invalid view - remove from diagram.</text>
<text x="795" y="639" clip-path="url(#clipPath2)" fill="red" stroke="none" stroke-width="0.1" xml:space="preserve">Invalid view - remove from diagram.</text>
<line clip-path="url(#clipPath3)" fill="none" x1="1114" x2="1121" y1="341" y2="341" stroke="red" stroke-width="1.1"/>
<line clip-path="url(#clipPath3)" fill="none" x1="1121" x2="1121" y1="341" y2="128" stroke="red" stroke-width="1.1"/>
<line clip-path="url(#clipPath3)" fill="none" x1="1121" x2="357" y1="128" y2="128" stroke="red" stroke-width="1.1"/>
<rect x="85" y="23" clip-path="url(#clipPath1)" fill="rgb(255,203,203)" width="40" height="40" stroke="none" stroke-width="1.1"/>
<rect x="85" y="23" clip-path="url(#clipPath1)" fill="none" width="39" height="39" stroke-width="0.1"/>
<text x="8" y="48" clip-path="url(#clipPath1)" stroke="none" stroke-width="0.1" xml:space="preserve">Invalid view - remove from diagram.</text>
<rect x="85" y="23" clip-path="url(#clipPath1)" fill="rgb(255,203,203)" width="40" height="40" stroke="none" stroke-width="0.1"/>
<rect x="85" y="23" clip-path="url(#clipPath1)" fill="none" width="39" height="39" stroke-width="0.1"/>
<text x="8" y="48" clip-path="url(#clipPath1)" stroke="none" stroke-width="0.1" xml:space="preserve">Invalid view - remove from diagram.</text>
<text x="753" y="133" clip-path="url(#clipPath4)" fill="red" stroke="none" stroke-width="0.1" xml:space="preserve">Invalid view - remove from diagram.</text>
<line clip-path="url(#clipPath3)" fill="none" x1="341" x2="129" y1="628" y2="628" stroke="red" stroke-width="1.1"/>
<line clip-path="url(#clipPath3)" fill="none" x1="129" x2="129" y1="628" y2="612" stroke="red" stroke-width="1.1"/>
<line clip-path="url(#clipPath3)" fill="none" x1="129" x2="104" y1="612" y2="612" stroke="red" stroke-width="1.1"/>
<line clip-path="url(#clipPath3)" fill="none" x1="104" x2="104" y1="612" y2="389" stroke="red" stroke-width="1.1"/>
<rect x="85" y="23" clip-path="url(#clipPath1)" fill="rgb(255,203,203)" width="40" height="40" stroke="none" stroke-width="1.1"/>
<rect x="85" y="23" clip-path="url(#clipPath1)" fill="none" width="39" height="39" stroke-width="0.1"/>
<text x="8" y="48" clip-path="url(#clipPath1)" stroke="none" stroke-width="0.1" xml:space="preserve">Invalid view - remove from diagram.</text>
<rect x="85" y="23" clip-path="url(#clipPath1)" fill="rgb(255,203,203)" width="40" height="40" stroke="none" stroke-width="0.1"/>
<rect x="85" y="23" clip-path="url(#clipPath1)" fill="none" width="39" height="39" stroke-width="0.1"/>
<text x="8" y="48" clip-path="url(#clipPath1)" stroke="none" stroke-width="0.1" xml:space="preserve">Invalid view - remove from diagram.</text>
<rect x="85" y="23" clip-path="url(#clipPath1)" fill="rgb(255,203,203)" width="40" height="40" stroke="none" stroke-width="0.1"/>
<rect x="85" y="23" clip-path="url(#clipPath1)" fill="none" width="39" height="39" stroke-width="0.1"/>
<text x="8" y="48" clip-path="url(#clipPath1)" stroke="none" stroke-width="0.1" xml:space="preserve">Invalid view - remove from diagram.</text>
<rect x="85" y="23" clip-path="url(#clipPath1)" fill="rgb(255,203,203)" width="40" height="40" stroke="none" stroke-width="0.1"/>
<rect x="85" y="23" clip-path="url(#clipPath1)" fill="none" width="39" height="39" stroke-width="0.1"/>
<text x="8" y="48" clip-path="url(#clipPath1)" stroke="none" stroke-width="0.1" xml:space="preserve">Invalid view - remove from diagram.</text>
<rect x="85" y="23" clip-path="url(#clipPath1)" fill="rgb(255,203,203)" width="40" height="40" stroke="none" stroke-width="0.1"/>
<rect x="85" y="23" clip-path="url(#clipPath1)" fill="none" width="39" height="39" stroke-width="0.1"/>
<text x="8" y="48" clip-path="url(#clipPath1)" stroke="none" stroke-width="0.1" xml:space="preserve">Invalid view - remove from diagram.</text>
<text x="23" y="617" clip-path="url(#clipPath5)" fill="red" stroke="none" stroke-width="0.1" xml:space="preserve">Invalid view - remove from diagram.</text>
<line clip-path="url(#clipPath3)" fill="none" x1="317" x2="127" y1="90" y2="90" stroke="red" stroke-width="1.1"/>
<line clip-path="url(#clipPath3)" fill="none" x1="127" x2="127" y1="90" y2="140" stroke="red" stroke-width="1.1"/>
<line clip-path="url(#clipPath3)" fill="none" x1="127" x2="105" y1="140" y2="140" stroke="red" stroke-width="1.1"/>
<line clip-path="url(#clipPath3)" fill="none" x1="105" x2="105" y1="140" y2="349" stroke="red" stroke-width="1.1"/>
<rect x="85" y="23" clip-path="url(#clipPath1)" fill="rgb(255,203,203)" width="40" height="40" stroke="none" stroke-width="1.1"/>
<rect x="85" y="23" clip-path="url(#clipPath1)" fill="none" width="39" height="39" stroke-width="0.1"/>
<text x="8" y="48" clip-path="url(#clipPath1)" stroke="none" stroke-width="0.1" xml:space="preserve">Invalid view - remove from diagram.</text>
<rect x="85" y="23" clip-path="url(#clipPath1)" fill="rgb(255,203,203)" width="40" height="40" stroke="none" stroke-width="0.1"/>
<rect x="85" y="23" clip-path="url(#clipPath1)" fill="none" width="39" height="39" stroke-width="0.1"/>
<text x="8" y="48" clip-path="url(#clipPath1)" stroke="none" stroke-width="0.1" xml:space="preserve">Invalid view - remove from diagram.</text>
<rect x="85" y="23" clip-path="url(#clipPath1)" fill="rgb(255,203,203)" width="40" height="40" stroke="none" stroke-width="0.1"/>
<rect x="85" y="23" clip-path="url(#clipPath1)" fill="none" width="39" height="39" stroke-width="0.1"/>
<text x="8" y="48" clip-path="url(#clipPath1)" stroke="none" stroke-width="0.1" xml:space="preserve">Invalid view - remove from diagram.</text>
<rect x="85" y="23" clip-path="url(#clipPath1)" fill="rgb(255,203,203)" width="40" height="40" stroke="none" stroke-width="0.1"/>
<rect x="85" y="23" clip-path="url(#clipPath1)" fill="none" width="39" height="39" stroke-width="0.1"/>
<text x="8" y="48" clip-path="url(#clipPath1)" stroke="none" stroke-width="0.1" xml:space="preserve">Invalid view - remove from diagram.</text>
<rect x="85" y="23" clip-path="url(#clipPath1)" fill="rgb(255,203,203)" width="40" height="40" stroke="none" stroke-width="0.1"/>
<rect x="85" y="23" clip-path="url(#clipPath1)" fill="none" width="39" height="39" stroke-width="0.1"/>
<text x="8" y="48" clip-path="url(#clipPath1)" stroke="none" stroke-width="0.1" xml:space="preserve">Invalid view - remove from diagram.</text>
<text x="31" y="141" clip-path="url(#clipPath6)" fill="red" stroke="none" stroke-width="0.1" xml:space="preserve">Invalid view - remove from diagram.</text>
<line clip-path="url(#clipPath3)" fill="none" x1="178" x2="128" y1="313" y2="330" stroke="red" stroke-width="1.1"/>
<line clip-path="url(#clipPath3)" fill="none" x1="128" x2="310" y1="330" y2="90" stroke="red" stroke-width="1.1"/>
<text x="107" y="236" clip-path="url(#clipPath7)" fill="red" stroke="none" stroke-width="1.1" xml:space="preserve">Invalid view - remove from diagram.</text>
<line clip-path="url(#clipPath3)" fill="none" x1="218" x2="339" y1="313" y2="278" stroke="red" stroke-width="1.1"/>
<text x="183" y="300" clip-path="url(#clipPath8)" fill="red" stroke="none" stroke-width="1.1" xml:space="preserve">Invalid view - remove from diagram.</text>
<line clip-path="url(#clipPath3)" fill="none" x1="219" x2="125" y1="488" y2="440" stroke="red" stroke-width="1.1"/>
<line clip-path="url(#clipPath3)" fill="none" x1="125" x2="104" y1="440" y2="440" stroke="red" stroke-width="1.1"/>
<text x="66" y="464" clip-path="url(#clipPath9)" fill="red" stroke="none" stroke-width="1.1" xml:space="preserve">Invalid view - remove from diagram.</text>
<line clip-path="url(#clipPath3)" fill="none" x1="259" x2="282" y1="519" y2="519" stroke="red" stroke-width="1.1"/>
<line clip-path="url(#clipPath3)" fill="none" x1="282" x2="307" y1="519" y2="530" stroke="red" stroke-width="1.1"/>
<text x="188" y="525" clip-path="url(#clipPath10)" fill="red" stroke="none" stroke-width="1.1" xml:space="preserve">Invalid view - remove from diagram.</text>
<line clip-path="url(#clipPath3)" fill="none" x1="681" x2="534" y1="248" y2="128" stroke="red" stroke-width="1.1"/>
<text x="511" y="193" clip-path="url(#clipPath11)" fill="red" stroke="none" stroke-width="1.1" xml:space="preserve">Invalid view - remove from diagram.</text>
<line clip-path="url(#clipPath3)" fill="none" x1="651" x2="379" y1="271" y2="271" stroke="red" stroke-width="1.1"/>
<text x="419" y="276" clip-path="url(#clipPath12)" fill="red" stroke="none" stroke-width="1.1" xml:space="preserve">Invalid view - remove from diagram.</text>
<line clip-path="url(#clipPath3)" fill="none" x1="762" x2="740" y1="288" y2="392" stroke="red" stroke-width="1.1"/>
<text x="655" y="345" clip-path="url(#clipPath13)" fill="red" stroke="none" stroke-width="1.1" xml:space="preserve">Invalid view - remove from diagram.</text>
<line clip-path="url(#clipPath3)" fill="none" x1="711" x2="638" y1="535" y2="634" stroke="red" stroke-width="1.1"/>
<text x="579" y="589" clip-path="url(#clipPath14)" fill="red" stroke="none" stroke-width="1.1" xml:space="preserve">Invalid view - remove from diagram.</text>
<line clip-path="url(#clipPath3)" fill="none" x1="660" x2="339" y1="527" y2="543" stroke="red" stroke-width="1.1"/>
<text x="403" y="540" clip-path="url(#clipPath15)" fill="red" stroke="none" stroke-width="1.1" xml:space="preserve">Invalid view - remove from diagram.</text>
<line clip-path="url(#clipPath3)" fill="none" x1="757" x2="735" y1="495" y2="432" stroke="red" stroke-width="1.1"/>
<text x="650" y="468" clip-path="url(#clipPath16)" fill="red" stroke="none" stroke-width="1.1" xml:space="preserve">Invalid view - remove from diagram.</text>
<line clip-path="url(#clipPath3)" fill="none" x1="939" x2="756" y1="377" y2="392" stroke="red" stroke-width="1.1"/>
<text x="752" y="389" clip-path="url(#clipPath17)" fill="red" stroke="none" stroke-width="1.1" xml:space="preserve">Invalid view - remove from diagram.</text>
<line clip-path="url(#clipPath3)" fill="none" x1="1021" x2="1074" y1="366" y2="353" stroke="red" stroke-width="1.1"/>
<text x="952" y="364" clip-path="url(#clipPath18)" fill="red" stroke="none" stroke-width="1.1" xml:space="preserve">Invalid view - remove from diagram.</text>
<line clip-path="url(#clipPath3)" fill="none" x1="882" x2="752" y1="480" y2="432" stroke="red" stroke-width="1.1"/>
<text x="720" y="461" clip-path="url(#clipPath19)" fill="red" stroke="none" stroke-width="1.1" xml:space="preserve">Invalid view - remove from diagram.</text>
<line clip-path="url(#clipPath3)" fill="none" x1="890" x2="923" y1="520" y2="538" stroke="red" stroke-width="1.1"/>
<text x="811" y="534" clip-path="url(#clipPath20)" fill="red" stroke="none" stroke-width="1.1" xml:space="preserve">Invalid view - remove from diagram.</text>
</g>
</g>
<rect x="317" y="88" fill-opacity="0" width="40" title="The ForwardingConstruct (FC) class models enabled constrained potential for forwarding between two or more FcPorts at a particular specific layerProtocol .&#13;&#10;Like the LTP, the FC supports any transport protocol including all analogue, circuit and packet forms.&#13;&#10;For digital layer networks it is used to effect forwarding of transport characteristic (layer protocol) information.&#13;&#10;An FC can be in only one ForwardingDomain (FD).&#13;&#10;The FC is a forwarding entity.&#13;&#10;At a low level of the recursion, a FC represents a cross-connection within an NE. It may also represent a fragment of a cross-connection under certain circumstances.&#13;&#10;The FC object can be used to represent many different structures including point-to-point (P2P), point-to-multipoint (P2MP), rooted-multipoint (RMP) and multipoint-to-multipoint (MP2MP) bridge and selector structures for linear, ring or mesh protection schemes.&#13;&#10;When applied to media, the FC represents the ability for a flow/wave (potentially containing information), to be propagated between FcPorts. &#13;&#10;The existence of a FC instance is independent of the presence (or absence) of a flow/wave (and any information encoded within it).  &#13;&#10;A flow/wave cannot propagate in the absence of a FC instance." id="ForwardingConstruct" height="40" stroke-opacity="0">
<title>The ForwardingConstruct (FC) class models enabled constrained potential for forwarding between two or more FcPorts at a particular specific layerProtocol .&#13;
Like the LTP, the FC supports any transport protocol including all analogue, circuit and packet forms.&#13;
For digital layer networks it is used to effect forwarding of transport characteristic (layer protocol) information.&#13;
An FC can be in only one ForwardingDomain (FD).&#13;
The FC is a forwarding entity.&#13;
At a low level of the recursion, a FC represents a cross-connection within an NE. It may also represent a fragment of a cross-connection under certain circumstances.&#13;
The FC object can be used to represent many different structures including point-to-point (P2P), point-to-multipoint (P2MP), rooted-multipoint (RMP) and multipoint-to-multipoint (MP2MP) bridge and selector structures for linear, ring or mesh protection schemes.&#13;
When applied to media, the FC represents the ability for a flow/wave (potentially containing information), to be propagated between FcPorts. &#13;
The existence of a FC instance is independent of the presence (or absence) of a flow/wave (and any information encoded within it).  &#13;
A flow/wave cannot propagate in the absence of a FC instance.</title>
</rect>
<rect x="341" y="614" fill-opacity="0" width="40" title="The Link class models effective adjacency between two or more ForwardingDomains (FD). &#13;&#10;For digital layer networks, in its basic form (i.e., point-to-point Link) it associates a set of LTP clients on one FD with an equivalent set of LTP clients on another FD. &#13;&#10;Like the FC, the Link has ports (LinkPort) which take roles relevant to the constraints on flows offered by the Link (e.g., Root role or leaf role for a Link that has a constrained Tree configuration)." id="Link" height="40" stroke-opacity="0">
<title>The Link class models effective adjacency between two or more ForwardingDomains (FD). &#13;
For digital layer networks, in its basic form (i.e., point-to-point Link) it associates a set of LTP clients on one FD with an equivalent set of LTP clients on another FD. &#13;
Like the FC, the Link has ports (LinkPort) which take roles relevant to the constraints on flows offered by the Link (e.g., Root role or leaf role for a Link that has a constrained Tree configuration).</title>
</rect>
<rect x="1074" y="334" fill-opacity="0" width="40" title="The overall spec for the forwarding entity." id="ForwardingSpec" height="40" stroke-opacity="0">
<title>The overall spec for the forwarding entity.</title>
</rect>
<rect x="90" y="349" fill-opacity="0" width="40" title="This datatype represents the &quot;&lt;&lt;Metaclass&gt;&gt; Class&quot; from the UML metamodel. &#13;&#10;An instance of the referencing Class (e.g. LTP) will reference a Class (not an instance).&#13;&#10;This referenced Class will provide definition to extend the referencing instance. &#13;&#10;So, for example, an LTP instance will have the attributes defined in the LTP class and also the attributes defined in the referenced Class (an LtpSpec).&#13;&#10;The referenced Class may:&#13;&#10;(1) provide invariant properties (that are the same for many instances) that then are not conveyed with the referencing instance.&#13;&#10;(2) provide definitions for attributes that are present in the instance that are not defined in the Class of the instance (these attribute may have been pruned and refactored from one or more external definition sources). &#13;&#10;(3) apply constraints to attributes in the instance that were defined in the class of the referencing instance.&#13;&#10;(4) replace attributes that were present in the class of the referencing instance by a new definition (same name).&#13;&#10;" id="Metaclass:Class" height="40" stroke-opacity="0">
<title>This datatype represents the "&lt;&lt;Metaclass&gt;&gt; Class" from the UML metamodel. &#13;
An instance of the referencing Class (e.g. LTP) will reference a Class (not an instance).&#13;
This referenced Class will provide definition to extend the referencing instance. &#13;
So, for example, an LTP instance will have the attributes defined in the LTP class and also the attributes defined in the referenced Class (an LtpSpec).&#13;
The referenced Class may:&#13;
(1) provide invariant properties (that are the same for many instances) that then are not conveyed with the referencing instance.&#13;
(2) provide definitions for attributes that are present in the instance that are not defined in the Class of the instance (these attribute may have been pruned and refactored from one or more external definition sources). &#13;
(3) apply constraints to attributes in the instance that were defined in the class of the referencing instance.&#13;
(4) replace attributes that were present in the class of the referencing instance by a new definition (same name).&#13;
</title>
</rect>
<rect x="916" y="538" fill-opacity="0" width="40" id="Metaclass:Class:Name" height="40" stroke-opacity="0"/>
<rect x="730" y="392" fill-opacity="0" width="40" id="specTargetClass" height="40" stroke-opacity="0"/>
<rect x="339" y="249" fill-opacity="0" width="40" title="Reference to the Spec (Class)." id="_fcSpecReference:ClassRef" height="40" stroke-opacity="0">
<title>Reference to the Spec (Class).</title>
</rect>
<rect x="299" y="530" fill-opacity="0" width="40" id="_linkSpecReference:ClassRef" height="40" stroke-opacity="0"/>
<rect x="178" y="287" fill-opacity="0" width="40" height="40" stroke-opacity="0"/>
<rect x="219" y="486" fill-opacity="0" width="40" height="40" stroke-opacity="0"/>
<rect x="651" y="248" fill-opacity="0" width="155" height="40" stroke-opacity="0"/>
<rect x="660" y="495" fill-opacity="0" width="147" height="40" stroke-opacity="0"/>
<rect x="901" y="337" fill-opacity="0" width="120" height="40" stroke-opacity="0"/>
<rect x="862" y="480" fill-opacity="0" width="40" height="40" stroke-opacity="0"/>
</svg>
