<?xml version="1.0" encoding="UTF-8"?><svg xmlns="http://www.w3.org/2000/svg" xmlns:xlink="http://www.w3.org/1999/xlink" stroke-dasharray="none" shape-rendering="auto" font-family="'Dialog'" width="1284" text-rendering="auto" fill-opacity="1" contentScriptType="text/ecmascript" color-interpolation="auto" color-rendering="auto" preserveAspectRatio="xMidYMid meet" font-size="12" viewBox="0 0 1284 1261" fill="black" stroke="black" image-rendering="auto" stroke-miterlimit="10" zoomAndPan="magnify" version="1.0" stroke-linecap="square" stroke-linejoin="miter" contentStyleType="text/css" font-style="normal" height="1261" stroke-width="1" stroke-dashoffset="0" font-weight="normal" stroke-opacity="1">
<!--Generated by the Batik Graphics2D SVG Generator-->
<defs id="genericDefs"/>
<g>
<defs id="defs1">
<clipPath clipPathUnits="userSpaceOnUse" id="clipPath1">
<path d="M22 256 L64 256 L64 298 L22 298 L22 256 Z"/>
</clipPath>
<clipPath clipPathUnits="userSpaceOnUse" id="clipPath2">
<path d="M468 538 L662 538 L662 556 L468 556 L468 538 Z"/>
</clipPath>
<clipPath clipPathUnits="userSpaceOnUse" id="clipPath3">
<path d="M-1 -1 L1285 -1 L1285 1262 L-1 1262 L-1 -1 Z"/>
</clipPath>
<clipPath clipPathUnits="userSpaceOnUse" id="clipPath4">
<path d="M794 540 L988 540 L988 558 L794 558 L794 540 Z"/>
</clipPath>
<clipPath clipPathUnits="userSpaceOnUse" id="clipPath5">
<path d="M685 372 L879 372 L879 390 L685 390 L685 372 Z"/>
</clipPath>
<clipPath clipPathUnits="userSpaceOnUse" id="clipPath6">
<path d="M465 30 L659 30 L659 48 L465 48 L465 30 Z"/>
</clipPath>
<clipPath clipPathUnits="userSpaceOnUse" id="clipPath7">
<path d="M603 145 L797 145 L797 163 L603 163 L603 145 Z"/>
</clipPath>
<clipPath clipPathUnits="userSpaceOnUse" id="clipPath8">
<path d="M735 63 L929 63 L929 81 L735 81 L735 63 Z"/>
</clipPath>
<clipPath clipPathUnits="userSpaceOnUse" id="clipPath9">
<path d="M822 367 L1016 367 L1016 385 L822 385 L822 367 Z"/>
</clipPath>
<clipPath clipPathUnits="userSpaceOnUse" id="clipPath10">
<path d="M781 303 L975 303 L975 321 L781 321 L781 303 Z"/>
</clipPath>
<clipPath clipPathUnits="userSpaceOnUse" id="clipPath11">
<path d="M549 234 L743 234 L743 252 L549 252 L549 234 Z"/>
</clipPath>
<clipPath clipPathUnits="userSpaceOnUse" id="clipPath12">
<path d="M684 265 L878 265 L878 283 L684 283 L684 265 Z"/>
</clipPath>
<clipPath clipPathUnits="userSpaceOnUse" id="clipPath13">
<path d="M619 338 L813 338 L813 356 L619 356 L619 338 Z"/>
</clipPath>
<clipPath clipPathUnits="userSpaceOnUse" id="clipPath14">
<path d="M622 702 L816 702 L816 720 L622 720 L622 702 Z"/>
</clipPath>
<clipPath clipPathUnits="userSpaceOnUse" id="clipPath15">
<path d="M1068 218 L1262 218 L1262 236 L1068 236 L1068 218 Z"/>
</clipPath>
<clipPath clipPathUnits="userSpaceOnUse" id="clipPath16">
<path d="M894 266 L1088 266 L1088 284 L894 284 L894 266 Z"/>
</clipPath>
<clipPath clipPathUnits="userSpaceOnUse" id="clipPath17">
<path d="M447 881 L641 881 L641 899 L447 899 L447 881 Z"/>
</clipPath>
<clipPath clipPathUnits="userSpaceOnUse" id="clipPath18">
<path d="M519 860 L713 860 L713 878 L519 878 L519 860 Z"/>
</clipPath>
<clipPath clipPathUnits="userSpaceOnUse" id="clipPath19">
<path d="M560 743 L754 743 L754 761 L560 761 L560 743 Z"/>
</clipPath>
<clipPath clipPathUnits="userSpaceOnUse" id="clipPath20">
<path d="M618 929 L812 929 L812 947 L618 947 L618 929 Z"/>
</clipPath>
<clipPath clipPathUnits="userSpaceOnUse" id="clipPath21">
<path d="M524 965 L718 965 L718 983 L524 983 L524 965 Z"/>
</clipPath>
<clipPath clipPathUnits="userSpaceOnUse" id="clipPath22">
<path d="M478 1029 L672 1029 L672 1047 L478 1047 L478 1029 Z"/>
</clipPath>
<clipPath clipPathUnits="userSpaceOnUse" id="clipPath23">
<path d="M695 940 L889 940 L889 958 L695 958 L695 940 Z"/>
</clipPath>
<clipPath clipPathUnits="userSpaceOnUse" id="clipPath24">
<path d="M764 747 L958 747 L958 765 L764 765 L764 747 Z"/>
</clipPath>
<clipPath clipPathUnits="userSpaceOnUse" id="clipPath25">
<path d="M658 1147 L852 1147 L852 1165 L658 1165 L658 1147 Z"/>
</clipPath>
<clipPath clipPathUnits="userSpaceOnUse" id="clipPath26">
<path d="M765 1203 L959 1203 L959 1221 L765 1221 L765 1203 Z"/>
</clipPath>
</defs>
<g fill="rgb(255,203,203)" font-family="'Segoe UI'" stroke-linejoin="round" stroke="rgb(255,203,203)" stroke-width="0" stroke-miterlimit="0">
<rect width="170" x="495" height="40" y="377" stroke="none"/>
</g>
<g stroke-linecap="butt" font-family="'Segoe UI'">
<rect fill="none" width="169" x="495" height="39" y="377"/>
<text xml:space="preserve" x="483" y="402" stroke="none">Invalid view - remove from diagram.</text>
<rect x="530" y="677" fill="rgb(255,203,203)" width="40" height="40" stroke="none"/>
<rect x="530" y="677" fill="none" width="39" height="39" stroke-width="0.1"/>
<text xml:space="preserve" x="453" stroke-width="0.1" y="702" stroke="none">Invalid view - remove from diagram.</text>
<rect x="868" y="682" fill="rgb(255,203,203)" width="40" height="40" stroke="none" stroke-width="0.1"/>
<rect x="868" y="682" fill="none" width="39" height="39" stroke-width="0.1"/>
<text xml:space="preserve" x="791" stroke-width="0.1" y="707" stroke="none">Invalid view - remove from diagram.</text>
<rect x="898" y="377" fill="rgb(255,203,203)" width="40" height="40" stroke="none" stroke-width="0.1"/>
<rect x="898" y="377" fill="none" width="39" height="39" stroke-width="0.1"/>
<text xml:space="preserve" x="821" stroke-width="0.1" y="402" stroke="none">Invalid view - remove from diagram.</text>
<rect x="902" y="10" fill="rgb(255,203,203)" width="40" height="40" stroke="none" stroke-width="0.1"/>
<rect x="902" y="10" fill="none" width="39" height="39" stroke-width="0.1"/>
<text xml:space="preserve" x="825" stroke-width="0.1" y="35" stroke="none">Invalid view - remove from diagram.</text>
<rect x="604" y="160" fill="rgb(255,203,203)" width="40" height="54" stroke="none" stroke-width="0.1"/>
<rect x="604" y="160" fill="none" width="39" height="53" stroke-width="0.1"/>
<text xml:space="preserve" x="527" stroke-width="0.1" y="192" stroke="none">Invalid view - remove from diagram.</text>
<rect x="1121" y="145" fill="rgb(255,203,203)" width="40" height="40" stroke="none" stroke-width="0.1"/>
<rect x="1121" y="145" fill="none" width="39" height="39" stroke-width="0.1"/>
<text xml:space="preserve" x="1044" stroke-width="0.1" y="170" stroke="none">Invalid view - remove from diagram.</text>
<rect x="738" y="107" fill="rgb(255,203,203)" width="40" height="40" stroke="none" stroke-width="0.1"/>
<rect x="738" y="107" fill="none" width="39" height="39" stroke-width="0.1"/>
<text xml:space="preserve" x="661" stroke-width="0.1" y="132" stroke="none">Invalid view - remove from diagram.</text>
<rect x="630" y="273" fill="rgb(255,203,203)" width="138" height="40" stroke="none" stroke-width="0.1"/>
<rect x="630" y="273" fill="none" width="137" height="39" stroke-width="0.1"/>
<text xml:space="preserve" x="602" stroke-width="0.1" y="298" stroke="none">Invalid view - remove from diagram.</text>
<rect x="795" y="249" fill="rgb(255,203,203)" width="40" height="40" stroke="none" stroke-width="0.1"/>
<rect x="795" y="249" fill="none" width="39" height="39" stroke-width="0.1"/>
<text xml:space="preserve" x="718" stroke-width="0.1" y="274" stroke="none">Invalid view - remove from diagram.</text>
<rect x="919" y="336" fill="rgb(255,203,203)" width="40" height="40" stroke="none" stroke-width="0.1"/>
<rect x="919" y="336" fill="none" width="39" height="39" stroke-width="0.1"/>
<text xml:space="preserve" x="842" stroke-width="0.1" y="361" stroke="none">Invalid view - remove from diagram.</text>
<rect x="1149" y="271" fill="rgb(255,203,203)" width="40" height="40" stroke="none" stroke-width="0.1"/>
<rect x="1149" y="271" fill="none" width="39" height="39" stroke-width="0.1"/>
<text xml:space="preserve" x="1072" stroke-width="0.1" y="296" stroke="none">Invalid view - remove from diagram.</text>
<rect x="707" y="1062" fill="rgb(255,203,203)" width="40" height="40" stroke="none" stroke-width="0.1"/>
<rect x="707" y="1062" fill="none" width="39" height="39" stroke-width="0.1"/>
<text xml:space="preserve" x="630" stroke-width="0.1" y="1087" stroke="none">Invalid view - remove from diagram.</text>
<rect x="507" y="1064" fill="rgb(255,203,203)" width="40" height="40" stroke="none" stroke-width="0.1"/>
<rect x="507" y="1064" fill="none" width="39" height="39" stroke-width="0.1"/>
<text xml:space="preserve" x="430" stroke-width="0.1" y="1089" stroke="none">Invalid view - remove from diagram.</text>
<rect x="920" y="1179" fill="rgb(255,203,203)" width="40" height="40" stroke="none" stroke-width="0.1"/>
<rect x="920" y="1179" fill="none" width="39" height="39" stroke-width="0.1"/>
<text xml:space="preserve" x="843" stroke-width="0.1" y="1204" stroke="none">Invalid view - remove from diagram.</text>
<rect x="609" y="904" fill="rgb(255,203,203)" width="40" height="40" stroke="none" stroke-width="0.1"/>
<rect x="609" y="904" fill="none" width="39" height="39" stroke-width="0.1"/>
<text xml:space="preserve" x="532" stroke-width="0.1" y="929" stroke="none">Invalid view - remove from diagram.</text>
<rect x="610" y="1004" fill="rgb(255,203,203)" width="40" height="40" stroke="none" stroke-width="0.1"/>
<rect x="610" y="1004" fill="none" width="39" height="39" stroke-width="0.1"/>
<text xml:space="preserve" x="533" stroke-width="0.1" y="1029" stroke="none">Invalid view - remove from diagram.</text>
<rect x="594" y="793" fill="rgb(255,203,203)" width="160" height="40" stroke="none" stroke-width="0.1"/>
<rect x="594" y="793" fill="none" width="159" height="39" stroke-width="0.1"/>
<text xml:space="preserve" x="577" stroke-width="0.1" y="818" stroke="none">Invalid view - remove from diagram.</text>
<rect x="831" y="797" fill="rgb(255,203,203)" width="40" height="40" stroke="none" stroke-width="0.1"/>
<rect x="831" y="797" fill="none" width="39" height="39" stroke-width="0.1"/>
<text xml:space="preserve" x="754" stroke-width="0.1" y="822" stroke="none">Invalid view - remove from diagram.</text>
<rect x="764" y="1211" fill="rgb(255,203,203)" width="40" height="40" stroke="none" stroke-width="0.1"/>
<rect x="764" y="1211" fill="none" width="39" height="39" stroke-width="0.1"/>
<text xml:space="preserve" x="687" stroke-width="0.1" y="1236" stroke="none">Invalid view - remove from diagram.</text>
<line fill="none" x1="580" x2="580" y1="417" y2="547" stroke="red" stroke-width="1.1"/>
<line fill="none" x1="580" x2="550" y1="547" y2="547" stroke="red" stroke-width="1.1"/>
<line fill="none" x1="550" x2="550" y1="547" y2="677" stroke="red" stroke-width="1.1"/>
<rect x="23" y="257" clip-path="url(#clipPath1)" fill="rgb(255,203,203)" width="40" height="40" stroke="none" stroke-width="1.1"/>
<rect x="23" y="257" clip-path="url(#clipPath1)" fill="none" width="39" height="39" stroke-width="0.1"/>
<text x="-54" y="282" clip-path="url(#clipPath1)" stroke="none" stroke-width="0.1" xml:space="preserve">Invalid view - remove from diagram.</text>
<rect x="23" y="257" clip-path="url(#clipPath1)" fill="rgb(255,203,203)" width="40" height="40" stroke="none" stroke-width="0.1"/>
<rect x="23" y="257" clip-path="url(#clipPath1)" fill="none" width="39" height="39" stroke-width="0.1"/>
<text x="-54" y="282" clip-path="url(#clipPath1)" stroke="none" stroke-width="0.1" xml:space="preserve">Invalid view - remove from diagram.</text>
<rect x="23" y="257" clip-path="url(#clipPath1)" fill="rgb(255,203,203)" width="40" height="40" stroke="none" stroke-width="0.1"/>
<rect x="23" y="257" clip-path="url(#clipPath1)" fill="none" width="39" height="39" stroke-width="0.1"/>
<text x="-54" y="282" clip-path="url(#clipPath1)" stroke="none" stroke-width="0.1" xml:space="preserve">Invalid view - remove from diagram.</text>
<rect x="23" y="257" clip-path="url(#clipPath1)" fill="rgb(255,203,203)" width="40" height="40" stroke="none" stroke-width="0.1"/>
<rect x="23" y="257" clip-path="url(#clipPath1)" fill="none" width="39" height="39" stroke-width="0.1"/>
<text x="-54" y="282" clip-path="url(#clipPath1)" stroke="none" stroke-width="0.1" xml:space="preserve">Invalid view - remove from diagram.</text>
<rect x="23" y="257" clip-path="url(#clipPath1)" fill="rgb(255,203,203)" width="40" height="40" stroke="none" stroke-width="0.1"/>
<rect x="23" y="257" clip-path="url(#clipPath1)" fill="none" width="39" height="39" stroke-width="0.1"/>
<text x="-54" y="282" clip-path="url(#clipPath1)" stroke="none" stroke-width="0.1" xml:space="preserve">Invalid view - remove from diagram.</text>
<text x="469" y="552" clip-path="url(#clipPath2)" fill="red" stroke="none" stroke-width="0.1" xml:space="preserve">Invalid view - remove from diagram.</text>
<line clip-path="url(#clipPath3)" fill="none" x1="906" x2="906" y1="417" y2="549" stroke="red" stroke-width="1.1"/>
<line clip-path="url(#clipPath3)" fill="none" x1="906" x2="877" y1="549" y2="549" stroke="red" stroke-width="1.1"/>
<line clip-path="url(#clipPath3)" fill="none" x1="877" x2="877" y1="549" y2="682" stroke="red" stroke-width="1.1"/>
<rect x="23" y="257" clip-path="url(#clipPath1)" fill="rgb(255,203,203)" width="40" height="40" stroke="none" stroke-width="1.1"/>
<rect x="23" y="257" clip-path="url(#clipPath1)" fill="none" width="39" height="39" stroke-width="0.1"/>
<text x="-54" y="282" clip-path="url(#clipPath1)" stroke="none" stroke-width="0.1" xml:space="preserve">Invalid view - remove from diagram.</text>
<rect x="23" y="257" clip-path="url(#clipPath1)" fill="rgb(255,203,203)" width="40" height="40" stroke="none" stroke-width="0.1"/>
<rect x="23" y="257" clip-path="url(#clipPath1)" fill="none" width="39" height="39" stroke-width="0.1"/>
<text x="-54" y="282" clip-path="url(#clipPath1)" stroke="none" stroke-width="0.1" xml:space="preserve">Invalid view - remove from diagram.</text>
<rect x="23" y="257" clip-path="url(#clipPath1)" fill="rgb(255,203,203)" width="40" height="40" stroke="none" stroke-width="0.1"/>
<rect x="23" y="257" clip-path="url(#clipPath1)" fill="none" width="39" height="39" stroke-width="0.1"/>
<text x="-54" y="282" clip-path="url(#clipPath1)" stroke="none" stroke-width="0.1" xml:space="preserve">Invalid view - remove from diagram.</text>
<rect x="23" y="257" clip-path="url(#clipPath1)" fill="rgb(255,203,203)" width="40" height="40" stroke="none" stroke-width="0.1"/>
<rect x="23" y="257" clip-path="url(#clipPath1)" fill="none" width="39" height="39" stroke-width="0.1"/>
<text x="-54" y="282" clip-path="url(#clipPath1)" stroke="none" stroke-width="0.1" xml:space="preserve">Invalid view - remove from diagram.</text>
<rect x="23" y="257" clip-path="url(#clipPath1)" fill="rgb(255,203,203)" width="40" height="40" stroke="none" stroke-width="0.1"/>
<rect x="23" y="257" clip-path="url(#clipPath1)" fill="none" width="39" height="39" stroke-width="0.1"/>
<text x="-54" y="282" clip-path="url(#clipPath1)" stroke="none" stroke-width="0.1" xml:space="preserve">Invalid view - remove from diagram.</text>
<text x="795" y="554" clip-path="url(#clipPath4)" fill="red" stroke="none" stroke-width="0.1" xml:space="preserve">Invalid view - remove from diagram.</text>
<line clip-path="url(#clipPath3)" fill="none" x1="898" x2="839" y1="382" y2="382" stroke="red" stroke-width="1.1"/>
<line clip-path="url(#clipPath3)" fill="none" x1="839" x2="839" y1="382" y2="381" stroke="red" stroke-width="1.1"/>
<line clip-path="url(#clipPath3)" fill="none" x1="839" x2="665" y1="381" y2="381" stroke="red" stroke-width="1.1"/>
<rect x="23" y="257" clip-path="url(#clipPath1)" fill="rgb(255,203,203)" width="40" height="40" stroke="none" stroke-width="1.1"/>
<rect x="23" y="257" clip-path="url(#clipPath1)" fill="none" width="39" height="39" stroke-width="0.1"/>
<text x="-54" y="282" clip-path="url(#clipPath1)" stroke="none" stroke-width="0.1" xml:space="preserve">Invalid view - remove from diagram.</text>
<rect x="23" y="257" clip-path="url(#clipPath1)" fill="rgb(255,203,203)" width="40" height="40" stroke="none" stroke-width="0.1"/>
<rect x="23" y="257" clip-path="url(#clipPath1)" fill="none" width="39" height="39" stroke-width="0.1"/>
<text x="-54" y="282" clip-path="url(#clipPath1)" stroke="none" stroke-width="0.1" xml:space="preserve">Invalid view - remove from diagram.</text>
<text x="686" y="386" clip-path="url(#clipPath5)" fill="red" stroke="none" stroke-width="0.1" xml:space="preserve">Invalid view - remove from diagram.</text>
<line clip-path="url(#clipPath3)" fill="none" x1="566" x2="566" y1="377" y2="158" stroke="red" stroke-width="1.1"/>
<line clip-path="url(#clipPath3)" fill="none" x1="566" x2="562" y1="158" y2="158" stroke="red" stroke-width="1.1"/>
<line clip-path="url(#clipPath3)" fill="none" x1="562" x2="562" y1="158" y2="38" stroke="red" stroke-width="1.1"/>
<line clip-path="url(#clipPath3)" fill="none" x1="562" x2="902" y1="38" y2="38" stroke="red" stroke-width="1.1"/>
<rect x="23" y="257" clip-path="url(#clipPath1)" fill="rgb(255,203,203)" width="40" height="40" stroke="none" stroke-width="1.1"/>
<rect x="23" y="257" clip-path="url(#clipPath1)" fill="none" width="39" height="39" stroke-width="0.1"/>
<text x="-54" y="282" clip-path="url(#clipPath1)" stroke="none" stroke-width="0.1" xml:space="preserve">Invalid view - remove from diagram.</text>
<rect x="23" y="257" clip-path="url(#clipPath1)" fill="rgb(255,203,203)" width="40" height="40" stroke="none" stroke-width="0.1"/>
<rect x="23" y="257" clip-path="url(#clipPath1)" fill="none" width="39" height="39" stroke-width="0.1"/>
<text x="-54" y="282" clip-path="url(#clipPath1)" stroke="none" stroke-width="0.1" xml:space="preserve">Invalid view - remove from diagram.</text>
<rect x="23" y="257" clip-path="url(#clipPath1)" fill="rgb(255,203,203)" width="40" height="40" stroke="none" stroke-width="0.1"/>
<rect x="23" y="257" clip-path="url(#clipPath1)" fill="none" width="39" height="39" stroke-width="0.1"/>
<text x="-54" y="282" clip-path="url(#clipPath1)" stroke="none" stroke-width="0.1" xml:space="preserve">Invalid view - remove from diagram.</text>
<rect x="23" y="257" clip-path="url(#clipPath1)" fill="rgb(255,203,203)" width="40" height="40" stroke="none" stroke-width="0.1"/>
<rect x="23" y="257" clip-path="url(#clipPath1)" fill="none" width="39" height="39" stroke-width="0.1"/>
<text x="-54" y="282" clip-path="url(#clipPath1)" stroke="none" stroke-width="0.1" xml:space="preserve">Invalid view - remove from diagram.</text>
<rect x="23" y="257" clip-path="url(#clipPath1)" fill="rgb(255,203,203)" width="40" height="40" stroke="none" stroke-width="0.1"/>
<rect x="23" y="257" clip-path="url(#clipPath1)" fill="none" width="39" height="39" stroke-width="0.1"/>
<text x="-54" y="282" clip-path="url(#clipPath1)" stroke="none" stroke-width="0.1" xml:space="preserve">Invalid view - remove from diagram.</text>
<text x="466" y="44" clip-path="url(#clipPath6)" fill="red" stroke="none" stroke-width="0.1" xml:space="preserve">Invalid view - remove from diagram.</text>
<line clip-path="url(#clipPath3)" fill="none" x1="767" x2="635" y1="147" y2="160" stroke="red" stroke-width="1.1"/>
<text x="604" y="159" clip-path="url(#clipPath7)" fill="red" stroke="none" stroke-width="1.1" xml:space="preserve">Invalid view - remove from diagram.</text>
<line clip-path="url(#clipPath3)" fill="none" x1="776" x2="887" y1="107" y2="38" stroke="red" stroke-width="1.1"/>
<text x="736" y="77" clip-path="url(#clipPath8)" fill="red" stroke="none" stroke-width="1.1" xml:space="preserve">Invalid view - remove from diagram.</text>
<line clip-path="url(#clipPath3)" fill="none" x1="919" x2="919" y1="374" y2="377" stroke="red" stroke-width="1.1"/>
<text x="823" y="381" clip-path="url(#clipPath9)" fill="red" stroke="none" stroke-width="1.1" xml:space="preserve">Invalid view - remove from diagram.</text>
<line clip-path="url(#clipPath3)" fill="none" x1="938" x2="819" y1="336" y2="289" stroke="red" stroke-width="1.1"/>
<text x="782" y="317" clip-path="url(#clipPath10)" fill="red" stroke="none" stroke-width="1.1" xml:space="preserve">Invalid view - remove from diagram.</text>
<line clip-path="url(#clipPath3)" fill="none" x1="679" x2="614" y1="273" y2="214" stroke="red" stroke-width="1.1"/>
<text x="550" y="248" clip-path="url(#clipPath11)" fill="red" stroke="none" stroke-width="1.1" xml:space="preserve">Invalid view - remove from diagram.</text>
<line clip-path="url(#clipPath3)" fill="none" x1="768" x2="795" y1="281" y2="267" stroke="red" stroke-width="1.1"/>
<text x="685" y="279" clip-path="url(#clipPath12)" fill="red" stroke="none" stroke-width="1.1" xml:space="preserve">Invalid view - remove from diagram.</text>
<line clip-path="url(#clipPath3)" fill="none" x1="716" x2="716" y1="313" y2="381" stroke="red" stroke-width="1.1"/>
<text x="620" y="352" clip-path="url(#clipPath13)" fill="red" stroke="none" stroke-width="1.1" xml:space="preserve">Invalid view - remove from diagram.</text>
<line clip-path="url(#clipPath3)" fill="none" x1="868" x2="570" y1="711" y2="711" stroke="red" stroke-width="1.1"/>
<rect x="23" y="257" clip-path="url(#clipPath1)" fill="rgb(255,203,203)" width="40" height="40" stroke="none" stroke-width="1.1"/>
<rect x="23" y="257" clip-path="url(#clipPath1)" fill="none" width="39" height="39" stroke-width="0.1"/>
<text x="-54" y="282" clip-path="url(#clipPath1)" stroke="none" stroke-width="0.1" xml:space="preserve">Invalid view - remove from diagram.</text>
<rect x="23" y="257" clip-path="url(#clipPath1)" fill="rgb(255,203,203)" width="40" height="40" stroke="none" stroke-width="0.1"/>
<rect x="23" y="257" clip-path="url(#clipPath1)" fill="none" width="39" height="39" stroke-width="0.1"/>
<text x="-54" y="282" clip-path="url(#clipPath1)" stroke="none" stroke-width="0.1" xml:space="preserve">Invalid view - remove from diagram.</text>
<text x="623" y="716" clip-path="url(#clipPath14)" fill="red" stroke="none" stroke-width="0.1" xml:space="preserve">Invalid view - remove from diagram.</text>
<line clip-path="url(#clipPath3)" fill="none" x1="1180" x2="1151" y1="271" y2="185" stroke="red" stroke-width="1.1"/>
<text x="1069" y="232" clip-path="url(#clipPath15)" fill="red" stroke="none" stroke-width="1.1" xml:space="preserve">Invalid view - remove from diagram.</text>
<line clip-path="url(#clipPath3)" fill="none" x1="1149" x2="835" y1="285" y2="266" stroke="red" stroke-width="1.1"/>
<text x="895" y="280" clip-path="url(#clipPath16)" fill="red" stroke="none" stroke-width="1.1" xml:space="preserve">Invalid view - remove from diagram.</text>
<line clip-path="url(#clipPath3)" fill="none" x1="550" x2="550" y1="717" y2="890" stroke="red" stroke-width="1.1"/>
<line clip-path="url(#clipPath3)" fill="none" x1="550" x2="540" y1="890" y2="890" stroke="red" stroke-width="1.1"/>
<line clip-path="url(#clipPath3)" fill="none" x1="540" x2="540" y1="890" y2="1064" stroke="red" stroke-width="1.1"/>
<rect x="23" y="257" clip-path="url(#clipPath1)" fill="rgb(255,203,203)" width="40" height="40" stroke="none" stroke-width="1.1"/>
<rect x="23" y="257" clip-path="url(#clipPath1)" fill="none" width="39" height="39" stroke-width="0.1"/>
<text x="-54" y="282" clip-path="url(#clipPath1)" stroke="none" stroke-width="0.1" xml:space="preserve">Invalid view - remove from diagram.</text>
<rect x="23" y="257" clip-path="url(#clipPath1)" fill="rgb(255,203,203)" width="40" height="40" stroke="none" stroke-width="0.1"/>
<rect x="23" y="257" clip-path="url(#clipPath1)" fill="none" width="39" height="39" stroke-width="0.1"/>
<text x="-54" y="282" clip-path="url(#clipPath1)" stroke="none" stroke-width="0.1" xml:space="preserve">Invalid view - remove from diagram.</text>
<rect x="23" y="257" clip-path="url(#clipPath1)" fill="rgb(255,203,203)" width="40" height="40" stroke="none" stroke-width="0.1"/>
<rect x="23" y="257" clip-path="url(#clipPath1)" fill="none" width="39" height="39" stroke-width="0.1"/>
<text x="-54" y="282" clip-path="url(#clipPath1)" stroke="none" stroke-width="0.1" xml:space="preserve">Invalid view - remove from diagram.</text>
<rect x="23" y="257" clip-path="url(#clipPath1)" fill="rgb(255,203,203)" width="40" height="40" stroke="none" stroke-width="0.1"/>
<rect x="23" y="257" clip-path="url(#clipPath1)" fill="none" width="39" height="39" stroke-width="0.1"/>
<text x="-54" y="282" clip-path="url(#clipPath1)" stroke="none" stroke-width="0.1" xml:space="preserve">Invalid view - remove from diagram.</text>
<rect x="23" y="257" clip-path="url(#clipPath1)" fill="rgb(255,203,203)" width="40" height="40" stroke="none" stroke-width="0.1"/>
<rect x="23" y="257" clip-path="url(#clipPath1)" fill="none" width="39" height="39" stroke-width="0.1"/>
<text x="-54" y="282" clip-path="url(#clipPath1)" stroke="none" stroke-width="0.1" xml:space="preserve">Invalid view - remove from diagram.</text>
<text x="448" y="895" clip-path="url(#clipPath17)" fill="red" stroke="none" stroke-width="0.1" xml:space="preserve">Invalid view - remove from diagram.</text>
<line clip-path="url(#clipPath3)" fill="none" x1="622" x2="611" y1="833" y2="904" stroke="red" stroke-width="1.1"/>
<text x="520" y="874" clip-path="url(#clipPath18)" fill="red" stroke="none" stroke-width="1.1" xml:space="preserve">Invalid view - remove from diagram.</text>
<line clip-path="url(#clipPath3)" fill="none" x1="682" x2="632" y1="793" y2="711" stroke="red" stroke-width="1.1"/>
<text x="561" y="757" clip-path="url(#clipPath19)" fill="red" stroke="none" stroke-width="1.1" xml:space="preserve">Invalid view - remove from diagram.</text>
<line clip-path="url(#clipPath3)" fill="none" x1="734" x2="734" y1="833" y2="839" stroke="red" stroke-width="1.1"/>
<line clip-path="url(#clipPath3)" fill="none" x1="734" x2="715" y1="839" y2="839" stroke="red" stroke-width="1.1"/>
<line clip-path="url(#clipPath3)" fill="none" x1="715" x2="715" y1="839" y2="1062" stroke="red" stroke-width="1.1"/>
<text x="619" y="943" clip-path="url(#clipPath20)" fill="red" stroke="none" stroke-width="1.1" xml:space="preserve">Invalid view - remove from diagram.</text>
<line clip-path="url(#clipPath3)" fill="none" x1="621" x2="621" y1="1004" y2="944" stroke="red" stroke-width="1.1"/>
<text x="525" y="979" clip-path="url(#clipPath21)" fill="red" stroke="none" stroke-width="1.1" xml:space="preserve">Invalid view - remove from diagram.</text>
<line clip-path="url(#clipPath3)" fill="none" x1="610" x2="540" y1="1027" y2="1048" stroke="red" stroke-width="1.1"/>
<text x="479" y="1043" clip-path="url(#clipPath22)" fill="red" stroke="none" stroke-width="1.1" xml:space="preserve">Invalid view - remove from diagram.</text>
<line clip-path="url(#clipPath3)" fill="none" x1="849" x2="849" y1="837" y2="949" stroke="red" stroke-width="1.1"/>
<line clip-path="url(#clipPath3)" fill="none" x1="849" x2="736" y1="949" y2="949" stroke="red" stroke-width="1.1"/>
<line clip-path="url(#clipPath3)" fill="none" x1="736" x2="736" y1="949" y2="1062" stroke="red" stroke-width="1.1"/>
<text x="696" y="954" clip-path="url(#clipPath23)" fill="red" stroke="none" stroke-width="1.1" xml:space="preserve">Invalid view - remove from diagram.</text>
<line clip-path="url(#clipPath3)" fill="none" x1="854" x2="868" y1="797" y2="715" stroke="red" stroke-width="1.1"/>
<text x="765" y="761" clip-path="url(#clipPath24)" fill="red" stroke="none" stroke-width="1.1" xml:space="preserve">Invalid view - remove from diagram.</text>
<line clip-path="url(#clipPath3)" fill="none" x1="786" x2="724" y1="1211" y2="1102" stroke="red" stroke-width="1.1"/>
<text x="659" y="1161" clip-path="url(#clipPath25)" fill="red" stroke="none" stroke-width="1.1" xml:space="preserve">Invalid view - remove from diagram.</text>
<line clip-path="url(#clipPath3)" fill="none" x1="804" x2="920" y1="1228" y2="1196" stroke="red" stroke-width="1.1"/>
<text x="766" y="1217" clip-path="url(#clipPath26)" fill="red" stroke="none" stroke-width="1.1" xml:space="preserve">Invalid view - remove from diagram.</text>
</g>
</g>
<rect x="495" y="377" fill-opacity="0" width="170" title="The LogicalTerminationPoint (LTP) class encapsulates the termination and adaptation functions of one or more transport layers represented by instances of LayerProtocol.&#13;&#10;The encapsulated transport layers have a simple fixed 1:1 client-server relationship defined by association end ordering.&#13;&#10;The structure of LTP supports all transport protocols including circuit and packet forms." id="LogicalTerminationPoint" height="40" stroke-opacity="0">
<title>The LogicalTerminationPoint (LTP) class encapsulates the termination and adaptation functions of one or more transport layers represented by instances of LayerProtocol.&#13;
The encapsulated transport layers have a simple fixed 1:1 client-server relationship defined by association end ordering.&#13;
The structure of LTP supports all transport protocols including circuit and packet forms.</title>
</rect>
<rect x="530" y="677" fill-opacity="0" width="40" title="The projection of an LTP into each transport layer is represented by a LayerProtocol (LP) instance. A LayerProtocol instance can be used for controlling termination and monitoring functionality. &#13;&#10;It can also be used for controlling the adaptation (i.e. encapsulation and/or multiplexing of client signal), tandem connection monitoring, traffic conditioning and/or shaping functionality at an intermediate point along a connection. &#13;&#10;Where the client – server relationship is fixed 1:1 and immutable, the layers can be encapsulated in a single LTP instance. Where there is a n:1 relationship between client and server, the layers must be split over two separate instances of LTP. " id="LayerProtocol" height="40" stroke-opacity="0">
<title>The projection of an LTP into each transport layer is represented by a LayerProtocol (LP) instance. A LayerProtocol instance can be used for controlling termination and monitoring functionality. &#13;
It can also be used for controlling the adaptation (i.e. encapsulation and/or multiplexing of client signal), tandem connection monitoring, traffic conditioning and/or shaping functionality at an intermediate point along a connection. &#13;
Where the client – server relationship is fixed 1:1 and immutable, the layers can be encapsulated in a single LTP instance. Where there is a n:1 relationship between client and server, the layers must be split over two separate instances of LTP. </title>
</rect>
<rect x="868" y="682" fill-opacity="0" width="40" title="The specification of the capabilities of a specific type of LP." id="LpSpec" height="40" stroke-opacity="0">
<title>The specification of the capabilities of a specific type of LP.</title>
</rect>
<rect x="898" y="377" fill-opacity="0" width="40" title="The specification of a specific type of LTP." id="LtpSpec" height="40" stroke-opacity="0">
<title>The specification of a specific type of LTP.</title>
</rect>
<rect x="902" y="10" fill-opacity="0" width="40" title="This datatype represents the &quot;&lt;&lt;Metaclass&gt;&gt; Class&quot; from the UML metamodel. &#13;&#10;An instance of the referencing Class (e.g. LTP) will reference a Class (not an instance).&#13;&#10;This referenced Class will provide definition to extend the referencing instance. &#13;&#10;So, for example, an LTP instance will have the attributes defined in the LTP class and also the attributes defined in the referenced Class (an LtpSpec).&#13;&#10;The referenced Class may:&#13;&#10;(1) provide invariant properties (that are the same for many instances) that then are not conveyed with the referencing instance.&#13;&#10;(2) provide definitions for attributes that are present in the instance that are not defined in the Class of the instance (these attribute may have been pruned and refactored from one or more external definition sources). &#13;&#10;(3) apply constraints to attributes in the instance that were defined in the class of the referencing instance.&#13;&#10;(4) replace attributes that were present in the class of the referencing instance by a new definition (same name).&#13;&#10;" id="Metaclass:Class" height="40" stroke-opacity="0">
<title>This datatype represents the "&lt;&lt;Metaclass&gt;&gt; Class" from the UML metamodel. &#13;
An instance of the referencing Class (e.g. LTP) will reference a Class (not an instance).&#13;
This referenced Class will provide definition to extend the referencing instance. &#13;
So, for example, an LTP instance will have the attributes defined in the LTP class and also the attributes defined in the referenced Class (an LtpSpec).&#13;
The referenced Class may:&#13;
(1) provide invariant properties (that are the same for many instances) that then are not conveyed with the referencing instance.&#13;
(2) provide definitions for attributes that are present in the instance that are not defined in the Class of the instance (these attribute may have been pruned and refactored from one or more external definition sources). &#13;
(3) apply constraints to attributes in the instance that were defined in the class of the referencing instance.&#13;
(4) replace attributes that were present in the class of the referencing instance by a new definition (same name).&#13;
</title>
</rect>
<rect x="604" y="160" fill-opacity="0" width="40" title="Provides a reference to a specification which is in the form of a class definition.&#13;&#10;An instance of LTP will reference a class (by a universally unique id) that provides definition that extends the LTP including attributes and structure that are present in the LTP instance but that are not defined in the native LTP class.&#13;&#10;&#13;&#10;" id="_ltpSpecReference:ClassRef" height="54" stroke-opacity="0">
<title>Provides a reference to a specification which is in the form of a class definition.&#13;
An instance of LTP will reference a class (by a universally unique id) that provides definition that extends the LTP including attributes and structure that are present in the LTP instance but that are not defined in the native LTP class.&#13;
&#13;
</title>
</rect>
<rect x="1121" y="145" fill-opacity="0" width="40" id="Metaclass:Class:Name" height="40" stroke-opacity="0"/>
<rect x="738" y="107" fill-opacity="0" width="40" height="40" stroke-opacity="0"/>
<rect x="630" y="273" fill-opacity="0" width="138" height="40" stroke-opacity="0"/>
<rect x="795" y="249" fill-opacity="0" width="40" id="specTargetClass" height="40" stroke-opacity="0"/>
<rect x="919" y="336" fill-opacity="0" width="40" height="40" stroke-opacity="0"/>
<rect x="1149" y="271" fill-opacity="0" width="40" height="40" stroke-opacity="0"/>
<rect x="707" y="1062" fill-opacity="0" width="40" id="specTargetClass" height="40" stroke-opacity="0"/>
<rect x="507" y="1064" fill-opacity="0" width="40" title="This datatype represents the &quot;&lt;&lt;Metaclass&gt;&gt; Class&quot; from the UML metamodel. &#13;&#10;An instance of the referencing Class (e.g. LTP) will reference a Class (not an instance).&#13;&#10;This referenced Class will provide definition to extend the referencing instance. &#13;&#10;So, for example, an LTP instance will have the attributes defined in the LTP class and also the attributes defined in the referenced Class (an LtpSpec).&#13;&#10;The referenced Class may:&#13;&#10;(1) provide invariant properties (that are the same for many instances) that then are not conveyed with the referencing instance.&#13;&#10;(2) provide definitions for attributes that are present in the instance that are not defined in the Class of the instance (these attribute may have been pruned and refactored from one or more external definition sources). &#13;&#10;(3) apply constraints to attributes in the instance that were defined in the class of the referencing instance.&#13;&#10;(4) replace attributes that were present in the class of the referencing instance by a new definition (same name).&#13;&#10;" id="Metaclass:Class" height="40" stroke-opacity="0">
<title>This datatype represents the "&lt;&lt;Metaclass&gt;&gt; Class" from the UML metamodel. &#13;
An instance of the referencing Class (e.g. LTP) will reference a Class (not an instance).&#13;
This referenced Class will provide definition to extend the referencing instance. &#13;
So, for example, an LTP instance will have the attributes defined in the LTP class and also the attributes defined in the referenced Class (an LtpSpec).&#13;
The referenced Class may:&#13;
(1) provide invariant properties (that are the same for many instances) that then are not conveyed with the referencing instance.&#13;
(2) provide definitions for attributes that are present in the instance that are not defined in the Class of the instance (these attribute may have been pruned and refactored from one or more external definition sources). &#13;
(3) apply constraints to attributes in the instance that were defined in the class of the referencing instance.&#13;
(4) replace attributes that were present in the class of the referencing instance by a new definition (same name).&#13;
</title>
</rect>
<rect x="920" y="1179" fill-opacity="0" width="40" id="Metaclass:Class:Name" height="40" stroke-opacity="0"/>
<rect x="609" y="904" fill-opacity="0" width="40" id="_lpSpecReference:ClassRef" height="40" stroke-opacity="0"/>
<rect x="610" y="1004" fill-opacity="0" width="40" height="40" stroke-opacity="0"/>
<rect x="594" y="793" fill-opacity="0" width="160" height="40" stroke-opacity="0"/>
<rect x="831" y="797" fill-opacity="0" width="40" height="40" stroke-opacity="0"/>
<rect x="764" y="1211" fill-opacity="0" width="40" height="40" stroke-opacity="0"/>
</svg>
