<?xml version="1.0" encoding="UTF-8"?><svg xmlns="http://www.w3.org/2000/svg" xmlns:xlink="http://www.w3.org/1999/xlink" stroke-dasharray="none" shape-rendering="auto" font-family="'Dialog'" width="1349" text-rendering="auto" fill-opacity="1" contentScriptType="text/ecmascript" color-interpolation="auto" color-rendering="auto" preserveAspectRatio="xMidYMid meet" font-size="12" viewBox="0 0 1349 628" fill="black" stroke="black" image-rendering="auto" stroke-miterlimit="10" zoomAndPan="magnify" version="1.0" stroke-linecap="square" stroke-linejoin="miter" contentStyleType="text/css" font-style="normal" height="628" stroke-width="1" stroke-dashoffset="0" font-weight="normal" stroke-opacity="1">
<!--Generated by the Batik Graphics2D SVG Generator-->
<defs id="genericDefs"/>
<g>
<defs id="defs1">
<clipPath clipPathUnits="userSpaceOnUse" id="clipPath1">
<path d="M192 22 L234 22 L234 64 L192 64 L192 22 Z"/>
</clipPath>
<clipPath clipPathUnits="userSpaceOnUse" id="clipPath2">
<path d="M476 403 L670 403 L670 421 L476 421 L476 403 Z"/>
</clipPath>
<clipPath clipPathUnits="userSpaceOnUse" id="clipPath3">
<path d="M-1 -1 L1350 -1 L1350 629 L-1 629 L-1 -1 Z"/>
</clipPath>
<clipPath clipPathUnits="userSpaceOnUse" id="clipPath4">
<path d="M698 538 L892 538 L892 556 L698 556 L698 538 Z"/>
</clipPath>
<clipPath clipPathUnits="userSpaceOnUse" id="clipPath5">
<path d="M805 467 L999 467 L999 485 L805 485 L805 467 Z"/>
</clipPath>
<clipPath clipPathUnits="userSpaceOnUse" id="clipPath6">
<path d="M574 488 L768 488 L768 506 L574 506 L574 488 Z"/>
</clipPath>
<clipPath clipPathUnits="userSpaceOnUse" id="clipPath7">
<path d="M639 413 L833 413 L833 431 L639 431 L639 413 Z"/>
</clipPath>
<clipPath clipPathUnits="userSpaceOnUse" id="clipPath8">
<path d="M852 573 L1046 573 L1046 591 L852 591 L852 573 Z"/>
</clipPath>
<clipPath clipPathUnits="userSpaceOnUse" id="clipPath9">
<path d="M1105 373 L1299 373 L1299 391 L1105 391 L1105 373 Z"/>
</clipPath>
<clipPath clipPathUnits="userSpaceOnUse" id="clipPath10">
<path d="M130 153 L324 153 L324 171 L130 171 L130 153 Z"/>
</clipPath>
<clipPath clipPathUnits="userSpaceOnUse" id="clipPath11">
<path d="M576 179 L770 179 L770 197 L576 197 L576 179 Z"/>
</clipPath>
<clipPath clipPathUnits="userSpaceOnUse" id="clipPath12">
<path d="M568 276 L762 276 L762 294 L568 294 L568 276 Z"/>
</clipPath>
<clipPath clipPathUnits="userSpaceOnUse" id="clipPath13">
<path d="M566 354 L760 354 L760 372 L566 372 L566 354 Z"/>
</clipPath>
<clipPath clipPathUnits="userSpaceOnUse" id="clipPath14">
<path d="M781 117 L975 117 L975 135 L781 135 L781 117 Z"/>
</clipPath>
<clipPath clipPathUnits="userSpaceOnUse" id="clipPath15">
<path d="M848 69 L1042 69 L1042 87 L848 87 L848 69 Z"/>
</clipPath>
<clipPath clipPathUnits="userSpaceOnUse" id="clipPath16">
<path d="M1060 57 L1254 57 L1254 75 L1060 75 L1060 57 Z"/>
</clipPath>
<clipPath clipPathUnits="userSpaceOnUse" id="clipPath17">
<path d="M1133 114 L1327 114 L1327 132 L1133 132 L1133 114 Z"/>
</clipPath>
<clipPath clipPathUnits="userSpaceOnUse" id="clipPath18">
<path d="M813 240 L1007 240 L1007 258 L813 258 L813 240 Z"/>
</clipPath>
<clipPath clipPathUnits="userSpaceOnUse" id="clipPath19">
<path d="M803 371 L997 371 L997 389 L803 389 L803 371 Z"/>
</clipPath>
</defs>
<g fill="rgb(255,203,203)" font-family="'Segoe UI'" stroke-linejoin="round" stroke="rgb(255,203,203)" stroke-width="0" stroke-miterlimit="0">
<rect width="40" x="887" height="40" y="140" stroke="none"/>
</g>
<g stroke-linecap="butt" font-family="'Segoe UI'">
<rect fill="none" width="39" x="887" height="39" y="140"/>
<text xml:space="preserve" x="810" y="165" stroke="none">Invalid view - remove from diagram.</text>
<rect x="1169" y="146" fill="rgb(255,203,203)" width="40" height="40" stroke="none"/>
<rect x="1169" y="146" fill="none" width="39" height="39" stroke-width="0.1"/>
<text xml:space="preserve" x="1092" stroke-width="0.1" y="171" stroke="none">Invalid view - remove from diagram.</text>
<rect x="226" y="396" fill="rgb(255,203,203)" width="40" height="40" stroke="none" stroke-width="0.1"/>
<rect x="226" y="396" fill="none" width="39" height="39" stroke-width="0.1"/>
<text xml:space="preserve" x="149" stroke-width="0.1" y="421" stroke="none">Invalid view - remove from diagram.</text>
<rect x="881" y="400" fill="rgb(255,203,203)" width="40" height="40" stroke="none" stroke-width="0.1"/>
<rect x="881" y="400" fill="none" width="39" height="39" stroke-width="0.1"/>
<text xml:space="preserve" x="804" stroke-width="0.1" y="425" stroke="none">Invalid view - remove from diagram.</text>
<rect x="664" y="560" fill="rgb(255,203,203)" width="40" height="40" stroke="none" stroke-width="0.1"/>
<rect x="664" y="560" fill="none" width="39" height="39" stroke-width="0.1"/>
<text xml:space="preserve" x="587" stroke-width="0.1" y="585" stroke="none">Invalid view - remove from diagram.</text>
<rect x="897" y="512" fill="rgb(255,203,203)" width="40" height="40" stroke="none" stroke-width="0.1"/>
<rect x="897" y="512" fill="none" width="39" height="39" stroke-width="0.1"/>
<text xml:space="preserve" x="820" stroke-width="0.1" y="537" stroke="none">Invalid view - remove from diagram.</text>
<rect x="606" y="392" fill="rgb(255,203,203)" width="183" height="40" stroke="none" stroke-width="0.1"/>
<rect x="606" y="392" fill="none" width="182" height="39" stroke-width="0.1"/>
<text xml:space="preserve" x="601" stroke-width="0.1" y="417" stroke="none">Invalid view - remove from diagram.</text>
<rect x="1194" y="578" fill="rgb(255,203,203)" width="40" height="40" stroke="none" stroke-width="0.1"/>
<rect x="1194" y="578" fill="none" width="39" height="39" stroke-width="0.1"/>
<text xml:space="preserve" x="1117" stroke-width="0.1" y="603" stroke="none">Invalid view - remove from diagram.</text>
<rect x="616" y="294" fill="rgb(255,203,203)" width="40" height="40" stroke="none" stroke-width="0.1"/>
<rect x="616" y="294" fill="none" width="39" height="39" stroke-width="0.1"/>
<text xml:space="preserve" x="539" stroke-width="0.1" y="319" stroke="none">Invalid view - remove from diagram.</text>
<rect x="682" y="245" fill="rgb(255,203,203)" width="40" height="40" stroke="none" stroke-width="0.1"/>
<rect x="682" y="245" fill="none" width="39" height="39" stroke-width="0.1"/>
<text xml:space="preserve" x="605" stroke-width="0.1" y="270" stroke="none">Invalid view - remove from diagram.</text>
<rect x="1020" y="43" fill="rgb(255,203,203)" width="40" height="40" stroke="none" stroke-width="0.1"/>
<rect x="1020" y="43" fill="none" width="39" height="39" stroke-width="0.1"/>
<text xml:space="preserve" x="943" stroke-width="0.1" y="68" stroke="none">Invalid view - remove from diagram.</text>
<rect x="831" y="71" fill="rgb(255,203,203)" width="40" height="40" stroke="none" stroke-width="0.1"/>
<rect x="831" y="71" fill="none" width="39" height="39" stroke-width="0.1"/>
<text xml:space="preserve" x="754" stroke-width="0.1" y="96" stroke="none">Invalid view - remove from diagram.</text>
<rect x="1255" y="60" fill="rgb(255,203,203)" width="40" height="40" stroke="none" stroke-width="0.1"/>
<rect x="1255" y="60" fill="none" width="39" height="39" stroke-width="0.1"/>
<text xml:space="preserve" x="1178" stroke-width="0.1" y="85" stroke="none">Invalid view - remove from diagram.</text>
<rect x="888" y="320" fill="rgb(255,203,203)" width="40" height="40" stroke="none" stroke-width="0.1"/>
<rect x="888" y="320" fill="none" width="39" height="39" stroke-width="0.1"/>
<text xml:space="preserve" x="811" stroke-width="0.1" y="345" stroke="none">Invalid view - remove from diagram.</text>
<line fill="none" x1="881" x2="266" y1="412" y2="412" stroke="red" stroke-width="1.1"/>
<rect x="193" y="23" clip-path="url(#clipPath1)" fill="rgb(255,203,203)" width="40" height="40" stroke="none" stroke-width="1.1"/>
<rect x="193" y="23" clip-path="url(#clipPath1)" fill="none" width="39" height="39" stroke-width="0.1"/>
<text x="116" y="48" clip-path="url(#clipPath1)" stroke="none" stroke-width="0.1" xml:space="preserve">Invalid view - remove from diagram.</text>
<rect x="193" y="23" clip-path="url(#clipPath1)" fill="rgb(255,203,203)" width="40" height="40" stroke="none" stroke-width="0.1"/>
<rect x="193" y="23" clip-path="url(#clipPath1)" fill="none" width="39" height="39" stroke-width="0.1"/>
<text x="116" y="48" clip-path="url(#clipPath1)" stroke="none" stroke-width="0.1" xml:space="preserve">Invalid view - remove from diagram.</text>
<text x="477" y="417" clip-path="url(#clipPath2)" fill="red" stroke="none" stroke-width="0.1" xml:space="preserve">Invalid view - remove from diagram.</text>
<line clip-path="url(#clipPath3)" fill="none" x1="897" x2="693" y1="534" y2="560" stroke="red" stroke-width="1.1"/>
<text x="699" y="552" clip-path="url(#clipPath4)" fill="red" stroke="none" stroke-width="1.1" xml:space="preserve">Invalid view - remove from diagram.</text>
<line clip-path="url(#clipPath3)" fill="none" x1="911" x2="892" y1="512" y2="440" stroke="red" stroke-width="1.1"/>
<text x="806" y="481" clip-path="url(#clipPath5)" fill="red" stroke="none" stroke-width="1.1" xml:space="preserve">Invalid view - remove from diagram.</text>
<line clip-path="url(#clipPath3)" fill="none" x1="678" x2="665" y1="432" y2="560" stroke="red" stroke-width="1.1"/>
<text x="575" y="502" clip-path="url(#clipPath6)" fill="red" stroke="none" stroke-width="1.1" xml:space="preserve">Invalid view - remove from diagram.</text>
<line clip-path="url(#clipPath3)" fill="none" x1="766" x2="705" y1="432" y2="412" stroke="red" stroke-width="1.1"/>
<text x="640" y="427" clip-path="url(#clipPath7)" fill="red" stroke="none" stroke-width="1.1" xml:space="preserve">Invalid view - remove from diagram.</text>
<line clip-path="url(#clipPath3)" fill="none" x1="1194" x2="704" y1="591" y2="573" stroke="red" stroke-width="1.1"/>
<text x="853" y="587" clip-path="url(#clipPath8)" fill="red" stroke="none" stroke-width="1.1" xml:space="preserve">Invalid view - remove from diagram.</text>
<line clip-path="url(#clipPath3)" fill="none" x1="1213" x2="1190" y1="578" y2="186" stroke="red" stroke-width="1.1"/>
<text x="1106" y="387" clip-path="url(#clipPath9)" fill="red" stroke="none" stroke-width="1.1" xml:space="preserve">Invalid view - remove from diagram.</text>
<line clip-path="url(#clipPath3)" fill="none" x1="245" x2="245" y1="396" y2="205" stroke="red" stroke-width="1.1"/>
<line clip-path="url(#clipPath3)" fill="none" x1="245" x2="23" y1="205" y2="205" stroke="red" stroke-width="1.1"/>
<line clip-path="url(#clipPath3)" fill="none" x1="23" x2="23" y1="205" y2="162" stroke="red" stroke-width="1.1"/>
<line clip-path="url(#clipPath3)" fill="none" x1="23" x2="887" y1="162" y2="162" stroke="red" stroke-width="1.1"/>
<rect x="193" y="23" clip-path="url(#clipPath1)" fill="rgb(255,203,203)" width="40" height="40" stroke="none" stroke-width="1.1"/>
<rect x="193" y="23" clip-path="url(#clipPath1)" fill="none" width="39" height="39" stroke-width="0.1"/>
<text x="116" y="48" clip-path="url(#clipPath1)" stroke="none" stroke-width="0.1" xml:space="preserve">Invalid view - remove from diagram.</text>
<rect x="193" y="23" clip-path="url(#clipPath1)" fill="rgb(255,203,203)" width="40" height="40" stroke="none" stroke-width="0.1"/>
<rect x="193" y="23" clip-path="url(#clipPath1)" fill="none" width="39" height="39" stroke-width="0.1"/>
<text x="116" y="48" clip-path="url(#clipPath1)" stroke="none" stroke-width="0.1" xml:space="preserve">Invalid view - remove from diagram.</text>
<rect x="193" y="23" clip-path="url(#clipPath1)" fill="rgb(255,203,203)" width="40" height="40" stroke="none" stroke-width="0.1"/>
<rect x="193" y="23" clip-path="url(#clipPath1)" fill="none" width="39" height="39" stroke-width="0.1"/>
<text x="116" y="48" clip-path="url(#clipPath1)" stroke="none" stroke-width="0.1" xml:space="preserve">Invalid view - remove from diagram.</text>
<rect x="193" y="23" clip-path="url(#clipPath1)" fill="rgb(255,203,203)" width="40" height="40" stroke="none" stroke-width="0.1"/>
<rect x="193" y="23" clip-path="url(#clipPath1)" fill="none" width="39" height="39" stroke-width="0.1"/>
<text x="116" y="48" clip-path="url(#clipPath1)" stroke="none" stroke-width="0.1" xml:space="preserve">Invalid view - remove from diagram.</text>
<rect x="193" y="23" clip-path="url(#clipPath1)" fill="rgb(255,203,203)" width="40" height="40" stroke="none" stroke-width="0.1"/>
<rect x="193" y="23" clip-path="url(#clipPath1)" fill="none" width="39" height="39" stroke-width="0.1"/>
<text x="116" y="48" clip-path="url(#clipPath1)" stroke="none" stroke-width="0.1" xml:space="preserve">Invalid view - remove from diagram.</text>
<text x="131" y="167" clip-path="url(#clipPath10)" fill="red" stroke="none" stroke-width="0.1" xml:space="preserve">Invalid view - remove from diagram.</text>
<line clip-path="url(#clipPath3)" fill="none" x1="708" x2="708" y1="245" y2="200" stroke="red" stroke-width="1.1"/>
<line clip-path="url(#clipPath3)" fill="none" x1="708" x2="595" y1="200" y2="162" stroke="red" stroke-width="1.1"/>
<text x="577" y="193" clip-path="url(#clipPath11)" fill="red" stroke="none" stroke-width="1.1" xml:space="preserve">Invalid view - remove from diagram.</text>
<line clip-path="url(#clipPath3)" fill="none" x1="682" x2="648" y1="275" y2="294" stroke="red" stroke-width="1.1"/>
<text x="569" y="290" clip-path="url(#clipPath12)" fill="red" stroke="none" stroke-width="1.1" xml:space="preserve">Invalid view - remove from diagram.</text>
<line clip-path="url(#clipPath3)" fill="none" x1="696" x2="630" y1="392" y2="334" stroke="red" stroke-width="1.1"/>
<text x="567" y="368" clip-path="url(#clipPath13)" fill="red" stroke="none" stroke-width="1.1" xml:space="preserve">Invalid view - remove from diagram.</text>
<line clip-path="url(#clipPath3)" fill="none" x1="856" x2="899" y1="111" y2="140" stroke="red" stroke-width="1.1"/>
<text x="782" y="131" clip-path="url(#clipPath14)" fill="red" stroke="none" stroke-width="1.1" xml:space="preserve">Invalid view - remove from diagram.</text>
<line clip-path="url(#clipPath3)" fill="none" x1="871" x2="1020" y1="88" y2="68" stroke="red" stroke-width="1.1"/>
<text x="849" y="83" clip-path="url(#clipPath15)" fill="red" stroke="none" stroke-width="1.1" xml:space="preserve">Invalid view - remove from diagram.</text>
<line clip-path="url(#clipPath3)" fill="none" x1="1255" x2="1060" y1="66" y2="66" stroke="red" stroke-width="1.1"/>
<text x="1061" y="71" clip-path="url(#clipPath16)" fill="red" stroke="none" stroke-width="1.1" xml:space="preserve">Invalid view - remove from diagram.</text>
<line clip-path="url(#clipPath3)" fill="none" x1="1261" x2="1198" y1="100" y2="146" stroke="red" stroke-width="1.1"/>
<text x="1134" y="128" clip-path="url(#clipPath17)" fill="red" stroke="none" stroke-width="1.1" xml:space="preserve">Invalid view - remove from diagram.</text>
<line clip-path="url(#clipPath3)" fill="none" x1="904" x2="916" y1="320" y2="180" stroke="red" stroke-width="1.1"/>
<text x="814" y="254" clip-path="url(#clipPath18)" fill="red" stroke="none" stroke-width="1.1" xml:space="preserve">Invalid view - remove from diagram.</text>
<line clip-path="url(#clipPath3)" fill="none" x1="900" x2="900" y1="360" y2="400" stroke="red" stroke-width="1.1"/>
<text x="804" y="385" clip-path="url(#clipPath19)" fill="red" stroke="none" stroke-width="1.1" xml:space="preserve">Invalid view - remove from diagram.</text>
</g>
</g>
<rect x="887" y="140" fill-opacity="0" width="40" title="This datatype represents the &quot;&lt;&lt;Metaclass&gt;&gt; Class&quot; from the UML metamodel. &#13;&#10;An instance of the referencing Class (e.g. LTP) will reference a Class (not an instance).&#13;&#10;This referenced Class will provide definition to extend the referencing instance. &#13;&#10;So, for example, an LTP instance will have the attributes defined in the LTP class and also the attributes defined in the referenced Class (an LtpSpec).&#13;&#10;The referenced Class may:&#13;&#10;(1) provide invariant properties (that are the same for many instances) that then are not conveyed with the referencing instance.&#13;&#10;(2) provide definitions for attributes that are present in the instance that are not defined in the Class of the instance (these attribute may have been pruned and refactored from one or more external definition sources). &#13;&#10;(3) apply constraints to attributes in the instance that were defined in the class of the referencing instance.&#13;&#10;(4) replace attributes that were present in the class of the referencing instance by a new definition (same name).&#13;&#10;" id="Metaclass:Class" height="40" stroke-opacity="0">
<title>This datatype represents the "&lt;&lt;Metaclass&gt;&gt; Class" from the UML metamodel. &#13;
An instance of the referencing Class (e.g. LTP) will reference a Class (not an instance).&#13;
This referenced Class will provide definition to extend the referencing instance. &#13;
So, for example, an LTP instance will have the attributes defined in the LTP class and also the attributes defined in the referenced Class (an LtpSpec).&#13;
The referenced Class may:&#13;
(1) provide invariant properties (that are the same for many instances) that then are not conveyed with the referencing instance.&#13;
(2) provide definitions for attributes that are present in the instance that are not defined in the Class of the instance (these attribute may have been pruned and refactored from one or more external definition sources). &#13;
(3) apply constraints to attributes in the instance that were defined in the class of the referencing instance.&#13;
(4) replace attributes that were present in the class of the referencing instance by a new definition (same name).&#13;
</title>
</rect>
<rect x="1169" y="146" fill-opacity="0" width="40" id="Metaclass:Class:Name" height="40" stroke-opacity="0"/>
<rect x="226" y="396" fill-opacity="0" width="40" id="Entity" height="40" stroke-opacity="0"/>
<rect x="881" y="400" fill-opacity="0" width="40" id="EntitySpec" height="40" stroke-opacity="0"/>
<rect x="664" y="560" fill-opacity="0" width="40" id="specTargetClass" height="40" stroke-opacity="0"/>
<rect x="897" y="512" fill-opacity="0" width="40" height="40" stroke-opacity="0"/>
<rect x="606" y="392" fill-opacity="0" width="183" height="40" stroke-opacity="0"/>
<rect x="1194" y="578" fill-opacity="0" width="40" height="40" stroke-opacity="0"/>
<rect x="616" y="294" fill-opacity="0" width="40" id="_entitySpecReference:ClassRef" height="40" stroke-opacity="0"/>
<rect x="682" y="245" fill-opacity="0" width="40" height="40" stroke-opacity="0"/>
<rect x="1020" y="43" fill-opacity="0" width="40" title="The text name of the Class" id="Name" height="40" stroke-opacity="0">
<title>The text name of the Class</title>
</rect>
<rect x="831" y="71" fill-opacity="0" width="40" height="40" stroke-opacity="0"/>
<rect x="1255" y="60" fill-opacity="0" width="40" height="40" stroke-opacity="0"/>
<rect x="888" y="320" fill-opacity="0" width="40" height="40" stroke-opacity="0"/>
</svg>
